<svg xmlns="http://www.w3.org/2000/svg" viewBox="0 0 670.12 273"><defs><style>.cls-1{fill:#244461;}</style></defs><g id="Layer_2" data-name="Layer 2"><g id="Layer_21" data-name="Layer 21"><path class="cls-1" d="M164.44,9.33h9.07L159.45,50.67h-6.67l-6-22.44-5.89,22.44h-6.67l-14-41.34h9l8.41,26.94,5.82-21.12h6.79L156,36.27Z" transform="translate(-34.08 -7.41)"/><path class="cls-1" d="M202.17,39.21H181.08c.84,3.3,3.48,5.22,7.21,5.22a10,10,0,0,0,7.39-3.3l4.56,4.62c-2.64,3.54-7.51,5.64-12.43,5.64-8.65,0-15-6.06-15-14.7,0-9.06,6.91-14.76,14.9-14.76s14.6,5.7,14.6,14.28C202.35,37,202.29,38,202.17,39.21Zm-7.75-5.1c-.24-3.3-2.95-5.4-6.49-5.4a6.52,6.52,0,0,0-6.85,5.4Z" transform="translate(-34.08 -7.41)"/><path class="cls-1" d="M205.05,24.27c3.6-4.86,5.17-9.06,4.87-15.66h7.56c.31,7.56-4.14,14-8.77,17.58Z" transform="translate(-34.08 -7.41)"/><path class="cls-1" d="M241.51,22.65h8.59l-11.83,28h-7l-11.83-28h8.53l6.85,17.88Z" transform="translate(-34.08 -7.41)"/><path class="cls-1" d="M281.28,39.21H260.2c.84,3.3,3.48,5.22,7.21,5.22a10,10,0,0,0,7.39-3.3l4.56,4.62c-2.64,3.54-7.51,5.64-12.43,5.64-8.65,0-15-6.06-15-14.7,0-9.06,6.91-14.76,14.9-14.76s14.59,5.7,14.59,14.28C281.46,37,281.4,38,281.28,39.21Zm-7.74-5.1c-.25-3.3-3-5.4-6.49-5.4a6.52,6.52,0,0,0-6.85,5.4Z" transform="translate(-34.08 -7.41)"/><path class="cls-1" d="M318.35,22.65v6.12h-6v21.9h-7.87V28.77h-5.1V22.65h5.1V12.45h7.87v10.2Z" transform="translate(-34.08 -7.41)"/><path class="cls-1" d="M343.88,22.65h7.87v28h-7.87v-4a11.11,11.11,0,0,1-9.25,4.74c-7.75,0-13.52-6-13.52-14.7s5.65-14.76,13.7-14.76c3.6,0,7.21,1.56,9.07,4.44Zm-.24,14a7.38,7.38,0,0,0-7.33-7.44,7.41,7.41,0,0,0,.06,14.82A7.39,7.39,0,0,0,343.64,36.69Z" transform="translate(-34.08 -7.41)"/><path class="cls-1" d="M387.19,50.67H377.4l-9.85-12.12V50.67h-7.87V7.41h7.87V31.23l7.09-8.58h10.09L373.8,35Z" transform="translate(-34.08 -7.41)"/><path class="cls-1" d="M416.51,39.21H395.42c.84,3.3,3.49,5.22,7.21,5.22a10,10,0,0,0,7.39-3.3l4.57,4.62c-2.65,3.54-7.51,5.64-12.44,5.64-8.65,0-15-6.06-15-14.7,0-9.06,6.91-14.76,14.9-14.76s14.6,5.7,14.6,14.28C416.69,37,416.63,38,416.51,39.21Zm-7.75-5.1c-.24-3.3-2.94-5.4-6.49-5.4a6.52,6.52,0,0,0-6.85,5.4Z" transform="translate(-34.08 -7.41)"/><path class="cls-1" d="M450.15,35.31V50.67h-7.87V35.73c0-4.38-2.64-6.36-5.34-6.36s-6.31,1.5-6.31,6.6v14.7h-7.87v-28h7.87v4.74c1.2-3.78,5.64-5.46,8.41-5.46C446.37,21.93,450.21,26.91,450.15,35.31Z" transform="translate(-34.08 -7.41)"/><path class="cls-1" d="M488.54,22.65v6.12h-6v21.9h-7.87V28.77h-5.11V22.65h5.11V12.45h7.87v10.2Z" transform="translate(-34.08 -7.41)"/><path class="cls-1" d="M521,35.31V50.67h-7.87V35.79c0-4.38-2.65-6.42-5.35-6.42s-6.31,1.56-6.31,6.6v14.7h-7.87V7.41h7.87V27.09c1.2-3.6,5.71-5.16,8.41-5.16C517.25,21.93,521.1,26.91,521,35.31Z" transform="translate(-34.08 -7.41)"/><path class="cls-1" d="M556.24,39.21H535.15c.85,3.3,3.49,5.22,7.21,5.22a10,10,0,0,0,7.39-3.3l4.57,4.62c-2.65,3.54-7.51,5.64-12.44,5.64-8.65,0-15-6.06-15-14.7,0-9.06,6.91-14.76,14.9-14.76s14.6,5.7,14.6,14.28C556.42,37,556.36,38,556.24,39.21Zm-7.75-5.1c-.24-3.3-2.94-5.4-6.49-5.4a6.53,6.53,0,0,0-6.85,5.4Z" transform="translate(-34.08 -7.41)"/><path class="cls-1" d="M560.75,41.85h7.38c0,1.62,1.39,3.36,4.15,3.36,2.28,0,4-1.14,4-2.76,0-1.2-1-1.8-3.07-2.34l-3.72-.9c-7.21-1.92-8.17-5.94-8.17-8.88,0-4.32,4.5-8.4,11-8.4,5.11,0,11.11,2.46,11,9.12h-7.51c0-1.92-1.56-2.94-3.42-2.94s-3.24,1-3.24,2.46,1.2,2,2.76,2.4l4.63,1.2c6.72,1.8,7.56,6,7.56,8.28,0,5.88-6,8.94-11.77,8.94S560.81,48,560.75,41.85Z" transform="translate(-34.08 -7.41)"/><path class="cls-1" d="M618,39.21H596.91c.84,3.3,3.48,5.22,7.21,5.22a10,10,0,0,0,7.39-3.3l4.56,4.62c-2.64,3.54-7.51,5.64-12.43,5.64-8.65,0-15-6.06-15-14.7,0-9.06,6.91-14.76,14.9-14.76s14.6,5.7,14.6,14.28C618.18,37,618.12,38,618,39.21Zm-7.75-5.1c-.24-3.3-3-5.4-6.49-5.4a6.52,6.52,0,0,0-6.85,5.4Z" transform="translate(-34.08 -7.41)"/><path class="cls-1" d="M56.85,94.65h7.87v28H56.85v-4a11.11,11.11,0,0,1-9.25,4.74c-7.75,0-13.52-6-13.52-14.7s5.65-14.76,13.7-14.76c3.6,0,7.21,1.56,9.07,4.44Zm-.24,14a7.38,7.38,0,0,0-7.33-7.44,7.41,7.41,0,0,0,.06,14.82A7.4,7.4,0,0,0,56.61,108.69Z" transform="translate(-34.08 -7.41)"/><path class="cls-1" d="M117.52,107.31v15.36h-7.93V107.55c0-4.38-2.28-6.24-5-6.24-3.37-.06-5.53,2.34-5.53,7.56v13.8H91.15v-15c0-4.44-2.28-6.36-4.93-6.36-2.82,0-5.7,1.56-5.7,6.6v14.76H72.65v-28h7.87v5.46c.6-4.14,4.74-6.18,7.93-6.18a9.45,9.45,0,0,1,9,5.52,10.6,10.6,0,0,1,9.37-5.52C113.86,93.93,117.52,98.91,117.52,107.31Z" transform="translate(-34.08 -7.41)"/><path class="cls-1" d="M146.12,94.65H154v28h-7.87v-4a11.11,11.11,0,0,1-9.25,4.74c-7.75,0-13.52-6-13.52-14.7s5.65-14.76,13.7-14.76c3.6,0,7.21,1.56,9.07,4.44Zm-.24,14a7.38,7.38,0,0,0-7.33-7.44,7.41,7.41,0,0,0,.06,14.82A7.4,7.4,0,0,0,145.88,108.69Z" transform="translate(-34.08 -7.41)"/><path class="cls-1" d="M185.59,94.65v6l-14,14.7h14v7.32H160.36v-5.94L174.05,102H161.2V94.65Z" transform="translate(-34.08 -7.41)"/><path class="cls-1" d="M191.23,85a5,5,0,1,1,5,4.74A4.89,4.89,0,0,1,191.23,85Zm1.09,37.68v-28h7.87v28Z" transform="translate(-34.08 -7.41)"/><path class="cls-1" d="M235.51,107.31v15.36h-7.87V107.73c0-4.38-2.64-6.36-5.35-6.36S216,102.87,216,108v14.7h-7.87v-28H216v4.74c1.21-3.78,5.65-5.46,8.41-5.46C231.72,93.93,235.57,98.91,235.51,107.31Z" transform="translate(-34.08 -7.41)"/><path class="cls-1" d="M264.16,94.65H272v24.54c0,12.24-6.19,17.94-16.1,17.94a14.83,14.83,0,0,1-13.63-8.58l6.54-2.82a8,8,0,0,0,7.09,4.38c5.05,0,8.23-2.82,8.23-10.08v-.78c-2,2.76-5.88,4.14-9,4.14-7.21,0-13.75-5.76-13.75-14.76s6.54-14.7,13.75-14.7c3.19,0,7,1.32,9,4.08Zm-.24,14a7.27,7.27,0,1,0-7.27,7.44A7.39,7.39,0,0,0,263.92,108.63Z" transform="translate(-34.08 -7.41)"/><path class="cls-1" d="M315.35,94.65h7.87v28h-7.87v-4a11.13,11.13,0,0,1-9.26,4.74c-7.75,0-13.51-6-13.51-14.7s5.64-14.76,13.69-14.76c3.61,0,7.21,1.56,9.08,4.44Zm-.24,14a7.38,7.38,0,0,0-7.33-7.44,7.41,7.41,0,0,0,.06,14.82A7.4,7.4,0,0,0,315.11,108.69Z" transform="translate(-34.08 -7.41)"/><path class="cls-1" d="M358.54,107.31v15.36h-7.87V107.73c0-4.38-2.64-6.36-5.35-6.36s-6.3,1.5-6.3,6.6v14.7h-7.87v-28H339v4.74c1.2-3.78,5.64-5.46,8.41-5.46C354.75,93.93,358.6,98.91,358.54,107.31Z" transform="translate(-34.08 -7.41)"/><path class="cls-1" d="M382.27,94.65v6.12h-5.95v21.9h-7.87v-21.9h-5.11V94.65h5.11V84.45h7.87v10.2Z" transform="translate(-34.08 -7.41)"/><path class="cls-1" d="M386.29,85a5,5,0,1,1,5,4.74A4.89,4.89,0,0,1,386.29,85Zm1.08,37.68v-28h7.87v28Z" transform="translate(-34.08 -7.41)"/><path class="cls-1" d="M433.81,108.63c0,9-6.55,14.76-13.76,14.76-3.18,0-7-1.32-9-4.2v3.48h-7.87V79.41H411V98c2-2.82,5.83-4.08,9-4.08C427.26,93.93,433.81,99.63,433.81,108.63Zm-8.05,0a7.26,7.26,0,0,0-7.21-7.38,7.41,7.41,0,1,0,7.21,7.38Z" transform="translate(-34.08 -7.41)"/><path class="cls-1" d="M438.32,108.69c0-8.88,7.09-14.76,15.07-14.76s15.08,5.88,15.08,14.76-7.09,14.7-15.08,14.7S438.32,117.51,438.32,108.69Zm22.16,0a7.09,7.09,0,1,0-7.09,7.38A7.11,7.11,0,0,0,460.48,108.69Z" transform="translate(-34.08 -7.41)"/><path class="cls-1" d="M495.75,79.41h7.87v43.26h-7.87v-3.48c-2,2.88-5.89,4.2-9,4.2-7.21,0-13.76-5.76-13.76-14.76s6.55-14.7,13.76-14.7c3.24,0,7,1.26,9,4.14Zm-.24,29.22a7.39,7.39,0,0,0-7.27-7.38,7.31,7.31,0,0,0-7.27,7.38,7.27,7.27,0,1,0,14.54,0Z" transform="translate(-34.08 -7.41)"/><path class="cls-1" d="M510.47,85a5,5,0,1,1,5,4.74A4.88,4.88,0,0,1,510.47,85Zm1.08,37.68v-28h7.87v28Z" transform="translate(-34.08 -7.41)"/><path class="cls-1" d="M555,111.21H533.89c.84,3.3,3.49,5.22,7.21,5.22a10,10,0,0,0,7.39-3.3l4.57,4.62c-2.65,3.54-7.51,5.64-12.44,5.64-8.65,0-15-6.06-15-14.7,0-9.06,6.91-14.76,14.9-14.76s14.6,5.7,14.6,14.28C555.16,109,555.1,110,555,111.21Zm-7.75-5.1c-.24-3.3-2.94-5.4-6.49-5.4a6.52,6.52,0,0,0-6.85,5.4Z" transform="translate(-34.08 -7.41)"/><path class="cls-1" d="M559.49,113.85h7.39c0,1.62,1.38,3.36,4.14,3.36,2.28,0,4-1.14,4-2.76,0-1.2-1-1.8-3.06-2.34l-3.72-.9c-7.21-1.92-8.17-5.94-8.17-8.88,0-4.32,4.5-8.4,11-8.4,5.11,0,11.11,2.46,11,9.12h-7.51c0-1.92-1.56-2.94-3.42-2.94s-3.24,1-3.24,2.46,1.2,2,2.76,2.4l4.62,1.2c6.73,1.8,7.57,6,7.57,8.28,0,5.88-6,8.94-11.77,8.94S559.55,120,559.49,113.85Z" transform="translate(-34.08 -7.41)"/><path class="cls-1" d="M624.48,94.65h7.87v28h-7.87v-4a11.1,11.1,0,0,1-9.25,4.74c-7.75,0-13.51-6-13.51-14.7s5.64-14.76,13.69-14.76c3.61,0,7.21,1.56,9.07,4.44Zm-.24,14a7.38,7.38,0,0,0-7.32-7.44,7.41,7.41,0,0,0,.06,14.82A7.39,7.39,0,0,0,624.24,108.69Z" transform="translate(-34.08 -7.41)"/><path class="cls-1" d="M667.68,107.31v15.36h-7.87V107.73c0-4.38-2.64-6.36-5.35-6.36s-6.31,1.5-6.31,6.6v14.7h-7.87v-28h7.87v4.74c1.21-3.78,5.65-5.46,8.41-5.46C663.89,93.93,667.74,98.91,667.68,107.31Z" transform="translate(-34.08 -7.41)"/><path class="cls-1" d="M696.33,79.41h7.87v43.26h-7.87v-3.48c-2,2.88-5.88,4.2-9,4.2-7.21,0-13.75-5.76-13.75-14.76s6.54-14.7,13.75-14.7c3.25,0,7,1.26,9,4.14Zm-.24,29.22a7.27,7.27,0,1,0-7.27,7.44A7.39,7.39,0,0,0,696.09,108.63Z" transform="translate(-34.08 -7.41)"/><path class="cls-1" d="M90.64,180.63c0,9.06-6.55,14.76-13.76,14.76-3.18,0-7-1.32-9-4.2v17.22H60V166.65h7.87v3.42c2-2.82,5.83-4.14,9-4.14C84.09,165.93,90.64,171.69,90.64,180.63Zm-8,.06a7.24,7.24,0,1,0-14.48,0,7.44,7.44,0,0,0,7.27,7.38A7.26,7.26,0,0,0,82.59,180.69Z" transform="translate(-34.08 -7.41)"/><path class="cls-1" d="M116.05,166.65h7.87v28h-7.87v-4.56c-1.2,3.66-5.64,5.28-8.41,5.28-7.33,0-11.17-4.92-11.11-13.32V166.65h7.87v15c0,4.38,2.64,6.42,5.35,6.42s6.3-1.56,6.3-6.6Z" transform="translate(-34.08 -7.41)"/><path class="cls-1" d="M148.37,166.65v6.12h-5.94v21.9h-7.87v-21.9h-5.11v-6.12h5.11v-10.2h7.87v10.2Z" transform="translate(-34.08 -7.41)"/><path class="cls-1" d="M184.3,166.65v6.12h-6v21.9h-7.87v-21.9h-5.11v-6.12h5.11v-10.2h7.87v10.2Z" transform="translate(-34.08 -7.41)"/><path class="cls-1" d="M216.79,179.31v15.36h-7.86V179.79c0-4.38-2.65-6.42-5.35-6.42s-6.31,1.56-6.31,6.6v14.7H189.4V151.41h7.87v19.68c1.2-3.6,5.71-5.16,8.41-5.16C213,165.93,216.86,170.91,216.79,179.31Z" transform="translate(-34.08 -7.41)"/><path class="cls-1" d="M252,183.21H230.91c.84,3.3,3.49,5.22,7.21,5.22a10,10,0,0,0,7.39-3.3l4.57,4.62c-2.65,3.54-7.51,5.64-12.44,5.64-8.65,0-15-6.06-15-14.7,0-9.06,6.91-14.76,14.9-14.76s14.6,5.7,14.6,14.28C252.18,181,252.12,182,252,183.21Zm-7.75-5.1c-.24-3.3-2.95-5.4-6.49-5.4a6.52,6.52,0,0,0-6.85,5.4Z" transform="translate(-34.08 -7.41)"/><path class="cls-1" d="M303.12,179.31v15.36h-7.93V179.55c0-4.38-2.28-6.24-5-6.24-3.37-.06-5.53,2.34-5.53,7.56v13.8h-7.87v-15c0-4.44-2.28-6.36-4.93-6.36-2.82,0-5.7,1.56-5.7,6.6v14.76h-7.87v-28h7.87v5.46c.6-4.14,4.74-6.18,7.93-6.18a9.45,9.45,0,0,1,9,5.52,10.59,10.59,0,0,1,9.37-5.52C299.46,165.93,303.12,170.91,303.12,179.31Z" transform="translate(-34.08 -7.41)"/><path class="cls-1" d="M323.85,157a5,5,0,1,1,5,4.74A4.88,4.88,0,0,1,323.85,157Zm1.08,37.68v-28h7.87v28Z" transform="translate(-34.08 -7.41)"/><path class="cls-1" d="M368.12,179.31v15.36h-7.87V179.73c0-4.38-2.64-6.36-5.35-6.36s-6.3,1.5-6.3,6.6v14.7h-7.87v-28h7.87v4.74c1.2-3.78,5.64-5.46,8.41-5.46C364.34,165.93,368.18,170.91,368.12,179.31Z" transform="translate(-34.08 -7.41)"/><path class="cls-1" d="M411.07,166.65h7.87v28h-7.87v-4a11.1,11.1,0,0,1-9.25,4.74c-7.75,0-13.52-6-13.52-14.7S394,165.93,402,165.93c3.61,0,7.21,1.56,9.07,4.44Zm-.24,14a7.38,7.38,0,0,0-7.33-7.44,7.41,7.41,0,0,0,.06,14.82A7.39,7.39,0,0,0,410.83,180.69Z" transform="translate(-34.08 -7.41)"/><path class="cls-1" d="M462.25,151.41h7.87v43.26h-7.87v-3.48c-2,2.88-5.88,4.2-9,4.2-7.2,0-13.75-5.76-13.75-14.76s6.55-14.7,13.75-14.7c3.25,0,7,1.26,9,4.14ZM462,180.63a7.27,7.27,0,1,0-7.26,7.44A7.39,7.39,0,0,0,462,180.63Z" transform="translate(-34.08 -7.41)"/><path class="cls-1" d="M505.69,183.21H484.6c.84,3.3,3.49,5.22,7.21,5.22a10,10,0,0,0,7.39-3.3l4.57,4.62c-2.65,3.54-7.51,5.64-12.44,5.64-8.65,0-15-6.06-15-14.7,0-9.06,6.91-14.76,14.9-14.76s14.6,5.7,14.6,14.28C505.87,181,505.81,182,505.69,183.21Zm-7.75-5.1c-.24-3.3-2.94-5.4-6.49-5.4a6.52,6.52,0,0,0-6.85,5.4Z" transform="translate(-34.08 -7.41)"/><path class="cls-1" d="M511.94,194.67V151.41h7.87v43.26Z" transform="translate(-34.08 -7.41)"/><path class="cls-1" d="M526.65,157a5,5,0,1,1,5,4.74A4.89,4.89,0,0,1,526.65,157Zm1.09,37.68v-28h7.87v28Z" transform="translate(-34.08 -7.41)"/><path class="cls-1" d="M541.79,180.57c0-8.88,7.21-14.64,15.38-14.64a14.23,14.23,0,0,1,11.84,6l-6,4.14a7.42,7.42,0,0,0-5.83-2.82,7.17,7.17,0,0,0-7.45,7.32,7.28,7.28,0,0,0,7.45,7.5,7.42,7.42,0,0,0,5.83-2.82l6,4.14a14.23,14.23,0,0,1-11.84,6C549,195.39,541.79,189.45,541.79,180.57Z" transform="translate(-34.08 -7.41)"/><path class="cls-1" d="M573.57,157a5,5,0,1,1,5,4.74A4.88,4.88,0,0,1,573.57,157Zm1.08,37.68v-28h7.87v28Z" transform="translate(-34.08 -7.41)"/><path class="cls-1" d="M588.71,180.69c0-8.88,7.09-14.76,15.08-14.76s15.08,5.88,15.08,14.76-7.09,14.7-15.08,14.7S588.71,189.51,588.71,180.69Zm22.17,0a7.1,7.1,0,1,0-7.09,7.38A7.11,7.11,0,0,0,610.88,180.69Z" transform="translate(-34.08 -7.41)"/><path class="cls-1" d="M644.22,166.65h7.87v28h-7.87v-4.56c-1.2,3.66-5.65,5.28-8.41,5.28-7.33,0-11.18-4.92-11.12-13.32V166.65h7.87v15c0,4.38,2.65,6.42,5.35,6.42s6.31-1.56,6.31-6.6Z" transform="translate(-34.08 -7.41)"/><path class="cls-1" d="M658.27,185.85h7.39c0,1.62,1.38,3.36,4.15,3.36,2.28,0,4-1.14,4-2.76,0-1.2-1-1.8-3.06-2.34l-3.73-.9c-7.2-1.92-8.16-5.94-8.16-8.88,0-4.32,4.5-8.4,11-8.4,5.1,0,11.11,2.46,11,9.12h-7.51c0-1.92-1.56-2.94-3.42-2.94s-3.24,1-3.24,2.46,1.2,2,2.76,2.4l4.62,1.2c6.73,1.8,7.57,6,7.57,8.28,0,5.88-6,8.94-11.77,8.94S658.33,192,658.27,185.85Z" transform="translate(-34.08 -7.41)"/><path class="cls-1" d="M280.65,252.57c0-8.88,7.21-14.64,15.38-14.64a14.23,14.23,0,0,1,11.84,6l-5.95,4.14a7.42,7.42,0,0,0-5.83-2.82,7.16,7.16,0,0,0-7.45,7.32,7.27,7.27,0,0,0,7.45,7.5,7.42,7.42,0,0,0,5.83-2.82l5.95,4.14a14.23,14.23,0,0,1-11.84,6C287.86,267.39,280.65,261.45,280.65,252.57Z" transform="translate(-34.08 -7.41)"/><path class="cls-1" d="M334.12,238.65H342v28h-7.87v-4a11.12,11.12,0,0,1-9.25,4.74c-7.75,0-13.52-6-13.52-14.7s5.65-14.76,13.7-14.76c3.6,0,7.2,1.56,9.07,4.44Zm-.24,14a7.38,7.38,0,0,0-7.33-7.44,7.41,7.41,0,0,0,.06,14.82A7.4,7.4,0,0,0,333.88,252.69Z" transform="translate(-34.08 -7.41)"/><path class="cls-1" d="M377.31,251.31v15.36h-7.87V251.73c0-4.38-2.64-6.36-5.35-6.36s-6.3,1.5-6.3,6.6v14.7h-7.87v-28h7.87v4.74c1.2-3.78,5.64-5.46,8.41-5.46C373.53,237.93,377.37,242.91,377.31,251.31Z" transform="translate(-34.08 -7.41)"/><path class="cls-1" d="M406,223.41h7.87v43.26H406v-3.48c-2,2.88-5.89,4.2-9,4.2-7.21,0-13.76-5.76-13.76-14.76s6.55-14.7,13.76-14.7c3.24,0,7,1.26,9,4.14Zm-.24,29.22a7.39,7.39,0,0,0-7.27-7.38,7.31,7.31,0,0,0-7.27,7.38,7.27,7.27,0,1,0,14.54,0Z" transform="translate(-34.08 -7.41)"/><path class="cls-1" d="M439.85,238.65h8.47L431,280.41h-8.41L429.27,264l-11.11-25.38h8.65l6.61,16.2Z" transform="translate(-34.08 -7.41)"/><path class="cls-1" d="M448.56,262.35a4.85,4.85,0,0,1,5-4.8,4.84,4.84,0,1,1,0,9.66A4.87,4.87,0,0,1,448.56,262.35Z" transform="translate(-34.08 -7.41)"/></g></g></svg>