<svg xmlns="http://www.w3.org/2000/svg" viewBox="0 0 1011.46 193.86"><defs><style>.cls-1{fill:#244461;}</style></defs><g id="Layer_2" data-name="Layer 2"><g id="Layer_21" data-name="Layer 21"><path class="cls-1" d="M78.25,10.14h9.07L73.26,51.48H66.59L60.59,29,54.7,51.48H48L34,10.14h9l8.41,26.94L57.28,16h6.79l5.71,21.12Z" transform="translate(-25.05 -2.34)"/><path class="cls-1" d="M116,40H94.89c.84,3.3,3.48,5.22,7.21,5.22a10,10,0,0,0,7.39-3.3l4.56,4.62c-2.64,3.54-7.51,5.64-12.43,5.64-8.65,0-15-6.06-15-14.7,0-9.06,6.91-14.76,14.9-14.76s14.59,5.7,14.59,14.28C116.15,37.8,116.09,38.76,116,40Zm-7.75-5.1c-.24-3.3-2.94-5.4-6.48-5.4a6.52,6.52,0,0,0-6.85,5.4Z" transform="translate(-25.05 -2.34)"/><path class="cls-1" d="M134.78,37.38c0-8.88,7.21-14.64,15.38-14.64a14.21,14.21,0,0,1,11.83,6l-6,4.14a7.4,7.4,0,0,0-5.82-2.82,7.16,7.16,0,0,0-7.45,7.32,7.27,7.27,0,0,0,7.45,7.5A7.4,7.4,0,0,0,156,42.06l6,4.14a14.21,14.21,0,0,1-11.83,6C142,52.2,134.78,46.26,134.78,37.38Z" transform="translate(-25.05 -2.34)"/><path class="cls-1" d="M188.24,23.46h7.87v28h-7.87v-4A11.1,11.1,0,0,1,179,52.2c-7.75,0-13.52-6-13.52-14.7s5.65-14.76,13.7-14.76c3.61,0,7.21,1.56,9.07,4.44Zm-.24,14a7.38,7.38,0,0,0-7.33-7.44,7.41,7.41,0,0,0,.06,14.82A7.39,7.39,0,0,0,188,37.5Z" transform="translate(-25.05 -2.34)"/><path class="cls-1" d="M204,51.48V8.22h7.87V51.48Z" transform="translate(-25.05 -2.34)"/><path class="cls-1" d="M219.84,51.48V8.22h7.87V51.48Z" transform="translate(-25.05 -2.34)"/><path class="cls-1" d="M266.46,23.46v6.12h-5.95v21.9h-7.87V29.58h-5.11V23.46h5.11V13.26h7.87v10.2Z" transform="translate(-25.05 -2.34)"/><path class="cls-1" d="M299,36.12V51.48h-7.87V36.6c0-4.38-2.65-6.42-5.35-6.42s-6.31,1.56-6.31,6.6v14.7h-7.87V8.22h7.87V27.9c1.2-3.6,5.71-5.16,8.41-5.16C295.17,22.74,299,27.72,299,36.12Z" transform="translate(-25.05 -2.34)"/><path class="cls-1" d="M334.16,40H313.07c.84,3.3,3.49,5.22,7.21,5.22a10,10,0,0,0,7.39-3.3l4.57,4.62c-2.65,3.54-7.51,5.64-12.44,5.64-8.65,0-15-6.06-15-14.7,0-9.06,6.91-14.76,14.9-14.76s14.6,5.7,14.6,14.28C334.34,37.8,334.28,38.76,334.16,40Zm-7.75-5.1c-.24-3.3-2.94-5.4-6.49-5.4a6.52,6.52,0,0,0-6.85,5.4Z" transform="translate(-25.05 -2.34)"/><path class="cls-1" d="M385.28,36.12V51.48h-7.93V36.36c0-4.38-2.28-6.24-5-6.24-3.37-.06-5.53,2.34-5.53,7.56v13.8h-7.87v-15c0-4.44-2.28-6.36-4.93-6.36-2.82,0-5.7,1.56-5.7,6.6V51.48h-7.87v-28h7.87v5.46c.6-4.14,4.74-6.18,7.93-6.18a9.45,9.45,0,0,1,9,5.52,10.6,10.6,0,0,1,9.37-5.52C381.62,22.74,385.28,27.72,385.28,36.12Z" transform="translate(-25.05 -2.34)"/><path class="cls-1" d="M415.5,52.68c-1.64,0-3,0-4.12-.12a23.41,23.41,0,0,1-2.85-.36,5.77,5.77,0,0,1-2.76-1.11,2.63,2.63,0,0,1-.84-2.07,3.79,3.79,0,0,1,.39-1.77,4.26,4.26,0,0,1,1.47-1.47,5.9,5.9,0,0,0,.9-.72,4.77,4.77,0,0,0,.6-.72,3.28,3.28,0,0,0,.42-1,8.56,8.56,0,0,0,.18-1.23q.06-1.32.12-5t.06-7q0-6.18,0-8.73T409,17.7a7.34,7.34,0,0,0-.18-1.29,2.68,2.68,0,0,0-.42-.87,6.18,6.18,0,0,0-.66-.78,4.72,4.72,0,0,0-.84-.66,4.2,4.2,0,0,1-1.44-1.41,3.67,3.67,0,0,1-.36-1.71,2.68,2.68,0,0,1,1-2.1A6.09,6.09,0,0,1,409,7.68a21.67,21.67,0,0,1,3-.42c1.07-.08,2.32-.12,3.76-.12s2.92,0,4.08.12a25.42,25.42,0,0,1,3.25.42,6,6,0,0,1,2.88,1.26,2.85,2.85,0,0,1,1,2.22,3.49,3.49,0,0,1-.27,1.44,5.36,5.36,0,0,1-1.23,1.5q-.48.42-.75.69l-.39.39a1.6,1.6,0,0,0-.3.42,4.66,4.66,0,0,0-.24.6,2.41,2.41,0,0,0-.15.72q0,.42,0,1v5.76a4.15,4.15,0,0,0,.3,1.83,1.06,1.06,0,0,0,1,.57,1.91,1.91,0,0,0,.81-.18,10,10,0,0,0,1.47-1c1.6-1.24,2.92-2.27,3.94-3.09s1.93-1.59,2.73-2.31a8.77,8.77,0,0,0,1.47-1.56,2.37,2.37,0,0,0,.39-1.32,1.28,1.28,0,0,0-.15-.63,1.54,1.54,0,0,0-.51-.51l-.45-.27a6.67,6.67,0,0,0-1-.39,4.74,4.74,0,0,1-1.95-1.23,3.19,3.19,0,0,1-.57-2.07,2.83,2.83,0,0,1,.87-2.07A5.82,5.82,0,0,1,434.54,8a23.34,23.34,0,0,1,3.82-.63q2.25-.21,5.49-.21c2.21,0,3.91,0,5.11.15a13.82,13.82,0,0,1,2.94.51,4.46,4.46,0,0,1,2.17,1.29,3.37,3.37,0,0,1,.66,2.19,3.92,3.92,0,0,1-1.14,2.76,8.63,8.63,0,0,1-.93.69,9.93,9.93,0,0,1-1.18.63,25.21,25.21,0,0,0-2.34,1.2,18.87,18.87,0,0,0-1.74,1.14c-1.24.92-2.26,1.73-3.07,2.43s-1.58,1.43-2.34,2.19a6.44,6.44,0,0,0-1.11,1.32,2.12,2.12,0,0,0-.21,1,2.45,2.45,0,0,0,.12.78,12.85,12.85,0,0,0,.9,1.68q3.54,5.94,5.26,8.64t3,4.56q.54.78,1.08,1.44c.36.44.74.88,1.15,1.32a11,11,0,0,0,1.08,1.08q.48.42,1,.84a4.56,4.56,0,0,1,1.29,1.35,3.15,3.15,0,0,1,.45,1.65,3.78,3.78,0,0,1-.78,2.46,4.4,4.4,0,0,1-2.4,1.38,25.39,25.39,0,0,1-4,.63c-1.6.14-3.38.21-5.35.21q-3.84,0-5.67-.09a14.92,14.92,0,0,1-3-.39,3.51,3.51,0,0,1-2-1.14,3.29,3.29,0,0,1-.69-2.16,3.76,3.76,0,0,1,.12-1,9.3,9.3,0,0,1,1-1.74,7.15,7.15,0,0,0,.9-1.56,3.26,3.26,0,0,0,.12-.9,3.37,3.37,0,0,0-.12-.87,6.75,6.75,0,0,0-.36-1q-.24-.54-.84-1.68l-.66-1.26q-.48-.84-1.14-1.86t-1.32-2a5.92,5.92,0,0,0-.39-.57l-.51-.69a3.48,3.48,0,0,0-.69-.63,1.32,1.32,0,0,0-.7-.21,1.94,1.94,0,0,0-1,.27,14.92,14.92,0,0,0-1.44,1,4.21,4.21,0,0,0-1.32,1.44,4.07,4.07,0,0,0-.3,1.68v3.15a13,13,0,0,0,.06,1.47,7.11,7.11,0,0,0,.27,1.59,4.64,4.64,0,0,0,.57,1.23q.18.24.36.45a2.62,2.62,0,0,0,.42.39,5.13,5.13,0,0,1,1.35,1.5,3.45,3.45,0,0,1,.33,1.56,2.85,2.85,0,0,1-1,2.22A6,6,0,0,1,423,52.14a25.49,25.49,0,0,1-3.31.42Q417.84,52.68,415.5,52.68Z" transform="translate(-25.05 -2.34)"/><path class="cls-1" d="M469,52.68a39.4,39.4,0,0,1-4.72-.24,15.1,15.1,0,0,1-3.27-.72,3,3,0,0,1-1.39-1,2.68,2.68,0,0,1-.48-1.62,3,3,0,0,1,.39-1.56,4.59,4.59,0,0,1,1.3-1.32q.36-.3.63-.57a3,3,0,0,0,.45-.57A3.42,3.42,0,0,0,462.3,44a14.22,14.22,0,0,0,.18-1.62q.06-2.22.09-3.69t0-2.79q0-1.68,0-2.85t-.15-2.13a3.48,3.48,0,0,0-.24-1,4.5,4.5,0,0,0-.48-.84,2.44,2.44,0,0,0-.6-.54,2.1,2.1,0,0,0-.79-.24,2.93,2.93,0,0,1-1.68-.87,2.54,2.54,0,0,1-.54-1.71A4.52,4.52,0,0,1,459.2,23a12.33,12.33,0,0,1,3-2.7,16.32,16.32,0,0,1,3.84-1.89,12.34,12.34,0,0,1,4-.69,8.48,8.48,0,0,1,2.85.42,4.16,4.16,0,0,1,1.89,1.32,5.85,5.85,0,0,1,1.32,2.61,16.34,16.34,0,0,1,.43,4c0,1.52,0,3,0,4.5s-.05,3.24-.08,5.28c-.05.72-.07,1.21-.07,1.47v3.3a11.63,11.63,0,0,0,.07,1.41,18.4,18.4,0,0,0,.14,2,2.48,2.48,0,0,0,.27.87,3.59,3.59,0,0,0,.34.42q.27.3.75.78a5.27,5.27,0,0,1,1.17,1.41,3.28,3.28,0,0,1,.27,1.41,2.74,2.74,0,0,1-.51,1.62,3.49,3.49,0,0,1-1.41,1.14,11.4,11.4,0,0,1-3.22.78A45.41,45.41,0,0,1,469,52.68Zm7.56-45q0,3.42-3.63,6a13.94,13.94,0,0,1-8.2,2.55,6.7,6.7,0,0,1-4.48-1.41A4.69,4.69,0,0,1,458.63,11q0-3.36,3.64-6a13.4,13.4,0,0,1,7.84-2.7A7.45,7.45,0,0,1,475,3.69,4.9,4.9,0,0,1,476.59,7.68Z" transform="translate(-25.05 -2.34)"/><path class="cls-1" d="M491.25,67.44q-2.7,0-4.83-.21a27.21,27.21,0,0,1-3.64-.57,3.65,3.65,0,0,1-1.86-1.08,3,3,0,0,1-.6-2,2.57,2.57,0,0,1,.24-1.11A10,10,0,0,1,482,60.66a8.18,8.18,0,0,0,.6-.66,3.7,3.7,0,0,0,.42-.66,4.32,4.32,0,0,0,.48-1.11,7.27,7.27,0,0,0,.24-1.47q.24-2.7.36-5.7t.12-10q0-4.44-.06-6.75a29,29,0,0,0-.24-3.45,5.8,5.8,0,0,0-.3-1.23,2.2,2.2,0,0,0-.48-.75,2.48,2.48,0,0,0-.57-.42,2.2,2.2,0,0,0-.75-.24,2.93,2.93,0,0,1-1.68-.87,2.54,2.54,0,0,1-.54-1.71,4.63,4.63,0,0,1,1.26-2.85,14.48,14.48,0,0,1,3.42-2.91A16,16,0,0,1,488,18.3a13.4,13.4,0,0,1,3.9-.6,7.57,7.57,0,0,1,3.16.57A4.49,4.49,0,0,1,497,20a9.07,9.07,0,0,1,.81,2,10.73,10.73,0,0,1,.39,2.52,1.05,1.05,0,0,0,.18.45.37.37,0,0,0,.3.15.41.41,0,0,0,.3-.12,1.4,1.4,0,0,0,.24-.36A11.08,11.08,0,0,1,503,19.32a9.94,9.94,0,0,1,14.26,2.88q3,4.74,3,13,0,8.88-3.16,13.29t-9.52,4.41a9.8,9.8,0,0,1-4.44-1.05,12.52,12.52,0,0,1-3.91-3.15,1.29,1.29,0,0,0-.3-.24.53.53,0,0,0-.24-.06.37.37,0,0,0-.3.15.61.61,0,0,0-.12.39v7.5a5.63,5.63,0,0,0,.18,1.53A3.38,3.38,0,0,0,499,59.1l.36.36a6.93,6.93,0,0,0,.78.6A5.32,5.32,0,0,1,502,61.68a3.54,3.54,0,0,1,.45,1.8,2.86,2.86,0,0,1-.78,2.07,4.69,4.69,0,0,1-2.35,1.17,28.65,28.65,0,0,1-3.57.54C494.43,67.38,492.93,67.44,491.25,67.44Zm7-26.28a3,3,0,0,0,.84,2.25,3.16,3.16,0,0,0,2.29.81,3.66,3.66,0,0,0,3.27-1.89,10,10,0,0,0,1.17-5.25,13.28,13.28,0,0,0-1.26-6.36,3.86,3.86,0,0,0-3.49-2.28,2.89,2.89,0,0,0-2.16.69,3.39,3.39,0,0,0-.66,2.37v9.66Z" transform="translate(-25.05 -2.34)"/><path class="cls-1" d="M542.25,48.36a9.63,9.63,0,0,1-3.84,3.33,11.66,11.66,0,0,1-5.29,1.23,10.42,10.42,0,0,1-7.2-2.31,8.26,8.26,0,0,1-2.59-6.51,8.91,8.91,0,0,1,1.17-4.62,9.23,9.23,0,0,1,3.52-3.3,17.79,17.79,0,0,1,3.21-1.38,58.14,58.14,0,0,1,6-1.44q.72-.12,1.08-.21a5.13,5.13,0,0,0,.66-.21,6,6,0,0,0,2.64-1.47,3.57,3.57,0,0,0,.85-2.31V29a3,3,0,0,0-.91-2.34,3.55,3.55,0,0,0-2.52-.84,3.67,3.67,0,0,0-2.22.75,5.08,5.08,0,0,0-1.62,2.13,8.1,8.1,0,0,1-2.62,3.57,6.47,6.47,0,0,1-3.75,1,5.92,5.92,0,0,1-4.18-1.47A5,5,0,0,1,523.09,28q0-4.44,5.56-7.38a25.72,25.72,0,0,1,12.22-2.94q7.7,0,11.57,3.24t3.87,9.6v2.31q0,1.17-.06,3.27v4.56a7.75,7.75,0,0,0,.09,1.26,12.05,12.05,0,0,0,.39,1.5,1.58,1.58,0,0,0,.48.6,3.57,3.57,0,0,0,1,.54,3.48,3.48,0,0,1,1.54,1.05,2.92,2.92,0,0,1,.39,1.65,3.7,3.7,0,0,1-.6,2.1,6.26,6.26,0,0,1-2,1.74,11.37,11.37,0,0,1-3.06,1.14,16.32,16.32,0,0,1-3.72.42,14.08,14.08,0,0,1-3-.24,6,6,0,0,1-2.1-1,4.59,4.59,0,0,1-1.17-1.29,6.19,6.19,0,0,1-.75-1.71,1.77,1.77,0,0,0-.24-.57.43.43,0,0,0-.36-.15.64.64,0,0,0-.42.15A2.44,2.44,0,0,0,542.25,48.36Zm-4.92-7.26a3,3,0,0,0,.81,2.25,3,3,0,0,0,2.19.81,2.54,2.54,0,0,0,1.65-.51,3,3,0,0,0,.94-1.59,5.88,5.88,0,0,0,.18-1,12.23,12.23,0,0,0,.06-1.32v-.36a2.83,2.83,0,0,0-.39-1.8c-.27-.28-.74-.3-1.42-.06l-.36.12a1.07,1.07,0,0,1-.27.09,1.66,1.66,0,0,0-.39.15A1.16,1.16,0,0,0,540,38a.29.29,0,0,1-.15.06,4,4,0,0,0-1.92,1.14A2.81,2.81,0,0,0,537.33,41.1Z" transform="translate(-25.05 -2.34)"/><path class="cls-1" d="M588.57,52.38q-1.44.18-2.43.24t-2.13.06a18.61,18.61,0,0,1-6.76-.9A3,3,0,0,1,575.11,49a3.67,3.67,0,0,1,.25-1.44,3.28,3.28,0,0,1,.78-1.14l.3-.27.54-.45.36-.27.24-.21a4.42,4.42,0,0,0,1.11-1.5,5.56,5.56,0,0,0,.39-1.86q.06-1.32.12-4.92t.06-6.84q0-.84,0-6.09t0-6a7.07,7.07,0,0,0-.33-1.92,2.71,2.71,0,0,0-.87-1.26,4.12,4.12,0,0,1-.39-.3,4.23,4.23,0,0,0-.63-.42l-.27-.18-.15-.12a2.5,2.5,0,0,1-1.12-1.14,4.91,4.91,0,0,1-.26-1.74q0-2,2.31-2.91a20.52,20.52,0,0,1,7.18-.93q2.34,0,4.08.09c1.16.06,2.3.17,3.43.33q.6.12.9.15t.6,0q.3,0,.6,0l.9-.09q1.32-.18,2.4-.24c.72,0,1.52-.06,2.41-.06q9.72,0,15.55,5.91t5.83,15.69q0,10.74-6.25,17.25t-16.64,6.51q-1.38,0-2.67-.06t-3.09-.24q-.9-.12-1.29-.15l-.7,0-.87,0Q589.47,52.26,588.57,52.38ZM594,41.76a2.72,2.72,0,0,0,.87,2.1,5.56,5.56,0,0,0,3,.54h.54a1.13,1.13,0,0,0,.36-.06,6.34,6.34,0,0,0,5-3.36,16.56,16.56,0,0,0,1.74-8.28A24.78,24.78,0,0,0,603,21.21c-1.66-3.22-3.66-5.11-6-5.67l-.66-.09-.42,0a2.13,2.13,0,0,0-1.32.33,2.76,2.76,0,0,0-.6,1.71q-.12.9-.15,4.23t0,9.51q0,3.6.06,6.78T594,41.76Z" transform="translate(-25.05 -2.34)"/><path class="cls-1" d="M652.31,17.28a6.63,6.63,0,0,1,5.41,2.52,10,10,0,0,1,2,6.48,10.39,10.39,0,0,1-2,6.69,6.6,6.6,0,0,1-5.41,2.55,6.47,6.47,0,0,1-3.09-.69,6.89,6.89,0,0,1-2.38-2.25s-.33-.46-.87-1.26-1.05-1.2-1.53-1.2-.79.28-1.05.84a7.37,7.37,0,0,0-.51,2.46q-.06,1.44-.12,2.34t-.06,1.32q0,1.32,0,2.58t.09,2.28a5.77,5.77,0,0,0,.27,1.5,3.6,3.6,0,0,0,.75,1.2l.54.51a10.08,10.08,0,0,0,1.14.81,2.65,2.65,0,0,1,.93,1.14,4.48,4.48,0,0,1,.27,1.68,2.61,2.61,0,0,1-.84,1.95A5.46,5.46,0,0,1,643.42,52a22,22,0,0,1-3.13.51q-1.62.15-4.8.15a48.15,48.15,0,0,1-4.93-.21,13.18,13.18,0,0,1-3.24-.69,2.86,2.86,0,0,1-1.35-1,2.81,2.81,0,0,1-.45-1.62,3.17,3.17,0,0,1,.36-1.59,4.84,4.84,0,0,1,1.32-1.35,7,7,0,0,0,.72-.6,1.88,1.88,0,0,0,.36-.48,3.42,3.42,0,0,0,.36-1.08,14.22,14.22,0,0,0,.18-1.62q.06-2.22.09-3.69t0-2.79q0-2.52,0-3.42a10.87,10.87,0,0,0-.15-1.56,7.61,7.61,0,0,0-.24-1.14,1.37,1.37,0,0,0-.3-.54,3.09,3.09,0,0,0-.66-.6,2.65,2.65,0,0,0-.9-.36,2.87,2.87,0,0,1-1.65-.84,2.8,2.8,0,0,1-.57-1.74,4.3,4.3,0,0,1,1.2-2.82,13.74,13.74,0,0,1,3.48-2.94,14.14,14.14,0,0,1,3.55-1.65,12.26,12.26,0,0,1,3.6-.57,8.62,8.62,0,0,1,2,.21,5.24,5.24,0,0,1,1.47.57,5.34,5.34,0,0,1,1.09.87,4.65,4.65,0,0,1,.78,1.11,7.61,7.61,0,0,1,.54,1.62,12,12,0,0,1,.3,2q.06.72.48.81t.66-.63a14.83,14.83,0,0,1,1.77-3.48,9.25,9.25,0,0,1,2.19-2.22,7.05,7.05,0,0,1,2.17-1A9.7,9.7,0,0,1,652.31,17.28Z" transform="translate(-25.05 -2.34)"/><path class="cls-1" d="M699.59,35q0,8.4-5.29,13.14t-14.54,4.74q-8.64,0-13.69-4.62T661,35.7q0-8.28,5.5-13.26t14.27-5q8.34,0,13.57,4.83T699.59,35Zm-25.05-2.76a11.77,11.77,0,0,0,2.58,7.2c1.72,2.28,3.55,3.42,5.47,3.42a3.43,3.43,0,0,0,2.79-1.11,5.09,5.09,0,0,0,.93-3.33,12,12,0,0,0-2.55-7.23c-1.7-2.3-3.54-3.45-5.5-3.45a3.35,3.35,0,0,0-2.73,1.2A5,5,0,0,0,674.54,32.28Z" transform="translate(-25.05 -2.34)"/><path class="cls-1" d="M712.26,67.44q-2.7,0-4.83-.21a27.48,27.48,0,0,1-3.64-.57,3.65,3.65,0,0,1-1.86-1.08,3,3,0,0,1-.6-2,2.57,2.57,0,0,1,.24-1.11A10,10,0,0,1,703,60.66a8.18,8.18,0,0,0,.6-.66,3.7,3.7,0,0,0,.42-.66,4.32,4.32,0,0,0,.48-1.11,7.27,7.27,0,0,0,.24-1.47q.24-2.7.37-5.7t.12-10c0-3,0-5.21-.07-6.75a29,29,0,0,0-.24-3.45,5.8,5.8,0,0,0-.3-1.23,2.2,2.2,0,0,0-.48-.75,2.48,2.48,0,0,0-.57-.42,2.2,2.2,0,0,0-.75-.24,2.93,2.93,0,0,1-1.68-.87,2.54,2.54,0,0,1-.54-1.71,4.63,4.63,0,0,1,1.26-2.85,14.48,14.48,0,0,1,3.42-2.91A16.18,16.18,0,0,1,709,18.3a13.4,13.4,0,0,1,3.9-.6,7.54,7.54,0,0,1,3.16.57A4.49,4.49,0,0,1,718,20a9.07,9.07,0,0,1,.81,2,10.73,10.73,0,0,1,.39,2.52,1.05,1.05,0,0,0,.18.45.37.37,0,0,0,.3.15A.41.41,0,0,0,720,25a1.4,1.4,0,0,0,.24-.36A11.22,11.22,0,0,1,724,19.32a10,10,0,0,1,14.27,2.88q3,4.74,3,13,0,8.88-3.15,13.29t-9.53,4.41a9.8,9.8,0,0,1-4.44-1.05,12.75,12.75,0,0,1-3.91-3.15,1.29,1.29,0,0,0-.3-.24.53.53,0,0,0-.24-.06.37.37,0,0,0-.3.15.61.61,0,0,0-.12.39v7.5a5.63,5.63,0,0,0,.18,1.53A3.38,3.38,0,0,0,720,59.1l.36.36a6.43,6.43,0,0,0,.79.6A5.18,5.18,0,0,1,723,61.68a3.54,3.54,0,0,1,.45,1.8,2.86,2.86,0,0,1-.78,2.07,4.65,4.65,0,0,1-2.35,1.17,28.65,28.65,0,0,1-3.57.54C715.44,67.38,714,67.44,712.26,67.44Zm7-26.28a3,3,0,0,0,.84,2.25,3.17,3.17,0,0,0,2.29.81,3.66,3.66,0,0,0,3.27-1.89,10,10,0,0,0,1.17-5.25,13.28,13.28,0,0,0-1.26-6.36,3.85,3.85,0,0,0-3.48-2.28,2.9,2.9,0,0,0-2.17.69,3.39,3.39,0,0,0-.66,2.37v9.66Z" transform="translate(-25.05 -2.34)"/><path class="cls-1" d="M751.91,52a4.45,4.45,0,0,1-1.08.54,3.26,3.26,0,0,1-.9.12,3.63,3.63,0,0,1-1.47-.33,4.65,4.65,0,0,1-1.41-1,9.47,9.47,0,0,1-1.33-1.68,10.35,10.35,0,0,1-1-2.22,12,12,0,0,1-.54-2.22A17.86,17.86,0,0,1,744,42.6a5,5,0,0,1,.84-3.06,2.63,2.63,0,0,1,2.23-1.14,3.84,3.84,0,0,1,1.62.39,11.42,11.42,0,0,1,2.22,1.53q.42.36.87.78t1.35,1.32a16.91,16.91,0,0,0,3.22,2.67,5,5,0,0,0,2.49.69,2.34,2.34,0,0,0,1.68-.57,2.09,2.09,0,0,0,.6-1.59,2,2,0,0,0-.57-1.38,6.72,6.72,0,0,0-2-1.26q-.6-.3-1.92-.81l-1.74-.69-3.13-1.26a12.62,12.62,0,0,1-5.52-3.84,8.89,8.89,0,0,1-1.87-5.64A10,10,0,0,1,748,20.58a14.58,14.58,0,0,1,9.55-3,22.76,22.76,0,0,1,2.94.18c.92.12,2.07.34,3.43.66q1.26.36,1.8.45a6.22,6.22,0,0,0,1,.09,1.79,1.79,0,0,0,.57-.09,5.77,5.77,0,0,0,1.17-.81,3.22,3.22,0,0,1,1-.57,3.94,3.94,0,0,1,1.12-.15,3.47,3.47,0,0,1,2.07.72,6.94,6.94,0,0,1,1.83,2.16,10.26,10.26,0,0,1,1.2,3,14.41,14.41,0,0,1,.42,3.45,6.25,6.25,0,0,1-.18,1.62,2.38,2.38,0,0,1-.6,1.08,3.94,3.94,0,0,1-1,.75,2.65,2.65,0,0,1-1.2.27,5.65,5.65,0,0,1-1.53-.21,4.57,4.57,0,0,1-1.36-.63,12.27,12.27,0,0,1-1-.72q-.54-.42-1.56-1.32A20.52,20.52,0,0,0,764,24.66a4.76,4.76,0,0,0-1.92-.42,2.3,2.3,0,0,0-1.66.6,2,2,0,0,0-.63,1.5,1.59,1.59,0,0,0,.6,1.2,6.65,6.65,0,0,0,2,1.08q.66.3,1.92.72t1.56.54l2.34.84q4.69,1.68,6.7,4.2a10,10,0,0,1,2,6.42A10.32,10.32,0,0,1,773,49.68a15.51,15.51,0,0,1-10.18,3.24c-.69,0-1.37,0-2-.09s-1.34-.13-2-.21-1.46-.28-2.34-.48l-1.62-.36a4.09,4.09,0,0,0-.78-.15l-.73,0a2.29,2.29,0,0,0-.66.09A3.6,3.6,0,0,0,751.91,52Z" transform="translate(-25.05 -2.34)"/><path class="cls-1" d="M827.24,37.44c0,9-6.54,14.76-13.75,14.76-3.19,0-7-1.32-9-4.2v3.48h-7.87V8.22h7.87v18.6c2-2.82,5.82-4.08,9-4.08C820.7,22.74,827.24,28.44,827.24,37.44Zm-8,0a7.26,7.26,0,0,0-7.2-7.38,7.41,7.41,0,1,0,7.2,7.38Z" transform="translate(-25.05 -2.34)"/><path class="cls-1" d="M861.13,40H840c.84,3.3,3.48,5.22,7.21,5.22a10,10,0,0,0,7.39-3.3l4.56,4.62c-2.64,3.54-7.51,5.64-12.43,5.64-8.65,0-15-6.06-15-14.7,0-9.06,6.91-14.76,14.9-14.76s14.6,5.7,14.6,14.28C861.31,37.8,861.25,38.76,861.13,40Zm-7.75-5.1c-.24-3.3-3-5.4-6.49-5.4a6.52,6.52,0,0,0-6.85,5.4Z" transform="translate(-25.05 -2.34)"/><path class="cls-1" d="M865.63,37.38c0-8.88,7.21-14.64,15.38-14.64a14.23,14.23,0,0,1,11.84,6l-6,4.14a7.42,7.42,0,0,0-5.83-2.82,7.16,7.16,0,0,0-7.45,7.32,7.27,7.27,0,0,0,7.45,7.5,7.42,7.42,0,0,0,5.83-2.82l6,4.14a14.23,14.23,0,0,1-11.84,6C872.84,52.2,865.63,46.26,865.63,37.38Z" transform="translate(-25.05 -2.34)"/><path class="cls-1" d="M919.1,23.46H927v28H919.1v-4a11.11,11.11,0,0,1-9.25,4.74c-7.75,0-13.52-6-13.52-14.7S902,22.74,910,22.74c3.6,0,7.21,1.56,9.07,4.44Zm-.24,14a7.38,7.38,0,0,0-7.33-7.44,7.41,7.41,0,0,0,.06,14.82A7.4,7.4,0,0,0,918.86,37.5Z" transform="translate(-25.05 -2.34)"/><path class="cls-1" d="M954.06,23.46h7.87v28h-7.87V46.92c-1.2,3.66-5.65,5.28-8.41,5.28-7.33,0-11.17-4.92-11.11-13.32V23.46h7.87v15c0,4.38,2.64,6.42,5.34,6.42s6.31-1.56,6.31-6.6Z" transform="translate(-25.05 -2.34)"/><path class="cls-1" d="M968.12,42.66h7.39c0,1.62,1.38,3.36,4.14,3.36,2.29,0,4-1.14,4-2.76,0-1.2-1-1.8-3.07-2.34l-3.72-.9c-7.21-1.92-8.17-5.94-8.17-8.88,0-4.32,4.5-8.4,11-8.4,5.11,0,11.12,2.46,11.06,9.12h-7.51c0-1.92-1.56-2.94-3.43-2.94s-3.24,1-3.24,2.46,1.2,2,2.76,2.4L984,35c6.73,1.8,7.57,6,7.57,8.28,0,5.88-6,8.94-11.78,8.94S968.18,48.84,968.12,42.66Z" transform="translate(-25.05 -2.34)"/><path class="cls-1" d="M1025.37,40h-21.09c.84,3.3,3.49,5.22,7.21,5.22a10,10,0,0,0,7.39-3.3l4.57,4.62c-2.65,3.54-7.51,5.64-12.44,5.64-8.65,0-15-6.06-15-14.7,0-9.06,6.91-14.76,14.9-14.76s14.6,5.7,14.6,14.28C1025.55,37.8,1025.49,38.76,1025.37,40Zm-7.75-5.1c-.24-3.3-3-5.4-6.49-5.4a6.52,6.52,0,0,0-6.85,5.4Z" transform="translate(-25.05 -2.34)"/><path class="cls-1" d="M44,95.46v6.12H38v21.9H30.16v-21.9H25.05V95.46h5.11V85.26H38v10.2Z" transform="translate(-25.05 -2.34)"/><path class="cls-1" d="M76.47,108.12v15.36H68.61V108.6c0-4.38-2.65-6.42-5.35-6.42S57,103.74,57,108.78v14.7H49.08V80.22H57V99.9c1.2-3.6,5.71-5.16,8.41-5.16C72.69,94.74,76.54,99.72,76.47,108.12Z" transform="translate(-25.05 -2.34)"/><path class="cls-1" d="M111.68,112H90.59c.84,3.3,3.49,5.22,7.21,5.22a10,10,0,0,0,7.39-3.3l4.57,4.62c-2.65,3.54-7.51,5.64-12.44,5.64-8.65,0-15-6.06-15-14.7,0-9.06,6.91-14.76,14.9-14.76s14.6,5.7,14.6,14.28C111.86,109.8,111.8,110.76,111.68,112Zm-7.75-5.1c-.24-3.3-3-5.4-6.49-5.4a6.52,6.52,0,0,0-6.85,5.4Z" transform="translate(-25.05 -2.34)"/><path class="cls-1" d="M135.35,95.46h8.47l-17.3,41.76h-8.41l6.66-16.38L113.66,95.46h8.65l6.61,16.2Z" transform="translate(-25.05 -2.34)"/><path class="cls-1" d="M182.75,95.46h7.87v28h-7.87v-4a11.13,11.13,0,0,1-9.26,4.74c-7.75,0-13.51-6-13.51-14.7s5.64-14.76,13.69-14.76c3.61,0,7.21,1.56,9.08,4.44Zm-.25,14a7.38,7.38,0,0,0-7.32-7.44,7.41,7.41,0,0,0,.06,14.82A7.39,7.39,0,0,0,182.5,109.5Z" transform="translate(-25.05 -2.34)"/><path class="cls-1" d="M196.8,109.38c0-8.88,7.21-14.64,15.38-14.64a14.23,14.23,0,0,1,11.84,6l-6,4.14a7.42,7.42,0,0,0-5.83-2.82,7.17,7.17,0,0,0-7.45,7.32,7.28,7.28,0,0,0,7.45,7.5,7.42,7.42,0,0,0,5.83-2.82l6,4.14a14.23,14.23,0,0,1-11.84,6C204,124.2,196.8,118.26,196.8,109.38Z" transform="translate(-25.05 -2.34)"/><path class="cls-1" d="M246.18,95.46v6.12h-5.94v21.9h-7.87v-21.9h-5.11V95.46h5.11V85.26h7.87v10.2Z" transform="translate(-25.05 -2.34)"/><path class="cls-1" d="M265.59,123.48V80.22h7.87v43.26Z" transform="translate(-25.05 -2.34)"/><path class="cls-1" d="M280.3,85.8a5,5,0,1,1,5,4.74A4.89,4.89,0,0,1,280.3,85.8Zm1.08,37.68v-28h7.87v28Z" transform="translate(-25.05 -2.34)"/><path class="cls-1" d="M324.7,123.48h-9.79l-9.86-12.12v12.12h-7.87V80.22h7.87V104l7.09-8.58h10.09L311.3,107.82Z" transform="translate(-25.05 -2.34)"/><path class="cls-1" d="M354,112H332.93c.84,3.3,3.48,5.22,7.21,5.22a10,10,0,0,0,7.39-3.3l4.56,4.62c-2.64,3.54-7.51,5.64-12.43,5.64-8.65,0-15-6.06-15-14.7,0-9.06,6.91-14.76,14.9-14.76s14.59,5.7,14.59,14.28C354.19,109.8,354.13,110.76,354,112Zm-7.75-5.1c-.24-3.3-2.94-5.4-6.48-5.4a6.52,6.52,0,0,0-6.85,5.4Z" transform="translate(-25.05 -2.34)"/><path class="cls-1" d="M395.64,95.46h7.87v28h-7.87v-4a11.1,11.1,0,0,1-9.25,4.74c-7.75,0-13.51-6-13.51-14.7s5.64-14.76,13.69-14.76c3.61,0,7.21,1.56,9.07,4.44Zm-.24,14a7.38,7.38,0,0,0-7.32-7.44,7.41,7.41,0,0,0,.06,14.82A7.39,7.39,0,0,0,395.4,109.5Z" transform="translate(-25.05 -2.34)"/><path class="cls-1" d="M446.83,95.46h7.87V120c0,12.24-6.19,17.94-16.1,17.94A14.84,14.84,0,0,1,425,129.36l6.55-2.82a8,8,0,0,0,7.09,4.38c5,0,8.23-2.82,8.23-10.08v-.78c-2.05,2.76-5.89,4.14-9,4.14-7.21,0-13.76-5.76-13.76-14.76s6.55-14.7,13.76-14.7c3.18,0,7,1.32,9,4.08Zm-.24,14a7.39,7.39,0,0,0-7.27-7.38,7.31,7.31,0,0,0-7.27,7.38,7.27,7.27,0,1,0,14.54,0Z" transform="translate(-25.05 -2.34)"/><path class="cls-1" d="M460.88,109.5c0-8.88,7.09-14.76,15.08-14.76S491,100.62,491,109.5,484,124.2,476,124.2,460.88,118.32,460.88,109.5Zm22.17,0a7.09,7.09,0,1,0-7.09,7.38A7.11,7.11,0,0,0,483.05,109.5Z" transform="translate(-25.05 -2.34)"/><path class="cls-1" d="M518.32,95.46h7.87v28h-7.87v-4a11.13,11.13,0,0,1-9.26,4.74c-7.75,0-13.51-6-13.51-14.7s5.64-14.76,13.69-14.76c3.61,0,7.21,1.56,9.08,4.44Zm-.24,14a7.38,7.38,0,0,0-7.33-7.44,7.41,7.41,0,0,0,.06,14.82A7.4,7.4,0,0,0,518.08,109.5Z" transform="translate(-25.05 -2.34)"/><path class="cls-1" d="M534.12,123.48V80.22H542v43.26Z" transform="translate(-25.05 -2.34)"/><path class="cls-1" d="M591.72,123.48h-9.79l-9.85-12.12v12.12h-7.87V80.22h7.87V104l7.09-8.58h10.09l-10.93,12.36Z" transform="translate(-25.05 -2.34)"/><path class="cls-1" d="M621,112H600c.84,3.3,3.49,5.22,7.21,5.22a10,10,0,0,0,7.39-3.3l4.57,4.62c-2.65,3.54-7.51,5.64-12.44,5.64-8.65,0-15-6.06-15-14.7,0-9.06,6.91-14.76,14.9-14.76s14.6,5.7,14.6,14.28C621.22,109.8,621.16,110.76,621,112Zm-7.75-5.1c-.24-3.3-2.94-5.4-6.49-5.4a6.52,6.52,0,0,0-6.85,5.4Z" transform="translate(-25.05 -2.34)"/><path class="cls-1" d="M654.92,112H633.84c.84,3.3,3.48,5.22,7.2,5.22a10,10,0,0,0,7.39-3.3l4.57,4.62c-2.64,3.54-7.51,5.64-12.44,5.64-8.65,0-14.95-6.06-14.95-14.7,0-9.06,6.9-14.76,14.89-14.76s14.6,5.7,14.6,14.28C655.1,109.8,655,110.76,654.92,112Zm-7.75-5.1c-.24-3.3-2.94-5.4-6.49-5.4a6.51,6.51,0,0,0-6.84,5.4Z" transform="translate(-25.05 -2.34)"/><path class="cls-1" d="M691.81,109.44c0,9.06-6.55,14.76-13.76,14.76-3.18,0-7-1.32-9-4.2v17.22h-7.87V95.46H669v3.42c2-2.82,5.83-4.14,9-4.14C685.26,94.74,691.81,100.5,691.81,109.44Zm-8,.06a7.24,7.24,0,1,0-14.48,0,7.43,7.43,0,0,0,7.27,7.38A7.27,7.27,0,0,0,683.76,109.5Z" transform="translate(-25.05 -2.34)"/><path class="cls-1" d="M725.69,112H704.6c.84,3.3,3.49,5.22,7.21,5.22a10,10,0,0,0,7.39-3.3l4.57,4.62c-2.65,3.54-7.51,5.64-12.44,5.64-8.65,0-15-6.06-15-14.7,0-9.06,6.91-14.76,14.9-14.76s14.6,5.7,14.6,14.28C725.87,109.8,725.81,110.76,725.69,112Zm-7.75-5.1c-.24-3.3-2.94-5.4-6.49-5.4a6.52,6.52,0,0,0-6.85,5.4Z" transform="translate(-25.05 -2.34)"/><path class="cls-1" d="M752.42,95.64l-1.8,7.5a8.16,8.16,0,0,0-4-1c-4,0-6.79,3.78-6.79,11.76v9.6h-7.87v-28h7.81v6c1.56-4.68,4.74-6.72,8.23-6.72A10,10,0,0,1,752.42,95.64Z" transform="translate(-25.05 -2.34)"/><path class="cls-1" d="M785.88,95.46v6.12h-5.94v21.9h-7.87v-21.9H767V95.46h5.11V85.26h7.87v10.2Z" transform="translate(-25.05 -2.34)"/><path class="cls-1" d="M788.59,109.5c0-8.88,7.09-14.76,15.08-14.76s15.08,5.88,15.08,14.76-7.09,14.7-15.08,14.7S788.59,118.32,788.59,109.5Zm22.16,0a7.09,7.09,0,1,0-7.08,7.38A7.11,7.11,0,0,0,810.75,109.5Z" transform="translate(-25.05 -2.34)"/><path class="cls-1" d="M869.87,109.44c0,9.06-6.55,14.76-13.76,14.76-3.18,0-7-1.32-9-4.2v17.22h-7.87V95.46h7.87v3.42c2-2.82,5.83-4.14,9-4.14C863.32,94.74,869.87,100.5,869.87,109.44Zm-8,.06a7.24,7.24,0,1,0-14.48,0,7.43,7.43,0,0,0,7.27,7.38A7.27,7.27,0,0,0,861.82,109.5Z" transform="translate(-25.05 -2.34)"/><path class="cls-1" d="M896.6,95.64l-1.8,7.5a8.19,8.19,0,0,0-4-1c-4,0-6.78,3.78-6.78,11.76v9.6h-7.87v-28h7.8v6c1.57-4.68,4.75-6.72,8.24-6.72A10,10,0,0,1,896.6,95.64Z" transform="translate(-25.05 -2.34)"/><path class="cls-1" d="M898.22,109.5c0-8.88,7.09-14.76,15.08-14.76s15.08,5.88,15.08,14.76-7.09,14.7-15.08,14.7S898.22,118.32,898.22,109.5Zm22.17,0a7.1,7.1,0,1,0-7.09,7.38A7.11,7.11,0,0,0,920.39,109.5Z" transform="translate(-25.05 -2.34)"/><path class="cls-1" d="M950.55,95.46v6.12H944.6v21.9h-7.87v-21.9h-5.11V95.46h5.11V85.26h7.87v10.2Z" transform="translate(-25.05 -2.34)"/><path class="cls-1" d="M982.63,112H961.54c.84,3.3,3.49,5.22,7.21,5.22a10,10,0,0,0,7.39-3.3l4.57,4.62c-2.65,3.54-7.51,5.64-12.44,5.64-8.65,0-15-6.06-15-14.7,0-9.06,6.91-14.76,14.9-14.76s14.6,5.7,14.6,14.28C982.81,109.8,982.75,110.76,982.63,112Zm-7.75-5.1c-.24-3.3-3-5.4-6.49-5.4a6.52,6.52,0,0,0-6.85,5.4Z" transform="translate(-25.05 -2.34)"/><path class="cls-1" d="M987.13,109.38c0-8.88,7.21-14.64,15.38-14.64a14.23,14.23,0,0,1,11.84,6l-6,4.14a7.4,7.4,0,0,0-5.83-2.82,7.17,7.17,0,0,0-7.45,7.32,7.28,7.28,0,0,0,7.45,7.5,7.4,7.4,0,0,0,5.83-2.82l6,4.14a14.23,14.23,0,0,1-11.84,6C994.34,124.2,987.13,118.26,987.13,109.38Z" transform="translate(-25.05 -2.34)"/><path class="cls-1" d="M1036.51,95.46v6.12h-5.94v21.9h-7.87v-21.9h-5.11V95.46h5.11V85.26h7.87v10.2Z" transform="translate(-25.05 -2.34)"/><path class="cls-1" d="M330.5,181.5c0-8.88,7.09-14.76,15.08-14.76s15.07,5.88,15.07,14.76-7.08,14.7-15.07,14.7S330.5,190.32,330.5,181.5Zm22.16,0a7.09,7.09,0,1,0-7.08,7.38A7.11,7.11,0,0,0,352.66,181.5Z" transform="translate(-25.05 -2.34)"/><path class="cls-1" d="M386,167.46h7.87v28H386v-4.56c-1.21,3.66-5.65,5.28-8.42,5.28-7.32,0-11.17-4.92-11.11-13.32V167.46h7.87v15c0,4.38,2.64,6.42,5.35,6.42s6.31-1.56,6.31-6.6Z" transform="translate(-25.05 -2.34)"/><path class="cls-1" d="M422.29,167.64l-1.8,7.5a8.19,8.19,0,0,0-4-1c-4,0-6.79,3.78-6.79,11.76v9.6H401.8v-28h7.81v6c1.57-4.68,4.75-6.72,8.23-6.72A10,10,0,0,1,422.29,167.64Z" transform="translate(-25.05 -2.34)"/><path class="cls-1" d="M437.49,186.66h7.39c0,1.62,1.38,3.36,4.14,3.36,2.29,0,4-1.14,4-2.76,0-1.2-1-1.8-3.07-2.34l-3.72-.9c-7.21-1.92-8.17-5.94-8.17-8.88,0-4.32,4.5-8.4,11-8.4,5.11,0,11.12,2.46,11.06,9.12h-7.51c0-1.92-1.56-2.94-3.43-2.94s-3.24,1-3.24,2.46,1.2,2,2.76,2.4l4.63,1.2c6.73,1.8,7.57,6,7.57,8.28,0,5.88-6,8.94-11.78,8.94S437.55,192.84,437.49,186.66Z" transform="translate(-25.05 -2.34)"/><path class="cls-1" d="M494.5,180.12v15.36h-7.87V180.6c0-4.38-2.64-6.42-5.35-6.42s-6.31,1.56-6.31,6.6v14.7H467.1V152.22H475V171.9c1.21-3.6,5.71-5.16,8.41-5.16C490.71,166.74,494.56,171.72,494.5,180.12Z" transform="translate(-25.05 -2.34)"/><path class="cls-1" d="M523.15,167.46H531v28h-7.87v-4a11.1,11.1,0,0,1-9.25,4.74c-7.75,0-13.51-6-13.51-14.7s5.64-14.76,13.69-14.76c3.61,0,7.21,1.56,9.07,4.44Zm-.24,14a7.38,7.38,0,0,0-7.33-7.44,7.41,7.41,0,0,0,.06,14.82A7.39,7.39,0,0,0,522.91,181.5Z" transform="translate(-25.05 -2.34)"/><path class="cls-1" d="M559.44,167.64l-1.8,7.5a8.21,8.21,0,0,0-4-1c-4,0-6.79,3.78-6.79,11.76v9.6H539v-28h7.81v6c1.56-4.68,4.75-6.72,8.23-6.72A10,10,0,0,1,559.44,167.64Z" transform="translate(-25.05 -2.34)"/><path class="cls-1" d="M590.44,184H569.35c.84,3.3,3.49,5.22,7.21,5.22a10,10,0,0,0,7.39-3.3l4.57,4.62c-2.65,3.54-7.51,5.64-12.44,5.64-8.65,0-15-6.06-15-14.7,0-9.06,6.91-14.76,14.9-14.76s14.6,5.7,14.6,14.28C590.62,181.8,590.56,182.76,590.44,184Zm-7.75-5.1c-.24-3.3-3-5.4-6.49-5.4a6.52,6.52,0,0,0-6.85,5.4Z" transform="translate(-25.05 -2.34)"/><path class="cls-1" d="M617.77,152.22h7.87v43.26h-7.87V192c-2,2.88-5.89,4.2-9,4.2-7.21,0-13.76-5.76-13.76-14.76s6.55-14.7,13.76-14.7c3.24,0,7,1.26,9,4.14Zm-.24,29.22a7.27,7.27,0,1,0-7.27,7.44A7.39,7.39,0,0,0,617.53,181.44Z" transform="translate(-25.05 -2.34)"/><path class="cls-1" d="M669,167.46h7.87v28H669v-4a11.1,11.1,0,0,1-9.25,4.74c-7.75,0-13.51-6-13.51-14.7s5.64-14.76,13.69-14.76c3.61,0,7.21,1.56,9.07,4.44Zm-.24,14a7.38,7.38,0,0,0-7.33-7.44,7.23,7.23,0,0,0-7.14,7.44,7.3,7.3,0,0,0,7.21,7.38A7.39,7.39,0,0,0,668.71,181.5Z" transform="translate(-25.05 -2.34)"/><path class="cls-1" d="M683.67,157.8a5,5,0,1,1,5,4.74A4.89,4.89,0,0,1,683.67,157.8Zm1.08,37.68v-28h7.87v28Z" transform="translate(-25.05 -2.34)"/><path class="cls-1" d="M721,167.64l-1.8,7.5a8.21,8.21,0,0,0-4-1c-4,0-6.79,3.78-6.79,11.76v9.6h-7.87v-28h7.81v6c1.56-4.68,4.75-6.72,8.23-6.72A10,10,0,0,1,721,167.64Z" transform="translate(-25.05 -2.34)"/><path class="cls-1" d="M719.9,191.16a4.85,4.85,0,0,1,5-4.8,4.84,4.84,0,1,1,0,9.66A4.87,4.87,0,0,1,719.9,191.16Z" transform="translate(-25.05 -2.34)"/></g></g></svg>