<svg xmlns="http://www.w3.org/2000/svg" viewBox="0 0 866.77 168.19"><defs><style>.cls-1{fill:#244461;}</style></defs><g id="Layer_2" data-name="Layer 2"><g id="Layer_21" data-name="Layer 21"><path class="cls-1" d="M14.67,63.52a5.18,5.18,0,0,1-1.74,1.29,5.53,5.53,0,0,1-2.24.41,6.21,6.21,0,0,1-2.55-.48,4.65,4.65,0,0,1-1.8-1.44,13.61,13.61,0,0,1-1.59-2.61,31.58,31.58,0,0,1-1.36-3.86,26,26,0,0,1-1.1-7.73,8.92,8.92,0,0,1,1.14-4.86,3.61,3.61,0,0,1,3.2-1.77,5.08,5.08,0,0,1,2.1.48,9.69,9.69,0,0,1,2.33,1.58l1.1,1c.39.34,1,.91,1.84,1.69s1.22,1.19,1.59,1.51.72.63,1.07.92a19.43,19.43,0,0,0,4.79,3.06,11.81,11.81,0,0,0,4.57.92,4,4,0,0,0,2.91-1.07A3.85,3.85,0,0,0,30,49.68a4.05,4.05,0,0,0-1.81-3.23c-1.2-.94-3.65-2-7.33-3.32l-3.61-1.25c-5-1.71-8.61-3.85-10.8-6.4a14.17,14.17,0,0,1-3.28-9.57A16.12,16.12,0,0,1,8.29,13.47q5.13-4.71,13.45-4.71c1,0,1.94,0,2.88.11a18.14,18.14,0,0,1,2.65.4,26.12,26.12,0,0,1,3.24.74c1.18.34,1.89.54,2.14.59a5.68,5.68,0,0,0,1.29.29,9.81,9.81,0,0,0,1.14.08,2.28,2.28,0,0,0,.7-.11,2.48,2.48,0,0,0,.7-.41,6.29,6.29,0,0,0,.59-.48l.52-.47A4.28,4.28,0,0,1,39,8.69a5.21,5.21,0,0,1,1.59-.23,5,5,0,0,1,3.24,1.15,9.85,9.85,0,0,1,2.51,3.49,13,13,0,0,1,.92,2.28A20.89,20.89,0,0,1,47.9,18c.15.93.27,1.84.37,2.72a23.12,23.12,0,0,1,.15,2.58,7.53,7.53,0,0,1-1,4.38,3.65,3.65,0,0,1-3.17,1.44A5.77,5.77,0,0,1,42,28.6,11.22,11.22,0,0,1,39.43,27l-1-.77c-.34-.27-.86-.7-1.55-1.29l-2.35-2c-.55-.44-1.06-.83-1.55-1.17a17.36,17.36,0,0,0-3.65-2A9.59,9.59,0,0,0,26,19.14a4.27,4.27,0,0,0-3,1,3.56,3.56,0,0,0-1.1,2.72,3.35,3.35,0,0,0,1.66,2.73,29.56,29.56,0,0,0,6.89,2.87l2.8.88q9.06,2.86,12.9,7A14.59,14.59,0,0,1,50,46.67a16.94,16.94,0,0,1-5.64,13.14q-5.64,5.11-14.56,5.11a25.09,25.09,0,0,1-3.83-.29,47.72,47.72,0,0,1-6.41-1.84,10.86,10.86,0,0,0-1.33-.41,4.78,4.78,0,0,0-.95-.11,2.86,2.86,0,0,0-1.33.3A4.86,4.86,0,0,0,14.67,63.52Z" transform="translate(-0.59 -2.87)"/><path class="cls-1" d="M100.75,43q0,10.31-6.49,16.12T76.43,64.92q-10.62,0-16.81-5.67T53.43,43.8q0-10.17,6.75-16.27t17.5-6.11q10.25,0,16.65,5.92T100.75,43ZM70,39.6a14.43,14.43,0,0,0,3.17,8.83c2.12,2.8,4.35,4.2,6.71,4.2a4.23,4.23,0,0,0,3.43-1.36,6.26,6.26,0,0,0,1.14-4.09,14.74,14.74,0,0,0-3.13-8.87q-3.14-4.23-6.75-4.23a4.11,4.11,0,0,0-3.35,1.47A6.18,6.18,0,0,0,70,39.6Z" transform="translate(-0.59 -2.87)"/><path class="cls-1" d="M148.13,64.33a6.61,6.61,0,0,1-1.84.52,19.06,19.06,0,0,1-2.65.15,14.92,14.92,0,0,1-3.17-.26,5.26,5.26,0,0,1-1.92-.85A7.93,7.93,0,0,1,137,62.16a44.91,44.91,0,0,1-2.47-4.67q-1.77-3.62-4.6-10.71T125.43,34.6a7.75,7.75,0,0,0-.7-1.66,8.24,8.24,0,0,0-1-1.36,6.2,6.2,0,0,0-.81-.81c-.3-.25-.69-.54-1.18-.89a3.79,3.79,0,0,1-1.44-1.5,4.89,4.89,0,0,1-.4-2.1,3.15,3.15,0,0,1,.88-2.21,5.14,5.14,0,0,1,2.51-1.4,34.35,34.35,0,0,1,4.93-1,52.24,52.24,0,0,1,5.83-.29,49,49,0,0,1,5.75.29,22.06,22.06,0,0,1,4.12.89A4.73,4.73,0,0,1,146.22,24a3.62,3.62,0,0,1,.73,2.32,4.65,4.65,0,0,1-.33,1.91,4.18,4.18,0,0,1-1.21,1.48,15.23,15.23,0,0,0-1.29,1.06,7.29,7.29,0,0,0-.56.63,3,3,0,0,0-.44.77,2.41,2.41,0,0,0-.15.85,3.21,3.21,0,0,0,.12.62c.07.33.18.73.33,1.22.39,1.18,1,2.66,1.69,4.45s1.72,4,2.95,6.59a1.72,1.72,0,0,0,.41.59.6.6,0,0,0,.4.15.76.76,0,0,0,.52-.19,2,2,0,0,0,.44-.77c.74-1.72,1.41-3.42,2-5.12s1.11-3.27,1.51-4.74a4,4,0,0,0,.18-.85c0-.27,0-.62,0-1.07a4,4,0,0,0-.19-1.25,2.88,2.88,0,0,0-.48-1,13.3,13.3,0,0,0-.95-1c-.3-.27-.59-.53-.89-.77a3.79,3.79,0,0,1-1.14-1.44,5,5,0,0,1-.33-1.95,3.67,3.67,0,0,1,.74-2.35,5,5,0,0,1,2.28-1.55,17.16,17.16,0,0,1,3.83-1,44,44,0,0,1,5.6-.29,44.84,44.84,0,0,1,5.46.29,17.35,17.35,0,0,1,3.83.89A3.51,3.51,0,0,1,173.12,24a4.25,4.25,0,0,1,.59,2.32,5.22,5.22,0,0,1-.33,2,3.58,3.58,0,0,1-1.22,1.48,7.46,7.46,0,0,0-1.11,1,5.26,5.26,0,0,0-.73,1.1,2.42,2.42,0,0,0-.3.7,4,4,0,0,0-.07.85,3.2,3.2,0,0,0,.07.7,7.37,7.37,0,0,0,.22.77c.4,1.13.93,2.52,1.59,4.16s1.58,3.84,2.76,6.59a2.35,2.35,0,0,0,.41.62.54.54,0,0,0,.4.19.76.76,0,0,0,.52-.19,1.91,1.91,0,0,0,.44-.77,45.89,45.89,0,0,0,1.95-4.71q.93-2.58,1.66-5.15a10.84,10.84,0,0,0,.22-1.11,7.15,7.15,0,0,0,.08-1,3.67,3.67,0,0,0-.15-1,3.58,3.58,0,0,0-.37-.88,5.29,5.29,0,0,0-.66-.81c-.25-.25-.69-.64-1.33-1.18a3.92,3.92,0,0,1-1.14-1.4,4.71,4.71,0,0,1-.33-1.91,3.56,3.56,0,0,1,.84-2.43,6.06,6.06,0,0,1,2.77-1.55,16.13,16.13,0,0,1,3-.62,38.37,38.37,0,0,1,7.63,0,13.48,13.48,0,0,1,2.84.55,5.18,5.18,0,0,1,2.35,1.44,3.26,3.26,0,0,1,.81,2.24,4,4,0,0,1-.4,1.88,5.24,5.24,0,0,1-1.44,1.58,5.88,5.88,0,0,0-1,.92,6.39,6.39,0,0,0-.7,1c-.2.4-.43.89-.7,1.47s-.56,1.28-.85,2.07q-4.93,12.8-6.27,15.93c-.88,2.09-1.72,4-2.5,5.63a40.55,40.55,0,0,1-2.69,5,8.54,8.54,0,0,1-2.18,2.25,6.83,6.83,0,0,1-2.32,1.06,11.1,11.1,0,0,1-2.76.34,14.3,14.3,0,0,1-3.39-.37,6.71,6.71,0,0,1-2.51-1.18,7.7,7.7,0,0,1-1.62-1.69,28.64,28.64,0,0,1-2.06-3.83c-.94-1.87-1.72-3.51-2.36-4.93s-1.15-2.65-1.55-3.68a2.17,2.17,0,0,0-.4-.7.79.79,0,0,0-.56-.19.88.88,0,0,0-.58.19,2.36,2.36,0,0,0-.52.7c-.1.24-.22.51-.37.81s-.37.78-.66,1.47c-.45,1-.81,1.8-1.11,2.46s-.61,1.37-1,2.1A34.34,34.34,0,0,1,151,61.87,7.72,7.72,0,0,1,148.13,64.33Z" transform="translate(-0.59 -2.87)"/><path class="cls-1" d="M209.3,64.63a49.45,49.45,0,0,1-5.86-.3,18.53,18.53,0,0,1-4.09-.88,3.72,3.72,0,0,1-1.69-1.25,3.3,3.3,0,0,1-.59-2,3.66,3.66,0,0,1,.48-1.91,5.82,5.82,0,0,1,1.58-1.62c.3-.25.56-.48.78-.7a3.6,3.6,0,0,0,.55-.7A4.06,4.06,0,0,0,200.9,54a17,17,0,0,0,.22-2q.07-1.77.15-5.93c0-2.77.07-6.1.07-10q0-6.48,0-10.49c0-2.68-.06-4.38-.11-5.12a12.65,12.65,0,0,0-.26-2.09,3.64,3.64,0,0,0-.55-1.29,2.28,2.28,0,0,0-.89-.85,6.29,6.29,0,0,0-1.4-.55,4.94,4.94,0,0,1-2.43-1.25,3.28,3.28,0,0,1-.74-2.29A4.43,4.43,0,0,1,196.59,9a15.92,15.92,0,0,1,4.61-2.8,21.54,21.54,0,0,1,2.13-.77,20.68,20.68,0,0,1,2.29-.55c.74-.15,1.51-.27,2.32-.37a20.1,20.1,0,0,1,2.47-.15c2.75,0,4.74.78,6,2.32s1.84,4.09,1.84,7.62v4.38q0,2.25-.07,5.92v4.86a1.69,1.69,0,0,0,.11.78.35.35,0,0,0,.33.18.54.54,0,0,0,.33-.15,2.89,2.89,0,0,0,.48-.59,17.48,17.48,0,0,1,5.75-6.25,14.18,14.18,0,0,1,7.59-2q5.59,0,8.55,3.31T244.61,35c.09,1.57.15,3.06.18,4.46s0,2.76,0,4.08-.07,2.9-.07,4.27,0,2.63.07,3.76a20.65,20.65,0,0,0,.19,2.72,3.35,3.35,0,0,0,.26.81,2.38,2.38,0,0,0,.4.51c.22.25.53.57.92,1A6.39,6.39,0,0,1,248,58.26a4,4,0,0,1,.33,1.73,3.34,3.34,0,0,1-.63,2,4.26,4.26,0,0,1-1.73,1.4,13.74,13.74,0,0,1-4,.95,55.82,55.82,0,0,1-6.41.3,46,46,0,0,1-5.49-.26,13.91,13.91,0,0,1-3.5-.85,4.27,4.27,0,0,1-1.81-1.36,3.22,3.22,0,0,1-.62-1.95,4.52,4.52,0,0,1,.33-1.8,4.4,4.4,0,0,1,1.14-1.51,6.32,6.32,0,0,0,.78-.77,6.64,6.64,0,0,0,.55-.78,4.34,4.34,0,0,0,.44-1.32,17.19,17.19,0,0,0,.22-2c0-.59.08-1.35.08-2.28V45a28.06,28.06,0,0,0-.45-5.59,7.05,7.05,0,0,0-1.32-3.17,4.74,4.74,0,0,0-1.66-1.28,5.21,5.21,0,0,0-2.1-.41,5.52,5.52,0,0,0-2.29.41,2.41,2.41,0,0,0-1.25,1.28,6.52,6.52,0,0,0-.33,1.84c-.08.89-.11,3.71-.11,8.47v3.94c0,.71,0,1.36.07,1.95s.11,1.28.19,1.76a4.9,4.9,0,0,0,.33,1.26,2.41,2.41,0,0,0,.48.81A7.79,7.79,0,0,0,220,57a3.22,3.22,0,0,1,1,1.18,4.08,4.08,0,0,1,.29,1.62,3.45,3.45,0,0,1-.73,2.28,5,5,0,0,1-2.36,1.4,22.69,22.69,0,0,1-4.13.92A38.85,38.85,0,0,1,209.3,64.63Z" transform="translate(-0.59 -2.87)"/><path class="cls-1" d="M274.68,59.33A11.79,11.79,0,0,1,270,63.41a14.3,14.3,0,0,1-6.49,1.51q-5.67,0-8.84-2.83t-3.17-8a10.91,10.91,0,0,1,1.44-5.67,11.27,11.27,0,0,1,4.31-4,22.31,22.31,0,0,1,3.94-1.69,70.79,70.79,0,0,1,7.41-1.76c.59-.1,1-.19,1.33-.26a7.71,7.71,0,0,0,.81-.26,7.38,7.38,0,0,0,3.24-1.8,4.38,4.38,0,0,0,1-2.84v-.22a3.77,3.77,0,0,0-1.1-2.87,4.41,4.41,0,0,0-3.1-1,4.56,4.56,0,0,0-2.73.92,6.36,6.36,0,0,0-2,2.61,9.72,9.72,0,0,1-3.2,4.38,8,8,0,0,1-4.61,1.29,7.26,7.26,0,0,1-5.12-1.8,6.07,6.07,0,0,1-2-4.67c0-3.64,2.27-6.65,6.81-9.06a31.66,31.66,0,0,1,15-3.61q9.43,0,14.19,4t4.75,11.78V40.3c0,1,0,2.29-.07,4v5.6a9.84,9.84,0,0,0,.11,1.54,13.36,13.36,0,0,0,.48,1.84A1.92,1.92,0,0,0,293,54a4.31,4.31,0,0,0,1.18.66A4.2,4.2,0,0,1,296.09,56a3.57,3.57,0,0,1,.48,2,4.55,4.55,0,0,1-.74,2.58,7.46,7.46,0,0,1-2.43,2.13,14,14,0,0,1-3.76,1.4,19.77,19.77,0,0,1-4.57.52,17,17,0,0,1-3.69-.3,7.27,7.27,0,0,1-2.58-1.25,5.5,5.5,0,0,1-1.43-1.58,7.26,7.26,0,0,1-.92-2.1,2.27,2.27,0,0,0-.3-.7.54.54,0,0,0-.44-.18.8.8,0,0,0-.52.18A3.16,3.16,0,0,0,274.68,59.33Zm-6.05-8.91a3.74,3.74,0,0,0,1,2.76,3.64,3.64,0,0,0,2.69,1,3.13,3.13,0,0,0,2-.62,3.78,3.78,0,0,0,1.14-1.95,7.11,7.11,0,0,0,.22-1.18,14.85,14.85,0,0,0,.07-1.62v-.44a3.48,3.48,0,0,0-.48-2.21c-.32-.34-.89-.37-1.73-.07l-.44.15a2.55,2.55,0,0,1-.33.11,1.61,1.61,0,0,0-.48.18,1.49,1.49,0,0,0-.41.15.32.32,0,0,1-.18.07,4.91,4.91,0,0,0-2.36,1.4A3.45,3.45,0,0,0,268.63,50.42Z" transform="translate(-0.59 -2.87)"/><path class="cls-1" d="M328.48,57.63A19.32,19.32,0,0,1,322,62.79a18.67,18.67,0,0,1-8.21,1.84q-6.42,0-9.44-3.72t-3-11.59c0-1.08,0-2.17,0-3.28s.06-2.61.11-4.53c.05-1.32.07-2.28.07-2.87V37a1.61,1.61,0,0,0-.33-1.1,1.72,1.72,0,0,0-1.14-.44l-.81-.07a8.22,8.22,0,0,1-1-.15,3.8,3.8,0,0,1-2.47-1.66,7.27,7.27,0,0,1-.63-3.42,13.59,13.59,0,0,1,.41-3.68,5.21,5.21,0,0,1,1.29-2.28,3.41,3.41,0,0,1,1.29-.85,5.08,5.08,0,0,1,1.73-.26h.89a1.48,1.48,0,0,0,1.14-.44,1.67,1.67,0,0,0,.4-1.18V19.06a6.32,6.32,0,0,1,.41-2.39,5.32,5.32,0,0,1,1.36-1.88,12.73,12.73,0,0,1,1.81-1.28c.76-.47,2-1.12,3.65-1.95,1.08-.54,1.9-.94,2.47-1.18s1.06-.44,1.51-.59.68-.18,1-.26a4.57,4.57,0,0,1,.88-.11,2.55,2.55,0,0,1,1.73.55,2,2,0,0,1,.63,1.59V21a1.87,1.87,0,0,0,.41,1.36,1.64,1.64,0,0,0,1.21.4h7.08a2.63,2.63,0,0,1,2.58,1.7,8.33,8.33,0,0,1,.14,4.78,11.74,11.74,0,0,1-1.73,4.6,3.28,3.28,0,0,1-2.69,1.59h-4.71a2.51,2.51,0,0,0-1.74.51,2.33,2.33,0,0,0-.55,1.77v3.24c0,1.32,0,2.57.11,3.75s.16,2.26.26,3.24a9.83,9.83,0,0,0,1.07,3.86,2.31,2.31,0,0,0,2.1,1.07,4.5,4.5,0,0,0,1.51-.22,5.61,5.61,0,0,0,1.36-.74,8.25,8.25,0,0,1,1.59-1,2.59,2.59,0,0,1,.92-.18,3.25,3.25,0,0,1,2.28.88,2.79,2.79,0,0,1,1,2.13,5.81,5.81,0,0,1-.37,2A6,6,0,0,1,328.48,57.63Z" transform="translate(-0.59 -2.87)"/><path class="cls-1" d="M358,22.08a18,18,0,0,1-4.24,12q-4.23,5.06-12.71,8.21a2.8,2.8,0,0,1-2.43-.07A3.65,3.65,0,0,1,337.1,40a4.32,4.32,0,0,1-.22-2.54A2.21,2.21,0,0,1,338.21,36a27.41,27.41,0,0,0,6.48-3.31,4.19,4.19,0,0,0,2-3.16.93.93,0,0,0-.26-.74,1.14,1.14,0,0,0-.77-.22,5.29,5.29,0,0,0-.66,0l-1.11.11a13.74,13.74,0,0,1-1.4.18c-.34,0-.69,0-1,0a6.79,6.79,0,0,1-5.6-2.36q-1.92-2.36-1.92-6.84a9.71,9.71,0,0,1,3.35-7.7,12.8,12.8,0,0,1,8.66-2.9q5.82,0,9,3.35T358,22.08Z" transform="translate(-0.59 -2.87)"/><path class="cls-1" d="M372.18,63.82a5.55,5.55,0,0,1-1.33.66,3.9,3.9,0,0,1-1.1.15,4.51,4.51,0,0,1-1.81-.41A5.73,5.73,0,0,1,366.21,63,11.71,11.71,0,0,1,364.59,61a12.74,12.74,0,0,1-1.25-2.73,14.43,14.43,0,0,1-.67-2.72,22.93,22.93,0,0,1-.22-3.24,6.22,6.22,0,0,1,1-3.75,3.24,3.24,0,0,1,2.73-1.4,4.71,4.71,0,0,1,2,.48,14,14,0,0,1,2.73,1.87l1.07,1c.36.34.92.88,1.65,1.62a20.82,20.82,0,0,0,4,3.28,6.2,6.2,0,0,0,3.06.84,2.86,2.86,0,0,0,2.06-.7,2.55,2.55,0,0,0,.74-2,2.42,2.42,0,0,0-.7-1.69,8.31,8.31,0,0,0-2.47-1.55c-.49-.24-1.28-.57-2.36-1s-1.8-.7-2.14-.85L372,46.89a15.5,15.5,0,0,1-6.78-4.71,11,11,0,0,1-2.29-6.92,12.24,12.24,0,0,1,4.5-10q4.5-3.69,11.72-3.68a27.46,27.46,0,0,1,3.61.22,42.17,42.17,0,0,1,4.2.81c1,.29,1.77.48,2.21.55a8,8,0,0,0,1.25.11,2.28,2.28,0,0,0,.7-.11,7.06,7.06,0,0,0,1.44-1,3.75,3.75,0,0,1,1.29-.7,4.56,4.56,0,0,1,1.36-.19,4.27,4.27,0,0,1,2.55.89A8.43,8.43,0,0,1,400,24.81a13,13,0,0,1,1.47,3.64,17.86,17.86,0,0,1,.51,4.23,7.54,7.54,0,0,1-.22,2A2.84,2.84,0,0,1,401,36a4.67,4.67,0,0,1-1.26.92,3.25,3.25,0,0,1-1.47.34,7,7,0,0,1-1.88-.26,5.28,5.28,0,0,1-1.66-.78,12.71,12.71,0,0,1-1.25-.88q-.66-.51-1.92-1.62A25.55,25.55,0,0,0,387,30.25a5.86,5.86,0,0,0-2.35-.51,2.81,2.81,0,0,0-2,.73,2.43,2.43,0,0,0-.78,1.84,2,2,0,0,0,.74,1.48A8.21,8.21,0,0,0,385,35.11a23.84,23.84,0,0,0,2.36.88c1,.35,1.67.57,1.92.67l2.87,1q5.75,2.06,8.22,5.15a12.21,12.21,0,0,1,2.47,7.88A12.65,12.65,0,0,1,398,61q-4.83,4-12.49,4c-.84,0-1.67,0-2.51-.11s-1.64-.16-2.43-.26-1.79-.34-2.87-.59l-2-.44a4.7,4.7,0,0,0-1-.18,8.64,8.64,0,0,0-.88,0,3,3,0,0,0-.82.11A4.68,4.68,0,0,0,372.18,63.82Z" transform="translate(-0.59 -2.87)"/><path class="cls-1" d="M434.9,64.63a47.61,47.61,0,0,1-5.79-.3,18.24,18.24,0,0,1-4-.88,3.7,3.7,0,0,1-1.7-1.25,3.3,3.3,0,0,1-.59-2,3.66,3.66,0,0,1,.48-1.91,5.82,5.82,0,0,1,1.58-1.62c.3-.25.56-.48.78-.7a3.6,3.6,0,0,0,.55-.7,4.06,4.06,0,0,0,.44-1.33,17,17,0,0,0,.22-2c.05-1.82.09-3.33.11-4.53s0-2.34,0-3.42c0-1.38,0-2.54,0-3.5a24.7,24.7,0,0,0-.18-2.61,4.51,4.51,0,0,0-.29-1.25,5.67,5.67,0,0,0-.59-1,3.18,3.18,0,0,0-.74-.67,2.65,2.65,0,0,0-1-.29,3.59,3.59,0,0,1-2.06-1.07,3.11,3.11,0,0,1-.67-2.1,5.55,5.55,0,0,1,1.37-3.31,15.06,15.06,0,0,1,3.72-3.31,19.91,19.91,0,0,1,4.72-2.32,15.27,15.27,0,0,1,4.86-.85,10.5,10.5,0,0,1,3.5.52A5,5,0,0,1,442,23.85a7.06,7.06,0,0,1,1.62,3.2,19.78,19.78,0,0,1,.52,4.9c0,1.86,0,3.7,0,5.52s-.06,4-.11,6.47c0,.89-.07,1.49-.07,1.81v4c0,.66,0,1.24.07,1.73a22.9,22.9,0,0,0,.19,2.46,2.94,2.94,0,0,0,.33,1.07,2.78,2.78,0,0,0,.4.51q.33.38.93,1a6.51,6.51,0,0,1,1.43,1.73,4,4,0,0,1,.33,1.73,3.4,3.4,0,0,1-.62,2,4.39,4.39,0,0,1-1.73,1.4,13.76,13.76,0,0,1-4,.95A54.7,54.7,0,0,1,434.9,64.63Zm9.28-55.21c0,2.8-1.48,5.24-4.46,7.33a17.1,17.1,0,0,1-10.05,3.12,8.17,8.17,0,0,1-5.5-1.73,5.73,5.73,0,0,1-2-4.6c0-2.74,1.48-5.2,4.46-7.36a16.43,16.43,0,0,1,9.61-3.31q4,0,6,1.66A6,6,0,0,1,444.18,9.42Z" transform="translate(-0.59 -2.87)"/><path class="cls-1" d="M462.83,64.63a45.1,45.1,0,0,1-5.6-.3,18.2,18.2,0,0,1-4-.88,3.75,3.75,0,0,1-1.7-1.25,3.3,3.3,0,0,1-.59-2,3.66,3.66,0,0,1,.48-1.91A5.73,5.73,0,0,1,453,56.68c.29-.25.55-.48.77-.7a3.26,3.26,0,0,0,.55-.7A4.05,4.05,0,0,0,454.8,54a19.49,19.49,0,0,0,.22-2c0-1.82.08-3.33.11-4.53s0-2.34,0-3.42q0-3.09,0-4.2a13.83,13.83,0,0,0-.19-1.91,7.06,7.06,0,0,0-.37-1.51,2.47,2.47,0,0,0-.59-.92,2.9,2.9,0,0,0-.7-.52,2.84,2.84,0,0,0-.92-.29,3.59,3.59,0,0,1-2.06-1.07,3.11,3.11,0,0,1-.66-2.1A5.65,5.65,0,0,1,451.18,28a18,18,0,0,1,4.21-3.57,17.09,17.09,0,0,1,4.38-2,15.91,15.91,0,0,1,4.53-.7,9.36,9.36,0,0,1,3,.45,5.28,5.28,0,0,1,2.14,1.25,7.84,7.84,0,0,1,1.26,1.65,9.79,9.79,0,0,1,.81,2,8.59,8.59,0,0,1,.22,1.18,12.49,12.49,0,0,1,.07,1.4,1.21,1.21,0,0,0,.18.7.59.59,0,0,0,.48.26.54.54,0,0,0,.33-.15,2.35,2.35,0,0,0,.48-.59,21,21,0,0,1,6.23-6.59,13.76,13.76,0,0,1,7.11-1.8q5.69,0,8.66,3.35t3.28,10.12c.1,1.57.16,3.09.19,4.56s0,2.87,0,4.2-.07,2.87-.07,4.19,0,2.56.07,3.69a23.7,23.7,0,0,0,.18,2.72,3.86,3.86,0,0,0,.26.81,3,3,0,0,0,.41.51c.22.25.53.57.92,1A7.36,7.36,0,0,1,502,58.37a3.91,3.91,0,0,1,.3,1.62,3.34,3.34,0,0,1-.63,2,4.32,4.32,0,0,1-1.73,1.4,13.48,13.48,0,0,1-3.87.95,50.5,50.5,0,0,1-6.08.3,56.11,56.11,0,0,1-6.41-.26,10,10,0,0,1-3.39-1A4.09,4.09,0,0,1,478.64,62a3.32,3.32,0,0,1-.56-1.87,4.6,4.6,0,0,1,.34-1.81,3.84,3.84,0,0,1,1.14-1.43,6.22,6.22,0,0,0,.77-.77,6.79,6.79,0,0,0,.56-.78,4.34,4.34,0,0,0,.44-1.32,17.19,17.19,0,0,0,.22-2c.05-.59.07-1.35.07-2.28V45a29,29,0,0,0-.44-5.59,7.05,7.05,0,0,0-1.33-3.17,4.62,4.62,0,0,0-1.65-1.28,5.21,5.21,0,0,0-2.1-.41,5.37,5.37,0,0,0-2.36.44,2.27,2.27,0,0,0-1.18,1.25,6.52,6.52,0,0,0-.33,1.84q-.12,1.34-.12,8.47v3.94c0,.71,0,1.36.08,1.95.05.83.11,1.47.18,1.91a5.42,5.42,0,0,0,.26,1,2.23,2.23,0,0,0,.48.81,7.84,7.84,0,0,0,.77.74,3.18,3.18,0,0,1,1,1.25,4.11,4.11,0,0,1,.33,1.69,3.38,3.38,0,0,1-.63,2.14,4.34,4.34,0,0,1-2,1.32,25,25,0,0,1-4.31,1A39.09,39.09,0,0,1,462.83,64.63Z" transform="translate(-0.59 -2.87)"/><path class="cls-1" d="M553.85,57.63a19.32,19.32,0,0,1-6.53,5.16,18.67,18.67,0,0,1-8.21,1.84q-6.42,0-9.44-3.72t-3-11.59c0-1.08,0-2.17,0-3.28s.06-2.61.11-4.53c.05-1.32.07-2.28.07-2.87V37a1.61,1.61,0,0,0-.33-1.1,1.72,1.72,0,0,0-1.14-.44l-.81-.07a7.54,7.54,0,0,1-1-.15,3.8,3.8,0,0,1-2.47-1.66,7.27,7.27,0,0,1-.63-3.42,13.59,13.59,0,0,1,.41-3.68,5.21,5.21,0,0,1,1.29-2.28,3.41,3.41,0,0,1,1.29-.85,5,5,0,0,1,1.73-.26h.89a1.48,1.48,0,0,0,1.14-.44,1.67,1.67,0,0,0,.4-1.18V19.06a6.32,6.32,0,0,1,.41-2.39,5.32,5.32,0,0,1,1.36-1.88,12.17,12.17,0,0,1,1.81-1.28c.76-.47,2-1.12,3.65-1.95,1.08-.54,1.9-.94,2.46-1.18s1.07-.44,1.52-.59.68-.18,1-.26a4.57,4.57,0,0,1,.88-.11,2.56,2.56,0,0,1,1.73.55,2,2,0,0,1,.63,1.59V21a1.87,1.87,0,0,0,.4,1.36,1.66,1.66,0,0,0,1.22.4h7.08a2.63,2.63,0,0,1,2.58,1.7,8.33,8.33,0,0,1,.14,4.78,11.74,11.74,0,0,1-1.73,4.6,3.28,3.28,0,0,1-2.69,1.59h-4.72a2.5,2.5,0,0,0-1.73.51,2.33,2.33,0,0,0-.55,1.77v3.24c0,1.32,0,2.57.11,3.75s.16,2.26.26,3.24a9.83,9.83,0,0,0,1.07,3.86,2.31,2.31,0,0,0,2.1,1.07,4.5,4.5,0,0,0,1.51-.22,5.8,5.8,0,0,0,1.36-.74,8.25,8.25,0,0,1,1.59-1,2.55,2.55,0,0,1,.92-.18,3.25,3.25,0,0,1,2.28.88,2.79,2.79,0,0,1,1,2.13,5.81,5.81,0,0,1-.37,2A6,6,0,0,1,553.85,57.63Z" transform="translate(-0.59 -2.87)"/><path class="cls-1" d="M568.81,64.63a49.33,49.33,0,0,1-5.86-.3,18.4,18.4,0,0,1-4.09-.88,3.75,3.75,0,0,1-1.7-1.25,3.3,3.3,0,0,1-.59-2,3.66,3.66,0,0,1,.48-1.91,5.73,5.73,0,0,1,1.59-1.62c.29-.25.55-.48.77-.7a3.26,3.26,0,0,0,.55-.7,4.05,4.05,0,0,0,.45-1.33,19.49,19.49,0,0,0,.22-2c0-1.18.09-3.16.14-5.93s.08-6.1.08-10c0-4.32,0-7.82,0-10.49s-.06-4.38-.11-5.12a12.65,12.65,0,0,0-.26-2.09,3.47,3.47,0,0,0-.55-1.29,2.25,2.25,0,0,0-.88-.85,6.58,6.58,0,0,0-1.41-.55,4.94,4.94,0,0,1-2.43-1.25,3.28,3.28,0,0,1-.73-2.29A4.41,4.41,0,0,1,556.09,9a15.92,15.92,0,0,1,4.61-2.8,20.84,20.84,0,0,1,2.14-.77,20.5,20.5,0,0,1,2.28-.55c.74-.15,1.51-.27,2.32-.37a20.22,20.22,0,0,1,2.47-.15c2.75,0,4.74.78,6,2.32s1.84,4.09,1.84,7.62v4.38c0,1.5,0,3.47-.07,5.92v4.86a1.84,1.84,0,0,0,.11.78.38.38,0,0,0,.33.18.58.58,0,0,0,.34-.15,2.62,2.62,0,0,0,.47-.59,17.48,17.48,0,0,1,5.75-6.25,14.18,14.18,0,0,1,7.59-2q5.61,0,8.55,3.31T604.11,35c.1,1.57.16,3.06.18,4.46s0,2.76,0,4.08-.08,2.9-.08,4.27,0,2.63.08,3.76a23.7,23.7,0,0,0,.18,2.72,3.35,3.35,0,0,0,.26.81,2.78,2.78,0,0,0,.4.51c.22.25.53.57.92,1a6.39,6.39,0,0,1,1.44,1.73,4,4,0,0,1,.33,1.73,3.4,3.4,0,0,1-.62,2,4.39,4.39,0,0,1-1.73,1.4,13.82,13.82,0,0,1-4,.95,56,56,0,0,1-6.42.3,46,46,0,0,1-5.49-.26,13.91,13.91,0,0,1-3.5-.85,4.24,4.24,0,0,1-1.8-1.36,3.16,3.16,0,0,1-.63-1.95,4.52,4.52,0,0,1,.33-1.8,4.4,4.4,0,0,1,1.14-1.51,5.69,5.69,0,0,0,.78-.77,6.64,6.64,0,0,0,.55-.78,4.08,4.08,0,0,0,.44-1.32,17.19,17.19,0,0,0,.22-2c0-.59.08-1.35.08-2.28V45a29,29,0,0,0-.44-5.59,7.16,7.16,0,0,0-1.33-3.17,4.57,4.57,0,0,0-1.66-1.28,5.14,5.14,0,0,0-2.1-.41,5.5,5.5,0,0,0-2.28.41,2.42,2.42,0,0,0-1.26,1.28,7.34,7.34,0,0,0-.33,1.84q-.1,1.34-.11,8.47v3.94c0,.71,0,1.36.07,1.95s.12,1.28.19,1.76a4.9,4.9,0,0,0,.33,1.26,2.41,2.41,0,0,0,.48.81,7.79,7.79,0,0,0,.77.73,3.12,3.12,0,0,1,1,1.18,3.91,3.91,0,0,1,.3,1.62,3.45,3.45,0,0,1-.74,2.28,4.91,4.91,0,0,1-2.36,1.4,22.69,22.69,0,0,1-4.13.92A38.56,38.56,0,0,1,568.81,64.63Z" transform="translate(-0.59 -2.87)"/><path class="cls-1" d="M652.46,54.1a18.69,18.69,0,0,1-7.56,8.17,23.65,23.65,0,0,1-11.68,2.65q-10.68,0-16.77-5.63t-6.08-15.42a20.78,20.78,0,0,1,7-16.19q7-6.25,17.8-6.26,8.4,0,13.63,4.67A15.66,15.66,0,0,1,654,38.35a6.22,6.22,0,0,1-2.17,5.19q-2.18,1.73-6.6,1.73H630.79a2.38,2.38,0,0,0-1.44.4,1.26,1.26,0,0,0-.55,1.07c0,1.62.94,2.94,2.84,4a14,14,0,0,0,6.81,1.54,14.33,14.33,0,0,0,4.72-.77,12.21,12.21,0,0,0,4.05-2.39,9.28,9.28,0,0,1,1.7-1.18,3,3,0,0,1,1.33-.37,3.25,3.25,0,0,1,2.28.88,2.8,2.8,0,0,1,1,2.14,5.38,5.38,0,0,1-.26,1.62A16.21,16.21,0,0,1,652.46,54.1ZM627,37a2.7,2.7,0,0,0,.44,1.73,1.76,1.76,0,0,0,1.47.56H634a4.44,4.44,0,0,0,2.54-.56,2,2,0,0,0,.78-1.73,4,4,0,0,0-1.44-3.16,5.59,5.59,0,0,0-3.79-1.25,5.5,5.5,0,0,0-3.73,1.25A4,4,0,0,0,627,37Z" transform="translate(-0.59 -2.87)"/><path class="cls-1" d="M667.42,63.82a5.73,5.73,0,0,1-1.33.66,3.92,3.92,0,0,1-1.11.15,4.43,4.43,0,0,1-1.8-.41A5.61,5.61,0,0,1,661.45,63,11.71,11.71,0,0,1,659.83,61a12.75,12.75,0,0,1-1.26-2.73,15.25,15.25,0,0,1-.66-2.72,21.53,21.53,0,0,1-.22-3.24,6.15,6.15,0,0,1,1-3.75,3.24,3.24,0,0,1,2.73-1.4,4.71,4.71,0,0,1,2,.48,14.32,14.32,0,0,1,2.72,1.87c.35.3.7.62,1.07,1s.92.88,1.66,1.62a20.83,20.83,0,0,0,3.94,3.28,6.25,6.25,0,0,0,3.06.84,2.88,2.88,0,0,0,2.07-.7,2.54,2.54,0,0,0,.73-2,2.38,2.38,0,0,0-.7-1.69,8.31,8.31,0,0,0-2.47-1.55c-.49-.24-1.27-.57-2.35-1s-1.8-.7-2.14-.85l-3.83-1.54a15.5,15.5,0,0,1-6.78-4.71,10.94,10.94,0,0,1-2.29-6.92,12.24,12.24,0,0,1,4.5-10q4.49-3.69,11.71-3.68a27.72,27.72,0,0,1,3.62.22,42.17,42.17,0,0,1,4.2.81c1,.29,1.77.48,2.21.55a8,8,0,0,0,1.25.11,2.28,2.28,0,0,0,.7-.11,7.36,7.36,0,0,0,1.44-1,3.75,3.75,0,0,1,1.29-.7,4.52,4.52,0,0,1,1.36-.19,4.24,4.24,0,0,1,2.54.89,8.43,8.43,0,0,1,2.25,2.65,12.67,12.67,0,0,1,1.48,3.64,17.86,17.86,0,0,1,.51,4.23,7.54,7.54,0,0,1-.22,2,2.85,2.85,0,0,1-.74,1.32,4.63,4.63,0,0,1-1.25.92,3.25,3.25,0,0,1-1.47.34,7,7,0,0,1-1.88-.26,5.18,5.18,0,0,1-1.66-.78,11.63,11.63,0,0,1-1.25-.88q-.68-.51-1.92-1.62a25.93,25.93,0,0,0-4.57-3.46,5.91,5.91,0,0,0-2.36-.51,2.8,2.8,0,0,0-2,.73,2.43,2.43,0,0,0-.78,1.84,2,2,0,0,0,.74,1.48,8.21,8.21,0,0,0,2.43,1.32,23.84,23.84,0,0,0,2.36.88c1,.35,1.67.57,1.91.67l2.88,1q5.75,2.06,8.22,5.15a12.27,12.27,0,0,1,2.47,7.88A12.65,12.65,0,0,1,693.25,61q-4.83,4-12.49,4c-.84,0-1.67,0-2.51-.11s-1.65-.16-2.43-.26-1.8-.34-2.88-.59l-2-.44a4.5,4.5,0,0,0-1-.18,8.83,8.83,0,0,0-.89,0,3,3,0,0,0-.81.11A4.41,4.41,0,0,0,667.42,63.82Z" transform="translate(-0.59 -2.87)"/><path class="cls-1" d="M743.62,54.1a18.67,18.67,0,0,1-7.55,8.17,23.68,23.68,0,0,1-11.68,2.65q-10.7,0-16.77-5.63t-6.08-15.42a20.77,20.77,0,0,1,7-16.19q7-6.25,17.8-6.26,8.4,0,13.64,4.67a15.7,15.7,0,0,1,5.23,12.26A6.22,6.22,0,0,1,743,43.54q-2.16,1.73-6.59,1.73H722a2.35,2.35,0,0,0-1.43.4,1.27,1.27,0,0,0-.56,1.07c0,1.62.95,2.94,2.84,4a14.08,14.08,0,0,0,6.82,1.54,14.37,14.37,0,0,0,4.72-.77,12.31,12.31,0,0,0,4-2.39,9.25,9.25,0,0,1,1.69-1.18,3,3,0,0,1,1.33-.37,3.21,3.21,0,0,1,2.28.88,2.8,2.8,0,0,1,1,2.14,5.08,5.08,0,0,1-.26,1.62A16.21,16.21,0,0,1,743.62,54.1ZM718.12,37a2.76,2.76,0,0,0,.44,1.73,1.8,1.8,0,0,0,1.48.56h5.16a4.46,4.46,0,0,0,2.54-.56,2,2,0,0,0,.77-1.73,4,4,0,0,0-1.43-3.16,5.61,5.61,0,0,0-3.8-1.25,5.49,5.49,0,0,0-3.72,1.25A4,4,0,0,0,718.12,37Z" transform="translate(-0.59 -2.87)"/><path class="cls-1" d="M24,118.14q3.31-5,6.22-6.7a13.46,13.46,0,0,1,6.89-1.69,10.86,10.86,0,0,1,6.67,2,13.44,13.44,0,0,1,4.32,6.18,1.7,1.7,0,0,0,.4.7.79.79,0,0,0,.55.26.58.58,0,0,0,.34-.15,2.88,2.88,0,0,0,.47-.59q3.26-4.94,6.23-6.66a13.68,13.68,0,0,1,7-1.73,10.86,10.86,0,0,1,4.79,1,10.32,10.32,0,0,1,3.68,3,13,13,0,0,1,2,4,21.38,21.38,0,0,1,.92,5.48c.1,2.31.17,4,.22,5.23s.08,2.28.08,3.31v5.23c0,1.08,0,2,.07,2.79a23.75,23.75,0,0,0,.18,2.73,3.86,3.86,0,0,0,.26.81,3,3,0,0,0,.41.51c.22.25.52.57.92,1a7.6,7.6,0,0,1,1.47,1.84,3.91,3.91,0,0,1,.3,1.62,3.16,3.16,0,0,1-.63,2A4.35,4.35,0,0,1,76,151.63a13.34,13.34,0,0,1-3.79,1,41.39,41.39,0,0,1-5.49.3,44.54,44.54,0,0,1-6.19-.34,13.23,13.23,0,0,1-3.76-1,3.41,3.41,0,0,1-1.92-3.16,4.05,4.05,0,0,1,.41-1.84,4.14,4.14,0,0,1,1.14-1.4,2.61,2.61,0,0,0,.55-.59,5.52,5.52,0,0,0,.48-.88,6.27,6.27,0,0,0,.33-1.4c.08-.54.14-1.2.19-2,0-.59.07-1.35.07-2.28V133.3a32.5,32.5,0,0,0-.37-5.7,5.79,5.79,0,0,0-1.25-2.91,4.49,4.49,0,0,0-1.66-1.29,5.35,5.35,0,0,0-2.17-.4,4.77,4.77,0,0,0-2.18.44,2.28,2.28,0,0,0-1.14,1.25,6.39,6.39,0,0,0-.33,1.8q-.1,1.29-.11,8.36c0,.69,0,1.57,0,2.65a22.21,22.21,0,0,0,0,2.35,13.5,13.5,0,0,0,.26,1.92,6.31,6.31,0,0,0,.55,1.62,4.67,4.67,0,0,0,.44.73,6.45,6.45,0,0,0,.67.74,4.54,4.54,0,0,1,1,1.47,5.66,5.66,0,0,1,.29,2,3.45,3.45,0,0,1-.55,2,3.86,3.86,0,0,1-1.66,1.36,12.3,12.3,0,0,1-3.72,1,43.48,43.48,0,0,1-6,.34,40.43,40.43,0,0,1-5.45-.3,15.46,15.46,0,0,1-3.91-1,3.5,3.5,0,0,1-1.58-1.25,3.3,3.3,0,0,1-.55-1.91,3.83,3.83,0,0,1,.36-1.7,5.25,5.25,0,0,1,1.33-1.54,9.23,9.23,0,0,0,.63-.7,2.67,2.67,0,0,0,.4-.77,5,5,0,0,0,.33-1.18,19.61,19.61,0,0,0,.19-2.21c.05-.59.07-1.35.07-2.28V133.3a32.5,32.5,0,0,0-.37-5.7,5.79,5.79,0,0,0-1.25-2.91,4.49,4.49,0,0,0-1.66-1.29,5.35,5.35,0,0,0-2.17-.4,4.77,4.77,0,0,0-2.18.44,2.28,2.28,0,0,0-1.14,1.25,6.39,6.39,0,0,0-.33,1.8q-.11,1.29-.11,8.36v3.94c0,.71,0,1.36.07,2s.11,1.35.19,1.84a3.89,3.89,0,0,0,.33,1.18,3.19,3.19,0,0,0,.48.77,6.79,6.79,0,0,0,.85.85,3.29,3.29,0,0,1,.88,1.21,4,4,0,0,1,.3,1.58,3.3,3.3,0,0,1-.67,2.1A5.07,5.07,0,0,1,23,151.71a16.6,16.6,0,0,1-3.75.95,36.35,36.35,0,0,1-5.09.3,49.45,49.45,0,0,1-5.86-.3,18.4,18.4,0,0,1-4.09-.88,3.74,3.74,0,0,1-1.69-1.25,3.24,3.24,0,0,1-.59-2,3.66,3.66,0,0,1,.48-1.91A5.55,5.55,0,0,1,4,145c.29-.25.55-.48.77-.7a4,4,0,0,0,.56-.7,4.41,4.41,0,0,0,.44-1.33,17.24,17.24,0,0,0,.22-2c0-1.82.09-3.33.11-4.53s0-2.34,0-3.42c0-2.06,0-3.46,0-4.2a14,14,0,0,0-.18-1.91,7.06,7.06,0,0,0-.37-1.51,2.75,2.75,0,0,0-.59-.92,3.11,3.11,0,0,0-.7-.52,2.92,2.92,0,0,0-.92-.29,3.62,3.62,0,0,1-2.07-1.07,3.11,3.11,0,0,1-.66-2.1,5.67,5.67,0,0,1,1.55-3.49,17.55,17.55,0,0,1,4.2-3.57,17.25,17.25,0,0,1,4.38-2,15.92,15.92,0,0,1,4.54-.7,8.74,8.74,0,0,1,2.87.44,5.44,5.44,0,0,1,2.06,1.26,7.84,7.84,0,0,1,1.26,1.65,9.79,9.79,0,0,1,.81,2,7.31,7.31,0,0,1,.22,1.18,12.49,12.49,0,0,1,.07,1.4,1.14,1.14,0,0,0,.19.7.56.56,0,0,0,.48.26.59.59,0,0,0,.33-.15A3.22,3.22,0,0,0,24,118.14Z" transform="translate(-0.59 -2.87)"/><path class="cls-1" d="M104.8,147.66a11.72,11.72,0,0,1-4.72,4.08,14.23,14.23,0,0,1-6.48,1.51c-3.79,0-6.73-.94-8.85-2.83s-3.16-4.55-3.16-8A10.91,10.91,0,0,1,83,136.76a11.35,11.35,0,0,1,4.31-4,22.43,22.43,0,0,1,4-1.69,71.8,71.8,0,0,1,7.4-1.77c.59-.09,1-.18,1.33-.25a7,7,0,0,0,.81-.26,7.38,7.38,0,0,0,3.24-1.8,4.38,4.38,0,0,0,1-2.84v-.22A3.74,3.74,0,0,0,104,121a4.36,4.36,0,0,0-3.1-1,4.51,4.51,0,0,0-2.72.92,6.15,6.15,0,0,0-2,2.61A9.86,9.86,0,0,1,93,127.89a7.94,7.94,0,0,1-4.6,1.29,7.28,7.28,0,0,1-5.13-1.8,6.08,6.08,0,0,1-1.95-4.68q0-5.45,6.82-9a31.6,31.6,0,0,1,15-3.61q9.42,0,14.18,4t4.76,11.77v2.84c0,1,0,2.29-.08,4v5.6a9.93,9.93,0,0,0,.11,1.54,17.11,17.11,0,0,0,.48,1.84,2,2,0,0,0,.59.74,4.77,4.77,0,0,0,1.18.66,4.2,4.2,0,0,1,1.88,1.29,3.55,3.55,0,0,1,.48,2,4.57,4.57,0,0,1-.74,2.58,7.58,7.58,0,0,1-2.43,2.13,13.73,13.73,0,0,1-3.76,1.4,20.26,20.26,0,0,1-4.57.52,16.87,16.87,0,0,1-3.68-.3,7.12,7.12,0,0,1-2.58-1.25,5.67,5.67,0,0,1-1.44-1.58,7.26,7.26,0,0,1-.92-2.1,2.16,2.16,0,0,0-.3-.7.52.52,0,0,0-.44-.18.78.78,0,0,0-.51.18A2.87,2.87,0,0,0,104.8,147.66Zm-6-8.91a3.73,3.73,0,0,0,1,2.76,3.66,3.66,0,0,0,2.69,1,3.11,3.11,0,0,0,2-.62,3.78,3.78,0,0,0,1.14-1.95,7.31,7.31,0,0,0,.22-1.18,14.55,14.55,0,0,0,.08-1.62v-.44a3.48,3.48,0,0,0-.48-2.21c-.32-.34-.9-.37-1.73-.07l-.45.14a1.61,1.61,0,0,1-.33.12,1.84,1.84,0,0,0-.48.18,1.4,1.4,0,0,0-.4.15.37.37,0,0,1-.19.07,4.91,4.91,0,0,0-2.36,1.4A3.45,3.45,0,0,0,98.76,138.75Z" transform="translate(-0.59 -2.87)"/><path class="cls-1" d="M173.78,154.06q0,7.88-7.92,12.44t-22.29,4.56q-9.07,0-13.16-1.69c-2.73-1.13-4.09-2.94-4.09-5.45a5.71,5.71,0,0,1,1.7-4.15c1.12-1.16,3.29-2.45,6.48-3.87a1.2,1.2,0,0,0,.48-.29.77.77,0,0,0,.11-.44.41.41,0,0,0-.15-.34,1.42,1.42,0,0,0-.37-.18,10.64,10.64,0,0,1-4.42-2.1,4.26,4.26,0,0,1-1.4-3.27A5.67,5.67,0,0,1,130.6,145q1.83-1.72,7.29-3.86a1.47,1.47,0,0,0,.63-.37.92.92,0,0,0,.18-.59.8.8,0,0,0-.18-.52,2.7,2.7,0,0,0-.55-.44,17.61,17.61,0,0,1-7.19-5.59,13.38,13.38,0,0,1-2.32-7.88,13.93,13.93,0,0,1,5.64-11.63q5.63-4.34,14.85-4.34c.54,0,1.06,0,1.58,0s1.14.08,1.88.18a8.22,8.22,0,0,1,1,0,5.83,5.83,0,0,0,.59,0,1.4,1.4,0,0,0,1.36-.59,5.53,5.53,0,0,0,.34-2.42,5.14,5.14,0,0,1,2-4.13,7.63,7.63,0,0,1,5-1.62,11.74,11.74,0,0,1,7.07,2,6.11,6.11,0,0,1,2.73,5.15,4,4,0,0,1-1.25,3,4.43,4.43,0,0,1-3.17,1.18H165.9a1.62,1.62,0,0,0-1,.26.92.92,0,0,0-.33.77,1.7,1.7,0,0,0,.41.92,24.9,24.9,0,0,0,2,2.17,12.5,12.5,0,0,1,2.69,4.05A14.15,14.15,0,0,1,164.83,137Q159.12,141,148.65,141a7.3,7.3,0,0,0-2.73.37,1.23,1.23,0,0,0-.81,1.18,1.21,1.21,0,0,0,.85,1.21,10.64,10.64,0,0,0,3.28.33h9.43q7.38,0,11.24,2.58A8.32,8.32,0,0,1,173.78,154.06Zm-29.85,4.05c0,.78.59,1.36,1.77,1.73a20.07,20.07,0,0,0,5.53.55,19.21,19.21,0,0,0,5.53-.66c1.42-.44,2.14-1,2.14-1.62s-.39-1.09-1.15-1.36a12.45,12.45,0,0,0-3.79-.41H147a4.5,4.5,0,0,0-2.28.48A1.44,1.44,0,0,0,143.93,158.11Zm.74-35a9,9,0,0,0,1.92,5.55c1.27,1.7,2.67,2.54,4.2,2.54a4.15,4.15,0,0,0,2.84-.88,3.17,3.17,0,0,0,1-2.5,9.17,9.17,0,0,0-2-5.67,5.57,5.57,0,0,0-4.46-2.58,3.47,3.47,0,0,0-2.62,1A3.59,3.59,0,0,0,144.67,123.15Z" transform="translate(-0.59 -2.87)"/><path class="cls-1" d="M188.67,153a47.61,47.61,0,0,1-5.79-.3,18.37,18.37,0,0,1-4-.88,3.77,3.77,0,0,1-1.7-1.25,3.3,3.3,0,0,1-.59-2,3.66,3.66,0,0,1,.48-1.91,5.73,5.73,0,0,1,1.59-1.62c.29-.25.55-.48.77-.7a3.52,3.52,0,0,0,.55-.7,4.14,4.14,0,0,0,.45-1.33,19.82,19.82,0,0,0,.22-2c0-1.82.08-3.33.11-4.53s0-2.34,0-3.42c0-1.38,0-2.54,0-3.5s-.09-1.83-.19-2.61a4.18,4.18,0,0,0-.29-1.25,5.67,5.67,0,0,0-.59-1,3,3,0,0,0-.74-.67,2.59,2.59,0,0,0-1-.29,3.59,3.59,0,0,1-2.06-1.07,3.11,3.11,0,0,1-.66-2.1,5.53,5.53,0,0,1,1.36-3.31,15.06,15.06,0,0,1,3.72-3.31,19.91,19.91,0,0,1,4.72-2.32,15.27,15.27,0,0,1,4.86-.85,10.46,10.46,0,0,1,3.5.52,5,5,0,0,1,2.32,1.62,7.17,7.17,0,0,1,1.63,3.2,20.28,20.28,0,0,1,.51,4.89q0,2.81,0,5.52t-.12,6.48c0,.89-.07,1.49-.07,1.81v4c0,.67,0,1.24.07,1.73.05,1.18.12,2,.19,2.47a2.94,2.94,0,0,0,.33,1.07,2.55,2.55,0,0,0,.41.51c.22.25.52.57.92,1a6.51,6.51,0,0,1,1.43,1.73,4,4,0,0,1,.34,1.73,3.34,3.34,0,0,1-.63,2,4.39,4.39,0,0,1-1.73,1.4,13.76,13.76,0,0,1-4,.95A54.7,54.7,0,0,1,188.67,153ZM198,97.75q0,4.2-4.46,7.32a17.09,17.09,0,0,1-10.06,3.13,8.14,8.14,0,0,1-5.49-1.73,5.71,5.71,0,0,1-2-4.6c0-2.75,1.48-5.2,4.46-7.36A16.46,16.46,0,0,1,190,91.2q4,0,6,1.66A6,6,0,0,1,198,97.75Z" transform="translate(-0.59 -2.87)"/><path class="cls-1" d="M245.49,142.65a19.54,19.54,0,0,1-8,7.91,25.29,25.29,0,0,1-12,2.69q-9.57,0-15.55-5.92t-6-15.35q0-9.94,6-16.09t15.44-6.14a27.84,27.84,0,0,1,3.28.18,31.08,31.08,0,0,1,4.31,1,11.8,11.8,0,0,0,1.26.33,6.62,6.62,0,0,0,1.17.11,3.32,3.32,0,0,0,1-.15,5,5,0,0,0,1.22-.66,6,6,0,0,1,1.47-.77,3.94,3.94,0,0,1,1.25-.19,3.46,3.46,0,0,1,2,.66,7.47,7.47,0,0,1,1.84,2,14.52,14.52,0,0,1,1.37,2.65,19,19,0,0,1,1,3.39c.25,1.13.45,2.28.59,3.46a27.25,27.25,0,0,1,.22,3.46,6.7,6.7,0,0,1-.4,2.39,5.31,5.31,0,0,1-1.22,1.88,5,5,0,0,1-1.8,1.14,6.75,6.75,0,0,1-2.4.4,5.27,5.27,0,0,1-2.65-.77A21.31,21.31,0,0,1,235,126.9a22.92,22.92,0,0,0-4.83-4.05,8,8,0,0,0-3.8-1,5.27,5.27,0,0,0-3.94,1.55,5.62,5.62,0,0,0-1.51,4.12,11.05,11.05,0,0,0,3.72,8.25,12.65,12.65,0,0,0,9,3.53,13.43,13.43,0,0,0,3.83-.52,9,9,0,0,0,3-1.47,11,11,0,0,1,1.74-1.1,2.77,2.77,0,0,1,1.21-.3,3.26,3.26,0,0,1,2.29.89,2.8,2.8,0,0,1,1,2.13,5.75,5.75,0,0,1-.29,1.66A10.07,10.07,0,0,1,245.49,142.65Z" transform="translate(-0.59 -2.87)"/><path class="cls-1" d="M274.53,147.66a11.72,11.72,0,0,1-4.72,4.08,14.23,14.23,0,0,1-6.48,1.51q-5.68,0-8.85-2.83t-3.17-8a10.91,10.91,0,0,1,1.44-5.67,11.35,11.35,0,0,1,4.31-4A22.64,22.64,0,0,1,261,131a72.83,72.83,0,0,1,7.41-1.77c.59-.09,1-.18,1.33-.25a7.71,7.71,0,0,0,.81-.26,7.38,7.38,0,0,0,3.24-1.8,4.38,4.38,0,0,0,1-2.84v-.22a3.77,3.77,0,0,0-1.1-2.87,4.36,4.36,0,0,0-3.1-1,4.56,4.56,0,0,0-2.73.92,6.21,6.21,0,0,0-2,2.61,9.86,9.86,0,0,1-3.21,4.38,8,8,0,0,1-4.61,1.29,7.26,7.26,0,0,1-5.12-1.8A6.08,6.08,0,0,1,251,122.7q0-5.45,6.82-9a31.59,31.59,0,0,1,15-3.61q9.44,0,14.19,4t4.75,11.77v2.84c0,1,0,2.29-.07,4v5.6a9.93,9.93,0,0,0,.11,1.54,13.36,13.36,0,0,0,.48,1.84,1.92,1.92,0,0,0,.59.74,4.59,4.59,0,0,0,1.18.66,4.2,4.2,0,0,1,1.88,1.29,3.55,3.55,0,0,1,.48,2,4.57,4.57,0,0,1-.74,2.58,7.58,7.58,0,0,1-2.43,2.13,13.86,13.86,0,0,1-3.76,1.4,20.33,20.33,0,0,1-4.57.52,17,17,0,0,1-3.69-.3,7.16,7.16,0,0,1-2.57-1.25,5.52,5.52,0,0,1-1.44-1.58,7.26,7.26,0,0,1-.92-2.1,2.16,2.16,0,0,0-.3-.7.53.53,0,0,0-.44-.18.8.8,0,0,0-.52.18A2.88,2.88,0,0,0,274.53,147.66Zm-6-8.91a3.74,3.74,0,0,0,1,2.76,3.64,3.64,0,0,0,2.69,1,3.11,3.11,0,0,0,2-.62,3.78,3.78,0,0,0,1.14-1.95,7.31,7.31,0,0,0,.22-1.18,14.85,14.85,0,0,0,.07-1.62v-.44a3.48,3.48,0,0,0-.48-2.21c-.32-.34-.89-.37-1.73-.07l-.44.14a1.61,1.61,0,0,1-.33.12,1.84,1.84,0,0,0-.48.18,1.49,1.49,0,0,0-.41.15.32.32,0,0,1-.18.07,4.91,4.91,0,0,0-2.36,1.4A3.45,3.45,0,0,0,268.48,138.75Z" transform="translate(-0.59 -2.87)"/><path class="cls-1" d="M311.52,153c-2.06,0-3.71-.05-4.93-.15a28.53,28.53,0,0,1-3.61-.52A5.59,5.59,0,0,1,300.1,151a3.09,3.09,0,0,1-1-2.32,3.8,3.8,0,0,1,.45-1.95,5.1,5.1,0,0,1,1.62-1.59,9.65,9.65,0,0,0,.88-.73,2.26,2.26,0,0,0,.44-.59,4.14,4.14,0,0,0,.45-1.33,19.82,19.82,0,0,0,.22-2c.05-1.38.08-3.57.11-6.59s0-6.2,0-9.53q0-6.48,0-10.49c0-2.68-.06-4.38-.11-5.12a9.72,9.72,0,0,0-.37-2.43,3.13,3.13,0,0,0-.89-1.4,3.66,3.66,0,0,0-.73-.55,4.1,4.1,0,0,0-1.11-.4,4.35,4.35,0,0,1-2.43-1.22,3.4,3.4,0,0,1-.74-2.32,4.1,4.1,0,0,1,1.14-2.65,11,11,0,0,1,3.28-2.42,26.23,26.23,0,0,1,11.28-2.73,10.77,10.77,0,0,1,3,.37,6.09,6.09,0,0,1,2.24,1.18,7.06,7.06,0,0,1,2,3.31,18.43,18.43,0,0,1,.67,5.45c0,1.72,0,3.46,0,5.22s-.06,4.22-.11,7.36q0,4.43,0,6.78t0,4.56v10.27c0,1.45,0,2.41.07,2.91.05.88.11,1.61.18,2.2a4.43,4.43,0,0,0,.34,1.33,2.84,2.84,0,0,0,.55.77,8.56,8.56,0,0,0,.92.77,4.63,4.63,0,0,1,1.29,1.4,4,4,0,0,1,.4,1.92,3.21,3.21,0,0,1-1,2.35,5.47,5.47,0,0,1-2.87,1.4,29.12,29.12,0,0,1-3.8.59Q314.55,153,311.52,153Z" transform="translate(-0.59 -2.87)"/><path class="cls-1" d="M357.14,153c-2.06,0-3.71-.05-4.93-.15a28.27,28.27,0,0,1-3.61-.52,5.59,5.59,0,0,1-2.88-1.28,3.09,3.09,0,0,1-1-2.32,3.8,3.8,0,0,1,.45-1.95,5.1,5.1,0,0,1,1.62-1.59,9.65,9.65,0,0,0,.88-.73,2.26,2.26,0,0,0,.44-.59,4.14,4.14,0,0,0,.45-1.33,19.82,19.82,0,0,0,.22-2c0-1.38.08-3.57.11-6.59s0-6.2,0-9.53q0-6.48,0-10.49c0-2.68-.07-4.38-.11-5.12a9.72,9.72,0,0,0-.37-2.43,3.13,3.13,0,0,0-.89-1.4,3.66,3.66,0,0,0-.73-.55,4.1,4.1,0,0,0-1.11-.4,4.35,4.35,0,0,1-2.43-1.22,3.4,3.4,0,0,1-.74-2.32,4.1,4.1,0,0,1,1.14-2.65A11,11,0,0,1,347,95.4a26.23,26.23,0,0,1,11.28-2.73,10.7,10.7,0,0,1,3,.37,6.06,6.06,0,0,1,2.25,1.18,7.06,7.06,0,0,1,2,3.31,18.77,18.77,0,0,1,.67,5.45c0,1.72,0,3.46,0,5.22s-.06,4.22-.11,7.36q0,4.43,0,6.78c0,1.57,0,3.09,0,4.56v10.27c0,1.45,0,2.41.08,2.91.05.88.11,1.61.18,2.2a4.81,4.81,0,0,0,.33,1.33,3.11,3.11,0,0,0,.56.77,7.67,7.67,0,0,0,.92.77,4.63,4.63,0,0,1,1.29,1.4,4,4,0,0,1,.4,1.92,3.21,3.21,0,0,1-1,2.35,5.51,5.51,0,0,1-2.87,1.4,29.12,29.12,0,0,1-3.8.59Q360.17,153,357.14,153Z" transform="translate(-0.59 -2.87)"/><path class="cls-1" d="M385.08,153a47.61,47.61,0,0,1-5.79-.3,18.24,18.24,0,0,1-4-.88,3.77,3.77,0,0,1-1.7-1.25,3.3,3.3,0,0,1-.59-2,3.66,3.66,0,0,1,.48-1.91,5.82,5.82,0,0,1,1.58-1.62c.3-.25.56-.48.78-.7a3.93,3.93,0,0,0,.55-.7,4.15,4.15,0,0,0,.44-1.33,17.24,17.24,0,0,0,.22-2c0-1.82.09-3.33.11-4.53s0-2.34,0-3.42c0-1.38,0-2.54,0-3.5a24.7,24.7,0,0,0-.18-2.61,4.51,4.51,0,0,0-.29-1.25,5.67,5.67,0,0,0-.59-1,3.18,3.18,0,0,0-.74-.67,2.65,2.65,0,0,0-1-.29,3.59,3.59,0,0,1-2.06-1.07,3.11,3.11,0,0,1-.67-2.1,5.55,5.55,0,0,1,1.37-3.31,15.06,15.06,0,0,1,3.72-3.31,19.91,19.91,0,0,1,4.72-2.32,15.27,15.27,0,0,1,4.86-.85,10.5,10.5,0,0,1,3.5.52,5,5,0,0,1,2.32,1.62,7.06,7.06,0,0,1,1.62,3.2,19.75,19.75,0,0,1,.52,4.89c0,1.87,0,3.71,0,5.52s-.06,4-.11,6.48c-.05.89-.07,1.49-.07,1.81v4c0,.67,0,1.24.07,1.73a23.16,23.16,0,0,0,.19,2.47,2.94,2.94,0,0,0,.33,1.07,2.78,2.78,0,0,0,.4.51c.22.25.53.57.92,1a6.39,6.39,0,0,1,1.44,1.73,4,4,0,0,1,.33,1.73,3.4,3.4,0,0,1-.62,2,4.36,4.36,0,0,1-1.74,1.4,13.6,13.6,0,0,1-3.94.95A54.7,54.7,0,0,1,385.08,153Zm9.28-55.21c0,2.8-1.48,5.24-4.46,7.32a17,17,0,0,1-10,3.13,8.17,8.17,0,0,1-5.5-1.73,5.73,5.73,0,0,1-2-4.6c0-2.75,1.48-5.2,4.46-7.36a16.43,16.43,0,0,1,9.61-3.31q4,0,6,1.66A6,6,0,0,1,394.36,97.75Z" transform="translate(-0.59 -2.87)"/><path class="cls-1" d="M431.8,146a19.29,19.29,0,0,1-6.52,5.16,18.68,18.68,0,0,1-8.22,1.84q-6.4,0-9.43-3.72t-3-11.59c0-1.08,0-2.18,0-3.28s.06-2.61.11-4.53c.05-1.32.08-2.28.08-2.87v-1.62a1.61,1.61,0,0,0-.33-1.1,1.7,1.7,0,0,0-1.15-.44l-.81-.08a6.4,6.4,0,0,1-1-.14,3.81,3.81,0,0,1-2.47-1.66,7.27,7.27,0,0,1-.63-3.42,13.64,13.64,0,0,1,.4-3.68,5.25,5.25,0,0,1,1.29-2.28,3.57,3.57,0,0,1,1.29-.85,5.15,5.15,0,0,1,1.74-.26h.88a1.48,1.48,0,0,0,1.14-.44,1.68,1.68,0,0,0,.41-1.18v-2.43A6.33,6.33,0,0,1,406,105a5.35,5.35,0,0,1,1.37-1.88,12.56,12.56,0,0,1,1.8-1.28c.76-.47,2-1.12,3.65-2,1.08-.53,1.9-.93,2.47-1.17s1.07-.44,1.51-.59.69-.19,1-.26a4.66,4.66,0,0,1,.89-.11,2.53,2.53,0,0,1,1.73.55,2,2,0,0,1,.63,1.58v9.43a1.87,1.87,0,0,0,.4,1.36,1.66,1.66,0,0,0,1.22.4h7.07a2.61,2.61,0,0,1,2.58,1.7,8.4,8.4,0,0,1,.15,4.78,11.89,11.89,0,0,1-1.73,4.6,3.28,3.28,0,0,1-2.69,1.58H423.4a2.48,2.48,0,0,0-1.73.52,2.33,2.33,0,0,0-.55,1.77v3.23c0,1.33,0,2.58.11,3.76s.16,2.26.25,3.24a10.19,10.19,0,0,0,1.07,3.86,2.36,2.36,0,0,0,2.1,1.07,4.46,4.46,0,0,0,1.51-.22,5.66,5.66,0,0,0,1.37-.74,8,8,0,0,1,1.58-1A2.66,2.66,0,0,1,430,139a3.26,3.26,0,0,1,2.29.89,2.79,2.79,0,0,1,1,2.13,6.06,6.06,0,0,1-.37,2A6.24,6.24,0,0,1,431.8,146Z" transform="translate(-0.59 -2.87)"/><path class="cls-1" d="M468.72,146a19.19,19.19,0,0,1-6.52,5.16A18.68,18.68,0,0,1,454,153q-6.41,0-9.43-3.72t-3-11.59c0-1.08,0-2.18,0-3.28s.06-2.61.11-4.53c.05-1.32.07-2.28.07-2.87v-1.62a1.61,1.61,0,0,0-.33-1.1,1.68,1.68,0,0,0-1.14-.44l-.81-.08a6.37,6.37,0,0,1-1-.14,3.83,3.83,0,0,1-2.47-1.66,7.27,7.27,0,0,1-.63-3.42,13.59,13.59,0,0,1,.41-3.68,5.15,5.15,0,0,1,1.29-2.28,3.41,3.41,0,0,1,1.29-.85,5,5,0,0,1,1.73-.26H441a1.51,1.51,0,0,0,1.15-.44,1.67,1.67,0,0,0,.4-1.18v-2.43A6.32,6.32,0,0,1,443,105a5.32,5.32,0,0,1,1.36-1.88,12.17,12.17,0,0,1,1.81-1.28c.76-.47,2-1.12,3.64-2,1.08-.53,1.91-.93,2.47-1.17s1.07-.44,1.51-.59.69-.19,1-.26a4.48,4.48,0,0,1,.88-.11,2.51,2.51,0,0,1,1.73.55,2,2,0,0,1,.63,1.58v9.43a1.87,1.87,0,0,0,.4,1.36,1.66,1.66,0,0,0,1.22.4h7.07a2.61,2.61,0,0,1,2.58,1.7,8.31,8.31,0,0,1,.15,4.78,11.74,11.74,0,0,1-1.73,4.6,3.27,3.27,0,0,1-2.69,1.58h-4.72a2.5,2.5,0,0,0-1.73.52A2.33,2.33,0,0,0,458,126v3.23c0,1.33,0,2.58.11,3.76s.16,2.26.26,3.24a9.83,9.83,0,0,0,1.07,3.86,2.33,2.33,0,0,0,2.1,1.07,4.5,4.5,0,0,0,1.51-.22,5.8,5.8,0,0,0,1.36-.74,8.27,8.27,0,0,1,1.58-1A2.66,2.66,0,0,1,467,139a3.25,3.25,0,0,1,2.28.89,2.79,2.79,0,0,1,1,2.13,5.81,5.81,0,0,1-.37,2A6,6,0,0,1,468.72,146Z" transform="translate(-0.59 -2.87)"/><path class="cls-1" d="M483.91,153c-2.07,0-3.71-.05-4.94-.15a28.53,28.53,0,0,1-3.61-.52,5.59,5.59,0,0,1-2.88-1.28,3.08,3.08,0,0,1-1-2.32,3.8,3.8,0,0,1,.44-1.95,5.1,5.1,0,0,1,1.62-1.59,8.43,8.43,0,0,0,.88-.73,2.31,2.31,0,0,0,.45-.59,4.41,4.41,0,0,0,.44-1.33,17.24,17.24,0,0,0,.22-2c.05-1.38.08-3.57.11-6.59s0-6.2,0-9.53c0-4.32,0-7.82,0-10.49s-.06-4.38-.11-5.12a9.28,9.28,0,0,0-.37-2.43,3.21,3.21,0,0,0-.88-1.4,4.07,4.07,0,0,0-.74-.55,4,4,0,0,0-1.11-.4,4.35,4.35,0,0,1-2.43-1.22,3.4,3.4,0,0,1-.74-2.32,4.07,4.07,0,0,1,1.15-2.65,10.71,10.71,0,0,1,3.28-2.42A26.14,26.14,0,0,1,485,92.67a10.77,10.77,0,0,1,3,.37,6.06,6.06,0,0,1,2.25,1.18,7.13,7.13,0,0,1,2,3.31,18.43,18.43,0,0,1,.67,5.45c0,1.72,0,3.46,0,5.22s-.06,4.22-.11,7.36q0,4.43,0,6.78t0,4.56v10.27c0,1.45,0,2.41.07,2.91.05.88.11,1.61.18,2.2a4.43,4.43,0,0,0,.34,1.33,2.84,2.84,0,0,0,.55.77,8.56,8.56,0,0,0,.92.77,4.63,4.63,0,0,1,1.29,1.4,4,4,0,0,1,.41,1.92,3.22,3.22,0,0,1-1,2.35,5.43,5.43,0,0,1-2.87,1.4,29.12,29.12,0,0,1-3.8.59C487.53,152.91,485.92,153,483.91,153Z" transform="translate(-0.59 -2.87)"/><path class="cls-1" d="M541.17,142.43a18.73,18.73,0,0,1-7.55,8.17,23.68,23.68,0,0,1-11.68,2.65q-10.7,0-16.77-5.63t-6.08-15.42a20.79,20.79,0,0,1,7-16.2q7-6.25,17.8-6.25,8.4,0,13.64,4.67a15.68,15.68,0,0,1,5.23,12.26,6.25,6.25,0,0,1-2.17,5.19q-2.17,1.73-6.6,1.73H519.5a2.37,2.37,0,0,0-1.43.4,1.27,1.27,0,0,0-.56,1.07q0,2.43,2.84,4a14,14,0,0,0,6.82,1.55,14.37,14.37,0,0,0,4.72-.77,12.34,12.34,0,0,0,4.05-2.4,9.13,9.13,0,0,1,1.69-1.17,3,3,0,0,1,1.33-.37,3.25,3.25,0,0,1,2.29.88,2.83,2.83,0,0,1,1,2.14,5.36,5.36,0,0,1-.25,1.62A19.42,19.42,0,0,1,541.17,142.43Zm-25.5-17.08a2.78,2.78,0,0,0,.44,1.73,1.8,1.8,0,0,0,1.48.56h5.16a4.46,4.46,0,0,0,2.54-.56,2,2,0,0,0,.77-1.73,4,4,0,0,0-1.43-3.16,5.56,5.56,0,0,0-3.8-1.25,5.44,5.44,0,0,0-3.72,1.25A4,4,0,0,0,515.67,125.35Z" transform="translate(-0.59 -2.87)"/><path class="cls-1" d="M594.9,146a19.29,19.29,0,0,1-6.52,5.16,18.71,18.71,0,0,1-8.22,1.84q-6.42,0-9.44-3.72t-3-11.59c0-1.08,0-2.18,0-3.28s.06-2.61.11-4.53c0-1.32.07-2.28.07-2.87v-1.62a1.61,1.61,0,0,0-.33-1.1,1.68,1.68,0,0,0-1.14-.44l-.81-.08a6.82,6.82,0,0,1-1-.14,3.83,3.83,0,0,1-2.47-1.66,7.29,7.29,0,0,1-.62-3.42,13.64,13.64,0,0,1,.4-3.68,5.15,5.15,0,0,1,1.29-2.28,3.41,3.41,0,0,1,1.29-.85,5.08,5.08,0,0,1,1.73-.26h.89a1.48,1.48,0,0,0,1.14-.44,1.67,1.67,0,0,0,.4-1.18v-2.43a6.32,6.32,0,0,1,.41-2.39,5.32,5.32,0,0,1,1.36-1.88,13.34,13.34,0,0,1,1.81-1.28c.76-.47,2-1.12,3.65-2,1.08-.53,1.9-.93,2.47-1.17s1.06-.44,1.51-.59.68-.19,1-.26a4.57,4.57,0,0,1,.88-.11,2.54,2.54,0,0,1,1.74.55,2,2,0,0,1,.62,1.58v9.43a1.87,1.87,0,0,0,.41,1.36,1.64,1.64,0,0,0,1.21.4h7.08a2.61,2.61,0,0,1,2.58,1.7,8.4,8.4,0,0,1,.15,4.78,11.89,11.89,0,0,1-1.74,4.6,3.27,3.27,0,0,1-2.69,1.58H586.5a2.51,2.51,0,0,0-1.74.52,2.37,2.37,0,0,0-.55,1.77v3.23c0,1.33,0,2.58.11,3.76s.16,2.26.26,3.24a10,10,0,0,0,1.07,3.86,2.33,2.33,0,0,0,2.1,1.07,4.5,4.5,0,0,0,1.51-.22,5.61,5.61,0,0,0,1.36-.74,8.25,8.25,0,0,1,1.59-1,2.61,2.61,0,0,1,.92-.19,3.25,3.25,0,0,1,2.28.89,2.79,2.79,0,0,1,1,2.13,5.81,5.81,0,0,1-.37,2A6,6,0,0,1,594.9,146Z" transform="translate(-0.59 -2.87)"/><path class="cls-1" d="M609.86,153a49.33,49.33,0,0,1-5.86-.3,18.4,18.4,0,0,1-4.09-.88,3.83,3.83,0,0,1-1.7-1.25,3.3,3.3,0,0,1-.59-2,3.66,3.66,0,0,1,.48-1.91,5.73,5.73,0,0,1,1.59-1.62c.29-.25.55-.48.77-.7a3.52,3.52,0,0,0,.55-.7,4.14,4.14,0,0,0,.45-1.33,17.24,17.24,0,0,0,.22-2q.08-1.77.15-5.93c0-2.77.07-6.1.07-10q0-6.48,0-10.49c0-2.68-.06-4.38-.11-5.12a11.91,11.91,0,0,0-.26-2.1,3.49,3.49,0,0,0-.55-1.28,2.25,2.25,0,0,0-.88-.85,6,6,0,0,0-1.4-.55,5,5,0,0,1-2.44-1.25,3.28,3.28,0,0,1-.73-2.29,4.39,4.39,0,0,1,1.66-3.16,15.85,15.85,0,0,1,4.6-2.8,20.84,20.84,0,0,1,2.14-.77,21.06,21.06,0,0,1,2.28-.55c.74-.15,1.51-.27,2.33-.37a20.06,20.06,0,0,1,2.46-.15q4.14,0,6,2.32t1.85,7.62V107c0,1.5,0,3.47-.08,5.92v4.86a1.75,1.75,0,0,0,.11.77.37.37,0,0,0,.33.19.58.58,0,0,0,.34-.15A2.89,2.89,0,0,0,620,118a17.46,17.46,0,0,1,5.74-6.25,14.24,14.24,0,0,1,7.6-2q5.6,0,8.54,3.31t3.32,10.23c.1,1.57.16,3.06.19,4.46s0,2.76,0,4.08-.08,2.9-.08,4.27,0,2.63.08,3.75a23.75,23.75,0,0,0,.18,2.73,3.86,3.86,0,0,0,.26.81,2.55,2.55,0,0,0,.41.51c.22.25.52.57.92,1a6.51,6.51,0,0,1,1.43,1.73,4,4,0,0,1,.34,1.73,3.34,3.34,0,0,1-.63,2,4.39,4.39,0,0,1-1.73,1.4,13.82,13.82,0,0,1-4,.95,55.82,55.82,0,0,1-6.41.3,46.34,46.34,0,0,1-5.5-.26,14.48,14.48,0,0,1-3.5-.85,4.3,4.3,0,0,1-1.8-1.36,3.16,3.16,0,0,1-.63-2,4.52,4.52,0,0,1,.33-1.8,4.31,4.31,0,0,1,1.15-1.51,7,7,0,0,0,.77-.77,5.63,5.63,0,0,0,.55-.78,4.07,4.07,0,0,0,.45-1.32,19.72,19.72,0,0,0,.22-2c0-.59.07-1.35.07-2.28V133.3a29,29,0,0,0-.44-5.59,7.16,7.16,0,0,0-1.33-3.17,4.57,4.57,0,0,0-1.66-1.28,5.14,5.14,0,0,0-2.1-.41,5.5,5.5,0,0,0-2.28.41,2.42,2.42,0,0,0-1.26,1.28,7.34,7.34,0,0,0-.33,1.84q-.1,1.34-.11,8.47v3.94c0,.71,0,1.36.08,2s.11,1.27.18,1.76a4.9,4.9,0,0,0,.33,1.26,2.41,2.41,0,0,0,.48.81,7,7,0,0,0,.78.73,3.09,3.09,0,0,1,1,1.18,3.91,3.91,0,0,1,.3,1.62,3.45,3.45,0,0,1-.74,2.28,4.91,4.91,0,0,1-2.36,1.4,22.59,22.59,0,0,1-4.12.92A38.85,38.85,0,0,1,609.86,153Z" transform="translate(-0.59 -2.87)"/><path class="cls-1" d="M664.4,153a47.61,47.61,0,0,1-5.79-.3,18.24,18.24,0,0,1-4-.88,3.77,3.77,0,0,1-1.7-1.25,3.3,3.3,0,0,1-.59-2,3.66,3.66,0,0,1,.48-1.91,5.82,5.82,0,0,1,1.58-1.62c.3-.25.56-.48.78-.7a3.93,3.93,0,0,0,.55-.7,4.15,4.15,0,0,0,.44-1.33,17.24,17.24,0,0,0,.22-2c0-1.82.09-3.33.11-4.53s0-2.34,0-3.42c0-1.38,0-2.54,0-3.5a24.7,24.7,0,0,0-.18-2.61A4.51,4.51,0,0,0,656,125a5.67,5.67,0,0,0-.59-1,3.18,3.18,0,0,0-.74-.67,2.65,2.65,0,0,0-1-.29,3.59,3.59,0,0,1-2.06-1.07,3.06,3.06,0,0,1-.67-2.1,5.55,5.55,0,0,1,1.37-3.31,15.06,15.06,0,0,1,3.72-3.31,19.72,19.72,0,0,1,4.72-2.32,15.27,15.27,0,0,1,4.86-.85,10.54,10.54,0,0,1,3.5.52,5,5,0,0,1,2.32,1.62,7.06,7.06,0,0,1,1.62,3.2,19.75,19.75,0,0,1,.52,4.89c0,1.87,0,3.71,0,5.52s-.06,4-.11,6.48c-.05.89-.07,1.49-.07,1.81v4c0,.67,0,1.24.07,1.73a23.16,23.16,0,0,0,.19,2.47,2.94,2.94,0,0,0,.33,1.07,2.78,2.78,0,0,0,.4.51c.22.25.53.57.92,1a6.39,6.39,0,0,1,1.44,1.73,4,4,0,0,1,.33,1.73,3.4,3.4,0,0,1-.62,2,4.36,4.36,0,0,1-1.74,1.4,13.6,13.6,0,0,1-3.94.95A54.7,54.7,0,0,1,664.4,153Zm9.28-55.21c0,2.8-1.48,5.24-4.46,7.32a17,17,0,0,1-10.06,3.13,8.14,8.14,0,0,1-5.49-1.73,5.73,5.73,0,0,1-2-4.6c0-2.75,1.48-5.2,4.46-7.36a16.43,16.43,0,0,1,9.61-3.31q4,0,6,1.66A6,6,0,0,1,673.68,97.75Z" transform="translate(-0.59 -2.87)"/><path class="cls-1" d="M692.33,153a45.1,45.1,0,0,1-5.6-.3,18.2,18.2,0,0,1-4-.88,3.77,3.77,0,0,1-1.7-1.25,3.3,3.3,0,0,1-.59-2,3.66,3.66,0,0,1,.48-1.91,5.73,5.73,0,0,1,1.59-1.62c.29-.25.55-.48.77-.7a3.52,3.52,0,0,0,.55-.7,4.14,4.14,0,0,0,.45-1.33,19.82,19.82,0,0,0,.22-2c0-1.82.08-3.33.11-4.53s0-2.34,0-3.42q0-3.09,0-4.2a13.83,13.83,0,0,0-.19-1.91,7.06,7.06,0,0,0-.37-1.51,2.47,2.47,0,0,0-.59-.92,2.9,2.9,0,0,0-.7-.52,2.84,2.84,0,0,0-.92-.29,3.59,3.59,0,0,1-2.06-1.07,3.11,3.11,0,0,1-.66-2.1,5.65,5.65,0,0,1,1.54-3.49,18,18,0,0,1,4.2-3.57,17.31,17.31,0,0,1,4.39-2,15.91,15.91,0,0,1,4.53-.7,9.65,9.65,0,0,1,3,.44,5.4,5.4,0,0,1,2.14,1.26,7.47,7.47,0,0,1,1.25,1.65,8.73,8.73,0,0,1,.81,2,7.26,7.26,0,0,1,.23,1.18c0,.44.07.91.07,1.4a1.21,1.21,0,0,0,.18.7.59.59,0,0,0,.48.26.54.54,0,0,0,.33-.15,2.56,2.56,0,0,0,.48-.59q3.18-4.78,6.23-6.59a13.76,13.76,0,0,1,7.11-1.8q5.68,0,8.66,3.35t3.28,10.12c.1,1.57.16,3.09.19,4.56s0,2.87,0,4.2-.07,2.87-.07,4.19,0,2.56.07,3.68a23.75,23.75,0,0,0,.18,2.73,3.86,3.86,0,0,0,.26.81,3,3,0,0,0,.41.51c.22.25.52.57.92,1a7.6,7.6,0,0,1,1.47,1.84,3.91,3.91,0,0,1,.3,1.62,3.34,3.34,0,0,1-.63,2,4.32,4.32,0,0,1-1.73,1.4,13.48,13.48,0,0,1-3.87.95,50.5,50.5,0,0,1-6.08.3,56.11,56.11,0,0,1-6.41-.26,10,10,0,0,1-3.39-1,4.09,4.09,0,0,1-1.51-1.37,3.34,3.34,0,0,1-.56-1.87,4.43,4.43,0,0,1,.34-1.81,3.84,3.84,0,0,1,1.14-1.43,7,7,0,0,0,.77-.77,5.63,5.63,0,0,0,.55-.78,4.07,4.07,0,0,0,.45-1.32,19.72,19.72,0,0,0,.22-2c.05-.59.07-1.35.07-2.28V133.3a29,29,0,0,0-.44-5.59,7.16,7.16,0,0,0-1.33-3.17,4.57,4.57,0,0,0-1.66-1.28,5.14,5.14,0,0,0-2.1-.41,5.35,5.35,0,0,0-2.35.44,2.24,2.24,0,0,0-1.18,1.25,6.81,6.81,0,0,0-.34,1.84q-.11,1.34-.11,8.47v3.94c0,.71,0,1.36.08,2,0,.83.11,1.47.18,1.91a5.42,5.42,0,0,0,.26,1,2.23,2.23,0,0,0,.48.81,7.84,7.84,0,0,0,.77.74,3.18,3.18,0,0,1,1,1.25,4.11,4.11,0,0,1,.33,1.69,3.38,3.38,0,0,1-.63,2.14,4.34,4.34,0,0,1-2,1.32,24.87,24.87,0,0,1-4.32,1A37.23,37.23,0,0,1,692.33,153Z" transform="translate(-0.59 -2.87)"/><path class="cls-1" d="M780,154.06q0,7.88-7.92,12.44t-22.3,4.56q-9.06,0-13.15-1.69c-2.73-1.13-4.09-2.94-4.09-5.45a5.7,5.7,0,0,1,1.69-4.15q1.69-1.74,6.49-3.87a1.38,1.38,0,0,0,.48-.29.77.77,0,0,0,.11-.44.41.41,0,0,0-.15-.34,1.42,1.42,0,0,0-.37-.18,10.58,10.58,0,0,1-4.42-2.1,4.26,4.26,0,0,1-1.4-3.27,5.66,5.66,0,0,1,1.84-4.31q1.85-1.72,7.3-3.86a1.43,1.43,0,0,0,.62-.37.87.87,0,0,0,.19-.59.76.76,0,0,0-.19-.52,2.24,2.24,0,0,0-.55-.44A17.57,17.57,0,0,1,737,133.6a13.38,13.38,0,0,1-2.33-7.88,13.93,13.93,0,0,1,5.64-11.63q5.64-4.34,14.85-4.34c.54,0,1.07,0,1.59,0s1.14.08,1.88.18a8.22,8.22,0,0,1,1,0,5.68,5.68,0,0,0,.59,0,1.4,1.4,0,0,0,1.36-.59A5.74,5.74,0,0,0,762,107a5.12,5.12,0,0,1,2-4.13,7.62,7.62,0,0,1,5-1.62,11.77,11.77,0,0,1,7.08,2,6.11,6.11,0,0,1,2.73,5.15,3.94,3.94,0,0,1-1.26,3,4.41,4.41,0,0,1-3.17,1.18h-2.21a1.6,1.6,0,0,0-1,.26.92.92,0,0,0-.33.77,1.67,1.67,0,0,0,.4.92,25.64,25.64,0,0,0,2,2.17,12.66,12.66,0,0,1,2.69,4.05A14.14,14.14,0,0,1,771.07,137Q765.37,141,754.9,141a7.3,7.3,0,0,0-2.73.37,1.23,1.23,0,0,0-.81,1.18,1.2,1.2,0,0,0,.85,1.21,10.6,10.6,0,0,0,3.28.33h9.43q7.37,0,11.24,2.58A8.32,8.32,0,0,1,780,154.06Zm-29.85,4.05c0,.78.59,1.36,1.77,1.73a20.07,20.07,0,0,0,5.53.55,19.09,19.09,0,0,0,5.52-.66c1.43-.44,2.14-1,2.14-1.62a1.43,1.43,0,0,0-1.14-1.36,12.53,12.53,0,0,0-3.8-.41h-6.92a4.51,4.51,0,0,0-2.29.48A1.45,1.45,0,0,0,750.18,158.11Zm.74-35a9,9,0,0,0,1.91,5.55c1.28,1.7,2.68,2.54,4.2,2.54a4.13,4.13,0,0,0,2.84-.88,3.15,3.15,0,0,0,1-2.5,9.12,9.12,0,0,0-2-5.67,5.55,5.55,0,0,0-4.45-2.58,3.44,3.44,0,0,0-2.62,1A3.54,3.54,0,0,0,750.92,123.15Z" transform="translate(-0.59 -2.87)"/><path class="cls-1" d="M790.2,152.15a5.55,5.55,0,0,1-1.33.66,3.9,3.9,0,0,1-1.1.15,4.51,4.51,0,0,1-1.81-.41,5.73,5.73,0,0,1-1.73-1.21,11.71,11.71,0,0,1-1.62-2.06,12.74,12.74,0,0,1-1.25-2.73,14.43,14.43,0,0,1-.67-2.72,22.93,22.93,0,0,1-.22-3.24,6.15,6.15,0,0,1,1-3.75,3.24,3.24,0,0,1,2.73-1.4,4.71,4.71,0,0,1,2,.48,14,14,0,0,1,2.73,1.87c.34.3.7.62,1.06,1s.93.88,1.66,1.62a20.82,20.82,0,0,0,4,3.28,6.2,6.2,0,0,0,3.06.84,2.86,2.86,0,0,0,2.06-.7,2.55,2.55,0,0,0,.74-1.95,2.4,2.4,0,0,0-.7-1.69,8.31,8.31,0,0,0-2.47-1.55c-.5-.24-1.28-.57-2.36-1s-1.8-.7-2.14-.85L790,135.22a15.5,15.5,0,0,1-6.78-4.71,11,11,0,0,1-2.29-6.92,12.24,12.24,0,0,1,4.5-10q4.5-3.69,11.72-3.68a27.56,27.56,0,0,1,3.61.22,39.47,39.47,0,0,1,4.2.81c1,.29,1.77.48,2.21.55a8,8,0,0,0,1.25.11,2.28,2.28,0,0,0,.7-.11,7.13,7.13,0,0,0,1.44-1,3.89,3.89,0,0,1,1.29-.69,4.56,4.56,0,0,1,1.36-.19,4.33,4.33,0,0,1,2.55.88,8.51,8.51,0,0,1,2.24,2.65,12.85,12.85,0,0,1,1.48,3.65A17.86,17.86,0,0,1,820,121a7.54,7.54,0,0,1-.22,2,2.84,2.84,0,0,1-.73,1.32,4.67,4.67,0,0,1-1.26.92,3.24,3.24,0,0,1-1.47.33,7,7,0,0,1-1.88-.25,5.28,5.28,0,0,1-1.66-.78,14.68,14.68,0,0,1-1.25-.88q-.66-.51-1.92-1.62a25.55,25.55,0,0,0-4.57-3.46,5.87,5.87,0,0,0-2.36-.51,2.8,2.8,0,0,0-2,.73,2.43,2.43,0,0,0-.78,1.84,2,2,0,0,0,.74,1.48,8.21,8.21,0,0,0,2.43,1.32,23.84,23.84,0,0,0,2.36.88c1,.35,1.67.57,1.92.67l2.87,1q5.75,2.05,8.22,5.15a12.2,12.2,0,0,1,2.47,7.87A12.65,12.65,0,0,1,816,149.28q-4.83,4-12.49,4c-.84,0-1.67,0-2.51-.11s-1.64-.16-2.43-.26-1.79-.34-2.87-.59l-2-.44a4.7,4.7,0,0,0-1-.18,8.83,8.83,0,0,0-.89,0,3,3,0,0,0-.81.11A4.68,4.68,0,0,0,790.2,152.15Z" transform="translate(-0.59 -2.87)"/><path class="cls-1" d="M848.5,130.58a2.16,2.16,0,0,1-1,1.91,5.18,5.18,0,0,1-2.91.67,11.29,11.29,0,0,1-6.82-2.29,6.85,6.85,0,0,1-3.13-5.74,12.51,12.51,0,0,1,2.1-6.92q2.1-3.24,8.37-7.73a31.83,31.83,0,0,0,4.68-3.9,3.78,3.78,0,0,0,1.06-2.43,2.54,2.54,0,0,0-.81-2,3.17,3.17,0,0,0-2.21-.74A3.76,3.76,0,0,0,846,102a7.24,7.24,0,0,0-1.88,1.62c-.39.49-.92,1.2-1.58,2.13s-1,1.45-1.14,1.55a17.39,17.39,0,0,1-4.9,5,10.22,10.22,0,0,1-5.27,1.37,9.07,9.07,0,0,1-6.27-2.1,6.92,6.92,0,0,1-2.36-5.41q0-6,6.12-10t16.58-3.93q10.1,0,16.11,4a12.38,12.38,0,0,1,6,10.78,13.64,13.64,0,0,1-1.1,5.52,12.81,12.81,0,0,1-3.39,4.49,22.65,22.65,0,0,1-3.61,2.5,54.63,54.63,0,0,1-6.27,2.88,25.23,25.23,0,0,0-5.49,2.76,2.77,2.77,0,0,0-1.22,2.09,1.85,1.85,0,0,0,.23.92,3,3,0,0,0,1,.92,2.63,2.63,0,0,1,.85.78A1.6,1.6,0,0,1,848.5,130.58Zm8.84,13a8.8,8.8,0,0,1-3.87,7.36,15.73,15.73,0,0,1-9.62,2.87c-3.39,0-6-.72-7.92-2.14a6.77,6.77,0,0,1-2.76-5.89,9.2,9.2,0,0,1,4-7.36,15.31,15.31,0,0,1,9.43-3.09,12.3,12.3,0,0,1,7.77,2.17A7.19,7.19,0,0,1,857.34,143.54Z" transform="translate(-0.59 -2.87)"/></g></g></svg>