<svg xmlns="http://www.w3.org/2000/svg" viewBox="0 0 129.74 129.49"><defs><style>.cls-1{fill:#ffe39e;stroke:#265d7f;stroke-miterlimit:10;stroke-width:10px;}</style></defs><g id="Layer_2" data-name="Layer 2"><g id="Layer_16" data-name="Layer 16"><path class="cls-1" d="M60.71,17.69l4.38-8a9.15,9.15,0,0,1,17,2.74l1.63,8.92a9.14,9.14,0,0,0,11.55,7.11L104,26a9.12,9.12,0,0,1,10.07,13.94l-5.16,7.46A9.11,9.11,0,0,0,112,60.56l8,4.37a9.12,9.12,0,0,1-2.76,17l-8.94,1.64a9.13,9.13,0,0,0-7.14,11.52l2.54,8.71a9.14,9.14,0,0,1-14,10.06l-7.48-5.15A9.16,9.16,0,0,0,69,111.8l-4.38,8a9.15,9.15,0,0,1-17-2.74L46,108.09A9.13,9.13,0,0,0,34.46,101l-8.72,2.53A9.12,9.12,0,0,1,15.66,89.57l5.17-7.46a9.11,9.11,0,0,0-3.12-13.18l-8-4.37a9.12,9.12,0,0,1,2.77-17L21.44,46a9.12,9.12,0,0,0,7.14-11.52l-2.53-8.71A9.14,9.14,0,0,1,40,15.66l7.47,5.15A9.16,9.16,0,0,0,60.71,17.69Z"/></g></g></svg>