<svg xmlns="http://www.w3.org/2000/svg" viewBox="0 0 139.18 138.05"><defs><style>.cls-1{fill:#ffe39e;stroke:#265d7f;stroke-miterlimit:10;stroke-width:10px;}</style></defs><g id="Layer_2" data-name="Layer 2"><g id="Layer_16" data-name="Layer 16"><path class="cls-1" d="M72.84,16.94,79,9c5.81-7.54,18-3.68,18.24,5.8l.32,10a10.14,10.14,0,0,0,11.51,9.68l10-1.33c9.49-1.25,15.32,10,8.76,16.9l-6.92,7.3a10,10,0,0,0,1.24,14.91l8,6.08a10.06,10.06,0,0,1-5.86,18.08l-10.1.31a10.11,10.11,0,0,0-9.76,11.41l1.34,9.93c1.27,9.4-10.07,15.18-17,8.68l-7.37-6.86a10.22,10.22,0,0,0-15,1.23l-6.14,8c-5.8,7.54-17.94,3.67-18.24-5.81l-.31-10a10.15,10.15,0,0,0-11.52-9.68l-10,1.33c-9.49,1.26-15.31-10-8.76-16.89l6.92-7.3A10,10,0,0,0,17,65.8L9,59.72a10.07,10.07,0,0,1,5.86-18.09L25,41.32a10.1,10.1,0,0,0,9.76-11.41L33.39,20c-1.27-9.4,10.07-15.17,17-8.68l7.36,6.86A10.23,10.23,0,0,0,72.84,16.94Z"/></g></g></svg>