<svg xmlns="http://www.w3.org/2000/svg" viewBox="0 0 148.56 148.26"><defs><style>.cls-1{fill:#ffe39e;stroke:#265d7f;stroke-miterlimit:10;stroke-width:10px;}</style></defs><g id="Layer_2" data-name="Layer 2"><g id="Layer_16" data-name="Layer 16"><path class="cls-1" d="M69.47,19.68l5.06-9.2a10.59,10.59,0,0,1,19.68,3.18L96.1,24a10.58,10.58,0,0,0,13.37,8.23l10.09-2.94a10.56,10.56,0,0,1,11.66,16.14l-6,8.63a10.55,10.55,0,0,0,3.61,15.25l9.22,5A10.55,10.55,0,0,1,134.87,94l-10.34,1.89a10.57,10.57,0,0,0-8.26,13.34l2.93,10.07A10.58,10.58,0,0,1,103,130.93l-8.65-6a10.6,10.6,0,0,0-15.29,3.61L74,137.78a10.59,10.59,0,0,1-19.68-3.18l-1.89-10.32a10.58,10.58,0,0,0-13.36-8.23L29,119a10.56,10.56,0,0,1-11.65-16.14l6-8.63A10.53,10.53,0,0,0,19.7,79l-9.21-5a10.55,10.55,0,0,1,3.19-19.64L24,52.39a10.57,10.57,0,0,0,8.26-13.34L29.35,29c-2.78-9.54,8-17.29,16.18-11.65l8.65,6A10.59,10.59,0,0,0,69.47,19.68Z"/></g></g></svg>