<svg xmlns="http://www.w3.org/2000/svg" viewBox="0 0 399.53 180.51"><defs><style>.cls-1{fill:none;stroke:#ffebd4;stroke-width:8px;stroke-dasharray:6.68 6.68;}.cls-1,.cls-2{stroke-miterlimit:10;}.cls-2{fill:#ffebd4;stroke:#265d7f;stroke-width:10px;}</style></defs><g id="Layer_2" data-name="Layer 2"><g id="Layer_16" data-name="Layer 16"><g id="bounce_lines" data-name="bounce lines"><path class="cls-1" d="M1.36,21.12A283.61,283.61,0,0,1,94.37,4c76.39-1,133.22,29.73,158.51,45.64"/><path class="cls-1" d="M6,38a259.39,259.39,0,0,1,95.5-17.42c68.38.62,118.44,28.55,140.32,42.66"/></g><g id="DROP"><path class="cls-2" d="M321.69,174.55c32.27,6.24,64.24-18.76,71.4-55.84S379.9,46.53,347.63,40.3v.06l-20.44-4L301.25,170.6Z"/><ellipse class="cls-2" cx="314.22" cy="103.48" rx="68.37" ry="59.51" transform="translate(153.02 392.37) rotate(-79.07)"/><ellipse class="cls-2" cx="314.22" cy="103.48" rx="31.07" ry="27.04" transform="translate(153.02 392.37) rotate(-79.07)"/></g></g></g></svg>