<svg xmlns="http://www.w3.org/2000/svg" viewBox="0 0 240.18 239.69"><defs><style>.cls-1{fill:#ffe39e;stroke:#265d7f;stroke-miterlimit:10;stroke-width:10px;}</style></defs><g id="Layer_2" data-name="Layer 2"><g id="Layer_16" data-name="Layer 16"><path class="cls-1" d="M112.1,29.39l8.41-15.28c8-14.47,29.73-11,32.7,5.27l3.14,17.15a17.56,17.56,0,0,0,22.2,13.67l16.77-4.87c15.89-4.62,28.77,13.21,19.37,26.8l-9.93,14.34a17.51,17.51,0,0,0,6,25.34l15.31,8.38c14.5,7.94,11,29.65-5.31,32.63L203.57,156a17.55,17.55,0,0,0-13.72,22.16l4.87,16.73c4.62,15.84-13.26,28.71-26.87,19.34l-14.37-9.9a17.61,17.61,0,0,0-25.4,6l-8.41,15.28c-8,14.47-29.73,11-32.7-5.27l-3.14-17.15a17.56,17.56,0,0,0-22.2-13.67l-16.77,4.88C29,199,16.09,181.15,25.49,167.57l9.93-14.35a17.51,17.51,0,0,0-6-25.34L14.12,119.5c-14.5-7.94-11-29.65,5.31-32.63l17.18-3.15A17.54,17.54,0,0,0,50.33,61.57L45.46,44.83C40.84,29,58.72,16.12,72.33,25.49l14.37,9.9A17.61,17.61,0,0,0,112.1,29.39Z"/></g></g></svg>