<svg xmlns="http://www.w3.org/2000/svg" viewBox="0 0 169.34 169"><defs><style>.cls-1{fill:#ffe39e;stroke:#265d7f;stroke-miterlimit:10;stroke-width:10px;}</style></defs><g id="Layer_2" data-name="Layer 2"><g id="Layer_16" data-name="Layer 16"><path class="cls-1" d="M79.14,21.88,85,11.31c5.52-10,20.57-7.59,22.63,3.65l2.18,11.86a12.16,12.16,0,0,0,15.36,9.47l11.61-3.38c11-3.19,19.92,9.15,13.41,18.56l-6.87,9.93a12.11,12.11,0,0,0,4.15,17.53L158,84.74c10,5.5,7.59,20.52-3.67,22.58l-11.9,2.18A12.14,12.14,0,0,0,133,124.84l3.37,11.58c3.2,11-9.18,19.88-18.6,13.39l-10-6.85a12.19,12.19,0,0,0-17.58,4.15l-5.82,10.58c-5.52,10-20.58,7.59-22.64-3.65l-2.17-11.87a12.16,12.16,0,0,0-15.37-9.46l-11.61,3.37c-11,3.2-19.91-9.15-13.4-18.55l6.87-9.93a12.12,12.12,0,0,0-4.15-17.54l-10.6-5.8c-10-5.5-7.59-20.53,3.68-22.59l11.89-2.18a12.15,12.15,0,0,0,9.5-15.33L33,32.57c-3.19-11,9.19-19.87,18.61-13.39L61.55,26A12.2,12.2,0,0,0,79.14,21.88Z"/></g></g></svg>