<svg xmlns="http://www.w3.org/2000/svg" viewBox="0 0 222.42 221.96"><defs><style>.cls-1{fill:#ffe39e;stroke:#265d7f;stroke-miterlimit:10;stroke-width:10px;}</style></defs><g id="Layer_2" data-name="Layer 2"><g id="Layer_16" data-name="Layer 16"><path class="cls-1" d="M103.83,27.51l7.77-14.1C119,.06,139,3.29,141.77,18.27l2.9,15.82a16.2,16.2,0,0,0,20.48,12.62l15.48-4.5C195.29,38,207.18,54.41,198.5,67l-9.16,13.23a16.18,16.18,0,0,0,5.53,23.39L209,111.3c13.38,7.33,10.12,27.36-4.9,30.11l-15.86,2.91a16.19,16.19,0,0,0-12.66,20.44l4.5,15.44c4.26,14.63-12.24,26.5-24.8,17.85L142,188.92a16.25,16.25,0,0,0-23.44,5.54l-7.76,14.1c-7.35,13.35-27.43,10.11-30.18-4.87l-2.89-15.82a16.22,16.22,0,0,0-20.49-12.62l-15.48,4.5C27.13,184,15.23,167.55,23.91,155l9.16-13.24a16.15,16.15,0,0,0-5.53-23.38l-14.12-7.74C0,103.33,3.3,83.3,18.31,80.55l15.86-2.9A16.2,16.2,0,0,0,46.83,57.2l-4.5-15.44c-4.26-14.62,12.25-26.5,24.8-17.85L80.39,33A16.24,16.24,0,0,0,103.83,27.51Z"/></g></g></svg>