<svg xmlns="http://www.w3.org/2000/svg" xmlns:xlink="http://www.w3.org/1999/xlink" viewBox="0 0 370.99 66.91"><defs><style>.cls-1{fill:none;}.cls-2{clip-path:url(#clip-path);}.cls-3{fill:#f5ede5;}</style><clipPath id="clip-path" transform="translate(0 0)"><rect class="cls-1" width="370.99" height="66.91"/></clipPath></defs><g id="Layer_2" data-name="Layer 2"><g id="Layer_19" data-name="Layer 19"><g id="_7.14_logo" data-name="7.14 logo"><g class="cls-2"><g class="cls-2"><path class="cls-3" d="M169.31,52.27V7.47a.81.81,0,0,1,.81-.81c6,0,12.07,0,18.11,0a37.33,37.33,0,0,1,11.45,1.5,19,19,0,0,1,13.24,13.69,30.3,30.3,0,0,1,.72,11.69A24.8,24.8,0,0,1,211.28,42a18.4,18.4,0,0,1-7.63,7.87,24.57,24.57,0,0,1-10.74,3c-2.47.15-4.95.19-7.42.2-5.11,0-10.22,0-15.33,0h0a.81.81,0,0,1-.81-.81M187.5,22.45V36.93a.82.82,0,0,0,.79.82,13.84,13.84,0,0,0,1.58,0,4.41,4.41,0,0,0,3.89-2.59,14,14,0,0,0,.63-9.39c-.76-3.09-3.21-4.41-6.17-4.1a.82.82,0,0,0-.72.81" transform="translate(0 0)"/><path class="cls-3" d="M340.61,39.47c1.44.61,2.84,1.23,4.27,1.76A23.73,23.73,0,0,0,352,42.75a10.45,10.45,0,0,0,1.58-.07,1.14,1.14,0,0,0,1.08-1.07c0-.66-.53-.83-1-.92-1.91-.33-3.84-.58-5.75-.94a15.53,15.53,0,0,1-6.25-2.38c-2.76-1.93-3.68-4.66-3.54-7.89a9.75,9.75,0,0,1,3.17-6.84,16.61,16.61,0,0,1,8.86-4.05,30.62,30.62,0,0,1,6.63-.37A41.87,41.87,0,0,1,367,19.87c.61.18,1.2.41,1.81.65a1.19,1.19,0,0,1,.67,1.54c-.38,1-.75,1.93-1.11,2.86q-1.14,2.89-2.27,5.79a.79.79,0,0,1-1.12.42,20,20,0,0,0-7.91-2,3.9,3.9,0,0,0-1.6.26,1.37,1.37,0,0,0-.69.93,1.06,1.06,0,0,0,.59.83,12.9,12.9,0,0,0,2.73.71,29.91,29.91,0,0,1,6.56,1.51c2.61,1,4.73,2.47,5.74,5.21a10,10,0,0,1,.51,4.3,10.63,10.63,0,0,1-2.26,6.1,12.08,12.08,0,0,1-5.38,3.59A24.52,24.52,0,0,1,355.63,54a42.65,42.65,0,0,1-9.44-.56,24.72,24.72,0,0,1-8.92-3.25.83.83,0,0,1-.34-1c.89-3.12,1.81-6.22,2.73-9.33.12-.41.36-.54.95-.3" transform="translate(0 0)"/><path class="cls-3" d="M218.06,53a.82.82,0,0,1-.82-.81c0-10.93,0-21.76,0-32.59,0-.47.13-.61.6-.61,4.77,0,9.55,0,14.33,0,.47,0,.61.18.6.63,0,1,0,2,0,3a1.28,1.28,0,0,0,.18.7l.35-.48a13,13,0,0,1,6.31-4.51c4.51-1.48,8.91.7,10.49,1.64a.8.8,0,0,1,.34,1l-5.13,12.85a.82.82,0,0,1-1.15.41,6.74,6.74,0,0,0-4.24-.83,7,7,0,0,0-5.68,5.75,4.47,4.47,0,0,0-.05.84c-.08,6.76-.12,11.54-.07,12.23a.87.87,0,0,1-.18.68.84.84,0,0,1-.67.17c-.67-.06-6.68-.06-15.19-.05" transform="translate(0 0)"/><path class="cls-3" d="M51.57,19.18H64.92a.81.81,0,0,1,.81.81V52.28a.81.81,0,0,1-.81.81H51.57a.81.81,0,0,1-.81-.81V20a.81.81,0,0,1,.81-.81" transform="translate(0 0)"/><path class="cls-3" d="M58.21,15.76a10.29,10.29,0,0,1-4.65-1,7,7,0,0,1-4-5.23A7.63,7.63,0,0,1,52,2.08,7.76,7.76,0,0,1,55.82.25a11.47,11.47,0,0,1,6.33.43,7.07,7.07,0,0,1,4.7,5.4,7.71,7.71,0,0,1-3.23,8.24,8.81,8.81,0,0,1-4,1.34c-.47.05-.94.07-1.41.1" transform="translate(0 0)"/><path class="cls-3" d="M27.56,7.47A31.73,31.73,0,0,1,23.14,17a29.78,29.78,0,0,1-5.26,5.72V7.56a.81.81,0,0,0-.81-.81H.81A.81.81,0,0,0,0,7.56V52.31a.81.81,0,0,0,.81.81H17.12a.81.81,0,0,0,.81-.81l-.06-13.37c.44,1.22,4,10.51,13.86,13.75,6.32,2.08,12,.13,14.32-.75a.81.81,0,0,0,.52-.75V36.58a.81.81,0,0,0-1.25-.68,8.69,8.69,0,0,1-4.66,1.4,9.1,9.1,0,0,1-7-3.46,8.88,8.88,0,0,1-1.49-3,.81.81,0,0,1,.21-.77,58.43,58.43,0,0,0,7.41-9.18A57.3,57.3,0,0,0,46.15,7.82a.81.81,0,0,0-.77-1.07c-3.61,0-16.4,0-16.81,0a.92.92,0,0,0-1,.74" transform="translate(0 0)"/><path class="cls-3" d="M85.5,19.73v3.13a0,0,0,0,0,.09,0,14,14,0,0,1,11-4.89c7.4,0,15.46,6.07,15.46,18.13,0,13.25-8.53,17.92-15.86,17.92a17.44,17.44,0,0,1-10.11-3.21s-.08,0-.08,0V66.11a.8.8,0,0,1-.8.8H69.91a.8.8,0,0,1-.8-.8V19.73a.79.79,0,0,1,.8-.79h14.8a.79.79,0,0,1,.79.79m4.4,22.06c3,0,4.87-2,4.87-5.13,0-3.33-1.87-5.26-4.87-5.26s-4.73,2.06-4.73,5.26,1.8,5.13,4.73,5.13" transform="translate(0 0)"/><path class="cls-3" d="M268.89,18c13,0,20.16,7.87,20.16,17.93,0,9.86-7.15,18.12-20.16,18.12s-20-7.86-20-17.92c0-9.87,7.09-18.13,20-18.13m0,23.12c3,0,4.86-2,4.86-5.13,0-3.33-1.86-5.26-4.86-5.26s-4.73,2.06-4.73,5.26,1.8,5.13,4.73,5.13" transform="translate(0 0)"/><path class="cls-3" d="M308.81,19.73v3.13a0,0,0,0,0,.09,0,14,14,0,0,1,11-4.89c7.39,0,15.46,6.07,15.46,18.13,0,13.25-8.53,17.92-15.86,17.92a17.42,17.42,0,0,1-10.11-3.21s-.08,0-.08,0V66.11a.8.8,0,0,1-.8.8H293.22a.8.8,0,0,1-.8-.8V19.73a.79.79,0,0,1,.8-.79H308a.79.79,0,0,1,.79.79m4.4,22.06c3,0,4.86-2,4.86-5.13,0-3.33-1.86-5.26-4.86-5.26s-4.73,2.06-4.73,5.26,1.8,5.13,4.73,5.13" transform="translate(0 0)"/><path class="cls-3" d="M152.58,30.81h0a14.75,14.75,0,0,0-1.51-4.38c-.17-.32-.35-.62-.54-.91,0,0-.26-.41-.52-.78a16.56,16.56,0,0,0-2.42-2.6,16.28,16.28,0,0,0-3.47-2.28,25.92,25.92,0,0,0-9.92-2.4,25.28,25.28,0,0,0-10.85,1.68,18.59,18.59,0,0,0-6,3.44.81.81,0,0,0-.16,1.05l4,6.28a.82.82,0,0,0,1,.31,18.86,18.86,0,0,1,9.58-1,8.06,8.06,0,0,1,3.3,1.25A5.37,5.37,0,0,1,137,34.34s-.05.08-.08,0c-2.39-1.75-5.49-2.4-9.38-2.4-6.06,0-14,2.2-14,11.26,0,7,5.2,10.79,12.66,10.79,4.54,0,8.36-1.1,10.71-4.14a0,0,0,0,1,.09,0v2.39a.79.79,0,0,0,.79.79H152a.79.79,0,0,0,.79-.79V33.72a24.18,24.18,0,0,0-.18-2.91M133.5,45c-2.06,0-3.73-.4-3.73-2.66,0-1.67,1.07-2.67,3.93-2.67,2.07,0,3.54.67,3.54,2.47,0,1.53-1.07,2.86-3.74,2.86" transform="translate(0 0)"/></g></g></g></g></g></svg>