<svg xmlns="http://www.w3.org/2000/svg" viewBox="0 0 1029.35 360.4"><defs><style>.cls-1{fill:#f5eee5;}.cls-2{fill:none;stroke:#f5eee5;stroke-miterlimit:10;stroke-width:8px;}</style></defs><g id="Layer_2" data-name="Layer 2"><g id="Layer_25_copy" data-name="Layer 25 copy"><path class="cls-1" d="M47.93,186.48a11,11,0,0,1-2.68,2,5.88,5.88,0,0,1-2.67.72,7.48,7.48,0,0,1-1.73-.15,5.61,5.61,0,0,1-1.65-.73,5.11,5.11,0,0,0-1.52-.65,8.21,8.21,0,0,0-1.69-.15c-1.37,0-3,0-4.85.07l-7.17.16-7.53.16c-1.73,0-3.28.05-4.65.05-4.39,0-7.49-.42-9.3-1.26A3.85,3.85,0,0,1,0,182.66a4.31,4.31,0,0,1,.53-1.77,4.84,4.84,0,0,1,1.2-1.36l.86-.7c.52-.41,1-.78,1.36-1.11a5.38,5.38,0,0,0,1.24-1.65A10.49,10.49,0,0,0,6,173.6c.17-.86.42-2.43.78-4.65s.94-6.07,1.69-11.49c.39-2.84.83-6.12,1.36-9.79s.79-5.9.86-6.59a7.42,7.42,0,0,0,0-2.06,3,3,0,0,0-.66-1.4,13.07,13.07,0,0,0-1-1.07,9.27,9.27,0,0,0-1.19-.9,3.45,3.45,0,0,1-1.32-1.4,3.8,3.8,0,0,1-.16-2,4,4,0,0,1,1.11-2.43,8.34,8.34,0,0,1,3-1.69,33.51,33.51,0,0,1,7.33-1.63A87.68,87.68,0,0,1,28.09,126a64.48,64.48,0,0,1,7.86.32A9.63,9.63,0,0,1,40,127.52a4.49,4.49,0,0,1,1.56,1.76,4,4,0,0,1,.33,2.34,5,5,0,0,1-.7,1.94,6,6,0,0,1-1.6,1.62,26.1,26.1,0,0,1-2.6,1.58q-1.68.92-2.1,1.17a9.08,9.08,0,0,0-2.84,2.36,7.34,7.34,0,0,0-1.27,3c-.66,4.07-1.16,7.21-1.48,9.44s-.66,4.6-1,7.13c-.77,5.81-1.23,9.22-1.36,10.21s-.2,1.66-.21,2a4,4,0,0,0,.66,2.59,3.91,3.91,0,0,0,2.47,1.26l.91.12c.27,0,.63,0,1.07,0a5.89,5.89,0,0,0,2.55-.51,10.5,10.5,0,0,0,2.71-2.16,14.33,14.33,0,0,0,1.28-1.49c.47-.6,1.19-1.58,2.1-2.89s1.63-2.36,2.1-2.94a9.74,9.74,0,0,1,1.28-1.37,10,10,0,0,1,2.67-1.84,6.91,6.91,0,0,1,2.59-.51,4.56,4.56,0,0,1,4.12,1.93q1.32,2,.82,5.6a47.25,47.25,0,0,1-2.38,10A18.49,18.49,0,0,1,47.93,186.48Z" transform="translate(0 -2.25)"/><path class="cls-1" d="M100.86,174.08a19.65,19.65,0,0,1-8.15,10.06,25.64,25.64,0,0,1-14,4q-10.53.15-16-6.21c-3.62-4.24-4.92-9.95-4-17.08a28.11,28.11,0,0,1,9.92-18.15,30.1,30.1,0,0,1,19.64-7.35q8.06-.13,12.22,3.79c2.77,2.61,3.76,6.28,3.09,10.93a14.1,14.1,0,0,1-6.92,10.33q-6,3.72-16,3.87h-1c-1,0-1.62.21-1.89.6s-.22,1,.17,2a5.49,5.49,0,0,0,2.84,2.93,11.78,11.78,0,0,0,5.22.91,10.52,10.52,0,0,0,4.78-1.31,18.78,18.78,0,0,0,4.69-3.7,3.82,3.82,0,0,1,1.15-.84,3.24,3.24,0,0,1,1.32-.27,2.87,2.87,0,0,1,2.67,1.59A4.4,4.4,0,0,1,100.86,174.08ZM77.64,158.73a3.23,3.23,0,0,0,.25,2.21,1.58,1.58,0,0,0,1.48.81h.33a8.68,8.68,0,0,0,7.49-6.86,4.16,4.16,0,0,0-.53-3.2,3,3,0,0,0-2.6-1.11c-1.42,0-2.77.85-4,2.48A12.54,12.54,0,0,0,77.64,158.73Z" transform="translate(0 -2.25)"/><path class="cls-1" d="M147.29,171a17.33,17.33,0,0,1-7.25,11.7q-6.16,4.5-15.39,4.7-10.12.22-15.44-3.22c-3.54-2.29-5-5.43-4.48-9.39a6.46,6.46,0,0,1,1.85-3.94,5.15,5.15,0,0,1,3.58-1.51,5.26,5.26,0,0,1,2,.33,5.81,5.81,0,0,1,1.82,1.16,17,17,0,0,1,1.4,1.58c.49.62,1.07,1.37,1.72,2.23a8.09,8.09,0,0,0,6.26,3,3.72,3.72,0,0,0,2.43-.84,3.18,3.18,0,0,0,1.11-2.12,2.68,2.68,0,0,0-.86-2.33q-1-1-5.64-3l-1.65-.71q-6.59-2.83-8.77-6a11,11,0,0,1-1.52-7.92,16.24,16.24,0,0,1,7-11.45,26.14,26.14,0,0,1,14.86-4.47q10.13-.22,15.1,2.77a8.32,8.32,0,0,1,4.16,9,4.79,4.79,0,0,1-4.77,4.31,7.19,7.19,0,0,1-2.6-.35,6.88,6.88,0,0,1-2.18-1.26c-.49-.43-1.07-1-1.73-1.69a15,15,0,0,0-1.31-1.29,9.37,9.37,0,0,0-2.51-1.83,5.82,5.82,0,0,0-2.6-.52,3.85,3.85,0,0,0-2.39.83,3.13,3.13,0,0,0-1.15,2.13,2.13,2.13,0,0,0,.54,1.63,6.91,6.91,0,0,0,2.26,1.52c.55.26,1.36.6,2.43,1s1.69.65,1.85.7l1.4.55q6.51,2.47,8.89,6A11.88,11.88,0,0,1,147.29,171Z" transform="translate(0 -2.25)"/><path class="cls-1" d="M194.7,169.65a17.44,17.44,0,0,1-7.24,11.74q-6.18,4.55-15.4,4.81-10.12.27-15.43-3.13c-3.54-2.26-5-5.39-4.49-9.35a6.57,6.57,0,0,1,1.85-4,5.23,5.23,0,0,1,3.59-1.53,5.07,5.07,0,0,1,2,.32,5.56,5.56,0,0,1,1.81,1.15,14.17,14.17,0,0,1,1.4,1.56c.5.62,1.07,1.37,1.73,2.22a7.61,7.61,0,0,0,2.8,2.19,7.47,7.47,0,0,0,3.46.77,3.78,3.78,0,0,0,2.42-.85,3.24,3.24,0,0,0,1.12-2.13,2.66,2.66,0,0,0-.87-2.32c-.69-.67-2.56-1.65-5.64-2.93l-1.64-.7q-6.6-2.79-8.77-6a10.87,10.87,0,0,1-1.52-7.91,16.39,16.39,0,0,1,7-11.5,26.29,26.29,0,0,1,14.86-4.57q10.13-.28,15.11,2.68t4.16,8.93a4.84,4.84,0,0,1-4.78,4.35,7.14,7.14,0,0,1-2.59-.34,7,7,0,0,1-2.18-1.25,21.5,21.5,0,0,1-1.73-1.68,12.26,12.26,0,0,0-1.32-1.27,9.1,9.1,0,0,0-2.51-1.82,5.88,5.88,0,0,0-2.59-.51,3.79,3.79,0,0,0-2.39.86,3.09,3.09,0,0,0-1.15,2.13,2.1,2.1,0,0,0,.53,1.63,7,7,0,0,0,2.27,1.5c.54.26,1.35.59,2.42,1l1.86.69,1.4.53q6.5,2.45,8.89,6C194.73,163.27,195.23,166.19,194.7,169.65Z" transform="translate(0 -2.25)"/><path class="cls-1" d="M266,164.3a5,5,0,0,0,.29,3.19,2.21,2.21,0,0,0,2.18,1q2.22-.07,4.16-2.88a15.72,15.72,0,0,0,2.51-6.76,33.27,33.27,0,0,0,.41-4.79,22.47,22.47,0,0,0-.49-4.43c-.12-.65-.24-1.22-.38-1.71a13.15,13.15,0,0,0-.69-1.79c-.34-.74-.58-1.37-.75-1.86a7.94,7.94,0,0,1-.33-1.39c-.1-.75-.17-1.37-.2-1.84a5.94,5.94,0,0,1,0-1.28,5.84,5.84,0,0,1,2.43-4A9.06,9.06,0,0,1,280.4,134a12.1,12.1,0,0,1,4.81.71,8.83,8.83,0,0,1,3.58,2.41,10.73,10.73,0,0,1,2.47,5.83,36.54,36.54,0,0,1-.33,9.56q-1.81,13.16-9.26,21.53t-17,8.73a15.4,15.4,0,0,1-7.82-1.56,8.82,8.82,0,0,1-4.44-5c-.11-.43-.33-.66-.66-.67a1.07,1.07,0,0,0-.91.56,16.93,16.93,0,0,1-6.42,5.55,20.67,20.67,0,0,1-8.72,2.16q-7.33.26-10.91-2.91t-3.58-9.84c0-.44,0-.92,0-1.44s.13-1.46.29-2.77c.05-.49.13-1,.24-1.66s.29-1.55.5-2.81c.4-2.46.66-4.26.82-5.34s.27-2,.33-2.69a4.78,4.78,0,0,0,0-1.39,2,2,0,0,0-.54-1,4,4,0,0,0-.78-.68,3.78,3.78,0,0,0-1.11-.41,3.42,3.42,0,0,1-2.06-1.17,3.7,3.7,0,0,1-.49-2.37,5.49,5.49,0,0,1,.9-2.62A13.4,13.4,0,0,1,221.7,142a22.45,22.45,0,0,1,3.5-2.42,38.47,38.47,0,0,1,4.4-2.21,21,21,0,0,1,3.46-1.11,17.23,17.23,0,0,1,3.29-.44c2.91-.11,4.94.59,6.1,2.08s1.5,4,1.07,7.37q-.17,1.41-.87,5.76c-.47,2.89-1.11,6.75-1.93,11.55a21.35,21.35,0,0,0-.33,2.24c-.06.6-.08,1.12-.08,1.56a3.42,3.42,0,0,0,.65,2.36,2.52,2.52,0,0,0,2.06.67,3.41,3.41,0,0,0,2.27-1,7.7,7.7,0,0,0,1.68-2.73,25.55,25.55,0,0,0,1.16-4c.38-1.8.7-3.78,1-5.92.11-.82.24-1.83.37-3s.36-3.08.62-5.66c.17-1.7.29-2.92.37-3.64s.15-1.32.21-1.81q.33-2.9,4-4.89a20,20,0,0,1,8.85-2.18,5.25,5.25,0,0,1,4.4,1.52,6.29,6.29,0,0,1,1.28,4.68c-.1,1.7-.55,5.2-1.32,10.47S266.5,160.84,266,164.3Z" transform="translate(0 -2.25)"/><path class="cls-1" d="M335.88,173.72q-7.32,6.87-18.44,7.34-11.52.49-17.45-5.65t-4.53-17.06a30,30,0,0,1,9.14-18.48,27.42,27.42,0,0,1,18.27-7.69q11.11-.48,17.25,6t4.65,17.17Q343.2,166.83,335.88,173.72Zm-12.76-7.89a21,21,0,0,0,2.55-8.17c.65-4.52.69-7.85.08-10s-1.86-3.13-3.78-3c-1.76.07-3.25,1.19-4.49,3.36a25.64,25.64,0,0,0-2.67,9c-.57,4.07-.5,7.09.16,9a3.55,3.55,0,0,0,3.71,2.77Q321.31,168.71,323.12,165.83Z" transform="translate(0 -2.25)"/><path class="cls-1" d="M372.35,151.62c-.2,1.26-.41,2.53-.58,3.77s-.4,2.79-.66,4.6c-.11.82-.23,1.74-.37,2.73s-.29,2.41-.53,4.14c-.19,1.36-.36,2.34-.41,2.86s-.11.93-.17,1.2a8.08,8.08,0,0,1-4.24,5.84,19.69,19.69,0,0,1-9.42,2.52,7.18,7.18,0,0,1-4.69-1,4.06,4.06,0,0,1-1.49-3.55,27.37,27.37,0,0,1,.33-3.31c.22-1.44.74-3.91,1.4-7.31.47-2.39.76-4.19,1-5.27s.36-2,.45-2.78c.06-.48.19-1.57.41-3.23s.35-2.87.41-3.64a4,4,0,0,0,0-1.35,3,3,0,0,0-.45-.93,2.12,2.12,0,0,0-.9-.74,12.94,12.94,0,0,0-1.57-.55,2.71,2.71,0,0,1-1.73-1.24,3.74,3.74,0,0,1-.33-2.29,6.38,6.38,0,0,1,.91-2.55,11,11,0,0,1,2.22-2.53,26.16,26.16,0,0,1,3.58-2.59,34.41,34.41,0,0,1,4.49-2.3,20.9,20.9,0,0,1,3.46-1.14,16.65,16.65,0,0,1,3.29-.48,7.19,7.19,0,0,1,5.39,1.52,6.48,6.48,0,0,1,1.85,5.06,4.87,4.87,0,0,1,0,.66c0,.22-.05.66-.12,1.24a1.44,1.44,0,0,0,.08.82.5.5,0,0,0,.5.3.76.76,0,0,0,.49-.23,2.36,2.36,0,0,0,.49-.64,19.94,19.94,0,0,1,5.39-7.2,12.34,12.34,0,0,1,7.21-2.6,7.51,7.51,0,0,1,6.91,3.09c1.59,2.2,2.12,5.06,1.65,8.52a17.34,17.34,0,0,1-4,9.33,10.61,10.61,0,0,1-7.62,3.9,7,7,0,0,1-4.24-1,8.84,8.84,0,0,1-2.92-3.69,5.45,5.45,0,0,0-1.24-1.88,1.93,1.93,0,0,0-3.12.6A9.72,9.72,0,0,0,372.35,151.62Z" transform="translate(0 -2.25)"/><path class="cls-1" d="M423.14,149.21c-.2,1.26-.41,2.53-.58,3.77s-.4,2.79-.66,4.61c-.11.82-.23,1.74-.37,2.73s-.29,2.41-.53,4.14c-.19,1.36-.36,2.34-.41,2.86s-.11.93-.17,1.2a8.09,8.09,0,0,1-4.24,5.85,19.69,19.69,0,0,1-9.42,2.55,7.24,7.24,0,0,1-4.69-1,4.06,4.06,0,0,1-1.49-3.55,27.37,27.37,0,0,1,.33-3.31c.22-1.44.74-3.91,1.4-7.31.47-2.4.76-4.2.95-5.28s.36-2,.45-2.77c.06-.49.19-1.58.41-3.24s.35-2.87.41-3.64a4,4,0,0,0,0-1.35,3,3,0,0,0-.45-.93,2.12,2.12,0,0,0-.9-.74,13.16,13.16,0,0,0-1.57-.54,2.71,2.71,0,0,1-1.73-1.24,3.7,3.7,0,0,1-.33-2.28,6.37,6.37,0,0,1,.91-2.56,11,11,0,0,1,2.22-2.53,26.17,26.17,0,0,1,3.58-2.6,34.45,34.45,0,0,1,4.49-2.31,21,21,0,0,1,3.46-1.16,18.33,18.33,0,0,1,3.29-.49,7.23,7.23,0,0,1,5.39,1.51,6.48,6.48,0,0,1,1.85,5.06,4.87,4.87,0,0,1,0,.66c0,.22-.05.66-.12,1.24a1.44,1.44,0,0,0,.08.82.5.5,0,0,0,.5.3.76.76,0,0,0,.49-.23,2.53,2.53,0,0,0,.49-.64,20,20,0,0,1,5.39-7.22A12.35,12.35,0,0,1,438.7,127a7.51,7.51,0,0,1,6.91,3.08c1.59,2.19,2.12,5,1.65,8.52a17.38,17.38,0,0,1-4,9.33,10.58,10.58,0,0,1-7.62,3.91,6.89,6.89,0,0,1-4.24-1,8.84,8.84,0,0,1-2.92-3.69,5.4,5.4,0,0,0-1.24-1.87,2,2,0,0,0-1.48-.55,2,2,0,0,0-1.64,1.15A9.79,9.79,0,0,0,423.14,149.21Z" transform="translate(0 -2.25)"/><path class="cls-1" d="M456.31,179.36a4.24,4.24,0,0,0,1.24,2.08,2.53,2.53,0,0,0,1.81.66,2.83,2.83,0,0,0,2.63-2,17.24,17.24,0,0,0,.5-6.36c-.13-2.66-.28-5.24-.5-7.67s-.49-4.75-.82-6.92a75.84,75.84,0,0,0-1.73-8.39,42.22,42.22,0,0,0-2.14-6.23,6.81,6.81,0,0,0-.82-1.37,5.6,5.6,0,0,0-2.14-1.53,6.67,6.67,0,0,0-1.32-.35,3.8,3.8,0,0,1-2.31-1.29,3.19,3.19,0,0,1-.57-2.44,7.69,7.69,0,0,1,1.32-3.27,16.76,16.76,0,0,1,3-3.28,18.85,18.85,0,0,1,2.88-2,37.5,37.5,0,0,1,3.46-1.78,19.6,19.6,0,0,1,3.29-1.15,16,16,0,0,1,3-.39,7.27,7.27,0,0,1,4.08.86,7.75,7.75,0,0,1,2.84,3.16,31.15,31.15,0,0,1,2.3,6.67,82.36,82.36,0,0,1,1.82,10c.36,2.93.64,5.81.78,8.6s.15,5.51.12,8.06a2.24,2.24,0,0,0,.25,1.27,1,1,0,0,0,.9.32c.5,0,1-.45,1.65-1.27a15.27,15.27,0,0,0,1.65-3.17,25.14,25.14,0,0,0,1.11-3.52c.3-1.27.57-2.61.78-4a41.5,41.5,0,0,0,.45-5.46,31.25,31.25,0,0,0-.29-4.84,11.94,11.94,0,0,0-.7-2.73,15,15,0,0,0-1.27-2.61,16,16,0,0,1-1.89-3.86,6.57,6.57,0,0,1-.25-2.78,6.43,6.43,0,0,1,2.55-4.24,9.2,9.2,0,0,1,5.35-1.84,13.3,13.3,0,0,1,5.11.66,7.54,7.54,0,0,1,3.53,2.45,14.36,14.36,0,0,1,3,7.26,39.8,39.8,0,0,1-.37,11.05,61.67,61.67,0,0,1-3.87,14.64A56.67,56.67,0,0,1,489.16,173a58,58,0,0,1-16,14.92,38.08,38.08,0,0,1-18,5.7q-7.32.38-11.24-3a9.34,9.34,0,0,1-3.17-8.89,9.87,9.87,0,0,1,2.76-5.82,8.19,8.19,0,0,1,5.56-2.41,8,8,0,0,1,2.8.31,6.27,6.27,0,0,1,2.22,1.25,4.62,4.62,0,0,1,1.11,1.35A15.51,15.51,0,0,1,456.31,179.36Z" transform="translate(0 -2.25)"/><path class="cls-1" d="M552.38,107.82c-.4,3.13-2.47,6-6.26,8.42a24.27,24.27,0,0,1-12.26,4,6.57,6.57,0,0,1-5.23-1.67,5.51,5.51,0,0,1-1.44-4.91c.43-3.14,2.47-6,6.09-8.66a21.53,21.53,0,0,1,11.28-4.31q4.28-.28,6.3,1.5C552.2,103.41,552.7,105.28,552.38,107.82Zm-2.3,53.54c-.39,2.38-2,4.4-4.78,6.08a22.23,22.23,0,0,1-10.45,2.82q-5.69.28-8-2c-1.54-1.55-2-4.09-1.48-7.63.33-2.15.74-4.51,1.23-7.05s.77-4,.83-4.33c.33-1.88.59-3.46.78-4.73s.29-2.51.37-3.64a5.42,5.42,0,0,0,0-1.44,3.21,3.21,0,0,0-.45-1,2.31,2.31,0,0,0-.79-.71,4,4,0,0,0-1.19-.43,2.77,2.77,0,0,1-2.55-3.5,6.76,6.76,0,0,1,.62-2.16,11,11,0,0,1,1.68-2.31,21.67,21.67,0,0,1,4.82-3.66,31,31,0,0,1,6-2.73,24.36,24.36,0,0,1,2.38-.65,15.09,15.09,0,0,1,2.47-.33q4.62-.22,6.3,2.32c1.13,1.7,1.44,4.62,1,8.76-.11.94-.26,2-.46,3.28s-.61,3.77-1.27,7.59q-1.15,6.65-1.36,8c-.14.92-.24,1.58-.29,1.95a8.52,8.52,0,0,0,0,1.57,2.73,2.73,0,0,0,.29,1.14,2.2,2.2,0,0,0,.62.67,3.3,3.3,0,0,0,1,.48c.48.15.88.27,1.15.39s.49.24.66.34a2.8,2.8,0,0,1,.86,1.24A3.24,3.24,0,0,1,550.08,161.36Z" transform="translate(0 -2.25)"/><path class="cls-1" d="M574.69,160.88a8.11,8.11,0,0,1-4.24,5.85,19.84,19.84,0,0,1-9.43,2.56,7.26,7.26,0,0,1-4.69-1,4,4,0,0,1-1.48-3.55,25.61,25.61,0,0,1,.33-3.31c.22-1.44.74-3.91,1.4-7.31.46-2.4.75-4.2.95-5.27s.35-2,.45-2.78c.06-.49.19-1.58.41-3.24s.35-2.88.41-3.64a4.36,4.36,0,0,0,0-1.36,3.11,3.11,0,0,0-.45-.92,2.09,2.09,0,0,0-.91-.74,12.32,12.32,0,0,0-1.56-.54,2.7,2.7,0,0,1-1.73-1.23,3.72,3.72,0,0,1-.33-2.29,6.38,6.38,0,0,1,.91-2.55,11,11,0,0,1,2.22-2.54,27,27,0,0,1,3.58-2.61,35.77,35.77,0,0,1,4.49-2.32,22.22,22.22,0,0,1,3.45-1.16,18.44,18.44,0,0,1,3.3-.49,7,7,0,0,1,5.39,1.59,6.75,6.75,0,0,1,1.85,5.13c0,.22,0,.49,0,.79s-.07.62-.12,1c-.11.66,0,1,.37,1.09s.72-.24,1.11-.91a21,21,0,0,1,6.05-7.26,14.33,14.33,0,0,1,7.78-2.64q6.42-.32,9.22,4.28t1.64,13c-.11,1-.27,2.06-.49,3.19s-.52,2.85-.91,5.11c-.32,1.88-.56,3.25-.7,4.11s-.29,1.61-.37,2.2a8.87,8.87,0,0,0,0,1.61,2.54,2.54,0,0,0,.29,1.09,2.21,2.21,0,0,0,.62.75,2.6,2.6,0,0,0,1,.41,7,7,0,0,1,1.15.36,1.9,1.9,0,0,1,.57.38,2.66,2.66,0,0,1,1,1.27,4.21,4.21,0,0,1,0,1.81c-.33,2.26-1.93,4.24-4.81,5.91A22.46,22.46,0,0,1,592,167.44q-5.52.27-7.62-1.85t-1.27-7.68l.57-3.56q.33-2.08,1.15-6.24c.38-1.88.65-3.21.79-4s.23-1.38.29-1.82q.57-4.06-.46-6a3.48,3.48,0,0,0-3.58-1.84,3.42,3.42,0,0,0-2.59,1.36,8.82,8.82,0,0,0-1.52,4c-.28,1.49-.55,3.14-.83,4.94s-.57,3.88-.9,6.25c-.11.73-.33,2.38-.66,5S574.8,160.16,574.69,160.88Z" transform="translate(0 -2.25)"/><path class="cls-1" d="M664.42,155.11a20.49,20.49,0,0,1-8.11,7,27.42,27.42,0,0,1-11.48,3.13q-6,.27-8.81-2.47c-1.87-1.83-2.8-4.81-2.8-8.92,0-.72,0-1.51.08-2.4s.16-1.91.33-3.06.33-2.12.49-3.23.43-2.69.75-4.73c.28-1.86.47-3.23.61-4.06s.23-1.58.29-2.24a1.7,1.7,0,0,0-.16-1.1.82.82,0,0,0-.74-.34h-.25c-2.09.1-3.49-.4-4.2-1.49s-.88-2.94-.49-5.54a11.11,11.11,0,0,1,1.72-5,5.51,5.51,0,0,1,3.54-2.1,1,1,0,0,0,.33-.06,2.11,2.11,0,0,1,.41-.06,1.81,1.81,0,0,0,.46-.06.82.82,0,0,1,.28,0,3.24,3.24,0,0,0,1.69-.82,4.32,4.32,0,0,0,.95-2,17.79,17.79,0,0,1,.62-2.13c.19-.53.39-1.05.62-1.55a8.07,8.07,0,0,1,2.51-3,38.67,38.67,0,0,1,5.72-3.27l4.77-2.37a4.08,4.08,0,0,1,3.42-.4,2,2,0,0,1,1.11,2.34c-.22,1.48-.44,2.93-.66,4.31s-.49,3.12-.82,5.22a2.05,2.05,0,0,0,.16,1.48,1.45,1.45,0,0,0,1.32.43l3.41-.16,3.42-.16c1.7-.07,2.8.47,3.29,1.62s.46,3-.16,5.49a15.74,15.74,0,0,1-2.59,5.88,4.94,4.94,0,0,1-3.67,2.14l-2.34.11-2.35.11a3.59,3.59,0,0,0-2.26.68,3.21,3.21,0,0,0-1,1.94c-.34,1.91-.6,3.95-.82,6s-.36,3.83-.41,5.21v.24a5.59,5.59,0,0,0,1.07,3.78,3.64,3.64,0,0,0,3.12,1.13,6.67,6.67,0,0,0,1.77-.33,15.61,15.61,0,0,0,1.94-.74,3.88,3.88,0,0,1,.86-.37,3.34,3.34,0,0,1,.78-.12,2.67,2.67,0,0,1,2.72,1.93A4.19,4.19,0,0,1,664.42,155.11Z" transform="translate(0 -2.25)"/><path class="cls-1" d="M687.71,155.38a8.36,8.36,0,0,1-4.15,6c-2.39,1.47-5.64,2.31-9.76,2.49a6.59,6.59,0,0,1-4.32-1,3.8,3.8,0,0,1-1.44-3.36,28,28,0,0,1,.41-3.47c.27-1.71.8-5,1.65-9.79.57-3.25,1-5.7,1.31-7.3s.5-3,.66-4.23q1.32-8.3,2-12.85c.44-3,.81-5.67,1-7.78a10.36,10.36,0,0,0,0-1.86,3.75,3.75,0,0,0-.5-1.41,2.16,2.16,0,0,0-.9-.87,7.47,7.47,0,0,0-1.73-.66,3.6,3.6,0,0,1-2.23-1.47,4.1,4.1,0,0,1-.41-2.77,4.82,4.82,0,0,1,1.16-2.36,13.82,13.82,0,0,1,2.71-2.43,26.59,26.59,0,0,1,2.72-1.52,31.92,31.92,0,0,1,3.21-1.38,31.35,31.35,0,0,1,4.49-1.31,24.48,24.48,0,0,1,4.15-.56c3-.13,5.06.64,6.14,2.32s1.33,4.65.78,8.9c-.06.66-.14,1.36-.25,2.11s-.41,2.61-.9,5.6c-.06.44-.13.89-.21,1.36S693,117,692.82,118c-.3,1.51-.48,2.71-.62,3.48s-.27,1.47-.37,2.08a1.83,1.83,0,0,0,0,.82c0,.16.22.24.49.22a.76.76,0,0,0,.5-.23,2.46,2.46,0,0,0,.49-.63,21,21,0,0,1,6.09-7.14,14.64,14.64,0,0,1,7.9-2.61q6.35-.27,9.14,4.26t1.57,13c-.11,1-.26,2.06-.46,3.19s-.53,2.85-.94,5.11c-.35,1.86-.57,3.24-.7,4.1s-.29,1.61-.37,2.2a8,8,0,0,0,0,1.6,2.55,2.55,0,0,0,.28,1.1,2.25,2.25,0,0,0,.62.76,2.68,2.68,0,0,0,1,.41,7,7,0,0,1,1.15.36,2.11,2.11,0,0,1,.58.39,2.84,2.84,0,0,1,1,1.27,4.39,4.39,0,0,1,0,1.81q-.49,3.41-4.82,5.89A22.4,22.4,0,0,1,705,162.19c-3.68.16-6.21-.47-7.61-1.89s-1.83-4-1.28-7.68c.16-1,.37-2.18.62-3.57s.59-3.49,1.11-6.22c.35-1.86.64-3.21.78-4s.23-1.38.29-1.82q.57-4.05-.45-6a3.53,3.53,0,0,0-3.59-1.86,3.43,3.43,0,0,0-2.59,1.35,8.85,8.85,0,0,0-1.52,3.93c-.28,1.5-.55,3.14-.82,4.94s-.59,3.89-.91,6.25c-.56,4.18-.89,6.77-1,7.71S687.77,154.94,687.71,155.38Z" transform="translate(0 -2.25)"/><path class="cls-1" d="M766.08,146.29a20.16,20.16,0,0,1-8.15,10.23,26.27,26.27,0,0,1-14,4.38q-10.55.42-16-5.77t-4-17a29,29,0,0,1,9.92-18.44,30.74,30.74,0,0,1,19.63-7.86q8.07-.32,12.23,3.52c2.77,2.56,3.76,6.21,3.08,10.87A14.46,14.46,0,0,1,762,136.73q-6,3.86-16,4.25l-.5,0-.49,0c-1,0-1.62.26-1.89.65s-.22,1.05.16,2a5.32,5.32,0,0,0,2.84,2.85,11.55,11.55,0,0,0,5.23.78,10.64,10.64,0,0,0,4.77-1.42,19.39,19.39,0,0,0,4.69-3.8,4,4,0,0,1,1.16-.87,3.36,3.36,0,0,1,1.31-.3,2.83,2.83,0,0,1,2.68,1.54A4.39,4.39,0,0,1,766.08,146.29Zm-23.21-14.82a3.26,3.26,0,0,0,.25,2.22,1.53,1.53,0,0,0,1.48.76h.33a9,9,0,0,0,7.49-7,4.07,4.07,0,0,0-.54-3.19,2.91,2.91,0,0,0-2.59-1q-2.14.09-4,2.59A12.76,12.76,0,0,0,742.87,131.47Z" transform="translate(0 -2.25)"/><path class="cls-1" d="M815.8,150.7a16,16,0,0,1-5.27,5.56,13.87,13.87,0,0,1-7.08,2.18q-8,.27-11.52-5.86c-2.36-4.08-3-9.88-2-17.3,1.13-7.81,3.52-14,7.08-18.36A17.34,17.34,0,0,1,810.37,110a13.27,13.27,0,0,1,6.67,1.35,9.1,9.1,0,0,1,4.11,4.23,2.41,2.41,0,0,0,.54.72.89.89,0,0,0,.62.23,1.07,1.07,0,0,0,.53-.14,2.49,2.49,0,0,0,.45-.39l1-1a7,7,0,0,1,.66-.59,22.26,22.26,0,0,1,5.56-4,13.74,13.74,0,0,1,5.64-1.41,4.7,4.7,0,0,1,4.07,1.72,6.24,6.24,0,0,1,1,4.87c-.06.66-.15,1.45-.29,2.36s-.34,2.19-.62,3.84c-.11.56-.56,3.23-1.35,8s-1.39,8.63-1.77,11.5a9.85,9.85,0,0,0,0,1.6,2.5,2.5,0,0,0,.28,1.11,2.46,2.46,0,0,0,.62.76,2.87,2.87,0,0,0,.95.42,7.55,7.55,0,0,1,1.15.38,2.11,2.11,0,0,1,.58.39,2.93,2.93,0,0,1,1,1.29,4.38,4.38,0,0,1,0,1.81q-.5,3.39-4.82,5.82a22.13,22.13,0,0,1-10.33,2.63q-4.77.15-7.08-1.46a5.84,5.84,0,0,1-2.3-5.15,2,2,0,0,0-.13-.78.39.39,0,0,0-.37-.28,1,1,0,0,0-.49.18A2,2,0,0,0,815.8,150.7Zm-6.83-16c-.45,3.12-.22,5.57.66,7.3A4.34,4.34,0,0,0,814,144.5a3.85,3.85,0,0,0,2.84-1.29,7.35,7.35,0,0,0,1.52-3.63c.26-1.36.55-3,.83-4.92s.57-4.55,1-7.81a3.69,3.69,0,0,0-.7-2.95,3.19,3.19,0,0,0-2.68-1.06q-2.88.09-4.94,3.21A21.35,21.35,0,0,0,809,134.71Z" transform="translate(0 -2.25)"/><path class="cls-1" d="M874.33,94.65c-.39,3.12-2.47,5.89-6.25,8.27a23.92,23.92,0,0,1-12.27,3.75,6.73,6.73,0,0,1-5.23-1.79,5.61,5.61,0,0,1-1.44-4.94q.66-4.69,6.1-8.53a21,21,0,0,1,11.27-4c2.85-.12,5,.42,6.3,1.65S874.65,92.12,874.33,94.65ZM872,148.13q-.59,3.56-4.78,6a21.85,21.85,0,0,1-10.45,2.59c-3.79.11-6.45-.63-8-2.2s-2-4.13-1.49-7.65q.49-3.22,1.24-7c.49-2.53.77-4,.82-4.3q.5-2.82.78-4.71c.2-1.27.29-2.51.37-3.64a5.42,5.42,0,0,0,0-1.44,3.14,3.14,0,0,0-.45-1,2.38,2.38,0,0,0-.78-.72,4.21,4.21,0,0,0-1.2-.46,3.48,3.48,0,0,1-2.14-1.21,3.41,3.41,0,0,1-.41-2.34,6.76,6.76,0,0,1,.62-2.16,10.42,10.42,0,0,1,1.69-2.27,20.84,20.84,0,0,1,4.81-3.55,29.89,29.89,0,0,1,6-2.6,22.56,22.56,0,0,1,2.39-.6,14.7,14.7,0,0,1,2.47-.27c3.07-.09,5.17.74,6.3,2.46s1.44,4.66.94,8.79c-.11.93-.26,2-.45,3.26s-.62,3.76-1.28,7.57c-.76,4.41-1.22,7.07-1.36,8s-.24,1.56-.28,1.94a8.43,8.43,0,0,0,0,1.56,2.67,2.67,0,0,0,.28,1.15,2.23,2.23,0,0,0,.62.68,3.53,3.53,0,0,0,1,.51,11.22,11.22,0,0,1,1.15.42,4.67,4.67,0,0,1,.66.36,3,3,0,0,1,.87,1.25A3.16,3.16,0,0,1,872,148.13Z" transform="translate(0 -2.25)"/><path class="cls-1" d="M899.36,129c-.2,1.25-.41,2.52-.58,3.75s-.4,2.79-.65,4.59c-.12.82-.24,1.73-.37,2.73s-.3,2.4-.54,4.12c-.19,1.36-.36,2.33-.41,2.85s-.11.92-.17,1.2A7.8,7.8,0,0,1,892.4,154a19.47,19.47,0,0,1-9.42,2.33,7.33,7.33,0,0,1-4.69-1.12,4.15,4.15,0,0,1-1.49-3.59,27.43,27.43,0,0,1,.33-3.3c.22-1.43.74-3.89,1.4-7.28.47-2.38.76-4.17,1-5.25s.36-2,.45-2.77c.06-.48.19-1.57.41-3.22s.35-2.87.41-3.63a4.07,4.07,0,0,0,0-1.36,3,3,0,0,0-.45-.93,2.16,2.16,0,0,0-.9-.76,12.33,12.33,0,0,0-1.57-.58,2.82,2.82,0,0,1-1.73-1.27,3.8,3.8,0,0,1-.33-2.3,6.19,6.19,0,0,1,.91-2.53,10.7,10.7,0,0,1,2.22-2.49,25.29,25.29,0,0,1,3.58-2.52,32.82,32.82,0,0,1,4.49-2.2,19.67,19.67,0,0,1,3.46-1.07,17.92,17.92,0,0,1,3.29-.41,7.38,7.38,0,0,1,5.39,1.65,6.62,6.62,0,0,1,1.85,5.11,5.07,5.07,0,0,1,0,.66c0,.22,0,.65-.12,1.23a1.43,1.43,0,0,0,.08.82.51.51,0,0,0,.5.32.78.78,0,0,0,.49-.21,2.46,2.46,0,0,0,.49-.63,19.11,19.11,0,0,1,5.4-7.07,11.92,11.92,0,0,1,7.2-2.41,7.72,7.72,0,0,1,6.91,3.28c1.59,2.25,2.12,5.12,1.65,8.57a16.83,16.83,0,0,1-4,9.21,10.25,10.25,0,0,1-7.62,3.69,7,7,0,0,1-4.24-1.1,9.27,9.27,0,0,1-2.92-3.77,5.77,5.77,0,0,0-1.23-1.91,2.1,2.1,0,0,0-1.49-.58,2,2,0,0,0-1.64,1.1A9.58,9.58,0,0,0,899.36,129Z" transform="translate(0 -2.25)"/><path class="cls-1" d="M27.1,282.64a15.28,15.28,0,0,1-5.27,5.41,13.38,13.38,0,0,1-7.08,2q-8,0-11.52-6.23c-2.36-4.17-3-10-2-17.37,1.12-7.77,3.52-13.83,7.08-18.12a16.76,16.76,0,0,1,13.34-6.46,13.5,13.5,0,0,1,6.67,1.53,9.58,9.58,0,0,1,4.11,4.34,2.25,2.25,0,0,0,.54.74.9.9,0,0,0,.62.24,1.07,1.07,0,0,0,.53-.12,2.73,2.73,0,0,0,.45-.37l1-1a5.71,5.71,0,0,1,.66-.58,21.78,21.78,0,0,1,5.56-3.83,13.72,13.72,0,0,1,5.64-1.28,4.82,4.82,0,0,1,4.07,1.82,6.27,6.27,0,0,1,1,4.88c-.06.66-.15,1.45-.29,2.35s-.34,2.19-.62,3.84q-.16.83-1.35,8T48.5,273.84a13,13,0,0,0,0,1.61,2.63,2.63,0,0,0,.29,1.11,2.39,2.39,0,0,0,.62.77,2.89,2.89,0,0,0,1,.45,7.07,7.07,0,0,1,1.15.4,2.17,2.17,0,0,1,.58.41,2.85,2.85,0,0,1,1,1.3,4.36,4.36,0,0,1,0,1.81q-.49,3.39-4.82,5.73A21.65,21.65,0,0,1,38,289.81c-3.19,0-5.54-.52-7.08-1.63A6,6,0,0,1,28.58,283a2.06,2.06,0,0,0-.12-.78.41.41,0,0,0-.37-.29.88.88,0,0,0-.49.17A1.75,1.75,0,0,0,27.1,282.64Zm-6.83-16.19c-.45,3.12-.22,5.57.66,7.32a4.48,4.48,0,0,0,4.36,2.62,3.71,3.71,0,0,0,2.84-1.21,7.15,7.15,0,0,0,1.52-3.59c.26-1.35.55-3,.83-4.9s.57-4.52,1-7.78a3.73,3.73,0,0,0-.69-3,3.25,3.25,0,0,0-2.68-1.14q-2.88,0-4.94,3.07A20.78,20.78,0,0,0,20.27,266.45Z" transform="translate(0 -2.25)"/><path class="cls-1" d="M77.65,282a7.74,7.74,0,0,1-4.24,5.69A19.08,19.08,0,0,1,64,289.9a7.45,7.45,0,0,1-4.69-1.18,4.2,4.2,0,0,1-1.48-3.61,25.21,25.21,0,0,1,.33-3.29c.22-1.43.74-3.89,1.4-7.26.46-2.38.75-4.17.94-5.24s.36-2,.46-2.76c.06-.49.19-1.57.41-3.22s.35-2.87.41-3.63a4.31,4.31,0,0,0,0-1.35,3.53,3.53,0,0,0-.45-.95,2.37,2.37,0,0,0-.91-.77,14.53,14.53,0,0,0-1.56-.6,2.79,2.79,0,0,1-1.73-1.3,3.72,3.72,0,0,1-.33-2.3,6.27,6.27,0,0,1,.9-2.52,10.69,10.69,0,0,1,2.23-2.45A24.7,24.7,0,0,1,63.45,245a32.51,32.51,0,0,1,4.48-2.15,20.64,20.64,0,0,1,3.46-1,17.78,17.78,0,0,1,3.29-.38,7.25,7.25,0,0,1,5.4,1.78,7,7,0,0,1,1.85,5.2c0,.22,0,.48,0,.78s-.07.62-.13,1c-.11.66,0,1,.37,1.11s.73-.22,1.12-.88a19.92,19.92,0,0,1,6-7,13.91,13.91,0,0,1,7.77-2.39q6.42-.1,9.22,4.57t1.65,13c-.11,1-.27,2.05-.49,3.18s-.52,2.83-.91,5.08c-.32,1.87-.56,3.24-.7,4.09s-.29,1.6-.37,2.19a8,8,0,0,0,0,1.6,2.63,2.63,0,0,0,.29,1.11,2.39,2.39,0,0,0,.62.77,2.56,2.56,0,0,0,.94.43,6.42,6.42,0,0,1,1.15.4,1.82,1.82,0,0,1,.58.4,2.86,2.86,0,0,1,1,1.29,4.22,4.22,0,0,1,0,1.81c-.33,2.26-1.93,4.19-4.81,5.77a21.91,21.91,0,0,1-10.34,2.49q-5.5.09-7.61-2.1T86,279.31c.17-1,.36-2.17.58-3.55s.6-3.44,1.15-6.19c.38-1.87.65-3.19.78-4s.24-1.38.29-1.82c.39-2.69.24-4.71-.45-6a3.62,3.62,0,0,0-3.58-2,3.27,3.27,0,0,0-2.59,1.27A8.65,8.65,0,0,0,80.69,261c-.27,1.49-.55,3.12-.82,4.91s-.58,3.87-.91,6.23c-.11.72-.33,2.36-.65,5S77.76,281.27,77.65,282Z" transform="translate(0 -2.25)"/><path class="cls-1" d="M140.13,281a19.08,19.08,0,0,1-5.6,5.65,13,13,0,0,1-6.75,2q-8,.18-11.53-6.05c-2.36-4.15-3-10-2-17.38,1.12-7.79,3.52-13.92,7.12-18.33a17.14,17.14,0,0,1,13.38-6.8,12.26,12.26,0,0,1,6.17,1.3,10.68,10.68,0,0,1,4.2,4.3,1.37,1.37,0,0,0,.33.37.62.62,0,0,0,.33.11.54.54,0,0,0,.41-.21,1.56,1.56,0,0,0,.25-.55c.11-.38.28-1.36.53-2.93s.41-2.81.54-3.68a11.29,11.29,0,0,0,.08-2.88,4.62,4.62,0,0,0-.66-2,3,3,0,0,0-.7-.64,5.65,5.65,0,0,0-1.19-.63A4.41,4.41,0,0,1,143,231a3.68,3.68,0,0,1-.45-2.46,4.25,4.25,0,0,1,1.23-2.46,15,15,0,0,1,3.62-2.51c.93-.47,1.87-.89,2.8-1.27a23.54,23.54,0,0,1,2.8-.93,35.18,35.18,0,0,1,3.5-.79,24.13,24.13,0,0,1,3.09-.29c3.18-.08,5.4.79,6.66,2.63s1.6,4.74,1.07,8.69c-.28,2.14-.6,4.44-1,6.86s-1,6-1.81,10.67c-.44,2.58-.77,4.52-1,5.79s-.42,2.45-.58,3.55q-1,6-1.48,9.18c-.33,2.15-.52,3.39-.58,3.72a8,8,0,0,0-.12,1.69,2.41,2.41,0,0,0,.29,1,2.51,2.51,0,0,0,.61.77,2.69,2.69,0,0,0,.95.43,6,6,0,0,1,1.15.38,2,2,0,0,1,.58.39,2.86,2.86,0,0,1,1,1.29,4.22,4.22,0,0,1,0,1.81q-.5,3.56-4.73,6.1A20.25,20.25,0,0,1,150.58,288c-3.13.08-5.4-.4-6.83-1.43s-2.14-2.79-2.14-5.26a1.82,1.82,0,0,0-.13-.82.36.36,0,0,0-.36-.24.69.69,0,0,0-.46.18A3.6,3.6,0,0,0,140.13,281Zm-6.75-16.14c-.45,3.12-.22,5.57.66,7.31a4.4,4.4,0,0,0,4.36,2.54,3.8,3.8,0,0,0,2.84-1.27,7.27,7.27,0,0,0,1.52-3.61c.25-1.37.55-3,.82-4.92s.58-4.54,1-7.8a3.7,3.7,0,0,0-.7-2.95A3.18,3.18,0,0,0,141.2,253q-2.88.08-4.94,3.16A21.14,21.14,0,0,0,133.38,264.83Z" transform="translate(0 -2.25)"/><path class="cls-1" d="M211.58,257.06q-1,6-1.48,9.18c-.33,2.15-.53,3.4-.58,3.73a8,8,0,0,0-.12,1.69,2.46,2.46,0,0,0,.29,1,2.7,2.7,0,0,0,.57.76,2.14,2.14,0,0,0,.91.42,8.89,8.89,0,0,1,1.15.38,2.11,2.11,0,0,1,.58.39,2.76,2.76,0,0,1,1,1.29,4.37,4.37,0,0,1,0,1.81c-.39,2.42-2.07,4.48-5.07,6.17a24,24,0,0,1-11.15,2.74c-3.35.1-5.71-.7-7.08-2.42s-1.81-4.39-1.32-8c.17-1.26.4-2.79.7-4.59s.79-4.78,1.53-8.89c.47-2.69.86-4.75,1.11-6.12s.45-2.66.61-3.81q1.15-6.78,1.69-10.59c.36-2.54.55-4.29.62-5.2a4.78,4.78,0,0,0-.12-1.57,5.68,5.68,0,0,0-.62-1.38,3.32,3.32,0,0,0-.87-.71,7.84,7.84,0,0,0-1.68-.61,3.23,3.23,0,0,1-2.06-1.46,4.37,4.37,0,0,1-.33-2.83,4.9,4.9,0,0,1,.95-2.17,10.47,10.47,0,0,1,2.1-2.12,20.12,20.12,0,0,1,3.91-2.34,31.61,31.61,0,0,1,4.73-1.8c1.13-.32,2.28-.56,3.38-.76a20.84,20.84,0,0,1,3.12-.35c3.18-.1,5.4.75,6.63,2.54s1.63,4.74,1.11,8.73-1.34,9.26-2.39,15.52Z" transform="translate(0 -2.25)"/><path class="cls-1" d="M260.15,271.07A20.25,20.25,0,0,1,252,281.29a26.15,26.15,0,0,1-14,4.34q-10.55.38-16-5.87c-3.63-4.16-4.93-9.83-4-17A28.89,28.89,0,0,1,228,244.4a30.73,30.73,0,0,1,19.64-7.77q8.06-.3,12.22,3.54c2.77,2.56,3.76,6.21,3.09,10.87A14.46,14.46,0,0,1,256,261.51q-6,3.84-16,4.2l-.49,0-.49,0c-1,0-1.62.25-1.9.64s-.22,1.05.17,2a5.34,5.34,0,0,0,2.84,2.86,11.48,11.48,0,0,0,5.22.8,10.41,10.41,0,0,0,4.78-1.41,19.29,19.29,0,0,0,4.69-3.79A4,4,0,0,1,256,266a3.65,3.65,0,0,1,1.32-.29A2.82,2.82,0,0,1,260,267.2,4.39,4.39,0,0,1,260.15,271.07Zm-23.22-14.88a3.26,3.26,0,0,0,.25,2.22,1.58,1.58,0,0,0,1.48.77H239a9,9,0,0,0,7.49-7A4.07,4.07,0,0,0,246,249a2.93,2.93,0,0,0-2.59-1.06q-2.15.07-4,2.57A12.83,12.83,0,0,0,236.93,256.19Z" transform="translate(0 -2.25)"/><path class="cls-1" d="M306.58,267.08a17.64,17.64,0,0,1-7.25,11.82q-6.16,4.62-15.39,5-10.12.41-15.44-2.93c-3.53-2.23-5-5.34-4.48-9.3a6.6,6.6,0,0,1,1.85-4,5.28,5.28,0,0,1,3.58-1.58,5.15,5.15,0,0,1,2,.3,5.55,5.55,0,0,1,1.81,1.12,15.05,15.05,0,0,1,1.4,1.55c.49.61,1.07,1.35,1.73,2.2a7.34,7.34,0,0,0,2.8,2.15,7.53,7.53,0,0,0,3.45.73,3.86,3.86,0,0,0,2.43-.88,3.27,3.27,0,0,0,1.11-2.15,2.63,2.63,0,0,0-.86-2.31q-1-1-5.64-2.86l-1.65-.68q-6.58-2.7-8.76-5.87a10.82,10.82,0,0,1-1.53-7.88,16.69,16.69,0,0,1,7-11.6,26.54,26.54,0,0,1,14.86-4.74q10.13-.42,15.11,2.5t4.15,8.89a4.88,4.88,0,0,1-4.77,4.39,7.41,7.41,0,0,1-2.59-.3,6.81,6.81,0,0,1-2.19-1.23c-.49-.42-1.07-1-1.73-1.66a13.28,13.28,0,0,0-1.31-1.26,9.13,9.13,0,0,0-2.51-1.79,5.77,5.77,0,0,0-2.6-.47,3.86,3.86,0,0,0-2.38.88,3.21,3.21,0,0,0-1.16,2.14,2.12,2.12,0,0,0,.54,1.63,6.63,6.63,0,0,0,2.26,1.47c.55.25,1.36.58,2.43,1s1.69.62,1.85.67l1.4.52q6.51,2.37,8.89,5.84C306.6,260.7,307.11,263.61,306.58,267.08Z" transform="translate(0 -2.25)"/><path class="cls-1" d="M354,265a17.72,17.72,0,0,1-7.24,11.84q-6.18,4.63-15.39,5.05-10.12.43-15.44-2.88a8.83,8.83,0,0,1-4.49-9.28,6.72,6.72,0,0,1,1.86-4,5.26,5.26,0,0,1,3.58-1.59,5.06,5.06,0,0,1,2,.29,5.35,5.35,0,0,1,1.81,1.12,13.8,13.8,0,0,1,1.4,1.54c.5.61,1.07,1.35,1.73,2.19a8,8,0,0,0,6.26,2.86,3.87,3.87,0,0,0,2.43-.89,3.27,3.27,0,0,0,1.11-2.15,2.61,2.61,0,0,0-.87-2.31q-1-1-5.64-2.84l-1.64-.67q-6.58-2.67-8.77-5.84a10.8,10.8,0,0,1-1.52-7.88,16.72,16.72,0,0,1,7-11.62,26.6,26.6,0,0,1,14.86-4.8q10.13-.43,15.1,2.46t4.16,8.87a5,5,0,0,1-1.57,3.11,4.89,4.89,0,0,1-3.21,1.3,7.21,7.21,0,0,1-2.59-.3,6.73,6.73,0,0,1-2.18-1.22,22.13,22.13,0,0,1-1.73-1.65,14.17,14.17,0,0,0-1.32-1.26,8.93,8.93,0,0,0-2.51-1.78,5.72,5.72,0,0,0-2.59-.46,3.89,3.89,0,0,0-2.39.89,3.15,3.15,0,0,0-1.15,2.15,2.1,2.1,0,0,0,.53,1.62,7.13,7.13,0,0,0,2.27,1.47q.83.36,2.43,1l1.85.66,1.4.51q6.49,2.34,8.89,5.82C354,258.63,354.52,261.54,354,265Z" transform="translate(0 -2.25)"/><path class="cls-1" d="M399.93,260.09a4.86,4.86,0,0,0,.82,3.13,2.92,2.92,0,0,0,2.55.9A5.74,5.74,0,0,0,408,261a21.52,21.52,0,0,0,2.6-8.36,20.11,20.11,0,0,0,.2-4,17.78,17.78,0,0,0-1.27-4.71,2.52,2.52,0,0,0-.25-.61l-1-1.72c-.43-.75-.7-1.21-.78-1.4a3,3,0,0,0-.29-.53,7.59,7.59,0,0,1-.86-2.3,6.35,6.35,0,0,1,0-2.26,5.68,5.68,0,0,1,2.71-3.84,10.74,10.74,0,0,1,5.44-1.66,12.52,12.52,0,0,1,5,.67,9.7,9.7,0,0,1,3.74,2.53,11,11,0,0,1,2.76,5.8,31.45,31.45,0,0,1-.21,9.39q-1.9,13.57-9.92,21.84a27.93,27.93,0,0,1-19.3,8.79q-7.83.36-11.86-2.9t-4-10c0-.61,0-1.22.08-1.86s.11-1.28.17-1.94.15-1.3.29-2.07.35-2,.61-3.65c.34-2.09.57-3.61.7-4.52s.24-1.67.29-2.28a4.85,4.85,0,0,0,0-1.4,2.06,2.06,0,0,0-.53-1,3.65,3.65,0,0,0-.79-.66,3.52,3.52,0,0,0-1.11-.4,3.4,3.4,0,0,1-2.06-1.14,3.7,3.7,0,0,1-.49-2.37,5.54,5.54,0,0,1,.91-2.63A13.12,13.12,0,0,1,381,237a23.11,23.11,0,0,1,3.5-2.47,38.08,38.08,0,0,1,4.41-2.26,20,20,0,0,1,3.45-1.15,17.58,17.58,0,0,1,3.3-.49q4.44-.21,6.21,2.06T403,240c-.16,1.1-.35,2.35-.57,3.73s-.53,3.49-1,6.22c-.36,2.14-.66,3.74-.83,4.73s-.31,1.9-.41,2.66c-.06.54-.11,1-.16,1.49A9.09,9.09,0,0,0,399.93,260.09Z" transform="translate(0 -2.25)"/><path class="cls-1" d="M458.79,214c-.4,3.13-2.47,6-6.26,8.42a24.43,24.43,0,0,1-12.27,4,6.58,6.58,0,0,1-5.22-1.68,5.48,5.48,0,0,1-1.44-4.91c.43-3.15,2.47-6,6.09-8.66A21.51,21.51,0,0,1,451,206.9c2.84-.18,4.95.31,6.29,1.5S459.1,211.48,458.79,214Zm-2.31,53.54q-.57,3.57-4.77,6.08a22.39,22.39,0,0,1-10.46,2.82q-5.69.27-8-2c-1.54-1.54-2-4.09-1.49-7.63q.51-3.22,1.24-7c.49-2.55.77-4,.82-4.32.33-1.88.59-3.46.79-4.73s.29-2.51.37-3.64a4.94,4.94,0,0,0-.05-1.44,3,3,0,0,0-.45-1,2.08,2.08,0,0,0-.78-.7,4.23,4.23,0,0,0-1.19-.44,3.26,3.26,0,0,1-2.14-1.17A3.36,3.36,0,0,1,430,240a6.9,6.9,0,0,1,.62-2.17,11.33,11.33,0,0,1,1.69-2.3,21.5,21.5,0,0,1,4.81-3.65,30.87,30.87,0,0,1,6-2.72,20.47,20.47,0,0,1,2.39-.65,14.94,14.94,0,0,1,2.47-.33q4.6-.23,6.3,2.32c1.12,1.7,1.44,4.62.94,8.76-.11.94-.26,2-.45,3.28s-.61,3.78-1.27,7.59c-.77,4.43-1.23,7.1-1.36,8s-.25,1.58-.29,2a8.52,8.52,0,0,0,0,1.57,2.46,2.46,0,0,0,.29,1.14,2.17,2.17,0,0,0,.61.67,3.54,3.54,0,0,0,1,.48,10,10,0,0,1,1.16.4,4.22,4.22,0,0,1,.65.34,2.79,2.79,0,0,1,.87,1.23A3.14,3.14,0,0,1,456.48,267.55Z" transform="translate(0 -2.25)"/><path class="cls-1" d="M483.81,247.75c-.2,1.26-.41,2.54-.57,3.78s-.4,2.79-.66,4.6c-.12.82-.24,1.74-.37,2.74s-.29,2.4-.54,4.14c-.19,1.36-.36,2.33-.41,2.86s-.11.92-.16,1.2a8.12,8.12,0,0,1-4.24,5.85,19.84,19.84,0,0,1-9.43,2.57,7.25,7.25,0,0,1-4.69-1,4.06,4.06,0,0,1-1.48-3.55,25.45,25.45,0,0,1,.33-3.31c.22-1.44.74-3.92,1.4-7.32.46-2.39.75-4.19.94-5.27s.36-2,.46-2.78c.06-.49.19-1.57.41-3.23s.35-2.88.41-3.65a4.29,4.29,0,0,0,0-1.35,3.59,3.59,0,0,0-.45-.93,2.27,2.27,0,0,0-.91-.73,11.11,11.11,0,0,0-1.57-.54,2.69,2.69,0,0,1-1.72-1.23,3.68,3.68,0,0,1-.33-2.29,6.35,6.35,0,0,1,.9-2.56,11.57,11.57,0,0,1,2.23-2.54,25.57,25.57,0,0,1,3.58-2.6,33.17,33.17,0,0,1,4.48-2.32,20.39,20.39,0,0,1,3.46-1.16,18.39,18.39,0,0,1,3.29-.5,7.23,7.23,0,0,1,5.39,1.51,6.45,6.45,0,0,1,1.86,5.05c0,.22,0,.44,0,.66s0,.66-.13,1.24a1.44,1.44,0,0,0,.08.82.51.51,0,0,0,.5.3.74.74,0,0,0,.49-.23,2.54,2.54,0,0,0,.5-.64,19.8,19.8,0,0,1,5.39-7.22,12.37,12.37,0,0,1,7.2-2.63,7.53,7.53,0,0,1,6.92,3.07c1.59,2.2,2.12,5.06,1.64,8.52a17.33,17.33,0,0,1-4,9.34,10.59,10.59,0,0,1-7.61,3.92,6.85,6.85,0,0,1-4.24-1,8.85,8.85,0,0,1-2.93-3.69,5.49,5.49,0,0,0-1.23-1.87,2,2,0,0,0-1.48-.54,2,2,0,0,0-1.65,1.15A10,10,0,0,0,483.81,247.75Z" transform="translate(0 -2.25)"/><path class="cls-1" d="M562.1,245.33c-.33,2-.59,3.76-.78,5.14s-.4,2.78-.54,4.15a9.82,9.82,0,0,0,0,1.6,2.54,2.54,0,0,0,.29,1.1,2.42,2.42,0,0,0,.61.75,2.87,2.87,0,0,0,1,.41,7.2,7.2,0,0,1,1.15.35,2,2,0,0,1,.58.39,2.7,2.7,0,0,1,1,1.26,4.21,4.21,0,0,1,0,1.81c-.33,2.32-1.93,4.34-4.82,6a21.72,21.72,0,0,1-10.33,2.86c-3.26.14-5.65-.42-7.08-1.58S541,266.3,541,263.17a1.3,1.3,0,0,0-.16-.73.53.53,0,0,0-.49-.22,1,1,0,0,0-.54.23,2.06,2.06,0,0,0-.53.64,22.31,22.31,0,0,1-6.63,7.13,16.68,16.68,0,0,1-8.11,2.42q-6.09.3-9.06-3.46t-2.14-10.8l.54-4c.19-1.41.5-3.37,1-5.85.32-1.82.54-3.1.65-3.82s.2-1.33.25-1.82a4.51,4.51,0,0,0,0-1.4,2.06,2.06,0,0,0-.53-1,3.6,3.6,0,0,0-.79-.66,3.52,3.52,0,0,0-1.11-.4,3.34,3.34,0,0,1-2.06-1.13,3.68,3.68,0,0,1-.49-2.37,5.58,5.58,0,0,1,.91-2.63,13.4,13.4,0,0,1,2.38-2.8,22.42,22.42,0,0,1,3.5-2.48,38.14,38.14,0,0,1,4.41-2.27,21,21,0,0,1,3.45-1.17,18.44,18.44,0,0,1,3.3-.49q4.44-.23,6.25,2t1.07,7.32c-.11.88-.26,1.92-.45,3.11s-.44,3.11-.86,5.6c-.39,2.29-.75,4.08-.91,5.27s-.35,2.27-.49,3.2a9.38,9.38,0,0,0,.53,5.69,3.35,3.35,0,0,0,3.42,1.85,4.2,4.2,0,0,0,3.08-1.48,8.31,8.31,0,0,0,1.69-3.95c.16-.83.37-1.91.62-3.24s.47-2.81.7-4.4c.1-.71.19-1.38.25-2s.08-1.15.08-1.65a4,4,0,0,0-.17-1.18,2.81,2.81,0,0,0-.57-1,4.42,4.42,0,0,0-.78-.71,4.87,4.87,0,0,0-1.12-.52,2.69,2.69,0,0,1-1.64-1.19,3.92,3.92,0,0,1-.41-2.33,6.42,6.42,0,0,1,.94-2.72,12.42,12.42,0,0,1,2.27-2.7,20,20,0,0,1,3.54-2.57,36.74,36.74,0,0,1,4.28-2.18,21.27,21.27,0,0,1,3.45-1.17,18.44,18.44,0,0,1,3.3-.49q4.53-.22,6.34,2t1.07,7.32c-.11.66-.33,2.1-.66,4.31S562.7,241.57,562.1,245.33Z" transform="translate(0 -2.25)"/><path class="cls-1" d="M611.08,252.48a17.83,17.83,0,0,1-7.25,11.88q-6.17,4.65-15.39,5.11-10.12.5-15.44-2.78t-4.48-9.25a6.68,6.68,0,0,1,1.85-4,5.33,5.33,0,0,1,3.58-1.62,5.14,5.14,0,0,1,2,.28,5.47,5.47,0,0,1,1.81,1.1,14.85,14.85,0,0,1,1.4,1.54c.49.6,1.07,1.34,1.73,2.18a7.28,7.28,0,0,0,2.8,2.12,7.5,7.5,0,0,0,3.45.7,3.87,3.87,0,0,0,2.43-.9,3.3,3.3,0,0,0,1.11-2.16,2.6,2.6,0,0,0-.86-2.3q-1-1-5.64-2.81l-1.65-.66q-6.59-2.64-8.76-5.78a10.78,10.78,0,0,1-1.53-7.87,16.91,16.91,0,0,1,7-11.67,26.59,26.59,0,0,1,14.86-4.88q10.13-.5,15.11,2.39t4.15,8.86a4.92,4.92,0,0,1-4.77,4.42,7.29,7.29,0,0,1-2.6-.28,7,7,0,0,1-2.18-1.21c-.49-.42-1.07-1-1.73-1.65a11.65,11.65,0,0,0-1.31-1.25,8.81,8.81,0,0,0-2.51-1.77,5.63,5.63,0,0,0-2.6-.45,3.82,3.82,0,0,0-2.38.9,3.21,3.21,0,0,0-1.16,2.15,2.09,2.09,0,0,0,.54,1.62,6.79,6.79,0,0,0,2.26,1.46c.55.24,1.36.56,2.43.95l1.85.65,1.4.51q6.51,2.31,8.89,5.78C611.1,246.1,611.61,249,611.08,252.48Z" transform="translate(0 -2.25)"/><path class="cls-1" d="M669.85,256.39a20.49,20.49,0,0,1-8.11,7,27.52,27.52,0,0,1-11.48,3.12c-4,.19-6.94-.64-8.81-2.47s-2.8-4.8-2.8-8.92c0-.72,0-1.51.09-2.39s.15-1.91.32-3.07.33-2.12.5-3.23.43-2.69.74-4.72c.29-1.87.48-3.24.62-4.07s.22-1.58.29-2.23a1.71,1.71,0,0,0-.17-1.11.77.77,0,0,0-.74-.33h-.25c-2.08.1-3.48-.4-4.2-1.49s-.87-2.94-.49-5.53a11.18,11.18,0,0,1,1.73-5,5.46,5.46,0,0,1,3.54-2.1,1.91,1.91,0,0,0,.33-.06,1.22,1.22,0,0,1,.41-.06,1.71,1.71,0,0,0,.45-.06.83.83,0,0,1,.29-.06,3.28,3.28,0,0,0,1.69-.82,4.14,4.14,0,0,0,.94-2c.22-.88.43-1.6.62-2.13s.4-1,.62-1.55a8.35,8.35,0,0,1,2.51-3,40.59,40.59,0,0,1,5.72-3.27l4.78-2.36a4.06,4.06,0,0,1,3.41-.4,2,2,0,0,1,1.11,2.33c-.21,1.49-.44,2.93-.65,4.32s-.5,3.12-.83,5.22a2,2,0,0,0,.17,1.47,1.41,1.41,0,0,0,1.31.44l3.42-.16,3.42-.15c1.7-.08,2.8.46,3.29,1.62s.45,3-.17,5.48a15.74,15.74,0,0,1-2.59,5.88,4.92,4.92,0,0,1-3.66,2.14l-2.35.11-2.34.11a3.62,3.62,0,0,0-2.27.68,3.26,3.26,0,0,0-1,1.93c-.34,1.92-.6,3.95-.82,6s-.36,3.83-.41,5.2v.25a5.67,5.67,0,0,0,1.07,3.78,3.69,3.69,0,0,0,3.13,1.13,6.67,6.67,0,0,0,1.77-.33,15.49,15.49,0,0,0,1.93-.74,3.75,3.75,0,0,1,.87-.37,3.18,3.18,0,0,1,.78-.12,2.67,2.67,0,0,1,2.72,1.94A4.2,4.2,0,0,1,669.85,256.39Z" transform="translate(0 -2.25)"/><path class="cls-1" d="M714.14,257.2q-7.32,6.85-18.44,7.34-11.52.49-17.45-5.61c-4-4.07-5.47-9.77-4.53-17a30.06,30.06,0,0,1,9.14-18.52,27.45,27.45,0,0,1,18.27-7.72q11.11-.48,17.25,6T723,238.84Q721.46,250.33,714.14,257.2Zm-12.76-7.89a21.15,21.15,0,0,0,2.55-8.18c.65-4.52.69-7.85.09-10s-1.87-3.13-3.79-3c-1.76.08-3.25,1.2-4.49,3.37a25.64,25.64,0,0,0-2.67,9c-.57,4.06-.5,7.08.16,9s1.89,2.84,3.71,2.76S700.17,251.23,701.38,249.31Z" transform="translate(0 -2.25)"/><path class="cls-1" d="M786.91,244.91a17.56,17.56,0,0,1-7.24,11.78q-6.18,4.59-15.4,4.94-10.12.39-15.43-2.94a8.83,8.83,0,0,1-4.49-9.28,6.69,6.69,0,0,1,1.85-4,5.29,5.29,0,0,1,3.59-1.58,5.06,5.06,0,0,1,2,.29,5.76,5.76,0,0,1,1.81,1.13,13.13,13.13,0,0,1,1.4,1.55c.5.61,1.07,1.35,1.73,2.19a7.44,7.44,0,0,0,2.8,2.16,7.55,7.55,0,0,0,3.46.73,3.8,3.8,0,0,0,2.42-.88,3.28,3.28,0,0,0,1.12-2.14,2.64,2.64,0,0,0-.87-2.31q-1-1-5.64-2.87l-1.64-.68q-6.6-2.7-8.77-5.87a10.77,10.77,0,0,1-1.52-7.88,16.65,16.65,0,0,1,7-11.6A26.45,26.45,0,0,1,770,212.93q10.13-.37,15.11,2.57t4.16,8.91a4.88,4.88,0,0,1-4.78,4.37,7.39,7.39,0,0,1-2.59-.32,7.16,7.16,0,0,1-2.18-1.23c-.5-.43-1.07-1-1.73-1.67a13.42,13.42,0,0,0-1.32-1.27,9.19,9.19,0,0,0-2.51-1.8,5.87,5.87,0,0,0-2.59-.48,3.92,3.92,0,0,0-2.39.87A3.15,3.15,0,0,0,768,225a2.08,2.08,0,0,0,.53,1.63,6.84,6.84,0,0,0,2.27,1.48c.54.25,1.35.58,2.42,1s1.69.62,1.86.67l1.4.53c4.33,1.59,7.29,3.56,8.89,5.88S787.44,241.44,786.91,244.91Z" transform="translate(0 -2.25)"/><path class="cls-1" d="M810,252.09a8.24,8.24,0,0,1-4.15,6q-3.58,2.18-9.76,2.39a6.71,6.71,0,0,1-4.32-1,3.83,3.83,0,0,1-1.44-3.37,28,28,0,0,1,.41-3.47c.27-1.71.8-5,1.65-9.77.57-3.25,1-5.69,1.31-7.29s.5-3,.66-4.23q1.32-8.27,2-12.82c.44-3,.8-5.66,1-7.78a8.69,8.69,0,0,0,0-1.85,3.6,3.6,0,0,0-.49-1.42,2.24,2.24,0,0,0-.9-.88,7.42,7.42,0,0,0-1.73-.68,3.69,3.69,0,0,1-2.23-1.48,4.16,4.16,0,0,1-.41-2.79,4.76,4.76,0,0,1,1.16-2.34,13.77,13.77,0,0,1,2.71-2.4,25.55,25.55,0,0,1,2.72-1.5A34.47,34.47,0,0,1,801.4,194a32.4,32.4,0,0,1,4.49-1.27,24.21,24.21,0,0,1,4.15-.51q4.53-.15,6.13,2.39t.79,8.91c-.06.66-.14,1.36-.25,2.1s-.41,2.61-.9,5.59c-.06.44-.13.9-.21,1.37s-.26,1.21-.45,2.19c-.3,1.51-.48,2.71-.62,3.48s-.27,1.47-.37,2.07a1.82,1.82,0,0,0,0,.82c.05.16.22.24.49.23a.8.8,0,0,0,.5-.22,2.46,2.46,0,0,0,.49-.63,20.74,20.74,0,0,1,6.09-7.08,14.47,14.47,0,0,1,7.9-2.51q6.35-.19,9.14,4.37t1.57,13c-.11,1-.26,2.05-.46,3.18s-.53,2.85-.94,5.1c-.35,1.85-.57,3.24-.7,4.09s-.3,1.61-.37,2.2a8.84,8.84,0,0,0,0,1.6,2.54,2.54,0,0,0,.29,1.1,2.39,2.39,0,0,0,.62.77,2.87,2.87,0,0,0,.95.42,6.56,6.56,0,0,1,1.15.38,2.11,2.11,0,0,1,.58.39,2.93,2.93,0,0,1,1,1.29,4.38,4.38,0,0,1,0,1.81q-.5,3.39-4.82,5.82a22.29,22.29,0,0,1-10.33,2.63q-5.52.16-7.62-2c-1.39-1.44-1.82-4-1.27-7.7.16-1,.37-2.18.62-3.56s.59-3.49,1.11-6.21c.35-1.86.64-3.2.78-4s.23-1.37.29-1.81q.57-4.06-.46-6a3.54,3.54,0,0,0-3.58-1.9,3.33,3.33,0,0,0-2.59,1.32,8.8,8.8,0,0,0-1.52,3.92c-.28,1.49-.55,3.13-.83,4.92s-.58,3.89-.9,6.25c-.57,4.17-.89,6.75-1,7.69S810.1,251.65,810,252.09Z" transform="translate(0 -2.25)"/><path class="cls-1" d="M872.52,250.55a15.89,15.89,0,0,1-5.26,5.53,13.78,13.78,0,0,1-7.08,2.13q-8,.23-11.53-5.93c-2.36-4.1-3-9.91-2-17.31,1.13-7.8,3.52-13.94,7.08-18.32a17.18,17.18,0,0,1,13.34-6.78,13.17,13.17,0,0,1,6.67,1.39,9.19,9.19,0,0,1,4.11,4.25,2.34,2.34,0,0,0,.54.73.89.89,0,0,0,.62.23,1.06,1.06,0,0,0,.53-.13A2.84,2.84,0,0,0,880,216l1-1a7,7,0,0,1,.66-.59,22,22,0,0,1,5.56-3.92,13.92,13.92,0,0,1,5.64-1.37,4.75,4.75,0,0,1,4.07,1.76,6.26,6.26,0,0,1,1,4.88c-.05.66-.15,1.44-.29,2.35s-.34,2.19-.62,3.84c-.11.55-.56,3.23-1.35,8s-1.39,8.62-1.77,11.48a10,10,0,0,0,0,1.61,2.49,2.49,0,0,0,.28,1.1,2.39,2.39,0,0,0,.62.77,2.88,2.88,0,0,0,1,.43,6.38,6.38,0,0,1,1.15.39,1.94,1.94,0,0,1,.58.4,2.83,2.83,0,0,1,1,1.29,4.38,4.38,0,0,1,0,1.81q-.49,3.39-4.82,5.79a22,22,0,0,1-10.33,2.54q-4.77.12-7.08-1.51a5.86,5.86,0,0,1-2.3-5.16,2,2,0,0,0-.13-.78c-.08-.19-.2-.29-.37-.28a.82.82,0,0,0-.49.18A1.75,1.75,0,0,0,872.52,250.55Zm-6.83-16c-.45,3.12-.22,5.57.66,7.3a4.38,4.38,0,0,0,4.36,2.53,3.83,3.83,0,0,0,2.84-1.27,7.35,7.35,0,0,0,1.52-3.62c.26-1.36.55-3,.83-4.92s.57-4.54,1-7.8a3.7,3.7,0,0,0-.7-3,3.2,3.2,0,0,0-2.68-1.08c-1.92,0-3.57,1.1-4.94,3.17A21.19,21.19,0,0,0,865.69,234.52Z" transform="translate(0 -2.25)"/><path class="cls-1" d="M925.78,230c-.2,1.26-.41,2.52-.57,3.76s-.4,2.78-.66,4.58c-.12.82-.24,1.74-.37,2.73s-.29,2.39-.54,4.12c-.19,1.36-.35,2.33-.41,2.85s-.11.92-.16,1.19a7.79,7.79,0,0,1-4.24,5.72,19.4,19.4,0,0,1-9.43,2.29,7.34,7.34,0,0,1-4.69-1.14,4.15,4.15,0,0,1-1.48-3.59,25.49,25.49,0,0,1,.33-3.3c.22-1.43.74-3.89,1.4-7.27.46-2.38.75-4.17.94-5.25s.36-2,.46-2.76c.06-.49.19-1.57.41-3.22s.35-2.87.41-3.64a4.31,4.31,0,0,0,0-1.35,3.2,3.2,0,0,0-.45-.94,2.27,2.27,0,0,0-.91-.76,11.39,11.39,0,0,0-1.56-.59,2.76,2.76,0,0,1-1.73-1.28,3.68,3.68,0,0,1-.33-2.29,6.32,6.32,0,0,1,.9-2.53,11,11,0,0,1,2.23-2.48,24.71,24.71,0,0,1,3.58-2.5,31.55,31.55,0,0,1,4.48-2.19,21.08,21.08,0,0,1,3.46-1.06,17.82,17.82,0,0,1,3.29-.39,7.38,7.38,0,0,1,5.4,1.67,6.69,6.69,0,0,1,1.85,5.11c0,.22,0,.44,0,.66s0,.66-.13,1.24a1.37,1.37,0,0,0,.09.82.51.51,0,0,0,.49.32.77.77,0,0,0,.49-.22,2.58,2.58,0,0,0,.5-.62,18.83,18.83,0,0,1,5.39-7.05,11.94,11.94,0,0,1,7.2-2.38,7.79,7.79,0,0,1,6.92,3.31c1.59,2.25,2.12,5.13,1.64,8.58a16.66,16.66,0,0,1-4,9.19A10.16,10.16,0,0,1,938.3,233a7.1,7.1,0,0,1-4.24-1.12,9.22,9.22,0,0,1-2.92-3.78,5.78,5.78,0,0,0-1.24-1.91,2,2,0,0,0-1.48-.59,2,2,0,0,0-1.65,1.09A9.81,9.81,0,0,0,925.78,230Z" transform="translate(0 -2.25)"/><path class="cls-1" d="M992.71,242.36a19.4,19.4,0,0,1-8.15,10,25.64,25.64,0,0,1-14,4q-10.55.12-16-6.22c-3.63-4.24-4.93-9.93-4-17.07a28.13,28.13,0,0,1,9.92-18.16,29.83,29.83,0,0,1,19.64-7.29q8.07-.08,12.22,3.89c2.77,2.65,3.76,6.33,3.09,11a13.91,13.91,0,0,1-6.92,10.26q-6,3.66-16,3.76h-1c-1,0-1.62.21-1.9.59s-.22,1,.17,2a5.55,5.55,0,0,0,2.84,2.94,11.92,11.92,0,0,0,5.23.93,10.39,10.39,0,0,0,4.77-1.27,18.62,18.62,0,0,0,4.69-3.67,4,4,0,0,1,1.15-.83,3.45,3.45,0,0,1,1.32-.25,2.93,2.93,0,0,1,2.68,1.62A4.4,4.4,0,0,1,992.71,242.36ZM969.5,226.85a3.18,3.18,0,0,0,.24,2.21,1.6,1.6,0,0,0,1.49.81h.32A8.63,8.63,0,0,0,979,223a4.12,4.12,0,0,0-.53-3.2,3,3,0,0,0-2.59-1.13q-2.14,0-4,2.47A12.38,12.38,0,0,0,969.5,226.85Z" transform="translate(0 -2.25)"/><path class="cls-1" d="M1014.94,229a3.92,3.92,0,0,1-1.07.91,2.51,2.51,0,0,1-1.16.25,1.82,1.82,0,0,1-1-.29,4.16,4.16,0,0,1-.94-.85q-2.72-3.78-5-12.42c-1.51-5.75-2-10.45-1.53-14.07a13.24,13.24,0,0,1,5-9q4.15-3.22,10.91-3.24c3.46,0,6,.83,7.49,2.5s2,4.18,1.57,7.45a50.78,50.78,0,0,1-5.35,15.64A54.4,54.4,0,0,1,1014.94,229Zm8.47,14.55a14.26,14.26,0,0,1-5.51,9.23,16.41,16.41,0,0,1-10.54,3.82c-3.46,0-6.06-.85-7.82-2.59s-2.42-4.12-2-7.07a14.93,14.93,0,0,1,5.55-9.25,16.5,16.5,0,0,1,10.5-4.08,10,10,0,0,1,7.61,2.7A8.18,8.18,0,0,1,1023.41,243.55Z" transform="translate(0 -2.25)"/><path class="cls-2" d="M2.76,341.69c91.9-.61,165.61-2.93,211.7-4.68,252.57-9.58,366.93-28.18,621.06-36.53,73.76-2.43,133-3.13,166.53-3.37" transform="translate(0 -2.25)"/><path class="cls-2" d="M2.76,358.64c91.9-.61,165.61-2.93,211.7-4.68,252.57-9.57,366.93-28.17,621.06-36.53,73.76-2.43,133-3.12,166.53-3.37" transform="translate(0 -2.25)"/><path class="cls-1" d="M150.42,50.27a4.94,4.94,0,0,1-1.3.36,13.66,13.66,0,0,1-1.88.11,9.87,9.87,0,0,1-2.24-.19,3.9,3.9,0,0,1-1.36-.59,5.66,5.66,0,0,1-1.06-1.23,29.78,29.78,0,0,1-1.75-3.31q-1.25-2.55-3.26-7.59t-3.2-8.62a5.8,5.8,0,0,0-.5-1.17,6.24,6.24,0,0,0-.7-1,4.46,4.46,0,0,0-.58-.57c-.21-.18-.48-.38-.83-.63a2.65,2.65,0,0,1-1-1.07,3.43,3.43,0,0,1-.28-1.48,2.25,2.25,0,0,1,.62-1.57,3.71,3.71,0,0,1,1.77-1,23,23,0,0,1,3.5-.67,35.33,35.33,0,0,1,4.11-.21,33.31,33.31,0,0,1,4.07.21,14.48,14.48,0,0,1,2.92.62,3.41,3.41,0,0,1,1.62,1,2.57,2.57,0,0,1,.52,1.64,3.2,3.2,0,0,1-.24,1.35,3,3,0,0,1-.86,1.05c-.45.35-.75.6-.91.75a3.65,3.65,0,0,0-.39.45,1.84,1.84,0,0,0-.31.54,1.77,1.77,0,0,0-.11.6,3,3,0,0,0,.08.45c.05.22.13.51.23.86q.42,1.24,1.2,3.15c.52,1.27,1.22,2.82,2.09,4.67a1.23,1.23,0,0,0,.29.41.43.43,0,0,0,.28.11.62.62,0,0,0,.37-.13,1.39,1.39,0,0,0,.31-.55c.52-1.22,1-2.42,1.43-3.62s.79-2.32,1.07-3.37a2.61,2.61,0,0,0,.13-.59c0-.2,0-.45,0-.76a3.24,3.24,0,0,0-.13-.89,2.28,2.28,0,0,0-.34-.68,9.25,9.25,0,0,0-.68-.7l-.62-.55a2.59,2.59,0,0,1-.81-1,3.48,3.48,0,0,1-.24-1.38,2.7,2.7,0,0,1,.52-1.67,3.65,3.65,0,0,1,1.62-1.1,11.56,11.56,0,0,1,2.71-.67,30,30,0,0,1,4-.21,30.47,30.47,0,0,1,3.86.21,11.45,11.45,0,0,1,2.71.62,2.42,2.42,0,0,1,1.25,1,3,3,0,0,1,.42,1.64,3.62,3.62,0,0,1-.24,1.4,2.41,2.41,0,0,1-.86,1.05,5,5,0,0,0-.78.73,3.66,3.66,0,0,0-.52.78,2,2,0,0,0-.21.49,3.28,3.28,0,0,0-.05.6,2.65,2.65,0,0,0,.05.5c0,.16.09.34.16.55.28.8.65,1.78,1.12,2.94s1.12,2.72,2,4.67a1.59,1.59,0,0,0,.28.44.39.39,0,0,0,.29.13.52.52,0,0,0,.36-.13,1.38,1.38,0,0,0,.32-.55c.48-1,.94-2.12,1.38-3.33s.82-2.44,1.17-3.65c.07-.28.12-.54.16-.78a6.11,6.11,0,0,0,.05-.73,2.58,2.58,0,0,0-.11-.73,2.44,2.44,0,0,0-.26-.63,3.24,3.24,0,0,0-.47-.57c-.17-.18-.48-.45-.93-.84a2.71,2.71,0,0,1-.81-1,3.23,3.23,0,0,1-.24-1.35,2.49,2.49,0,0,1,.6-1.72,4.25,4.25,0,0,1,2-1.1,11.47,11.47,0,0,1,2.13-.44,24.4,24.4,0,0,1,2.77-.13,24.11,24.11,0,0,1,2.63.13,10.22,10.22,0,0,1,2,.39,3.72,3.72,0,0,1,1.67,1,2.31,2.31,0,0,1,.57,1.59,2.87,2.87,0,0,1-.29,1.33,3.88,3.88,0,0,1-1,1.12,4.1,4.1,0,0,0-.71.65,4.65,4.65,0,0,0-.49.7c-.14.28-.31.63-.5,1s-.39.91-.6,1.46q-3.49,9.07-4.43,11.29c-.62,1.48-1.22,2.81-1.77,4a28.59,28.59,0,0,1-1.9,3.52,6.51,6.51,0,0,1-1.54,1.59,5,5,0,0,1-1.64.75,7.68,7.68,0,0,1-2,.24,10.2,10.2,0,0,1-2.4-.26,4.85,4.85,0,0,1-1.77-.84,5.29,5.29,0,0,1-1.15-1.2,20.15,20.15,0,0,1-1.45-2.71c-.67-1.32-1.22-2.48-1.67-3.49s-.82-1.88-1.1-2.61a1.81,1.81,0,0,0-.28-.49.54.54,0,0,0-.4-.13.59.59,0,0,0-.41.13,1.85,1.85,0,0,0-.37.49,5.55,5.55,0,0,1-.26.58c-.1.21-.26.55-.47,1L155.32,43c-.21.46-.43,1-.68,1.48a24.08,24.08,0,0,1-2.21,4A5.53,5.53,0,0,1,150.42,50.27Z" transform="translate(0 -2.25)"/><path class="cls-1" d="M195.3,50.48a33.89,33.89,0,0,1-4.09-.21,13,13,0,0,1-2.84-.63,2.69,2.69,0,0,1-1.2-.88,2.35,2.35,0,0,1-.42-1.41,2.72,2.72,0,0,1,.34-1.36,4.12,4.12,0,0,1,1.12-1.14c.21-.18.39-.34.55-.5a2.47,2.47,0,0,0,.39-.49,3,3,0,0,0,.31-.94,11.1,11.1,0,0,0,.16-1.41c0-1.29.06-2.35.08-3.21s0-1.65,0-2.42c0-1,0-1.8,0-2.48s-.06-1.29-.13-1.85a3.34,3.34,0,0,0-.21-.88,3.19,3.19,0,0,0-.42-.73,1.86,1.86,0,0,0-.52-.47,1.56,1.56,0,0,0-.68-.21,2.55,2.55,0,0,1-1.46-.76,2.21,2.21,0,0,1-.47-1.48,4,4,0,0,1,1-2.35,10.7,10.7,0,0,1,2.63-2.34,14,14,0,0,1,3.34-1.65,11,11,0,0,1,3.44-.59,7.4,7.4,0,0,1,2.47.36,3.63,3.63,0,0,1,1.65,1.15,5,5,0,0,1,1.14,2.27,13.83,13.83,0,0,1,.37,3.46c0,1.32,0,2.63,0,3.91s0,2.82-.08,4.59c0,.62-.05,1.05-.05,1.28V40c0,.47,0,.88.05,1.23,0,.83.08,1.41.13,1.74a2.43,2.43,0,0,0,.24.76,1.73,1.73,0,0,0,.29.36c.15.18.37.4.65.68A4.48,4.48,0,0,1,204,46a2.79,2.79,0,0,1,.24,1.22,2.37,2.37,0,0,1-.45,1.41,2.94,2.94,0,0,1-1.22,1,9.88,9.88,0,0,1-2.79.68A39.16,39.16,0,0,1,195.3,50.48Zm6.57-39.1q0,3-3.15,5.19a12.16,12.16,0,0,1-7.12,2.21,5.8,5.8,0,0,1-3.88-1.22,4.08,4.08,0,0,1-1.44-3.26c0-2,1.05-3.68,3.16-5.21a11.66,11.66,0,0,1,6.8-2.35,6.48,6.48,0,0,1,4.22,1.17A4.27,4.27,0,0,1,201.87,11.38Z" transform="translate(0 -2.25)"/><path class="cls-1" d="M228.35,45.52a13.57,13.57,0,0,1-4.61,3.65,13.13,13.13,0,0,1-5.81,1.31c-3,0-5.25-.88-6.68-2.64s-2.13-4.49-2.13-8.21c0-.76,0-1.53,0-2.32s.05-1.85.08-3.2c0-.94.05-1.62.05-2V30.93a1.15,1.15,0,0,0-.23-.78,1.22,1.22,0,0,0-.81-.32,5.2,5.2,0,0,1-.57,0,5.79,5.79,0,0,1-.68-.1,2.73,2.73,0,0,1-1.75-1.18,5.21,5.21,0,0,1-.44-2.42,9.3,9.3,0,0,1,.29-2.61,3.64,3.64,0,0,1,.91-1.61,2.49,2.49,0,0,1,.91-.6,3.63,3.63,0,0,1,1.23-.18h.62a1,1,0,0,0,.81-.32,1.18,1.18,0,0,0,.29-.83V18.21a4.55,4.55,0,0,1,.28-1.7,3.78,3.78,0,0,1,1-1.32,8.61,8.61,0,0,1,1.27-.92q.81-.5,2.58-1.38c.77-.38,1.35-.66,1.75-.83s.76-.31,1.07-.42.49-.13.73-.18a3.19,3.19,0,0,1,.62-.08,1.8,1.8,0,0,1,1.23.39,1.44,1.44,0,0,1,.44,1.12v6.67a1.34,1.34,0,0,0,.29,1,1.18,1.18,0,0,0,.86.29h5A1.84,1.84,0,0,1,228.77,22a5.91,5.91,0,0,1,.1,3.39,8.36,8.36,0,0,1-1.22,3.26,2.32,2.32,0,0,1-1.91,1.12h-3.33a1.72,1.72,0,0,0-1.23.37,1.66,1.66,0,0,0-.39,1.25v2.29c0,.94,0,1.83.08,2.66s.11,1.6.18,2.29a7.19,7.19,0,0,0,.76,2.74,1.66,1.66,0,0,0,1.48.76,3.3,3.3,0,0,0,1.07-.16,4,4,0,0,0,1-.52,6.22,6.22,0,0,1,1.12-.71,1.93,1.93,0,0,1,.65-.13,2.31,2.31,0,0,1,1.62.63,2,2,0,0,1,.67,1.51,4.06,4.06,0,0,1-.26,1.41A4.17,4.17,0,0,1,228.35,45.52Z" transform="translate(0 -2.25)"/><path class="cls-1" d="M238.93,50.48a35.15,35.15,0,0,1-4.14-.21,12.94,12.94,0,0,1-2.89-.63,2.59,2.59,0,0,1-1.2-.88,2.35,2.35,0,0,1-.42-1.41,2.62,2.62,0,0,1,.34-1.36,4,4,0,0,1,1.12-1.14c.21-.18.39-.34.55-.5a3.49,3.49,0,0,0,.39-.49,3.34,3.34,0,0,0,.31-.94,13.29,13.29,0,0,0,.16-1.41c0-.83.07-2.23.1-4.2s.05-4.31.05-7.06c0-3.06,0-5.53,0-7.43s-.05-3.1-.08-3.62a10.43,10.43,0,0,0-.18-1.49,2.54,2.54,0,0,0-.4-.91,1.63,1.63,0,0,0-.62-.6,5.11,5.11,0,0,0-1-.39,3.43,3.43,0,0,1-1.72-.89,2.29,2.29,0,0,1-.52-1.61,3.11,3.11,0,0,1,1.17-2.24,11.11,11.11,0,0,1,3.26-2,14.2,14.2,0,0,1,1.51-.55,13.68,13.68,0,0,1,1.62-.39c.52-.11,1.06-.19,1.64-.26a14.26,14.26,0,0,1,1.74-.11,5.07,5.07,0,0,1,4.23,1.65c.86,1.09,1.3,2.89,1.3,5.39v3.1c0,1.06,0,2.46-.05,4.2v3.44a1.14,1.14,0,0,0,.08.55.26.26,0,0,0,.23.13.37.37,0,0,0,.23-.11,2.06,2.06,0,0,0,.34-.41,12.37,12.37,0,0,1,4.07-4.44,10.14,10.14,0,0,1,5.37-1.4,7.68,7.68,0,0,1,6.05,2.34c1.38,1.57,2.17,4,2.34,7.25.07,1.11.11,2.16.13,3.15s0,2,0,2.9-.06,2-.06,3,0,1.86.06,2.66a13.65,13.65,0,0,0,.13,1.93,2.4,2.4,0,0,0,.18.57,2,2,0,0,0,.28.36c.16.18.38.4.66.68a4.48,4.48,0,0,1,1,1.23,2.79,2.79,0,0,1,.24,1.22,2.37,2.37,0,0,1-.45,1.41,2.94,2.94,0,0,1-1.22,1,9.94,9.94,0,0,1-2.82.68,39.79,39.79,0,0,1-4.53.21,30.35,30.35,0,0,1-3.88-.19,9.91,9.91,0,0,1-2.48-.6,3,3,0,0,1-1.28-1,2.29,2.29,0,0,1-.44-1.38,3.36,3.36,0,0,1,.23-1.28,3.33,3.33,0,0,1,.81-1.07,4,4,0,0,0,.55-.54,4.78,4.78,0,0,0,.39-.55,3,3,0,0,0,.31-.94,13.29,13.29,0,0,0,.16-1.41c0-.41,0-1,0-1.61V36.56a20.05,20.05,0,0,0-.31-4,5,5,0,0,0-.94-2.25,3.32,3.32,0,0,0-1.17-.91,3.7,3.7,0,0,0-1.49-.28,3.88,3.88,0,0,0-1.61.28,1.69,1.69,0,0,0-.89.91,4.93,4.93,0,0,0-.23,1.31c-.06.62-.08,2.62-.08,6v2.79c0,.51,0,1,.05,1.38s.08.91.13,1.25a3.7,3.7,0,0,0,.23.89,1.66,1.66,0,0,0,.34.57,4.59,4.59,0,0,0,.55.52,2.32,2.32,0,0,1,.68.84,2.78,2.78,0,0,1,.21,1.15,2.47,2.47,0,0,1-.52,1.61,3.49,3.49,0,0,1-1.67,1,15.49,15.49,0,0,1-2.92.65A25.54,25.54,0,0,1,238.93,50.48Z" transform="translate(0 -2.25)"/><path class="cls-1" d="M291,50.59c-1.57,0-2.89,0-3.94-.12a21.8,21.8,0,0,1-2.74-.35,5.54,5.54,0,0,1-2.65-1.06,2.52,2.52,0,0,1-.81-2,3.64,3.64,0,0,1,.38-1.7A4.09,4.09,0,0,1,282.69,44a5.88,5.88,0,0,0,.86-.69,4.43,4.43,0,0,0,.58-.69,3.11,3.11,0,0,0,.4-.95,8,8,0,0,0,.18-1.18c0-.85.07-2.45.11-4.82s.06-4.59.06-6.71c0-4,0-6.75,0-8.38s-.05-2.81-.09-3.54a7,7,0,0,0-.17-1.24,2.69,2.69,0,0,0-.4-.84,6.65,6.65,0,0,0-.64-.75,4.64,4.64,0,0,0-.8-.63,4.08,4.08,0,0,1-1.39-1.35,3.57,3.57,0,0,1-.34-1.65,2.55,2.55,0,0,1,.92-2,5.83,5.83,0,0,1,2.82-1.15A20.35,20.35,0,0,1,287.61,7c1-.08,2.22-.11,3.61-.11s2.8,0,3.91.11a23.45,23.45,0,0,1,3.11.41A5.78,5.78,0,0,1,301,8.58a2.76,2.76,0,0,1,1,2.14,3.4,3.4,0,0,1-.26,1.38,5.29,5.29,0,0,1-1.18,1.44q-.46.41-.72.66c-.17.18-.3.3-.38.38a1.44,1.44,0,0,0-.28.4,3.33,3.33,0,0,0-.23.58,2.2,2.2,0,0,0-.15.69c0,.27,0,.57,0,.92V22.7a4,4,0,0,0,.29,1.76,1,1,0,0,0,1,.54,1.77,1.77,0,0,0,.78-.17,9,9,0,0,0,1.41-1q2.31-1.79,3.77-3c1-.79,1.86-1.53,2.63-2.22a8.8,8.8,0,0,0,1.41-1.5,2.27,2.27,0,0,0,.37-1.27,1.27,1.27,0,0,0-.14-.6,1.43,1.43,0,0,0-.49-.49,4.84,4.84,0,0,0-.43-.26,6.93,6.93,0,0,0-.95-.38A4.54,4.54,0,0,1,306.51,13a3.09,3.09,0,0,1-.54-2,2.68,2.68,0,0,1,.83-2,5.59,5.59,0,0,1,2.51-1.3,21.62,21.62,0,0,1,3.66-.6c1.44-.14,3.19-.21,5.27-.21s3.74,0,4.89.15a12.91,12.91,0,0,1,2.83.49A4.28,4.28,0,0,1,328,8.79a3.23,3.23,0,0,1,.64,2.1,3.74,3.74,0,0,1-.29,1.44,3.68,3.68,0,0,1-.81,1.21,8.93,8.93,0,0,1-.89.66,8.44,8.44,0,0,1-1.13.61A24.31,24.31,0,0,0,323.31,16a17.41,17.41,0,0,0-1.67,1.09q-1.78,1.34-2.94,2.34t-2.25,2.1a6.22,6.22,0,0,0-1.06,1.27,2,2,0,0,0-.21.92,2.27,2.27,0,0,0,.12.75,12.17,12.17,0,0,0,.86,1.61q3.4,5.7,5,8.3t2.91,4.38c.35.5.7,1,1,1.38s.71.85,1.1,1.27a12.42,12.42,0,0,0,1,1c.31.27.64.54,1,.81a4.46,4.46,0,0,1,1.24,1.3,3,3,0,0,1,.43,1.58,3.61,3.61,0,0,1-.75,2.36,4.15,4.15,0,0,1-2.3,1.33,23.49,23.49,0,0,1-3.86.6q-2.31.21-5.13.21c-2.46,0-4.27,0-5.44-.09a13.67,13.67,0,0,1-2.85-.38A3.38,3.38,0,0,1,307.66,49,3.17,3.17,0,0,1,307,47a3.45,3.45,0,0,1,.12-1,8.18,8.18,0,0,1,.92-1.67,6.45,6.45,0,0,0,.86-1.5,3,3,0,0,0,.12-.87,3.14,3.14,0,0,0-.12-.83,5.8,5.8,0,0,0-.34-1c-.16-.35-.42-.89-.81-1.62l-.63-1.21c-.31-.53-.68-1.13-1.1-1.78s-.84-1.29-1.26-1.9a6.61,6.61,0,0,0-.38-.55c-.21-.29-.37-.51-.49-.66a3.28,3.28,0,0,0-.66-.61,1.24,1.24,0,0,0-.66-.2,1.93,1.93,0,0,0-.93.26,15.71,15.71,0,0,0-1.38,1A4.2,4.2,0,0,0,299,34.22a4,4,0,0,0-.28,1.62v3c0,.64,0,1.11.05,1.41A7.15,7.15,0,0,0,299,41.8a4.74,4.74,0,0,0,.55,1.18c.12.15.23.3.35.43a2.42,2.42,0,0,0,.4.38,5.19,5.19,0,0,1,1.3,1.44,3.32,3.32,0,0,1,.31,1.5,2.72,2.72,0,0,1-1,2.13,5.79,5.79,0,0,1-2.76,1.21,25.58,25.58,0,0,1-3.17.4C293.87,50.55,292.54,50.59,291,50.59Z" transform="translate(0 -2.25)"/><path class="cls-1" d="M342.38,50.59a38.68,38.68,0,0,1-4.53-.23,14.62,14.62,0,0,1-3.13-.7,2.89,2.89,0,0,1-1.33-1,2.54,2.54,0,0,1-.46-1.55,2.88,2.88,0,0,1,.37-1.5,4.73,4.73,0,0,1,1.24-1.27c.23-.19.43-.37.61-.54a3.57,3.57,0,0,0,.43-.55,3.42,3.42,0,0,0,.35-1c.07-.42.13-.94.17-1.55,0-1.42.06-2.61.08-3.55s0-1.83,0-2.68q0-1.61,0-2.73a20.45,20.45,0,0,0-.14-2,3.28,3.28,0,0,0-.23-1,4.33,4.33,0,0,0-.46-.8,2.27,2.27,0,0,0-.58-.52,1.7,1.7,0,0,0-.75-.23,2.88,2.88,0,0,1-1.61-.84,2.41,2.41,0,0,1-.52-1.64A4.34,4.34,0,0,1,333,22.07a11.69,11.69,0,0,1,2.91-2.6,15.81,15.81,0,0,1,3.69-1.81,11.83,11.83,0,0,1,3.8-.66,8.07,8.07,0,0,1,2.73.4,4,4,0,0,1,1.82,1.27,5.68,5.68,0,0,1,1.27,2.5,16.26,16.26,0,0,1,.4,3.83c0,1.46,0,2.91,0,4.33s-.05,3.11-.09,5.07c0,.69,0,1.16,0,1.41V39c0,.52,0,1,0,1.35a18.82,18.82,0,0,0,.15,1.93,1.87,1.87,0,0,0,.58,1.24c.17.19.41.44.71.75A5.08,5.08,0,0,1,352,45.6a3.23,3.23,0,0,1,.26,1.36,2.67,2.67,0,0,1-.49,1.55,3.4,3.4,0,0,1-1.36,1.1,11.07,11.07,0,0,1-3.08.75A44.52,44.52,0,0,1,342.38,50.59Zm7.26-43.21c0,2.18-1.16,4.1-3.49,5.73a13.35,13.35,0,0,1-7.86,2.45A6.42,6.42,0,0,1,334,14.2a4.51,4.51,0,0,1-1.58-3.6q0-3.23,3.49-5.76a12.86,12.86,0,0,1,7.52-2.59,7.18,7.18,0,0,1,4.66,1.29A4.71,4.71,0,0,1,349.64,7.38Z" transform="translate(0 -2.25)"/><path class="cls-1" d="M363.7,64.76c-1.73,0-3.28-.07-4.64-.2a27.08,27.08,0,0,1-3.49-.55,3.5,3.5,0,0,1-1.78-1,2.84,2.84,0,0,1-.58-1.9,2.49,2.49,0,0,1,.23-1.06,9,9,0,0,1,1.38-1.76c.23-.23.42-.44.58-.63a3.82,3.82,0,0,0,.4-.64,4.09,4.09,0,0,0,.46-1.06,6.91,6.91,0,0,0,.23-1.42c.16-1.72.27-3.55.35-5.47s.11-5.11.11-9.56c0-2.85,0-5-.05-6.49a29.49,29.49,0,0,0-.23-3.31,6.13,6.13,0,0,0-.29-1.18,2.17,2.17,0,0,0-.46-.72,2.51,2.51,0,0,0-.55-.4,1.85,1.85,0,0,0-.72-.23A2.84,2.84,0,0,1,353,26.3a2.41,2.41,0,0,1-.52-1.64,4.42,4.42,0,0,1,1.21-2.74A13.7,13.7,0,0,1,357,19.13a15.76,15.76,0,0,1,3.52-1.56,12.92,12.92,0,0,1,3.74-.57,7.34,7.34,0,0,1,3,.54,4.39,4.39,0,0,1,1.87,1.65,8.84,8.84,0,0,1,.78,1.9,10.41,10.41,0,0,1,.37,2.42,1.16,1.16,0,0,0,.17.43.35.35,0,0,0,.29.14.42.42,0,0,0,.29-.11,1.32,1.32,0,0,0,.23-.35,10.73,10.73,0,0,1,3.63-5.07,9.54,9.54,0,0,1,13.68,2.77q2.91,4.55,2.91,12.5,0,8.52-3,12.76t-9.13,4.24a9.48,9.48,0,0,1-4.27-1,12,12,0,0,1-3.74-3,1.49,1.49,0,0,0-.29-.23.48.48,0,0,0-.23,0,.34.34,0,0,0-.29.14.56.56,0,0,0-.11.37v7.21a5.18,5.18,0,0,0,.17,1.46,3.14,3.14,0,0,0,.52,1.07l.34.35a9.31,9.31,0,0,0,.75.57A5,5,0,0,1,374,59.23a3.37,3.37,0,0,1,.43,1.73,2.72,2.72,0,0,1-.75,2,4.43,4.43,0,0,1-2.24,1.13,28.59,28.59,0,0,1-3.43.52C366.74,64.7,365.31,64.76,363.7,64.76Zm6.74-25.24a2.82,2.82,0,0,0,.8,2.16,3,3,0,0,0,2.19.78,3.5,3.5,0,0,0,3.14-1.81,9.55,9.55,0,0,0,1.13-5,12.82,12.82,0,0,0-1.21-6.11,3.72,3.72,0,0,0-3.35-2.19,2.76,2.76,0,0,0-2.07.66,3.27,3.27,0,0,0-.63,2.28v9.27Z" transform="translate(0 -2.25)"/><path class="cls-1" d="M412.61,46.44a9.16,9.16,0,0,1-3.69,3.19,11.13,11.13,0,0,1-5.07,1.19,10,10,0,0,1-6.91-2.22,8,8,0,0,1-2.48-6.25,8.66,8.66,0,0,1,1.12-4.44A8.87,8.87,0,0,1,399,34.74,16.67,16.67,0,0,1,402,33.42,54.55,54.55,0,0,1,407.83,32c.46-.07.8-.14,1-.2a4.4,4.4,0,0,0,.64-.2A5.67,5.67,0,0,0,412,30.22a3.44,3.44,0,0,0,.81-2.22v-.17a3,3,0,0,0-.86-2.25,3.42,3.42,0,0,0-2.42-.81,3.56,3.56,0,0,0-2.14.72,5,5,0,0,0-1.55,2.05A7.7,7.7,0,0,1,403.36,31a6.23,6.23,0,0,1-3.6,1,5.61,5.61,0,0,1-4-1.42,4.74,4.74,0,0,1-1.53-3.65q0-4.28,5.33-7.09A24.66,24.66,0,0,1,411.28,17q7.38,0,11.1,3.11t3.71,9.22v2.21c0,.75,0,1.8-.06,3.14v4.38a7.12,7.12,0,0,0,.09,1.21,10.5,10.5,0,0,0,.38,1.44,1.4,1.4,0,0,0,.46.58,3.28,3.28,0,0,0,.92.52,3.29,3.29,0,0,1,1.47,1,2.77,2.77,0,0,1,.37,1.58,3.59,3.59,0,0,1-.57,2,6.1,6.1,0,0,1-1.91,1.67,10.87,10.87,0,0,1-2.93,1.09,15.72,15.72,0,0,1-3.58.41,13.82,13.82,0,0,1-2.88-.23,5.82,5.82,0,0,1-2-1,4.39,4.39,0,0,1-1.13-1.24A6.45,6.45,0,0,1,414,46.5a1.46,1.46,0,0,0-.23-.55.39.39,0,0,0-.34-.15A.61.61,0,0,0,413,46,2.27,2.27,0,0,0,412.61,46.44Zm-4.72-7a3,3,0,0,0,.77,2.16,2.84,2.84,0,0,0,2.11.77,2.46,2.46,0,0,0,1.58-.48,2.93,2.93,0,0,0,.89-1.53,5.56,5.56,0,0,0,.18-.92c0-.35.05-.77.05-1.27v-.35a2.73,2.73,0,0,0-.37-1.73c-.25-.26-.7-.28-1.35,0l-.35.11a1,1,0,0,1-.26.09,1.77,1.77,0,0,0-.37.14,1.07,1.07,0,0,0-.32.12.26.26,0,0,1-.14,0,3.91,3.91,0,0,0-1.85,1.1A2.72,2.72,0,0,0,407.89,39.47Z" transform="translate(0 -2.25)"/><path class="cls-1" d="M457,50.3c-.92.11-1.7.19-2.33.23s-1.32.06-2.05.06a17.7,17.7,0,0,1-6.48-.87,2.83,2.83,0,0,1-2.05-2.65,3.76,3.76,0,0,1,.23-1.38,3.48,3.48,0,0,1,.75-1.1l.29-.26.52-.43.35-.26a1.92,1.92,0,0,0,.23-.2A4.18,4.18,0,0,0,447.55,42a5.39,5.39,0,0,0,.38-1.79c0-.84.07-2.42.11-4.72s.06-4.49.06-6.57c0-.54,0-2.48,0-5.85s0-5.27,0-5.73a6.55,6.55,0,0,0-.32-1.84,2.61,2.61,0,0,0-.83-1.21,3.86,3.86,0,0,1-.38-.29,3.24,3.24,0,0,0-.6-.4l-.26-.18a.58.58,0,0,1-.15-.11,2.32,2.32,0,0,1-1.06-1.1,4.53,4.53,0,0,1-.26-1.67,3,3,0,0,1,2.22-2.79,19.56,19.56,0,0,1,6.88-.89c1.5,0,2.81,0,3.92.08s2.21.17,3.28.32c.39.08.68.12.87.14l.57,0a5.49,5.49,0,0,0,.58,0l.87-.08c.84-.12,1.61-.2,2.3-.23S467.19,7,468,7Q477.38,7,483,12.7t5.59,15.07q0,10.32-6,16.56t-16,6.26c-.88,0-1.73,0-2.56-.06s-1.81-.12-3-.23c-.57-.08-1-.13-1.24-.15l-.66,0-.83,0C458,50.17,457.61,50.22,457,50.3Zm5.24-10.2a2.64,2.64,0,0,0,.84,2,5.41,5.41,0,0,0,2.85.51h.52a1,1,0,0,0,.34-.05,6.1,6.1,0,0,0,4.79-3.23,15.94,15.94,0,0,0,1.67-8,23.84,23.84,0,0,0-2.39-11q-2.4-4.63-5.74-5.45l-.63-.08-.4,0a2.06,2.06,0,0,0-1.27.31,2.68,2.68,0,0,0-.58,1.65c-.07.57-.12,1.93-.14,4.06s0,5.17,0,9.13q0,3.45.06,6.51C462.2,38.51,462.23,39.72,462.27,40.1Z" transform="translate(0 -2.25)"/><path class="cls-1" d="M518.16,16.59A6.33,6.33,0,0,1,523.34,19a9.58,9.58,0,0,1,2,6.23,9.94,9.94,0,0,1-2,6.42,6.8,6.8,0,0,1-8.15,1.79,6.77,6.77,0,0,1-2.27-2.16s-.32-.45-.84-1.21-1-1.16-1.47-1.16-.76.27-1,.81a7.13,7.13,0,0,0-.49,2.36c0,.92-.07,1.67-.11,2.25s-.06,1-.06,1.27c0,.84,0,1.67,0,2.47s0,1.54.09,2.19a5.34,5.34,0,0,0,.25,1.44,3.68,3.68,0,0,0,.72,1.16l.52.49a10.32,10.32,0,0,0,1.1.77,2.58,2.58,0,0,1,.89,1.1,4.34,4.34,0,0,1,.26,1.61,2.48,2.48,0,0,1-.81,1.87,5.17,5.17,0,0,1-2.36,1.18,20.5,20.5,0,0,1-3,.49c-1,.1-2.58.15-4.61.15s-3.46-.07-4.73-.2a12.75,12.75,0,0,1-3.11-.67,2.7,2.7,0,0,1-1.3-1,2.74,2.74,0,0,1-.43-1.55,3.06,3.06,0,0,1,.35-1.53,4.6,4.6,0,0,1,1.27-1.29c.3-.23.53-.43.69-.58a1.7,1.7,0,0,0,.34-.46,3.16,3.16,0,0,0,.35-1c.07-.42.13-.94.17-1.55,0-1.42.07-2.61.09-3.55s0-1.83,0-2.68c0-1.61,0-2.7,0-3.28a10,10,0,0,0-.15-1.5,6.13,6.13,0,0,0-.23-1.09,1.26,1.26,0,0,0-.28-.52,3.46,3.46,0,0,0-.64-.58,2.5,2.5,0,0,0-.86-.34,2.85,2.85,0,0,1-1.59-.81,2.72,2.72,0,0,1-.54-1.67A4.15,4.15,0,0,1,492.58,22a13,13,0,0,1,3.34-2.82,13.85,13.85,0,0,1,3.4-1.59,11.91,11.91,0,0,1,3.46-.54,8.06,8.06,0,0,1,1.93.2,4.77,4.77,0,0,1,1.41.55,4.58,4.58,0,0,1,1,.83,4.31,4.31,0,0,1,.75,1.07,6.63,6.63,0,0,1,.52,1.55,12.21,12.21,0,0,1,.29,2c0,.46.19.72.46.78s.48-.15.63-.61A14.62,14.62,0,0,1,511.5,20a9.08,9.08,0,0,1,2.11-2.13,6.76,6.76,0,0,1,2.07-.95A9.36,9.36,0,0,1,518.16,16.59Z" transform="translate(0 -2.25)"/><path class="cls-1" d="M563.5,33.65q0,8.07-5.07,12.61t-13.94,4.56q-8.29,0-13.14-4.44t-4.84-12.1q0-8,5.27-12.73t13.69-4.78q8,0,13,4.63A15.92,15.92,0,0,1,563.5,33.65Zm-24-2.65A11.3,11.3,0,0,0,542,37.91q2.47,3.29,5.25,3.28a3.3,3.3,0,0,0,2.68-1.06,4.92,4.92,0,0,0,.89-3.2A11.52,11.52,0,0,0,548.32,30q-2.45-3.31-5.27-3.31a3.19,3.19,0,0,0-2.62,1.15A4.8,4.8,0,0,0,539.48,31Z" transform="translate(0 -2.25)"/><path class="cls-1" d="M575.66,64.76c-1.73,0-3.28-.07-4.64-.2a27.37,27.37,0,0,1-3.49-.55,3.5,3.5,0,0,1-1.78-1,2.84,2.84,0,0,1-.58-1.9A2.49,2.49,0,0,1,565.4,60a9.65,9.65,0,0,1,1.39-1.76,7.37,7.37,0,0,0,.57-.63,3.87,3.87,0,0,0,.41-.64,4.46,4.46,0,0,0,.46-1.06,7.66,7.66,0,0,0,.23-1.42c.15-1.72.27-3.55.34-5.47s.12-5.11.12-9.56q0-4.28-.06-6.49a29.49,29.49,0,0,0-.23-3.31,5.47,5.47,0,0,0-.29-1.18,2,2,0,0,0-.46-.72,2.29,2.29,0,0,0-.55-.4,1.85,1.85,0,0,0-.72-.23A2.88,2.88,0,0,1,565,26.3a2.41,2.41,0,0,1-.52-1.64,4.42,4.42,0,0,1,1.21-2.74A13.77,13.77,0,0,1,569,19.13a15.48,15.48,0,0,1,3.51-1.56,13,13,0,0,1,3.74-.57,7.34,7.34,0,0,1,3,.54,4.34,4.34,0,0,1,1.87,1.65,8.35,8.35,0,0,1,.78,1.9,9.91,9.91,0,0,1,.37,2.42,1,1,0,0,0,.18.43.32.32,0,0,0,.28.14A.4.4,0,0,0,583,24a1.11,1.11,0,0,0,.23-.35,10.73,10.73,0,0,1,3.63-5.07,9.55,9.55,0,0,1,13.69,2.77q2.91,4.55,2.91,12.5,0,8.52-3,12.76t-9.13,4.24a9.4,9.4,0,0,1-4.26-1,11.94,11.94,0,0,1-3.75-3,1.25,1.25,0,0,0-.29-.23.46.46,0,0,0-.23,0,.35.35,0,0,0-.29.14.62.62,0,0,0-.11.37v7.21a5.58,5.58,0,0,0,.17,1.46,3.33,3.33,0,0,0,.52,1.07l.35.35a6.59,6.59,0,0,0,.75.57,5,5,0,0,1,1.75,1.56,3.37,3.37,0,0,1,.43,1.73,2.76,2.76,0,0,1-.74,2,4.42,4.42,0,0,1-2.25,1.13,28.59,28.59,0,0,1-3.43.52C578.7,64.7,577.27,64.76,575.66,64.76Zm6.74-25.24a2.83,2.83,0,0,0,.81,2.16,3,3,0,0,0,2.19.78,3.51,3.51,0,0,0,3.14-1.81,9.65,9.65,0,0,0,1.12-5,12.7,12.7,0,0,0-1.21-6.11,3.7,3.7,0,0,0-3.34-2.19A2.81,2.81,0,0,0,583,28a3.27,3.27,0,0,0-.63,2.28v9.27Z" transform="translate(0 -2.25)"/><path class="cls-1" d="M613.68,50a4.47,4.47,0,0,1-1,.52,3,3,0,0,1-.87.12,3.51,3.51,0,0,1-1.41-.32,4.44,4.44,0,0,1-1.35-1,9,9,0,0,1-1.27-1.61,9.83,9.83,0,0,1-1-2.14,11.86,11.86,0,0,1-.52-2.13,17.88,17.88,0,0,1-.17-2.53,4.84,4.84,0,0,1,.81-2.94,2.51,2.51,0,0,1,2.13-1.1,3.68,3.68,0,0,1,1.55.38,10.81,10.81,0,0,1,2.13,1.47q.4.35.84.75c.29.27.72.69,1.3,1.26a15.58,15.58,0,0,0,3.08,2.57,4.85,4.85,0,0,0,2.39.66,2.22,2.22,0,0,0,1.61-.55,2,2,0,0,0,.58-1.52,1.87,1.87,0,0,0-.55-1.33A6.44,6.44,0,0,0,620,39.35c-.38-.19-1-.45-1.84-.78s-1.41-.54-1.67-.66l-3-1.21a12.09,12.09,0,0,1-5.3-3.69,8.57,8.57,0,0,1-1.79-5.41,9.61,9.61,0,0,1,3.52-7.84,14,14,0,0,1,9.16-2.88,22.74,22.74,0,0,1,2.82.17c.89.12,2,.33,3.29.64.8.23,1.38.37,1.73.43a5.65,5.65,0,0,0,1,.09,1.63,1.63,0,0,0,.55-.09,5.62,5.62,0,0,0,1.13-.78,3.13,3.13,0,0,1,1-.55,4,4,0,0,1,1.07-.14,3.36,3.36,0,0,1,2,.69,6.53,6.53,0,0,1,1.75,2.08,9.72,9.72,0,0,1,1.16,2.85,13.75,13.75,0,0,1,.4,3.31,6.3,6.3,0,0,1-.17,1.56,2.26,2.26,0,0,1-.58,1,3.63,3.63,0,0,1-1,.72,2.43,2.43,0,0,1-1.15.26,5.21,5.21,0,0,1-1.47-.2,4.18,4.18,0,0,1-1.3-.6c-.3-.2-.63-.43-1-.69s-.84-.7-1.49-1.27a19.5,19.5,0,0,0-3.58-2.71,4.53,4.53,0,0,0-1.84-.4,2.2,2.2,0,0,0-1.58.57,1.9,1.9,0,0,0-.61,1.44,1.53,1.53,0,0,0,.58,1.16,6.3,6.3,0,0,0,1.9,1,18.58,18.58,0,0,0,1.84.69c.81.27,1.31.45,1.5.52l2.25.81a14.15,14.15,0,0,1,6.42,4,9.58,9.58,0,0,1,1.93,6.17,9.94,9.94,0,0,1-3.77,8,14.88,14.88,0,0,1-9.77,3.11c-.65,0-1.3,0-2-.09l-1.9-.2c-.65-.12-1.4-.27-2.24-.46l-1.56-.35a3.76,3.76,0,0,0-.75-.14l-.69,0a2.47,2.47,0,0,0-.63.08A3.72,3.72,0,0,0,613.68,50Z" transform="translate(0 -2.25)"/><path class="cls-1" d="M674.38,45.52a13.61,13.61,0,0,1-4.62,3.65A13.1,13.1,0,0,1,664,50.48c-3,0-5.25-.88-6.67-2.64s-2.14-4.49-2.14-8.21c0-.76,0-1.53,0-2.32s0-1.85.07-3.2c0-.94.06-1.62.06-2V30.93a1.1,1.1,0,0,0-.24-.78,1.18,1.18,0,0,0-.81-.32,5.2,5.2,0,0,1-.57,0,6.16,6.16,0,0,1-.68-.1,2.68,2.68,0,0,1-1.74-1.18,5.07,5.07,0,0,1-.45-2.42,9.69,9.69,0,0,1,.29-2.61,3.73,3.73,0,0,1,.91-1.61,2.44,2.44,0,0,1,.92-.6,3.57,3.57,0,0,1,1.22-.18h.63a1,1,0,0,0,.8-.32,1.18,1.18,0,0,0,.29-.83V18.21a4.54,4.54,0,0,1,.29-1.7,3.74,3.74,0,0,1,1-1.32,8.77,8.77,0,0,1,1.28-.92q.81-.5,2.58-1.38c.76-.38,1.34-.66,1.75-.83s.75-.31,1.06-.42l.73-.18a3.37,3.37,0,0,1,.63-.08,1.77,1.77,0,0,1,1.22.39,1.41,1.41,0,0,1,.45,1.12v6.67a1.34,1.34,0,0,0,.28,1,1.18,1.18,0,0,0,.86.29h5A1.83,1.83,0,0,1,674.79,22a6,6,0,0,1,.11,3.39,8.35,8.35,0,0,1-1.23,3.26,2.31,2.31,0,0,1-1.9,1.12h-3.34a1.71,1.71,0,0,0-1.22.37,1.66,1.66,0,0,0-.39,1.25v2.29c0,.94,0,1.83.08,2.66s.11,1.6.18,2.29a7,7,0,0,0,.75,2.74,1.68,1.68,0,0,0,1.49.76,3.35,3.35,0,0,0,1.07-.16,4.19,4.19,0,0,0,1-.52,6.6,6.6,0,0,1,1.12-.71,2,2,0,0,1,.65-.13,2.29,2.29,0,0,1,1.62.63,2,2,0,0,1,.68,1.51,4.31,4.31,0,0,1-.26,1.41A4.57,4.57,0,0,1,674.38,45.52Z" transform="translate(0 -2.25)"/><path class="cls-1" d="M685,50.48a35.45,35.45,0,0,1-4.15-.21,13.07,13.07,0,0,1-2.89-.63,2.69,2.69,0,0,1-1.2-.88,2.35,2.35,0,0,1-.42-1.41,2.72,2.72,0,0,1,.34-1.36,4.12,4.12,0,0,1,1.12-1.14c.21-.18.39-.34.55-.5a2.47,2.47,0,0,0,.39-.49,3.33,3.33,0,0,0,.32-.94,13.6,13.6,0,0,0,.15-1.41c0-.83.07-2.23.11-4.2s.05-4.31.05-7.06c0-3.06,0-5.53,0-7.43s0-3.1-.08-3.62a8.16,8.16,0,0,0-.18-1.49,2.72,2.72,0,0,0-.39-.91,1.66,1.66,0,0,0-.63-.6,4.64,4.64,0,0,0-1-.39,3.43,3.43,0,0,1-1.72-.89,2.34,2.34,0,0,1-.52-1.61A3.09,3.09,0,0,1,676,11.07a11,11,0,0,1,3.25-2,15,15,0,0,1,1.51-.55,14.17,14.17,0,0,1,1.62-.39c.52-.11,1.07-.19,1.64-.26a14.55,14.55,0,0,1,1.75-.11A5,5,0,0,1,690,9.43q1.31,1.63,1.31,5.39v3.1q0,1.59-.06,4.2v3.44a1.28,1.28,0,0,0,.08.55.27.27,0,0,0,.24.13.4.4,0,0,0,.23-.11,2.06,2.06,0,0,0,.34-.41,12.44,12.44,0,0,1,4.06-4.44,10.14,10.14,0,0,1,5.37-1.4,7.68,7.68,0,0,1,6.05,2.34c1.39,1.57,2.17,4,2.35,7.25.07,1.11.11,2.16.13,3.15s0,2,0,2.9,0,2,0,3,0,1.86,0,2.66a15.5,15.5,0,0,0,.13,1.93,2.4,2.4,0,0,0,.18.57,2.18,2.18,0,0,0,.29.36c.16.18.37.4.65.68a4.77,4.77,0,0,1,1,1.23,3,3,0,0,1,.23,1.22,2.36,2.36,0,0,1-.44,1.41,3,3,0,0,1-1.23,1,9.86,9.86,0,0,1-2.81.68,39.79,39.79,0,0,1-4.53.21,30.53,30.53,0,0,1-3.89-.19,9.93,9.93,0,0,1-2.47-.6,3,3,0,0,1-1.28-1,2.23,2.23,0,0,1-.44-1.38,3.18,3.18,0,0,1,.23-1.28,3.33,3.33,0,0,1,.81-1.07,3.44,3.44,0,0,0,.54-.54,6.74,6.74,0,0,0,.4-.55,3.23,3.23,0,0,0,.31-.94,13.29,13.29,0,0,0,.16-1.41c0-.41.05-1,.05-1.61V36.56a19.94,19.94,0,0,0-.32-4,5,5,0,0,0-.93-2.25,3.27,3.27,0,0,0-1.18-.91,3.65,3.65,0,0,0-1.48-.28,4,4,0,0,0-1.62.28,1.67,1.67,0,0,0-.88.91,4.47,4.47,0,0,0-.24,1.31q-.07.93-.08,6v2.79q0,.77.06,1.38a11.53,11.53,0,0,0,.13,1.25,3.7,3.7,0,0,0,.23.89,1.52,1.52,0,0,0,.34.57,4.59,4.59,0,0,0,.55.52,2.29,2.29,0,0,1,.67.84A2.78,2.78,0,0,1,693.4,47a2.42,2.42,0,0,1-.52,1.61,3.44,3.44,0,0,1-1.67,1,15.15,15.15,0,0,1-2.92.65A25.38,25.38,0,0,1,685,50.48Z" transform="translate(0 -2.25)"/><path class="cls-1" d="M744.12,43a13.22,13.22,0,0,1-5.34,5.79,16.76,16.76,0,0,1-8.26,1.87q-7.56,0-11.86-4t-4.3-10.92a14.71,14.71,0,0,1,4.92-11.47q4.94-4.44,12.59-4.43a13.91,13.91,0,0,1,9.65,3.31,11.1,11.1,0,0,1,3.7,8.68,4.42,4.42,0,0,1-1.54,3.67A7.39,7.39,0,0,1,739,36.77H728.8a1.69,1.69,0,0,0-1,.28.9.9,0,0,0-.39.76,3.21,3.21,0,0,0,2,2.81,10.82,10.82,0,0,0,8.16.55,8.62,8.62,0,0,0,2.86-1.69,6.19,6.19,0,0,1,1.2-.84,2.2,2.2,0,0,1,.94-.26,2.31,2.31,0,0,1,1.62.63,2,2,0,0,1,.67,1.51,3.88,3.88,0,0,1-.18,1.15A10.41,10.41,0,0,1,744.12,43Zm-18-12.09a1.94,1.94,0,0,0,.31,1.22,1.27,1.27,0,0,0,1,.39h3.65a3.18,3.18,0,0,0,1.8-.39,1.41,1.41,0,0,0,.55-1.22,2.83,2.83,0,0,0-1-2.24,3.94,3.94,0,0,0-2.68-.89,3.89,3.89,0,0,0-2.64.89A2.85,2.85,0,0,0,726.09,30.93Z" transform="translate(0 -2.25)"/><path class="cls-1" d="M771.33,19.72A5.73,5.73,0,0,1,776,21.91a8.63,8.63,0,0,1,1.78,5.63A9,9,0,0,1,776,33.35a5.7,5.7,0,0,1-4.69,2.22,5.61,5.61,0,0,1-2.68-.6,6,6,0,0,1-2.06-2s-.29-.4-.76-1.09-.91-1-1.32-1-.69.24-.92.73a6.48,6.48,0,0,0-.44,2.13c0,.84-.07,1.51-.1,2s-.06.9-.06,1.14c0,.77,0,1.51,0,2.24s0,1.39.08,2a4.9,4.9,0,0,0,.23,1.3,3.13,3.13,0,0,0,.65,1l.47.44a9,9,0,0,0,1,.71,2.23,2.23,0,0,1,.81,1,3.81,3.81,0,0,1,.24,1.46,2.29,2.29,0,0,1-.73,1.69,4.73,4.73,0,0,1-2.14,1.07,18,18,0,0,1-2.71.44c-.94.09-2.33.13-4.17.13a42.27,42.27,0,0,1-4.28-.18,11.31,11.31,0,0,1-2.81-.6,2.3,2.3,0,0,1-1.57-2.29A2.71,2.71,0,0,1,748.4,46a4.25,4.25,0,0,1,1.14-1.18,5.11,5.11,0,0,0,.63-.52,1.58,1.58,0,0,0,.31-.41,3,3,0,0,0,.32-.94,13.6,13.6,0,0,0,.15-1.41c0-1.29.06-2.35.08-3.21s0-1.65,0-2.42q0-2.19,0-3a10,10,0,0,0-.13-1.36,6.66,6.66,0,0,0-.21-1,1.29,1.29,0,0,0-.26-.47,2.8,2.8,0,0,0-.57-.52,2.29,2.29,0,0,0-.79-.31A2.09,2.09,0,0,1,747.15,27a3.74,3.74,0,0,1,1-2.45,12.12,12.12,0,0,1,3-2.56,12.65,12.65,0,0,1,3.08-1.43,10.61,10.61,0,0,1,3.13-.49,7.51,7.51,0,0,1,1.74.18,4.44,4.44,0,0,1,1.28.49,4.29,4.29,0,0,1,.94.76,4.53,4.53,0,0,1,.68,1,6.46,6.46,0,0,1,.46,1.41,9.82,9.82,0,0,1,.26,1.77c0,.42.18.65.42.71s.44-.13.57-.55a13.25,13.25,0,0,1,1.54-3,8,8,0,0,1,1.91-1.93,6.15,6.15,0,0,1,1.87-.86A8.48,8.48,0,0,1,771.33,19.72Z" transform="translate(0 -2.25)"/><path class="cls-1" d="M808.66,43a13.18,13.18,0,0,1-5.35,5.79,16.73,16.73,0,0,1-8.26,1.87q-7.56,0-11.86-4t-4.3-10.92a14.68,14.68,0,0,1,4.93-11.47q4.92-4.44,12.59-4.43a13.9,13.9,0,0,1,9.64,3.31,11.07,11.07,0,0,1,3.7,8.68,4.39,4.39,0,0,1-1.54,3.67,7.37,7.37,0,0,1-4.66,1.23H793.33a1.66,1.66,0,0,0-1,.28.91.91,0,0,0-.4.76,3.21,3.21,0,0,0,2,2.81,10.82,10.82,0,0,0,8.16.55A8.66,8.66,0,0,0,805,39.48a6.19,6.19,0,0,1,1.2-.84,2.12,2.12,0,0,1,.93-.26,2.29,2.29,0,0,1,1.62.63,2,2,0,0,1,.68,1.51,3.6,3.6,0,0,1-.19,1.15A11.77,11.77,0,0,1,808.66,43Zm-18-12.09a2,2,0,0,0,.31,1.22,1.27,1.27,0,0,0,1.05.39h3.65a3.14,3.14,0,0,0,1.79-.39,1.39,1.39,0,0,0,.55-1.22,2.83,2.83,0,0,0-1-2.24,3.92,3.92,0,0,0-2.68-.89,3.86,3.86,0,0,0-2.63.89A2.83,2.83,0,0,0,790.62,30.93Z" transform="translate(0 -2.25)"/><path class="cls-1" d="M830.45,20.35a12.76,12.76,0,0,1-3,8.47,21.1,21.1,0,0,1-9,5.81,2,2,0,0,1-1.72-.05,2.63,2.63,0,0,1-1.1-1.57,3.07,3.07,0,0,1-.15-1.8,1.55,1.55,0,0,1,.93-1A19.72,19.72,0,0,0,821,27.85a3,3,0,0,0,1.41-2.24.65.65,0,0,0-.18-.52.88.88,0,0,0-.55-.16l-.47,0-.78.08c-.42.07-.75.11-1,.13s-.49,0-.73,0a4.8,4.8,0,0,1-4-1.66,7.51,7.51,0,0,1-1.36-4.85,6.86,6.86,0,0,1,2.37-5.45,9,9,0,0,1,6.13-2.06,8.25,8.25,0,0,1,6.33,2.37Q830.45,15.91,830.45,20.35Z" transform="translate(0 -2.25)"/><path class="cls-1" d="M840.46,49.9a3.85,3.85,0,0,1-.94.47,2.9,2.9,0,0,1-.79.11,3.16,3.16,0,0,1-1.27-.29,4,4,0,0,1-1.23-.86,8.11,8.11,0,0,1-1.14-1.46,8.82,8.82,0,0,1-.89-1.93,9.91,9.91,0,0,1-.47-1.93,16,16,0,0,1-.16-2.29,4.44,4.44,0,0,1,.73-2.66,2.29,2.29,0,0,1,1.93-1,3.31,3.31,0,0,1,1.41.34,9.6,9.6,0,0,1,1.93,1.33c.24.21.49.43.75.68s.66.62,1.18,1.14a14.2,14.2,0,0,0,2.79,2.32,4.36,4.36,0,0,0,2.16.6,2,2,0,0,0,1.46-.49,1.81,1.81,0,0,0,.52-1.39,1.66,1.66,0,0,0-.49-1.19,6,6,0,0,0-1.75-1.1c-.35-.17-.9-.41-1.67-.7L843,39l-2.71-1.1a11,11,0,0,1-4.8-3.33,7.82,7.82,0,0,1-1.61-4.9,8.68,8.68,0,0,1,3.18-7.09A12.63,12.63,0,0,1,845.35,20a18.81,18.81,0,0,1,2.56.16,28.72,28.72,0,0,1,3,.57,15.46,15.46,0,0,0,1.56.39,5.76,5.76,0,0,0,.89.08,1.69,1.69,0,0,0,.5-.08,4.88,4.88,0,0,0,1-.7,3,3,0,0,1,.91-.5,3.73,3.73,0,0,1,1-.13,3,3,0,0,1,1.8.63,6.1,6.1,0,0,1,1.59,1.88,8.76,8.76,0,0,1,1,2.58,12.62,12.62,0,0,1,.37,3,5.59,5.59,0,0,1-.16,1.41,2.15,2.15,0,0,1-.52.94,3.55,3.55,0,0,1-.89.65,2.24,2.24,0,0,1-1,.23,5,5,0,0,1-1.33-.18,3.51,3.51,0,0,1-1.17-.55,9.72,9.72,0,0,1-.89-.62c-.31-.24-.76-.63-1.36-1.15a17.74,17.74,0,0,0-3.23-2.45,4.14,4.14,0,0,0-1.66-.36,2,2,0,0,0-1.44.52,1.74,1.74,0,0,0-.55,1.3,1.38,1.38,0,0,0,.53,1,5.5,5.5,0,0,0,1.72.94,15.11,15.11,0,0,0,1.66.63c.73.24,1.18.4,1.36.47l2,.73a12.73,12.73,0,0,1,5.81,3.65,8.63,8.63,0,0,1,1.75,5.57,9,9,0,0,1-3.41,7.25,13.44,13.44,0,0,1-8.84,2.81c-.59,0-1.18,0-1.77-.07l-1.72-.19c-.59-.1-1.27-.24-2-.41l-1.4-.32a3.84,3.84,0,0,0-.68-.13l-.63,0a1.75,1.75,0,0,0-.57.08A2.87,2.87,0,0,0,840.46,49.9Z" transform="translate(0 -2.25)"/></g></g></svg>