<svg xmlns="http://www.w3.org/2000/svg" viewBox="0 0 102.06 101.25"><defs><style>.cls-1{fill:#ffd049;stroke:#649f3d;stroke-miterlimit:10;stroke-width:10px;}</style></defs><g id="Layer_2" data-name="Layer 2"><g id="Layer_20_copy" data-name="Layer 20 copy"><path class="cls-1" d="M53.35,13.51l4.37-5.68a7.26,7.26,0,0,1,13,4.14l.22,7.14A7.23,7.23,0,0,0,79.15,26l7.13-.94a7.18,7.18,0,0,1,6.25,12L87.59,42.3a7.13,7.13,0,0,0,.89,10.62l5.72,4.33A7.17,7.17,0,0,1,90,70.14l-7.19.22a7.2,7.2,0,0,0-7,8.13l.95,7.08a7.24,7.24,0,0,1-12.14,6.19l-5.25-4.89a7.28,7.28,0,0,0-10.72.87l-4.37,5.67a7.26,7.26,0,0,1-13-4.13l-.23-7.14a7.21,7.21,0,0,0-8.2-6.89l-7.14.94a7.18,7.18,0,0,1-6.24-12L14.46,59a7.14,7.14,0,0,0-.88-10.62L7.86,44A7.17,7.17,0,0,1,12,31.11l7.2-.22a7.22,7.22,0,0,0,7-8.14l-1-7.07A7.25,7.25,0,0,1,37.38,9.49l5.25,4.89A7.29,7.29,0,0,0,53.35,13.51Z"/></g></g></svg>