<svg xmlns="http://www.w3.org/2000/svg" viewBox="0 0 1053.2 1672.66"><defs><style>.cls-1{fill:#649e3d;}</style></defs><g id="Layer_2" data-name="Layer 2"><g id="Layer_31_copy_4" data-name="Layer 31 copy 4"><path class="cls-1" d="M944.83,0h-8V10h8V0Zm-16,0h-8V10h8V0Zm-16,0h-8V10h8V0Zm-16,0h-8V10h8V0Zm-16,0h-8V10h8V0Zm-16,0h-8V10h8V0Zm-16,0h-8V10h8V0Zm-16,0h-8V10h8V0Zm-16,0h-8V10h8V0Zm-16,0h-8V10h8V0Zm-16,0h-8V10h8V0Zm-16,0h-8V10h8V0Zm-16,0h-8V10h8V0Zm-16,0h-8V10h8V0Zm-16,0h-8V10h8V0Zm-16,0h-8V10h8V0Zm-16,0h-8V10h8V0Zm-16,0h-8V10h8V0Zm-16,0h-8V10h8V0Zm-16,0h-8V10h8V0Zm-16,0h-8V10h8V0Zm-16,0h-8V10h8V0Zm-16,0h-8V10h8V0Zm-16,0h-8V10h8V0Zm-16,0h-8V10h8V0Zm-16,0h-8V10h8V0Zm-16,0h-8V10h8V0Zm-16,0h-8V10h8V0Zm-16,0h-8V10h8V0Zm-16,0h-8V10h8V0Zm-16,0h-8V10h8V0Zm-16,0h-8V10h8V0Zm-16,0h-8V10h8V0Zm-16,0h-8V10h8V0Zm-16,0h-8V10h8V0Zm-16,0h-8V10h8V0Zm-16,0h-8V10h8V0Zm-16,0h-8V10h8V0Zm-16,0h-8V10h8V0Zm-16,0h-8V10h8V0Zm-16,0h-8V10h8V0Zm-16,0h-8V10h8V0Zm-16,0h-8V10h8V0Zm-16,0h-8V10h8V0Zm-16,0h-8V10h8V0Zm-16,0h-8V10h8V0Zm-16,0h-8V10h8V0Zm-16,0h-8V10h8V0Zm-16,0h-8V10h8V0Zm-16,0h-8V10h8V0Zm-16,0h-8V10h8V0Zm-16,0h-8V10h8V0Zm-16,0h-5.17c-1,0-1.89,0-2.83.06l.32,10c1.06,0,2.15-.05,3.22-.05h4.46V0Zm-16,.6c-2,.22-4,.48-5.94.8h0l-.08,0h-.21l-1.66.29,1.78,9.84c2.37-.43,4.79-.78,7.19-1L96.85.6ZM81.12,3.45q-2.52.66-5,1.42h0l-.15,0h0l-.07,0h0l-.13,0h0l-.07,0h0l-.1,0-.05,0h0l0,0-.08,0-.06,0,0,0-.08,0h0l-.09,0h0l-.1,0h0l-.11,0h0l-.22.07h0l-1.05.36,3.22,9.46c2.28-.77,4.61-1.47,6.95-2.08L81.12,3.45ZM66,8.6c-2.46,1.05-4.88,2.18-7.24,3.4l4.58,8.89c2.14-1.11,4.35-2.14,6.57-3.09L66,8.6ZM51.78,15.93,50,17l0,0,0,0-.07.05,0,0-.07,0,0,0-.09.06h0q-2.31,1.49-4.53,3.09L51,28.48c2-1.41,4-2.77,6-4l-5.23-8.52Zm-13,9.34q-1.92,1.61-3.76,3.29h0l-.08.08h0a.46.46,0,0,0-.07.07l0,0a.27.27,0,0,0-.08.07l0,0,0,.05,0,0L34.6,29l0,0,0,0c-.56.52-1.11,1-1.66,1.58l7,7.17c1.73-1.68,3.54-3.32,5.39-4.87l-6.42-7.66ZM27.34,36.41c-.94,1.06-1.86,2.13-2.76,3.23h0l-.07.09h0l-.07.08,0,0-.06.08h0l-.07.08,0,0-.05.06,0,0-.05.07,0,0,0,0-.07.08,0,0,0,0,0,0-.08.11h0c-.53.67-1.05,1.33-1.57,2l7.94,6.07c1.47-1.91,3-3.8,4.62-5.6l-7.47-6.64ZM17.63,49.1c-.34.52-.68,1-1,1.57l0,0,0,.06,0,.06,0,0,0,.06v0l-.07.11h0Q14.87,53.48,13.5,56l8.74,4.85c1.17-2.11,2.43-4.2,3.75-6.22L17.63,49.1Zm-7.75,14C8.77,65.5,7.75,68,6.81,70.47L16.18,74C17,71.71,18,69.46,19,67.27L9.88,63.09Zm-5.59,15c-.15.51-.29,1-.43,1.54v0l0,.08,0,0,0,.07v.09l0,.14h0l0,.08h0c-.26,1-.51,1.94-.74,2.92H3l-.06.22v.1l0,.08v0l0,.06v0l0,.09v0l0,.09v0l0,.11h0l0,.11h0c-.14.57-.26,1.14-.38,1.71l9.78,2.07c.5-2.35,1.09-4.72,1.77-7L4.29,78.07ZM1,93.7c-.07.51-.13,1-.19,1.54h0l0,.24h0l0,.23v.83l0,.1h0v.12h0C.44,98.41.3,100,.2,101.66l10,.61c.14-2.41.38-4.84.7-7.23L1,93.7Zm9,16H0v8H10v-8Zm0,16H0v8H10v-8Zm0,16H0v8H10v-8Zm0,16H0v8H10v-8Zm0,16H0v8H10v-8Zm0,16H0v8H10v-8Zm0,16H0v8H10v-8Zm0,16H0v8H10v-8Zm0,16H0v8H10v-8Zm0,16H0v8H10v-8Zm0,16H0v8H10v-8Zm0,16H0v8H10v-8Zm0,16H0v8H10v-8Zm0,16H0v8H10v-8Zm0,16H0v8H10v-8Zm0,16H0v8H10v-8Zm0,16H0v8H10v-8Zm0,16H0v8H10v-8Zm0,16H0v8H10v-8Zm0,16H0v8H10v-8Zm0,16H0v8H10v-8Zm0,16H0v8H10v-8Zm0,16H0v8H10v-8Zm0,16H0v8H10v-8Zm0,16H0v8H10v-8Zm0,16H0v8H10v-8Zm0,16H0v8H10v-8Zm0,16H0v8H10v-8Zm0,16H0v8H10v-8Zm0,16H0v8H10v-8Zm0,16H0v8H10v-8Zm0,16H0v8H10v-8Zm0,16H0v8H10v-8Zm0,16H0v8H10v-8Zm0,16H0v8H10v-8Zm0,16H0v8H10v-8Zm0,16H0v8H10v-8Zm0,16H0v8H10v-8Zm0,16H0v8H10v-8Zm0,16H0v8H10v-8Zm0,16H0v8H10v-8Zm0,16H0v8H10v-8Zm0,16H0v8H10v-8Zm0,16H0v8H10v-8Zm0,16H0v8H10v-8Zm0,16H0v8H10v-8Zm0,16H0v8H10v-8Zm0,16H0v8H10v-8Zm0,16H0v8H10v-8Zm0,16H0v8H10v-8Zm0,16H0v8H10v-8Zm0,16H0v8H10v-8Zm0,16H0v8H10v-8Zm0,16H0v8H10v-8Zm0,16H0v8H10v-8Zm0,16H0v8H10v-8Zm0,16H0v8H10v-8Zm0,16H0v8H10v-8Zm0,16H0v8H10v-8Zm0,16H0v8H10v-8Zm0,16H0v8H10v-8Zm0,16H0v8H10v-8Zm0,16H0v8H10v-8Zm0,16H0v8H10v-8Zm0,16H0v8H10v-8Zm0,16H0v8H10v-8Zm0,16H0v8H10v-8Zm0,16H0v8H10v-8Zm0,16H0v8H10v-8Zm0,16H0v8H10v-8Zm0,16H0v8H10v-8Zm0,16H0v8H10v-8Zm0,16H0v8H10v-8Zm0,16H0v8H10v-8Zm0,16H0v8H10v-8Zm0,16H0v8H10v-8Zm0,16H0v8H10v-8Zm0,16H0v8H10v-8Zm0,16H0v8H10v-8Zm0,16H0v8H10v-8Zm0,16H0v8H10v-8Zm0,16H0v8H10v-8Zm0,16H0v8H10v-8Zm0,16H0v8H10v-8Zm0,16H0v8H10v-8Zm0,16H0v8H10v-8Zm0,16H0v8H10v-8Zm0,16H0v8H10v-8Zm0,16H0v8H10v-8Zm0,16H0v8H10v-8Zm0,16H0v8H10v-8Zm0,15.88-10,.12c0,.36,0,.71,0,1.06v.34q.09,3.32.37,6.59l10-.85c-.2-2.4-.32-4.84-.35-7.26ZM11.25,1580l-9.88,1.58c.21,1.3.44,2.59.7,3.87v0l0,.09v.11l0,.07v0l0,.11v0l0,.1h0c.23,1.14.48,2.28.75,3.41l9.73-2.32c-.56-2.34-1-4.73-1.41-7.11Zm3.35,14.11-9.53,3c.81,2.55,1.71,5.07,2.7,7.53l9.28-3.73c-.9-2.23-1.72-4.53-2.45-6.82Zm5.4,13.45L11,1612q1.72,3.52,3.71,6.92l0,0,0,.07v0l8.63-5.06c-1.22-2.08-2.38-4.23-3.44-6.39Zm7.34,12.52-8.23,5.68q2.28,3.29,4.78,6.41l7.79-6.27c-1.51-1.88-3-3.84-4.34-5.82Zm9.1,11.31-7.31,6.82h0l.06.07,0,0,.05.05,0,0,.07.07,0,0,.07.07h0l.07.08,0,0,.07.08h0l.07.08,0,0,.08.08h0l.08.09h0c1,1,2,2.09,3.08,3.1h0l.08.08h0l.07.07,0,0,.06.06,0,0,0,0,0,0h0l.11.11h0l1.32,1.23,6.79-7.34c-1.77-1.63-3.5-3.36-5.15-5.12Zm10.66,9.86-6.23,7.82,1.62,1.26h0l.17.13,0,0,.07,0,0,0,0,0,.06,0,0,0,.09.06,0,0,.18.14h0c1,.75,2,1.48,3,2.2h0l.1.07h0l.08.06,0,0,.08,0,0,0,0,0,.65.45,5.64-8.26c-2-1.36-3.95-2.81-5.84-4.31Zm12,8.19-5,8.65c.87.5,1.75,1,2.64,1.48h0l.12.06,0,0,.05,0,0,0,.07,0,.05,0,0,0,.08,0,0,0,.07,0,0,0,.09,0,0,0,.08,0h0l.09,0h0l.09.05h0c1.11.59,2.22,1.15,3.35,1.7l4.36-9c-2.16-1-4.32-2.19-6.41-3.4Zm13,6.33-3.68,9.29c1.35.54,2.71,1,4.09,1.53h0l.23.08h0l.08,0h0l.1,0h0l0,0,.09,0h0l.06,0h0l.14,0h0l.08,0h0c.81.28,1.63.54,2.45.8l3-9.54c-2.3-.72-4.6-1.54-6.84-2.42ZM86,1660.1l-2.26,9.74c2.07.49,4.18.91,6.3,1.27h0l.23,0h.13l.11,0h1.07l1.54-9.88c-2.39-.37-4.78-.83-7.13-1.38Zm14.34,2.24-.81,10c2,.17,4,.27,6.1.33h.84l1,0,.08-10c-2.42,0-4.86-.13-7.26-.32Zm23.18.32h-8v10h8v-10Zm16,0h-8v10h8v-10Zm16,0h-8v10h8v-10Zm16,0h-8v10h8v-10Zm16,0h-8v10h8v-10Zm16,0h-8v10h8v-10Zm16,0h-8v10h8v-10Zm16,0h-8v10h8v-10Zm16,0h-8v10h8v-10Zm16,0h-8v10h8v-10Zm16,0h-8v10h8v-10Zm16,0h-8v10h8v-10Zm16,0h-8v10h8v-10Zm16,0h-8v10h8v-10Zm16,0h-8v10h8v-10Zm16,0h-8v10h8v-10Zm16,0h-8v10h8v-10Zm16,0h-8v10h8v-10Zm16,0h-8v10h8v-10Zm16,0h-8v10h8v-10Zm16,0h-8v10h8v-10Zm16,0h-8v10h8v-10Zm16,0h-8v10h8v-10Zm16,0h-8v10h8v-10Zm16,0h-8v10h8v-10Zm16,0h-8v10h8v-10Zm16,0h-8v10h8v-10Zm16,0h-8v10h8v-10Zm16,0h-8v10h8v-10Zm16,0h-8v10h8v-10Zm16,0h-8v10h8v-10Zm16,0h-8v10h8v-10Zm16,0h-8v10h8v-10Zm16,0h-8v10h8v-10Zm16,0h-8v10h8v-10Zm16,0h-8v10h8v-10Zm16,0h-8v10h8v-10Zm16,0h-8v10h8v-10Zm16,0h-8v10h8v-10Zm16,0h-8v10h8v-10Zm16,0h-8v10h8v-10Zm16,0h-8v10h8v-10Zm16,0h-8v10h8v-10Zm16,0h-8v10h8v-10Zm16,0h-8v10h8v-10Zm16,0h-8v10h8v-10Zm16,0h-8v10h8v-10Zm16,0h-8v10h8v-10Zm16,0h-8v10h8v-10Zm16,0h-8v10h8v-10Zm16,0h-8v10h8v-10Zm16,0h-8v10h8v-10Zm15-.47c-2.4.24-4.84.38-7.26.44l.24,10c.86,0,1.71-.05,2.57-.09h0l.23,0h1.21c1.07-.07,2.15-.15,3.22-.25h.44l.31,0-1-10Zm14.29-2.47c-2.34.59-4.72,1.09-7.1,1.5l1.7,9.86,1.53-.28h0l.12,0h.1l.07,0h0l.09,0h0l.23,0h0c1-.2,2-.42,3-.64h0l.23-.06h0l.1,0h0l.11,0h0l.07,0h0l.09,0h.1l.22,0h0l1.51-.37-2.43-9.7Zm13.77-4.55c-2.23.92-4.52,1.77-6.8,2.53l3.14,9.49c.71-.23,1.43-.48,2.13-.73h0l.23-.08h0l.11,0h0l.11,0h0l.11,0h0l.08,0h0l.1,0h0l.07,0h0l.09,0h0l.06,0,0,0,.08,0,.06,0,0,0,.2-.07h0l.22-.08h0c1.19-.45,2.37-.92,3.53-1.4l-3.83-9.23Zm12.94-6.55c-2.07,1.24-4.2,2.43-6.35,3.51l4.51,8.93q3.58-1.82,7-3.88l-5.16-8.56Zm11.85-8.39c-1.86,1.54-3.81,3-5.77,4.42l5.77,8.16q2-1.45,4-3h0l.18-.14,0,0,.08-.06,0,0,.06,0,0,0,0,0,.09-.07h0c.6-.47,1.2-1,1.79-1.44l-6.36-7.72Zm10.49-10c-1.61,1.79-3.32,3.54-5.06,5.21l6.91,7.23c.71-.68,1.41-1.36,2.1-2.06h0l.15-.15,0,0,0,0,.06-.07,0,0,.07-.07h0q1.57-1.61,3.08-3.28l-7.42-6.7Zm8.92-11.46c-1.34,2-2.77,4-4.25,5.9l7.89,6.14c.62-.79,1.22-1.59,1.81-2.39h0a1.33,1.33,0,0,0,.14-.19l0,0,.06-.08,0,0,0,0,0,0,0,0,.08-.12h0c.85-1.16,1.66-2.34,2.46-3.53l-8.32-5.55Zm7.12-12.63c-1,2.18-2.14,4.35-3.33,6.45l8.71,4.91c.69-1.22,1.35-2.45,2-3.69h0l0-.07h0l.07-.12v0l0,0,0,0,0-.09,0,0,0,0,0-.08,0,0,0-.06,0,0,0-.09,0,0,0-.07,0,0,0-.09v0l0-.07,0,0,0-.1v0l0-.09h0l0-.1,0,0,0-.09v0l0-.09,0,0,0-.08v0l0-.1,0,0,0-.09v0l0-.07,0,0a.3.3,0,0,1,0-.08l0,0,0-.07,0,0,0-.06,0-.07,0,0,0-.06h0l.07-.14h0c.1-.21.2-.41.29-.62l-9-4.25Zm5.19-13.55c-.7,2.31-1.48,4.62-2.34,6.87l9.34,3.57v0l0,0a1.8,1.8,0,0,1,.08-.21h0c.45-1.21.89-2.43,1.31-3.65v0l0-.06v0l0-.08,0-.06v0l0-.08v0l0-.1v0c0-.08,0-.15.07-.23h0c.32-1,.62-1.91.91-2.87l-9.58-2.87Zm3.11-14.16c-.34,2.39-.78,4.79-1.29,7.14l9.76,2.15c.12-.54.24-1.09.35-1.63v0c0-.07,0-.14,0-.21v-.11l0-.09v0l0-.07v0l0-.11v0l0-.09v0c0-.08,0-.16,0-.24h0c.16-.86.32-1.72.46-2.58h0l0-.12h0v-.13l0-.11v-.21l0-.1v-.11h0l.27-1.81-9.9-1.42Zm11-14.53h-10v.42c0,2.3-.08,4.61-.24,6.89l10,.69c.11-1.59.19-3.18.23-4.78h0c0-.12,0-.23,0-.34h0v-.25h0v-1.82h0v-.78Zm0-16h-10v8h10v-8Zm0-16h-10v8h10v-8Zm0-16h-10v8h10v-8Zm0-16h-10v8h10v-8Zm0-16h-10v8h10v-8Zm0-16h-10v8h10v-8Zm0-16h-10v8h10v-8Zm0-16h-10v8h10v-8Zm0-16h-10v8h10v-8Zm0-16h-10v8h10v-8Zm0-16h-10v8h10v-8Zm0-16h-10v8h10v-8Zm0-16h-10v8h10v-8Zm0-16h-10v8h10v-8Zm0-16h-10v8h10v-8Zm0-16h-10v8h10v-8Zm0-16h-10v8h10v-8Zm0-16h-10v8h10v-8Zm0-16h-10v8h10v-8Zm0-16h-10v8h10v-8Zm0-16h-10v8h10v-8Zm0-16h-10v8h10v-8Zm0-16h-10v8h10v-8Zm0-16h-10v8h10v-8Zm0-16h-10v8h10v-8Zm0-16h-10v8h10v-8Zm0-16h-10v8h10v-8Zm0-16h-10v8h10v-8Zm0-16h-10v8h10v-8Zm0-16h-10v8h10v-8Zm0-16h-10v8h10v-8Zm0-16h-10v8h10v-8Zm0-16h-10v8h10v-8Zm0-16h-10v8h10v-8Zm0-16h-10v8h10v-8Zm0-16h-10v8h10v-8Zm0-16h-10v8h10v-8Zm0-16h-10v8h10v-8Zm0-16h-10v8h10v-8Zm0-16h-10v8h10v-8Zm0-16h-10v8h10v-8Zm0-16h-10v8h10v-8Zm0-16h-10v8h10v-8Zm0-16h-10v8h10v-8Zm0-16h-10v8h10v-8Zm0-16h-10v8h10v-8Zm0-16h-10v8h10v-8Zm0-16h-10v8h10v-8Zm0-16h-10v8h10v-8Zm0-16h-10v8h10v-8Zm0-16h-10v8h10v-8Zm0-16h-10v8h10v-8Zm0-16h-10v8h10v-8Zm0-16h-10v8h10v-8Zm0-16h-10v8h10v-8Zm0-16h-10v8h10v-8Zm0-16h-10v8h10v-8Zm0-16h-10v8h10v-8Zm0-16h-10v8h10v-8Zm0-16h-10v8h10v-8Zm0-16h-10v8h10v-8Zm0-16h-10v8h10v-8Zm0-16h-10v8h10v-8Zm0-16h-10v8h10v-8Zm0-16h-10v8h10v-8Zm0-16h-10v8h10v-8Zm0-16h-10v8h10v-8Zm0-16h-10v8h10v-8Zm0-16h-10v8h10v-8Zm0-16h-10v8h10v-8Zm0-16h-10v8h10v-8Zm0-16h-10v8h10v-8Zm0-16h-10v8h10v-8Zm0-16h-10v8h10v-8Zm0-16h-10v8h10v-8Zm0-16h-10v8h10v-8Zm0-16h-10v8h10v-8Zm0-16h-10v8h10v-8Zm0-16h-10v8h10v-8Zm0-16h-10v8h10v-8Zm0-16h-10v8h10v-8Zm0-16h-10v8h10v-8Zm0-16h-10v8h10v-8Zm0-16h-10v8h10v-8Zm0-16h-10v8h10v-8Zm0-16h-10v8h10v-8Zm0-16h-10v8h10v-8Zm0-16h-10v8h10v-8Zm0-16h-10v8h10v-8Zm0-16h-10v8h10v-8Zm0-16-10,0v8h10v-7.5h0c0-.17,0-.33,0-.5ZM1052,91.93l-9.89,1.51c.36,2.38.64,4.8.83,7.21l10-.77c-.13-1.69-.3-3.38-.51-5v-.12s0-.07,0-.11v-.35l0-.08V94h0c-.09-.7-.19-1.39-.29-2.09Zm-3.57-15.58-9.56,3c.71,2.3,1.35,4.66,1.88,7l9.75-2.23c-.27-1.21-.57-2.41-.89-3.6h0l-.06-.22v0l0-.06v0l0-.1v0l0,0,0-.08v0l0-.08v0l0-.11h0l0-.11v0a1.87,1.87,0,0,1-.07-.22h0l-.07-.24h0c-.15-.56-.32-1.12-.48-1.67h0a2,2,0,0,1-.07-.23h0l0-.11h0l0-.1v0l0-.08,0,0,0-.08,0-.06v0l0-.17Zm-5.84-14.88-9,4.33c1,2.18,2,4.41,2.9,6.65l9.31-3.65c-.64-1.63-1.32-3.25-2-4.84h0l-.1-.22v0l-.09-.2v0l0-.09,0,0,0-.06,0,0,0-.06,0-.07,0,0,0-.06h0l0-.13v0l-.66-1.39Zm-8-13.86-8.28,5.62c1.36,2,2.65,4.06,3.85,6.15l8.67-5c-.58-1-1.18-2-1.79-3h0l-.06-.1h0l-.06-.1h0l-.06-.1h0l-.06-.09,0,0,0-.08v0l0-.08,0,0,0-.07,0,0,0-.07,0,0,0-.07,0,0,0-.06,0,0,0-.07,0-.05,0,0,0,0,0-.08,0,0,0-.06,0,0,0-.07,0,0,0,0,0,0,0-.07,0,0,0,0,0-.07,0-.05,0,0,0,0-.06-.09,0,0,0-.05,0,0a.22.22,0,0,0,0-.08l0,0,0-.05,0,0-.06-.08,0,0,0-.05,0,0-.06-.09v0l-.13-.18v0l-.12-.19h0l-.13-.2h0l-.13-.2h0c0-.05-.07-.1-.1-.16Zm-9.92-12.53-7.37,6.76c1.63,1.78,3.22,3.64,4.72,5.53l7.84-6.2-1.29-1.61h0l-.15-.18v0l-.15-.17h0l-.15-.18h0l-.11-.13h0l-.15-.18h0l-.15-.18h0l-.16-.19h0l-.32-.37h0l-.42-.49h0c-.06-.07-.11-.12-.16-.19h0l-.16-.17v0l-.15-.17h0l-.15-.17v0l-.09-.1h0l0-.05,0,0-.07-.09,0,0,0,0,0,0s0,0,0-.05l0,0,0,0-.06-.06,0,0,0-.06,0,0-.07-.08,0,0-.06-.07v0l-.08-.08h0l-.58-.64ZM1013,24.13l-6.3,7.77c1.88,1.52,3.72,3.13,5.47,4.78l6.85-7.29c-.72-.68-1.46-1.36-2.21-2h0l-.18-.15h0l-.17-.15,0,0-.08-.07,0,0-.07-.06,0,0-.08-.06,0,0-.06-.05,0,0-.07-.07,0,0-.06-.05,0,0-.07-.06,0,0,0,0-.06,0,0,0,0,0,0,0-.08-.07,0,0,0-.05h0l-.11-.09h0l-.18-.16h0c-.68-.58-1.37-1.15-2.06-1.71ZM999.88,15l-5.08,8.61c2.07,1.22,4.13,2.54,6.11,3.92l5.7-8.21,0,0-.05,0,0,0-.08-.05,0,0,0,0-.05,0-.07,0-.05,0,0,0-.06,0-.05,0,0,0-.05,0,0,0-.06,0,0,0-.06,0,0,0-.07-.05,0,0-.09-.06h0l-.08-.05,0,0-.09-.06h0l-.08,0,0,0-.09,0,0,0-.07-.05h0l-.1-.07h0l-.1-.07h0q-2.24-1.48-4.54-2.86h0l-.11-.06h0l-.08-.05,0,0L999.9,15Zm-14.32-7.1-3.76,9.27c2.23.91,4.45,1.91,6.61,3l4.44-9-1-.49h0l-.21-.1h0l-.1-.05h0l-.06,0,0,0,0,0-.11-.05h0c-1.6-.76-3.23-1.49-4.88-2.17h0l-.1,0-.05,0,0,0-.1,0h0l-.11,0h0l-.35-.15ZM970.34,3,968,12.74c2.35.57,4.7,1.23,7,2L978,5.18h0l-.11,0h0l-.1,0h0L977.57,5h0l-1.91-.58h0l-.24-.07h0l-.23-.07h0L975,4.24h0l-.09,0h0l-.1,0h0l-.07,0h-.06l-.07,0-.05,0h0l-.12,0h0l-.07,0h0c-1.26-.36-2.53-.69-3.82-1ZM954.57.43l-.89,10c2.4.22,4.83.52,7.2.91l1.62-9.87c-2.61-.43-5.26-.76-7.93-1ZM944.83,0V10h1.59l.16-10h-1.75Z"/></g></g></svg>