<svg xmlns="http://www.w3.org/2000/svg" viewBox="0 0 748.46 298.9"><defs><style>.cls-1{fill:none;stroke:#ffebd4;stroke-width:8px;stroke-dasharray:6.68 6.68;}.cls-1,.cls-2{stroke-miterlimit:10;}.cls-2{fill:#ffebd4;stroke:#265d7f;stroke-width:10px;}</style></defs><g id="Layer_2" data-name="Layer 2"><g id="Layer_16" data-name="Layer 16"><g id="bounce_lines" data-name="bounce lines"><path class="cls-1" d="M166.57,154.09a327.57,327.57,0,0,1,40.25,59.63,345.83,345.83,0,0,1,28.37,73.15C243,269.41,318.27,107.31,488,74.2c134.79-26.3,236.81,46.73,258,62.69"/><path class="cls-1" d="M259.86,284.4c53.43-113,157.38-189.17,272.9-196.84,102.72-6.82,178.86,42.93,204.32,61.3"/><path class="cls-1" d="M147.48,172.72a211.86,211.86,0,0,1,41.6,54.42A228.27,228.27,0,0,1,211.44,289"/></g><g id="DROP"><path class="cls-2" d="M79.52,159c35.71,6.9,71.08-20.77,79-61.8s-14.6-79.88-50.31-86.78v.08L85.58,6.13,56.9,154.63Z"/><ellipse class="cls-2" cx="71.25" cy="80.34" rx="75.66" ry="65.86" transform="translate(-21.15 135.06) rotate(-79.07)"/><ellipse class="cls-2" cx="71.25" cy="80.34" rx="34.38" ry="29.93" transform="translate(-21.15 135.06) rotate(-79.07)"/></g></g></g></svg>