<svg xmlns="http://www.w3.org/2000/svg" viewBox="0 0 706 152.78"><defs><style>.cls-1{fill:#ffd67d;}.cls-2{fill:#f5eee5;stroke:#64a03d;stroke-miterlimit:10;stroke-width:6px;}.cls-3{fill:#649f3d;}</style></defs><g id="Layer_2" data-name="Layer 2"><g id="Layer_20_copy" data-name="Layer 20 copy"><rect class="cls-1" x="8" y="8" width="690" height="136.78" rx="44.7"/><path class="cls-1" d="M653.3,16A36.75,36.75,0,0,1,690,52.7v47.37a36.75,36.75,0,0,1-36.7,36.71H52.7A36.75,36.75,0,0,1,16,100.07V52.7A36.75,36.75,0,0,1,52.7,16H653.3m0-16H52.7A52.76,52.76,0,0,0,0,52.7v47.37a52.77,52.77,0,0,0,52.7,52.71H653.3A52.77,52.77,0,0,0,706,100.07V52.7A52.76,52.76,0,0,0,653.3,0Z"/><rect class="cls-2" x="30" y="30" width="646" height="92.78" rx="22.7"/><path class="cls-3" d="M108.57,55.43H117L104,93.78H97.78L92.21,73,86.76,93.78H80.58l-13-38.35H76l7.79,25,5.4-19.59h6.29l5.29,19.59Z"/><path class="cls-3" d="M146.47,79.53V93.78h-7.29V80c0-4.07-2.45-6-5-6s-5.85,1.45-5.85,6.12V93.78h-7.29V53.65h7.29V71.91c1.12-3.34,5.29-4.79,7.79-4.79C143,67.12,146.52,71.74,146.47,79.53Z"/><path class="cls-3" d="M173,67.79h7.29v26H173V90.05a10.27,10.27,0,0,1-8.57,4.39c-7.18,0-12.52-5.56-12.52-13.63s5.23-13.69,12.69-13.69a10,10,0,0,1,8.4,4.12Zm-.22,13a6.84,6.84,0,0,0-6.79-6.9,6.87,6.87,0,0,0,.05,13.74A6.85,6.85,0,0,0,172.79,80.81Z"/><path class="cls-3" d="M203,67.79v5.67h-5.51V93.78h-7.29V73.46h-4.73V67.79h4.73V58.33h7.29v9.46Z"/><path class="cls-3" d="M240.46,67.79h7.29v26h-7.29V90.05a10.3,10.3,0,0,1-8.57,4.39c-7.18,0-12.53-5.56-12.53-13.63s5.24-13.69,12.69-13.69a10,10,0,0,1,8.41,4.12Zm-.23,13a6.84,6.84,0,0,0-6.79-6.9,6.87,6.87,0,0,0,.06,13.74A6.85,6.85,0,0,0,240.23,80.81Z"/><path class="cls-3" d="M274.07,68l-1.67,7a7.61,7.61,0,0,0-3.73-.94c-3.73,0-6.29,3.5-6.29,10.9v8.91h-7.29v-26h7.24v5.56c1.44-4.34,4.39-6.23,7.62-6.23A9.3,9.3,0,0,1,274.07,68Z"/><path class="cls-3" d="M302.78,83.15H283.25c.78,3.06,3.23,4.84,6.68,4.84a9.29,9.29,0,0,0,6.84-3.06L301,89.21c-2.45,3.29-7,5.23-11.52,5.23-8,0-13.86-5.62-13.86-13.63,0-8.4,6.41-13.69,13.81-13.69S303,72.41,303,80.36C303,81.09,302.89,82,302.78,83.15Zm-7.18-4.73c-.22-3.06-2.72-5-6-5a6,6,0,0,0-6.34,5Z"/><path class="cls-3" d="M352.92,93.78h-10L330.55,78.36V93.78h-7.74V55.43h7.74v15.7l10.68-15.7h9.3l-13.3,19Z"/><path class="cls-3" d="M355,58.83a4.63,4.63,0,1,1,4.62,4.4A4.53,4.53,0,0,1,355,58.83Zm1,35v-26h7.29v26Z"/><path class="cls-3" d="M399.05,80.75c0,8.41-6.06,13.69-12.74,13.69-2.95,0-6.51-1.22-8.35-3.89v16h-7.29V67.79H378V71c1.84-2.62,5.4-3.84,8.35-3.84C393,67.12,399.05,72.46,399.05,80.75Zm-7.46.06a6.71,6.71,0,1,0-13.41,0,6.89,6.89,0,0,0,6.74,6.84A6.73,6.73,0,0,0,391.59,80.81Z"/><path class="cls-3" d="M424.37,67.79h7.29v26h-7.29V90.05a10.27,10.27,0,0,1-8.57,4.39c-7.18,0-12.52-5.56-12.52-13.63S408.51,67.12,416,67.12a10,10,0,0,1,8.4,4.12Zm-.22,13a6.84,6.84,0,0,0-6.79-6.9,6.87,6.87,0,0,0,.05,13.74A6.85,6.85,0,0,0,424.15,80.81Z"/><path class="cls-3" d="M468.28,55.43c11,0,17.42,8.35,17.42,19.26s-6.41,19.09-17.42,19.09h-15V55.43Zm0,31.5c6.4,0,9.68-5.67,9.68-12.24s-3.28-12.41-9.68-12.41H461V86.93Z"/><path class="cls-3" d="M510.51,68l-1.67,7a7.55,7.55,0,0,0-3.72-.94c-3.73,0-6.29,3.5-6.29,10.9v8.91h-7.29v-26h7.23v5.56c1.45-4.34,4.4-6.23,7.63-6.23A9.25,9.25,0,0,1,510.51,68Z"/><path class="cls-3" d="M512,80.81c0-8.24,6.56-13.69,14-13.69s14,5.45,14,13.69-6.57,13.63-14,13.63S512,89,512,80.81Zm20.53,0A6.57,6.57,0,1,0,526,87.65,6.59,6.59,0,0,0,532.55,80.81Z"/><path class="cls-3" d="M574.06,80.75c0,8.41-6.06,13.69-12.74,13.69-3,0-6.51-1.22-8.35-3.89v16h-7.29V67.79H553V71c1.84-2.62,5.4-3.84,8.35-3.84C568,67.12,574.06,72.46,574.06,80.75Zm-7.45.06a6.71,6.71,0,1,0-13.41,0,6.88,6.88,0,0,0,6.73,6.84A6.73,6.73,0,0,0,566.61,80.81Z"/><path class="cls-3" d="M578.24,85.6h6.84c0,1.5,1.28,3.11,3.84,3.11,2.12,0,3.73-1.06,3.73-2.56,0-1.11-.89-1.67-2.84-2.17l-3.45-.83c-6.68-1.78-7.57-5.51-7.57-8.24,0-4,4.18-7.79,10.19-7.79,4.73,0,10.29,2.28,10.24,8.46h-7c0-1.78-1.45-2.73-3.17-2.73s-3,1-3,2.28,1.12,1.84,2.56,2.23l4.29,1.11c6.23,1.67,7,5.57,7,7.68,0,5.46-5.56,8.29-10.91,8.29S578.29,91.33,578.24,85.6Z"/><path class="cls-3" d="M610,80.92l-.06-1.11c-.39-4.29.67-7.07,5.29-9l2-.78A4.54,4.54,0,0,0,620.08,66c0-2.72-1.89-4.23-4.56-4.23a4.78,4.78,0,0,0-4.78,4.84H604c0-7.62,5.07-11.79,11.63-11.79S627,58.88,627,65.56a11,11,0,0,1-7.46,10.74c-2.11.73-3.67,1.28-3.67,3.56v1.06Zm-1.67,8.85a4.65,4.65,0,0,1,9.29,0,4.65,4.65,0,0,1-9.29,0Z"/></g></g></svg>