<svg xmlns="http://www.w3.org/2000/svg" viewBox="0 0 178.48 113.38"><defs><style>.cls-1{fill:#ffebd4;stroke:#265d7f;stroke-miterlimit:10;stroke-width:10px;}.cls-2{fill:#265d7f;}</style></defs><g id="Layer_2" data-name="Layer 2"><g id="Layer_16" data-name="Layer 16"><path class="cls-1" d="M170.43,65.31l-4.31-26.24A20.39,20.39,0,0,0,142.7,22.32L22.12,41.86A20.28,20.28,0,0,0,5.27,65.12l4.3,26.24A20.4,20.4,0,0,0,33,108.11L153.58,88.58A20.29,20.29,0,0,0,170.43,65.31Z"/><path class="cls-1" d="M173.21,48.25,168.9,22A20.38,20.38,0,0,0,145.48,5.27L24.9,24.8A20.28,20.28,0,0,0,8.05,48.07l4.3,26.24A20.39,20.39,0,0,0,35.77,91.05L156.35,71.52A20.29,20.29,0,0,0,173.21,48.25Z"/><path class="cls-2" d="M46.32,66.41c-1.84.3-3.21.49-4.13.59a14.49,14.49,0,0,1-2.27.09,3.5,3.5,0,0,1-1.87-.52,2.2,2.2,0,0,1-.78-1.48,2.26,2.26,0,0,1,.19-1.43,2.93,2.93,0,0,1,1.18-1.09,5.6,5.6,0,0,0,.79-.5,4.4,4.4,0,0,0,.63-.54,2,2,0,0,0,.43-.7,2.73,2.73,0,0,0,.13-.89,20.8,20.8,0,0,0-.23-2.47c-.16-1.23-.38-2.72-.67-4.47s-.53-3.16-.76-4.46-.4-2.14-.49-2.53a2.59,2.59,0,0,0-.25-.58,1.82,1.82,0,0,0-.46-.46,1.26,1.26,0,0,0-.47-.22,2.1,2.1,0,0,0-.51,0,1.57,1.57,0,0,0-.32,0l-.36.06a1.35,1.35,0,0,0-.6.25,1.27,1.27,0,0,0-.4.53,2.45,2.45,0,0,0-.21.51c-.06.2-.14.53-.24,1s-.2.75-.25,1a5.36,5.36,0,0,1-.2.57,4,4,0,0,1-1,1.58,2.88,2.88,0,0,1-1.48.7,2.6,2.6,0,0,1-2.19-.52A3.66,3.66,0,0,1,28.41,48a13.6,13.6,0,0,1-.09-3.91,8.6,8.6,0,0,1,1-3.21,4,4,0,0,1,.95-1.11,2.53,2.53,0,0,1,1.19-.54,3.27,3.27,0,0,1,.8-.05,2.68,2.68,0,0,1,.85.21,2.32,2.32,0,0,0,.73.23,3.81,3.81,0,0,0,.73,0l1.08-.18,1.49-.24c1-.18,1.89-.34,2.66-.46l2.55-.41,2.7-.42,2.59-.39,1.12-.14.73-.12A3,3,0,0,0,50,37.1a3.62,3.62,0,0,0,.61-.39,5.79,5.79,0,0,1,1-.59,4.39,4.39,0,0,1,1-.28,2.66,2.66,0,0,1,1.05,0,3.44,3.44,0,0,1,1,.46,6.35,6.35,0,0,1,2,2.49,13.94,13.94,0,0,1,1.23,4,4.15,4.15,0,0,1-.36,2.77A2.56,2.56,0,0,1,55.71,47,2.83,2.83,0,0,1,54,46.75a4.93,4.93,0,0,1-1.63-1.51A11.59,11.59,0,0,0,50.57,43a2.09,2.09,0,0,0-.28-.17,2.45,2.45,0,0,0-.4-.15,1.56,1.56,0,0,0-.35,0,2.23,2.23,0,0,0-.34,0,3.66,3.66,0,0,0-.64.14,1.74,1.74,0,0,0-.43.18.7.7,0,0,0-.32.42,2.7,2.7,0,0,0-.08.72,13.31,13.31,0,0,0,.17,1.65q.16,1.15.92,5.76c.32,2,.58,3.52.8,4.7s.38,1.91.47,2.18a3.18,3.18,0,0,0,.37.71,2.85,2.85,0,0,0,.66.62,2,2,0,0,0,.55.24,10.67,10.67,0,0,0,1.09.31,2.87,2.87,0,0,1,1.49.68,2.33,2.33,0,0,1,.53,1.23,2,2,0,0,1-.34,1.59,3.86,3.86,0,0,1-1.74,1.13,21.16,21.16,0,0,1-2.59.76C49.07,65.93,47.8,66.17,46.32,66.41Z"/><path class="cls-2" d="M73,59.36a6.13,6.13,0,0,1-2.08,2.47,7.46,7.46,0,0,1-3.2,1.3A6.71,6.71,0,0,1,63,62.42a5.23,5.23,0,0,1-2.29-3.81,5.58,5.58,0,0,1,.27-3,5.83,5.83,0,0,1,1.87-2.42A11,11,0,0,1,64.68,52a34.93,34.93,0,0,1,3.65-1.51l.65-.24c.15-.07.28-.13.4-.2a3.82,3.82,0,0,0,1.51-1.19,2.18,2.18,0,0,0,.29-1.53v-.11a2,2,0,0,0-.81-1.37,2.26,2.26,0,0,0-1.67-.27,2.36,2.36,0,0,0-1.32.69,3.1,3.1,0,0,0-.8,1.5,5.13,5.13,0,0,1-1.28,2.49,4.14,4.14,0,0,1-2.25,1,3.79,3.79,0,0,1-2.78-.5,3.18,3.18,0,0,1-1.39-2.22q-.45-2.78,2.75-5.18A16.5,16.5,0,0,1,69,40.33c3.22-.51,5.75-.23,7.6.86A7.48,7.48,0,0,1,80,46.8c.07.48.15,1,.23,1.45s.18,1.17.3,2,.25,1.53.3,1.89.12.68.16,1a4.46,4.46,0,0,0,.19.78,7.37,7.37,0,0,0,.39.89.94.94,0,0,0,.37.33,2.29,2.29,0,0,0,.66.24,2.13,2.13,0,0,1,1.06.5,1.82,1.82,0,0,1,.42,1,2.37,2.37,0,0,1-.17,1.38,4,4,0,0,1-1.06,1.29,7.68,7.68,0,0,1-1.81,1,11,11,0,0,1-2.3.64,9.28,9.28,0,0,1-1.91.15,3.69,3.69,0,0,1-1.43-.43,2.87,2.87,0,0,1-.87-.68,4,4,0,0,1-.64-1,1.17,1.17,0,0,0-.21-.33.31.31,0,0,0-.24-.06.39.39,0,0,0-.25.14A1.13,1.13,0,0,0,73,59.36Zm-3.84-4a1.9,1.9,0,0,0,.74,1.32,1.87,1.87,0,0,0,1.46.29,1.61,1.61,0,0,0,1-.49,1.84,1.84,0,0,0,.42-1.08,4.1,4.1,0,0,0,0-.62c0-.23,0-.51-.1-.83l0-.23a1.69,1.69,0,0,0-.43-1.08c-.19-.15-.49-.12-.89.1l-.21.11-.16.08a1,1,0,0,0-.23.14.67.67,0,0,0-.2.11.2.2,0,0,1-.09,0,2.48,2.48,0,0,0-1.09.91A1.75,1.75,0,0,0,69.15,55.32Z"/><path class="cls-2" d="M94.32,40.5A10.91,10.91,0,0,1,97,36.58a6.88,6.88,0,0,1,3.39-1.43,5.67,5.67,0,0,1,3.58.46,7,7,0,0,1,2.72,2.8.85.85,0,0,0,.26.32.42.42,0,0,0,.31.08s.1,0,.16-.1a1.35,1.35,0,0,0,.19-.34,10.75,10.75,0,0,1,2.64-3.9A7.09,7.09,0,0,1,113.63,33a5.8,5.8,0,0,1,2.54.13,5.46,5.46,0,0,1,2.14,1.24,6.52,6.52,0,0,1,1.37,1.87,10.85,10.85,0,0,1,.93,2.72c.24,1.17.42,2.05.54,2.65s.23,1.15.32,1.68L121.9,46c.09.55.18,1,.27,1.42a10.56,10.56,0,0,0,.32,1.37,2.11,2.11,0,0,0,.2.4,2.21,2.21,0,0,0,.25.23l.55.41a3.68,3.68,0,0,1,.91.81,2,2,0,0,1,.28.8,1.63,1.63,0,0,1-.16,1.05,2.15,2.15,0,0,1-.81.84,7,7,0,0,1-1.86.84,21.26,21.26,0,0,1-2.78.6,24.84,24.84,0,0,1-3.2.34,6.73,6.73,0,0,1-2-.2,1.83,1.83,0,0,1-.85-.55,1.75,1.75,0,0,1-.39-.9,2,2,0,0,1,.52-1.78,1.07,1.07,0,0,0,.23-.34,2.79,2.79,0,0,0,.18-.49,3.35,3.35,0,0,0,0-.74c0-.28,0-.63-.07-1s-.07-.69-.15-1.17-.21-1.29-.4-2.44a17.59,17.59,0,0,0-.66-2.87,2.94,2.94,0,0,0-.88-1.38,2.27,2.27,0,0,0-1-.52,2.74,2.74,0,0,0-1.15,0,2.45,2.45,0,0,0-1.07.4,1.13,1.13,0,0,0-.48.74,3,3,0,0,0,0,.94c0,.45.24,1.87.63,4.27.06.35.12.8.2,1.35a10.84,10.84,0,0,0,.22,1.2,6.23,6.23,0,0,0,.29.95,3.6,3.6,0,0,0,.41.78,2.67,2.67,0,0,0,.29.34,3.25,3.25,0,0,0,.4.32,2.27,2.27,0,0,1,.65.67,2.8,2.8,0,0,1,.32,1,1.78,1.78,0,0,1-.12,1,1.94,1.94,0,0,1-.74.83,6.53,6.53,0,0,1-1.82.82,24.74,24.74,0,0,1-3,.66,22.7,22.7,0,0,1-2.82.3,7.81,7.81,0,0,1-2.09-.21,1.84,1.84,0,0,1-.91-.5,1.69,1.69,0,0,1-.44-.93,1.92,1.92,0,0,1,0-.9,2.68,2.68,0,0,1,.56-.89c.1-.15.19-.28.26-.41a1.21,1.21,0,0,0,.14-.43,2.35,2.35,0,0,0,.07-.62,8.38,8.38,0,0,0-.08-1.14c0-.31-.08-.7-.16-1.17s-.2-1.29-.39-2.44A17.5,17.5,0,0,0,99,44.7a3.06,3.06,0,0,0-.89-1.38,2.42,2.42,0,0,0-.95-.52,2.93,2.93,0,0,0-1.15,0,2.42,2.42,0,0,0-1.08.4,1.21,1.21,0,0,0-.48.73,3.39,3.39,0,0,0,0,1c0,.44.25,1.86.64,4.26.16,1,.26,1.65.32,2s.13.69.2,1,.17.68.25.92a1.9,1.9,0,0,0,.27.57,1.42,1.42,0,0,0,.31.36,3.09,3.09,0,0,0,.5.36,1.64,1.64,0,0,1,.56.55,2.25,2.25,0,0,1,.28.78,1.68,1.68,0,0,1-.17,1.12,2.53,2.53,0,0,1-1,.91,9.21,9.21,0,0,1-1.85.8,19.07,19.07,0,0,1-2.58.56,26.67,26.67,0,0,1-3,.34A10.12,10.12,0,0,1,87,59.27a1.92,1.92,0,0,1-1-.5,1.67,1.67,0,0,1-.46-1,1.78,1.78,0,0,1,.08-1,3,3,0,0,1,.68-1c.13-.15.24-.29.34-.42a1.75,1.75,0,0,0,.22-.4,2.06,2.06,0,0,0,.12-.71,7.9,7.9,0,0,0,0-1c-.13-.93-.23-1.71-.32-2.32s-.17-1.2-.26-1.75c-.18-1.05-.3-1.76-.37-2.13a8.16,8.16,0,0,0-.25-1,3.59,3.59,0,0,0-.32-.74A1.19,1.19,0,0,0,85,45a1.88,1.88,0,0,0-.4-.21,1.53,1.53,0,0,0-.49-.07A1.9,1.9,0,0,1,83,44.31a1.61,1.61,0,0,1-.51-1,2.88,2.88,0,0,1,.5-1.91,9,9,0,0,1,1.86-2.16,8.64,8.64,0,0,1,2.07-1.39,8,8,0,0,1,2.27-.73,4.26,4.26,0,0,1,1.51,0,2.8,2.8,0,0,1,1.16.46,4.2,4.2,0,0,1,.78.74,4.94,4.94,0,0,1,.57.93,3.54,3.54,0,0,1,.21.58,4.93,4.93,0,0,1,.16.71.57.57,0,0,0,.15.34.29.29,0,0,0,.27.09.26.26,0,0,0,.15-.1A1.3,1.3,0,0,0,94.32,40.5Z"/><path class="cls-2" d="M145.34,28.81a2.75,2.75,0,0,1,1.2,1.23,7.29,7.29,0,0,1,.68,2.27l.48,2.95c.16,1,.32,2,.49,3,.06.4.12.79.19,1.16s.23,1.26.5,2.65c.09.4.18.72.26,1a3.34,3.34,0,0,0,.33.72,1.12,1.12,0,0,0,.4.34,3.38,3.38,0,0,0,.62.23,2.06,2.06,0,0,1,1,.48,1.86,1.86,0,0,1,.43,1,2.14,2.14,0,0,1-.22,1.38,3.94,3.94,0,0,1-1.16,1.31,7.68,7.68,0,0,1-.94.63c-.36.2-.74.39-1.15.59s-.81.31-1.19.42a9.36,9.36,0,0,1-1.14.26,8.79,8.79,0,0,1-1.95.12,4.14,4.14,0,0,1-1.46-.38,2.52,2.52,0,0,1-.94-.79,6,6,0,0,1-.76-1.56,1.24,1.24,0,0,0-.21-.37.27.27,0,0,0-.21-.06.8.8,0,0,0-.26.08.37.37,0,0,0-.12.18,9.13,9.13,0,0,1-2.47,3.28,7.84,7.84,0,0,1-3.59,1.42,5.52,5.52,0,0,1-4.55-1,8.27,8.27,0,0,1-2.51-4.81c-.11-.55-.23-1.12-.34-1.72s-.22-1.43-.34-2.48c-.12-.86-.21-1.46-.28-1.81s-.13-.63-.19-.85a1.73,1.73,0,0,0-.33-.68,2.43,2.43,0,0,0-.52-.49,1,1,0,0,0-.4-.17l-.49-.07a1.9,1.9,0,0,1-1.15-.38,1.56,1.56,0,0,1-.51-1A2.82,2.82,0,0,1,123.1,35a8.11,8.11,0,0,1,1.79-2.08,9.92,9.92,0,0,1,2.22-1.49,8,8,0,0,1,2.33-.78,6.15,6.15,0,0,1,1.52-.07,3.59,3.59,0,0,1,1.23.32,3.2,3.2,0,0,1,1.32,1.29,6.64,6.64,0,0,1,.73,2.23c.09.55.16,1.07.23,1.56s.14,1.09.23,1.79c0,.4.08.69.11.87s.05.35.08.52c.11.65.24,1.34.39,2.06s.3,1.32.43,1.81a3.37,3.37,0,0,0,1.11,1.83,2.18,2.18,0,0,0,1.74.41,1.88,1.88,0,0,0,1.32-.69A2.07,2.07,0,0,0,140.1,43l-.27-1.63c-.09-.54-.17-1.07-.26-1.59s-.15-.92-.23-1.33a9.38,9.38,0,0,0-.22-1,2,2,0,0,0-.29-.61,1.49,1.49,0,0,0-.45-.42,3.38,3.38,0,0,0-.47-.22,2.21,2.21,0,0,0-.56-.12,1.87,1.87,0,0,1-1.09-.42,1.7,1.7,0,0,1-.5-1,2.88,2.88,0,0,1,.46-1.82,8.21,8.21,0,0,1,1.67-2,11.57,11.57,0,0,1,2.3-1.57,8,8,0,0,1,2.39-.8,5.26,5.26,0,0,1,1.52-.05A3.72,3.72,0,0,1,145.34,28.81Z"/></g></g></svg>