<svg xmlns="http://www.w3.org/2000/svg" viewBox="0 0 185.96 118.33"><defs><style>.cls-1{fill:#ffebd4;stroke:#265d7f;stroke-miterlimit:10;stroke-width:10px;}.cls-2{fill:#265d7f;}</style></defs><g id="Layer_2" data-name="Layer 2"><g id="Layer_16" data-name="Layer 16"><path class="cls-1" d="M178.11,64.46,173,38.37c-2.16-11-13.31-18.06-24.9-15.81L22.43,47C10.84,49.3,3.2,60,5.37,71l5.14,26.09c2.16,11,13.31,18.06,24.9,15.8L161.05,88.44C172.63,86.18,180.27,75.44,178.11,64.46Z"/><path class="cls-1" d="M180.6,47.31l-5.14-26.09c-2.17-11-13.32-18.06-24.91-15.8L24.92,29.9c-11.59,2.25-19.23,13-17.06,24L13,80C15.17,91,26.32,98,37.9,95.77L163.54,71.29C175.13,69,182.76,58.3,180.6,47.31Z"/><path class="cls-2" d="M37.75,76.57a2.5,2.5,0,0,1-1.86,1.25,3.19,3.19,0,0,1-1.34,0,2.39,2.39,0,0,1-1.07-.55,6.84,6.84,0,0,1-1.06-1.17,13,13,0,0,1-1.08-1.82,12.16,12.16,0,0,1-.77-1.75A12.57,12.57,0,0,1,30,70.48a4.43,4.43,0,0,1,.1-2.57,1.87,1.87,0,0,1,1.45-1.21,2.52,2.52,0,0,1,1.12,0,5,5,0,0,1,1.34.57l.66.37,1.1.68c.42.28.74.49,1,.61l.64.36a10.3,10.3,0,0,0,2.74,1.08,6.16,6.16,0,0,0,2.42,0,1.9,1.9,0,0,0,1.64-2.36,2.12,2.12,0,0,0-1.25-1.47,15.18,15.18,0,0,0-4.06-1l-2-.28a12.83,12.83,0,0,1-6.14-2.18,7.37,7.37,0,0,1-2.62-4.53,8.28,8.28,0,0,1,1.37-6.8,9.89,9.89,0,0,1,6.38-3.71c.5-.1,1-.18,1.48-.23a9.41,9.41,0,0,1,1.39-.06,13,13,0,0,1,1.72.06c.64.06,1,.08,1.15.08a3.25,3.25,0,0,0,.69,0,5,5,0,0,0,.59-.08,1,1,0,0,0,.34-.12,1.15,1.15,0,0,0,.32-.28,2.42,2.42,0,0,0,.25-.3l.22-.29a2.17,2.17,0,0,1,.65-.55,2.75,2.75,0,0,1,.78-.27,2.63,2.63,0,0,1,1.77.26,5,5,0,0,1,1.62,1.52,6.84,6.84,0,0,1,.7,1.07,12.34,12.34,0,0,1,.57,1.24c.17.46.32.91.46,1.35a10.18,10.18,0,0,1,.33,1.29,3.8,3.8,0,0,1-.09,2.32,1.91,1.91,0,0,1-1.47,1,3,3,0,0,1-1.19,0,5.53,5.53,0,0,1-1.45-.55l-.57-.29-.92-.5-1.39-.78c-.32-.17-.63-.32-.91-.44A8.29,8.29,0,0,0,40.88,53a5,5,0,0,0-1.77,0,2.2,2.2,0,0,0-1.43.82,1.83,1.83,0,0,0-.3,1.49A1.77,1.77,0,0,0,38.5,56.5a15.37,15.37,0,0,0,3.79.77l1.52.18c3.26.37,5.69,1.13,7.26,2.29a7.54,7.54,0,0,1,3,4.82,8.68,8.68,0,0,1-1.57,7.21,10.82,10.82,0,0,1-6.9,4,12.63,12.63,0,0,1-2,.22,22.1,22.1,0,0,1-3.45-.3,5.9,5.9,0,0,0-.72-.07,2,2,0,0,0-.5,0,1.49,1.49,0,0,0-.64.28A2.49,2.49,0,0,0,37.75,76.57Z"/><path class="cls-2" d="M70.7,70.63a3.22,3.22,0,0,1-.89.44,10.07,10.07,0,0,1-1.33.34,7.11,7.11,0,0,1-1.64.18,2.58,2.58,0,0,1-1.06-.24,3.94,3.94,0,0,1-.94-.73,21.39,21.39,0,0,1-1.73-2.12q-1.24-1.65-3.41-5T56.19,57.8a4.32,4.32,0,0,0-.53-.77,3.64,3.64,0,0,0-.64-.59,2.63,2.63,0,0,0-.49-.33q-.27-.15-.69-.33a2,2,0,0,1-.88-.63,2.66,2.66,0,0,1-.42-1,1.65,1.65,0,0,1,.23-1.2,2.69,2.69,0,0,1,1.14-1,17.45,17.45,0,0,1,2.42-1,27.6,27.6,0,0,1,2.94-.72,26.27,26.27,0,0,1,2.95-.42,12,12,0,0,1,2.19,0,2.49,2.49,0,0,1,1.31.51,1.8,1.8,0,0,1,.6,1.1,2.45,2.45,0,0,1,0,1,2.28,2.28,0,0,1-.48.86c-.27.32-.46.54-.55.67s-.16.26-.22.37a1.91,1.91,0,0,0-.15.44,1.3,1.3,0,0,0,0,.44,2.09,2.09,0,0,0,.12.31c.07.15.17.35.29.58.32.56.75,1.25,1.31,2.09s1.27,1.85,2.15,3a1.23,1.23,0,0,0,.27.26.41.41,0,0,0,.22,0,.42.42,0,0,0,.24-.14.89.89,0,0,0,.15-.44c.21-.94.38-1.87.53-2.79s.24-1.77.29-2.55a1.71,1.71,0,0,0,0-.45c0-.14,0-.32-.08-.55a2.46,2.46,0,0,0-.22-.61,1.6,1.6,0,0,0-.34-.44c-.22-.16-.41-.3-.59-.41s-.35-.21-.53-.3a1.93,1.93,0,0,1-.72-.62,2.62,2.62,0,0,1-.36-1,1.87,1.87,0,0,1,.14-1.27,2.63,2.63,0,0,1,1-1,9.06,9.06,0,0,1,1.85-.86,22.82,22.82,0,0,1,2.83-.7,22.11,22.11,0,0,1,2.8-.39,9.33,9.33,0,0,1,2,.07,1.88,1.88,0,0,1,1,.52,2.18,2.18,0,0,1,.53,1.12,2.64,2.64,0,0,1,0,1,1.89,1.89,0,0,1-.47.86,3.94,3.94,0,0,0-.47.63,3.36,3.36,0,0,0-.26.63,1.18,1.18,0,0,0-.08.39,1.89,1.89,0,0,0,0,.43,1.79,1.79,0,0,0,.1.35c0,.11.11.23.19.37.31.53.72,1.18,1.22,2s1.19,1.79,2.06,3.07a1.68,1.68,0,0,0,.27.27.33.33,0,0,0,.23.06.38.38,0,0,0,.24-.15,1,1,0,0,0,.15-.43c.21-.79.38-1.65.53-2.58s.25-1.85.33-2.77a5.8,5.8,0,0,0,0-.59,4.6,4.6,0,0,0-.06-.52,2.21,2.21,0,0,0-.18-.51,2,2,0,0,0-.28-.41,3.31,3.31,0,0,0-.41-.35c-.15-.1-.42-.25-.8-.46a2,2,0,0,1-.72-.6,2.49,2.49,0,0,1-.36-.94,1.87,1.87,0,0,1,.19-1.31,3.13,3.13,0,0,1,1.26-1.06,8.21,8.21,0,0,1,1.47-.61,20,20,0,0,1,3.89-.75,7.44,7.44,0,0,1,1.5,0,2.8,2.8,0,0,1,1.34.49,1.69,1.69,0,0,1,.64,1.06,2.17,2.17,0,0,1,0,1,2.79,2.79,0,0,1-.58,1,2.58,2.58,0,0,0-.41.56,2.88,2.88,0,0,0-.26.57c-.06.22-.13.49-.21.82s-.16.7-.23,1.12C89,56.06,88.47,59,88.23,60.1s-.49,2.18-.72,3.1A19,19,0,0,1,86.63,66a4.38,4.38,0,0,1-.88,1.36,3.8,3.8,0,0,1-1.07.77,6.37,6.37,0,0,1-1.38.44,7.46,7.46,0,0,1-1.76.14,3.44,3.44,0,0,1-1.4-.35,3.91,3.91,0,0,1-1-.7,14.58,14.58,0,0,1-1.43-1.73c-.66-.85-1.23-1.61-1.69-2.27s-.85-1.23-1.16-1.71a1.11,1.11,0,0,0-.27-.31.38.38,0,0,0-.3,0,.41.41,0,0,0-.28.15,1.33,1.33,0,0,0-.2.4c0,.14-.06.29-.1.45s-.11.43-.19.81c-.13.54-.24,1-.32,1.36s-.18.75-.28,1.16a17.53,17.53,0,0,1-1,3.19A3.94,3.94,0,0,1,70.7,70.63Z"/><path class="cls-2" d="M115.43,56.61a9.71,9.71,0,0,1-3,4.88A12.27,12.27,0,0,1,106.71,64q-5.44,1.05-9.1-1.2A10.35,10.35,0,0,1,93,55.57a10.69,10.69,0,0,1,1.94-8.89,13.28,13.28,0,0,1,8.44-4.92,10.31,10.31,0,0,1,7.41,1,8.09,8.09,0,0,1,3.88,5.7,3.21,3.21,0,0,1-.59,2.84,5.4,5.4,0,0,1-3.19,1.52l-1.7.33-1.71.33-2,.39-2,.38a1.19,1.19,0,0,0-.69.34.67.67,0,0,0-.18.6,2.35,2.35,0,0,0,1.84,1.73,7.32,7.32,0,0,0,3.63.11,7.4,7.4,0,0,0,2.32-.85,6.36,6.36,0,0,0,1.83-1.61,5,5,0,0,1,.74-.77,1.63,1.63,0,0,1,.64-.31,1.66,1.66,0,0,1,1.25.22,1.42,1.42,0,0,1,.7,1,2.36,2.36,0,0,1,0,.84A8.16,8.16,0,0,1,115.43,56.61Zm-14.68-6.14a1.5,1.5,0,0,0,.39.83.93.93,0,0,0,.81.13l.62-.12.62-.12.69-.13.7-.13a2.44,2.44,0,0,0,1.24-.53,1,1,0,0,0,.22-1A2.1,2.1,0,0,0,105,48a2.9,2.9,0,0,0-2-.26,2.85,2.85,0,0,0-1.78,1A2.08,2.08,0,0,0,100.75,50.47Z"/><path class="cls-2" d="M139.71,51.92a9.76,9.76,0,0,1-3,4.88A12.27,12.27,0,0,1,131,59.29q-5.45,1.05-9.1-1.2a10.37,10.37,0,0,1-4.63-7.22A10.68,10.68,0,0,1,119.2,42a13.33,13.33,0,0,1,8.44-4.93,10.32,10.32,0,0,1,7.41,1,8.1,8.1,0,0,1,3.88,5.69,3.22,3.22,0,0,1-.59,2.85,5.45,5.45,0,0,1-3.19,1.52l-1.7.33-1.71.33-2,.38-2,.38a1.26,1.26,0,0,0-.69.35.65.65,0,0,0-.18.59,2.36,2.36,0,0,0,1.84,1.74,7.32,7.32,0,0,0,3.63.11,7.4,7.4,0,0,0,2.32-.85,6.52,6.52,0,0,0,1.83-1.61,5,5,0,0,1,.74-.77,1.67,1.67,0,0,1,.64-.32,1.71,1.71,0,0,1,1.25.23,1.4,1.4,0,0,1,.7,1,2.42,2.42,0,0,1,0,.85A8.16,8.16,0,0,1,139.71,51.92ZM125,45.77a1.5,1.5,0,0,0,.39.84,1,1,0,0,0,.81.13l.62-.12.62-.12.69-.13.7-.14a2.28,2.28,0,0,0,1.24-.53,1,1,0,0,0,.22-1,2.1,2.1,0,0,0-1-1.46,3.27,3.27,0,0,0-3.83.74A2.06,2.06,0,0,0,125,45.77Z"/><path class="cls-2" d="M159.12,50a9.87,9.87,0,0,1-2.8,3.25,9.67,9.67,0,0,1-4,1.74,5.92,5.92,0,0,1-5.17-.95q-1.9-1.59-2.69-5.58c-.11-.54-.21-1.1-.31-1.66s-.23-1.33-.39-2.3c-.11-.68-.19-1.17-.25-1.46s-.11-.58-.16-.82a.82.82,0,0,0-.28-.53.87.87,0,0,0-.62-.11l-.42,0a3.33,3.33,0,0,1-.51,0,1.94,1.94,0,0,1-1.42-.6,3.71,3.71,0,0,1-.66-1.67,7.21,7.21,0,0,1-.16-1.9,2.78,2.78,0,0,1,.43-1.29,1.79,1.79,0,0,1,.58-.55,2.71,2.71,0,0,1,.85-.3l.23-.05.22,0a.77.77,0,0,0,.54-.34.82.82,0,0,0,.09-.63l-.12-.62-.12-.61a3,3,0,0,1,0-1.25,2.74,2.74,0,0,1,.5-1.09,6.59,6.59,0,0,1,.8-.83c.34-.31.89-.76,1.66-1.35q.75-.57,1.14-.84a7,7,0,0,1,.71-.44c.16-.09.33-.16.5-.24a2.72,2.72,0,0,1,.44-.14,1.38,1.38,0,0,1,.94.11,1.06,1.06,0,0,1,.47.74c.16.8.31,1.59.47,2.39s.31,1.59.47,2.38a1,1,0,0,0,.34.65.87.87,0,0,0,.66.09l1.8-.35,1.8-.35a1.35,1.35,0,0,1,1.48.61,4.26,4.26,0,0,1,.56,2.41,6.11,6.11,0,0,1-.43,2.5A1.69,1.69,0,0,1,155,39.12l-1.2.24-1.2.23a1.24,1.24,0,0,0-.83.43,1.19,1.19,0,0,0-.11.95l.32,1.64c.13.67.28,1.3.43,1.89s.31,1.13.46,1.61a5.15,5.15,0,0,0,.92,1.86,1.24,1.24,0,0,0,1.18.33,2.35,2.35,0,0,0,.75-.26,2.91,2.91,0,0,0,.62-.51,4.48,4.48,0,0,1,.71-.66,1.41,1.41,0,0,1,.45-.18,1.71,1.71,0,0,1,1.25.22,1.5,1.5,0,0,1,.7,1,3.28,3.28,0,0,1,0,1A3,3,0,0,1,159.12,50Z"/></g></g></svg>