<svg xmlns="http://www.w3.org/2000/svg" viewBox="0 0 850.25 138.72"><defs><style>.cls-1{fill:#ffd049;}</style></defs><g id="Layer_2" data-name="Layer 2"><g id="Layer_19" data-name="Layer 19"><path class="cls-1" d="M66.17,29.64q0,10.5-6.51,17T42.47,53q-10.26,0-16.59-6.12T19.55,30.78q0-10.26,6.78-16.92a23.25,23.25,0,0,1,17-6.66q10,0,16.41,6.3T66.17,29.64ZM37.31,35a17.49,17.49,0,0,0,4.2,4.86A7.41,7.41,0,0,0,46,41.7a5,5,0,0,0,3.9-1.65,6.22,6.22,0,0,0,1.5-4.35A21.08,21.08,0,0,0,47.66,24Q44,18.36,39.71,18.36A5,5,0,0,0,35.78,20a6.64,6.64,0,0,0-1.59,4.32,17.74,17.74,0,0,0,.75,5.37A22.44,22.44,0,0,0,37.31,35Z" transform="translate(-19.55 -1.62)"/><path class="cls-1" d="M105.83,18.84a4.33,4.33,0,0,1,1.56,2.22,12,12,0,0,1,.48,3.72V36.12q0,.9.12,4.26.06,1,.15,1.56a5.37,5.37,0,0,0,.33,1.2,1.79,1.79,0,0,0,.54.63,4.65,4.65,0,0,0,.9.51,3.18,3.18,0,0,1,1.5,1,2.9,2.9,0,0,1,.42,1.68,3.52,3.52,0,0,1-.69,2.1A6.19,6.19,0,0,1,109,50.82a10.14,10.14,0,0,1-1.62.75q-.9.33-1.92.63a19.34,19.34,0,0,1-2,.36,14.29,14.29,0,0,1-1.83.12,12.93,12.93,0,0,1-3.06-.3,6.6,6.6,0,0,1-2.16-1A4,4,0,0,1,95.21,50a9.49,9.49,0,0,1-.78-2.61,1.85,1.85,0,0,0-.24-.63.37.37,0,0,0-.3-.15,1,1,0,0,0-.42.06.68.68,0,0,0-.24.24,14.2,14.2,0,0,1-4.65,4.5,12.23,12.23,0,0,1-5.91,1.32A8.63,8.63,0,0,1,75.86,50q-2.37-2.67-2.67-8.13-.06-1.32-.09-2.76t.09-4q.06-2,0-2.88t-.09-1.38a2.82,2.82,0,0,0-.33-1.14,4.15,4.15,0,0,0-.69-.9,1.54,1.54,0,0,0-.57-.36l-.75-.24a2.93,2.93,0,0,1-1.68-.87,2.54,2.54,0,0,1-.54-1.71,4.58,4.58,0,0,1,1.26-2.79,13.21,13.21,0,0,1,3.3-2.79,16.08,16.08,0,0,1,3.81-1.77,12.75,12.75,0,0,1,3.81-.63,9.53,9.53,0,0,1,2.37.27,5.66,5.66,0,0,1,1.83.81,5,5,0,0,1,1.71,2.34,10.34,10.34,0,0,1,.57,3.66q0,1.32,0,2.49t-.09,2.85q-.06,1-.06,1.38v.84q0,1.56.09,3.3t.21,2.94a5.32,5.32,0,0,0,1.26,3.12,3.4,3.4,0,0,0,2.58,1.08A3,3,0,0,0,93.41,42a3.23,3.23,0,0,0,.72-2.31V34.56q0-1.14,0-2.13T94,30.9a3,3,0,0,0-.3-1,2.39,2.39,0,0,0-.6-.78,5.45,5.45,0,0,0-.66-.45,3.2,3.2,0,0,0-.84-.33A3,3,0,0,1,90,27.39a2.64,2.64,0,0,1-.51-1.71A4.52,4.52,0,0,1,90.68,23a13,13,0,0,1,3.09-2.73,17.79,17.79,0,0,1,4-1.86,12.66,12.66,0,0,1,3.9-.66A8.63,8.63,0,0,1,104,18,6.16,6.16,0,0,1,105.83,18.84Z" transform="translate(-19.55 -1.62)"/><path class="cls-1" d="M140.81,17.28a6.6,6.6,0,0,1,5.4,2.52,10,10,0,0,1,2,6.48,10.39,10.39,0,0,1-2,6.69,6.57,6.57,0,0,1-5.4,2.55,6.47,6.47,0,0,1-3.09-.69,7,7,0,0,1-2.37-2.25s-.33-.46-.87-1.26-1-1.2-1.53-1.2-.79.28-1,.84a7.37,7.37,0,0,0-.51,2.46q-.06,1.44-.12,2.34t-.06,1.32q0,1.32,0,2.58t.09,2.28a5.77,5.77,0,0,0,.27,1.5,3.6,3.6,0,0,0,.75,1.2l.54.51A10.08,10.08,0,0,0,134,46,2.65,2.65,0,0,1,135,47.1a4.48,4.48,0,0,1,.27,1.68,2.61,2.61,0,0,1-.84,1.95A5.46,5.46,0,0,1,131.93,52a22.08,22.08,0,0,1-3.12.51q-1.62.15-4.8.15a47.94,47.94,0,0,1-4.92-.21,13.18,13.18,0,0,1-3.24-.69,2.86,2.86,0,0,1-1.35-1,2.81,2.81,0,0,1-.45-1.62,3.17,3.17,0,0,1,.36-1.59,4.84,4.84,0,0,1,1.32-1.35,7,7,0,0,0,.72-.6,1.88,1.88,0,0,0,.36-.48,3.42,3.42,0,0,0,.36-1.08,14.22,14.22,0,0,0,.18-1.62q.06-2.22.09-3.69t0-2.79q0-2.52,0-3.42a10.87,10.87,0,0,0-.15-1.56,7.61,7.61,0,0,0-.24-1.14,1.37,1.37,0,0,0-.3-.54,3.09,3.09,0,0,0-.66-.6,2.65,2.65,0,0,0-.9-.36,2.87,2.87,0,0,1-1.65-.84,2.86,2.86,0,0,1-.57-1.74,4.35,4.35,0,0,1,1.2-2.82,13.74,13.74,0,0,1,3.48-2.94,14.24,14.24,0,0,1,3.54-1.65,12.26,12.26,0,0,1,3.6-.57,8.62,8.62,0,0,1,2,.21,5.24,5.24,0,0,1,1.47.57,5,5,0,0,1,1.08.87,4.65,4.65,0,0,1,.78,1.11,7.61,7.61,0,0,1,.54,1.62,12,12,0,0,1,.3,2q.06.72.48.81t.66-.63a14.83,14.83,0,0,1,1.77-3.48,9.25,9.25,0,0,1,2.19-2.22,7.11,7.11,0,0,1,2.16-1A9.7,9.7,0,0,1,140.81,17.28Z" transform="translate(-19.55 -1.62)"/><path class="cls-1" d="M174.59,52.92q-1.74,0-3.18-.12a19,19,0,0,1-2.52-.36,7.31,7.31,0,0,1-3.06-1.23,2.47,2.47,0,0,1-1-2,3,3,0,0,1,.39-1.56,4.67,4.67,0,0,1,1.29-1.32,5.51,5.51,0,0,0,.69-.57,3,3,0,0,0,.45-.57,2.35,2.35,0,0,0,.33-1q.09-.6.15-1.68t.09-3.18q0-2,0-4.2v-5a1.34,1.34,0,0,0-.33-1,1.44,1.44,0,0,0-1.05-.33h-.54a1.13,1.13,0,0,1-.36-.06,3.17,3.17,0,0,1-2.49-1.56,6.15,6.15,0,0,1-.51-3.66,7.53,7.53,0,0,1,1-3.42,4.14,4.14,0,0,1,2.64-1.56,5.06,5.06,0,0,0,.81-.33,1.41,1.41,0,0,0,.45-.39,2.5,2.5,0,0,0,.27-.63,2.86,2.86,0,0,0,.09-.75q0-.36,0-.72A7.49,7.49,0,0,0,168,14.7a12.24,12.24,0,0,1-.3-1.74q-.06-.72-.06-1.5a9.08,9.08,0,0,1,3-7.17,12,12,0,0,1,8.19-2.67,10.89,10.89,0,0,1,6.69,1.83A6,6,0,0,1,188,8.52a6.64,6.64,0,0,1-1.29,4.26,4.31,4.31,0,0,1-3.57,1.62,4.57,4.57,0,0,1-1.05-.12,6.34,6.34,0,0,1-1.47-.66,5.87,5.87,0,0,0-1.23-.48,4.57,4.57,0,0,0-1.05-.12,2.09,2.09,0,0,0-1.56.69,2.3,2.3,0,0,0-.66,1.65,2.1,2.1,0,0,0,1.08,1.95,6.58,6.58,0,0,0,3.24.63h.84q.42,0,1.26-.06,1.14-.06,2-.06h1.65a2,2,0,0,1,2,1.5,10,10,0,0,1-.06,4.5,9.74,9.74,0,0,1-1.38,3.78,2.61,2.61,0,0,1-2.16,1.26h-1a2.17,2.17,0,0,0-1.68.54,2.58,2.58,0,0,0-.48,1.74v3.24q0,2.46.09,4.29t.21,2.91a3.9,3.9,0,0,0,.42,1.26,4.31,4.31,0,0,0,.72,1,7.41,7.41,0,0,0,1,.69,7.58,7.58,0,0,0,1.14.57,3.73,3.73,0,0,1,1.65,1.2,3.26,3.26,0,0,1,.51,1.92,3,3,0,0,1-1.2,2.43,9.18,9.18,0,0,1-3.6,1.59,24.6,24.6,0,0,1-3.39.54Q177,52.92,174.59,52.92Zm25.68-.24a39.34,39.34,0,0,1-4.71-.24,15.1,15.1,0,0,1-3.27-.72,3.05,3.05,0,0,1-1.38-1,2.68,2.68,0,0,1-.48-1.62,3,3,0,0,1,.39-1.56,4.67,4.67,0,0,1,1.29-1.32q.36-.3.63-.57a3,3,0,0,0,.45-.57,3.42,3.42,0,0,0,.36-1.08,14.22,14.22,0,0,0,.18-1.62q.06-2.22.09-3.69t0-2.79q0-1.68,0-2.85t-.15-2.13a6,6,0,0,0-.27-1.17A2.58,2.58,0,0,0,193,29a2.79,2.79,0,0,0-.54-.42,4.36,4.36,0,0,0-.84-.36,2.61,2.61,0,0,1-1.35-.93,2.78,2.78,0,0,1-.45-1.65A4.59,4.59,0,0,1,190.94,23a12.34,12.34,0,0,1,3-2.73,14.65,14.65,0,0,1,3.78-1.92,12.28,12.28,0,0,1,3.9-.66,7.06,7.06,0,0,1,2.61.42A4.72,4.72,0,0,1,206,19.44a5.85,5.85,0,0,1,1.32,2.61,16.38,16.38,0,0,1,.42,4q0,2.28,0,4.5t-.09,5.28q-.06,1.08-.06,1.47v3.3q0,.81.06,1.41.06,1.44.15,2a2,2,0,0,0,.6,1.29q.27.3.75.78a5.27,5.27,0,0,1,1.17,1.41,3.28,3.28,0,0,1,.27,1.41,2.74,2.74,0,0,1-.51,1.62,3.49,3.49,0,0,1-1.41,1.14,11.23,11.23,0,0,1-3.21.78A45.41,45.41,0,0,1,200.27,52.68Zm7.56-45q0,3.42-3.63,6A13.91,13.91,0,0,1,196,16.2a6.65,6.65,0,0,1-4.47-1.41A4.69,4.69,0,0,1,189.89,11q0-3.36,3.63-6a13.39,13.39,0,0,1,7.83-2.7,7.45,7.45,0,0,1,4.86,1.35A4.9,4.9,0,0,1,207.83,7.68Z" transform="translate(-19.55 -1.62)"/><path class="cls-1" d="M240.17,17.28a6.6,6.6,0,0,1,5.4,2.52,10,10,0,0,1,2,6.48,10.39,10.39,0,0,1-2,6.69,6.57,6.57,0,0,1-5.4,2.55,6.47,6.47,0,0,1-3.09-.69,7,7,0,0,1-2.37-2.25s-.33-.46-.87-1.26-1.05-1.2-1.53-1.2-.79.28-1.05.84a7.37,7.37,0,0,0-.51,2.46q-.06,1.44-.12,2.34t-.06,1.32q0,1.32,0,2.58t.09,2.28a5.77,5.77,0,0,0,.27,1.5,3.6,3.6,0,0,0,.75,1.2l.54.51a10.08,10.08,0,0,0,1.14.81,2.65,2.65,0,0,1,.93,1.14,4.48,4.48,0,0,1,.27,1.68,2.61,2.61,0,0,1-.84,1.95A5.46,5.46,0,0,1,231.29,52a22.08,22.08,0,0,1-3.12.51q-1.62.15-4.8.15a47.94,47.94,0,0,1-4.92-.21,13.18,13.18,0,0,1-3.24-.69,2.86,2.86,0,0,1-1.35-1,2.81,2.81,0,0,1-.45-1.62,3.17,3.17,0,0,1,.36-1.59,4.84,4.84,0,0,1,1.32-1.35,7,7,0,0,0,.72-.6,1.88,1.88,0,0,0,.36-.48,3.42,3.42,0,0,0,.36-1.08,14.22,14.22,0,0,0,.18-1.62q.06-2.22.09-3.69t0-2.79q0-2.52,0-3.42a10.87,10.87,0,0,0-.15-1.56,7.61,7.61,0,0,0-.24-1.14,1.37,1.37,0,0,0-.3-.54,3.09,3.09,0,0,0-.66-.6,2.65,2.65,0,0,0-.9-.36,2.87,2.87,0,0,1-1.65-.84,2.86,2.86,0,0,1-.57-1.74,4.35,4.35,0,0,1,1.2-2.82A13.74,13.74,0,0,1,217,19.92a14.24,14.24,0,0,1,3.54-1.65,12.26,12.26,0,0,1,3.6-.57,8.62,8.62,0,0,1,2,.21,5.24,5.24,0,0,1,1.47.57,5,5,0,0,1,1.08.87,4.65,4.65,0,0,1,.78,1.11,7.61,7.61,0,0,1,.54,1.62,12,12,0,0,1,.3,2q.06.72.48.81t.66-.63a14.83,14.83,0,0,1,1.77-3.48,9.25,9.25,0,0,1,2.19-2.22,7.11,7.11,0,0,1,2.16-1A9.7,9.7,0,0,1,240.17,17.28Z" transform="translate(-19.55 -1.62)"/><path class="cls-1" d="M257.33,52a4.45,4.45,0,0,1-1.08.54,3.26,3.26,0,0,1-.9.12,3.63,3.63,0,0,1-1.47-.33,4.65,4.65,0,0,1-1.41-1,9.43,9.43,0,0,1-1.32-1.68,10.35,10.35,0,0,1-1-2.22,12,12,0,0,1-.54-2.22,17.86,17.86,0,0,1-.18-2.64,5,5,0,0,1,.84-3.06,2.63,2.63,0,0,1,2.22-1.14,3.84,3.84,0,0,1,1.62.39,11.42,11.42,0,0,1,2.22,1.53q.42.36.87.78t1.35,1.32a16.61,16.61,0,0,0,3.21,2.67,5,5,0,0,0,2.49.69,2.34,2.34,0,0,0,1.68-.57,2.09,2.09,0,0,0,.6-1.59,2,2,0,0,0-.57-1.38,6.72,6.72,0,0,0-2-1.26q-.6-.3-1.92-.81l-1.74-.69-3.12-1.26a12.62,12.62,0,0,1-5.52-3.84,8.94,8.94,0,0,1-1.86-5.64,10,10,0,0,1,3.66-8.16,14.57,14.57,0,0,1,9.54-3,22.76,22.76,0,0,1,2.94.18q1.38.18,3.42.66,1.26.36,1.8.45a6.22,6.22,0,0,0,1,.09,1.79,1.79,0,0,0,.57-.09,5.77,5.77,0,0,0,1.17-.81,3.22,3.22,0,0,1,1.05-.57,3.92,3.92,0,0,1,1.11-.15,3.47,3.47,0,0,1,2.07.72A6.94,6.94,0,0,1,280,20.22a10.26,10.26,0,0,1,1.2,3,14.41,14.41,0,0,1,.42,3.45,6.25,6.25,0,0,1-.18,1.62,2.38,2.38,0,0,1-.6,1.08,3.94,3.94,0,0,1-1,.75,2.65,2.65,0,0,1-1.2.27,5.65,5.65,0,0,1-1.53-.21,4.4,4.4,0,0,1-1.35-.63,12.27,12.27,0,0,1-1-.72q-.54-.42-1.56-1.32a20.52,20.52,0,0,0-3.72-2.82,4.76,4.76,0,0,0-1.92-.42,2.29,2.29,0,0,0-1.65.6,2,2,0,0,0-.63,1.5,1.59,1.59,0,0,0,.6,1.2,6.7,6.7,0,0,0,2,1.08q.66.3,1.92.72t1.56.54l2.34.84q4.68,1.68,6.69,4.2a10,10,0,0,1,2,6.42,10.32,10.32,0,0,1-3.93,8.34,15.46,15.46,0,0,1-10.17,3.24q-1,0-2-.09t-2-.21q-1-.18-2.34-.48l-1.62-.36a4.09,4.09,0,0,0-.78-.15q-.36,0-.72,0a2.29,2.29,0,0,0-.66.09A3.6,3.6,0,0,0,257.33,52Z" transform="translate(-19.55 -1.62)"/><path class="cls-1" d="M311.15,47a15.66,15.66,0,0,1-5.31,4.2,15.11,15.11,0,0,1-6.69,1.5q-5.22,0-7.68-3T289,40.2q0-1.32,0-2.67t.09-3.69q.06-1.62.06-2.34V30.18a1.31,1.31,0,0,0-.27-.9,1.38,1.38,0,0,0-.93-.36l-.66-.06a6.59,6.59,0,0,1-.78-.12,3.09,3.09,0,0,1-2-1.35A6,6,0,0,1,284,24.6a11.11,11.11,0,0,1,.33-3,4.24,4.24,0,0,1,1.05-1.86,2.9,2.9,0,0,1,1-.69,4.11,4.11,0,0,1,1.41-.21h.72a1.2,1.2,0,0,0,.93-.36,1.37,1.37,0,0,0,.33-1v-2a5.16,5.16,0,0,1,.33-1.95,4.32,4.32,0,0,1,1.11-1.53A10.54,10.54,0,0,1,292.76,11q.93-.57,3-1.59,1.32-.66,2-1T299,8q.42-.12.84-.21a3.52,3.52,0,0,1,.72-.09,2.06,2.06,0,0,1,1.41.45,1.63,1.63,0,0,1,.51,1.29V17.1a1.53,1.53,0,0,0,.33,1.11,1.34,1.34,0,0,0,1,.33h5.76a2.12,2.12,0,0,1,2.1,1.38,6.84,6.84,0,0,1,.12,3.9,9.61,9.61,0,0,1-1.41,3.75,2.67,2.67,0,0,1-2.19,1.29h-3.84a2,2,0,0,0-1.41.42,1.91,1.91,0,0,0-.45,1.44v2.64q0,1.62.09,3.06t.21,2.64a8.16,8.16,0,0,0,.87,3.15,1.91,1.91,0,0,0,1.71.87,3.71,3.71,0,0,0,1.23-.18,4.72,4.72,0,0,0,1.11-.6,6.86,6.86,0,0,1,1.29-.81,2.09,2.09,0,0,1,.75-.15,2.65,2.65,0,0,1,1.86.72,2.28,2.28,0,0,1,.78,1.74,4.81,4.81,0,0,1-.3,1.62A5.11,5.11,0,0,1,311.15,47Z" transform="translate(-19.55 -1.62)"/><path class="cls-1" d="M362.39,44.28a16,16,0,0,1-6.54,6.45,20.64,20.64,0,0,1-9.78,2.19q-7.8,0-12.66-4.83a16.87,16.87,0,0,1-4.86-12.51q0-8.1,4.89-13.11a16.8,16.8,0,0,1,12.57-5,22.12,22.12,0,0,1,2.67.15,24.29,24.29,0,0,1,3.51.81,7.77,7.77,0,0,0,1,.27,5.2,5.2,0,0,0,1,.09,2.74,2.74,0,0,0,.81-.12,3.84,3.84,0,0,0,1-.54,5,5,0,0,1,1.2-.63,3.4,3.4,0,0,1,1-.15,2.81,2.81,0,0,1,1.62.54,5.94,5.94,0,0,1,1.5,1.62,12,12,0,0,1,1.11,2.16,15.39,15.39,0,0,1,.81,2.76q.3,1.38.48,2.82a22.73,22.73,0,0,1,.18,2.82,5.46,5.46,0,0,1-.33,1.95,4.29,4.29,0,0,1-1,1.53,4.11,4.11,0,0,1-1.47.93,5.46,5.46,0,0,1-2,.33,4.25,4.25,0,0,1-2.16-.63,17.44,17.44,0,0,1-3.12-2.73,18.38,18.38,0,0,0-3.93-3.3,6.5,6.5,0,0,0-3.09-.78,4.29,4.29,0,0,0-3.21,1.26A4.6,4.6,0,0,0,342.41,32a9,9,0,0,0,3,6.72,10.28,10.28,0,0,0,7.35,2.88,11.1,11.1,0,0,0,3.12-.42,7.43,7.43,0,0,0,2.46-1.2,9.45,9.45,0,0,1,1.41-.9,2.32,2.32,0,0,1,1-.24,2.65,2.65,0,0,1,1.86.72,2.28,2.28,0,0,1,.78,1.74,4.48,4.48,0,0,1-.24,1.35A8,8,0,0,1,362.39,44.28Z" transform="translate(-19.55 -1.62)"/><path class="cls-1" d="M386,48.36a9.63,9.63,0,0,1-3.84,3.33,11.64,11.64,0,0,1-5.28,1.23,10.42,10.42,0,0,1-7.2-2.31,8.29,8.29,0,0,1-2.58-6.51,8.91,8.91,0,0,1,1.17-4.62,9.2,9.2,0,0,1,3.51-3.3A17.79,17.79,0,0,1,375,34.8a58.46,58.46,0,0,1,6-1.44q.72-.12,1.08-.21a5.13,5.13,0,0,0,.66-.21,6,6,0,0,0,2.64-1.47,3.56,3.56,0,0,0,.84-2.31V29a3,3,0,0,0-.9-2.34,3.55,3.55,0,0,0-2.52-.84,3.67,3.67,0,0,0-2.22.75A5.08,5.08,0,0,0,379,28.68a8,8,0,0,1-2.61,3.57,6.47,6.47,0,0,1-3.75,1,5.9,5.9,0,0,1-4.17-1.47A5,5,0,0,1,366.89,28q0-4.44,5.55-7.38a25.68,25.68,0,0,1,12.21-2.94q7.68,0,11.55,3.24t3.87,9.6v2.31q0,1.17-.06,3.27v4.56a7.75,7.75,0,0,0,.09,1.26,12.05,12.05,0,0,0,.39,1.5,1.58,1.58,0,0,0,.48.6,3.57,3.57,0,0,0,1,.54,3.44,3.44,0,0,1,1.53,1.05,2.92,2.92,0,0,1,.39,1.65,3.7,3.7,0,0,1-.6,2.1,6.21,6.21,0,0,1-2,1.74,11.37,11.37,0,0,1-3.06,1.14,16.32,16.32,0,0,1-3.72.42,14,14,0,0,1-3-.24,6,6,0,0,1-2.1-1,4.59,4.59,0,0,1-1.17-1.29,6.19,6.19,0,0,1-.75-1.71,1.77,1.77,0,0,0-.24-.57.43.43,0,0,0-.36-.15.64.64,0,0,0-.42.15A2.46,2.46,0,0,0,386,48.36Zm-4.92-7.26a3,3,0,0,0,.81,2.25,3,3,0,0,0,2.19.81,2.54,2.54,0,0,0,1.65-.51,3,3,0,0,0,.93-1.59,5.88,5.88,0,0,0,.18-1,12.23,12.23,0,0,0,.06-1.32v-.36a2.83,2.83,0,0,0-.39-1.8q-.39-.42-1.41-.06l-.36.12a1.07,1.07,0,0,1-.27.09,1.66,1.66,0,0,0-.39.15,1.16,1.16,0,0,0-.33.12.29.29,0,0,1-.15.06,4,4,0,0,0-1.92,1.14A2.81,2.81,0,0,0,381.11,41.1Z" transform="translate(-19.55 -1.62)"/><path class="cls-1" d="M415.49,52.68a37.38,37.38,0,0,1-4.56-.24,15.06,15.06,0,0,1-3.24-.72,3.05,3.05,0,0,1-1.38-1,2.68,2.68,0,0,1-.48-1.62,3,3,0,0,1,.39-1.56,4.67,4.67,0,0,1,1.29-1.32q.36-.3.63-.57a3,3,0,0,0,.45-.57A3.42,3.42,0,0,0,409,44a14.22,14.22,0,0,0,.18-1.62q.06-2.22.09-3.69t0-2.79q0-2.52,0-3.42a10.87,10.87,0,0,0-.15-1.56,5.8,5.8,0,0,0-.3-1.23,2.2,2.2,0,0,0-.48-.75,2.48,2.48,0,0,0-.57-.42,2.2,2.2,0,0,0-.75-.24,2.93,2.93,0,0,1-1.68-.87,2.54,2.54,0,0,1-.54-1.71A4.63,4.63,0,0,1,406,22.83a14.48,14.48,0,0,1,3.42-2.91A14.1,14.1,0,0,1,413,18.27a12.75,12.75,0,0,1,3.69-.57,7.76,7.76,0,0,1,2.46.36,4.36,4.36,0,0,1,1.74,1,6.15,6.15,0,0,1,1,1.35,7.41,7.41,0,0,1,.66,1.59,5.88,5.88,0,0,1,.18,1,10.33,10.33,0,0,1,.06,1.14,1,1,0,0,0,.15.57.46.46,0,0,0,.39.21.45.45,0,0,0,.27-.12,2.27,2.27,0,0,0,.39-.48,17,17,0,0,1,5.07-5.37,11.18,11.18,0,0,1,5.79-1.47q4.62,0,7.05,2.73t2.67,8.25q.12,1.92.15,3.72t0,3.42q-.06,1.8-.06,3.42t.06,3a18.23,18.23,0,0,0,.15,2.22,2.86,2.86,0,0,0,.21.66,2.48,2.48,0,0,0,.33.42q.27.3.75.78a5.94,5.94,0,0,1,1.2,1.5,3.24,3.24,0,0,1,.24,1.32,2.74,2.74,0,0,1-.51,1.62,3.49,3.49,0,0,1-1.41,1.14,11.11,11.11,0,0,1-3.15.78,41.84,41.84,0,0,1-4.95.24,45.51,45.51,0,0,1-5.22-.21,8.16,8.16,0,0,1-2.76-.81,3.31,3.31,0,0,1-1.23-1.11,2.74,2.74,0,0,1-.45-1.53,3.71,3.71,0,0,1,.27-1.47,3.13,3.13,0,0,1,.93-1.17,4.69,4.69,0,0,0,.63-.63,5.36,5.36,0,0,0,.45-.63,3.42,3.42,0,0,0,.36-1.08,14.22,14.22,0,0,0,.18-1.62q.06-.72.06-1.86v-3.9a23.32,23.32,0,0,0-.36-4.56,5.76,5.76,0,0,0-1.08-2.58A3.7,3.7,0,0,0,428,28.47a4.21,4.21,0,0,0-1.71-.33,4.32,4.32,0,0,0-1.92.36,1.83,1.83,0,0,0-1,1,5.44,5.44,0,0,0-.27,1.5q-.09,1.08-.09,6.9v3.21q0,.87.06,1.59.06,1,.15,1.56a4.23,4.23,0,0,0,.21.84,1.86,1.86,0,0,0,.39.66,6.1,6.1,0,0,0,.63.6,2.66,2.66,0,0,1,.81,1,3.33,3.33,0,0,1,.27,1.38,2.77,2.77,0,0,1-.51,1.74,3.6,3.6,0,0,1-1.65,1.08,20.06,20.06,0,0,1-3.51.81A31.58,31.58,0,0,1,415.49,52.68Z" transform="translate(-19.55 -1.62)"/><path class="cls-1" d="M471.35,46.8a11.57,11.57,0,0,1-3.75,4.53,9,9,0,0,1-5.19,1.53,10.19,10.19,0,0,1-8.91-4.44q-3.09-4.44-3.09-12.66,0-8.76,3.24-13.53a10.4,10.4,0,0,1,9.12-4.77,9.76,9.76,0,0,1,5.1,1.29,9,9,0,0,1,3.42,3.75.77.77,0,0,0,.27.33.63.63,0,0,0,.33.09.39.39,0,0,0,.36-.21,1.15,1.15,0,0,0,.12-.57v-5a9.36,9.36,0,0,0-.12-1.59,6.43,6.43,0,0,0-.36-1.29,3.16,3.16,0,0,0-.75-1A3.41,3.41,0,0,0,470,12.6a3.51,3.51,0,0,1-1.77-1.11,3.12,3.12,0,0,1-.51-1.89,3.8,3.8,0,0,1,1.41-2.76A10.61,10.61,0,0,1,473,4.68a22.93,22.93,0,0,1,3.36-.84,20.11,20.11,0,0,1,3.42-.3,7.93,7.93,0,0,1,3,.51,4.38,4.38,0,0,1,2,1.53,7.28,7.28,0,0,1,1.08,2.61,17.48,17.48,0,0,1,.36,3.81q0,1.92,0,3.9t0,5.7q-.06,3.78-.09,5.82t0,4v4.44q0,4.32.06,5.7.06.6.15,1.05a3.21,3.21,0,0,0,.27.81,2.07,2.07,0,0,0,.54.66,2.75,2.75,0,0,0,.9.48,2.58,2.58,0,0,1,1.38.93,3.11,3.11,0,0,1,.36,1.65,3.81,3.81,0,0,1-.63,2.19,6,6,0,0,1-1.95,1.71,12,12,0,0,1-3.15,1.2,16.2,16.2,0,0,1-3.75.42,14.59,14.59,0,0,1-3.15-.27,6.8,6.8,0,0,1-2.25-1,3.83,3.83,0,0,1-1.38-1.68,14,14,0,0,1-.84-3,.82.82,0,0,0-.18-.42.49.49,0,0,0-.36-.12.56.56,0,0,0-.36.15A1.11,1.11,0,0,0,471.35,46.8Zm-6.54-12.72a13.28,13.28,0,0,0,1.26,6.36,3.85,3.85,0,0,0,3.48,2.28,2.89,2.89,0,0,0,2.16-.69,3.39,3.39,0,0,0,.66-2.37V30a3,3,0,0,0-.84-2.25,3.15,3.15,0,0,0-2.28-.81A3.66,3.66,0,0,0,466,28.83,10,10,0,0,0,464.81,34.08Z" transform="translate(-19.55 -1.62)"/><path class="cls-1" d="M508.37,64.8a15.48,15.48,0,0,1-4.62,2.76,16,16,0,0,1-5.28.78A11.35,11.35,0,0,1,491,66a7.58,7.58,0,0,1-2.79-6.15,7.07,7.07,0,0,1,7.08-7,8.22,8.22,0,0,1,2.88.45,4.78,4.78,0,0,1,2,1.47,11.51,11.51,0,0,1,1.23,1.83,2.44,2.44,0,0,0,2,1.47,2.16,2.16,0,0,0,1.68-.66,2.67,2.67,0,0,0,.6-1.86,7.17,7.17,0,0,0-.45-2.07q-.45-1.35-2.73-6.63l-1.05-2.28q-.63-1.38-2.07-4.68-2.22-4.8-3.27-7.11t-1.77-4q-.06-.18-.6-1.47a5.77,5.77,0,0,0-1-1.71,4.79,4.79,0,0,0-.57-.48L491,24.36a2.94,2.94,0,0,1-1.2-1.17,3.82,3.82,0,0,1-.36-1.77,2.52,2.52,0,0,1,.75-1.8,4.43,4.43,0,0,1,2.13-1.14,37.25,37.25,0,0,1,4.41-.78,42.9,42.9,0,0,1,4.77-.24,47.41,47.41,0,0,1,5.19.24,21.93,21.93,0,0,1,3.75.72,3,3,0,0,1,1.65,1,3,3,0,0,1,.57,1.89,3.26,3.26,0,0,1-.33,1.53,4.6,4.6,0,0,1-1.23,1.35,13,13,0,0,0-1.2,1.05,2.41,2.41,0,0,0-.36.51,3.05,3.05,0,0,0-.33,1.23,3.5,3.5,0,0,0,.27,1.41,1.65,1.65,0,0,1,.09.21,3.12,3.12,0,0,0,.15.33q.06.24.09.33a1.65,1.65,0,0,0,.09.21q.72,1.86,1.62,4t1.68,3.78a1.59,1.59,0,0,0,.36.51A.64.64,0,0,0,514,38a.58.58,0,0,0,.42-.18,2.09,2.09,0,0,0,.36-.54q.9-2,1.68-4.08t1.32-3.9a10.61,10.61,0,0,0,.27-1.08,4.63,4.63,0,0,0,.09-.84,4,4,0,0,0-.12-1,2.64,2.64,0,0,0-.42-.9,3.53,3.53,0,0,0-.57-.75,5.74,5.74,0,0,0-.87-.69,3.69,3.69,0,0,1-1-1.14,3,3,0,0,1-.33-1.44,3,3,0,0,1,.66-2.07,4.8,4.8,0,0,1,2.22-1.23,14.59,14.59,0,0,1,2.43-.51,26.29,26.29,0,0,1,3.09-.15,23.46,23.46,0,0,1,3,.18,14,14,0,0,1,2.37.48,4.19,4.19,0,0,1,2,1.11,2.78,2.78,0,0,1,.6,1.89,3.57,3.57,0,0,1-.36,1.62,5.11,5.11,0,0,1-1.26,1.5,5.6,5.6,0,0,0-.69.69,7.91,7.91,0,0,0-.57.81,7.25,7.25,0,0,0-.45.78q-.21.42-.75,1.8-2.46,6.36-4.32,10.77t-3.78,8.55a120.2,120.2,0,0,1-6.12,11.88A21.85,21.85,0,0,1,508.37,64.8Z" transform="translate(-19.55 -1.62)"/><path class="cls-1" d="M556.61,52.68a39.34,39.34,0,0,1-4.71-.24,15.1,15.1,0,0,1-3.27-.72,3.05,3.05,0,0,1-1.38-1,2.68,2.68,0,0,1-.48-1.62,3,3,0,0,1,.39-1.56,4.67,4.67,0,0,1,1.29-1.32q.36-.3.63-.57a3,3,0,0,0,.45-.57,3.42,3.42,0,0,0,.36-1.08,14.22,14.22,0,0,0,.18-1.62q.06-2.22.09-3.69t0-2.79q0-1.68,0-2.85T550,30.9a3.48,3.48,0,0,0-.24-1,4.5,4.5,0,0,0-.48-.84,2.44,2.44,0,0,0-.6-.54,2,2,0,0,0-.78-.24,2.93,2.93,0,0,1-1.68-.87,2.54,2.54,0,0,1-.54-1.71A4.52,4.52,0,0,1,546.8,23a12.27,12.27,0,0,1,3-2.7,16.32,16.32,0,0,1,3.84-1.89,12.33,12.33,0,0,1,4-.69,8.48,8.48,0,0,1,2.85.42,4.16,4.16,0,0,1,1.89,1.32,5.85,5.85,0,0,1,1.32,2.61,16.38,16.38,0,0,1,.42,4q0,2.28,0,4.5T564,35.82q-.06,1.08-.06,1.47v3.3q0,.81.06,1.41.06,1.44.15,2a2,2,0,0,0,.6,1.29q.27.3.75.78a5.27,5.27,0,0,1,1.17,1.41,3.28,3.28,0,0,1,.27,1.41,2.74,2.74,0,0,1-.51,1.62A3.49,3.49,0,0,1,565,51.66a11.23,11.23,0,0,1-3.21.78A45.41,45.41,0,0,1,556.61,52.68Zm7.56-45q0,3.42-3.63,6a13.91,13.91,0,0,1-8.19,2.55,6.65,6.65,0,0,1-4.47-1.41A4.69,4.69,0,0,1,546.23,11q0-3.36,3.63-6a13.39,13.39,0,0,1,7.83-2.7,7.45,7.45,0,0,1,4.86,1.35A4.9,4.9,0,0,1,564.17,7.68Z" transform="translate(-19.55 -1.62)"/><path class="cls-1" d="M577.13,52a4.45,4.45,0,0,1-1.08.54,3.26,3.26,0,0,1-.9.12,3.63,3.63,0,0,1-1.47-.33,4.65,4.65,0,0,1-1.41-1A9.43,9.43,0,0,1,571,49.68a10.35,10.35,0,0,1-1-2.22,12,12,0,0,1-.54-2.22,17.86,17.86,0,0,1-.18-2.64,5,5,0,0,1,.84-3.06,2.63,2.63,0,0,1,2.22-1.14,3.84,3.84,0,0,1,1.62.39,11.42,11.42,0,0,1,2.22,1.53q.42.36.87.78t1.35,1.32a16.61,16.61,0,0,0,3.21,2.67,5,5,0,0,0,2.49.69,2.34,2.34,0,0,0,1.68-.57,2.09,2.09,0,0,0,.6-1.59,2,2,0,0,0-.57-1.38,6.72,6.72,0,0,0-2-1.26q-.6-.3-1.92-.81l-1.74-.69L577,38.22a12.62,12.62,0,0,1-5.52-3.84,8.94,8.94,0,0,1-1.86-5.64,10,10,0,0,1,3.66-8.16,14.57,14.57,0,0,1,9.54-3,22.76,22.76,0,0,1,2.94.18q1.38.18,3.42.66,1.26.36,1.8.45a6.22,6.22,0,0,0,1,.09,1.79,1.79,0,0,0,.57-.09,5.77,5.77,0,0,0,1.17-.81,3.22,3.22,0,0,1,1-.57,3.92,3.92,0,0,1,1.11-.15,3.47,3.47,0,0,1,2.07.72,6.94,6.94,0,0,1,1.83,2.16,10.26,10.26,0,0,1,1.2,3,14.41,14.41,0,0,1,.42,3.45,6.25,6.25,0,0,1-.18,1.62,2.38,2.38,0,0,1-.6,1.08,3.94,3.94,0,0,1-1,.75,2.65,2.65,0,0,1-1.2.27,5.65,5.65,0,0,1-1.53-.21,4.4,4.4,0,0,1-1.35-.63,12.27,12.27,0,0,1-1-.72q-.54-.42-1.56-1.32a20.52,20.52,0,0,0-3.72-2.82,4.76,4.76,0,0,0-1.92-.42,2.29,2.29,0,0,0-1.65.6,2,2,0,0,0-.63,1.5,1.59,1.59,0,0,0,.6,1.2,6.7,6.7,0,0,0,2,1.08q.66.3,1.92.72t1.56.54l2.34.84q4.68,1.68,6.69,4.2a10,10,0,0,1,2,6.42,10.32,10.32,0,0,1-3.93,8.34A15.46,15.46,0,0,1,588,52.92q-1,0-2-.09t-2-.21q-1-.18-2.34-.48L580,51.78a4.09,4.09,0,0,0-.78-.15q-.36,0-.72,0a2.29,2.29,0,0,0-.66.09A3.6,3.6,0,0,0,577.13,52Z" transform="translate(-19.55 -1.62)"/><path class="cls-1" d="M637.25,48.36a9.63,9.63,0,0,1-3.84,3.33,11.64,11.64,0,0,1-5.28,1.23,10.42,10.42,0,0,1-7.2-2.31,8.29,8.29,0,0,1-2.58-6.51,8.91,8.91,0,0,1,1.17-4.62,9.2,9.2,0,0,1,3.51-3.3,17.79,17.79,0,0,1,3.21-1.38,58.46,58.46,0,0,1,6-1.44q.72-.12,1.08-.21a5.13,5.13,0,0,0,.66-.21,6,6,0,0,0,2.64-1.47,3.56,3.56,0,0,0,.84-2.31V29a3,3,0,0,0-.9-2.34,3.55,3.55,0,0,0-2.52-.84,3.67,3.67,0,0,0-2.22.75,5.08,5.08,0,0,0-1.62,2.13,8,8,0,0,1-2.61,3.57,6.47,6.47,0,0,1-3.75,1,5.9,5.9,0,0,1-4.17-1.47A5,5,0,0,1,618.11,28q0-4.44,5.55-7.38a25.68,25.68,0,0,1,12.21-2.94q7.68,0,11.55,3.24t3.87,9.6v2.31q0,1.17-.06,3.27v4.56a7.75,7.75,0,0,0,.09,1.26,12.05,12.05,0,0,0,.39,1.5,1.58,1.58,0,0,0,.48.6,3.57,3.57,0,0,0,1,.54,3.44,3.44,0,0,1,1.53,1.05,2.92,2.92,0,0,1,.39,1.65,3.7,3.7,0,0,1-.6,2.1,6.21,6.21,0,0,1-2,1.74,11.37,11.37,0,0,1-3.06,1.14,16.32,16.32,0,0,1-3.72.42,14,14,0,0,1-3-.24,6,6,0,0,1-2.1-1,4.59,4.59,0,0,1-1.17-1.29,6.19,6.19,0,0,1-.75-1.71,1.77,1.77,0,0,0-.24-.57.43.43,0,0,0-.36-.15.64.64,0,0,0-.42.15A2.46,2.46,0,0,0,637.25,48.36Zm-4.92-7.26a3,3,0,0,0,.81,2.25,3,3,0,0,0,2.19.81,2.54,2.54,0,0,0,1.65-.51,3,3,0,0,0,.93-1.59,5.88,5.88,0,0,0,.18-1,12.23,12.23,0,0,0,.06-1.32v-.36a2.83,2.83,0,0,0-.39-1.8q-.39-.42-1.41-.06l-.36.12a1.07,1.07,0,0,1-.27.09,1.66,1.66,0,0,0-.39.15A1.16,1.16,0,0,0,635,38a.29.29,0,0,1-.15.06,4,4,0,0,0-1.92,1.14A2.81,2.81,0,0,0,632.33,41.1Z" transform="translate(-19.55 -1.62)"/><path class="cls-1" d="M677.39,52a4.45,4.45,0,0,1-1.08.54,3.26,3.26,0,0,1-.9.12,3.63,3.63,0,0,1-1.47-.33,4.65,4.65,0,0,1-1.41-1,9.43,9.43,0,0,1-1.32-1.68,10.35,10.35,0,0,1-1-2.22,12,12,0,0,1-.54-2.22,17.86,17.86,0,0,1-.18-2.64,5,5,0,0,1,.84-3.06,2.63,2.63,0,0,1,2.22-1.14,3.84,3.84,0,0,1,1.62.39,11.42,11.42,0,0,1,2.22,1.53q.42.36.87.78t1.35,1.32a16.61,16.61,0,0,0,3.21,2.67,5,5,0,0,0,2.49.69,2.34,2.34,0,0,0,1.68-.57,2.09,2.09,0,0,0,.6-1.59,2,2,0,0,0-.57-1.38A6.72,6.72,0,0,0,684,41q-.6-.3-1.92-.81l-1.74-.69-3.12-1.26a12.62,12.62,0,0,1-5.52-3.84,8.94,8.94,0,0,1-1.86-5.64,10,10,0,0,1,3.66-8.16,14.57,14.57,0,0,1,9.54-3,22.76,22.76,0,0,1,2.94.18q1.38.18,3.42.66,1.26.36,1.8.45a6.22,6.22,0,0,0,1,.09,1.79,1.79,0,0,0,.57-.09,5.77,5.77,0,0,0,1.17-.81,3.22,3.22,0,0,1,1-.57,3.92,3.92,0,0,1,1.11-.15,3.47,3.47,0,0,1,2.07.72A6.94,6.94,0,0,1,700,20.22a10.26,10.26,0,0,1,1.2,3,14.41,14.41,0,0,1,.42,3.45,6.25,6.25,0,0,1-.18,1.62,2.38,2.38,0,0,1-.6,1.08,3.94,3.94,0,0,1-1,.75,2.65,2.65,0,0,1-1.2.27,5.65,5.65,0,0,1-1.53-.21,4.4,4.4,0,0,1-1.35-.63,12.27,12.27,0,0,1-1-.72q-.54-.42-1.56-1.32a20.52,20.52,0,0,0-3.72-2.82,4.76,4.76,0,0,0-1.92-.42,2.29,2.29,0,0,0-1.65.6,2,2,0,0,0-.63,1.5,1.59,1.59,0,0,0,.6,1.2,6.7,6.7,0,0,0,2,1.08q.66.3,1.92.72t1.56.54l2.34.84q4.68,1.68,6.69,4.2a10,10,0,0,1,2,6.42,10.32,10.32,0,0,1-3.93,8.34,15.46,15.46,0,0,1-10.17,3.24q-1,0-2-.09t-2-.21q-1-.18-2.34-.48l-1.62-.36a4.09,4.09,0,0,0-.78-.15q-.36,0-.72,0a2.29,2.29,0,0,0-.66.09A3.6,3.6,0,0,0,677.39,52Z" transform="translate(-19.55 -1.62)"/><path class="cls-1" d="M726.17,52.44a5.49,5.49,0,0,1-1.5.42,15.81,15.81,0,0,1-2.16.12,12.06,12.06,0,0,1-2.58-.21,4.27,4.27,0,0,1-1.56-.69,6.38,6.38,0,0,1-1.23-1.41,35.49,35.49,0,0,1-2-3.81q-1.44-2.94-3.75-8.73t-3.69-9.93a6.52,6.52,0,0,0-.57-1.35,6.81,6.81,0,0,0-.81-1.11,5.14,5.14,0,0,0-.66-.66q-.36-.3-1-.72a3.09,3.09,0,0,1-1.17-1.23,4,4,0,0,1-.33-1.71,2.57,2.57,0,0,1,.72-1.8,4.21,4.21,0,0,1,2-1.14,27.44,27.44,0,0,1,4-.78,41.09,41.09,0,0,1,4.74-.24,38.57,38.57,0,0,1,4.68.24,17.59,17.59,0,0,1,3.36.72,3.88,3.88,0,0,1,1.86,1.17,2.93,2.93,0,0,1,.6,1.89,3.83,3.83,0,0,1-.27,1.56,3.5,3.5,0,0,1-1,1.2,12.41,12.41,0,0,0-1.05.87,4.84,4.84,0,0,0-.45.51,2.22,2.22,0,0,0-.36.63,2,2,0,0,0-.12.69,3,3,0,0,0,.09.51q.09.39.27,1,.48,1.44,1.38,3.63t2.4,5.37a1.49,1.49,0,0,0,.33.48.52.52,0,0,0,.33.12.64.64,0,0,0,.42-.15,1.57,1.57,0,0,0,.36-.63q.9-2.1,1.65-4.17t1.23-3.87a3.06,3.06,0,0,0,.15-.69q0-.33,0-.87a3.4,3.4,0,0,0-.15-1,2.37,2.37,0,0,0-.39-.78,10.36,10.36,0,0,0-.78-.81l-.72-.63a3.13,3.13,0,0,1-.93-1.17,4.06,4.06,0,0,1-.27-1.59,3.06,3.06,0,0,1,.6-1.92,4.13,4.13,0,0,1,1.86-1.26A13.69,13.69,0,0,1,733,17.7a34.73,34.73,0,0,1,4.56-.24,35.31,35.31,0,0,1,4.44.24,13.85,13.85,0,0,1,3.12.72,2.82,2.82,0,0,1,1.44,1.11,3.44,3.44,0,0,1,.48,1.89,4.29,4.29,0,0,1-.27,1.62,2.9,2.9,0,0,1-1,1.2,6.17,6.17,0,0,0-.9.84,4.41,4.41,0,0,0-.6.9,1.94,1.94,0,0,0-.24.57,3.27,3.27,0,0,0-.06.69,2.62,2.62,0,0,0,.06.57,6.48,6.48,0,0,0,.18.63q.48,1.38,1.29,3.39t2.25,5.37a2,2,0,0,0,.33.51.46.46,0,0,0,.33.15.64.64,0,0,0,.42-.15,1.57,1.57,0,0,0,.36-.63,39.08,39.08,0,0,0,1.59-3.84q.75-2.1,1.35-4.2a8.94,8.94,0,0,0,.18-.9,5.93,5.93,0,0,0,.06-.84,3,3,0,0,0-.12-.84,3,3,0,0,0-.3-.72,4.32,4.32,0,0,0-.54-.66q-.3-.3-1.08-1a3.21,3.21,0,0,1-.93-1.14,3.83,3.83,0,0,1-.27-1.56,2.88,2.88,0,0,1,.69-2A4.86,4.86,0,0,1,752,18.18a13.05,13.05,0,0,1,2.46-.51,32.19,32.19,0,0,1,6.21,0,11.23,11.23,0,0,1,2.31.45,4.31,4.31,0,0,1,1.92,1.17,2.67,2.67,0,0,1,.66,1.83,3.26,3.26,0,0,1-.33,1.53,4.24,4.24,0,0,1-1.17,1.29,4.92,4.92,0,0,0-.81.75,5.41,5.41,0,0,0-.57.81q-.24.48-.57,1.2t-.69,1.68q-4,10.44-5.1,13t-2,4.59a32.75,32.75,0,0,1-2.19,4,7,7,0,0,1-1.77,1.83,5.63,5.63,0,0,1-1.89.87,9,9,0,0,1-2.25.27,11.43,11.43,0,0,1-2.76-.3,5.36,5.36,0,0,1-2-1,6.23,6.23,0,0,1-1.32-1.38,23.1,23.1,0,0,1-1.68-3.12q-1.14-2.28-1.92-4t-1.26-3a1.93,1.93,0,0,0-.33-.57.61.61,0,0,0-.45-.15.73.73,0,0,0-.48.15,2.18,2.18,0,0,0-.42.57q-.12.3-.3.66t-.54,1.2l-.9,2q-.36.81-.78,1.71a28.18,28.18,0,0,1-2.55,4.65A6.33,6.33,0,0,1,726.17,52.44Z" transform="translate(-19.55 -1.62)"/><path class="cls-1" d="M799.31,44.1a15.24,15.24,0,0,1-6.15,6.66,19.27,19.27,0,0,1-9.51,2.16q-8.7,0-13.65-4.59t-5-12.57a16.93,16.93,0,0,1,5.67-13.2q5.67-5.1,14.49-5.1,6.84,0,11.1,3.81a12.76,12.76,0,0,1,4.26,10,5.08,5.08,0,0,1-1.77,4.23,8.53,8.53,0,0,1-5.37,1.41H781.67a1.93,1.93,0,0,0-1.17.33,1,1,0,0,0-.45.87q0,2,2.31,3.24a12.5,12.5,0,0,0,9.39.63,9.93,9.93,0,0,0,3.3-1.95,7.27,7.27,0,0,1,1.38-1,2.46,2.46,0,0,1,1.08-.3,2.65,2.65,0,0,1,1.86.72,2.28,2.28,0,0,1,.78,1.74,4.33,4.33,0,0,1-.21,1.32A13.4,13.4,0,0,1,799.31,44.1ZM778.55,30.18a2.25,2.25,0,0,0,.36,1.41,1.45,1.45,0,0,0,1.2.45h4.2a3.65,3.65,0,0,0,2.07-.45,1.61,1.61,0,0,0,.63-1.41,3.28,3.28,0,0,0-1.17-2.58,4.53,4.53,0,0,0-3.09-1,4.44,4.44,0,0,0-3,1A3.28,3.28,0,0,0,778.55,30.18Z" transform="translate(-19.55 -1.62)"/><path class="cls-1" d="M838.13,44.1A15.24,15.24,0,0,1,832,50.76a19.27,19.27,0,0,1-9.51,2.16q-8.7,0-13.65-4.59t-5-12.57a16.93,16.93,0,0,1,5.67-13.2q5.67-5.1,14.49-5.1,6.84,0,11.1,3.81a12.76,12.76,0,0,1,4.26,10,5.08,5.08,0,0,1-1.77,4.23,8.53,8.53,0,0,1-5.37,1.41H820.49a1.93,1.93,0,0,0-1.17.33,1,1,0,0,0-.45.87q0,2,2.31,3.24a12.5,12.5,0,0,0,9.39.63,9.93,9.93,0,0,0,3.3-1.95,7.27,7.27,0,0,1,1.38-1,2.46,2.46,0,0,1,1.08-.3,2.65,2.65,0,0,1,1.86.72,2.28,2.28,0,0,1,.78,1.74,4.33,4.33,0,0,1-.21,1.32A13.4,13.4,0,0,1,838.13,44.1ZM817.37,30.18a2.25,2.25,0,0,0,.36,1.41,1.45,1.45,0,0,0,1.2.45h4.2a3.65,3.65,0,0,0,2.07-.45,1.61,1.61,0,0,0,.63-1.41,3.28,3.28,0,0,0-1.17-2.58,4.53,4.53,0,0,0-3.09-1,4.44,4.44,0,0,0-3,1A3.28,3.28,0,0,0,817.37,30.18Z" transform="translate(-19.55 -1.62)"/><path class="cls-1" d="M868.61,47a15.66,15.66,0,0,1-5.31,4.2,15.11,15.11,0,0,1-6.69,1.5q-5.22,0-7.68-3t-2.46-9.45q0-1.32,0-2.67t.09-3.69q.06-1.62.06-2.34V30.18a1.31,1.31,0,0,0-.27-.9,1.38,1.38,0,0,0-.93-.36l-.66-.06a6.59,6.59,0,0,1-.78-.12,3.09,3.09,0,0,1-2-1.35,6,6,0,0,1-.51-2.79,11.11,11.11,0,0,1,.33-3,4.24,4.24,0,0,1,1-1.86,2.9,2.9,0,0,1,1-.69,4.11,4.11,0,0,1,1.41-.21h.72a1.2,1.2,0,0,0,.93-.36,1.37,1.37,0,0,0,.33-1v-2a5.16,5.16,0,0,1,.33-1.95,4.32,4.32,0,0,1,1.11-1.53A10.54,10.54,0,0,1,850.22,11q.93-.57,3-1.59,1.32-.66,2-1T856.43,8l.84-.21a3.52,3.52,0,0,1,.72-.09,2.06,2.06,0,0,1,1.41.45,1.63,1.63,0,0,1,.51,1.29V17.1a1.53,1.53,0,0,0,.33,1.11,1.34,1.34,0,0,0,1,.33H867a2.12,2.12,0,0,1,2.1,1.38,6.84,6.84,0,0,1,.12,3.9,9.61,9.61,0,0,1-1.41,3.75,2.67,2.67,0,0,1-2.19,1.29h-3.84a2,2,0,0,0-1.41.42,1.91,1.91,0,0,0-.45,1.44v2.64q0,1.62.09,3.06t.21,2.64a8.16,8.16,0,0,0,.87,3.15,1.91,1.91,0,0,0,1.71.87A3.71,3.71,0,0,0,864,42.9a4.72,4.72,0,0,0,1.11-.6,6.86,6.86,0,0,1,1.29-.81,2.09,2.09,0,0,1,.75-.15,2.65,2.65,0,0,1,1.86.72,2.28,2.28,0,0,1,.78,1.74,4.81,4.81,0,0,1-.3,1.62A5.11,5.11,0,0,1,868.61,47Z" transform="translate(-19.55 -1.62)"/><path class="cls-1" d="M41.63,120.36a9.63,9.63,0,0,1-3.84,3.33,11.64,11.64,0,0,1-5.28,1.23,10.42,10.42,0,0,1-7.2-2.31,8.29,8.29,0,0,1-2.58-6.51,8.82,8.82,0,0,1,1.18-4.62,9.05,9.05,0,0,1,3.51-3.3,17.38,17.38,0,0,1,3.2-1.38,58.14,58.14,0,0,1,6-1.44c.47-.08.84-.15,1.07-.21a5.13,5.13,0,0,0,.66-.21A6.09,6.09,0,0,0,41,103.47a3.68,3.68,0,0,0,.84-2.31V101A3,3,0,0,0,41,98.64a3.51,3.51,0,0,0-2.51-.84,3.68,3.68,0,0,0-2.23.75,5,5,0,0,0-1.61,2.13A8.1,8.1,0,0,1,32,104.25a6.47,6.47,0,0,1-3.75,1,5.9,5.9,0,0,1-4.17-1.47A4.94,4.94,0,0,1,22.5,100q0-4.44,5.54-7.38A25.68,25.68,0,0,1,40.25,89.7q7.68,0,11.55,3.24t3.87,9.6v2.31c0,.78,0,1.87-.05,3.27v4.56a6.77,6.77,0,0,0,.09,1.26,10.2,10.2,0,0,0,.38,1.5,1.53,1.53,0,0,0,.49.6,3.28,3.28,0,0,0,1,.54,3.46,3.46,0,0,1,1.52,1,2.91,2.91,0,0,1,.4,1.65,3.7,3.7,0,0,1-.61,2.1,6.27,6.27,0,0,1-2,1.74,11.44,11.44,0,0,1-3.07,1.14,16.25,16.25,0,0,1-3.72.42,14,14,0,0,1-3-.24,5.85,5.85,0,0,1-2.09-1,4.31,4.31,0,0,1-1.17-1.29,5.65,5.65,0,0,1-.75-1.71,2,2,0,0,0-.25-.57.43.43,0,0,0-.36-.15.64.64,0,0,0-.42.15A2.46,2.46,0,0,0,41.63,120.36Zm-4.92-7.26a3,3,0,0,0,.81,2.25,3,3,0,0,0,2.19.81,2.59,2.59,0,0,0,1.66-.51,3,3,0,0,0,.92-1.59,5.88,5.88,0,0,0,.18-1,11.94,11.94,0,0,0,.07-1.32v-.36a2.81,2.81,0,0,0-.4-1.8q-.39-.42-1.41-.06l-.35.12a1.31,1.31,0,0,1-.28.09,1.66,1.66,0,0,0-.39.15,1.16,1.16,0,0,0-.33.12.26.26,0,0,1-.15.06,4,4,0,0,0-1.92,1.14A2.81,2.81,0,0,0,36.71,113.1Z" transform="translate(-19.55 -1.62)"/><path class="cls-1" d="M71.09,124.68a37.38,37.38,0,0,1-4.56-.24,15.06,15.06,0,0,1-3.24-.72,3.05,3.05,0,0,1-1.38-1,2.68,2.68,0,0,1-.48-1.62,3,3,0,0,1,.39-1.56,4.67,4.67,0,0,1,1.29-1.32q.36-.3.63-.57a3,3,0,0,0,.45-.57,3.42,3.42,0,0,0,.36-1.08,14.22,14.22,0,0,0,.18-1.62q.06-2.22.09-3.69t0-2.79q0-2.52,0-3.42a10.87,10.87,0,0,0-.15-1.56,5.8,5.8,0,0,0-.3-1.23,2.2,2.2,0,0,0-.48-.75,2.48,2.48,0,0,0-.57-.42,2.2,2.2,0,0,0-.75-.24,2.93,2.93,0,0,1-1.68-.87,2.54,2.54,0,0,1-.54-1.71,4.63,4.63,0,0,1,1.26-2.85A14.48,14.48,0,0,1,65,91.92a14.1,14.1,0,0,1,3.57-1.65,12.75,12.75,0,0,1,3.69-.57,7.76,7.76,0,0,1,2.46.36,4.36,4.36,0,0,1,1.74,1,6.15,6.15,0,0,1,1,1.35A7.41,7.41,0,0,1,78.17,94a5.88,5.88,0,0,1,.18,1,10.33,10.33,0,0,1,.06,1.14,1,1,0,0,0,.15.57.46.46,0,0,0,.39.21.45.45,0,0,0,.27-.12,2.27,2.27,0,0,0,.39-.48,17,17,0,0,1,5.07-5.37,11.18,11.18,0,0,1,5.79-1.47q4.62,0,7,2.73t2.67,8.25q.12,1.92.15,3.72t0,3.42q-.06,1.8-.06,3.42t.06,3a18.23,18.23,0,0,0,.15,2.22,2.86,2.86,0,0,0,.21.66,2.48,2.48,0,0,0,.33.42q.27.3.75.78a5.94,5.94,0,0,1,1.2,1.5,3.24,3.24,0,0,1,.24,1.32,2.74,2.74,0,0,1-.51,1.62,3.49,3.49,0,0,1-1.41,1.14,11.11,11.11,0,0,1-3.15.78,41.84,41.84,0,0,1-5,.24,45.51,45.51,0,0,1-5.22-.21,8.16,8.16,0,0,1-2.76-.81A3.31,3.31,0,0,1,84,122.55a2.74,2.74,0,0,1-.45-1.53,3.71,3.71,0,0,1,.27-1.47,3.13,3.13,0,0,1,.93-1.17,4.69,4.69,0,0,0,.63-.63,5.36,5.36,0,0,0,.45-.63,3.42,3.42,0,0,0,.36-1.08,14.22,14.22,0,0,0,.18-1.62q.06-.72.06-1.86v-3.9A23.32,23.32,0,0,0,86,104.1,5.76,5.76,0,0,0,85,101.52a3.7,3.7,0,0,0-1.35-1,4.21,4.21,0,0,0-1.71-.33,4.32,4.32,0,0,0-1.92.36,1.83,1.83,0,0,0-1,1,5.44,5.44,0,0,0-.27,1.5q-.09,1.08-.09,6.9v3.21q0,.87.06,1.59.06,1,.15,1.56a4.23,4.23,0,0,0,.21.84,1.86,1.86,0,0,0,.39.66,6.1,6.1,0,0,0,.63.6,2.66,2.66,0,0,1,.81,1,3.33,3.33,0,0,1,.27,1.38,2.77,2.77,0,0,1-.51,1.74A3.6,3.6,0,0,1,79,123.6a20.06,20.06,0,0,1-3.51.81A31.58,31.58,0,0,1,71.09,124.68Z" transform="translate(-19.55 -1.62)"/><path class="cls-1" d="M127,118.8a11.57,11.57,0,0,1-3.75,4.53,9,9,0,0,1-5.19,1.53,10.19,10.19,0,0,1-8.91-4.44Q106,116,106,107.76q0-8.76,3.24-13.53a10.4,10.4,0,0,1,9.12-4.77,9.76,9.76,0,0,1,5.1,1.29,9,9,0,0,1,3.42,3.75.77.77,0,0,0,.27.33.63.63,0,0,0,.33.09.39.39,0,0,0,.36-.21,1.15,1.15,0,0,0,.12-.57v-5a9.36,9.36,0,0,0-.12-1.59,6.43,6.43,0,0,0-.36-1.29,3.16,3.16,0,0,0-.75-1,3.41,3.41,0,0,0-1.17-.63,3.51,3.51,0,0,1-1.77-1.11,3.12,3.12,0,0,1-.51-1.89,3.8,3.8,0,0,1,1.41-2.76,10.61,10.61,0,0,1,3.87-2.16,22.93,22.93,0,0,1,3.36-.84,20.11,20.11,0,0,1,3.42-.3,7.93,7.93,0,0,1,3,.51,4.38,4.38,0,0,1,2,1.53,7.28,7.28,0,0,1,1.08,2.61,17.48,17.48,0,0,1,.36,3.81q0,1.92,0,3.9t0,5.7q-.06,3.78-.09,5.82t0,4v4.44q0,4.32.06,5.7.06.6.15,1a3.21,3.21,0,0,0,.27.81,2.07,2.07,0,0,0,.54.66,2.75,2.75,0,0,0,.9.48,2.58,2.58,0,0,1,1.38.93,3.11,3.11,0,0,1,.36,1.65,3.81,3.81,0,0,1-.63,2.19,6,6,0,0,1-2,1.71,12,12,0,0,1-3.15,1.2,16.2,16.2,0,0,1-3.75.42,14.59,14.59,0,0,1-3.15-.27,6.8,6.8,0,0,1-2.25-1,3.83,3.83,0,0,1-1.38-1.68,14,14,0,0,1-.84-3,.82.82,0,0,0-.18-.42.49.49,0,0,0-.36-.12.56.56,0,0,0-.36.15A1.11,1.11,0,0,0,127,118.8Zm-6.54-12.72a13.28,13.28,0,0,0,1.26,6.36,3.85,3.85,0,0,0,3.48,2.28,2.89,2.89,0,0,0,2.16-.69,3.39,3.39,0,0,0,.66-2.37V102a3,3,0,0,0-.84-2.25,3.15,3.15,0,0,0-2.28-.81,3.66,3.66,0,0,0-3.27,1.89A10,10,0,0,0,120.41,106.08Z" transform="translate(-19.55 -1.62)"/><path class="cls-1" d="M187.25,119a15.66,15.66,0,0,1-5.31,4.2,15.11,15.11,0,0,1-6.69,1.5q-5.22,0-7.68-3t-2.46-9.45q0-1.32,0-2.67t.09-3.69q.06-1.62.06-2.34v-1.32a1.31,1.31,0,0,0-.27-.9,1.38,1.38,0,0,0-.93-.36l-.66-.06a6.59,6.59,0,0,1-.78-.12,3.09,3.09,0,0,1-2-1.35,6,6,0,0,1-.51-2.79,11.11,11.11,0,0,1,.33-3,4.24,4.24,0,0,1,1-1.86,2.9,2.9,0,0,1,1.05-.69,4.11,4.11,0,0,1,1.41-.21h.72a1.2,1.2,0,0,0,.93-.36,1.37,1.37,0,0,0,.33-1v-2a5.16,5.16,0,0,1,.33-2,4.32,4.32,0,0,1,1.11-1.53,10.54,10.54,0,0,1,1.47-1q.93-.57,3-1.59,1.32-.66,2-1t1.23-.48q.42-.12.84-.21a3.52,3.52,0,0,1,.72-.09,2.06,2.06,0,0,1,1.41.45,1.63,1.63,0,0,1,.51,1.29V89.1a1.53,1.53,0,0,0,.33,1.11,1.34,1.34,0,0,0,1,.33h5.76a2.12,2.12,0,0,1,2.1,1.38,6.84,6.84,0,0,1,.12,3.9,9.61,9.61,0,0,1-1.41,3.75,2.67,2.67,0,0,1-2.19,1.29h-3.84a2,2,0,0,0-1.41.42,1.91,1.91,0,0,0-.45,1.44v2.64q0,1.62.09,3.06t.21,2.64a8.16,8.16,0,0,0,.87,3.15,1.91,1.91,0,0,0,1.71.87,3.71,3.71,0,0,0,1.23-.18,4.72,4.72,0,0,0,1.11-.6,6.86,6.86,0,0,1,1.29-.81,2.09,2.09,0,0,1,.75-.15,2.65,2.65,0,0,1,1.86.72,2.28,2.28,0,0,1,.78,1.74,4.81,4.81,0,0,1-.3,1.62A5.11,5.11,0,0,1,187.25,119Z" transform="translate(-19.55 -1.62)"/><path class="cls-1" d="M210.05,120.36a9.63,9.63,0,0,1-3.84,3.33,11.64,11.64,0,0,1-5.28,1.23,10.42,10.42,0,0,1-7.2-2.31,8.29,8.29,0,0,1-2.58-6.51,8.91,8.91,0,0,1,1.17-4.62,9.2,9.2,0,0,1,3.51-3.3A17.79,17.79,0,0,1,199,106.8a58.46,58.46,0,0,1,6-1.44q.72-.12,1.08-.21a5.13,5.13,0,0,0,.66-.21,6,6,0,0,0,2.64-1.47,3.56,3.56,0,0,0,.84-2.31V101a3,3,0,0,0-.9-2.34,3.55,3.55,0,0,0-2.52-.84,3.67,3.67,0,0,0-2.22.75,5.08,5.08,0,0,0-1.62,2.13,8,8,0,0,1-2.61,3.57,6.47,6.47,0,0,1-3.75,1,5.9,5.9,0,0,1-4.17-1.47,5,5,0,0,1-1.59-3.81q0-4.44,5.55-7.38a25.68,25.68,0,0,1,12.21-2.94q7.68,0,11.55,3.24t3.87,9.6v2.31q0,1.17-.06,3.27v4.56a7.75,7.75,0,0,0,.09,1.26,12.05,12.05,0,0,0,.39,1.5,1.58,1.58,0,0,0,.48.6,3.57,3.57,0,0,0,1,.54,3.44,3.44,0,0,1,1.53,1,2.92,2.92,0,0,1,.39,1.65,3.7,3.7,0,0,1-.6,2.1,6.21,6.21,0,0,1-2,1.74,11.37,11.37,0,0,1-3.06,1.14,16.32,16.32,0,0,1-3.72.42,14,14,0,0,1-3-.24,6,6,0,0,1-2.1-1,4.59,4.59,0,0,1-1.17-1.29,6.19,6.19,0,0,1-.75-1.71,1.77,1.77,0,0,0-.24-.57.43.43,0,0,0-.36-.15.64.64,0,0,0-.42.15A2.46,2.46,0,0,0,210.05,120.36Zm-4.92-7.26a3,3,0,0,0,.81,2.25,3,3,0,0,0,2.19.81,2.54,2.54,0,0,0,1.65-.51,3,3,0,0,0,.93-1.59,5.88,5.88,0,0,0,.18-1,12.23,12.23,0,0,0,.06-1.32v-.36a2.83,2.83,0,0,0-.39-1.8q-.39-.42-1.41-.06l-.36.12a1.07,1.07,0,0,1-.27.09,1.66,1.66,0,0,0-.39.15,1.16,1.16,0,0,0-.33.12.29.29,0,0,1-.15.06,4,4,0,0,0-1.92,1.14A2.81,2.81,0,0,0,205.13,113.1Z" transform="translate(-19.55 -1.62)"/><path class="cls-1" d="M239.51,124.68a37.38,37.38,0,0,1-4.56-.24,15.06,15.06,0,0,1-3.24-.72,3.05,3.05,0,0,1-1.38-1,2.68,2.68,0,0,1-.48-1.62,3,3,0,0,1,.39-1.56,4.67,4.67,0,0,1,1.29-1.32q.36-.3.63-.57a3,3,0,0,0,.45-.57A3.42,3.42,0,0,0,233,116a14.22,14.22,0,0,0,.18-1.62q.06-2.22.09-3.69t0-2.79q0-2.52,0-3.42a10.87,10.87,0,0,0-.15-1.56,5.8,5.8,0,0,0-.3-1.23,2.2,2.2,0,0,0-.48-.75,2.48,2.48,0,0,0-.57-.42,2.2,2.2,0,0,0-.75-.24,2.93,2.93,0,0,1-1.68-.87,2.54,2.54,0,0,1-.54-1.71A4.63,4.63,0,0,1,230,94.83a14.48,14.48,0,0,1,3.42-2.91A14.1,14.1,0,0,1,237,90.27a12.75,12.75,0,0,1,3.69-.57,7.76,7.76,0,0,1,2.46.36,4.36,4.36,0,0,1,1.74,1,6.15,6.15,0,0,1,1,1.35,7.41,7.41,0,0,1,.66,1.59,5.88,5.88,0,0,1,.18,1,10.33,10.33,0,0,1,.06,1.14,1,1,0,0,0,.15.57.46.46,0,0,0,.39.21.45.45,0,0,0,.27-.12,2.27,2.27,0,0,0,.39-.48,17,17,0,0,1,5.07-5.37,11.18,11.18,0,0,1,5.79-1.47q4.62,0,7.05,2.73t2.67,8.25q.12,1.92.15,3.72t0,3.42q-.06,1.8-.06,3.42t.06,3a18.23,18.23,0,0,0,.15,2.22,2.86,2.86,0,0,0,.21.66,2.48,2.48,0,0,0,.33.42q.27.3.75.78a5.94,5.94,0,0,1,1.2,1.5,3.24,3.24,0,0,1,.24,1.32,2.74,2.74,0,0,1-.51,1.62,3.49,3.49,0,0,1-1.41,1.14,11.11,11.11,0,0,1-3.15.78,41.84,41.84,0,0,1-5,.24,45.51,45.51,0,0,1-5.22-.21,8.16,8.16,0,0,1-2.76-.81,3.31,3.31,0,0,1-1.23-1.11,2.74,2.74,0,0,1-.45-1.53,3.71,3.71,0,0,1,.27-1.47,3.13,3.13,0,0,1,.93-1.17,4.69,4.69,0,0,0,.63-.63,5.36,5.36,0,0,0,.45-.63,3.42,3.42,0,0,0,.36-1.08,14.22,14.22,0,0,0,.18-1.62q.06-.72.06-1.86v-3.9a23.32,23.32,0,0,0-.36-4.56,5.76,5.76,0,0,0-1.08-2.58,3.7,3.7,0,0,0-1.35-1,4.21,4.21,0,0,0-1.71-.33,4.32,4.32,0,0,0-1.92.36,1.83,1.83,0,0,0-1,1,5.44,5.44,0,0,0-.27,1.5q-.09,1.08-.09,6.9v3.21q0,.87.06,1.59.06,1,.15,1.56a4.23,4.23,0,0,0,.21.84,1.86,1.86,0,0,0,.39.66,6.1,6.1,0,0,0,.63.6,2.66,2.66,0,0,1,.81,1,3.33,3.33,0,0,1,.27,1.38,2.77,2.77,0,0,1-.51,1.74,3.6,3.6,0,0,1-1.65,1.08,20.06,20.06,0,0,1-3.51.81A31.58,31.58,0,0,1,239.51,124.68Z" transform="translate(-19.55 -1.62)"/><path class="cls-1" d="M310.91,125.58q0,6.42-6.45,10.14t-18.15,3.72q-7.38,0-10.71-1.38t-3.33-4.44a4.67,4.67,0,0,1,1.38-3.39,18.22,18.22,0,0,1,5.28-3.15.93.93,0,0,0,.39-.24.6.6,0,0,0,.09-.36.32.32,0,0,0-.12-.27,1.05,1.05,0,0,0-.3-.15,8.62,8.62,0,0,1-3.6-1.71,3.47,3.47,0,0,1-1.14-2.67,4.62,4.62,0,0,1,1.5-3.51,20.09,20.09,0,0,1,5.94-3.15,1.11,1.11,0,0,0,.51-.3.73.73,0,0,0,.15-.48.64.64,0,0,0-.15-.42,1.77,1.77,0,0,0-.45-.36,14.38,14.38,0,0,1-5.85-4.56,10.91,10.91,0,0,1-1.89-6.42A11.36,11.36,0,0,1,278.6,93q4.59-3.54,12.09-3.54.66,0,1.29,0t1.53.15a7.88,7.88,0,0,1,.84,0,3.87,3.87,0,0,0,.48,0,1.16,1.16,0,0,0,1.11-.48,4.69,4.69,0,0,0,.27-2,4.18,4.18,0,0,1,1.59-3.36,6.22,6.22,0,0,1,4.11-1.32,9.54,9.54,0,0,1,5.76,1.62,5,5,0,0,1,2.22,4.2,3.23,3.23,0,0,1-1,2.46,3.62,3.62,0,0,1-2.58,1h-1.8a1.31,1.31,0,0,0-.81.21.75.75,0,0,0-.27.63,1.38,1.38,0,0,0,.33.75,20.74,20.74,0,0,0,1.65,1.77,10.21,10.21,0,0,1,2.19,3.3,11.56,11.56,0,0,1-4,13.2Q299,115,290.45,115a5.84,5.84,0,0,0-2.22.3,1,1,0,0,0-.66,1,1,1,0,0,0,.69,1,8.6,8.6,0,0,0,2.67.27h7.68q6,0,9.15,2.1A6.79,6.79,0,0,1,310.91,125.58Zm-24.3,3.3q0,1,1.44,1.41a16.37,16.37,0,0,0,4.5.45,15.53,15.53,0,0,0,4.5-.54q1.74-.54,1.74-1.32a1.17,1.17,0,0,0-.93-1.11,10.2,10.2,0,0,0-3.09-.33h-5.64a3.68,3.68,0,0,0-1.86.39A1.18,1.18,0,0,0,286.61,128.88Zm.6-28.5a7.36,7.36,0,0,0,1.56,4.53,4.35,4.35,0,0,0,3.42,2.07,3.36,3.36,0,0,0,2.31-.72,2.59,2.59,0,0,0,.81-2,7.48,7.48,0,0,0-1.59-4.62,4.54,4.54,0,0,0-3.63-2.1,2.82,2.82,0,0,0-2.13.78A2.9,2.9,0,0,0,287.21,100.38Z" transform="translate(-19.55 -1.62)"/><path class="cls-1" d="M331.91,136.8a15.48,15.48,0,0,1-4.62,2.76,16,16,0,0,1-5.28.78,11.35,11.35,0,0,1-7.47-2.31,7.58,7.58,0,0,1-2.79-6.15,7.07,7.07,0,0,1,7.08-7,8.22,8.22,0,0,1,2.88.45,4.78,4.78,0,0,1,2,1.47,11.51,11.51,0,0,1,1.23,1.83,2.44,2.44,0,0,0,2,1.47,2.16,2.16,0,0,0,1.68-.66,2.67,2.67,0,0,0,.6-1.86,7.17,7.17,0,0,0-.45-2.07q-.45-1.35-2.73-6.63l-1-2.28q-.63-1.38-2.07-4.68-2.22-4.8-3.27-7.11t-1.77-4q-.06-.18-.6-1.47a5.77,5.77,0,0,0-1-1.71,4.79,4.79,0,0,0-.57-.48l-1.23-.84a2.94,2.94,0,0,1-1.2-1.17,3.82,3.82,0,0,1-.36-1.77,2.52,2.52,0,0,1,.75-1.8,4.43,4.43,0,0,1,2.13-1.14,37.25,37.25,0,0,1,4.41-.78,42.9,42.9,0,0,1,4.77-.24,47.41,47.41,0,0,1,5.19.24,21.93,21.93,0,0,1,3.75.72,3,3,0,0,1,1.65,1,3,3,0,0,1,.57,1.89,3.26,3.26,0,0,1-.33,1.53,4.6,4.6,0,0,1-1.23,1.35,13,13,0,0,0-1.2,1.05,2.41,2.41,0,0,0-.36.51,3.05,3.05,0,0,0-.33,1.23,3.5,3.5,0,0,0,.27,1.41,1.65,1.65,0,0,1,.09.21,3.12,3.12,0,0,0,.15.33q.06.24.09.33a1.65,1.65,0,0,0,.09.21q.72,1.86,1.62,4t1.68,3.78a1.59,1.59,0,0,0,.36.51.64.64,0,0,0,.42.15.58.58,0,0,0,.42-.18,2.09,2.09,0,0,0,.36-.54q.9-2,1.68-4.08t1.32-3.9a10.61,10.61,0,0,0,.27-1.08,4.63,4.63,0,0,0,.09-.84,4,4,0,0,0-.12-1,2.64,2.64,0,0,0-.42-.9,3.53,3.53,0,0,0-.57-.75,5.74,5.74,0,0,0-.87-.69,3.69,3.69,0,0,1-1-1.14,3,3,0,0,1-.33-1.44,3,3,0,0,1,.66-2.07,4.8,4.8,0,0,1,2.22-1.23,14.59,14.59,0,0,1,2.43-.51,26.29,26.29,0,0,1,3.09-.15,23.46,23.46,0,0,1,3,.18,14,14,0,0,1,2.37.48,4.19,4.19,0,0,1,2,1.11,2.78,2.78,0,0,1,.6,1.89,3.57,3.57,0,0,1-.36,1.62A5.11,5.11,0,0,1,353,96.3a5.6,5.6,0,0,0-.69.69,7.91,7.91,0,0,0-.57.81,7.25,7.25,0,0,0-.45.78q-.21.42-.75,1.8-2.46,6.36-4.32,10.77t-3.78,8.55a120.2,120.2,0,0,1-6.12,11.88A21.85,21.85,0,0,1,331.91,136.8Z" transform="translate(-19.55 -1.62)"/><path class="cls-1" d="M407.33,123.36a4.94,4.94,0,0,1-1.65,1.38,4.87,4.87,0,0,1-2.13.42,7.75,7.75,0,0,1-1.26-.09,5.87,5.87,0,0,1-1.26-.39,10.53,10.53,0,0,0-1.65-.42,11.36,11.36,0,0,0-1.77-.12q-1.14,0-2.73.06l-5.07.18q-3.78.18-5.55.24t-3.15.06q-2.46,0-4.11-.12a23.41,23.41,0,0,1-2.85-.36,5.77,5.77,0,0,1-2.76-1.11,2.63,2.63,0,0,1-.84-2.07,3.79,3.79,0,0,1,.39-1.77,4.26,4.26,0,0,1,1.47-1.47,5.9,5.9,0,0,0,.9-.72,4.77,4.77,0,0,0,.6-.72,3.28,3.28,0,0,0,.42-1,8.56,8.56,0,0,0,.18-1.23q.06-1.32.12-5t.06-7q0-6.12,0-8.64t-.09-3.66a7.34,7.34,0,0,0-.18-1.29,2.68,2.68,0,0,0-.42-.87,6.18,6.18,0,0,0-.66-.78,4.72,4.72,0,0,0-.84-.66A4.2,4.2,0,0,1,371,84.81a3.67,3.67,0,0,1-.36-1.71,2.79,2.79,0,0,1,1-2.19,6,6,0,0,1,2.91-1.23,23.66,23.66,0,0,1,3.21-.42q1.77-.12,4.47-.12t4.95.12q2.31.12,3.93.36A8.1,8.1,0,0,1,394.82,81a3,3,0,0,1,1.35,2.46,3.42,3.42,0,0,1-.66,2.13,4.94,4.94,0,0,1-2.16,1.47,14.67,14.67,0,0,0-1.65.78,4.94,4.94,0,0,0-1.05.78,3.07,3.07,0,0,0-.66,1,5.76,5.76,0,0,0-.36,1.29q-.12,1.08-.18,3.63t-.06,5.85v3.54q0,5.4,0,6.9t.09,2a3.61,3.61,0,0,0,.84,2,3,3,0,0,0,1.8.9h.3a.48.48,0,0,0,.21.06h1a5.77,5.77,0,0,0,1.5-.21,7.29,7.29,0,0,0,1.56-.63,6,6,0,0,0,1.17-.78,12.34,12.34,0,0,0,1.17-1.14,9.73,9.73,0,0,0,.78-.9q.42-.54.9-1.2.12-.18.45-.6l.87-1.14a8.31,8.31,0,0,1,2.25-2.16,4.46,4.46,0,0,1,2.31-.66,3.78,3.78,0,0,1,3.15,1.32,6.17,6.17,0,0,1,1.05,3.9,25.16,25.16,0,0,1-.18,3,18.25,18.25,0,0,1-.6,2.94,19.77,19.77,0,0,1-1.2,3.33A12.12,12.12,0,0,1,407.33,123.36Z" transform="translate(-19.55 -1.62)"/><path class="cls-1" d="M448.13,116.1a15.24,15.24,0,0,1-6.15,6.66,19.27,19.27,0,0,1-9.51,2.16q-8.7,0-13.65-4.59t-4.95-12.57a16.93,16.93,0,0,1,5.67-13.2q5.67-5.1,14.49-5.1,6.84,0,11.1,3.81a12.76,12.76,0,0,1,4.26,10,5.08,5.08,0,0,1-1.77,4.23,8.53,8.53,0,0,1-5.37,1.41H430.49a1.93,1.93,0,0,0-1.17.33,1,1,0,0,0-.45.87q0,2,2.31,3.24a12.5,12.5,0,0,0,9.39.63,9.93,9.93,0,0,0,3.3-2,7.27,7.27,0,0,1,1.38-1,2.46,2.46,0,0,1,1.08-.3,2.65,2.65,0,0,1,1.86.72,2.28,2.28,0,0,1,.78,1.74,4.33,4.33,0,0,1-.21,1.32A13.4,13.4,0,0,1,448.13,116.1Zm-20.76-13.92a2.25,2.25,0,0,0,.36,1.41,1.45,1.45,0,0,0,1.2.45h4.2a3.65,3.65,0,0,0,2.07-.45,1.61,1.61,0,0,0,.63-1.41,3.28,3.28,0,0,0-1.17-2.58,4.53,4.53,0,0,0-3.09-1,4.44,4.44,0,0,0-3,1A3.28,3.28,0,0,0,427.37,102.18Z" transform="translate(-19.55 -1.62)"/><path class="cls-1" d="M470.63,96.3a17.23,17.23,0,0,1,5.07-5.46,11,11,0,0,1,5.61-1.38,8.88,8.88,0,0,1,5.43,1.62,11,11,0,0,1,3.51,5,1.43,1.43,0,0,0,.33.57.63.63,0,0,0,.45.21.45.45,0,0,0,.27-.12,2.27,2.27,0,0,0,.39-.48,16.84,16.84,0,0,1,5.07-5.43,11.09,11.09,0,0,1,5.67-1.41,8.86,8.86,0,0,1,3.9.84,8.4,8.4,0,0,1,3,2.46A10.66,10.66,0,0,1,511,96a17.22,17.22,0,0,1,.75,4.47q.12,2.82.18,4.26t.06,2.7v4.26q0,1.32.06,2.28a18.23,18.23,0,0,0,.15,2.22,2.86,2.86,0,0,0,.21.66,2.48,2.48,0,0,0,.33.42q.27.3.75.78a5.94,5.94,0,0,1,1.2,1.5,3.24,3.24,0,0,1,.24,1.32,2.6,2.6,0,0,1-.51,1.59,3.54,3.54,0,0,1-1.47,1.11,11,11,0,0,1-3.09.84,34.28,34.28,0,0,1-4.47.24,37.68,37.68,0,0,1-5-.27,10.81,10.81,0,0,1-3.06-.81,2.93,2.93,0,0,1-1.17-1.08,2.89,2.89,0,0,1-.39-1.5,3.31,3.31,0,0,1,.33-1.5,3.39,3.39,0,0,1,.93-1.14,2.09,2.09,0,0,0,.45-.48,4,4,0,0,0,.39-.72,5.31,5.31,0,0,0,.27-1.14q.09-.66.15-1.62.06-.72.06-1.86v-3.9A26.94,26.94,0,0,0,498,104a4.75,4.75,0,0,0-1-2.37,3.7,3.7,0,0,0-1.35-1,4.37,4.37,0,0,0-1.77-.33,3.82,3.82,0,0,0-1.77.36,1.85,1.85,0,0,0-.93,1,5.32,5.32,0,0,0-.27,1.47q-.09,1-.09,6.81,0,.84,0,2.16a17.59,17.59,0,0,0,0,1.92,11.78,11.78,0,0,0,.21,1.56,5.4,5.4,0,0,0,.45,1.32,4,4,0,0,0,.36.6,6,6,0,0,0,.54.6,3.66,3.66,0,0,1,.84,1.2,4.46,4.46,0,0,1,.24,1.62,2.85,2.85,0,0,1-.45,1.59,3.14,3.14,0,0,1-1.35,1.11,10,10,0,0,1-3,.81,36.67,36.67,0,0,1-4.89.27,33.57,33.57,0,0,1-4.44-.24,12.78,12.78,0,0,1-3.18-.84,2.89,2.89,0,0,1-1.29-1,2.7,2.7,0,0,1-.45-1.56,3,3,0,0,1,.3-1.38,4.22,4.22,0,0,1,1.08-1.26,6.2,6.2,0,0,0,.51-.57,2.1,2.1,0,0,0,.33-.63,4.18,4.18,0,0,0,.27-1,17.49,17.49,0,0,0,.15-1.8q.06-.72.06-1.86v-3.9a26.94,26.94,0,0,0-.3-4.65,4.75,4.75,0,0,0-1-2.37,3.7,3.7,0,0,0-1.35-1,4.37,4.37,0,0,0-1.77-.33,3.82,3.82,0,0,0-1.77.36,1.85,1.85,0,0,0-.93,1,5.32,5.32,0,0,0-.27,1.47q-.09,1-.09,6.81v3.21q0,.87.06,1.59.06.9.15,1.5a3.26,3.26,0,0,0,.27,1,2.46,2.46,0,0,0,.39.63,5.6,5.6,0,0,0,.69.69,2.69,2.69,0,0,1,.72,1,3.3,3.3,0,0,1,.24,1.29,2.69,2.69,0,0,1-.54,1.71,4.08,4.08,0,0,1-1.74,1.17,13.7,13.7,0,0,1-3.06.78,30,30,0,0,1-4.14.24,40.91,40.91,0,0,1-4.77-.24,15.18,15.18,0,0,1-3.33-.72,3.05,3.05,0,0,1-1.38-1,2.68,2.68,0,0,1-.48-1.62,3,3,0,0,1,.39-1.56,4.67,4.67,0,0,1,1.29-1.32q.36-.3.63-.57a3,3,0,0,0,.45-.57,3.42,3.42,0,0,0,.36-1.08,14.22,14.22,0,0,0,.18-1.62q.06-2.22.09-3.69t0-2.79q0-2.52,0-3.42a10.87,10.87,0,0,0-.15-1.56,5.8,5.8,0,0,0-.3-1.23,2.2,2.2,0,0,0-.48-.75,2.48,2.48,0,0,0-.57-.42,2.2,2.2,0,0,0-.75-.24,2.93,2.93,0,0,1-1.68-.87,2.54,2.54,0,0,1-.54-1.71,4.63,4.63,0,0,1,1.26-2.85,14.48,14.48,0,0,1,3.42-2.91,14.1,14.1,0,0,1,3.57-1.65,12.75,12.75,0,0,1,3.69-.57,7,7,0,0,1,2.34.36,4.41,4.41,0,0,1,1.68,1,6.15,6.15,0,0,1,1,1.35,7.41,7.41,0,0,1,.66,1.59,5.88,5.88,0,0,1,.18,1,10.33,10.33,0,0,1,.06,1.14,1,1,0,0,0,.15.57.46.46,0,0,0,.39.21.45.45,0,0,0,.27-.12A2.27,2.27,0,0,0,470.63,96.3Z" transform="translate(-19.55 -1.62)"/><path class="cls-1" d="M555.53,107q0,8.4-5.28,13.14t-14.52,4.74q-8.64,0-13.68-4.62t-5-12.6q0-8.28,5.49-13.26t14.25-5q8.34,0,13.56,4.83T555.53,107Zm-25-2.76a11.77,11.77,0,0,0,2.58,7.2q2.58,3.42,5.46,3.42a3.43,3.43,0,0,0,2.79-1.11,5.09,5.09,0,0,0,.93-3.33,12,12,0,0,0-2.55-7.23q-2.55-3.45-5.49-3.45a3.35,3.35,0,0,0-2.73,1.2A5,5,0,0,0,530.51,104.28Z" transform="translate(-19.55 -1.62)"/><path class="cls-1" d="M567.89,124.68a37.38,37.38,0,0,1-4.56-.24,15.06,15.06,0,0,1-3.24-.72,3.05,3.05,0,0,1-1.38-1,2.68,2.68,0,0,1-.48-1.62,3,3,0,0,1,.39-1.56,4.67,4.67,0,0,1,1.29-1.32q.36-.3.63-.57a3,3,0,0,0,.45-.57,3.42,3.42,0,0,0,.36-1.08,14.22,14.22,0,0,0,.18-1.62q.06-2.22.09-3.69t0-2.79q0-2.52,0-3.42a10.87,10.87,0,0,0-.15-1.56,5.8,5.8,0,0,0-.3-1.23,2.2,2.2,0,0,0-.48-.75,2.48,2.48,0,0,0-.57-.42,2.2,2.2,0,0,0-.75-.24,2.93,2.93,0,0,1-1.68-.87,2.54,2.54,0,0,1-.54-1.71,4.63,4.63,0,0,1,1.26-2.85,14.48,14.48,0,0,1,3.42-2.91,14.1,14.1,0,0,1,3.57-1.65,12.75,12.75,0,0,1,3.69-.57,7.76,7.76,0,0,1,2.46.36,4.36,4.36,0,0,1,1.74,1,6.15,6.15,0,0,1,1,1.35A7.41,7.41,0,0,1,575,94a5.88,5.88,0,0,1,.18,1,10.33,10.33,0,0,1,.06,1.14,1,1,0,0,0,.15.57.46.46,0,0,0,.39.21.45.45,0,0,0,.27-.12,2.27,2.27,0,0,0,.39-.48,17,17,0,0,1,5.07-5.37,11.18,11.18,0,0,1,5.79-1.47q4.62,0,7.05,2.73t2.67,8.25q.12,1.92.15,3.72t0,3.42q-.06,1.8-.06,3.42t.06,3a18.23,18.23,0,0,0,.15,2.22,2.86,2.86,0,0,0,.21.66,2.48,2.48,0,0,0,.33.42q.27.3.75.78a5.94,5.94,0,0,1,1.2,1.5,3.24,3.24,0,0,1,.24,1.32,2.74,2.74,0,0,1-.51,1.62,3.49,3.49,0,0,1-1.41,1.14,11.11,11.11,0,0,1-3.15.78,41.84,41.84,0,0,1-4.95.24,45.51,45.51,0,0,1-5.22-.21,8.16,8.16,0,0,1-2.76-.81,3.31,3.31,0,0,1-1.23-1.11,2.74,2.74,0,0,1-.45-1.53,3.71,3.71,0,0,1,.27-1.47,3.13,3.13,0,0,1,.93-1.17,4.69,4.69,0,0,0,.63-.63,5.36,5.36,0,0,0,.45-.63A3.42,3.42,0,0,0,583,116a14.22,14.22,0,0,0,.18-1.62q.06-.72.06-1.86v-3.9a23.32,23.32,0,0,0-.36-4.56,5.76,5.76,0,0,0-1.08-2.58,3.7,3.7,0,0,0-1.35-1,4.21,4.21,0,0,0-1.71-.33,4.32,4.32,0,0,0-1.92.36,1.83,1.83,0,0,0-1,1,5.44,5.44,0,0,0-.27,1.5q-.09,1.08-.09,6.9v3.21q0,.87.06,1.59.06,1,.15,1.56a4.23,4.23,0,0,0,.21.84,1.86,1.86,0,0,0,.39.66,6.1,6.1,0,0,0,.63.6,2.66,2.66,0,0,1,.81,1,3.33,3.33,0,0,1,.27,1.38,2.77,2.77,0,0,1-.51,1.74,3.6,3.6,0,0,1-1.65,1.08,20.06,20.06,0,0,1-3.51.81A31.58,31.58,0,0,1,567.89,124.68Z" transform="translate(-19.55 -1.62)"/><path class="cls-1" d="M645.77,123.66a19.48,19.48,0,0,1-3.69.93,27.62,27.62,0,0,1-4.35.33q-9.66,0-15.51-6t-5.85-15.84q0-10.62,6.33-17.16t16.59-6.54a31.41,31.41,0,0,1,4.29.27,23.14,23.14,0,0,1,3.69.81,14.24,14.24,0,0,0,2,.6,6.57,6.57,0,0,0,1.23.12,1.6,1.6,0,0,0,.72-.18,5.26,5.26,0,0,0,1-.78,3.08,3.08,0,0,1,1.14-.72,4.37,4.37,0,0,1,1.5-.24,5.2,5.2,0,0,1,1.74.24,3.86,3.86,0,0,1,1.26.78,7.28,7.28,0,0,1,1.29,1.65,11.61,11.61,0,0,1,1,2.31A21.14,21.14,0,0,1,661.55,92a7.31,7.31,0,0,1-1.17,4.41A3.83,3.83,0,0,1,657.11,98a6.31,6.31,0,0,1-3.09-.81,16.28,16.28,0,0,1-3.51-2.91,22.09,22.09,0,0,0-5.1-4.05,9.72,9.72,0,0,0-4.5-1.11,7.91,7.91,0,0,0-6.57,3q-2.37,3-2.37,8.4,0,6.84,3.21,10.83a9.78,9.78,0,0,0,7.89,4,5.71,5.71,0,0,0,1.83-.24,1.92,1.92,0,0,0,1.05-.84,4.33,4.33,0,0,0,.57-1.26,5.44,5.44,0,0,0,.15-1.32,5.57,5.57,0,0,0-.18-1.56,1.64,1.64,0,0,0-.6-.9,2.71,2.71,0,0,0-.93-.42,11.13,11.13,0,0,0-1.47-.3l-1.35-.24a9.07,9.07,0,0,1-1.17-.3,4.14,4.14,0,0,1-2-1.26,3.15,3.15,0,0,1-.6-2,3.21,3.21,0,0,1,.81-2.37,5.52,5.52,0,0,1,2.73-1.23,28.41,28.41,0,0,1,3.87-.45q2.43-.15,6.87-.15,2.94,0,4.77.12a23.84,23.84,0,0,1,3,.36,5,5,0,0,1,2.43,1,2.71,2.71,0,0,1,.69,2,3.13,3.13,0,0,1-.27,1.35,3.63,3.63,0,0,1-1,1.17,5.31,5.31,0,0,0-.87.72,3.91,3.91,0,0,0-.45.6,4.27,4.27,0,0,0-.3.81,6.74,6.74,0,0,0-.18,1q-.06,1.14-.09,4.95t0,6.27a6.15,6.15,0,0,1-.54,3,2,2,0,0,1-1.86.9,6.11,6.11,0,0,1-1.2-.12,5.82,5.82,0,0,1-1.26-.42,13.65,13.65,0,0,1-1.35-.72q-.81-.48-.87-.54a10.69,10.69,0,0,0-1.35-.72,2.64,2.64,0,0,0-1-.18,5.82,5.82,0,0,0-1.14.12,8.94,8.94,0,0,0-1.5.48q-.42.12-1.29.45Z" transform="translate(-19.55 -1.62)"/><path class="cls-1" d="M676.19,124.68a39.34,39.34,0,0,1-4.71-.24,15.1,15.1,0,0,1-3.27-.72,3.05,3.05,0,0,1-1.38-1,2.68,2.68,0,0,1-.48-1.62,3,3,0,0,1,.39-1.56A4.67,4.67,0,0,1,668,118.2q.36-.3.63-.57a3,3,0,0,0,.45-.57,3.42,3.42,0,0,0,.36-1.08,14.22,14.22,0,0,0,.18-1.62q.06-2.22.09-3.69t0-2.79q0-1.68,0-2.85t-.15-2.13a3.48,3.48,0,0,0-.24-1,4.5,4.5,0,0,0-.48-.84,2.44,2.44,0,0,0-.6-.54,2,2,0,0,0-.78-.24,2.93,2.93,0,0,1-1.68-.87,2.54,2.54,0,0,1-.54-1.71,4.52,4.52,0,0,1,1.11-2.7,12.27,12.27,0,0,1,3-2.7,16.32,16.32,0,0,1,3.84-1.89,12.33,12.33,0,0,1,4-.69,8.48,8.48,0,0,1,2.85.42A4.16,4.16,0,0,1,682,91.44a5.85,5.85,0,0,1,1.32,2.61,16.38,16.38,0,0,1,.42,4q0,2.28,0,4.5t-.09,5.28q-.06,1.08-.06,1.47v3.3q0,.81.06,1.41.06,1.44.15,2a2,2,0,0,0,.6,1.29q.27.3.75.78a5.27,5.27,0,0,1,1.17,1.41,3.28,3.28,0,0,1,.27,1.41,2.74,2.74,0,0,1-.51,1.62,3.49,3.49,0,0,1-1.41,1.14,11.23,11.23,0,0,1-3.21.78A45.41,45.41,0,0,1,676.19,124.68Zm7.56-45q0,3.42-3.63,6a13.91,13.91,0,0,1-8.19,2.55,6.65,6.65,0,0,1-4.47-1.41A4.69,4.69,0,0,1,665.81,83q0-3.36,3.63-6a13.39,13.39,0,0,1,7.83-2.7,7.45,7.45,0,0,1,4.86,1.35A4.9,4.9,0,0,1,683.75,79.68Z" transform="translate(-19.55 -1.62)"/><path class="cls-1" d="M698.93,124.68a37.38,37.38,0,0,1-4.56-.24,15.06,15.06,0,0,1-3.24-.72,3.05,3.05,0,0,1-1.38-1,2.68,2.68,0,0,1-.48-1.62,3,3,0,0,1,.39-1.56A4.67,4.67,0,0,1,691,118.2q.36-.3.63-.57a3,3,0,0,0,.45-.57,3.42,3.42,0,0,0,.36-1.08,14.22,14.22,0,0,0,.18-1.62q.06-2.22.09-3.69t0-2.79q0-2.52,0-3.42a10.87,10.87,0,0,0-.15-1.56,5.8,5.8,0,0,0-.3-1.23,2.2,2.2,0,0,0-.48-.75,2.48,2.48,0,0,0-.57-.42,2.2,2.2,0,0,0-.75-.24,2.93,2.93,0,0,1-1.68-.87,2.54,2.54,0,0,1-.54-1.71,4.63,4.63,0,0,1,1.26-2.85,14.48,14.48,0,0,1,3.42-2.91,14.1,14.1,0,0,1,3.57-1.65,12.75,12.75,0,0,1,3.69-.57,7.76,7.76,0,0,1,2.46.36,4.36,4.36,0,0,1,1.74,1,6.15,6.15,0,0,1,1,1.35A7.41,7.41,0,0,1,706,94a5.88,5.88,0,0,1,.18,1,10.33,10.33,0,0,1,.06,1.14,1,1,0,0,0,.15.57.46.46,0,0,0,.39.21.45.45,0,0,0,.27-.12,2.27,2.27,0,0,0,.39-.48,17,17,0,0,1,5.07-5.37,11.18,11.18,0,0,1,5.79-1.47q4.62,0,7.05,2.73t2.67,8.25q.12,1.92.15,3.72t0,3.42q-.06,1.8-.06,3.42t.06,3a18.23,18.23,0,0,0,.15,2.22,2.86,2.86,0,0,0,.21.66,2.48,2.48,0,0,0,.33.42q.27.3.75.78a5.94,5.94,0,0,1,1.2,1.5,3.24,3.24,0,0,1,.24,1.32,2.74,2.74,0,0,1-.51,1.62,3.49,3.49,0,0,1-1.41,1.14,11.11,11.11,0,0,1-3.15.78,41.84,41.84,0,0,1-5,.24,45.51,45.51,0,0,1-5.22-.21,8.16,8.16,0,0,1-2.76-.81,3.31,3.31,0,0,1-1.23-1.11,2.74,2.74,0,0,1-.45-1.53,3.71,3.71,0,0,1,.27-1.47,3.13,3.13,0,0,1,.93-1.17,4.69,4.69,0,0,0,.63-.63,5.36,5.36,0,0,0,.45-.63A3.42,3.42,0,0,0,714,116a14.22,14.22,0,0,0,.18-1.62q.06-.72.06-1.86v-3.9a23.32,23.32,0,0,0-.36-4.56,5.76,5.76,0,0,0-1.08-2.58,3.7,3.7,0,0,0-1.35-1,4.21,4.21,0,0,0-1.71-.33,4.32,4.32,0,0,0-1.92.36,1.83,1.83,0,0,0-1,1,5.44,5.44,0,0,0-.27,1.5q-.09,1.08-.09,6.9v3.21q0,.87.06,1.59.06,1,.15,1.56a4.23,4.23,0,0,0,.21.84,1.86,1.86,0,0,0,.39.66,6.1,6.1,0,0,0,.63.6,2.66,2.66,0,0,1,.81,1,3.33,3.33,0,0,1,.27,1.38,2.77,2.77,0,0,1-.51,1.74,3.6,3.6,0,0,1-1.65,1.08,20.06,20.06,0,0,1-3.51.81A31.58,31.58,0,0,1,698.93,124.68Z" transform="translate(-19.55 -1.62)"/><path class="cls-1" d="M770.33,125.58q0,6.42-6.45,10.14t-18.15,3.72q-7.38,0-10.71-1.38t-3.33-4.44a4.67,4.67,0,0,1,1.38-3.39,18.22,18.22,0,0,1,5.28-3.15.93.93,0,0,0,.39-.24.6.6,0,0,0,.09-.36.32.32,0,0,0-.12-.27,1.05,1.05,0,0,0-.3-.15,8.62,8.62,0,0,1-3.6-1.71,3.47,3.47,0,0,1-1.14-2.67,4.62,4.62,0,0,1,1.5-3.51,20.09,20.09,0,0,1,5.94-3.15,1.11,1.11,0,0,0,.51-.3.73.73,0,0,0,.15-.48.64.64,0,0,0-.15-.42,1.77,1.77,0,0,0-.45-.36,14.38,14.38,0,0,1-5.85-4.56,10.91,10.91,0,0,1-1.89-6.42A11.36,11.36,0,0,1,738,93q4.59-3.54,12.09-3.54.66,0,1.29,0t1.53.15a7.88,7.88,0,0,1,.84,0,3.87,3.87,0,0,0,.48,0,1.16,1.16,0,0,0,1.11-.48,4.69,4.69,0,0,0,.27-2,4.18,4.18,0,0,1,1.59-3.36,6.22,6.22,0,0,1,4.11-1.32,9.54,9.54,0,0,1,5.76,1.62,5,5,0,0,1,2.22,4.2,3.23,3.23,0,0,1-1,2.46,3.62,3.62,0,0,1-2.58,1h-1.8a1.31,1.31,0,0,0-.81.21.75.75,0,0,0-.27.63,1.38,1.38,0,0,0,.33.75,20.74,20.74,0,0,0,1.65,1.77,10.21,10.21,0,0,1,2.19,3.3,11.56,11.56,0,0,1-4,13.2q-4.65,3.3-13.17,3.3a5.84,5.84,0,0,0-2.22.3,1,1,0,0,0-.66,1,1,1,0,0,0,.69,1,8.6,8.6,0,0,0,2.67.27H758q6,0,9.15,2.1A6.79,6.79,0,0,1,770.33,125.58Zm-24.3,3.3q0,1,1.44,1.41a16.37,16.37,0,0,0,4.5.45,15.53,15.53,0,0,0,4.5-.54q1.74-.54,1.74-1.32a1.17,1.17,0,0,0-.93-1.11,10.2,10.2,0,0,0-3.09-.33h-5.64a3.68,3.68,0,0,0-1.86.39A1.18,1.18,0,0,0,746,128.88Zm.6-28.5a7.36,7.36,0,0,0,1.56,4.53,4.35,4.35,0,0,0,3.42,2.07,3.36,3.36,0,0,0,2.31-.72,2.59,2.59,0,0,0,.81-2,7.48,7.48,0,0,0-1.59-4.62,4.54,4.54,0,0,0-3.63-2.1,2.82,2.82,0,0,0-2.13.78A2.9,2.9,0,0,0,746.63,100.38Z" transform="translate(-19.55 -1.62)"/><path class="cls-1" d="M804.89,116.1a15.24,15.24,0,0,1-6.15,6.66,19.27,19.27,0,0,1-9.51,2.16q-8.7,0-13.65-4.59t-5-12.57a16.93,16.93,0,0,1,5.67-13.2q5.67-5.1,14.49-5.1,6.84,0,11.1,3.81a12.76,12.76,0,0,1,4.26,10,5.08,5.08,0,0,1-1.77,4.23A8.53,8.53,0,0,1,799,108.9H787.25a1.93,1.93,0,0,0-1.17.33,1,1,0,0,0-.45.87q0,2,2.31,3.24a12.5,12.5,0,0,0,9.39.63,9.93,9.93,0,0,0,3.3-2,7.27,7.27,0,0,1,1.38-1,2.46,2.46,0,0,1,1.08-.3,2.65,2.65,0,0,1,1.86.72,2.28,2.28,0,0,1,.78,1.74,4.33,4.33,0,0,1-.21,1.32A13.4,13.4,0,0,1,804.89,116.1Zm-20.76-13.92a2.25,2.25,0,0,0,.36,1.41,1.45,1.45,0,0,0,1.2.45h4.2a3.65,3.65,0,0,0,2.07-.45,1.61,1.61,0,0,0,.63-1.41,3.28,3.28,0,0,0-1.17-2.58,4.53,4.53,0,0,0-3.09-1,4.44,4.44,0,0,0-3,1A3.28,3.28,0,0,0,784.13,102.18Z" transform="translate(-19.55 -1.62)"/><path class="cls-1" d="M836.21,89.28a6.6,6.6,0,0,1,5.4,2.52,10,10,0,0,1,2,6.48,10.39,10.39,0,0,1-2,6.69,6.57,6.57,0,0,1-5.4,2.55,6.47,6.47,0,0,1-3.09-.69,7,7,0,0,1-2.37-2.25s-.33-.46-.87-1.26-1-1.2-1.53-1.2-.79.28-1.05.84a7.37,7.37,0,0,0-.51,2.46q-.06,1.44-.12,2.34t-.06,1.32q0,1.32,0,2.58t.09,2.28a5.77,5.77,0,0,0,.27,1.5,3.6,3.6,0,0,0,.75,1.2l.54.51a10.08,10.08,0,0,0,1.14.81,2.65,2.65,0,0,1,.93,1.14,4.48,4.48,0,0,1,.27,1.68,2.61,2.61,0,0,1-.84,2,5.46,5.46,0,0,1-2.46,1.23,22.08,22.08,0,0,1-3.12.51q-1.62.15-4.8.15a47.94,47.94,0,0,1-4.92-.21,13.18,13.18,0,0,1-3.24-.69,2.86,2.86,0,0,1-1.35-1,2.81,2.81,0,0,1-.45-1.62,3.17,3.17,0,0,1,.36-1.59,4.84,4.84,0,0,1,1.32-1.35,7,7,0,0,0,.72-.6,1.88,1.88,0,0,0,.36-.48,3.42,3.42,0,0,0,.36-1.08,14.22,14.22,0,0,0,.18-1.62q.06-2.22.09-3.69t0-2.79q0-2.52,0-3.42a10.87,10.87,0,0,0-.15-1.56,7.61,7.61,0,0,0-.24-1.14,1.37,1.37,0,0,0-.3-.54,3.09,3.09,0,0,0-.66-.6,2.65,2.65,0,0,0-.9-.36,2.41,2.41,0,0,1-2.22-2.58,4.35,4.35,0,0,1,1.2-2.82,13.74,13.74,0,0,1,3.48-2.94,14.24,14.24,0,0,1,3.54-1.65,12.26,12.26,0,0,1,3.6-.57,8.62,8.62,0,0,1,2,.21,5.24,5.24,0,0,1,1.47.57,5,5,0,0,1,1.08.87,4.65,4.65,0,0,1,.78,1.11,7.61,7.61,0,0,1,.54,1.62,12,12,0,0,1,.3,2q.06.72.48.81t.66-.63a14.83,14.83,0,0,1,1.77-3.48,9.25,9.25,0,0,1,2.19-2.22,7.11,7.11,0,0,1,2.16-1A9.7,9.7,0,0,1,836.21,89.28Z" transform="translate(-19.55 -1.62)"/><path class="cls-1" d="M865.19,115.86a8.75,8.75,0,0,1-3,6.72,10.45,10.45,0,0,1-7.29,2.76,8.86,8.86,0,0,1-6-1.92,6.31,6.31,0,0,1-2.16-5.16,9.17,9.17,0,0,1,3.12-6.72,10.39,10.39,0,0,1,7.2-2.94,8.29,8.29,0,0,1,5.85,2A6.72,6.72,0,0,1,865.19,115.86Zm-7.62-10.62a2.32,2.32,0,0,1-.69.66,1.78,1.78,0,0,1-1.62,0,2.68,2.68,0,0,1-.75-.63q-2.4-2.7-5-9T847,85.92a8.19,8.19,0,0,1,2.7-6.54q2.7-2.34,7.68-2.34a8,8,0,0,1,5.7,1.83A7.16,7.16,0,0,1,865,84.3a32.64,32.64,0,0,1-2.31,11.34A33.72,33.72,0,0,1,857.57,105.24Z" transform="translate(-19.55 -1.62)"/></g></g></svg>