<svg xmlns="http://www.w3.org/2000/svg" viewBox="0 0 664.14 137.82"><defs><style>.cls-1{fill:#ffd049;}</style></defs><g id="Layer_2" data-name="Layer 2"><g id="Layer_19" data-name="Layer 19"><path class="cls-1" d="M84.08,52.68q-2.52,0-4.23-.15a12.06,12.06,0,0,1-2.61-.45,3.79,3.79,0,0,1-1.83-1.14,2.91,2.91,0,0,1-.57-1.86,3.19,3.19,0,0,1,.66-1.92,9.23,9.23,0,0,1,2.46-2,3.93,3.93,0,0,0,.6-.48A2.79,2.79,0,0,0,79,44.1a3.64,3.64,0,0,0,.36-.87A7.11,7.11,0,0,0,79.52,42q.06-1.32.12-5t.06-6.93V21.6q0-2.58-.06-3.18-.06-1.14-.12-1.65a2.63,2.63,0,0,0-.24-.87,3.92,3.92,0,0,0-.24-.42,4.19,4.19,0,0,0-.48-.54l-.63-.57a3.6,3.6,0,0,1-.69-.75,2.09,2.09,0,0,1-.42-.81,4.1,4.1,0,0,1-.12-1.05A3.41,3.41,0,0,1,77.18,10a3.89,3.89,0,0,1,1.38-1.35,9.39,9.39,0,0,1,3.12-1,30.21,30.21,0,0,1,4.86-.33q4.8,0,6.09.15a17.48,17.48,0,0,1,2.43.45,5,5,0,0,1,2.73,1.83,22.05,22.05,0,0,1,2.55,4.95q.6,1.44,1.26,3.12t2,4.86q1,2.64,1.47,3.78t.81,1.92a1.92,1.92,0,0,0,.33.63.46.46,0,0,0,.33.15.43.43,0,0,0,.33-.18,2.46,2.46,0,0,0,.33-.66q.66-1.86,2-5.31t3.42-8.49q.9-2.34,1.23-3a8.16,8.16,0,0,1,.69-1.11,7.21,7.21,0,0,1,1.56-1.56,6.84,6.84,0,0,1,2.1-1,16.24,16.24,0,0,1,3-.54q1.77-.18,4.29-.18,2.28,0,3.9.12a21.84,21.84,0,0,1,2.52.3A3.62,3.62,0,0,1,134,8.64a3.14,3.14,0,0,1,.66,2.1,4,4,0,0,1-.36,1.68A5.81,5.81,0,0,1,133.1,14a3.82,3.82,0,0,0-.48.57,2.63,2.63,0,0,0-.3.63,9.07,9.07,0,0,0-.3,1.17,13,13,0,0,0-.18,1.35q-.06,1.92-.12,6t-.06,6.33v8.52q0,2.58.06,3.18a9.26,9.26,0,0,0,.21,1.47,3.69,3.69,0,0,0,.45,1.11,4.32,4.32,0,0,0,.54.66,2.53,2.53,0,0,0,.66.48,3,3,0,0,1,1.29,1.23,4.45,4.45,0,0,1,.33,1.89,2.94,2.94,0,0,1-.93,2.25,5.57,5.57,0,0,1-2.79,1.23,25.55,25.55,0,0,1-3.3.42q-1.8.12-4.14.12-2.52,0-4.2-.12A23.46,23.46,0,0,1,117,52.2a5.92,5.92,0,0,1-2.76-1.14,2.57,2.57,0,0,1-.9-2,4.05,4.05,0,0,1,.36-1.77,5.37,5.37,0,0,1,1.62-1.71,5,5,0,0,0,.72-.63,3.8,3.8,0,0,0,.42-.57,3.87,3.87,0,0,0,.45-1,6.77,6.77,0,0,0,.21-1.14q.06-.54.06-2.37V29.22a12.93,12.93,0,0,0-.06-1.38,2.13,2.13,0,0,0-.18-.75.39.39,0,0,0-.36-.21.63.63,0,0,0-.45.21,1.43,1.43,0,0,0-.33.57q-2.64,7-4.56,11.91t-3.54,8.67a7.68,7.68,0,0,1-1.77,2.85,4.28,4.28,0,0,1-4.53.3A4.24,4.24,0,0,1,100,49.68q-1.08-2.28-2-4.47T95.36,39q-.6-1.5-2-5.16T91,28a2.64,2.64,0,0,0-.48-.78A.75.75,0,0,0,90,27a.48.48,0,0,0-.45.3,2.7,2.7,0,0,0-.21.9q-.06.6-.09,1.53t0,2.73q0,4,0,6.15t.09,2.79a3.47,3.47,0,0,0,.3,1.17,3.29,3.29,0,0,0,.66.93,5.71,5.71,0,0,0,.72.6,7.65,7.65,0,0,0,1.2.66,8.49,8.49,0,0,1,2.73,1.8,2.87,2.87,0,0,1,.63,1.86,3.25,3.25,0,0,1-1,2.43,5.6,5.6,0,0,1-2.94,1.35,28.37,28.37,0,0,1-2.85.36Q87.2,52.68,84.08,52.68Z" transform="translate(-74.84 -1.62)"/><path class="cls-1" d="M175.64,35q0,8.4-5.28,13.14t-14.52,4.74q-8.64,0-13.68-4.62t-5-12.6q0-8.28,5.49-13.26t14.25-5q8.34,0,13.56,4.83T175.64,35Zm-25-2.76a11.77,11.77,0,0,0,2.58,7.2q2.58,3.42,5.46,3.42a3.43,3.43,0,0,0,2.79-1.11,5.09,5.09,0,0,0,.93-3.33,12,12,0,0,0-2.55-7.23q-2.55-3.45-5.49-3.45a3.35,3.35,0,0,0-2.73,1.2A5,5,0,0,0,150.62,32.28Z" transform="translate(-74.84 -1.62)"/><path class="cls-1" d="M205.16,17.28a6.6,6.6,0,0,1,5.4,2.52,10,10,0,0,1,2,6.48,10.39,10.39,0,0,1-2,6.69,6.57,6.57,0,0,1-5.4,2.55,6.47,6.47,0,0,1-3.09-.69,7,7,0,0,1-2.37-2.25s-.33-.46-.87-1.26-1.05-1.2-1.53-1.2-.79.28-1.05.84a7.37,7.37,0,0,0-.51,2.46q-.06,1.44-.12,2.34t-.06,1.32q0,1.32,0,2.58t.09,2.28a5.77,5.77,0,0,0,.27,1.5,3.6,3.6,0,0,0,.75,1.2l.54.51a10.08,10.08,0,0,0,1.14.81,2.65,2.65,0,0,1,.93,1.14,4.48,4.48,0,0,1,.27,1.68,2.61,2.61,0,0,1-.84,1.95A5.46,5.46,0,0,1,196.28,52a22.08,22.08,0,0,1-3.12.51q-1.62.15-4.8.15a47.94,47.94,0,0,1-4.92-.21,13.18,13.18,0,0,1-3.24-.69,2.86,2.86,0,0,1-1.35-1,2.81,2.81,0,0,1-.45-1.62,3.17,3.17,0,0,1,.36-1.59,4.84,4.84,0,0,1,1.32-1.35,7,7,0,0,0,.72-.6,1.88,1.88,0,0,0,.36-.48,3.42,3.42,0,0,0,.36-1.08,14.22,14.22,0,0,0,.18-1.62q.06-2.22.09-3.69t0-2.79q0-2.52,0-3.42a10.87,10.87,0,0,0-.15-1.56,7.61,7.61,0,0,0-.24-1.14,1.37,1.37,0,0,0-.3-.54,3.09,3.09,0,0,0-.66-.6,2.65,2.65,0,0,0-.9-.36,2.87,2.87,0,0,1-1.65-.84,2.86,2.86,0,0,1-.57-1.74,4.35,4.35,0,0,1,1.2-2.82A13.74,13.74,0,0,1,182,19.92a14.24,14.24,0,0,1,3.54-1.65,12.26,12.26,0,0,1,3.6-.57,8.62,8.62,0,0,1,2,.21,5.24,5.24,0,0,1,1.47.57,5,5,0,0,1,1.08.87,4.65,4.65,0,0,1,.78,1.11,7.61,7.61,0,0,1,.54,1.62,12,12,0,0,1,.3,2q.06.72.48.81t.66-.63a14.83,14.83,0,0,1,1.77-3.48,9.25,9.25,0,0,1,2.19-2.22,7.11,7.11,0,0,1,2.16-1A9.7,9.7,0,0,1,205.16,17.28Z" transform="translate(-74.84 -1.62)"/><path class="cls-1" d="M248.12,44.1A15.24,15.24,0,0,1,242,50.76a19.27,19.27,0,0,1-9.51,2.16q-8.7,0-13.65-4.59t-4.95-12.57a16.93,16.93,0,0,1,5.67-13.2q5.67-5.1,14.49-5.1c4.56,0,8.25,1.27,11.1,3.81a12.76,12.76,0,0,1,4.26,10,5.08,5.08,0,0,1-1.77,4.23,8.53,8.53,0,0,1-5.37,1.41H230.48a1.93,1.93,0,0,0-1.17.33,1,1,0,0,0-.45.87q0,2,2.31,3.24a12.5,12.5,0,0,0,9.39.63,9.93,9.93,0,0,0,3.3-1.95,7.27,7.27,0,0,1,1.38-1,2.46,2.46,0,0,1,1.08-.3,2.65,2.65,0,0,1,1.86.72,2.28,2.28,0,0,1,.78,1.74,4.33,4.33,0,0,1-.21,1.32A13.4,13.4,0,0,1,248.12,44.1ZM227.36,30.18a2.25,2.25,0,0,0,.36,1.41,1.45,1.45,0,0,0,1.2.45h4.2a3.65,3.65,0,0,0,2.07-.45,1.61,1.61,0,0,0,.63-1.41,3.28,3.28,0,0,0-1.17-2.58,4.53,4.53,0,0,0-3.09-1,4.44,4.44,0,0,0-3,1A3.28,3.28,0,0,0,227.36,30.18Z" transform="translate(-74.84 -1.62)"/><path class="cls-1" d="M276.14,52.92c-1.17,0-2.22,0-3.19-.12a18.62,18.62,0,0,1-2.51-.36,7.26,7.26,0,0,1-3.06-1.23,2.45,2.45,0,0,1-1-2,3,3,0,0,1,.38-1.56A4.81,4.81,0,0,1,268,46.32a5.68,5.68,0,0,0,.7-.57,3.41,3.41,0,0,0,.45-.57,2.69,2.69,0,0,0,.33-1c.06-.4.1-1,.14-1.68s.07-1.82.09-3.18,0-2.76,0-4.2v-5a1.34,1.34,0,0,0-.33-1,1.4,1.4,0,0,0-1-.33h-.54a1.15,1.15,0,0,1-.37-.06A3.14,3.14,0,0,1,265,27.24a6.14,6.14,0,0,1-.52-3.66,7.4,7.4,0,0,1,1-3.42,4.08,4.08,0,0,1,2.63-1.56,5.25,5.25,0,0,0,.82-.33,1.41,1.41,0,0,0,.45-.39,2.92,2.92,0,0,0,.27-.63,3.38,3.38,0,0,0,.08-.75,5.78,5.78,0,0,0,0-.72,7.49,7.49,0,0,0-.21-1.08,12.24,12.24,0,0,1-.3-1.74c0-.48-.05-1-.05-1.5a9.1,9.1,0,0,1,3-7.17,12,12,0,0,1,8.2-2.67,11.13,11.13,0,0,1,6.8,1.86,6,6,0,0,1,2.49,5,6.58,6.58,0,0,1-1.29,4.26,4.29,4.29,0,0,1-3.56,1.62,4.06,4.06,0,0,1-1.17-.15,8,8,0,0,1-1.35-.57,7.22,7.22,0,0,0-1.26-.51,4.59,4.59,0,0,0-1.2-.15,2.07,2.07,0,0,0-1.56.69,2.26,2.26,0,0,0-.66,1.65,2.08,2.08,0,0,0,1.08,1.95,6.56,6.56,0,0,0,3.23.63h.87c.31,0,.75,0,1.36-.06.92,0,1.65-.06,2.22-.06h1.67a2,2,0,0,1,2,1.5,9.8,9.8,0,0,1-.05,4.5,10.07,10.07,0,0,1-1.38,3.78,2.62,2.62,0,0,1-2.16,1.26h-1.45a2.13,2.13,0,0,0-1.67.54,2.53,2.53,0,0,0-.48,1.74v3.24c0,1.64,0,3.07.09,4.29s.12,2.19.21,2.91a3.47,3.47,0,0,0,.42,1.26,3.77,3.77,0,0,0,.72,1,6.25,6.25,0,0,0,1,.69,8,8,0,0,0,1.13.57,3.76,3.76,0,0,1,1.66,1.2,3.33,3.33,0,0,1,.5,1.92,3.06,3.06,0,0,1-1.19,2.43,9.32,9.32,0,0,1-3.6,1.59,24.6,24.6,0,0,1-3.39.54C279.17,52.86,277.73,52.92,276.14,52.92Zm26-.24c-1.69,0-3,0-4-.12a23.49,23.49,0,0,1-2.93-.42,4.47,4.47,0,0,1-2.34-1,2.51,2.51,0,0,1-.78-1.89,3.28,3.28,0,0,1,.35-1.59,4.27,4.27,0,0,1,1.32-1.29,6.06,6.06,0,0,0,.72-.6,2.21,2.21,0,0,0,.37-.48,4,4,0,0,0,.36-1.08c.07-.44.14-1,.18-1.62,0-1.12.06-2.91.08-5.37s0-5.05,0-7.77c0-2.92,0-5.65,0-8.19s-.05-4.05-.08-4.53a12.59,12.59,0,0,0-.21-1.95,3.14,3.14,0,0,0-.51-1.11,2.49,2.49,0,0,0-.49-.48,2.53,2.53,0,0,0-.59-.36,2.92,2.92,0,0,1-1.33-1.11,3.36,3.36,0,0,1-.41-1.77,4.18,4.18,0,0,1,.69-2.34,5.22,5.22,0,0,1,2-1.8,15.72,15.72,0,0,1,4.08-1.65,17.71,17.71,0,0,1,4.43-.57,9,9,0,0,1,2.44.3,4.94,4.94,0,0,1,1.83,1A5.73,5.73,0,0,1,309,7.5a14.94,14.94,0,0,1,.54,4.44c0,1.24,0,2.57,0,4s-.06,3.51-.09,6.27c0,2.56,0,4.47,0,5.73s0,2.43,0,3.51v8.37c0,1.18,0,2,.06,2.37,0,.72.09,1.32.14,1.8a3.76,3.76,0,0,0,.28,1.08,2.63,2.63,0,0,0,.44.63,8.4,8.4,0,0,0,.75.63,3.73,3.73,0,0,1,1.06,1.14,3.34,3.34,0,0,1,.33,1.56,2.62,2.62,0,0,1-.85,1.92,4.45,4.45,0,0,1-2.34,1.14,23,23,0,0,1-3.08.48C305.12,52.64,303.82,52.68,302.18,52.68Z" transform="translate(-74.84 -1.62)"/><path class="cls-1" d="M333.86,48.36A9.63,9.63,0,0,1,330,51.69a11.64,11.64,0,0,1-5.28,1.23,10.42,10.42,0,0,1-7.2-2.31A8.29,8.29,0,0,1,315,44.1a8.91,8.91,0,0,1,1.17-4.62,9.2,9.2,0,0,1,3.51-3.3,17.79,17.79,0,0,1,3.21-1.38,58.46,58.46,0,0,1,6-1.44q.72-.12,1.08-.21a5.13,5.13,0,0,0,.66-.21,6,6,0,0,0,2.64-1.47,3.62,3.62,0,0,0,.84-2.31V29a3,3,0,0,0-.9-2.34,3.55,3.55,0,0,0-2.52-.84,3.67,3.67,0,0,0-2.22.75,5,5,0,0,0-1.62,2.13,8,8,0,0,1-2.61,3.57,6.47,6.47,0,0,1-3.75,1,5.9,5.9,0,0,1-4.17-1.47A5,5,0,0,1,314.72,28q0-4.44,5.55-7.38a25.68,25.68,0,0,1,12.21-2.94q7.68,0,11.55,3.24t3.87,9.6v2.31q0,1.17-.06,3.27v4.56a7.75,7.75,0,0,0,.09,1.26,12.05,12.05,0,0,0,.39,1.5,1.58,1.58,0,0,0,.48.6,3.57,3.57,0,0,0,1,.54,3.5,3.5,0,0,1,1.53,1.05,2.92,2.92,0,0,1,.39,1.65,3.7,3.7,0,0,1-.6,2.1,6.21,6.21,0,0,1-2,1.74A11.37,11.37,0,0,1,346,52.26a16.32,16.32,0,0,1-3.72.42,14,14,0,0,1-3-.24,6,6,0,0,1-2.1-1,4.45,4.45,0,0,1-1.17-1.29,6.19,6.19,0,0,1-.75-1.71,1.77,1.77,0,0,0-.24-.57.43.43,0,0,0-.36-.15.64.64,0,0,0-.42.15A2.46,2.46,0,0,0,333.86,48.36Zm-4.92-7.26a3,3,0,0,0,.81,2.25,3,3,0,0,0,2.19.81,2.54,2.54,0,0,0,1.65-.51,3,3,0,0,0,.93-1.59,5.88,5.88,0,0,0,.18-1,12.23,12.23,0,0,0,.06-1.32v-.36a2.83,2.83,0,0,0-.39-1.8q-.39-.42-1.41-.06l-.36.12a1.07,1.07,0,0,1-.27.09,1.66,1.66,0,0,0-.39.15,1.16,1.16,0,0,0-.33.12.29.29,0,0,1-.15.06,4,4,0,0,0-1.92,1.14A2.81,2.81,0,0,0,328.94,41.1Z" transform="translate(-74.84 -1.62)"/><path class="cls-1" d="M375.08,51.84a5.61,5.61,0,0,1-1.92.87,10.46,10.46,0,0,1-2.52.27,18,18,0,0,1-3.33-.24,5.66,5.66,0,0,1-2.13-.84,6.3,6.3,0,0,1-1.71-1.59,25.48,25.48,0,0,1-2.07-3.45q-1.5-2.88-3.75-8.34T354,28.86a17.62,17.62,0,0,0-.81-2,3.67,3.67,0,0,0-1.32-1.62l-1.23-.84a3.43,3.43,0,0,1-1.2-1.2,3.63,3.63,0,0,1-.36-1.74,2.52,2.52,0,0,1,.75-1.8A4.43,4.43,0,0,1,352,18.48a28.68,28.68,0,0,1,4.17-.78,45.43,45.43,0,0,1,5-.24c1.92,0,3.57.07,5,.21a20.58,20.58,0,0,1,3.72.69,3.75,3.75,0,0,1,1.83,1.11,2.84,2.84,0,0,1,.63,1.89A3.48,3.48,0,0,1,372,23a3.43,3.43,0,0,1-1.2,1.2,11,11,0,0,0-1.08.9,3.15,3.15,0,0,0-.48.6,2.9,2.9,0,0,0-.33,1.23,3.9,3.9,0,0,0,.27,1.47c.48,1.36,1.05,2.89,1.74,4.59s1.32,3.15,1.92,4.35a1.54,1.54,0,0,0,.42.54.74.74,0,0,0,.42.12.72.72,0,0,0,.45-.18,1.71,1.71,0,0,0,.39-.54q.9-1.86,1.68-4c.51-1.4,1-2.76,1.32-4.08a4.22,4.22,0,0,0,.24-1c0-.32,0-.64,0-1a4.76,4.76,0,0,0-.11-1,3.22,3.22,0,0,0-.36-.84,3.9,3.9,0,0,0-.57-.75,5,5,0,0,0-.81-.63,3.94,3.94,0,0,1-1.23-1.29,3.12,3.12,0,0,1-.33-1.47,2.77,2.77,0,0,1,.69-1.95,4.89,4.89,0,0,1,2.19-1.23,12.9,12.9,0,0,1,2.43-.51,27.65,27.65,0,0,1,3.15-.15,28.85,28.85,0,0,1,3,.15,11.37,11.37,0,0,1,2.31.45,4.3,4.3,0,0,1,2,1.11,2.83,2.83,0,0,1,.6,1.89,3.76,3.76,0,0,1-.36,1.65,5,5,0,0,1-1.26,1.53,10.77,10.77,0,0,0-.87.84,4.67,4.67,0,0,0-.45.6,6.25,6.25,0,0,0-.33.63c-.11.22-.37.89-.81,2q-1.26,3.3-3,7.35t-4.47,10.11a30.46,30.46,0,0,1-2.13,3.93A7.81,7.81,0,0,1,375.08,51.84Z" transform="translate(-74.84 -1.62)"/><path class="cls-1" d="M428.53,35q0,8.4-5.27,13.14t-14.53,4.74q-8.62,0-13.67-4.62c-3.37-3.08-5-7.28-5-12.6q0-8.28,5.49-13.26t14.25-5q8.34,0,13.56,4.83T428.53,35Zm-25-2.76a11.71,11.71,0,0,0,2.58,7.2q2.58,3.42,5.46,3.42a3.46,3.46,0,0,0,2.79-1.11,5.15,5.15,0,0,0,.92-3.33,12,12,0,0,0-2.54-7.23q-2.57-3.45-5.5-3.45a3.33,3.33,0,0,0-2.72,1.2A5,5,0,0,0,403.52,32.28Z" transform="translate(-74.84 -1.62)"/><path class="cls-1" d="M458.06,17.28a6.6,6.6,0,0,1,5.4,2.52,10,10,0,0,1,2,6.48,10.39,10.39,0,0,1-2,6.69,6.57,6.57,0,0,1-5.4,2.55,6.44,6.44,0,0,1-3.09-.69,7,7,0,0,1-2.37-2.25s-.33-.46-.87-1.26-1.05-1.2-1.54-1.2-.79.28-1,.84a7.13,7.13,0,0,0-.51,2.46c0,1-.09,1.74-.12,2.34s-.06,1-.06,1.32c0,.88,0,1.74,0,2.58s0,1.6.1,2.28a5,5,0,0,0,.27,1.5,3.3,3.3,0,0,0,.75,1.2c.15.16.34.33.54.51a9.7,9.7,0,0,0,1.13.81,2.68,2.68,0,0,1,.94,1.14,4.48,4.48,0,0,1,.27,1.68,2.65,2.65,0,0,1-.84,1.95A5.51,5.51,0,0,1,449.18,52a22.08,22.08,0,0,1-3.12.51c-1.08.1-2.69.15-4.8.15a47.94,47.94,0,0,1-4.92-.21,13.18,13.18,0,0,1-3.24-.69,2.86,2.86,0,0,1-1.35-1,2.74,2.74,0,0,1-.45-1.62,3.17,3.17,0,0,1,.36-1.59A4.84,4.84,0,0,1,433,46.14a6.7,6.7,0,0,0,.71-.6,1.72,1.72,0,0,0,.37-.48,4,4,0,0,0,.36-1.08c.07-.44.14-1,.18-1.62q0-2.22.09-3.69c0-1,0-1.91,0-2.79,0-1.68,0-2.82,0-3.42a14.78,14.78,0,0,0-.15-1.56,11.5,11.5,0,0,0-.24-1.14,1.5,1.5,0,0,0-.3-.54,3.35,3.35,0,0,0-.66-.6,2.65,2.65,0,0,0-.9-.36,2.84,2.84,0,0,1-1.65-.84,2.74,2.74,0,0,1-.57-1.74,4.35,4.35,0,0,1,1.2-2.82,13.57,13.57,0,0,1,3.48-2.94,14.07,14.07,0,0,1,3.54-1.65,12.16,12.16,0,0,1,3.6-.57,8.68,8.68,0,0,1,2,.21,5.5,5.5,0,0,1,1.47.57,5.57,5.57,0,0,1,1.08.87,5.3,5.3,0,0,1,.78,1.11,8.22,8.22,0,0,1,.54,1.62,13,13,0,0,1,.3,2c0,.48.19.75.47.81s.5-.15.67-.63a14.46,14.46,0,0,1,1.77-3.48,9.25,9.25,0,0,1,2.19-2.22,6.89,6.89,0,0,1,2.16-1A9.59,9.59,0,0,1,458.06,17.28Z" transform="translate(-74.84 -1.62)"/><path class="cls-1" d="M475.22,52a4.45,4.45,0,0,1-1.08.54,3.26,3.26,0,0,1-.9.12,3.63,3.63,0,0,1-1.47-.33,4.65,4.65,0,0,1-1.41-1A9.43,9.43,0,0,1,469,49.68a10.35,10.35,0,0,1-1-2.22,12,12,0,0,1-.54-2.22,17.86,17.86,0,0,1-.18-2.64,5,5,0,0,1,.84-3.06,2.63,2.63,0,0,1,2.22-1.14,3.84,3.84,0,0,1,1.62.39,11.42,11.42,0,0,1,2.22,1.53q.42.36.87.78t1.35,1.32a16.61,16.61,0,0,0,3.21,2.67,5,5,0,0,0,2.49.69,2.34,2.34,0,0,0,1.68-.57,2.09,2.09,0,0,0,.6-1.59,2,2,0,0,0-.57-1.38,6.72,6.72,0,0,0-2-1.26q-.6-.3-1.92-.81l-1.74-.69L475,38.22a12.62,12.62,0,0,1-5.52-3.84,8.94,8.94,0,0,1-1.86-5.64,10,10,0,0,1,3.66-8.16,14.57,14.57,0,0,1,9.54-3,22.76,22.76,0,0,1,2.94.18q1.38.18,3.42.66,1.26.36,1.8.45a6.22,6.22,0,0,0,1,.09,1.79,1.79,0,0,0,.57-.09,5.77,5.77,0,0,0,1.17-.81,3.22,3.22,0,0,1,1.05-.57,3.92,3.92,0,0,1,1.11-.15,3.47,3.47,0,0,1,2.07.72,6.94,6.94,0,0,1,1.83,2.16,10.26,10.26,0,0,1,1.2,3,14.41,14.41,0,0,1,.42,3.45,6.25,6.25,0,0,1-.18,1.62,2.38,2.38,0,0,1-.6,1.08,3.94,3.94,0,0,1-1,.75,2.65,2.65,0,0,1-1.2.27,5.65,5.65,0,0,1-1.53-.21,4.4,4.4,0,0,1-1.35-.63,12.27,12.27,0,0,1-1-.72q-.54-.42-1.56-1.32a20.52,20.52,0,0,0-3.72-2.82,4.76,4.76,0,0,0-1.92-.42,2.29,2.29,0,0,0-1.65.6,2,2,0,0,0-.63,1.5,1.59,1.59,0,0,0,.6,1.2,6.7,6.7,0,0,0,2,1.08q.66.3,1.92.72t1.56.54l2.34.84q4.68,1.68,6.69,4.2a10,10,0,0,1,2,6.42,10.32,10.32,0,0,1-3.93,8.34,15.46,15.46,0,0,1-10.17,3.24q-1,0-2-.09t-2-.21q-1-.18-2.34-.48l-1.62-.36a4.09,4.09,0,0,0-.78-.15q-.36,0-.72,0a2.29,2.29,0,0,0-.66.09A3.6,3.6,0,0,0,475.22,52Z" transform="translate(-74.84 -1.62)"/><path class="cls-1" d="M538.7,52.44a5.59,5.59,0,0,1-1.5.42A15.91,15.91,0,0,1,535,53a12.06,12.06,0,0,1-2.58-.21,4.27,4.27,0,0,1-1.56-.69,6.38,6.38,0,0,1-1.23-1.41,33.69,33.69,0,0,1-2-3.81c-1-2-2.22-4.87-3.75-8.73s-2.77-7.17-3.69-9.93a7.12,7.12,0,0,0-.57-1.35,7.46,7.46,0,0,0-.81-1.11,5.14,5.14,0,0,0-.66-.66c-.24-.2-.57-.44-1-.72a3,3,0,0,1-1.17-1.23,3.81,3.81,0,0,1-.33-1.71,2.57,2.57,0,0,1,.72-1.8,4.21,4.21,0,0,1,2-1.14,27.44,27.44,0,0,1,4-.78,41.09,41.09,0,0,1,4.74-.24,38.69,38.69,0,0,1,4.68.24,17.76,17.76,0,0,1,3.36.72,3.93,3.93,0,0,1,1.86,1.17,3,3,0,0,1,.6,1.89,3.83,3.83,0,0,1-.27,1.56,3.5,3.5,0,0,1-1,1.2,12.41,12.41,0,0,0-1.05.87,4.84,4.84,0,0,0-.45.51,2,2,0,0,0-.36.63,1.79,1.79,0,0,0-.12.69,3,3,0,0,0,.09.51q.09.39.27,1,.48,1.44,1.38,3.63t2.4,5.37a1.35,1.35,0,0,0,.33.48.52.52,0,0,0,.33.12.66.66,0,0,0,.42-.15,1.57,1.57,0,0,0,.36-.63q.9-2.1,1.65-4.17T543,29.22a3.73,3.73,0,0,0,.15-.69q0-.33,0-.87a3.75,3.75,0,0,0-.15-1,2.58,2.58,0,0,0-.39-.78,10.36,10.36,0,0,0-.78-.81q-.36-.33-.72-.63a3,3,0,0,1-.93-1.17,4.06,4.06,0,0,1-.27-1.59,3.06,3.06,0,0,1,.6-1.92,4.13,4.13,0,0,1,1.86-1.26,13.56,13.56,0,0,1,3.12-.78,34.62,34.62,0,0,1,4.56-.24,35.53,35.53,0,0,1,4.44.24,13.85,13.85,0,0,1,3.12.72A2.86,2.86,0,0,1,559,19.53a3.44,3.44,0,0,1,.48,1.89,4.29,4.29,0,0,1-.27,1.62,2.9,2.9,0,0,1-1,1.2,6.17,6.17,0,0,0-.9.84,4,4,0,0,0-.6.9,1.94,1.94,0,0,0-.24.57,3.27,3.27,0,0,0-.06.69,2.62,2.62,0,0,0,.06.57,4.51,4.51,0,0,0,.18.63q.48,1.38,1.29,3.39t2.25,5.37a2,2,0,0,0,.33.51.44.44,0,0,0,.33.15.64.64,0,0,0,.42-.15,1.57,1.57,0,0,0,.36-.63c.55-1.16,1.09-2.44,1.59-3.84s1-2.8,1.35-4.2c.07-.32.14-.62.18-.9a7.91,7.91,0,0,0,.06-.84,3,3,0,0,0-.12-.84,3.47,3.47,0,0,0-.3-.72,5,5,0,0,0-.54-.66q-.31-.3-1.08-1a3.11,3.11,0,0,1-.93-1.14,3.83,3.83,0,0,1-.27-1.56,2.88,2.88,0,0,1,.69-2,4.86,4.86,0,0,1,2.25-1.26,13.05,13.05,0,0,1,2.46-.51,32.19,32.19,0,0,1,6.21,0,11.37,11.37,0,0,1,2.31.45,4.31,4.31,0,0,1,1.92,1.17,2.67,2.67,0,0,1,.66,1.83,3.39,3.39,0,0,1-.33,1.53,4.24,4.24,0,0,1-1.17,1.29,4.23,4.23,0,0,0-.81.75,5.41,5.41,0,0,0-.57.81c-.17.32-.35.72-.57,1.2s-.45,1-.69,1.68q-4,10.44-5.1,13t-2,4.59a34.19,34.19,0,0,1-2.19,4,7,7,0,0,1-1.77,1.83,5.63,5.63,0,0,1-1.89.87,9,9,0,0,1-2.25.27,11.32,11.32,0,0,1-2.76-.3,5.36,5.36,0,0,1-2-1,6.23,6.23,0,0,1-1.32-1.38,23.1,23.1,0,0,1-1.68-3.12c-.76-1.52-1.41-2.86-1.92-4s-.95-2.16-1.26-3a2.18,2.18,0,0,0-.33-.57.63.63,0,0,0-.45-.15.71.71,0,0,0-.48.15,2,2,0,0,0-.42.57c-.09.2-.18.42-.3.66s-.3.64-.54,1.2l-.9,2c-.24.54-.51,1.11-.78,1.71A29,29,0,0,1,541,50.43,6.33,6.33,0,0,1,538.7,52.44Z" transform="translate(-74.84 -1.62)"/><path class="cls-1" d="M590.36,52.68a39.22,39.22,0,0,1-4.71-.24,15.1,15.1,0,0,1-3.27-.72,3.05,3.05,0,0,1-1.38-1,2.68,2.68,0,0,1-.48-1.62,3,3,0,0,1,.39-1.56,4.67,4.67,0,0,1,1.29-1.32q.36-.3.63-.57a3,3,0,0,0,.45-.57,3.42,3.42,0,0,0,.36-1.08c.08-.44.13-1,.18-1.62q.06-2.22.09-3.69t0-2.79q0-1.68,0-2.85t-.15-2.13a3.48,3.48,0,0,0-.24-1A5.14,5.14,0,0,0,583,29a2.63,2.63,0,0,0-.6-.54,2,2,0,0,0-.78-.24,2.93,2.93,0,0,1-1.68-.87,2.54,2.54,0,0,1-.54-1.71,4.52,4.52,0,0,1,1.11-2.7,12.27,12.27,0,0,1,3-2.7,16.32,16.32,0,0,1,3.84-1.89,12.28,12.28,0,0,1,4-.69,8.52,8.52,0,0,1,2.85.42,4.16,4.16,0,0,1,1.89,1.32,6,6,0,0,1,1.32,2.61,16.38,16.38,0,0,1,.42,4q0,2.28,0,4.5c0,1.48-.06,3.24-.09,5.28,0,.72-.06,1.21-.06,1.47v3.3a11.82,11.82,0,0,0,.06,1.41,17.69,17.69,0,0,0,.15,2,2.48,2.48,0,0,0,.27.87,2,2,0,0,0,.33.42c.18.2.42.46.75.78a5.27,5.27,0,0,1,1.17,1.41,3.28,3.28,0,0,1,.27,1.41,2.74,2.74,0,0,1-.51,1.62,3.49,3.49,0,0,1-1.41,1.14,11.32,11.32,0,0,1-3.21.78A45.53,45.53,0,0,1,590.36,52.68Zm7.56-45q0,3.42-3.63,6a13.93,13.93,0,0,1-8.19,2.55,6.65,6.65,0,0,1-4.47-1.41A4.66,4.66,0,0,1,580,11q0-3.36,3.63-6a13.37,13.37,0,0,1,7.83-2.7,7.45,7.45,0,0,1,4.86,1.35A4.9,4.9,0,0,1,597.92,7.68Z" transform="translate(-74.84 -1.62)"/><path class="cls-1" d="M613.4,52.68c-1.69,0-3,0-4-.12a23.49,23.49,0,0,1-2.93-.42,4.55,4.55,0,0,1-2.35-1,2.5,2.5,0,0,1-.77-1.89,3.28,3.28,0,0,1,.35-1.59A4.27,4.27,0,0,1,605,46.32a7,7,0,0,0,.72-.6,1.88,1.88,0,0,0,.36-.48,3.68,3.68,0,0,0,.37-1.08c.07-.44.13-1,.17-1.62q.06-1.68.09-5.37t0-7.77q0-5.28,0-8.55t-.09-4.17a8.19,8.19,0,0,0-.29-2,2.65,2.65,0,0,0-.73-1.14,2.93,2.93,0,0,0-.6-.45,3.14,3.14,0,0,0-.9-.33,3.55,3.55,0,0,1-2-1,2.78,2.78,0,0,1-.59-1.89,3.31,3.31,0,0,1,.92-2.16,8.83,8.83,0,0,1,2.67-2,20.21,20.21,0,0,1,4.44-1.62,20,20,0,0,1,4.74-.6,9,9,0,0,1,2.44.3,4.89,4.89,0,0,1,1.82,1,5.74,5.74,0,0,1,1.62,2.7,15.27,15.27,0,0,1,.54,4.44c0,1.4,0,2.82,0,4.26s-.06,3.44-.1,6c0,2.4,0,4.24,0,5.52s0,2.52,0,3.72v8.37q0,1.77.06,2.37c0,.72.1,1.32.15,1.8a3.46,3.46,0,0,0,.28,1.08,2.16,2.16,0,0,0,.44.63,8.4,8.4,0,0,0,.75.63,3.86,3.86,0,0,1,1.06,1.14,3.35,3.35,0,0,1,.32,1.56,2.64,2.64,0,0,1-.84,1.92,4.45,4.45,0,0,1-2.34,1.14,22.84,22.84,0,0,1-3.09.48C616.34,52.64,615,52.68,613.4,52.68Z" transform="translate(-74.84 -1.62)"/><path class="cls-1" d="M636.56,52.68c-1.69,0-3,0-4-.12a23.49,23.49,0,0,1-2.93-.42,4.55,4.55,0,0,1-2.35-1,2.5,2.5,0,0,1-.77-1.89,3.28,3.28,0,0,1,.35-1.59,4.27,4.27,0,0,1,1.32-1.29,7,7,0,0,0,.72-.6,1.88,1.88,0,0,0,.36-.48,3.68,3.68,0,0,0,.37-1.08c.07-.44.13-1,.17-1.62q.06-1.68.09-5.37c0-2.46,0-5.05,0-7.77,0-3.52,0-6.37,0-8.55s-.05-3.57-.09-4.17a8.19,8.19,0,0,0-.29-2,2.56,2.56,0,0,0-.73-1.14,2.68,2.68,0,0,0-.6-.45,3.14,3.14,0,0,0-.9-.33,3.55,3.55,0,0,1-2-1,2.78,2.78,0,0,1-.59-1.89,3.28,3.28,0,0,1,.93-2.16,8.65,8.65,0,0,1,2.66-2,21.26,21.26,0,0,1,9.18-2.22,9,9,0,0,1,2.44.3,4.89,4.89,0,0,1,1.82,1,5.66,5.66,0,0,1,1.62,2.7,15.27,15.27,0,0,1,.54,4.44c0,1.4,0,2.82,0,4.26s-.06,3.44-.1,6c0,2.4,0,4.24,0,5.52s0,2.52,0,3.72v8.37q0,1.77.06,2.37c0,.72.1,1.32.15,1.8a3.46,3.46,0,0,0,.28,1.08,2.16,2.16,0,0,0,.44.63,8.4,8.4,0,0,0,.75.63,3.73,3.73,0,0,1,1.06,1.14,3.35,3.35,0,0,1,.32,1.56,2.64,2.64,0,0,1-.84,1.92,4.45,4.45,0,0,1-2.34,1.14,22.84,22.84,0,0,1-3.09.48C639.5,52.64,638.19,52.68,636.56,52.68Z" transform="translate(-74.84 -1.62)"/><path class="cls-1" d="M699.73,35.22q0,8.82-3.15,13.17t-9.51,4.35a10.76,10.76,0,0,1-5-1.2A12.59,12.59,0,0,1,678,48.06a1.41,1.41,0,0,0-.38-.36,1,1,0,0,0-.46-.12,1.06,1.06,0,0,0-.51.15,5.34,5.34,0,0,0-.81.63q-.78.6-1.53,1.23l-1.53,1.29a8.78,8.78,0,0,1-2.52,1.53,7.28,7.28,0,0,1-2.64.51,4.29,4.29,0,0,1-2.85-.93,3.08,3.08,0,0,1-1.11-2.49q0-.3,0-.69t0-1.35q.18-2,.21-3.54t0-3.18V18.45a18.79,18.79,0,0,0-.06-1.89,10.15,10.15,0,0,0-.21-1.71,3,3,0,0,0-.45-1,2.43,2.43,0,0,0-.69-.66,3.79,3.79,0,0,0-1.11-.48,4,4,0,0,1-2-1,2.62,2.62,0,0,1-.6-1.8A3.41,3.41,0,0,1,660,7.41a12,12,0,0,1,3.54-2.19A20.69,20.69,0,0,1,667.39,4a19.19,19.19,0,0,1,4-.45,7.34,7.34,0,0,1,2.7.45,6.17,6.17,0,0,1,2.1,1.41,5.33,5.33,0,0,1,1.17,2.37,12.6,12.6,0,0,1,.45,3.33v2.82q-.06,2.28-.06,3.66v6.36a.85.85,0,0,0,.12.48.4.4,0,0,0,.36.18.52.52,0,0,0,.33-.12,1,1,0,0,0,.27-.42,12.63,12.63,0,0,1,4-4.95,9.27,9.27,0,0,1,5.43-1.65,9.5,9.5,0,0,1,8.43,4.74Q699.73,26.94,699.73,35.22Zm-22,5.94a3,3,0,0,0,.84,2.25,3.15,3.15,0,0,0,2.28.81,3.66,3.66,0,0,0,3.27-1.89,10,10,0,0,0,1.17-5.25A14.25,14.25,0,0,0,684,30.45,3.87,3.87,0,0,0,680.59,28a2.51,2.51,0,0,0-2.13.9,4.52,4.52,0,0,0-.69,2.76v9.48Z" transform="translate(-74.84 -1.62)"/><path class="cls-1" d="M737.71,44.1a15.24,15.24,0,0,1-6.15,6.66,19.27,19.27,0,0,1-9.51,2.16q-8.7,0-13.65-4.59t-4.95-12.57a16.93,16.93,0,0,1,5.67-13.2q5.67-5.1,14.49-5.1,6.84,0,11.1,3.81a12.76,12.76,0,0,1,4.26,10,5.08,5.08,0,0,1-1.77,4.23,8.53,8.53,0,0,1-5.37,1.41H720.07a1.93,1.93,0,0,0-1.17.33,1,1,0,0,0-.45.87q0,2,2.31,3.24a12.5,12.5,0,0,0,9.39.63,9.93,9.93,0,0,0,3.3-1.95,7.27,7.27,0,0,1,1.38-1,2.46,2.46,0,0,1,1.08-.3,2.65,2.65,0,0,1,1.86.72,2.28,2.28,0,0,1,.78,1.74,4.33,4.33,0,0,1-.21,1.32A13.4,13.4,0,0,1,737.71,44.1ZM717,30.18a2.25,2.25,0,0,0,.36,1.41,1.45,1.45,0,0,0,1.2.45h4.2a3.65,3.65,0,0,0,2.07-.45,1.61,1.61,0,0,0,.63-1.41,3.28,3.28,0,0,0-1.17-2.58,4.53,4.53,0,0,0-3.09-1,4.44,4.44,0,0,0-3,1A3.28,3.28,0,0,0,717,30.18Z" transform="translate(-74.84 -1.62)"/><path class="cls-1" d="M216.5,116.28a16,16,0,0,1-6.54,6.45,20.64,20.64,0,0,1-9.78,2.19q-7.8,0-12.66-4.83a16.87,16.87,0,0,1-4.86-12.51q0-8.1,4.89-13.11a16.8,16.8,0,0,1,12.57-5,22.12,22.12,0,0,1,2.67.15,24.29,24.29,0,0,1,3.51.81,7.77,7.77,0,0,0,1,.27,5.2,5.2,0,0,0,1,.09,2.74,2.74,0,0,0,.81-.12,3.84,3.84,0,0,0,1-.54,5,5,0,0,1,1.2-.63,3.4,3.4,0,0,1,1-.15,2.81,2.81,0,0,1,1.62.54,5.94,5.94,0,0,1,1.5,1.62,12,12,0,0,1,1.11,2.16,15.39,15.39,0,0,1,.81,2.76q.3,1.38.48,2.82a22.73,22.73,0,0,1,.18,2.82,5.46,5.46,0,0,1-.33,2,4.29,4.29,0,0,1-1,1.53,4.11,4.11,0,0,1-1.47.93,5.46,5.46,0,0,1-2,.33,4.25,4.25,0,0,1-2.16-.63,17.44,17.44,0,0,1-3.12-2.73,18.38,18.38,0,0,0-3.93-3.3,6.5,6.5,0,0,0-3.09-.78,4.29,4.29,0,0,0-3.21,1.26,4.6,4.6,0,0,0-1.23,3.36,9,9,0,0,0,3,6.72,10.28,10.28,0,0,0,7.35,2.88,11.1,11.1,0,0,0,3.12-.42,7.43,7.43,0,0,0,2.46-1.2,9.45,9.45,0,0,1,1.41-.9,2.32,2.32,0,0,1,1-.24,2.65,2.65,0,0,1,1.86.72,2.28,2.28,0,0,1,.78,1.74,4.48,4.48,0,0,1-.24,1.35A8,8,0,0,1,216.5,116.28Z" transform="translate(-74.84 -1.62)"/><path class="cls-1" d="M259.22,107q0,8.4-5.28,13.14t-14.52,4.74q-8.64,0-13.68-4.62t-5-12.6q0-8.28,5.49-13.26t14.25-5q8.34,0,13.56,4.83T259.22,107Zm-25-2.76a11.77,11.77,0,0,0,2.58,7.2q2.58,3.42,5.46,3.42a3.43,3.43,0,0,0,2.79-1.11,5.09,5.09,0,0,0,.93-3.33,12,12,0,0,0-2.55-7.23q-2.55-3.45-5.49-3.45a3.35,3.35,0,0,0-2.73,1.2A5,5,0,0,0,234.2,104.28Z" transform="translate(-74.84 -1.62)"/><path class="cls-1" d="M279.92,96.3A17.23,17.23,0,0,1,285,90.84a11,11,0,0,1,5.61-1.38A8.88,8.88,0,0,1,296,91.08a11,11,0,0,1,3.51,5,1.43,1.43,0,0,0,.33.57.63.63,0,0,0,.45.21.45.45,0,0,0,.27-.12,2.27,2.27,0,0,0,.39-.48,16.84,16.84,0,0,1,5.07-5.43,11.09,11.09,0,0,1,5.67-1.41,8.86,8.86,0,0,1,3.9.84,8.4,8.4,0,0,1,3,2.46A10.66,10.66,0,0,1,320.27,96a17.22,17.22,0,0,1,.75,4.47q.12,2.82.18,4.26t.06,2.7v4.26q0,1.32.06,2.28a18.23,18.23,0,0,0,.15,2.22,2.86,2.86,0,0,0,.21.66,2.48,2.48,0,0,0,.33.42q.27.3.75.78a5.94,5.94,0,0,1,1.2,1.5,3.24,3.24,0,0,1,.24,1.32,2.6,2.6,0,0,1-.51,1.59,3.54,3.54,0,0,1-1.47,1.11,11,11,0,0,1-3.09.84,34.28,34.28,0,0,1-4.47.24,37.68,37.68,0,0,1-5-.27,10.81,10.81,0,0,1-3.06-.81,2.93,2.93,0,0,1-1.17-1.08A2.89,2.89,0,0,1,305,121a3.31,3.31,0,0,1,.33-1.5,3.39,3.39,0,0,1,.93-1.14,2.09,2.09,0,0,0,.45-.48,4,4,0,0,0,.39-.72,5.31,5.31,0,0,0,.27-1.14q.09-.66.15-1.62.06-.72.06-1.86v-3.9a26.94,26.94,0,0,0-.3-4.65,4.75,4.75,0,0,0-1-2.37,3.7,3.7,0,0,0-1.35-1,4.37,4.37,0,0,0-1.77-.33,3.82,3.82,0,0,0-1.77.36,1.85,1.85,0,0,0-.93,1,5.32,5.32,0,0,0-.27,1.47q-.09,1-.09,6.81,0,.84,0,2.16a17.59,17.59,0,0,0,0,1.92,11.78,11.78,0,0,0,.21,1.56,5.4,5.4,0,0,0,.45,1.32,4,4,0,0,0,.36.6,6,6,0,0,0,.54.6,3.66,3.66,0,0,1,.84,1.2,4.46,4.46,0,0,1,.24,1.62,2.85,2.85,0,0,1-.45,1.59,3.14,3.14,0,0,1-1.35,1.11,10,10,0,0,1-3,.81,36.67,36.67,0,0,1-4.89.27,33.57,33.57,0,0,1-4.44-.24,12.78,12.78,0,0,1-3.18-.84,2.89,2.89,0,0,1-1.29-1,2.7,2.7,0,0,1-.45-1.56,3,3,0,0,1,.3-1.38,4.22,4.22,0,0,1,1.08-1.26,6.2,6.2,0,0,0,.51-.57,2.1,2.1,0,0,0,.33-.63,4.18,4.18,0,0,0,.27-1,17.49,17.49,0,0,0,.15-1.8q.06-.72.06-1.86v-3.9A26.94,26.94,0,0,0,286,104a4.75,4.75,0,0,0-1-2.37,3.7,3.7,0,0,0-1.35-1,4.37,4.37,0,0,0-1.77-.33,3.82,3.82,0,0,0-1.77.36,1.85,1.85,0,0,0-.93,1,5.32,5.32,0,0,0-.27,1.47q-.09,1-.09,6.81v3.21q0,.87.06,1.59.06.9.15,1.5a3.26,3.26,0,0,0,.27,1,2.46,2.46,0,0,0,.39.63,5.6,5.6,0,0,0,.69.69,2.69,2.69,0,0,1,.72,1,3.3,3.3,0,0,1,.24,1.29,2.69,2.69,0,0,1-.54,1.71,4.08,4.08,0,0,1-1.74,1.17,13.7,13.7,0,0,1-3.06.78,30,30,0,0,1-4.14.24,40.91,40.91,0,0,1-4.77-.24,15.18,15.18,0,0,1-3.33-.72,3.05,3.05,0,0,1-1.38-1,2.68,2.68,0,0,1-.48-1.62,3,3,0,0,1,.39-1.56,4.67,4.67,0,0,1,1.29-1.32q.36-.3.63-.57a3,3,0,0,0,.45-.57A3.42,3.42,0,0,0,265,116a14.22,14.22,0,0,0,.18-1.62q.06-2.22.09-3.69t0-2.79q0-2.52,0-3.42a10.87,10.87,0,0,0-.15-1.56,5.8,5.8,0,0,0-.3-1.23,2.2,2.2,0,0,0-.48-.75,2.48,2.48,0,0,0-.57-.42,2.2,2.2,0,0,0-.75-.24,2.93,2.93,0,0,1-1.68-.87,2.54,2.54,0,0,1-.54-1.71,4.63,4.63,0,0,1,1.26-2.85,14.48,14.48,0,0,1,3.42-2.91,14.1,14.1,0,0,1,3.57-1.65,12.75,12.75,0,0,1,3.69-.57,7,7,0,0,1,2.34.36,4.41,4.41,0,0,1,1.68,1,6.15,6.15,0,0,1,1,1.35,7.41,7.41,0,0,1,.66,1.59,5.88,5.88,0,0,1,.18,1,10.33,10.33,0,0,1,.06,1.14,1,1,0,0,0,.15.57.46.46,0,0,0,.39.21.45.45,0,0,0,.27-.12A2.27,2.27,0,0,0,279.92,96.3Z" transform="translate(-74.84 -1.62)"/><path class="cls-1" d="M336.86,124.68a39.34,39.34,0,0,1-4.71-.24,15.1,15.1,0,0,1-3.27-.72,3.05,3.05,0,0,1-1.38-1,2.68,2.68,0,0,1-.48-1.62,3,3,0,0,1,.39-1.56,4.67,4.67,0,0,1,1.29-1.32q.36-.3.63-.57a3,3,0,0,0,.45-.57,3.42,3.42,0,0,0,.36-1.08,14.22,14.22,0,0,0,.18-1.62q.06-2.22.09-3.69t0-2.79q0-1.68,0-2.85t-.15-2.13a3.48,3.48,0,0,0-.24-1,4.5,4.5,0,0,0-.48-.84,2.44,2.44,0,0,0-.6-.54,2,2,0,0,0-.78-.24,2.93,2.93,0,0,1-1.68-.87,2.54,2.54,0,0,1-.54-1.71,4.52,4.52,0,0,1,1.11-2.7,12.27,12.27,0,0,1,3-2.7,16.32,16.32,0,0,1,3.84-1.89,12.33,12.33,0,0,1,4-.69,8.48,8.48,0,0,1,2.85.42,4.16,4.16,0,0,1,1.89,1.32,5.85,5.85,0,0,1,1.32,2.61,16.38,16.38,0,0,1,.42,4q0,2.28,0,4.5t-.09,5.28q-.06,1.08-.06,1.47v3.3q0,.81.06,1.41.06,1.44.15,2a2,2,0,0,0,.6,1.29q.27.3.75.78a5.27,5.27,0,0,1,1.17,1.41,3.28,3.28,0,0,1,.27,1.41,2.74,2.74,0,0,1-.51,1.62,3.49,3.49,0,0,1-1.41,1.14,11.23,11.23,0,0,1-3.21.78A45.41,45.41,0,0,1,336.86,124.68Zm7.56-45q0,3.42-3.63,6a13.91,13.91,0,0,1-8.19,2.55,6.65,6.65,0,0,1-4.47-1.41A4.69,4.69,0,0,1,326.48,83q0-3.36,3.63-6a13.39,13.39,0,0,1,7.83-2.7,7.45,7.45,0,0,1,4.86,1.35A4.9,4.9,0,0,1,344.42,79.68Z" transform="translate(-74.84 -1.62)"/><path class="cls-1" d="M359.6,124.68a37.38,37.38,0,0,1-4.56-.24,15.06,15.06,0,0,1-3.24-.72,3.05,3.05,0,0,1-1.38-1,2.68,2.68,0,0,1-.48-1.62,3,3,0,0,1,.39-1.56,4.67,4.67,0,0,1,1.29-1.32q.36-.3.63-.57a3,3,0,0,0,.45-.57,3.42,3.42,0,0,0,.36-1.08,14.22,14.22,0,0,0,.18-1.62q.06-2.22.09-3.69t0-2.79q0-2.52,0-3.42a10.87,10.87,0,0,0-.15-1.56,5.8,5.8,0,0,0-.3-1.23,2.2,2.2,0,0,0-.48-.75,2.48,2.48,0,0,0-.57-.42,2.2,2.2,0,0,0-.75-.24,2.93,2.93,0,0,1-1.68-.87,2.54,2.54,0,0,1-.54-1.71,4.63,4.63,0,0,1,1.26-2.85,14.48,14.48,0,0,1,3.42-2.91,14.1,14.1,0,0,1,3.57-1.65,12.75,12.75,0,0,1,3.69-.57,7.76,7.76,0,0,1,2.46.36,4.36,4.36,0,0,1,1.74,1,6.15,6.15,0,0,1,1,1.35,7.41,7.41,0,0,1,.66,1.59,5.88,5.88,0,0,1,.18,1,10.33,10.33,0,0,1,.06,1.14,1,1,0,0,0,.15.57.46.46,0,0,0,.39.21.45.45,0,0,0,.27-.12,2.27,2.27,0,0,0,.39-.48,17,17,0,0,1,5.07-5.37A11.18,11.18,0,0,1,379,89.46q4.62,0,7,2.73t2.67,8.25q.12,1.92.15,3.72t0,3.42q-.06,1.8-.06,3.42t.06,3a18.23,18.23,0,0,0,.15,2.22,2.86,2.86,0,0,0,.21.66,2.48,2.48,0,0,0,.33.42q.27.3.75.78a5.94,5.94,0,0,1,1.2,1.5,3.24,3.24,0,0,1,.24,1.32,2.74,2.74,0,0,1-.51,1.62,3.49,3.49,0,0,1-1.41,1.14,11.11,11.11,0,0,1-3.15.78,41.84,41.84,0,0,1-4.95.24,45.51,45.51,0,0,1-5.22-.21,8.16,8.16,0,0,1-2.76-.81,3.31,3.31,0,0,1-1.23-1.11A2.74,2.74,0,0,1,372,121a3.71,3.71,0,0,1,.27-1.47,3.13,3.13,0,0,1,.93-1.17,4.69,4.69,0,0,0,.63-.63,5.36,5.36,0,0,0,.45-.63,3.42,3.42,0,0,0,.36-1.08,14.22,14.22,0,0,0,.18-1.62q.06-.72.06-1.86v-3.9a23.32,23.32,0,0,0-.36-4.56,5.76,5.76,0,0,0-1.08-2.58,3.7,3.7,0,0,0-1.35-1,4.21,4.21,0,0,0-1.71-.33,4.32,4.32,0,0,0-1.92.36,1.83,1.83,0,0,0-1,1,5.44,5.44,0,0,0-.27,1.5q-.09,1.08-.09,6.9v3.21q0,.87.06,1.59.06,1,.15,1.56a4.23,4.23,0,0,0,.21.84,1.86,1.86,0,0,0,.39.66,6.1,6.1,0,0,0,.63.6,2.66,2.66,0,0,1,.81,1,3.33,3.33,0,0,1,.27,1.38,2.77,2.77,0,0,1-.51,1.74,3.6,3.6,0,0,1-1.65,1.08,20.06,20.06,0,0,1-3.51.81A31.58,31.58,0,0,1,359.6,124.68Z" transform="translate(-74.84 -1.62)"/><path class="cls-1" d="M431,125.58q0,6.42-6.45,10.14t-18.15,3.72q-7.38,0-10.71-1.38t-3.33-4.44a4.67,4.67,0,0,1,1.38-3.39,18.22,18.22,0,0,1,5.28-3.15.93.93,0,0,0,.39-.24.6.6,0,0,0,.09-.36.32.32,0,0,0-.12-.27,1.05,1.05,0,0,0-.3-.15,8.62,8.62,0,0,1-3.6-1.71,3.47,3.47,0,0,1-1.14-2.67,4.62,4.62,0,0,1,1.5-3.51,20.09,20.09,0,0,1,5.94-3.15,1.11,1.11,0,0,0,.51-.3.73.73,0,0,0,.15-.48.64.64,0,0,0-.15-.42,1.77,1.77,0,0,0-.45-.36A14.38,14.38,0,0,1,396,108.9a10.91,10.91,0,0,1-1.89-6.42A11.36,11.36,0,0,1,398.69,93c3.06-2.36,7.08-3.54,12.09-3.54q.66,0,1.29,0t1.53.15a7.88,7.88,0,0,1,.84,0,3.87,3.87,0,0,0,.48,0,1.16,1.16,0,0,0,1.11-.48,4.69,4.69,0,0,0,.27-2,4.18,4.18,0,0,1,1.59-3.36A6.22,6.22,0,0,1,422,82.56a9.54,9.54,0,0,1,5.76,1.62,5,5,0,0,1,2.22,4.2,3.23,3.23,0,0,1-1,2.46,3.63,3.63,0,0,1-2.58,1h-1.8a1.31,1.31,0,0,0-.81.21.75.75,0,0,0-.27.63,1.38,1.38,0,0,0,.33.75,20.74,20.74,0,0,0,1.65,1.77,10.21,10.21,0,0,1,2.19,3.3,11.56,11.56,0,0,1-4,13.2q-4.65,3.3-13.17,3.3a5.84,5.84,0,0,0-2.22.3,1,1,0,0,0-.66,1,1,1,0,0,0,.69,1,8.6,8.6,0,0,0,2.67.27h7.68q6,0,9.15,2.1A6.79,6.79,0,0,1,431,125.58Zm-24.3,3.3q0,1,1.44,1.41a16.37,16.37,0,0,0,4.5.45,15.53,15.53,0,0,0,4.5-.54q1.74-.54,1.74-1.32a1.17,1.17,0,0,0-.93-1.11,10.2,10.2,0,0,0-3.09-.33h-5.64a3.68,3.68,0,0,0-1.86.39A1.18,1.18,0,0,0,406.7,128.88Zm.6-28.5a7.36,7.36,0,0,0,1.56,4.53,4.35,4.35,0,0,0,3.42,2.07,3.38,3.38,0,0,0,2.31-.72,2.59,2.59,0,0,0,.81-2,7.48,7.48,0,0,0-1.59-4.62,4.54,4.54,0,0,0-3.63-2.1,2.82,2.82,0,0,0-2.13.78A2.9,2.9,0,0,0,407.3,100.38Z" transform="translate(-74.84 -1.62)"/><path class="cls-1" d="M454.4,124a4.84,4.84,0,0,1-1.08.54,3.39,3.39,0,0,1-.91.12,3.67,3.67,0,0,1-1.47-.33,4.65,4.65,0,0,1-1.41-1,9.39,9.39,0,0,1-1.31-1.68,10.36,10.36,0,0,1-1-2.22,12,12,0,0,1-.54-2.22,17.93,17.93,0,0,1-.17-2.64,5,5,0,0,1,.84-3.06,2.6,2.6,0,0,1,2.21-1.14,3.84,3.84,0,0,1,1.62.39,11.42,11.42,0,0,1,2.22,1.53q.42.36.87.78c.3.28.75.72,1.36,1.32a16,16,0,0,0,3.21,2.67,5,5,0,0,0,2.48.69,2.37,2.37,0,0,0,1.69-.57,2.12,2.12,0,0,0,.59-1.59,2,2,0,0,0-.56-1.38,6.93,6.93,0,0,0-2-1.26q-.6-.3-1.92-.81l-1.74-.69-3.11-1.26a12.6,12.6,0,0,1-5.53-3.84,8.94,8.94,0,0,1-1.86-5.64,10,10,0,0,1,3.66-8.16,14.57,14.57,0,0,1,9.54-3,23,23,0,0,1,3,.18c.92.12,2,.34,3.42.66a18.16,18.16,0,0,0,1.79.45,6.33,6.33,0,0,0,1,.09,1.73,1.73,0,0,0,.56-.09,5.25,5.25,0,0,0,1.17-.81,3.25,3.25,0,0,1,1.06-.57,3.8,3.8,0,0,1,1.1-.15,3.52,3.52,0,0,1,2.08.72A7.07,7.07,0,0,1,477,92.22a10.54,10.54,0,0,1,1.2,3,14.94,14.94,0,0,1,.42,3.45,6.21,6.21,0,0,1-.19,1.62,2.46,2.46,0,0,1-.59,1.08,4.16,4.16,0,0,1-1,.75,2.6,2.6,0,0,1-1.19.27,5.59,5.59,0,0,1-1.53-.21,4.2,4.2,0,0,1-1.35-.63,12.32,12.32,0,0,1-1-.72c-.36-.28-.87-.72-1.55-1.32a20.82,20.82,0,0,0-3.73-2.82,4.72,4.72,0,0,0-1.92-.42,2.27,2.27,0,0,0-1.64.6,2,2,0,0,0-.63,1.5,1.56,1.56,0,0,0,.6,1.2,6.49,6.49,0,0,0,2,1.08,20.24,20.24,0,0,0,1.93.72c.84.28,1.35.46,1.56.54l2.33.84a14.82,14.82,0,0,1,6.7,4.2,10,10,0,0,1,2,6.42,10.35,10.35,0,0,1-3.93,8.34,15.5,15.5,0,0,1-10.17,3.24c-.69,0-1.36,0-2-.09s-1.35-.13-2-.21-1.46-.28-2.33-.48l-1.63-.36a4.09,4.09,0,0,0-.78-.15q-.35,0-.72,0a2.34,2.34,0,0,0-.66.09A3.32,3.32,0,0,0,454.4,124Z" transform="translate(-74.84 -1.62)"/><path class="cls-1" d="M520.69,107q0,8.4-5.28,13.14t-14.52,4.74q-8.64,0-13.68-4.62t-5-12.6q0-8.28,5.49-13.26t14.25-5q8.34,0,13.56,4.83T520.69,107Zm-25-2.76a11.77,11.77,0,0,0,2.58,7.2q2.58,3.42,5.46,3.42a3.43,3.43,0,0,0,2.79-1.11,5.09,5.09,0,0,0,.93-3.33,12,12,0,0,0-2.55-7.23q-2.55-3.45-5.49-3.45a3.35,3.35,0,0,0-2.73,1.2A5,5,0,0,0,495.67,104.28Z" transform="translate(-74.84 -1.62)"/><path class="cls-1" d="M562.87,107q0,8.4-5.28,13.14t-14.52,4.74q-8.64,0-13.68-4.62t-5-12.6q0-8.28,5.49-13.26t14.25-5q8.34,0,13.56,4.83T562.87,107Zm-25-2.76a11.77,11.77,0,0,0,2.58,7.2q2.58,3.42,5.46,3.42a3.43,3.43,0,0,0,2.79-1.11,5.09,5.09,0,0,0,.93-3.33,12,12,0,0,0-2.55-7.23q-2.55-3.45-5.49-3.45a3.35,3.35,0,0,0-2.73,1.2A5,5,0,0,0,537.85,104.28Z" transform="translate(-74.84 -1.62)"/><path class="cls-1" d="M575.23,124.68a37.38,37.38,0,0,1-4.56-.24,15.06,15.06,0,0,1-3.24-.72,3.05,3.05,0,0,1-1.38-1,2.68,2.68,0,0,1-.48-1.62,3,3,0,0,1,.39-1.56,4.67,4.67,0,0,1,1.29-1.32q.36-.3.63-.57a3,3,0,0,0,.45-.57,3.42,3.42,0,0,0,.36-1.08,14.22,14.22,0,0,0,.18-1.62q.06-2.22.09-3.69t0-2.79q0-2.52,0-3.42a10.87,10.87,0,0,0-.15-1.56,5.8,5.8,0,0,0-.3-1.23,2.2,2.2,0,0,0-.48-.75,2.48,2.48,0,0,0-.57-.42,2.2,2.2,0,0,0-.75-.24,2.93,2.93,0,0,1-1.68-.87,2.54,2.54,0,0,1-.54-1.71,4.63,4.63,0,0,1,1.26-2.85,14.48,14.48,0,0,1,3.42-2.91,14.1,14.1,0,0,1,3.57-1.65,12.75,12.75,0,0,1,3.69-.57,7.76,7.76,0,0,1,2.46.36,4.36,4.36,0,0,1,1.74,1,6.15,6.15,0,0,1,1,1.35,7.41,7.41,0,0,1,.66,1.59,5.88,5.88,0,0,1,.18,1,10.33,10.33,0,0,1,.06,1.14,1,1,0,0,0,.15.57.46.46,0,0,0,.39.21.45.45,0,0,0,.27-.12,2.27,2.27,0,0,0,.39-.48,17,17,0,0,1,5.07-5.37,11.18,11.18,0,0,1,5.79-1.47q4.62,0,7,2.73t2.67,8.25q.12,1.92.15,3.72t0,3.42q-.06,1.8-.06,3.42t.06,3a18.23,18.23,0,0,0,.15,2.22,2.86,2.86,0,0,0,.21.66,2.48,2.48,0,0,0,.33.42q.27.3.75.78a5.94,5.94,0,0,1,1.2,1.5,3.24,3.24,0,0,1,.24,1.32,2.74,2.74,0,0,1-.51,1.62,3.49,3.49,0,0,1-1.41,1.14,11.11,11.11,0,0,1-3.15.78,41.84,41.84,0,0,1-5,.24,45.51,45.51,0,0,1-5.22-.21,8.16,8.16,0,0,1-2.76-.81,3.31,3.31,0,0,1-1.23-1.11,2.74,2.74,0,0,1-.45-1.53,3.71,3.71,0,0,1,.27-1.47,3.13,3.13,0,0,1,.93-1.17,4.69,4.69,0,0,0,.63-.63,5.36,5.36,0,0,0,.45-.63,3.42,3.42,0,0,0,.36-1.08,14.22,14.22,0,0,0,.18-1.62q.06-.72.06-1.86v-3.9a23.32,23.32,0,0,0-.36-4.56,5.76,5.76,0,0,0-1.08-2.58,3.7,3.7,0,0,0-1.35-1,4.21,4.21,0,0,0-1.71-.33,4.32,4.32,0,0,0-1.92.36,1.83,1.83,0,0,0-1,1,5.44,5.44,0,0,0-.27,1.5q-.09,1.08-.09,6.9v3.21q0,.87.06,1.59.06,1,.15,1.56a4.23,4.23,0,0,0,.21.84,1.86,1.86,0,0,0,.39.66,6.1,6.1,0,0,0,.63.6,2.66,2.66,0,0,1,.81,1,3.33,3.33,0,0,1,.27,1.38,2.77,2.77,0,0,1-.51,1.74,3.6,3.6,0,0,1-1.65,1.08,20.06,20.06,0,0,1-3.51.81A31.58,31.58,0,0,1,575.23,124.68Z" transform="translate(-74.84 -1.62)"/><path class="cls-1" d="M630,115.86a8.75,8.75,0,0,1-3,6.72,10.45,10.45,0,0,1-7.29,2.76,8.86,8.86,0,0,1-6-1.92,6.31,6.31,0,0,1-2.16-5.16,9.17,9.17,0,0,1,3.12-6.72,10.39,10.39,0,0,1,7.2-2.94,8.29,8.29,0,0,1,5.85,2A6.72,6.72,0,0,1,630,115.86Zm-7.62-10.62a2.32,2.32,0,0,1-.69.66,1.78,1.78,0,0,1-1.62,0,2.68,2.68,0,0,1-.75-.63q-2.4-2.7-5-9t-2.55-10.29a8.19,8.19,0,0,1,2.7-6.54q2.7-2.34,7.68-2.34a8,8,0,0,1,5.7,1.83,7.16,7.16,0,0,1,1.92,5.43,32.64,32.64,0,0,1-2.31,11.34A33.72,33.72,0,0,1,622.39,105.24Z" transform="translate(-74.84 -1.62)"/></g></g></svg>