<svg xmlns="http://www.w3.org/2000/svg" viewBox="0 0 2469.1 1566"><defs><style>.cls-1{fill:#649f3d;}</style></defs><g id="Layer_2" data-name="Layer 2"><g id="Layer_20_copy" data-name="Layer 20 copy"><path class="cls-1" d="M2385.37,0h-11.73V7.43h11.73V0Zm-23.46,0h-11.73V7.43h11.73V0Zm-23.46,0h-11.73V7.43h11.73V0ZM2315,0h-11.73V7.43H2315V0Zm-23.46,0H2279.8V7.43h11.73V0Zm-23.46,0h-11.72V7.43h11.72V0Zm-23.45,0h-11.73V7.43h11.73V0Zm-23.46,0h-11.73V7.43h11.73V0ZM2197.7,0H2186V7.43h11.73V0Zm-23.46,0h-11.73V7.43h11.73V0Zm-23.46,0h-11.73V7.43h11.73V0Zm-23.46,0H2115.6V7.43h11.72V0Zm-23.45,0h-11.73V7.43h11.73V0Zm-23.46,0h-11.73V7.43h11.73V0ZM2057,0h-11.73V7.43H2057V0Zm-23.46,0h-11.73V7.43h11.73V0ZM2010,0H1998.3V7.43H2010V0Zm-23.46,0h-11.72V7.43h11.72V0Zm-23.45,0h-11.73V7.43h11.73V0Zm-23.46,0h-11.73V7.43h11.73V0ZM1916.2,0h-11.73V7.43h11.73V0Zm-23.46,0H1881V7.43h11.73V0Zm-23.46,0h-11.73V7.43h11.73V0Zm-23.45,0H1834.1V7.43h11.73V0Zm-23.46,0h-11.73V7.43h11.73V0Zm-23.46,0h-11.73V7.43h11.73V0Zm-23.46,0h-11.73V7.43h11.73V0ZM1752,0h-11.73V7.43H1752V0Zm-23.46,0H1716.8V7.43h11.73V0Zm-23.45,0h-11.73V7.43h11.73V0Zm-23.46,0h-11.73V7.43h11.73V0Zm-23.46,0h-11.73V7.43h11.73V0ZM1634.7,0H1623V7.43h11.73V0Zm-23.46,0h-11.73V7.43h11.73V0Zm-23.46,0h-11.72V7.43h11.72V0Zm-23.45,0H1552.6V7.43h11.73V0Zm-23.46,0h-11.73V7.43h11.73V0Zm-23.46,0h-11.73V7.43h11.73V0ZM1494,0h-11.73V7.43H1494V0Zm-23.46,0h-11.73V7.43h11.73V0ZM1447,0h-11.72V7.43H1447V0Zm-23.45,0h-11.73V7.43h11.73V0Zm-23.46,0h-11.73V7.43h11.73V0Zm-23.46,0h-11.73V7.43h11.73V0ZM1353.2,0h-11.73V7.43h11.73V0Zm-23.46,0H1318V7.43h11.73V0Zm-23.45,0h-11.73V7.43h11.73V0Zm-23.46,0H1271.1V7.43h11.73V0Zm-23.46,0h-11.73V7.43h11.73V0Zm-23.46,0h-11.73V7.43h11.73V0Zm-23.46,0h-11.73V7.43h11.73V0ZM1189,0h-11.73V7.43H1189V0Zm-23.45,0h-11.73V7.43h11.73V0Zm-23.46,0h-11.73V7.43h11.73V0Zm-23.46,0h-11.73V7.43h11.73V0Zm-23.46,0h-11.73V7.43h11.73V0ZM1071.7,0H1060V7.43h11.73V0Zm-23.46,0h-11.72V7.43h11.72V0Zm-23.45,0h-11.73V7.43h11.73V0Zm-23.46,0H989.6V7.43h11.73V0ZM977.87,0H966.14V7.43h11.73V0ZM954.41,0H942.68V7.43h11.73V0ZM931,0H919.22V7.43H931V0ZM907.49,0H895.77V7.43h11.72V0ZM884,0H872.31V7.43H884V0ZM860.58,0H848.85V7.43h11.73V0ZM837.12,0H825.39V7.43h11.73V0ZM813.66,0H801.93V7.43h11.73V0ZM790.2,0H778.47V7.43H790.2V0ZM766.75,0H755V7.43h11.73V0ZM743.29,0H731.56V7.43h11.73V0ZM719.83,0H708.1V7.43h11.73V0ZM696.37,0H684.64V7.43h11.73V0ZM672.91,0H661.18V7.43h11.73V0ZM649.45,0H637.72V7.43h11.73V0ZM626,0H614.27V7.43H626V0ZM602.54,0H590.81V7.43h11.73V0ZM579.08,0H567.35V7.43h11.73V0ZM555.62,0H543.89V7.43h11.73V0ZM532.16,0H520.43V7.43h11.73V0ZM508.7,0H497V7.43H508.7V0ZM485.25,0H473.52V7.43h11.73V0ZM461.79,0H450.06V7.43h11.73V0ZM438.33,0H426.6V7.43h11.73V0ZM414.87,0H403.14V7.43h11.73V0ZM391.41,0H379.68V7.43h11.73V0ZM368,0H356.23V7.43H368V0ZM344.5,0H332.77V7.43H344.5V0ZM321,0H309.31V7.43H321V0ZM297.58,0H285.85V7.43h11.73V0ZM274.12,0H262.39V7.43h11.73V0ZM250.66,0H238.93V7.43h11.73V0ZM227.21,0H215.48V7.43h11.73V0ZM203.75,0H192V7.43h11.73V0ZM180.29,0H168.56V7.43h11.73V0ZM156.83,0H145.1V7.43h11.73V0ZM133.37,0H121.64V7.43h11.73V0ZM109.91,0H98.18V7.43h11.73V0ZM86.46,0H81.6c-1.46,0-2.91.11-4.35.22H76.1L74.74.48l.79,7.38a77.43,77.43,0,0,1,8.21-.43h2.72V0ZM63.21,2.54A83.41,83.41,0,0,0,52.07,6.19l2.81,6.88A74.21,74.21,0,0,1,65,9.74l-1.81-7.2ZM41.56,11.38c-.87.51-1.73,1-2.58,1.57h0l-.21.13,0,0-.07,0h0l-.19.12,0,0-.05,0,0,0-.06,0-.06,0-.05,0,0,0,0,0-.07,0-.05,0-.06,0,0,0-.05,0,0,0-.08.05,0,0,0,0,0,0-.06,0,0,0-.08,0,0,0-.05,0,0,0-.07.05,0,0-.06,0,0,0,0,0-.05,0-.07,0,0,0-.05,0,0,0,0,0,0,0-.07.05-.05,0,0,0,0,0-.05,0-.08.06,0,0-.05,0,0,0-.19.13,0,0-.06,0,0,0-.2.14h0l-.06.05h0l-.14.1h0Q33.6,16.63,31.88,18l4.6,5.83a76.77,76.77,0,0,1,8.83-6l-3.75-6.41ZM23.21,25.87c-.4.42-.8.85-1.19,1.28h0l-.07.09h0l-.13.14,0,.05-.06.06-.05.06-.08.09-.06.07,0,.05-.06.07-.05,0-.09.11,0,0-.08.09,0,0-.1.12,0,0-.09.1,0,0-.11.12h0l-.1.12,0,0-.23.26v0c-.08.08-.15.17-.23.26h0l-.23.27h0l-.1.13h0l-.11.14h0l-.11.12v0l-.11.13h0l-.1.12,0,0-.11.13h0l-.1.12,0,0-.11.13h0l-.1.12,0,0-.09.1,0,0-.09.12,0,0-.07.09,0,0-.09.11,0,.06-.05.06-.05.06-.08.11-.05.06,0,.06-.06.07,0,0-.11.15,0,0-.07.09h0l-.15.18h0c-.66.83-1.29,1.68-1.91,2.54l6,4.34A76.53,76.53,0,0,1,28.58,31l-5.37-5.13Zm-13.65,19c-.33.62-.64,1.23-1,1.86v0l0,.05,0,0,0,.05,0,.09v0l0,.07v0l-.05.08v0l-.06.1v0l-.05.1h0Q6.72,50.64,5.44,54v0l0,.1h0l0,.1v0l0,.07v0l0,0,0,.13h0l0,.08h0c-.12.31-.24.63-.35,1l7,2.49a77.16,77.16,0,0,1,4.29-9.77L9.56,44.85Zm-7.86,22,0,.11v0l0,.1v0l0,.1v0l0,.06v.1l0,.12v.11h0a2.38,2.38,0,0,0-.05.26h0A83.32,83.32,0,0,0,.16,78.49L7.57,79A76.54,76.54,0,0,1,9,68.36L1.7,66.87ZM7.43,90.22H0V102H7.43V90.22Zm0,23.46H0v11.73H7.43V113.68Zm0,23.46H0v11.72H7.43V137.14Zm0,23.45H0v11.73H7.43V160.59Zm0,23.46H0v11.73H7.43V184.05Zm0,23.46H0v11.73H7.43V207.51Zm0,23.46H0V242.7H7.43V231Zm0,23.46H0v11.73H7.43V254.43Zm0,23.45H0v11.73H7.43V277.88Zm0,23.46H0v11.73H7.43V301.34Zm0,23.46H0v11.73H7.43V324.8Zm0,23.46H0V360H7.43V348.26Zm0,23.46H0v11.73H7.43V371.72Zm0,23.46H0v11.73H7.43V395.18Zm0,23.45H0v11.73H7.43V418.63Zm0,23.46H0v11.73H7.43V442.09Zm0,23.46H0v11.73H7.43V465.55Zm0,23.46H0v11.73H7.43V489Zm0,23.46H0V524.2H7.43V512.47Zm0,23.46H0v11.73H7.43V535.93Zm0,23.45H0v11.73H7.43V559.38Zm0,23.46H0v11.73H7.43V582.84Zm0,23.46H0V618H7.43V606.3Zm0,23.46H0v11.73H7.43V629.76Zm0,23.46H0V665H7.43V653.22Zm0,23.46H0V688.4H7.43V676.68Zm0,23.45H0v11.73H7.43V700.13Zm0,23.46H0v11.73H7.43V723.59Zm0,23.46H0v11.73H7.43V747.05Zm0,23.46H0v11.73H7.43V770.51Zm0,23.46H0V805.7H7.43V794Zm0,23.45H0v11.73H7.43V817.42Zm0,23.46H0v11.73H7.43V840.88Zm0,23.46H0v11.73H7.43V864.34Zm0,23.46H0v11.73H7.43V887.8Zm0,23.46H0V923H7.43V911.26Zm0,23.46H0v11.73H7.43V934.72Zm0,23.45H0V969.9H7.43V958.17Zm0,23.46H0v11.73H7.43V981.63Zm0,23.46H0v11.73H7.43v-11.73Zm0,23.46H0v11.73H7.43v-11.73Zm0,23.46H0v11.73H7.43V1052Zm0,23.46H0v11.73H7.43v-11.73Zm0,23.45H0v11.73H7.43v-11.73Zm0,23.46H0v11.73H7.43v-11.73Zm0,23.46H0v11.73H7.43v-11.73Zm0,23.46H0V1181H7.43V1169.3Zm0,23.46H0v11.73H7.43v-11.73Zm0,23.46H0v11.72H7.43v-11.72Zm0,23.45H0v11.73H7.43v-11.73Zm0,23.46H0v11.73H7.43v-11.73Zm0,23.46H0v11.73H7.43v-11.73Zm0,23.46H0v11.73H7.43v-11.73Zm0,23.46H0v11.73H7.43v-11.73Zm0,23.46H0v11.72H7.43V1357Zm0,23.45H0v11.73H7.43v-11.73Zm0,23.46H0v11.73H7.43v-11.73Zm0,23.46H0v11.73H7.43v-11.73Zm0,23.46H0v11.73H7.43V1450.8Zm0,23.46H0v8H0v1.42c0,.77,0,1.54.07,2.31l7.42-.33c0-1.12-.07-2.27-.07-3.4v-8Zm1.28,22-7.3,1.35A82.37,82.37,0,0,0,4.35,1509l7-2.36a76.83,76.83,0,0,1-2.68-10.33Zm6.79,20.18-6.64,3.33c.25.5.51,1,.77,1.49h0l.06.1h0l.11.22h0l.06.11h0l.11.22h0a2.12,2.12,0,0,1,.11.21v0l.05.09h0l.12.22h0l.06.09h0l.12.22h0l.12.21h0l.06.1h0l.12.21h0l.19.32h0l.12.21h0q1.74,3,3.74,5.92l6.11-4.23a75.18,75.18,0,0,1-5.45-9.18ZM27.63,1534l-5.46,5c.68.74,1.37,1.46,2.08,2.18l0,0,.23.23,0,0,.07.06.05.06.09.09.06.06.05,0,.08.07.06.06.08.08,0,0,.09.08,0,0,.11.11,0,0,.1.09,0,0,.12.12h0l.12.11h0c1.59,1.53,3.23,3,4.93,4.38l4.71-5.74a77,77,0,0,1-7.77-7.34Zm16.48,13.51-3.86,6.35c.74.45,1.49.89,2.24,1.32h0l.21.12h0l.09,0h0l.07,0,.06,0,.06,0,0,0,0,0,.21.11h0c2.37,1.31,4.82,2.51,7.32,3.59l2.94-6.83a76,76,0,0,1-9.49-4.9Zm19.57,8.42-2,7.17c1.19.32,2.39.62,3.6.89h0l.13,0h0l.12,0h0l.12,0h0l.11,0h0l.1,0h0l.11,0h0l.07,0h0l.1,0h.16l.06,0,.09,0h.16l.12,0h.14l.07,0h0l.15,0h0l.07,0h0l.13,0h.12l.25,0h0l.25,0h.11l.16,0h.11l.25,0h0l.25,0h.12l.15,0h.12l.24,0h.13l.13,0h.16l.08,0h1.14l.12,0h0l.11,0h0l.25,0h0l1.33.18.92-7.37a75.72,75.72,0,0,1-10.47-2.07Zm33,2.66H84.93V1566H96.66v-7.43Zm23.46,0H108.39V1566h11.73v-7.43Zm23.46,0H131.85V1566h11.73v-7.43Zm23.45,0H155.31V1566H167v-7.43Zm23.46,0H178.76V1566h11.73v-7.43Zm23.46,0H202.22V1566H214v-7.43Zm23.46,0H225.68V1566h11.73v-7.43Zm23.46,0H249.14V1566h11.73v-7.43Zm23.46,0H272.6V1566h11.73v-7.43Zm23.45,0H296.05V1566h11.73v-7.43Zm23.46,0H319.51V1566h11.73v-7.43Zm23.46,0H343V1566H354.7v-7.43Zm23.46,0H366.43V1566h11.73v-7.43Zm23.46,0H389.89V1566h11.73v-7.43Zm23.46,0H413.35V1566h11.73v-7.43Zm23.45,0H436.8V1566h11.73v-7.43Zm23.46,0H460.26V1566H472v-7.43Zm23.46,0H483.72V1566h11.73v-7.43Zm23.46,0H507.18V1566h11.73v-7.43Zm23.46,0H530.64V1566h11.73v-7.43Zm23.45,0H554.1V1566h11.72v-7.43Zm23.46,0H577.55V1566h11.73v-7.43Zm23.46,0H601V1566h11.73v-7.43Zm23.46,0H624.47V1566H636.2v-7.43Zm23.46,0H647.93V1566h11.73v-7.43Zm23.46,0H671.39V1566h11.73v-7.43Zm23.45,0H694.85V1566h11.72v-7.43Zm23.46,0H718.3V1566H730v-7.43Zm23.46,0H741.76V1566h11.73v-7.43Zm23.46,0H765.22V1566H777v-7.43Zm23.46,0H788.68V1566h11.73v-7.43Zm23.46,0H812.14V1566h11.73v-7.43Zm23.45,0H835.6V1566h11.72v-7.43Zm23.46,0H859.05V1566h11.73v-7.43Zm23.46,0H882.51V1566h11.73v-7.43Zm23.46,0H906V1566H917.7v-7.43Zm23.46,0H929.43V1566h11.73v-7.43Zm23.46,0H952.89V1566h11.73v-7.43Zm23.45,0H976.34V1566h11.73v-7.43Zm23.46,0H999.8V1566h11.73v-7.43Zm23.46,0h-11.73V1566H1035v-7.43Zm23.46,0h-11.73V1566h11.73v-7.43Zm23.46,0h-11.73V1566h11.73v-7.43Zm23.46,0h-11.73V1566h11.73v-7.43Zm23.45,0h-11.73V1566h11.73v-7.43Zm23.46,0h-11.73V1566h11.73v-7.43Zm23.46,0H1164V1566h11.73v-7.43Zm23.46,0h-11.73V1566h11.73v-7.43Zm23.46,0h-11.73V1566h11.73v-7.43Zm23.45,0h-11.72V1566h11.72v-7.43Zm23.46,0h-11.73V1566h11.73v-7.43Zm23.46,0H1281.3V1566H1293v-7.43Zm23.46,0h-11.73V1566h11.73v-7.43Zm23.46,0h-11.73V1566H1340v-7.43Zm23.46,0h-11.73V1566h11.73v-7.43Zm23.45,0h-11.72V1566h11.72v-7.43Zm23.46,0h-11.73V1566h11.73v-7.43Zm23.46,0h-11.73V1566h11.73v-7.43Zm23.46,0h-11.73V1566h11.73v-7.43Zm23.46,0H1469V1566h11.73v-7.43Zm23.46,0h-11.73V1566h11.73v-7.43Zm23.45,0h-11.73V1566h11.73v-7.43Zm23.46,0h-11.73V1566h11.73v-7.43Zm23.46,0H1562.8V1566h11.73v-7.43Zm23.46,0h-11.73V1566H1598v-7.43Zm23.46,0h-11.73V1566h11.73v-7.43Zm23.46,0h-11.73V1566h11.73v-7.43Zm23.45,0h-11.73V1566h11.73v-7.43Zm23.46,0h-11.73V1566h11.73v-7.43Zm23.46,0h-11.73V1566h11.73v-7.43Zm23.46,0H1727V1566h11.73v-7.43Zm23.46,0h-11.73V1566h11.73v-7.43Zm23.45,0h-11.72V1566h11.72v-7.43Zm23.46,0h-11.73V1566h11.73v-7.43Zm23.46,0h-11.73V1566h11.73v-7.43Zm23.46,0H1844.3V1566H1856v-7.43Zm23.46,0h-11.73V1566h11.73v-7.43Zm23.46,0h-11.73V1566H1903v-7.43Zm23.45,0h-11.72V1566h11.72v-7.43Zm23.46,0h-11.73V1566h11.73v-7.43Zm23.46,0h-11.73V1566h11.73v-7.43Zm23.46,0h-11.73V1566h11.73v-7.43Zm23.46,0h-11.73V1566h11.73v-7.43Zm23.46,0H2032V1566h11.73v-7.43Zm23.45,0h-11.73V1566h11.73v-7.43Zm23.46,0h-11.73V1566h11.73v-7.43Zm23.46,0h-11.73V1566h11.73v-7.43Zm23.46,0H2125.8V1566h11.73v-7.43Zm23.46,0h-11.73V1566H2161v-7.43Zm23.46,0h-11.73V1566h11.73v-7.43Zm23.45,0h-11.73V1566h11.73v-7.43Zm23.46,0h-11.73V1566h11.73v-7.43Zm23.46,0h-11.73V1566h11.73v-7.43Zm23.46,0h-11.73V1566h11.73v-7.43Zm23.46,0H2290V1566h11.73v-7.43Zm23.45,0h-11.72V1566h11.72v-7.43Zm23.46,0h-11.73V1566h11.73v-7.43Zm23.46,0h-11.73V1566h11.73v-7.43Zm22.54-.56a75.55,75.55,0,0,1-9.28.56h-1.53V1566h4.63l.67,0h0c1.34-.06,2.67-.15,4-.28h.29l.33,0h.55l1.25-.14-.9-7.38Zm20.57-5.5a76.08,76.08,0,0,1-10.09,3.48l1.92,7.17q4-1.07,7.82-2.51h0l.23-.09h0l.1,0h0l.11,0h0l.1,0h0l.1,0h0l.1,0,0,0,.08,0h0l.1,0h0l.06,0,.05,0,.07,0,.06,0,.07,0,.05,0,0,0,.05,0,.06,0,.09,0h0l.06,0h0l.12,0h0l.07,0h0l.23-.09h0l.08,0h0l.24-.1h0l.24-.1h0l.33-.14h0l-2.91-6.84Zm18.25-11a76.7,76.7,0,0,1-8.74,6.14l3.84,6.36a82.65,82.65,0,0,0,8.49-5.87h0l.19-.15,0,0,.07,0,0,0,.07-.06,0,0,0,0,0,0,0,0c.19-.14.37-.29.55-.44l-4.68-5.76Zm14.51-15.62a76.42,76.42,0,0,1-6.71,8.31l5.44,5.06,0,0,.06-.07.06-.06.08-.09,0,0,.08-.09,0,0,.1-.11,0,0,.08-.09,0,0,.1-.12,0,0,.09-.09,0,0,.1-.11,0,0,.08-.1,0,0,.11-.12,0,0,.09-.1,0,0,.09-.11,0,0,.1-.11,0,0,.09-.09,0,0,.1-.12,0,0,.08-.08,0,0,.1-.12,0,0,.07-.09,0,0,.1-.12,0,0,.07-.09,0,0,.1-.12,0,0,.07-.09,0,0,.08-.09.05-.06.06-.08,0-.06.06-.06.07-.09.06-.07.05-.06,0-.07.06-.06.07-.09.06-.07,0,0,.2-.25,0,0,.21-.26,0,0,.07-.09h0l.15-.19h0l.08-.09h0q1.64-2.05,3.14-4.21l-6.09-4.25Zm9.64-19a76.48,76.48,0,0,1-4.15,9.84l6.62,3.36v0l0,0,0,0,.06-.13h0l0-.07v0a82.45,82.45,0,0,0,4.29-10.19v0l0-.08h0l0-.14,0,0-7-2.4Zm4-20.93a76.8,76.8,0,0,1-1.25,10.61l7.29,1.39c.2-1,.37-2,.53-3.07h0v-.71l0-.16h0l0-.09h0c.35-2.5.58-5,.71-7.6l-7.42-.36Zm7.51-23.1h-7.42v11.73h7.42v-11.73Zm0-23.46h-7.42v11.73h7.42V1439.4Zm0-23.46h-7.42v11.73h7.42v-11.73Zm0-23.46h-7.42v11.73h7.42v-11.73Zm0-23.46h-7.42v11.73h7.42V1369Zm0-23.45h-7.42v11.73h7.42v-11.73Zm0-23.46h-7.42v11.73h7.42v-11.73Zm0-23.46h-7.42v11.73h7.42v-11.73Zm0-23.46h-7.42v11.73h7.42v-11.73Zm0-23.46h-7.42v11.73h7.42v-11.73Zm0-23.45h-7.42V1240h7.42v-11.72Zm0-23.46h-7.42v11.73h7.42v-11.73Zm0-23.46h-7.42v11.73h7.42v-11.73Zm0-23.46h-7.42v11.73h7.42V1157.9Zm0-23.46h-7.42v11.73h7.42v-11.73Zm0-23.46h-7.42v11.73h7.42V1111Zm0-23.45h-7.42v11.72h7.42v-11.72Zm0-23.46h-7.42v11.73h7.42v-11.73Zm0-23.46h-7.42v11.73h7.42v-11.73Zm0-23.46h-7.42v11.73h7.42v-11.73Zm0-23.46h-7.42v11.73h7.42V993.69Zm0-23.46h-7.42V982h7.42V970.23Zm0-23.45h-7.42v11.73h7.42V946.78Zm0-23.46h-7.42v11.73h7.42V923.32Zm0-23.46h-7.42v11.73h7.42V899.86Zm0-23.46h-7.42v11.73h7.42V876.4Zm0-23.46h-7.42v11.73h7.42V852.94Zm0-23.46h-7.42v11.73h7.42V829.48Zm0-23.45h-7.42v11.73h7.42V806Zm0-23.46h-7.42V794.3h7.42V782.57Zm0-23.46h-7.42v11.73h7.42V759.11Zm0-23.46h-7.42v11.73h7.42V735.65Zm0-23.46h-7.42v11.73h7.42V712.19Zm0-23.46h-7.42v11.73h7.42V688.73Zm0-23.45h-7.42V677h7.42V665.28Zm0-23.46h-7.42v11.73h7.42V641.82Zm0-23.46h-7.42v11.73h7.42V618.36Zm0-23.46h-7.42v11.73h7.42V594.9Zm0-23.46h-7.42v11.73h7.42V571.44Zm0-23.45h-7.42v11.72h7.42V548Zm0-23.46h-7.42v11.73h7.42V524.53Zm0-23.46h-7.42V512.8h7.42V501.07Zm0-23.46h-7.42v11.73h7.42V477.61Zm0-23.46h-7.42v11.73h7.42V454.15Zm0-23.46h-7.42v11.73h7.42V430.69Zm0-23.45h-7.42V419h7.42V407.24Zm0-23.46h-7.42v11.73h7.42V383.78Zm0-23.46h-7.42v11.73h7.42V360.32Zm0-23.46h-7.42v11.73h7.42V336.86Zm0-23.46h-7.42v11.73h7.42V313.4Zm0-23.46h-7.42v11.73h7.42V289.94Zm0-23.45h-7.42v11.73h7.42V266.49Zm0-23.46h-7.42v11.73h7.42V243Zm0-23.46h-7.42V231.3h7.42V219.57Zm0-23.46h-7.42v11.73h7.42V196.11Zm0-23.46h-7.42v11.73h7.42V172.65Zm0-23.46h-7.42v11.73h7.42V149.19Zm0-23.45h-7.42v11.73h7.42V125.74Zm0-23.46h-7.42V114h7.42V102.28ZM2469,78.82l-7.41.43c.08,1.48.13,3,.13,4.49v6.81h7.42V83.74h0V80.65c0-.61-.05-1.22-.09-1.83Zm-4.6-22.92-7,2.47a75.63,75.63,0,0,1,2.83,10.29l7.28-1.46a83.29,83.29,0,0,0-2.87-10.61v0c0-.07,0-.15-.08-.22v0l0-.06,0-.08,0,0,0-.08v0l0-.11h0Zm-10.78-20.75-6,4.32a76.48,76.48,0,0,1,5.58,9.1l6.59-3.42-.08-.16h0l-.16-.32h0l-.12-.23h0l0-.07v0a2.12,2.12,0,0,0-.11-.21l0,0,0-.07v0l-.08-.14h0l0-.07v0l0-.06v0l-.06-.11,0,0,0-.06,0,0-.05-.08,0-.06,0,0,0-.06,0,0,0-.06,0-.07,0-.06,0,0,0-.06,0,0-.05-.09,0,0,0-.07,0,0,0-.07,0,0-.05-.1v0l-.05-.08v0l-.05-.08v0l-.05-.09,0,0L2458,42v0l-.06-.1v0l0-.08,0,0,0-.08v0l-.06-.09v0l0-.09v0l-.12-.2v0l0-.09h0l-.06-.1h0l-.06-.1h0l-.06-.1h0l-.06-.11h0l-.06-.1h0a2.39,2.39,0,0,0-.13-.21v0l0-.09h0l-.06-.11h0l-.07-.1h0l-.13-.21h0l-.06-.09h0a2.39,2.39,0,0,0-.13-.21h0l-.07-.1h0l-.06-.11h0l-.07-.1h0l-.13-.2h0l-.06-.1h0l-.13-.2h0l-.07-.1h0l-.07-.11h0l-.06-.1h0l-.13-.2h0l-.06-.1h0l-.13-.2,0,0-.06-.1h0l-.07-.1h0l-.06-.09h0l-.13-.2,0,0-.05-.08v0l-.07-.09v0l-.05-.08,0,0-.05-.07v0l-.06-.09,0,0-.05-.07,0,0-.06-.08h0l-.06-.09v0l-.05-.07,0,0-.06-.08,0,0,0-.06,0,0,0-.06,0,0-.06-.09,0,0,0-.06,0,0-.05-.06,0-.06,0,0,0-.05,0,0,0,0,0,0-.06-.1,0,0,0-.06,0,0,0-.06Zm-16.1-17L2432.86,24a75.76,75.76,0,0,1,7.87,7.22l5.39-5.11q-2.32-2.46-4.86-4.72h0l-.13-.11h0l-.13-.11v0l-.11-.1,0,0-.12-.11,0,0-.1-.08,0,0-.12-.11,0,0-.1-.08,0,0-.11-.1,0,0-.09-.08-.05-.05-.08-.06-.07-.06-.08-.07-.06,0-.06-.05-.09-.08-.07-.06-.07-.05-.05-.05-.15-.13h0l-.07-.06,0,0-.07-.07,0,0-.14-.12,0,0-.08-.07h0l-.16-.13,0,0-.09-.08h0l-.17-.14h0l-.09-.07h0l-.28-.23h0l-.28-.23h0l-.08-.06ZM2417.34,6.32l-2.84,6.86a75.93,75.93,0,0,1,9.55,4.77l3.78-6.4-.66-.39h0l-.07,0,0,0L2427,11l0,0-.06,0,0,0-.07,0-.06,0,0,0-.05,0,0,0-.21-.11h0l-.06,0h0l-.23-.12h0l-1.44-.78h0l-.23-.13h0l-.07,0h0l-.23-.11,0,0-.07,0h0l-.14-.08h0l-.06,0,0,0-.21-.1,0,0-.06,0,0,0-.08-.05,0,0-.05,0,0,0-.05,0-.09,0,0,0-.06,0,0,0-.08,0h0l-.1,0,0,0-.07,0,0,0-.1-.05h0l-.1-.05h0l-.08,0h0l-.1-.05h0l-.09,0,0,0-.09,0h0l-.1-.05h0l-.08,0h0l-.11,0h0l-.1,0h0l-.1-.05h0l-.11,0h0l-.1,0h0l-.21-.1h0l-.09-.05h0l-.1,0h0l-.08,0h0l-.1,0h0l-.11-.05h0l-.08,0h0l-.1,0h0l-.07,0,0,0-.06,0,0,0-.09,0-.05,0,0,0-.05,0-.05,0-.1,0h0l-.07,0h0l-1.84-.79ZM2394.69.51l-.82,7.38a77.29,77.29,0,0,1,10.5,1.92l1.85-7.19h0l-.08,0h0l-.15,0h0l-.07,0h0l-.11,0h-.15l-.06,0-.1,0h0l-.06,0h-.06l-.08,0h0l-.09,0h0l-.08,0h0l-.11,0h0l-.09,0h0l-.12,0h0l-.1,0h0l-.23,0h0l-.24,0h0l-.12,0h0l-.25-.06h0l-.26-.05h0c-1-.22-2-.41-2.94-.59h0l-.13,0h0l-.24-.05h0l-.24,0h-.14l-.12,0h-.15l-.1,0h-.48l-.24,0h0c-1.24-.19-2.49-.36-3.74-.5Z"/></g></g></svg>