<svg xmlns="http://www.w3.org/2000/svg" xmlns:xlink="http://www.w3.org/1999/xlink" viewBox="0 0 3176.3 2906.82"><defs><style>.cls-1,.cls-2{fill:none;}.cls-2{stroke:#f5eee5;stroke-miterlimit:10;stroke-width:3px;}.cls-3{fill:#ffd049;}.cls-4{fill:url(#diagonal_lines_purple);}</style><pattern id="diagonal_lines_purple" data-name="diagonal lines purple" width="142.68" height="108.89" patternTransform="translate(-2288.74 1348.76) scale(1 1.19)" patternUnits="userSpaceOnUse" viewBox="0 0 142.68 108.89"><rect class="cls-1" width="142.68" height="108.89"/><polyline class="cls-2" points="142.68 108.89 178.61 135.74 212.84 165.01 250.74 189.05 285.36 217.78"/><polyline class="cls-2" points="0 108.89 35.93 135.74 70.17 165.01 108.06 189.05 142.68 217.78"/><polyline class="cls-2" points="-142.68 108.89 -106.75 135.74 -72.51 165.01 -34.62 189.05 0 217.78"/><polyline class="cls-2" points="142.68 0 178.61 26.84 212.84 56.12 250.74 80.16 285.36 108.89"/><polyline class="cls-2" points="86.68 14 122.61 40.84 156.84 70.12 194.74 94.16 229.35 122.89"/><polyline class="cls-2" points="0 0 35.93 26.84 70.17 56.12 108.06 80.16 142.68 108.89"/><polyline class="cls-2" points="-56 14 -20.07 40.84 14.17 70.12 52.06 94.16 86.68 122.89"/><polyline class="cls-2" points="-142.68 0 -106.75 26.84 -72.51 56.12 -34.62 80.16 0 108.89"/><polyline class="cls-2" points="142.68 -108.89 178.61 -82.05 212.84 -52.77 250.74 -28.73 285.36 0"/><polyline class="cls-2" points="86.68 -94.89 122.61 -68.05 156.84 -38.77 194.74 -14.73 229.35 14"/><polyline class="cls-2" points="0 -108.89 35.93 -82.05 70.17 -52.77 108.06 -28.73 142.68 0"/><polyline class="cls-2" points="-56 -94.89 -20.07 -68.05 14.17 -38.77 52.06 -14.73 86.68 14"/><polyline class="cls-2" points="-142.68 -108.89 -106.75 -82.05 -72.51 -52.77 -34.62 -28.73 0 0"/></pattern></defs><g id="Layer_2" data-name="Layer 2"><g id="Layer_16" data-name="Layer 16"><path class="cls-3" d="M3169.62,2904.8c1.11-133.09,2.22-2338.18,3.34-2471.26l3.34-399.27C3022.46,11,2803.34-12,2581.16,7.05c-565.22,48.37-611.23,322.36-1100,340.79-261.89,9.87-264.13-56.47-625.23-43.36C560.1,315.22,470.15,421,227.36,415.39,125.79,413,47.69,394.34,0,380.1V2906.82Z"/><path class="cls-4" d="M3169.62,2904.8c1.11-133.09,2.22-2338.18,3.34-2471.26l3.34-399.27C3022.46,11,2803.34-12,2581.16,7.05c-565.22,48.37-611.23,322.36-1100,340.79-261.89,9.87-264.13-56.47-625.23-43.36C560.1,315.22,470.15,421,227.36,415.39,125.79,413,47.69,394.34,0,380.1V2906.82Z"/></g></g></svg>