<svg xmlns="http://www.w3.org/2000/svg" viewBox="0 0 139.35 114.42"><defs><style>.cls-1{fill:#ffebd4;stroke:#265d7f;stroke-miterlimit:10;stroke-width:10px;}.cls-2{fill:#265d7f;}</style></defs><g id="Layer_2" data-name="Layer 2"><g id="Layer_16" data-name="Layer 16"><path class="cls-1" d="M126.78,94.43l6.84-25.31c2.88-10.65-3-21.5-13.24-24.22L39.9,23.41c-10.19-2.72-20.79,3.71-23.67,14.37L9.39,63.08c-2.89,10.66,3,21.5,13.24,24.23l80.48,21.48C113.3,111.52,123.9,105.08,126.78,94.43Z"/><path class="cls-1" d="M123.12,76.64,130,51.34c2.88-10.66-3-21.51-13.25-24.23L36.25,5.62C26.05,2.9,15.45,9.33,12.57,20L5.73,45.29C2.85,56,8.78,66.79,19,69.52L99.45,91C109.64,93.73,120.24,87.3,123.12,76.64Z"/><path class="cls-2" d="M34.82,53.47Q33,53,31.7,52.54a13.08,13.08,0,0,1-2-.88,3.52,3.52,0,0,1-1.25-1.08,1.55,1.55,0,0,1-.17-1.27,2.73,2.73,0,0,1,.39-.84,2.11,2.11,0,0,1,.67-.57l.23-.11L30,47.6l.26-.1.18-.09a2.76,2.76,0,0,0,.94-.74,3.7,3.7,0,0,0,.55-1.07c.17-.53.46-1.53.89-3s.81-2.85,1.17-4.17c.09-.34.44-1.58,1-3.71s.92-3.36,1-3.66a4.24,4.24,0,0,0,.11-1.22,1.7,1.7,0,0,0-.32-.92,1.82,1.82,0,0,1-.2-.25,3.43,3.43,0,0,0-.31-.36l-.14-.15a.61.61,0,0,1-.07-.1,2,2,0,0,1-.49-1,2.74,2.74,0,0,1,.12-1,2,2,0,0,1,1.9-1.39,13.14,13.14,0,0,1,4.57.61c.54.15,1.08.31,1.63.5s1.22.44,2,.76c.42.19.72.32.9.38l.5.15a4.46,4.46,0,0,0,.48.11c.2,0,.54.09,1,.14,1,.16,1.72.29,2.27.4s1.06.22,1.53.35c3.3.88,5.61,2.34,7,4.38a8.82,8.82,0,0,1,.81,7.42,8.91,8.91,0,0,1-5.07,6.27q-3.81,1.65-9.65.09l-2.21-.6a.82.82,0,0,0-.65,0,1,1,0,0,0-.36.6l-.38,1.43a5.16,5.16,0,0,0-.16.7,2,2,0,0,0,0,.6.94.94,0,0,0,.14.37,1.45,1.45,0,0,0,.26.35,2.07,2.07,0,0,0,.32.28,4.2,4.2,0,0,1,1.37,1.29A1.72,1.72,0,0,1,43,52.68,2.16,2.16,0,0,1,42.05,54a3.32,3.32,0,0,1-1.83.39,14.5,14.5,0,0,1-2.38-.25C37,54,36,53.77,34.82,53.47ZM44.46,41.9l.37.09a3,3,0,0,0,2.9-.63,6.54,6.54,0,0,0,1.92-3.42,6,6,0,0,0,0-3.82,3.12,3.12,0,0,0-2.2-2l-.16,0-.21,0A2.27,2.27,0,0,0,45.9,32a1.17,1.17,0,0,0-.7.62,8.1,8.1,0,0,0-.43,1.16c-.18.55-.37,1.2-.57,2-.14.49-.27,1-.41,1.48s-.27,1-.41,1.52A4.7,4.7,0,0,0,43.11,41C43.25,41.4,43.7,41.69,44.46,41.9Z"/><path class="cls-2" d="M81.6,54.47a10.61,10.61,0,0,1-5.44,7.15q-4,2-9.72.5Q61.13,60.7,58.8,57a10.22,10.22,0,0,1-1-8.53,10.79,10.79,0,0,1,5.58-7.2A13,13,0,0,1,73,40.62a12.22,12.22,0,0,1,7.54,5.19A10.44,10.44,0,0,1,81.6,54.47ZM66.66,48.65a7.44,7.44,0,0,0,.39,4.82c.68,1.68,1.61,2.68,2.79,3a2.2,2.2,0,0,0,1.91-.21,3.21,3.21,0,0,0,1.12-1.89,7.5,7.5,0,0,0-.37-4.84,4.46,4.46,0,0,0-2.8-3,2.15,2.15,0,0,0-1.88.28A3.22,3.22,0,0,0,66.66,48.65Z"/><path class="cls-2" d="M92.74,66.19a6.1,6.1,0,0,1-2.91,1.4,7.46,7.46,0,0,1-3.45-.12,6.62,6.62,0,0,1-4-2.6,5.23,5.23,0,0,1-.51-4.4,5.68,5.68,0,0,1,1.49-2.63A5.85,5.85,0,0,1,86,56.4a11.66,11.66,0,0,1,2.2-.31,35.28,35.28,0,0,1,4,.11c.31,0,.54,0,.7,0a2.06,2.06,0,0,0,.44,0,3.84,3.84,0,0,0,1.87-.46,2.22,2.22,0,0,0,.9-1.27l0-.11A1.93,1.93,0,0,0,96,52.81a2.3,2.3,0,0,0-1.41-.93A2.42,2.42,0,0,0,93,52a3.2,3.2,0,0,0-1.34,1,5.24,5.24,0,0,1-2.2,1.75,4.21,4.21,0,0,1-2.49,0,3.79,3.79,0,0,1-2.32-1.59,3.14,3.14,0,0,1-.34-2.59Q85.09,47.89,89,47a16.35,16.35,0,0,1,8,.22q4.73,1.26,6.57,3.89a7.46,7.46,0,0,1,.78,6.5c-.13.47-.25.94-.38,1.41s-.33,1.14-.58,2-.41,1.5-.51,1.85-.18.67-.25.94a5.71,5.71,0,0,0-.16.78,8,8,0,0,0,0,1,1,1,0,0,0,.19.44,2.33,2.33,0,0,0,.5.49,2.19,2.19,0,0,1,.77.89,1.84,1.84,0,0,1,0,1.08,2.33,2.33,0,0,1-.71,1.18,4,4,0,0,1-1.51.74,7.37,7.37,0,0,1-2.07.19,10.71,10.71,0,0,1-2.36-.36,9.46,9.46,0,0,1-1.81-.64,4,4,0,0,1-1.12-1,2.75,2.75,0,0,1-.5-1,4,4,0,0,1-.18-1.17,1.1,1.1,0,0,0-.05-.39.32.32,0,0,0-.2-.15.39.39,0,0,0-.28,0A1.56,1.56,0,0,0,92.74,66.19Zm-1.82-5.25a1.88,1.88,0,0,0,.13,1.51,1.86,1.86,0,0,0,1.21.86,1.64,1.64,0,0,0,1.1,0,2,2,0,0,0,.84-.82,5.67,5.67,0,0,0,.27-.55,7.8,7.8,0,0,0,.25-.8l.06-.22a1.71,1.71,0,0,0,.06-1.17c-.11-.21-.4-.3-.86-.27l-.24,0h-.18a.66.66,0,0,0-.26,0,.76.76,0,0,0-.23,0,.2.2,0,0,1-.1,0,2.5,2.5,0,0,0-1.37.38A1.8,1.8,0,0,0,90.92,60.94Z"/></g></g></svg>