<svg xmlns="http://www.w3.org/2000/svg" viewBox="0 0 527.77 58.85"><defs><style>.cls-1{fill:#649e3d;}</style></defs><g id="Layer_2" data-name="Layer 2"><g id="Layer_31_copy_4" data-name="Layer 31 copy 4"><path class="cls-1" d="M170.24,9.64h8.61V52.32h-8.61V35H154.32V52.32h-8.61V9.64h8.61V27.23h15.92Z" transform="translate(-145.71 -7.65)"/><path class="cls-1" d="M185.54,37.88c0-9.16,7.31-15.24,15.55-15.24s15.55,6.08,15.55,15.24-7.31,15.18-15.55,15.18S185.54,47,185.54,37.88Zm22.86,0a7.32,7.32,0,1,0-14.62,0,7.32,7.32,0,1,0,14.62,0Z" transform="translate(-145.71 -7.65)"/><path class="cls-1" d="M256.35,23.39h8.8L254.93,52.32H248l-6-18.77-5.76,18.77h-6.94L218.81,23.39h8.8L233.06,41l5.52-17.65h6.81L250.9,41Z" transform="translate(-145.71 -7.65)"/><path class="cls-1" d="M305.55,7.65h8.11V52.32h-8.11V48.73c-2.05,3-6.08,4.33-9.3,4.33-7.43,0-14.18-5.94-14.18-15.24s6.75-15.18,14.18-15.18c3.35,0,7.25,1.31,9.3,4.28Zm-.25,30.17a7.63,7.63,0,0,0-7.5-7.62,7.55,7.55,0,0,0-7.49,7.62,7.5,7.5,0,1,0,15,0Z" transform="translate(-145.71 -7.65)"/><path class="cls-1" d="M320,37.88c0-9.16,7.31-15.24,15.55-15.24s15.55,6.08,15.55,15.24-7.31,15.18-15.55,15.18S320,47,320,37.88Zm22.86,0a7.32,7.32,0,1,0-14.62,0,7.32,7.32,0,1,0,14.62,0Z" transform="translate(-145.71 -7.65)"/><path class="cls-1" d="M389.3,23.39v6.32h-6.13V52.32h-8.11V29.71h-5.27V23.39h5.27V12.86h8.11V23.39Z" transform="translate(-145.71 -7.65)"/><path class="cls-1" d="M422.82,36.46V52.32H414.7V37c0-4.53-2.72-6.63-5.51-6.63s-6.51,1.61-6.51,6.81V52.32h-8.11V7.65h8.11V28c1.24-3.71,5.89-5.33,8.68-5.33C418.92,22.64,422.88,27.79,422.82,36.46Z" transform="translate(-145.71 -7.65)"/><path class="cls-1" d="M459.12,40.49H437.38c.87,3.4,3.59,5.39,7.43,5.39a10.35,10.35,0,0,0,7.62-3.41l4.71,4.77c-2.73,3.65-7.74,5.82-12.82,5.82-8.92,0-15.43-6.25-15.43-15.18,0-9.35,7.12-15.24,15.36-15.24s15.06,5.89,15.06,14.75C459.31,38.19,459.25,39.19,459.12,40.49Zm-8-5.27c-.25-3.41-3-5.57-6.69-5.57a6.72,6.72,0,0,0-7.06,5.57Z" transform="translate(-145.71 -7.65)"/><path class="cls-1" d="M483.53,23.39h8.74L474.43,66.51h-8.68l6.88-16.92-11.46-26.2h8.92l6.81,16.73Z" transform="translate(-145.71 -7.65)"/><path class="cls-1" d="M543.81,23.39h8.8L542.39,52.32h-6.94l-6-18.77-5.76,18.77H516.8L506.27,23.39h8.8L520.52,41,526,23.39h6.82L538.36,41Z" transform="translate(-145.71 -7.65)"/><path class="cls-1" d="M554.9,37.88c0-9.16,7.31-15.24,15.55-15.24S586,28.72,586,37.88s-7.31,15.18-15.55,15.18S554.9,47,554.9,37.88Zm22.86,0a7.32,7.32,0,1,0-14.62,0,7.32,7.32,0,1,0,14.62,0Z" transform="translate(-145.71 -7.65)"/><path class="cls-1" d="M613.51,23.57l-1.86,7.75a8.43,8.43,0,0,0-4.15-1.06c-4.15,0-7,3.91-7,12.15v9.91h-8.12V23.39h8.06v6.19c1.61-4.83,4.89-6.94,8.48-6.94A10.34,10.34,0,0,1,613.51,23.57Z" transform="translate(-145.71 -7.65)"/><path class="cls-1" d="M646.22,52.32h-10.1L626,39.81V52.32h-8.11V7.65H626v24.6l7.31-8.86h10.41L632.4,36.15Z" transform="translate(-145.71 -7.65)"/><path class="cls-1" d="M654.46,38l-.06-1.24c-.44-4.77.74-7.87,5.88-10l2.23-.87a5,5,0,0,0,3.22-4.59c0-3-2.1-4.7-5.08-4.7A5.32,5.32,0,0,0,655.33,22h-7.5c0-8.49,5.64-13.14,12.95-13.14s12.7,4.59,12.7,12a12.24,12.24,0,0,1-8.3,12c-2.36.8-4.09,1.42-4.09,4V38Zm-1.86,9.85a5.17,5.17,0,0,1,10.34,0,5.17,5.17,0,0,1-10.34,0Z" transform="translate(-145.71 -7.65)"/></g></g></svg>