<svg xmlns="http://www.w3.org/2000/svg" viewBox="0 0 733.9 85"><defs><style>.cls-1{fill:#ffd57d;}.cls-2{fill:#649e3d;}</style></defs><g id="Layer_2" data-name="Layer 2"><g id="Layer_31_copy_4" data-name="Layer 31 copy 4"><rect class="cls-1" width="733.9" height="85" rx="21.88"/><path class="cls-2" d="M20.17,48.65h8.61c.06,3,3,5.57,7,5.57s6.38-2.1,6.38-5.14c0-2.35-1.74-4-5.39-5.14l-5.2-1.49c-9.36-2.47-11-8.11-11-12,0-7.62,6.57-12.89,14.74-12.89s14.25,4.9,14.25,13H40.92c0-3-2.11-5.39-5.82-5.39-3.35,0-5.89,2.23-5.89,5.08,0,1.05.31,3.22,4.77,4.52l4.77,1.37c6.44,1.92,12.08,5.2,12.08,12.45,0,8.49-7.25,13.13-15.3,13.13C26.42,61.78,20.17,56.14,20.17,48.65Z"/><path class="cls-2" d="M55.73,46.6c0-9.16,7.31-15.24,15.55-15.24S86.83,37.44,86.83,46.6,79.52,61.78,71.28,61.78,55.73,55.71,55.73,46.6Zm22.86,0A7.32,7.32,0,1,0,64,46.6a7.32,7.32,0,1,0,14.62,0Z"/><path class="cls-2" d="M141.09,32.11h8.8L139.67,61h-6.94l-5.95-18.77L121,61h-6.94L103.55,32.11h8.8l5.45,17.65,5.52-17.65h6.81l5.51,17.65Z"/><path class="cls-2" d="M182.66,45.18V61h-8.11V45.68c0-4.53-2.73-6.63-5.51-6.63s-6.51,1.61-6.51,6.81V61h-8.11V16.37h8.11V36.69c1.24-3.71,5.89-5.33,8.67-5.33C178.76,31.36,182.73,36.51,182.66,45.18Z"/><path class="cls-2" d="M212.22,32.11h8.11V61h-8.11V56.89a11.46,11.46,0,0,1-9.54,4.89c-8,0-13.94-6.19-13.94-15.18s5.82-15.24,14.12-15.24c3.72,0,7.44,1.62,9.36,4.59ZM212,46.6a7.62,7.62,0,0,0-7.56-7.68,7.65,7.65,0,0,0,.06,15.3A7.63,7.63,0,0,0,212,46.6Z"/><path class="cls-2" d="M245.55,32.11v6.32h-6.14V61H231.3V38.43H226V32.11h5.27V21.58h8.11V32.11Z"/><path class="cls-2" d="M287.3,32.11h8.12V61H287.3V56.89a11.46,11.46,0,0,1-9.54,4.89c-8,0-13.94-6.19-13.94-15.18S269.65,31.36,278,31.36c3.71,0,7.43,1.62,9.35,4.59Zm-.25,14.49a7.62,7.62,0,0,0-7.56-7.68,7.65,7.65,0,0,0,.07,15.3A7.62,7.62,0,0,0,287.05,46.6Z"/><path class="cls-2" d="M324.72,32.29,322.86,40A8.43,8.43,0,0,0,318.71,39c-4.15,0-7,3.91-7,12.15V61H303.6V32.11h8V38.3c1.61-4.83,4.89-6.94,8.49-6.94A10.3,10.3,0,0,1,324.72,32.29Z"/><path class="cls-2" d="M356.69,49.21H334.94c.87,3.4,3.6,5.39,7.44,5.39A10.36,10.36,0,0,0,350,51.19L354.7,56c-2.72,3.65-7.74,5.82-12.82,5.82-8.92,0-15.42-6.25-15.42-15.18,0-9.35,7.12-15.24,15.36-15.24s15.05,5.89,15.05,14.75C356.87,46.91,356.81,47.91,356.69,49.21Zm-8-5.27c-.25-3.41-3-5.57-6.7-5.57a6.72,6.72,0,0,0-7.06,5.57Z"/><path class="cls-2" d="M412.51,61H401.36L387.6,43.88V61H379V18.36h8.61V35.83l11.9-17.47h10.34L395,39.54Z"/><path class="cls-2" d="M414.86,22.13a5.16,5.16,0,0,1,10.29,0,5.15,5.15,0,0,1-10.29,0ZM416,61V32.11h8.11V61Z"/><path class="cls-2" d="M463.86,46.54c0,9.36-6.75,15.24-14.18,15.24-3.29,0-7.25-1.36-9.3-4.33V75.23h-8.11V32.11h8.11v3.53c2.05-2.91,6-4.28,9.3-4.28C457.11,31.36,463.86,37.31,463.86,46.54Zm-8.3.06a7.47,7.47,0,1,0-14.93,0,7.67,7.67,0,0,0,7.5,7.62A7.49,7.49,0,0,0,455.56,46.6Z"/><path class="cls-2" d="M492.05,32.11h8.12V61h-8.12V56.89a11.45,11.45,0,0,1-9.54,4.89c-8,0-13.94-6.19-13.94-15.18s5.83-15.24,14.13-15.24c3.72,0,7.43,1.62,9.35,4.59Zm-.24,14.49a7.62,7.62,0,0,0-7.56-7.68,7.65,7.65,0,0,0,.06,15.3A7.63,7.63,0,0,0,491.81,46.6Z"/><path class="cls-2" d="M540.93,18.36c12.27,0,19.39,9.29,19.39,21.43S553.2,61,540.93,61H524.21V18.36Zm0,35.06c7.13,0,10.78-6.32,10.78-13.63S548.06,26,540.93,26h-8.11V53.42Z"/><path class="cls-2" d="M588,32.29,586.1,40A8.45,8.45,0,0,0,582,39c-4.16,0-7,3.91-7,12.15V61h-8.11V32.11h8V38.3c1.61-4.83,4.9-6.94,8.49-6.94A10.3,10.3,0,0,1,588,32.29Z"/><path class="cls-2" d="M589.63,46.6c0-9.16,7.31-15.24,15.55-15.24s15.55,6.08,15.55,15.24-7.31,15.18-15.55,15.18S589.63,55.71,589.63,46.6Zm22.86,0a7.32,7.32,0,1,0-14.62,0,7.32,7.32,0,1,0,14.62,0Z"/><path class="cls-2" d="M658.7,46.54c0,9.36-6.75,15.24-14.18,15.24-3.29,0-7.25-1.36-9.3-4.33V75.23h-8.11V32.11h8.11v3.53c2-2.91,6-4.28,9.3-4.28C652,31.36,658.7,37.31,658.7,46.54Zm-8.3.06a7.47,7.47,0,1,0-14.93,0,7.67,7.67,0,0,0,7.5,7.62A7.49,7.49,0,0,0,650.4,46.6Z"/><path class="cls-2" d="M663.35,51.93H671c0,1.68,1.43,3.47,4.27,3.47,2.36,0,4.16-1.18,4.16-2.85,0-1.24-1-1.86-3.16-2.41l-3.84-.93C665,47.22,664,43.07,664,40c0-4.46,4.65-8.68,11.34-8.68,5.26,0,11.46,2.54,11.4,9.42H679c0-2-1.61-3-3.53-3s-3.34,1-3.34,2.54,1.23,2,2.85,2.47L679.71,44c6.93,1.86,7.8,6.2,7.8,8.55,0,6.07-6.19,9.23-12.14,9.23S663.41,58.31,663.35,51.93Z"/><path class="cls-2" d="M698.66,46.73l-.06-1.24c-.43-4.77.74-7.87,5.89-10l2.23-.87a5,5,0,0,0,3.22-4.59c0-3-2.11-4.7-5.08-4.7a5.33,5.33,0,0,0-5.33,5.39H692c0-8.49,5.64-13.14,13-13.14s12.7,4.59,12.7,12a12.24,12.24,0,0,1-8.3,12c-2.35.8-4.09,1.42-4.09,4v1.18Zm-1.86,9.85a5.18,5.18,0,0,1,10.35,0,5.18,5.18,0,0,1-10.35,0Z"/></g></g></svg>