<svg xmlns="http://www.w3.org/2000/svg" viewBox="0 0 2626.21 1541.36"><defs><style>.cls-1{fill:none;stroke:#f6ede4;stroke-miterlimit:10;stroke-width:10px;}</style></defs><g id="Layer_2" data-name="Layer 2"><g id="Layer_19" data-name="Layer 19"><rect class="cls-1" x="547.52" y="-501.76" width="1531.36" height="2544.88" transform="translate(2083.88 -542.52) rotate(90)"/><line class="cls-1" x1="1313.2" y1="4.68" x2="1313.2" y2="1536.04"/><rect class="cls-1" x="-101.89" y="640.04" width="546.45" height="261.68" transform="translate(942.22 599.55) rotate(90)"/><rect class="cls-1" x="-8.69" y="725.68" width="188.79" height="90.41" transform="translate(856.58 685.18) rotate(90)"/><path class="cls-1" d="M36.8,1473a62.63,62.63,0,0,1,62.56,62.71"/><path class="cls-1" d="M103.62,4.17A62.63,62.63,0,0,1,40.91,66.73"/><rect class="cls-1" x="-30.09" y="753.61" width="105.27" height="35.09" transform="translate(793.7 748.61) rotate(90)"/><rect class="cls-1" x="2181.65" y="638.16" width="546.45" height="261.68" transform="translate(1685.87 3223.87) rotate(-90)"/><rect class="cls-1" x="2446.11" y="723.8" width="188.79" height="90.41" transform="translate(1771.5 3309.51) rotate(-90)"/><path class="cls-1" d="M2589.41,66.88a62.64,62.64,0,0,1-62.56-62.71"/><path class="cls-1" d="M2522.59,1535.72a62.63,62.63,0,0,1,62.71-62.57"/><rect class="cls-1" x="2551.03" y="751.19" width="105.27" height="35.09" transform="translate(1834.93 3372.4) rotate(-90)"/></g></g></svg>