<svg xmlns="http://www.w3.org/2000/svg" viewBox="0 0 149.14 150.13"><defs><style>.cls-1,.cls-2{fill:#f5ece3;}.cls-2{stroke:#649e3d;stroke-miterlimit:10;stroke-width:8px;}</style></defs><g id="Layer_2" data-name="Layer 2"><g id="Layer_31_copy_4" data-name="Layer 31 copy 4"><g id="DROP"><path class="cls-1" d="M4.79,50c-13.57,37.75,2.7,78.28,36.35,90.37l15.52,5.52c.7.29,1.41.57,2.13.83h0c33.59,12.08,72-8.81,85.53-46.56,6.54-18.17,6.4-37.55-.37-54.58-6.2-15.58-17.27-27.48-31.45-33.94-1.46-.67-3-1.28-4.5-1.83L90.32,3.42C56.73-8.65,18.35,12.23,4.79,50Z"/><path class="cls-2" d="M86.6,13.78c-27.93-10-59.92,7.83-71.46,39.92S16.9,120,44.83,130l0-.06,17.69,6.36L104.29,20.14Z"/><ellipse class="cls-2" cx="83.41" cy="78.24" rx="61.74" ry="53.74" transform="translate(-18.44 130.26) rotate(-70.23)"/><ellipse class="cls-2" cx="83.41" cy="78.24" rx="28.06" ry="24.42" transform="translate(-18.44 130.26) rotate(-70.23)"/></g></g></g></svg>