<svg xmlns="http://www.w3.org/2000/svg" viewBox="0 0 197.26 195.39"><defs><style>.cls-1,.cls-2{fill:#f5ece3;}.cls-2{stroke:#649e3d;stroke-miterlimit:10;stroke-width:8px;}</style></defs><g id="Layer_2" data-name="Layer 2"><g id="Layer_31_copy_4" data-name="Layer 31 copy 4"><g id="DROP"><path class="cls-1" d="M196.88,89.56C192.48,36.4,150.44-3.66,103.06.27L81.23,2.15c-1,0-2,.09-3,.17h0C30.88,6.24-4,52.68.37,105.83c2.12,25.59,13,49,30.56,65.84C47,187.1,67,195.39,87.7,195.39q3.22,0,6.45-.26l24.92-2.07C166.38,189.15,201.28,142.71,196.88,89.56Z"/><path class="cls-2" d="M117.86,178.48C157.19,175.22,186,136,182.3,90.76s-38.66-79.17-78-75.92v.08L79.4,17,93,180.54Z"/><ellipse class="cls-2" cx="86.17" cy="98.73" rx="71.46" ry="82.1" transform="translate(-7.85 7.45) rotate(-4.73)"/><ellipse class="cls-2" cx="86.17" cy="98.73" rx="32.47" ry="37.31" transform="translate(-7.85 7.45) rotate(-4.73)"/></g></g></g></svg>