<svg xmlns="http://www.w3.org/2000/svg" viewBox="0 0 957.08 1629.43"><defs><style>.cls-1,.cls-2{fill:none;stroke:#f5ece3;stroke-miterlimit:10;}.cls-1{stroke-width:8px;}.cls-2{stroke-width:6px;}</style></defs><g id="Layer_2" data-name="Layer 2"><g id="Layer_31_copy_2" data-name="Layer 31 copy 2"><rect class="cls-1" x="4" y="26.04" width="949.08" height="1577.23"/><line class="cls-2" x1="3.8" y1="814.66" x2="952.88" y2="814.66"/><ellipse class="cls-2" cx="478.54" cy="814.66" rx="61.63" ry="61.47"/><rect class="cls-1" x="309.33" y="1441.25" width="338.67" height="162.18"/><rect class="cls-1" x="420.16" y="1547.4" width="117" height="56.03"/><path class="cls-1" d="M913.82,1605.73A38.82,38.82,0,0,1,952.68,1567"/><path class="cls-1" d="M3.49,1564.31a38.82,38.82,0,0,1,38.77,38.86"/><rect class="cls-1" x="446.22" y="1603.69" width="65.24" height="21.75"/><rect class="cls-1" x="308.17" y="26" width="338.67" height="162.18" transform="translate(955 214.18) rotate(180)"/><rect class="cls-1" x="419" y="26" width="117" height="56.03" transform="translate(955 108.03) rotate(180)"/><path class="cls-2" d="M42.35,23.71A38.82,38.82,0,0,1,3.49,62.48"/><path class="cls-1" d="M952.68,65.12a38.82,38.82,0,0,1-38.77-38.86"/><rect class="cls-1" x="444.71" y="4" width="65.24" height="21.75" transform="translate(954.67 29.75) rotate(180)"/></g></g></svg>