<svg xmlns="http://www.w3.org/2000/svg" xmlns:xlink="http://www.w3.org/1999/xlink" viewBox="0 0 952.35 171.75"><defs><style>.cls-1{fill:none;}.cls-2{clip-path:url(#clip-path);}.cls-3{fill:#234460;}</style><clipPath id="clip-path" transform="translate(0 0)"><rect class="cls-1" width="952.35" height="171.75"/></clipPath></defs><g id="Layer_2" data-name="Layer 2"><g id="Layer_29" data-name="Layer 29"><g id="consolidated"><g class="cls-2"><g class="cls-2"><path class="cls-3" d="M434.62,134.18v-115a2.08,2.08,0,0,1,2.08-2.08c15.5,0,31-.06,46.5,0,9.94,0,19.81.74,29.38,3.83,17.6,5.68,29,17.31,34,35.16a77.15,77.15,0,0,1,1.85,30,63.53,63.53,0,0,1-6.06,21.62,47.26,47.26,0,0,1-19.6,20.21,63.43,63.43,0,0,1-27.55,7.81c-6.34.38-12.7.47-19,.51-13.12.07-26.23,0-39.34,0h-.12a2.08,2.08,0,0,1-2.08-2.08m46.69-76.54V94.81a2.08,2.08,0,0,0,2,2.08,32.28,32.28,0,0,0,4.06-.06c4.46-.45,8.08-2.42,10-6.64C500.9,82.38,501,74.28,499,66.08c-2-7.93-8.25-11.33-15.84-10.52a2.09,2.09,0,0,0-1.86,2.08" transform="translate(0 0)"/><path class="cls-3" d="M874.36,101.32c3.69,1.56,7.28,3.15,11,4.51a59.89,59.89,0,0,0,18.37,3.9,26.4,26.4,0,0,0,4.07-.17,2.92,2.92,0,0,0,2.76-2.74c0-1.71-1.36-2.14-2.63-2.36-4.91-.86-9.86-1.5-14.76-2.41-5.71-1.06-11.22-2.73-16.06-6.12C870,91,867.64,84,868,75.68a25,25,0,0,1,8.15-17.57c6.2-5.93,14.15-8.88,22.73-10.39a78.73,78.73,0,0,1,17-1A109,109,0,0,1,942.2,51c1.56.46,3.08,1.05,4.65,1.67a3.07,3.07,0,0,1,1.72,4c-1,2.53-1.92,4.94-2.86,7.35q-2.91,7.43-5.82,14.85A2,2,0,0,1,937,79.9a51.68,51.68,0,0,0-20.3-5,10.18,10.18,0,0,0-4.12.68,3.49,3.49,0,0,0-1.77,2.36,2.73,2.73,0,0,0,1.51,2.14,33,33,0,0,0,7,1.84,75.9,75.9,0,0,1,16.85,3.87c6.7,2.43,12.13,6.35,14.71,13.35a25.79,25.79,0,0,1,1.33,11c-.45,5.76-2.08,11.1-5.8,15.67s-8.5,7.2-13.82,9.22c-6.35,2.41-13,3.15-19.71,3.46a108.05,108.05,0,0,1-24.23-1.44c-8.08-1.46-15.87-3.9-22.91-8.34a2.17,2.17,0,0,1-.87-2.7c2.3-8,4.66-16,7-24,.32-1,.93-1.39,2.44-.77" transform="translate(0 0)"/><path class="cls-3" d="M559.77,136.16a2.1,2.1,0,0,1-2.1-2.09c0-28.06,0-55.85,0-83.65,0-1.2.34-1.57,1.53-1.56q18.39,0,36.79,0c1.22,0,1.57.45,1.54,1.6-.06,2.55,0,5.1,0,7.66a3.42,3.42,0,0,0,.45,1.78l.91-1.22A33.56,33.56,0,0,1,615,47.09c11.58-3.77,22.87,1.82,26.94,4.22a2.07,2.07,0,0,1,.87,2.57q-6.58,16.49-13.18,33a2.06,2.06,0,0,1-2.93,1,17.38,17.38,0,0,0-10.89-2.12c-8,1.21-13.72,8.35-14.6,14.76a13.88,13.88,0,0,0-.12,2.15c-.21,17.36-.32,29.63-.18,31.4a2.23,2.23,0,0,1-.45,1.74,2.18,2.18,0,0,1-1.73.44c-1.71-.14-17.15-.15-39-.12" transform="translate(0 0)"/><path class="cls-3" d="M132.37,49.24h34.28a2.09,2.09,0,0,1,2.08,2.09V134.2a2.08,2.08,0,0,1-2.08,2.08H132.37a2.08,2.08,0,0,1-2.08-2.08V51.33a2.09,2.09,0,0,1,2.08-2.09" transform="translate(0 0)"/><path class="cls-3" d="M149.43,40.45a26.38,26.38,0,0,1-12-2.57,18.14,18.14,0,0,1-10.14-13.4c-1.38-7.64.66-14.14,6.2-19.15A19.78,19.78,0,0,1,143.29.65a29.31,29.31,0,0,1,16.25,1.09c6.14,2.35,10.57,6.72,12.07,13.87,1.77,8.37-1.32,16.66-8.3,21.16a22.77,22.77,0,0,1-10.26,3.44c-1.2.12-2.41.16-3.62.24" transform="translate(0 0)"/><path class="cls-3" d="M70.74,19.18A81.28,81.28,0,0,1,59.4,43.68,76.24,76.24,0,0,1,45.89,58.34q0-19.47,0-38.93a2.08,2.08,0,0,0-2.08-2.08H2.08A2.08,2.08,0,0,0,0,19.41V134.29a2.08,2.08,0,0,0,2.08,2.08H44a2.08,2.08,0,0,0,2.08-2.1Q46,117.13,45.87,100c1.13,3.13,10.23,27,35.59,35.32,16.22,5.32,30.79.32,36.74-1.93a2.07,2.07,0,0,0,1.34-2V93.89a2.08,2.08,0,0,0-3.21-1.74,22.41,22.41,0,0,1-12,3.61c-10.77,0-17.13-8-17.85-8.88a22.57,22.57,0,0,1-3.82-7.7,2,2,0,0,1,.52-2,148.81,148.81,0,0,0,19-23.56,148.57,148.57,0,0,0,16.25-33.58,2.09,2.09,0,0,0-2-2.75c-9.28,0-42.1-.06-43.15-.05a2.37,2.37,0,0,0-2.61,1.91" transform="translate(0 0)"/><path class="cls-3" d="M219.49,50.65v8a.13.13,0,0,0,.23.08c6.18-7.54,16.17-12.54,28.34-12.54,19,0,39.68,15.56,39.68,46.52,0,34-21.9,46-40.71,46a44.81,44.81,0,0,1-26-8.22.13.13,0,0,0-.21.1v39.1a2,2,0,0,1-2,2H179.46a2,2,0,0,1-2-2V50.65a2,2,0,0,1,2-2h38a2,2,0,0,1,2,2m11.29,56.62c7.7,0,12.49-5.13,12.49-13.17,0-8.55-4.79-13.51-12.49-13.51-7.52,0-12.14,5.31-12.14,13.51s4.62,13.17,12.14,13.17" transform="translate(0 0)"/><path class="cls-3" d="M690.24,46.22c33.41,0,51.76,20.18,51.76,46,0,25.32-18.35,46.52-51.76,46.52s-51.45-20.18-51.45-46c0-25.32,18.19-46.52,51.45-46.52m0,59.34c7.7,0,12.49-5.13,12.49-13.17,0-8.55-4.79-13.51-12.49-13.51-7.52,0-12.14,5.3-12.14,13.51s4.62,13.17,12.14,13.17" transform="translate(0 0)"/><path class="cls-3" d="M792.73,50.65v8a.13.13,0,0,0,.23.08c6.18-7.54,16.17-12.54,28.33-12.54,19,0,39.68,15.56,39.68,46.52,0,34-21.89,46-40.7,46a44.81,44.81,0,0,1-26-8.22.13.13,0,0,0-.21.1v39.1a2,2,0,0,1-2,2H752.69a2,2,0,0,1-2-2V50.65a2,2,0,0,1,2-2h38a2,2,0,0,1,2,2M804,107.27c7.7,0,12.48-5.13,12.48-13.17,0-8.55-4.78-13.51-12.48-13.51-7.53,0-12.14,5.31-12.14,13.51s4.61,13.17,12.14,13.17" transform="translate(0 0)"/><path class="cls-3" d="M391.67,79.08h0a37.38,37.38,0,0,0-3.87-11.23c-.45-.82-.91-1.59-1.38-2.33,0,0-.67-1.07-1.34-2A41,41,0,0,0,370,51c-10.58-5.32-22.56-6-25.46-6.15a65.27,65.27,0,0,0-27.85,4.31c-8,3.15-11.43,5.55-15.31,8.84a2.07,2.07,0,0,0-.4,2.7l10.37,16.11a2.12,2.12,0,0,0,2.59.8,48.42,48.42,0,0,1,24.59-2.71s5.2.71,8.47,3.23a13.87,13.87,0,0,1,4.81,10.06.14.14,0,0,1-.22.12c-6.13-4.49-14.09-6.16-24.06-6.16-15.57,0-35.92,5.64-35.92,28.91,0,17.95,13.34,27.7,32.5,27.7,11.65,0,21.46-2.83,27.47-10.64a.13.13,0,0,1,.24.08v6.13a2,2,0,0,0,2,2H390.1a2,2,0,0,0,2-2V86.57a58.78,58.78,0,0,0-.47-7.49m-49,36.39c-5.3,0-9.58-1-9.58-6.84,0-4.27,2.74-6.84,10.09-6.84,5.31,0,9.07,1.71,9.07,6.33,0,3.93-2.74,7.35-9.58,7.35" transform="translate(0 0)"/></g></g></g></g></g></svg>