<svg xmlns="http://www.w3.org/2000/svg" viewBox="0 0 2428 1530"><defs><style>.cls-1{fill:#649f3d;}</style></defs><g id="Layer_2" data-name="Layer 2"><g id="Layer_20_copy" data-name="Layer 20 copy"><path class="cls-1" d="M2358.47,0h-11.72V7.43h11.72V0ZM2335,0h-11.73V7.43H2335V0Zm-23.46,0h-11.73V7.43h11.73V0ZM2288.1,0h-11.73V7.43h11.73V0Zm-23.46,0h-11.73V7.43h11.73V0Zm-23.46,0h-11.73V7.43h11.73V0Zm-23.46,0H2206V7.43h11.72V0Zm-23.45,0h-11.73V7.43h11.73V0Zm-23.46,0h-11.73V7.43h11.73V0Zm-23.46,0h-11.73V7.43h11.73V0Zm-23.46,0h-11.73V7.43h11.73V0Zm-23.46,0H2088.7V7.43h11.73V0ZM2077,0h-11.73V7.43H2077V0Zm-23.46,0h-11.73V7.43h11.73V0Zm-23.46,0h-11.73V7.43h11.73V0ZM2006.6,0h-11.73V7.43h11.73V0Zm-23.46,0h-11.73V7.43h11.73V0Zm-23.46,0H1948V7.43h11.73V0Zm-23.45,0H1924.5V7.43h11.73V0Zm-23.46,0H1901V7.43h11.73V0Zm-23.46,0h-11.73V7.43h11.73V0Zm-23.46,0h-11.73V7.43h11.73V0Zm-23.46,0h-11.73V7.43h11.73V0Zm-23.46,0h-11.72V7.43h11.72V0Zm-23.45,0h-11.73V7.43h11.73V0ZM1772,0h-11.73V7.43H1772V0Zm-23.46,0h-11.73V7.43h11.73V0ZM1725.1,0h-11.73V7.43h11.73V0Zm-23.46,0h-11.73V7.43h11.73V0Zm-23.46,0h-11.72V7.43h11.72V0Zm-23.45,0H1643V7.43h11.73V0Zm-23.46,0h-11.73V7.43h11.73V0Zm-23.46,0h-11.73V7.43h11.73V0Zm-23.46,0h-11.73V7.43h11.73V0Zm-23.46,0h-11.73V7.43h11.73V0Zm-23.46,0h-11.72V7.43h11.72V0ZM1514,0h-11.73V7.43H1514V0Zm-23.46,0h-11.73V7.43h11.73V0Zm-23.46,0h-11.73V7.43h11.73V0ZM1443.6,0h-11.73V7.43h11.73V0Zm-23.46,0h-11.73V7.43h11.73V0Zm-23.45,0H1385V7.43h11.73V0Zm-23.46,0H1361.5V7.43h11.73V0Zm-23.46,0H1338V7.43h11.73V0Zm-23.46,0h-11.73V7.43h11.73V0Zm-23.46,0h-11.73V7.43h11.73V0Zm-23.46,0h-11.73V7.43h11.73V0Zm-23.45,0h-11.73V7.43h11.73V0Zm-23.46,0h-11.73V7.43h11.73V0ZM1209,0h-11.73V7.43H1209V0Zm-23.46,0h-11.73V7.43h11.73V0ZM1162.1,0h-11.73V7.43h11.73V0Zm-23.46,0h-11.72V7.43h11.72V0Zm-23.45,0h-11.73V7.43h11.73V0Zm-23.46,0H1080V7.43h11.73V0Zm-23.46,0h-11.73V7.43h11.73V0Zm-23.46,0h-11.73V7.43h11.73V0Zm-23.46,0h-11.73V7.43h11.73V0ZM997.89,0H986.17V7.43h11.72V0ZM974.44,0H962.71V7.43h11.73V0ZM951,0H939.25V7.43H951V0ZM927.52,0H915.79V7.43h11.73V0ZM904.06,0H892.33V7.43h11.73V0ZM880.6,0H868.87V7.43H880.6V0ZM857.15,0H845.42V7.43h11.73V0ZM833.69,0H822V7.43h11.73V0ZM810.23,0H798.5V7.43h11.73V0ZM786.77,0H775V7.43h11.73V0ZM763.31,0H751.58V7.43h11.73V0ZM739.85,0H728.12V7.43h11.73V0ZM716.4,0H704.67V7.43H716.4V0ZM692.94,0H681.21V7.43h11.73V0ZM669.48,0H657.75V7.43h11.73V0ZM646,0H634.29V7.43H646V0ZM622.56,0H610.83V7.43h11.73V0ZM599.1,0H587.38V7.43H599.1V0ZM575.65,0H563.92V7.43h11.73V0ZM552.19,0H540.46V7.43h11.73V0ZM528.73,0H517V7.43h11.73V0ZM505.27,0H493.54V7.43h11.73V0ZM481.81,0H470.08V7.43h11.73V0ZM458.35,0H446.63V7.43h11.72V0ZM434.9,0H423.17V7.43H434.9V0ZM411.44,0H399.71V7.43h11.73V0ZM388,0H376.25V7.43H388V0ZM364.52,0H352.79V7.43h11.73V0ZM341.06,0H329.33V7.43h11.73V0ZM317.61,0H305.88V7.43h11.73V0ZM294.15,0H282.42V7.43h11.73V0ZM270.69,0H259V7.43h11.73V0ZM247.23,0H235.5V7.43h11.73V0ZM223.77,0H212V7.43h11.73V0ZM200.31,0H188.58V7.43h11.73V0ZM176.86,0H165.13V7.43h11.73V0ZM153.4,0H141.67V7.43H153.4V0ZM129.94,0H118.21V7.43h11.73V0ZM106.48,0H94.75V7.43h11.73V0ZM83,0H71.29V7.43H83V0ZM59.6.7l-2.2.35h0l-.25.05h-.37a68.92,68.92,0,0,0-8.6,2.17l2.28,7.07A61.21,61.21,0,0,1,60.65,8.06L59.6.7ZM37.38,7.86c-1.25.66-2.48,1.35-3.68,2.07h0l-.07,0h0l-.07,0h0l-.27.17,0,0,0,0,0,0,0,0-.05,0,0,0-.06,0,0,0-.07,0h0l-.09.05h0l-.18.11h0l-.08.05h0l-.08.05h0c-.82.52-1.64,1.06-2.43,1.61h0l-.17.12h0l-.17.11h0l-.07.05,0,0-.06,0,0,0-.05,0,0,0,0,0,0,0,0,0c-.59.42-1.18.85-1.75,1.28L32,20.06a61.8,61.8,0,0,1,8.83-5.61L37.38,7.86ZM18.79,22a68.53,68.53,0,0,0-4.85,5.77h0l0,.07h0l0,.07v0l-.05.06h0a2.35,2.35,0,0,1-.19.25h0l-.05.07,0,0,0,.06,0,0,0,.06,0,0,0,.07,0,0-.05.07h0l-.12.17h0l-.06.08v0L13,29h0L13,29.1h0l0,.08h0c-.47.65-.93,1.31-1.37,2l6.19,4.1a63.36,63.36,0,0,1,6.5-8.21L18.79,22ZM5.9,41.46h0l0,.06v0l0,.07h0c-.75,1.71-1.44,3.47-2.05,5.26h0l0,.07v0l0,.07v0l0,.07h0l-.09.25h0l0,.07v0l0,.06v0l0,.06v0l0,.06v0l0,.06v0l0,.11v0l0,0v0l0,.05v0l0,0,0,.06v.09l0,0,0,.06v.05l0,.08v0l0,0v.05l0,0v.05l0,0v0l0,.06v0l0,.06v0l0,.09v0l0,.07v0l0,.06v0l0,0v.1l0,0v.06l0,0,0,.09,0,0V50l0,.05v0l0,0v.09l0,0v0l-.06.23h0l0,.07v0l0,.07v0l0,.08h0c-.16.56-.31,1.12-.45,1.69l7.2,1.81a61.76,61.76,0,0,1,3.4-9.89l-6.79-3ZM.21,64.1C.12,65.27.06,66.44,0,67.62H0v.22H0V68H0c0,.07,0,.14,0,.22H0v.22H0v.11H0v.21H0v.11H0v.33H0v6.64H7.43v-6.3c0-1.62.06-3.25.18-4.86L.21,64.1ZM7.43,87.55H0V99.28H7.43V87.55Zm0,23.46H0v11.73H7.43V111Zm0,23.46H0V146.2H7.43V134.47Zm0,23.46H0v11.73H7.43V157.93Zm0,23.46H0v11.73H7.43V181.39Zm0,23.46H0v11.73H7.43V204.85Zm0,23.45H0V240H7.43V228.3Zm0,23.46H0v11.73H7.43V251.76Zm0,23.46H0V287H7.43V275.22Zm0,23.46H0v11.73H7.43V298.68Zm0,23.46H0v11.73H7.43V322.14Zm0,23.46H0v11.73H7.43V345.6Zm0,23.45H0v11.73H7.43V369.05Zm0,23.46H0v11.73H7.43V392.51Zm0,23.46H0V427.7H7.43V416Zm0,23.46H0v11.73H7.43V439.43Zm0,23.46H0v11.73H7.43V462.89Zm0,23.46H0v11.72H7.43V486.35Zm0,23.45H0v11.73H7.43V509.8Zm0,23.46H0V545H7.43V533.26Zm0,23.46H0v11.73H7.43V556.72Zm0,23.46H0v11.73H7.43V580.18Zm0,23.46H0v11.73H7.43V603.64Zm0,23.45H0v11.73H7.43V627.09Zm0,23.46H0v11.73H7.43V650.55Zm0,23.46H0v11.73H7.43V674Zm0,23.46H0V709.2H7.43V697.47Zm0,23.46H0v11.73H7.43V720.93Zm0,23.46H0v11.73H7.43V744.39Zm0,23.45H0v11.73H7.43V767.84Zm0,23.46H0V803H7.43V791.3Zm0,23.46H0v11.73H7.43V814.76Zm0,23.46H0V850H7.43V838.22Zm0,23.46H0v11.73H7.43V861.68Zm0,23.46H0v11.72H7.43V885.14Zm0,23.45H0v11.73H7.43V908.59Zm0,23.46H0v11.73H7.43V932.05Zm0,23.46H0v11.73H7.43V955.51Zm0,23.46H0V990.7H7.43V979Zm0,23.46H0v11.73H7.43v-11.73Zm0,23.46H0v11.72H7.43v-11.72Zm0,23.45H0v11.73H7.43v-11.73Zm0,23.46H0v11.73H7.43V1072.8Zm0,23.46H0V1108H7.43v-11.73Zm0,23.46H0v11.73H7.43v-11.73Zm0,23.46H0v11.73H7.43v-11.73Zm0,23.45H0v11.73H7.43v-11.73Zm0,23.46H0v11.73H7.43v-11.73Zm0,23.46H0v11.73H7.43v-11.73Zm0,23.46H0v11.73H7.43V1237Zm0,23.46H0v11.73H7.43v-11.73Zm0,23.46H0v11.73H7.43v-11.73Zm0,23.45H0v11.73H7.43v-11.73Zm0,23.46H0v11.73H7.43v-11.73Zm0,23.46H0V1366H7.43V1354.3Zm0,23.46H0v11.73H7.43v-11.73Zm0,23.46H0V1413H7.43v-11.73Zm0,23.46H0v11.72H7.43v-11.72Zm0,23.45H0v11.73H7.43v-11.73Zm.78,22.24-7.33,1.18c.06.41.13.82.2,1.22v.11h0a2.87,2.87,0,0,0,0,.31v.44l0,.1v.54l0,.09v.44l0,.08v.36l0,.06v0l0,.08v0c0,.07,0,.14,0,.2v0l0,.08v0l0,.08v0l0,.09h0a70.8,70.8,0,0,0,2,7l7-2.4a62,62,0,0,1-2.52-10.15Zm6.72,19.73-6.52,3.54q1.52,2.8,3.29,5.44v0l.05.06,0,0,0,.06v0l0,.06,0,0,0,.05,0,0,0,.06,0,0,0,0,0,0,0,0,0,0,0,0,0,0,0,0,0,.06,0,0,0,.06h0q1.23,1.77,2.55,3.46l5.84-4.59a62.8,62.8,0,0,1-5.76-8.74Zm12.9,16.39-5,5.51a72,72,0,0,0,5.84,4.75h0l.07,0h0l.08.06h0l.07.05h0l.25.18h0l.07.05h0l.06,0h0l.06,0,0,0,.06,0,0,0,.06,0,0,0,.16.11,0,0,.06,0,0,0,.05,0,0,0,0,0,0,0,0,0,0,0,0,0,0,0,0,0,.19.13h0l.06,0h0l.05,0,0,0,.07,0h0l.06,0h0l.06,0h0l.3.2h0l.07,0h0l.07,0h0l.07,0h0l.46.3h0l.31.2,4-6.26a61.67,61.67,0,0,1-8.32-6.36Zm17.58,11.23-2.89,6.84.49.2h0l.06,0h0l.05,0,0,0,0,0,.06,0h0l.29.12h0l.09,0h0c1.77.71,3.58,1.35,5.41,1.91h0l.09,0h0l.09,0h0l.1,0h0l.19.06h0l.06,0h0l.05,0h.09l.06,0h0l.06,0h0l.25.07h0l.08,0h0c1.06.3,2.13.58,3.21.83l1.69-7.23a62,62,0,0,1-9.94-3.23Zm20.29,4.74-.45,7.41.53,0h.14l.39,0H77v-7.43H69.53c-1.28,0-2.56,0-3.83-.11Zm34.74.11H88.71V1530h11.73v-7.43Zm23.46,0H112.17V1530H123.9v-7.43Zm23.46,0H135.63V1530h11.73v-7.43Zm23.46,0H159.09V1530h11.73v-7.43Zm23.45,0H182.54V1530h11.73v-7.43Zm23.46,0H206V1530h11.73v-7.43Zm23.46,0H229.46V1530h11.73v-7.43Zm23.46,0H252.92V1530h11.73v-7.43Zm23.46,0H276.38V1530h11.73v-7.43Zm23.46,0H299.84V1530h11.73v-7.43Zm23.45,0H323.29V1530H335v-7.43Zm23.46,0H346.75V1530h11.73v-7.43Zm23.46,0H370.21V1530h11.73v-7.43Zm23.46,0H393.67V1530H405.4v-7.43Zm23.46,0H417.13V1530h11.73v-7.43Zm23.45,0H440.59V1530h11.72v-7.43Zm23.46,0H464V1530h11.73v-7.43Zm23.46,0H487.5V1530h11.73v-7.43Zm23.46,0H511V1530h11.73v-7.43Zm23.46,0H534.42V1530h11.73v-7.43Zm23.46,0H557.88V1530h11.73v-7.43Zm23.45,0H581.34V1530h11.72v-7.43Zm23.46,0H604.79V1530h11.73v-7.43Zm23.46,0H628.25V1530H640v-7.43Zm23.46,0H651.71V1530h11.73v-7.43Zm23.46,0H675.17V1530H686.9v-7.43Zm23.46,0H698.63V1530h11.73v-7.43Zm23.45,0H722.08V1530h11.73v-7.43Zm23.46,0H745.54V1530h11.73v-7.43Zm23.46,0H769V1530h11.73v-7.43Zm23.46,0H792.46V1530h11.73v-7.43Zm23.46,0H815.92V1530h11.73v-7.43Zm23.46,0H839.38V1530h11.73v-7.43Zm23.45,0H862.83V1530h11.73v-7.43Zm23.46,0H886.29V1530H898v-7.43Zm23.46,0H909.75V1530h11.73v-7.43Zm23.46,0H933.21V1530h11.73v-7.43Zm23.46,0H956.67V1530H968.4v-7.43Zm23.45,0H980.13V1530h11.72v-7.43Zm23.46,0h-11.73V1530h11.73v-7.43Zm23.46,0H1027V1530h11.73v-7.43Zm23.46,0H1050.5V1530h11.73v-7.43Zm23.46,0H1074V1530h11.73v-7.43Zm23.46,0h-11.73V1530h11.73v-7.43Zm23.45,0h-11.72V1530h11.72v-7.43Zm23.46,0h-11.73V1530h11.73v-7.43Zm23.46,0h-11.73V1530h11.73v-7.43Zm23.46,0h-11.73V1530H1203v-7.43Zm23.46,0h-11.73V1530h11.73v-7.43Zm23.46,0h-11.73V1530h11.73v-7.43Zm23.45,0h-11.73V1530h11.73v-7.43Zm23.46,0h-11.73V1530h11.73v-7.43Zm23.46,0h-11.73V1530h11.73v-7.43Zm23.46,0H1332V1530h11.73v-7.43Zm23.46,0h-11.73V1530h11.73v-7.43Zm23.46,0h-11.73V1530h11.73v-7.43Zm23.45,0h-11.73V1530h11.73v-7.43Zm23.46,0h-11.73V1530h11.73v-7.43Zm23.46,0h-11.73V1530H1461v-7.43Zm23.46,0h-11.73V1530h11.73v-7.43Zm23.46,0h-11.73V1530h11.73v-7.43Zm23.45,0h-11.72V1530h11.72v-7.43Zm23.46,0h-11.73V1530h11.73v-7.43Zm23.46,0h-11.73V1530h11.73v-7.43Zm23.46,0H1590V1530h11.73v-7.43Zm23.46,0H1613.5V1530h11.73v-7.43Zm23.46,0H1637V1530h11.73v-7.43Zm23.45,0h-11.72V1530h11.72v-7.43Zm23.46,0h-11.73V1530h11.73v-7.43Zm23.46,0h-11.73V1530h11.73v-7.43Zm23.46,0h-11.73V1530h11.73v-7.43Zm23.46,0h-11.73V1530H1766v-7.43Zm23.46,0h-11.73V1530h11.73v-7.43Zm23.45,0h-11.73V1530h11.73v-7.43Zm23.46,0h-11.73V1530h11.73v-7.43Zm23.46,0h-11.73V1530h11.73v-7.43Zm23.46,0h-11.73V1530h11.73v-7.43Zm23.46,0H1895V1530h11.73v-7.43Zm23.46,0h-11.73V1530h11.73v-7.43Zm23.45,0h-11.73V1530h11.73v-7.43Zm23.46,0h-11.73V1530h11.73v-7.43Zm23.46,0h-11.73V1530h11.73v-7.43Zm23.46,0h-11.73V1530H2024v-7.43Zm23.46,0h-11.73V1530h11.73v-7.43Zm23.45,0h-11.72V1530h11.72v-7.43Zm23.46,0h-11.73V1530h11.73v-7.43Zm23.46,0h-11.73V1530h11.73v-7.43Zm23.46,0h-11.73V1530h11.73v-7.43Zm23.46,0H2153V1530h11.73v-7.43Zm23.46,0H2176.5V1530h11.73v-7.43Zm23.45,0H2200V1530h11.72v-7.43Zm23.46,0h-11.73V1530h11.73v-7.43Zm23.46,0h-11.73V1530h11.73v-7.43Zm23.46,0h-11.73V1530h11.73v-7.43Zm23.46,0h-11.73V1530h11.73v-7.43Zm23.46,0h-11.73V1530H2329v-7.43Zm23.45,0H2340.7V1530h11.73v-7.43Zm21.45-1.92a61.93,61.93,0,0,1-10.32,1.72l.6,7.4a69.14,69.14,0,0,0,10.94-1.77h0l.07,0h0l.06,0h.14l0,0,.09,0h0l.1,0h.07l-1.83-7.2Zm19-8.49a61,61,0,0,1-9.16,5l3,6.79.75-.35h0l.08,0h0l.06,0h0l.07,0h0l.06,0h0l.08,0,.07,0h0l.07,0h0l.08,0h0l.07,0h0l.08,0h0a70.74,70.74,0,0,0,8.61-4.89l-4.13-6.18Zm15.17-14.33a60.77,60.77,0,0,1-7,7.8l5.1,5.4a70.28,70.28,0,0,0,7.81-8.72l-5.93-4.48Zm9.58-18.51a62,62,0,0,1-4,9.66l6.6,3.41.72-1.44,0,0,0-.05,0,0,0,0,0,0,0,0,0-.06,0,0,.18-.37h0q1.3-2.76,2.38-5.65h0l0-.1h0l.15-.4h0l0-.08v0l0-.08v0l0-.08v0l.07-.19h0l0-.09v0l0-.07v0l0-.07v0l0-.06v0l0-.06v0l0-.09h0l0-.09v0l0,0,0,0v0l0,0,0-.05v0l0,0v0l0,0,0-.06,0-.08,0,0v0l0,0,0-.05v0l0,0v0l0,0v-.06l0,0v0l0,0,0-.08v0l-7.08-2.25Zm10.34-20.87h-7.43v2a63.8,63.8,0,0,1-.59,8.65l7.35,1c.11-.78.21-1.56.29-2.34h0c0-.07,0-.14,0-.2v-.81h0v-.22h0v-.13h0v-.07h0c.07-.85.12-1.7.16-2.56h0a1.48,1.48,0,0,0,0-.21v-.09h0v-1.73h0v-1h0v-.22h0v-2Zm0-23.46h-7.43v11.73H2428V1435Zm0-23.46h-7.43v11.73H2428v-11.73Zm0-23.46h-7.43v11.73H2428v-11.73Zm0-23.46h-7.43v11.73H2428v-11.73Zm0-23.46h-7.43v11.73H2428v-11.73Zm0-23.45h-7.43v11.73H2428V1317.7Zm0-23.46h-7.43V1306H2428v-11.73Zm0-23.46h-7.43v11.73H2428v-11.73Zm0-23.46h-7.43v11.73H2428v-11.73Zm0-23.46h-7.43v11.73H2428v-11.73Zm0-23.45h-7.43v11.72H2428v-11.72Zm0-23.46h-7.43v11.73H2428V1177Zm0-23.46h-7.43v11.73H2428v-11.73Zm0-23.46h-7.43v11.73H2428V1130Zm0-23.46h-7.43v11.73H2428v-11.73Zm0-23.46h-7.43v11.73H2428v-11.73Zm0-23.45h-7.43v11.73H2428v-11.73Zm0-23.46h-7.43v11.73H2428V1036.2Zm0-23.46h-7.43v11.73H2428v-11.73Zm0-23.46h-7.43V1001H2428V989.28Zm0-23.46h-7.43v11.73H2428V965.82Zm0-23.46h-7.43v11.73H2428V942.36Zm0-23.45h-7.43v11.73H2428V918.91Zm0-23.46h-7.43v11.73H2428V895.45Zm0-23.46h-7.43v11.73H2428V872Zm0-23.46h-7.43v11.73H2428V848.53Zm0-23.46h-7.43V836.8H2428V825.07Zm0-23.46h-7.43v11.73H2428V801.61Zm0-23.45h-7.43v11.73H2428V778.16Zm0-23.46h-7.43v11.73H2428V754.7Zm0-23.46h-7.43V743H2428V731.24Zm0-23.46h-7.43v11.73H2428V707.78Zm0-23.46h-7.43v11.73H2428V684.32Zm0-23.45h-7.43v11.72H2428V660.87Zm0-23.46h-7.43v11.73H2428V637.41Zm0-23.46h-7.43v11.73H2428V614Zm0-23.46h-7.43v11.73H2428V590.49Zm0-23.46h-7.43v11.73H2428V567Zm0-23.46h-7.43V555.3H2428V543.57Zm0-23.45h-7.43v11.72H2428V520.12Zm0-23.46h-7.43v11.73H2428V496.66Zm0-23.46h-7.43v11.73H2428V473.2Zm0-23.46h-7.43v11.73H2428V449.74Zm0-23.46h-7.43V438H2428V426.28Zm0-23.46h-7.43v11.73H2428V402.82Zm0-23.45h-7.43V391.1H2428V379.37Zm0-23.46h-7.43v11.73H2428V355.91Zm0-23.46h-7.43v11.73H2428V332.45Zm0-23.46h-7.43v11.73H2428V309Zm0-23.46h-7.43v11.73H2428V285.53Zm0-23.46h-7.43V273.8H2428V262.07Zm0-23.45h-7.43v11.73H2428V238.62Zm0-23.46h-7.43v11.73H2428V215.16Zm0-23.46h-7.43v11.73H2428V191.7Zm0-23.46h-7.43V180H2428V168.24Zm0-23.46h-7.43v11.73H2428V144.78Zm0-23.45h-7.43v11.72H2428V121.33Zm0-23.46h-7.43V109.6H2428V97.87Zm0-23.46h-7.43V86.14H2428V74.41Zm-2.45-23.24-7.16,1.95a63,63,0,0,1,1.89,10.29l7.39-.72a69.29,69.29,0,0,0-2.12-11.52ZM2415.68,30l-6.1,4.22a62.91,62.91,0,0,1,5.21,9.08l6.73-3.14a71.15,71.15,0,0,0-3.8-7.05h0l-.06-.09h0l0-.09h0c-.07-.12-.14-.24-.22-.36h0l-.05-.08h0l0-.08h0l-.05-.08h0l-.05-.08h0l-.11-.18h0L2417,32v0l0-.07h0l0-.07v0l0-.07v0l-.06-.08h0l-.17-.26h0l-.06-.08h0l-.05-.08h0l-.79-1.16Zm-16.3-16.71-4.38,6a63,63,0,0,1,7.92,6.85l5.31-5.18c-.89-.92-1.81-1.81-2.76-2.68h0l-.06-.05v0l-.05,0,0,0,0-.05h0l-.05-.05,0,0-.05-.05,0,0-.07-.06,0,0,0,0,0,0,0,0,0,0,0,0-.05,0,0,0,0,0,0,0-.05-.05,0,0-.31-.27h0l-.07-.07h0c-1.13-1-2.28-1.93-3.47-2.84h0l-.07-.05h0l-.07-.06h0l-.08-.06h0l-.16-.13,0,0-.05,0,0,0,0,0,0,0,0,0,0,0h0l-.06,0h0l-.58-.43ZM2378.46,2.92,2376.33,10a61.68,61.68,0,0,1,9.73,3.84l3.3-6.65a69.77,69.77,0,0,0-9.59-3.9h0l-.08,0h0l-.06,0h0l-.06,0h0l-.07,0h0l-.09,0-.05,0h-.05l0,0h0l-.06,0h0l-.07,0h0l-.08,0h0l-.36-.1Zm-20-2.92V7.43a62.51,62.51,0,0,1,7.63.46l.9-7.37-1.39-.16h-.46l-.12,0h-.4c-1.24-.11-2.48-.19-3.73-.23h-2.43Z"/></g></g></svg>