<svg xmlns="http://www.w3.org/2000/svg" xmlns:xlink="http://www.w3.org/1999/xlink" viewBox="0 0 3064.21 2363.1"><defs><style>.cls-1{fill:none;}.cls-2{fill:#f5eee5;}.cls-3{fill:#649f3d;}.cls-4{fill:url(#New_Pattern);}</style><pattern id="New_Pattern" data-name="New Pattern" width="22.48" height="38.09" patternTransform="translate(-96.6 228.42) scale(1 1.13)" patternUnits="userSpaceOnUse" viewBox="0 0 22.48 38.09"><rect class="cls-1" width="22.48" height="38.09"/><path class="cls-2" d="M24.08,38.87a1.82,1.82,0,0,1-2.39.79,1.5,1.5,0,0,1-.82-2.12,2,2,0,0,1,2.36-1.13A1.72,1.72,0,0,1,24.08,38.87Z"/><path class="cls-2" d="M1.6,38.87a1.83,1.83,0,0,1-2.39.79,1.51,1.51,0,0,1-.83-2.12A2.05,2.05,0,0,1,.75,36.41,1.72,1.72,0,0,1,1.6,38.87Z"/><path class="cls-2" d="M12.84,19.83a1.82,1.82,0,0,1-2.39.78,1.49,1.49,0,0,1-.82-2.11A2,2,0,0,1,12,17.36,1.73,1.73,0,0,1,12.84,19.83Z"/><path class="cls-2" d="M24.08.78a1.82,1.82,0,0,1-2.39.79,1.5,1.5,0,0,1-.82-2.12,2,2,0,0,1,2.36-1.13A1.72,1.72,0,0,1,24.08.78Z"/><path class="cls-2" d="M1.6.78a1.83,1.83,0,0,1-2.39.79A1.51,1.51,0,0,1-1.62-.55,2.05,2.05,0,0,1,.75-1.68,1.72,1.72,0,0,1,1.6.78Z"/></pattern></defs><g id="Layer_2" data-name="Layer 2"><g id="Layer_16" data-name="Layer 16"><path class="cls-3" d="M3056.24,2363.1c2.65-119.43,5.31-2126.86,8-2246.3a1396,1396,0,0,0-259.94-33.31c-299.63-9.85-514.86,81.72-617,116.88C1752.67,350,1564.94,98.31,623.21,19.79A5690,5690,0,0,0,0,2C2.78,159.16,5.57,2204.34,8.35,2361.51Z"/><path class="cls-4" d="M3056.24,2363.1c2.65-119.43,5.31-2126.86,8-2246.3a1396,1396,0,0,0-259.94-33.31c-299.63-9.85-514.86,81.72-617,116.88C1752.67,350,1564.94,98.31,623.21,19.79A5690,5690,0,0,0,0,2C2.78,159.16,5.57,2204.34,8.35,2361.51Z"/></g></g></svg>