<svg xmlns="http://www.w3.org/2000/svg" xmlns:xlink="http://www.w3.org/1999/xlink" viewBox="0 0 2945 3017"><defs><style>.cls-1{fill:none;}.cls-2{fill:#f5eee5;}.cls-3{fill:#f0ae4b;}.cls-4{fill:url(#New_Pattern);}</style><pattern id="New_Pattern" data-name="New Pattern" width="22.48" height="38.09" patternTransform="translate(-105.21 455.43) scale(1.01 1.4)" patternUnits="userSpaceOnUse" viewBox="0 0 22.48 38.09"><rect class="cls-1" width="22.48" height="38.09"/><path class="cls-2" d="M24.08,38.87a1.82,1.82,0,0,1-2.39.79,1.5,1.5,0,0,1-.82-2.12,2,2,0,0,1,2.36-1.13A1.72,1.72,0,0,1,24.08,38.87Z"/><path class="cls-2" d="M1.6,38.87a1.83,1.83,0,0,1-2.39.79,1.51,1.51,0,0,1-.83-2.12A2.05,2.05,0,0,1,.75,36.41,1.72,1.72,0,0,1,1.6,38.87Z"/><path class="cls-2" d="M12.84,19.83a1.82,1.82,0,0,1-2.39.78,1.49,1.49,0,0,1-.82-2.11A2,2,0,0,1,12,17.36,1.73,1.73,0,0,1,12.84,19.83Z"/><path class="cls-2" d="M24.08.78a1.82,1.82,0,0,1-2.39.79,1.5,1.5,0,0,1-.82-2.12,2,2,0,0,1,2.36-1.13A1.72,1.72,0,0,1,24.08.78Z"/><path class="cls-2" d="M1.6.78a1.83,1.83,0,0,1-2.39.79A1.51,1.51,0,0,1-1.62-.55,2.05,2.05,0,0,1,.75-1.68,1.72,1.72,0,0,1,1.6.78Z"/></pattern></defs><g id="Layer_2" data-name="Layer 2"><g id="Layer_16" data-name="Layer 16"><path class="cls-3" d="M2945,167.87C2326.35,491.41,1868.76,434.32,1562.22,318.51,1288.47,215.08,945.17-7,416.66.17A1901.36,1901.36,0,0,0,0,52.6C1.35,393.86,2.7,2675.75,4.06,3017H2945Z"/><path class="cls-4" d="M2945,167.87C2326.35,491.41,1868.76,434.32,1562.22,318.51,1288.47,215.08,945.17-7,416.66.17A1901.36,1901.36,0,0,0,0,52.6C1.35,393.86,2.7,2657.75,4.06,2999H2945Z"/></g></g></svg>