<svg xmlns="http://www.w3.org/2000/svg" viewBox="0 0 667.75 188.53"><defs><style>.cls-1{fill:#ffebd4;stroke:#265d7f;stroke-miterlimit:10;stroke-width:10px;}.cls-2{fill:#265d7f;}</style></defs><g id="Layer_2" data-name="Layer 2"><g id="Layer_16" data-name="Layer 16"><rect class="cls-1" x="5" y="23.02" width="645.94" height="160.51" rx="41.87"/><rect class="cls-1" x="16.81" y="5" width="645.94" height="160.51" rx="41.87"/><path class="cls-2" d="M67,79.73a3.44,3.44,0,0,1-1.26.88,3.66,3.66,0,0,1-1.63.14,4.48,4.48,0,0,1-1.85-.59,4.13,4.13,0,0,1-1.32-1.28,12.67,12.67,0,0,1-1.15-2.18,29.26,29.26,0,0,1-1-3.13,22.39,22.39,0,0,1-.8-6.11,6.93,6.93,0,0,1,.83-3.72,2.39,2.39,0,0,1,2.33-1.2,3.77,3.77,0,0,1,1.53.5,7.63,7.63,0,0,1,1.68,1.38l.81.82c.28.3.75.78,1.34,1.45s.88,1,1.15,1.3l.78.8a16,16,0,0,0,3.48,2.74,8.16,8.16,0,0,0,3.32,1,2.47,2.47,0,0,0,2.12-.69,3.07,3.07,0,0,0,.78-2.24,3.67,3.67,0,0,0-1.32-2.73,21.77,21.77,0,0,0-5.33-3.06l-2.62-1.19Q63.4,60.19,61,57a12.25,12.25,0,0,1-2.38-7.62,12.94,12.94,0,0,1,3.72-9.67,13.32,13.32,0,0,1,9.78-3.7c.72,0,1.42,0,2.09.09a16.74,16.74,0,0,1,1.93.34,22.06,22.06,0,0,1,2.36.62c.86.28,1.38.45,1.56.49a4.3,4.3,0,0,0,.93.25,6.63,6.63,0,0,0,.83.07,1.44,1.44,0,0,0,.51-.09,1.56,1.56,0,0,0,.51-.34,4.06,4.06,0,0,0,.43-.39l.38-.4a3,3,0,0,1,1-.68,3.47,3.47,0,0,1,1.15-.18,3.33,3.33,0,0,1,2.36,1,8.33,8.33,0,0,1,1.82,3,11.19,11.19,0,0,1,.67,1.94,18.63,18.63,0,0,1,.46,2.19c.11.78.2,1.56.27,2.31s.11,1.48.11,2.18a6.91,6.91,0,0,1-.76,3.67,2.42,2.42,0,0,1-2.3,1.13,3.78,3.78,0,0,1-1.63-.47A8.15,8.15,0,0,1,85,51.34l-.7-.67c-.25-.23-.63-.6-1.13-1.11l-1.71-1.7c-.39-.37-.77-.71-1.13-1a11.7,11.7,0,0,0-2.65-1.74,6.3,6.3,0,0,0-2.44-.57,2.81,2.81,0,0,0-2.19.79,3,3,0,0,0-.81,2.18,2.86,2.86,0,0,0,1.21,2.25,21.5,21.5,0,0,0,5,2.54l2,.81q6.59,2.64,9.37,6.26a13.86,13.86,0,0,1,2.79,8.73c0,4.47-1.37,8-4.1,10.61S82.3,82.39,78,82a15.64,15.64,0,0,1-2.79-.51,35.37,35.37,0,0,1-4.66-1.95,8.87,8.87,0,0,0-1-.42,3.38,3.38,0,0,0-.69-.16,1.93,1.93,0,0,0-1,.13A3,3,0,0,0,67,79.73Z"/><path class="cls-2" d="M115.12,84.55c-2.61-.14-4.56-.3-5.85-.46a19.14,19.14,0,0,1-3.16-.64A5,5,0,0,1,103.65,82a4.09,4.09,0,0,1-.75-2.61,3.4,3.4,0,0,1,2.46-3.56,7.74,7.74,0,0,0,1.21-.52,7.09,7.09,0,0,0,1-.66,2.92,2.92,0,0,0,.75-1,5.2,5.2,0,0,0,.38-1.39c.09-.65.18-2,.24-4.07s.08-4.54.08-7.5,0-5.35-.06-7.57,0-3.68-.1-4.35a3.9,3.9,0,0,0-.22-1,3.2,3.2,0,0,0-.53-.91,2.06,2.06,0,0,0-.59-.49,2.87,2.87,0,0,0-.7-.23,3.19,3.19,0,0,0-.46-.08h-.51a1.69,1.69,0,0,0-.88.24,1.93,1.93,0,0,0-.67.76,4,4,0,0,0-.4.78c-.13.32-.31.84-.56,1.55s-.44,1.17-.57,1.51a5.92,5.92,0,0,1-.4.87A6.07,6.07,0,0,1,100.65,54a3.33,3.33,0,0,1-2.2.68,3.57,3.57,0,0,1-2.92-1.51,6.91,6.91,0,0,1-1-4.12,25.78,25.78,0,0,1,.75-6.38,15.42,15.42,0,0,1,2.15-5,5.84,5.84,0,0,1,1.55-1.58,3.09,3.09,0,0,1,1.77-.58,4.74,4.74,0,0,1,1.13.13,3.44,3.44,0,0,1,1.12.58,3.43,3.43,0,0,0,1,.58,3.35,3.35,0,0,0,1,.13h3.65c1.41,0,2.69-.06,3.78-.05H116c1.43,0,2.71,0,3.84,0s2.39,0,3.67,0c.69,0,1.24.07,1.58.07h1a2.27,2.27,0,0,0,.67-.1,4.07,4.07,0,0,0,.94-.49,6.88,6.88,0,0,1,1.56-.74,4.91,4.91,0,0,1,1.44-.2,3.12,3.12,0,0,1,1.45.37A5,5,0,0,1,133.5,37a12,12,0,0,1,2.25,4.9,30.13,30.13,0,0,1,.8,7.33,8.37,8.37,0,0,1-1.12,4.63,3.33,3.33,0,0,1-3,1.68,3.55,3.55,0,0,1-2.33-.9,8.34,8.34,0,0,1-1.9-3,21.76,21.76,0,0,0-2-4.36,3,3,0,0,0-.34-.37,3.39,3.39,0,0,0-.51-.37,1.79,1.79,0,0,0-.49-.17l-.48,0a5.84,5.84,0,0,0-.91.06,2.45,2.45,0,0,0-.64.18,1.11,1.11,0,0,0-.54.62,5.41,5.41,0,0,0-.27,1.2c-.07.56-.11,1.51-.13,2.83s0,4.66,0,9.92c0,3.35,0,6,.06,8s.09,3.26.16,3.72a4.9,4.9,0,0,0,.35,1.28,5.26,5.26,0,0,0,.77,1.24,4,4,0,0,0,.7.57,16.2,16.2,0,0,0,1.45.85,4.36,4.36,0,0,1,1.9,1.59,4.56,4.56,0,0,1,.45,2.16,3.49,3.49,0,0,1-.83,2.48,4.71,4.71,0,0,1-2.65,1.26,23.54,23.54,0,0,1-3.75.38C119,84.71,117.22,84.67,115.12,84.55Z"/><path class="cls-2" d="M140.09,85.66c-1.25,0-2.3-.12-3.16-.23a17.79,17.79,0,0,1-2.31-.46,4.63,4.63,0,0,1-2.17-1.19,2.89,2.89,0,0,1-.67-2,4.72,4.72,0,0,1,.43-2.07,6.66,6.66,0,0,1,1.5-1.84,9,9,0,0,0,.81-.93,7.11,7.11,0,0,0,.69-1.12c.33-.67.66-1.39,1-2.17s.66-1.64,1-2.56c.2-.59.43-1.23.67-1.91s.59-1.68,1-3c.69-2,1.2-3.55,1.56-4.61s.69-2.07,1-3c.93-2.69,1.73-5,2.39-6.82s1.25-3.57,1.79-5.12c.78-2.21,1.4-3.85,1.83-4.86a15.07,15.07,0,0,1,1.28-2.47,6.42,6.42,0,0,1,2.39-2.34,7.35,7.35,0,0,1,3.45-.72,7.83,7.83,0,0,1,3.19.56,5.34,5.34,0,0,1,2.12,1.79,12.54,12.54,0,0,1,1.18,2.12q.59,1.31,1.71,4.37c.4,1.09,1.13,3.26,2.2,6.47s1.75,5.25,2,6.14c.93,2.72,1.87,5.53,2.84,8.44s1.84,5.55,2.62,7.92c.22.6.41,1.09.57,1.48a5.33,5.33,0,0,0,.67,1.16,4.41,4.41,0,0,0,.53.74c.22.23.57.59,1.08,1.06A5.23,5.23,0,0,1,176.61,80a4.92,4.92,0,0,1,.3,1.94,3.3,3.3,0,0,1-.94,2.45,5,5,0,0,1-2.76,1.24,35.5,35.5,0,0,1-3.67.44c-1.3.1-2.71.13-4.21.12-2,0-3.69-.11-5.09-.26a16.68,16.68,0,0,1-3.11-.56,2.93,2.93,0,0,1-1.55-1.1,3.35,3.35,0,0,1-.54-2,4.05,4.05,0,0,1,.43-1.89,3.69,3.69,0,0,1,1.29-1.38l.56-.34a5.24,5.24,0,0,0,.67-.46,4.15,4.15,0,0,0,.78-1.08A2.82,2.82,0,0,0,159,76.1a6.13,6.13,0,0,0-.17-1.45,8.3,8.3,0,0,0-.58-1.59,1.68,1.68,0,0,0-.73-.88,3.47,3.47,0,0,0-1.42-.25l-2.28,0-2.33,0-2.06,0-2.06,0a1.71,1.71,0,0,0-1.05.23,2.09,2.09,0,0,0-.62.88,8.5,8.5,0,0,0-.5,1.47,5,5,0,0,0-.14,1.15,2.18,2.18,0,0,0,.19.93,2.38,2.38,0,0,0,.51.75,3.06,3.06,0,0,0,.67.49c.27.16.64.35,1.1.57a3.44,3.44,0,0,1,2.09,3.42A3.35,3.35,0,0,1,147,85.11a15,15,0,0,1-2.94.45A32.53,32.53,0,0,1,140.09,85.66ZM148.5,62a2.37,2.37,0,0,0-.05,1.64,1.22,1.22,0,0,0,1.18.54l1,0,1,0,1.21,0,1.2,0a.93.93,0,0,0,1-.57,3,3,0,0,0-.1-1.77c-.26-.87-.65-1.94-1.08-3.18s-.78-2.22-1.07-2.93a5.39,5.39,0,0,0-.59-1.2.69.69,0,0,0-.53-.28.76.76,0,0,0-.57.26,4.93,4.93,0,0,0-.56,1.25c-.23.65-.57,1.59-1,2.77S148.82,60.88,148.5,62Z"/><path class="cls-2" d="M190.79,86.53a34.45,34.45,0,0,1-5-.26,8.28,8.28,0,0,1-2.84-.84A3.45,3.45,0,0,1,181.55,84a4.49,4.49,0,0,1-.46-2.14,3.75,3.75,0,0,1,.62-2.18,6.13,6.13,0,0,1,2.38-1.8,10.2,10.2,0,0,0,1.23-.67,4.23,4.23,0,0,0,.75-.61,2.92,2.92,0,0,0,.73-1,2.72,2.72,0,0,0,.29-1c0-.16,0-.34,0-.51s0-.44,0-.77c0-.63.06-1.12.08-1.42s0-.58,0-.84a10,10,0,0,0-.4-3,16.22,16.22,0,0,0-1.63-3.34c-4.36-7.5-6.91-12.08-7.64-13.46s-1.31-2.57-1.74-3.57a7.15,7.15,0,0,0-.48-1c-.18-.27-.38-.54-.59-.82l-.35-.41c-.13-.13-.49-.45-1-1a4.53,4.53,0,0,1-1.1-1.47,4.34,4.34,0,0,1-.35-1.75,4,4,0,0,1,3-4.14,20.49,20.49,0,0,1,3.72-.76,37.31,37.31,0,0,1,4.74-.28q2.79,0,5,.21a17.93,17.93,0,0,1,3.38.56A4.29,4.29,0,0,1,194,38.27a3.93,3.93,0,0,1,.65,2.43,3.37,3.37,0,0,1-.65,2,4.5,4.5,0,0,1-1.82,1.44,7.06,7.06,0,0,0-2,1.2,1.87,1.87,0,0,0-.59,1.4,2.62,2.62,0,0,0,.05.55,12.35,12.35,0,0,0,.43,1.36,13.25,13.25,0,0,0,.64,1.43c.25.5,1.06,1.93,2.41,4.26.4.67.72,1.2,1,1.58a4.81,4.81,0,0,0,.75.9,2.09,2.09,0,0,0,.54.4,1.13,1.13,0,0,0,.53.14.89.89,0,0,0,.51-.17,2.36,2.36,0,0,0,.51-.5,14.07,14.07,0,0,0,1.37-2c.34-.63.72-1.41,1.15-2.36.68-1.53,1.16-2.74,1.45-3.62a7.6,7.6,0,0,0,.42-2.15,2.16,2.16,0,0,0-.24-1.1,1.51,1.51,0,0,0-.77-.62l-.59-.24a3.08,3.08,0,0,1-.59-.31,2.88,2.88,0,0,1-1.29-1.24,5.2,5.2,0,0,1-.37-2.22,4.05,4.05,0,0,1,.88-2.71A4.88,4.88,0,0,1,201,36.66a15.91,15.91,0,0,1,2.49-.38c.92-.07,2-.11,3.19-.11a21.72,21.72,0,0,1,2.66.15,25.82,25.82,0,0,1,2.6.42A3.82,3.82,0,0,1,214.16,38a4,4,0,0,1,.75,2.54,5.67,5.67,0,0,1-.46,2.29,5,5,0,0,1-1.31,1.79c-.36.32-.65.6-.89.82a7.55,7.55,0,0,0-.61.69,16.78,16.78,0,0,0-1.13,1.74q-.69,1.2-.75,1.26-1.81,3-4,7.08t-4.1,8a14.16,14.16,0,0,0-1.15,2.91,10.23,10.23,0,0,0-.3,2.49c0,1.08,0,2.07.06,3s.06,1.55.1,1.92a3.74,3.74,0,0,0,.3,1.11,1.33,1.33,0,0,0,.51.6,4.6,4.6,0,0,0,.59.35c.21.1.78.32,1.71.65a3.64,3.64,0,0,1,2,1.43,4.57,4.57,0,0,1,.59,2.49A3.42,3.42,0,0,1,205,83.78a8.71,8.71,0,0,1-3.48,1.71,23.25,23.25,0,0,1-4.4.76C195.36,86.42,193.26,86.51,190.79,86.53Z"/><path class="cls-2" d="M272.9,68.43a20.16,20.16,0,0,1-19.72,16.5c-6,.29-10.89-1.49-14.55-5.53s-5.49-9.56-5.49-16.72a35.85,35.85,0,0,1,1.31-9.88,27.83,27.83,0,0,1,3.78-8.25,19.68,19.68,0,0,1,6.32-6,15,15,0,0,1,7.66-2.14,24.51,24.51,0,0,1,3.49.23,13,13,0,0,1,2.89.78c.32.14.87.4,1.64.78a4.52,4.52,0,0,0,1.79.56,2.05,2.05,0,0,0,1-.24,2,2,0,0,0,.75-.78,2.73,2.73,0,0,1,2.57-1.43,3.37,3.37,0,0,1,1.61.34,2.91,2.91,0,0,1,1.13,1.13,17.71,17.71,0,0,1,1.44,2.82,24.79,24.79,0,0,1,1.13,3.44,37.24,37.24,0,0,1,.83,4.5,39.45,39.45,0,0,1,.29,4.85,8.08,8.08,0,0,1-1.25,4.71A4.16,4.16,0,0,1,268.13,60a3.3,3.3,0,0,1-1.79-.47,7.51,7.51,0,0,1-1.85-1.62c-.22-.25-.46-.55-.73-.9s-.67-.91-1.2-1.66l-1.9-2.51a15.61,15.61,0,0,0-1.32-1.49,11.81,11.81,0,0,0-3.24-2.56,7.17,7.17,0,0,0-3.4-.8,6.08,6.08,0,0,0-5.09,2.72,11.52,11.52,0,0,0-1.88,6.84,14.46,14.46,0,0,0,3.86,10.18,11.23,11.23,0,0,0,9.11,3.89,10.68,10.68,0,0,0,5.17-1.53,19.05,19.05,0,0,0,5-5,3,3,0,0,1,.8-.79,1.9,1.9,0,0,1,.91-.28,2.26,2.26,0,0,1,1.83.76,2.84,2.84,0,0,1,.75,2,4.52,4.52,0,0,1-.06.74C273,67.75,273,68.06,272.9,68.43Z"/><path class="cls-2" d="M318.72,58.46c0,6.9-1.94,12.5-5.81,16.92a21.28,21.28,0,0,1-15.36,7.21c-6.11.37-11.05-1.3-14.81-5.13s-5.66-9.14-5.66-16.07c0-7.09,2-13.2,6.06-18A19.77,19.77,0,0,1,313,42.53C316.8,46.72,318.72,52,318.72,58.46ZM292.94,65a15.54,15.54,0,0,0,3.76,4.68,5.88,5.88,0,0,0,4,1.57,4.58,4.58,0,0,0,3.49-1.82,6.92,6.92,0,0,0,1.34-4.39,22.64,22.64,0,0,0-3.3-11.62c-2.2-3.75-4.57-5.65-7.1-5.58a4.29,4.29,0,0,0-3.51,1.77,7.66,7.66,0,0,0-1.42,4.53,20,20,0,0,0,.67,5.5A22.74,22.74,0,0,0,292.94,65Z"/><path class="cls-2" d="M336.94,79.11a13.42,13.42,0,0,1-2.73.67c-1.11.16-2.46.3-4.07.41-1.43.09-2.56.13-3.38.13a21.69,21.69,0,0,1-2.25-.12,3.87,3.87,0,0,1-2.28-.89,2.81,2.81,0,0,1-.72-2.1,4.08,4.08,0,0,1,.35-1.73A4.41,4.41,0,0,1,323.17,74a6.67,6.67,0,0,0,.81-.74,5.34,5.34,0,0,0,.53-.73,3.68,3.68,0,0,0,.38-1,8.56,8.56,0,0,0,.16-1.2c.05-.84.07-2.47.1-4.87s.06-4.66.06-6.81V50c0-1.49,0-2.44-.06-2.83a6.8,6.8,0,0,0-.26-1.5,4.44,4.44,0,0,0-.65-1.26c-.07-.07-.21-.21-.43-.4a7.17,7.17,0,0,0-.91-.7,5.1,5.1,0,0,1-1.44-1.38,2.53,2.53,0,0,1-.27-1.22,3.64,3.64,0,0,1,.86-2.52,5.16,5.16,0,0,1,2.68-1.44,19.44,19.44,0,0,1,2.59-.39c1-.1,2.18-.16,3.46-.16a26.22,26.22,0,0,1,3.7.23,13,13,0,0,1,2.84.74,9.08,9.08,0,0,1,3.13,2.1A31.52,31.52,0,0,1,344,43.91c2.07,3.1,3.67,5.51,4.8,7.26S351,54.61,352,56.26a1.51,1.51,0,0,0,.46.54A.8.8,0,0,0,353,57a.52.52,0,0,0,.43-.3,1.6,1.6,0,0,0,.16-.79V50.14c0-.86,0-1.62-.08-2.29a21.57,21.57,0,0,0-.3-2.17,3.41,3.41,0,0,0-.29-.8,1.94,1.94,0,0,0-.46-.58,5.42,5.42,0,0,0-.61-.46,2.72,2.72,0,0,0-.62-.3,5.62,5.62,0,0,1-2.38-1.44,3,3,0,0,1-.67-2,3.78,3.78,0,0,1,.64-2.39,4,4,0,0,1,2-1.22,12.17,12.17,0,0,1,2.46-.39c1-.08,2.32-.12,3.86-.12,1.71,0,3.07,0,4.07.13a7.6,7.6,0,0,1,2.2.45,3.47,3.47,0,0,1,1.47,1.1,2.93,2.93,0,0,1,.46,1.7,3.79,3.79,0,0,1-.35,1.68,4.67,4.67,0,0,1-1.47,1.54L363,43a1.64,1.64,0,0,0-.4.47,2.28,2.28,0,0,0-.46.92,4.68,4.68,0,0,0-.13,1.18v1.31c0,.59,0,1.65-.06,3.2,0,2.08-.05,3.62-.05,4.58v5.25c0,1.17,0,2.89.05,5.11,0,1,0,1.69,0,2v.73q0,5.46-1.5,8a5.78,5.78,0,0,1-5,2.79,9.12,9.12,0,0,1-4.32-.6,11.18,11.18,0,0,1-3.61-3.06,67.26,67.26,0,0,1-4.1-5.6c-1.59-2.37-4.18-6.38-7.75-12.15a4.94,4.94,0,0,0-.72-1,.85.85,0,0,0-.62-.26.57.57,0,0,0-.53.43,3.68,3.68,0,0,0-.16,1.28v2.89c0,2.58,0,4.62,0,6.12s.05,2.45.08,2.83a2.75,2.75,0,0,0,1.13,2.06,4.46,4.46,0,0,0,.75.51,14.22,14.22,0,0,0,1.34.58,3.82,3.82,0,0,1,1.77,1.24,3.19,3.19,0,0,1,.59,1.94,3.39,3.39,0,0,1-.62,2A3.72,3.72,0,0,1,336.94,79.11Z"/><path class="cls-2" d="M383.46,76.17a14.46,14.46,0,0,1-2.73.65c-1.11.16-2.47.29-4.07.39-1.43.09-2.56.13-3.38.12a21.86,21.86,0,0,1-2.25-.11,3.91,3.91,0,0,1-2.28-.88,2.71,2.71,0,0,1-.72-2,3.74,3.74,0,0,1,.35-1.68,4.3,4.3,0,0,1,1.31-1.46,5.24,5.24,0,0,0,.8-.72,4.12,4.12,0,0,0,.54-.7,3.12,3.12,0,0,0,.37-.94,6.83,6.83,0,0,0,.17-1.16c.05-.8.07-2.37.1-4.64s.06-4.41.06-6.42v-8c0-1.37,0-2.24-.06-2.59a5.21,5.21,0,0,0-.27-1.36,3.59,3.59,0,0,0-.64-1.14,4.6,4.6,0,0,0-.43-.37,7.58,7.58,0,0,0-.91-.63A5.19,5.19,0,0,1,368,41.25a2.21,2.21,0,0,1-.26-1.1,3.08,3.08,0,0,1,.85-2.26,5.47,5.47,0,0,1,2.68-1.29,22.61,22.61,0,0,1,2.6-.35c1-.09,2.17-.13,3.46-.14a30.18,30.18,0,0,1,3.7.2,15.18,15.18,0,0,1,2.84.66A9.37,9.37,0,0,1,387,38.84,28.39,28.39,0,0,1,390.54,43q3.1,4.2,4.79,6.61t3.19,4.72a1.56,1.56,0,0,0,.46.51.94.94,0,0,0,.51.14.52.52,0,0,0,.43-.28,1.53,1.53,0,0,0,.16-.74V48.67c0-.79,0-1.49-.08-2.1s-.16-1.27-.3-2a3.1,3.1,0,0,0-.29-.72,1.84,1.84,0,0,0-.46-.53,5.93,5.93,0,0,0-.61-.41,3.07,3.07,0,0,0-.62-.27,5.85,5.85,0,0,1-2.39-1.3,2.56,2.56,0,0,1-.67-1.78,3.15,3.15,0,0,1,.65-2.14,4.07,4.07,0,0,1,2-1.07,13.7,13.7,0,0,1,2.47-.35c1-.07,2.32-.1,3.86-.11,1.71,0,3.07,0,4.07.12a8.33,8.33,0,0,1,2.2.4,3.4,3.4,0,0,1,1.47,1,2.38,2.38,0,0,1,.46,1.51,3.15,3.15,0,0,1-.35,1.51,4.49,4.49,0,0,1-1.47,1.38l-.51.38a1.68,1.68,0,0,0-.41.43,2,2,0,0,0-.45.82,3.92,3.92,0,0,0-.13,1.07v1.2c0,.53,0,1.5-.06,2.92,0,1.92-.05,3.35-.05,4.24v4.92c0,1.11,0,2.73.05,4.86,0,1,0,1.61,0,1.93v.7c0,3.5-.5,6.12-1.5,7.79a5.77,5.77,0,0,1-5,2.7,9.23,9.23,0,0,1-4.32-.62,11.32,11.32,0,0,1-3.61-3c-1.15-1.33-2.52-3.16-4.1-5.43s-4.18-6.12-7.75-11.5a5.36,5.36,0,0,0-.72-.94.87.87,0,0,0-.62-.24.56.56,0,0,0-.53.4,3.15,3.15,0,0,0-.17,1.19v2.71q0,3.65,0,5.79c0,1.43,0,2.34.08,2.7a2.77,2.77,0,0,0,.32,1.09,3.06,3.06,0,0,0,.81.9,4.41,4.41,0,0,0,.75.48,12.36,12.36,0,0,0,1.34.57,3.84,3.84,0,0,1,1.77,1.2,3.06,3.06,0,0,1,.59,1.89,3.26,3.26,0,0,1-.62,2A3.74,3.74,0,0,1,383.46,76.17Z"/><path class="cls-2" d="M433.68,36.14l3.7.11,2,0h.92a3.84,3.84,0,0,0,.83-.09,10.31,10.31,0,0,0,1.15-.36,7.87,7.87,0,0,1,1.31-.4,6,6,0,0,1,1.05-.09,5.11,5.11,0,0,1,2,.38,4.34,4.34,0,0,1,1.52,1.09A9.88,9.88,0,0,1,450,40.14a13.11,13.11,0,0,1,.64,4.06,4.14,4.14,0,0,1-.91,2.8,3.15,3.15,0,0,1-2.47,1.07,4.52,4.52,0,0,1-1.87-.36,5.48,5.48,0,0,1-1.66-1.21l-.38-.45c-.14-.18-.37-.45-.7-.83-.57-.73-1-1.24-1.31-1.56a5.68,5.68,0,0,0-.88-.75,5,5,0,0,0-1.75-.69A14.05,14.05,0,0,0,436.2,42c-.89,0-1.54,0-1.93,0s-.79,0-1.18.08a2.84,2.84,0,0,0-1.5.54,1.59,1.59,0,0,0-.59,1.2c0,.6-.07,1.26-.11,2s-.05,1.44-.05,2.19a7.21,7.21,0,0,0,.27,2.52,1.13,1.13,0,0,0,1,.64,4.82,4.82,0,0,0,1.26,0,1.82,1.82,0,0,0,.89-.34,1.94,1.94,0,0,0,.43-.67,6.52,6.52,0,0,0,.26-1.35s0-.23.11-.59.12-.6.16-.73a2.61,2.61,0,0,1,1-1.47,2.89,2.89,0,0,1,1.76-.51,3.31,3.31,0,0,1,2.12.56,4.52,4.52,0,0,1,1.21,2.11,11,11,0,0,1,.45,2.43c.09,1,.14,2.4.14,4.17a14.79,14.79,0,0,1-.75,5.45A2.56,2.56,0,0,1,438.72,62a3.4,3.4,0,0,1-1.9-.41,3,3,0,0,1-1.1-1.57l-.19-.57a3.24,3.24,0,0,1-.13-.41,13.65,13.65,0,0,0-.65-1.87,1,1,0,0,0-.43-.43,2.32,2.32,0,0,0-1.5-.26,2.44,2.44,0,0,0-1.44.51,1.48,1.48,0,0,0-.38.71,9.45,9.45,0,0,0-.11,1.79v2.89c0,.45,0,.86.06,1.21a3.52,3.52,0,0,0,.59,1.9,2,2,0,0,0,1.5.63l1.15,0c.37,0,1.28,0,2.71,0a9.29,9.29,0,0,0,2.17-.27,6.23,6.23,0,0,0,1.95-1,6.16,6.16,0,0,0,.94-.79,26.67,26.67,0,0,0,1.85-2.32,7.68,7.68,0,0,1,2-2,3.72,3.72,0,0,1,1.9-.52,3.13,3.13,0,0,1,2.57,1,4.5,4.5,0,0,1,.91,3,18.9,18.9,0,0,1-.59,4.87,13.41,13.41,0,0,1-1.71,4,4.91,4.91,0,0,1-1.64,1.66,4.39,4.39,0,0,1-2.17.59,6.17,6.17,0,0,1-1.23-.07,8.88,8.88,0,0,1-1.55-.45,9.71,9.71,0,0,0-1.48-.39,5.47,5.47,0,0,0-1.15-.07c-1,0-2,.07-3.19.13s-2.92.21-5.23.41-4.26.33-5.49.42-2.38.18-3.46.23h-.1a15.74,15.74,0,0,1-6-.54,2.54,2.54,0,0,1-1.9-2.45,4,4,0,0,1,.21-1.36,3.15,3.15,0,0,1,.7-1.11,3.49,3.49,0,0,1,.27-.26c.1-.1.26-.24.48-.43l.32-.26a2.08,2.08,0,0,0,.21-.21,4,4,0,0,0,1-1.4,5,5,0,0,0,.35-1.69c0-.79.07-2.25.11-4.35s.05-4.06.05-5.91c0-.48,0-2.23,0-5.15s0-4.54,0-4.93a5.42,5.42,0,0,0-.29-1.55,2.17,2.17,0,0,0-.78-1,4.14,4.14,0,0,1-.35-.23,2.84,2.84,0,0,0-.56-.33l-.24-.14-.13-.1a2.51,2.51,0,0,1-1-1,3.14,3.14,0,0,1-.22-1.27c0-1.06.69-1.83,2.07-2.32a20.76,20.76,0,0,1,6.4-.74c1.5,0,3,0,4.58,0S431.05,36,433.68,36.14Z"/><path class="cls-2" d="M493.06,59.82a17,17,0,0,1-6.78,9.59,22.5,22.5,0,0,1-12.94,3.83c-6,.1-10.89-1.64-14.55-5.17a18.3,18.3,0,0,1-5.49-13.68,19.51,19.51,0,0,1,1.31-7.32,16.24,16.24,0,0,1,3.78-5.72,17.8,17.8,0,0,1,6.32-3.94A21.65,21.65,0,0,1,472.37,36c1.29,0,2.45.06,3.49.16a18.83,18.83,0,0,1,2.89.52c.32.09.87.26,1.64.51a6,6,0,0,0,1.79.39,2.88,2.88,0,0,0,1-.16,1.76,1.76,0,0,0,.75-.52,3,3,0,0,1,1.13-.74,4.59,4.59,0,0,1,1.44-.2,4.9,4.9,0,0,1,1.61.23,2.73,2.73,0,0,1,1.13.76,11.82,11.82,0,0,1,1.44,1.93,13.33,13.33,0,0,1,1.13,2.4,19.52,19.52,0,0,1,.83,3.23,21.15,21.15,0,0,1,.29,3.57,4.89,4.89,0,0,1-1.26,3.51,4.42,4.42,0,0,1-3.4,1.32,4.25,4.25,0,0,1-1.79-.41,7.8,7.8,0,0,1-1.85-1.29c-.22-.19-.46-.42-.73-.7l-1.2-1.27c-.82-.83-1.46-1.46-1.9-1.88a14.08,14.08,0,0,0-1.32-1.12,12,12,0,0,0-3.24-1.88,10,10,0,0,0-3.4-.61,7,7,0,0,0-5.09,1.83,6.54,6.54,0,0,0-1.88,4.92,10.39,10.39,0,0,0,3.86,7.92,13.15,13.15,0,0,0,9.11,3.43A12.22,12.22,0,0,0,484,60.81a17.31,17.31,0,0,0,5-3.89,2.71,2.71,0,0,1,.8-.59,2.18,2.18,0,0,1,.91-.19,2.65,2.65,0,0,1,1.83.67,2.14,2.14,0,0,1,.75,1.66,3.05,3.05,0,0,1-.06.6C493.19,59.27,493.13,59.52,493.06,59.82Z"/><path class="cls-2" d="M516.37,72.94c-2.6,0-4.55-.09-5.84-.17a21.51,21.51,0,0,1-3.16-.39,4.91,4.91,0,0,1-2.46-1.13,3.34,3.34,0,0,1-.17-4A4.1,4.1,0,0,1,506.62,66a8.69,8.69,0,0,0,1.21-.47,6.15,6.15,0,0,0,1-.58,2.44,2.44,0,0,0,.75-.82,3.73,3.73,0,0,0,.37-1.14,25.19,25.19,0,0,0,.24-3.25c.06-1.62.08-3.59.08-5.86s0-4.09-.05-5.75-.06-2.73-.11-3.22a2,2,0,0,0-.21-.76,2.24,2.24,0,0,0-.54-.66,2,2,0,0,0-.59-.35,3.67,3.67,0,0,0-.69-.17,2.91,2.91,0,0,0-.46,0h-.51a2.13,2.13,0,0,0-.88.18,1.72,1.72,0,0,0-.67.56,2.58,2.58,0,0,0-.4.58c-.13.24-.31.63-.57,1.15s-.43.88-.56,1.13a4.12,4.12,0,0,1-.4.66A5.15,5.15,0,0,1,501.9,49a4.11,4.11,0,0,1-2.19.56,3.91,3.91,0,0,1-2.92-1.09,4.26,4.26,0,0,1-1.05-3.1,14.37,14.37,0,0,1,.75-4.74,9.69,9.69,0,0,1,2.14-3.6,5.45,5.45,0,0,1,1.56-1.13,4.08,4.08,0,0,1,1.77-.4,6.12,6.12,0,0,1,1.12.09,4.29,4.29,0,0,1,1.13.4,3.94,3.94,0,0,0,1,.41,5.09,5.09,0,0,0,1,.09h3.65c1.41,0,2.68,0,3.77,0h3.62c1.43,0,2.71,0,3.83,0s2.38,0,3.67,0l1.59,0h1a3.91,3.91,0,0,0,.67-.07,5.81,5.81,0,0,0,.94-.35,7.7,7.7,0,0,1,1.55-.51,7.06,7.06,0,0,1,1.45-.14,4.22,4.22,0,0,1,1.45.26,4.93,4.93,0,0,1,1.34.77A7.59,7.59,0,0,1,537,40a16,16,0,0,1,.8,5.27,4.94,4.94,0,0,1-1.12,3.4,3.66,3.66,0,0,1-3,1.24,4.25,4.25,0,0,1-2.33-.67,6.42,6.42,0,0,1-1.91-2.25,14.08,14.08,0,0,0-2-3.17,2.33,2.33,0,0,0-.35-.27,2.65,2.65,0,0,0-.51-.26,2,2,0,0,0-.48-.13l-.48,0a6.13,6.13,0,0,0-.91,0,3.39,3.39,0,0,0-.65.13,1,1,0,0,0-.53.45,3.09,3.09,0,0,0-.27.87,16.21,16.21,0,0,0-.13,2.07c0,1,0,3.42,0,7.43,0,2.55,0,4.63.05,6.21a27.16,27.16,0,0,0,.16,2.94,4.09,4.09,0,0,0,.35,1,4.16,4.16,0,0,0,.78,1,3.8,3.8,0,0,0,.7.44c.35.19.84.42,1.44.67a4.18,4.18,0,0,1,1.91,1.26,3.09,3.09,0,0,1,.45,1.75,2.59,2.59,0,0,1-.83,2,5.28,5.28,0,0,1-2.65,1.08,30.83,30.83,0,0,1-3.75.4C520.29,72.94,518.48,73,516.37,72.94Z"/><path class="cls-2" d="M559.52,36.21c1.7.08,2.94.11,3.69.13l2,0h.91a3.2,3.2,0,0,0,.83-.1,7.8,7.8,0,0,0,1.16-.39,7.87,7.87,0,0,1,1.31-.45,6,6,0,0,1,1-.1,4.5,4.5,0,0,1,2,.43A4.3,4.3,0,0,1,574,37a11.59,11.59,0,0,1,1.82,3.73,15.66,15.66,0,0,1,.65,4.48,4.58,4.58,0,0,1-.92,3,2.88,2.88,0,0,1-2.46,1.06,4.41,4.41,0,0,1-1.88-.44,6,6,0,0,1-1.66-1.34l-.37-.49c-.14-.19-.38-.49-.7-.9-.57-.78-1-1.34-1.31-1.69a5.35,5.35,0,0,0-.89-.81,4.71,4.71,0,0,0-1.74-.78,13.22,13.22,0,0,0-2.54-.24h-1.93c-.4,0-.79,0-1.18.06a2.65,2.65,0,0,0-1.5.52,1.62,1.62,0,0,0-.59,1.23c0,.62-.08,1.3-.11,2s-.05,1.47-.05,2.24a7.68,7.68,0,0,0,.26,2.58,1.25,1.25,0,0,0,1,.7,4.89,4.89,0,0,0,1.26.06,1.54,1.54,0,0,0,.88-.3,1.8,1.8,0,0,0,.43-.67,5.9,5.9,0,0,0,.27-1.38,5.83,5.83,0,0,1,.11-.6c.07-.36.12-.61.16-.74a2.65,2.65,0,0,1,1-1.51,2.87,2.87,0,0,1,1.77-.49,3.31,3.31,0,0,1,2.12.65,5,5,0,0,1,1.2,2.25,12.24,12.24,0,0,1,.46,2.55c.09,1.06.13,2.49.13,4.3a14.44,14.44,0,0,1-.75,5.44,2.34,2.34,0,0,1-2.36,1.63,3.64,3.64,0,0,1-1.9-.52,3.37,3.37,0,0,1-1.1-1.62q-.1-.36-.18-.57a3.31,3.31,0,0,1-.14-.41,14.12,14.12,0,0,0-.64-1.89,1.24,1.24,0,0,0-.43-.45,2.53,2.53,0,0,0-1.5-.36,2.34,2.34,0,0,0-1.45.41,1.29,1.29,0,0,0-.37.67,8.25,8.25,0,0,0-.11,1.75v2.81c0,.45,0,.84,0,1.18a3.53,3.53,0,0,0,.59,1.88,2.31,2.31,0,0,0,1.5.74l1.16.13,2.7.15a9.64,9.64,0,0,0,2.17-.1,5.8,5.8,0,0,0,2-.84,6,6,0,0,0,.94-.71,23.62,23.62,0,0,0,1.85-2.17,7.44,7.44,0,0,1,2-1.9,3.53,3.53,0,0,1,1.9-.41,3.34,3.34,0,0,1,2.58,1.23,5,5,0,0,1,.91,3.14,18.66,18.66,0,0,1-.59,4.82,11.46,11.46,0,0,1-1.72,3.75,4.16,4.16,0,0,1-1.63,1.46,4.35,4.35,0,0,1-2.17.36,6.08,6.08,0,0,1-1.23-.18,10.44,10.44,0,0,1-1.56-.57,10.06,10.06,0,0,0-1.47-.51,6.38,6.38,0,0,0-1.15-.17c-1-.06-2-.11-3.19-.15s-2.93-.06-5.23-.09l-5.49-.09c-1.23,0-2.39,0-3.46-.1H548a17.72,17.72,0,0,1-6-1,2.67,2.67,0,0,1-1.9-2.44,3.26,3.26,0,0,1,.22-1.26,2.63,2.63,0,0,1,.69-1c.07-.07.16-.14.27-.23l.48-.36c.15-.1.25-.18.33-.22a1.68,1.68,0,0,0,.21-.18,3.71,3.71,0,0,0,1-1.24,4.32,4.32,0,0,0,.35-1.57c0-.74.07-2.13.11-4.13s0-3.89,0-5.68c0-.46,0-2.15,0-5s0-4.47,0-4.86a5.49,5.49,0,0,0-.29-1.55,2.26,2.26,0,0,0-.78-1,2.19,2.19,0,0,1-.35-.24,3.84,3.84,0,0,0-.56-.34l-.24-.15a.5.5,0,0,1-.14-.1,2.73,2.73,0,0,1-1-1,3.32,3.32,0,0,1-.21-1.26c0-1,.69-1.81,2.06-2.3a20.9,20.9,0,0,1,6.41-.73c1.5,0,3,0,4.58.06S556.89,36.09,559.52,36.21Z"/><path class="cls-2" d="M591.3,76.19c-.85,0-1.58,0-2.17,0s-1.23,0-1.9-.1a17.74,17.74,0,0,1-6-1.26,2.88,2.88,0,0,1-1.91-2.59,3.31,3.31,0,0,1,.22-1.26,2.72,2.72,0,0,1,.69-1l.27-.22.49-.36.32-.22.21-.17a3.47,3.47,0,0,0,1-1.27,4.51,4.51,0,0,0,.35-1.62c0-.78.07-2.23.11-4.34s0-4.11,0-6c0-.49,0-2.27,0-5.32s0-4.77,0-5.18a6.27,6.27,0,0,0-.29-1.66,2.37,2.37,0,0,0-.78-1.1,3.34,3.34,0,0,1-.35-.27A4,4,0,0,0,581,42l-.24-.16-.14-.11a2.14,2.14,0,0,1-1-1,3.81,3.81,0,0,1-.24-1.48c0-1.13.69-2,2.06-2.47a19,19,0,0,1,6.41-.78c1.39,0,2.61,0,3.64.08a25,25,0,0,1,3.06.3l.8.13a4.89,4.89,0,0,0,.54,0l.53,0,.81-.08c.77-.09,1.5-.18,2.14-.21s1.36,0,2.15,0c5.78,0,10.41,1.81,13.88,5.58s5.19,8.84,5.19,15.06c0,6.83-1.85,12.16-5.57,15.88s-8.66,5.18-14.84,4.6c-.83-.08-1.62-.17-2.39-.28s-1.71-.25-2.76-.47l-1.15-.24c-.23,0-.44-.06-.62-.08l-.78,0C592.24,76.15,591.83,76.16,591.3,76.19ZM596.18,67a2.77,2.77,0,0,0,.77,2,5.26,5.26,0,0,0,2.66.7l.48,0a.87.87,0,0,0,.32,0,5.09,5.09,0,0,0,4.45-2.72,15,15,0,0,0,1.55-7.51,23.78,23.78,0,0,0-2.22-10.64c-1.48-3-3.26-4.73-5.33-5.28l-.59-.1-.38,0a1.89,1.89,0,0,0-1.18.27,2.38,2.38,0,0,0-.53,1.51c-.08.53-.12,1.79-.14,3.77s0,4.82,0,8.52c0,2.16,0,4.2.05,6.11S596.14,66.61,596.18,67Z"/><path class="cls-2" d="M67.36,134.46c-1.46,0-2.68-.05-3.67-.12a20.54,20.54,0,0,1-2.54-.35,5.09,5.09,0,0,1-2.47-1.07,2.62,2.62,0,0,1-.75-2,3.86,3.86,0,0,1,.35-1.69,3.8,3.8,0,0,1,1.31-1.37,4.73,4.73,0,0,0,.81-.67,3.54,3.54,0,0,0,.53-.67,2.94,2.94,0,0,0,.38-.92,8.13,8.13,0,0,0,.16-1.16c.05-.82.07-2.41.11-4.74s.05-4.53.05-6.61c0-3.9,0-6.65,0-8.27s0-2.79-.08-3.5a7.27,7.27,0,0,0-.16-1.24,2.8,2.8,0,0,0-.37-.86,6.89,6.89,0,0,0-.59-.8,5.65,5.65,0,0,0-.75-.71,4.5,4.5,0,0,1-1.29-1.48A4,4,0,0,1,58,94.58a2.35,2.35,0,0,1,.86-1.91,4.88,4.88,0,0,1,2.62-.84,20.58,20.58,0,0,1,2.66-.09c.94,0,2.06.12,3.35.26s2.6.32,3.64.5a24.55,24.55,0,0,1,2.89.68,6.11,6.11,0,0,1,2.58,1.42,3,3,0,0,1,.91,2.13,3.18,3.18,0,0,1-.24,1.3,4.37,4.37,0,0,1-1.1,1.28c-.29.23-.51.42-.67.57l-.35.33a1.41,1.41,0,0,0-.27.37,4.88,4.88,0,0,0-.21.53,2.32,2.32,0,0,0-.14.65c0,.26,0,.56,0,.89V108a4,4,0,0,0,.26,1.69,1,1,0,0,0,.92.59,1.79,1.79,0,0,0,.72-.12,8.7,8.7,0,0,0,1.31-.85c1.43-1,2.6-1.89,3.51-2.57s1.73-1.33,2.44-1.92A7.48,7.48,0,0,0,85,103.45a2,2,0,0,0,.35-1.17,1.17,1.17,0,0,0-.13-.57,1.51,1.51,0,0,0-.46-.5c-.1-.08-.24-.17-.4-.28a6.87,6.87,0,0,0-.88-.42,4.62,4.62,0,0,1-1.75-1.26,3.16,3.16,0,0,1-.5-1.92A2.37,2.37,0,0,1,82,95.51a4.63,4.63,0,0,1,2.33-1,21.19,21.19,0,0,1,3.41-.28c1.34,0,3,.07,4.9.22s3.48.32,4.56.49a13.19,13.19,0,0,1,2.62.64,4.48,4.48,0,0,1,1.93,1.28,3.17,3.17,0,0,1,.59,2,3.23,3.23,0,0,1-.27,1.31,3.1,3.1,0,0,1-.75,1.06,5.73,5.73,0,0,1-.83.56,6.73,6.73,0,0,1-1,.49,22.52,22.52,0,0,0-2.09.93,16.71,16.71,0,0,0-1.56.91c-1.11.75-2,1.41-2.73,2s-1.41,1.18-2.09,1.82A5,5,0,0,0,90,109a1.8,1.8,0,0,0-.19.85,2.28,2.28,0,0,0,.11.7,12.49,12.49,0,0,0,.8,1.53c2.11,3.62,3.67,6.2,4.69,7.81s1.92,2.94,2.71,4c.32.46.64.88,1,1.27s.66.77,1,1.15.68.7,1,1,.59.48.92.73a4.21,4.21,0,0,1,1.15,1.16,2.6,2.6,0,0,1,.4,1.41,3,3,0,0,1-.7,2.07,4,4,0,0,1-2.14,1.16,24.77,24.77,0,0,1-3.59.53c-1.43.11-3,.17-4.77.17q-3.44,0-5.07-.09a15.28,15.28,0,0,1-2.65-.35,3.23,3.23,0,0,1-1.79-1,2.93,2.93,0,0,1-.62-1.92,3.38,3.38,0,0,1,.11-.91,7.34,7.34,0,0,1,.85-1.54,6.68,6.68,0,0,0,.81-1.37,2.92,2.92,0,0,0,.11-.8,3,3,0,0,0-.11-.77,6.08,6.08,0,0,0-.32-.89c-.15-.33-.4-.83-.75-1.52s-.56-1.08-.59-1.15q-.43-.77-1-1.71c-.39-.62-.79-1.23-1.18-1.83,0-.07-.15-.25-.35-.53l-.45-.64a3.42,3.42,0,0,0-.62-.6,1.14,1.14,0,0,0-.62-.22,1.66,1.66,0,0,0-.85.2,11.74,11.74,0,0,0-1.29.84A3.53,3.53,0,0,0,74.76,119a3.74,3.74,0,0,0-.27,1.53v2.88a13.28,13.28,0,0,0,.06,1.34,7.43,7.43,0,0,0,.24,1.45,4.08,4.08,0,0,0,.51,1.14c.1.14.21.28.32.41a2.53,2.53,0,0,0,.37.36,4.84,4.84,0,0,1,1.21,1.38,3.13,3.13,0,0,1,.29,1.42,2.55,2.55,0,0,1-.91,2A5.41,5.41,0,0,1,74,134a24.21,24.21,0,0,1-3,.37C70,134.43,68.76,134.46,67.36,134.46Z"/><path class="cls-2" d="M124.12,134.17a18.92,18.92,0,0,1-2.57.28c-1.07.07-2.7.1-4.88.09-1.86,0-3.37,0-4.53-.1a24.13,24.13,0,0,1-2.81-.31,5.35,5.35,0,0,1-2.47-.93,2.15,2.15,0,0,1-.75-1.74,3.07,3.07,0,0,1,.35-1.49,3.72,3.72,0,0,1,1.31-1.22,3.61,3.61,0,0,0,.75-.54,4,4,0,0,0,.59-.65,2.26,2.26,0,0,0,.38-.82,6.58,6.58,0,0,0,.16-1c0-.73.07-2.15.11-4.23s0-4.07,0-6c0-3.52,0-6,0-7.51s0-2.55-.08-3.2a6.46,6.46,0,0,0-.16-1.06,2.75,2.75,0,0,0-.37-.85,5.79,5.79,0,0,0-.59-.72,5.89,5.89,0,0,0-.75-.62,4.36,4.36,0,0,1-1.32-1.31,3.15,3.15,0,0,1-.29-1.42,2.27,2.27,0,0,1,.91-1.84,5.62,5.62,0,0,1,2.68-1,22.36,22.36,0,0,1,2.89-.19q1.72,0,4,.12c1.58.09,2.94.19,4.1.32a23,23,0,0,1,2.92.51A6.6,6.6,0,0,1,126.37,98a2.32,2.32,0,0,1,.86,1.83,3.06,3.06,0,0,1-.3,1.41,3.67,3.67,0,0,1-1.31,1.26,4,4,0,0,0-.75.54,5.17,5.17,0,0,0-.59.65,2.41,2.41,0,0,0-.37.8,5.13,5.13,0,0,0-.17,1c0,.64-.06,1.7-.08,3.15s0,3.92,0,7.37c0,1.85,0,3.78,0,5.81s.06,3.4.11,4.11a6.12,6.12,0,0,0,.16,1,2.51,2.51,0,0,0,.37.82,4,4,0,0,0,.54.57,6.73,6.73,0,0,0,.8.57,3.74,3.74,0,0,1,1.37,1.18,2.67,2.67,0,0,1,.3,1.31,2.21,2.21,0,0,1-.81,1.76A5.2,5.2,0,0,1,124.12,134.17Z"/><path class="cls-2" d="M170.1,122.77a14.87,14.87,0,0,1-6.78,8.78q-5.17,3.22-12.94,3.21c-6,0-10.89-1.57-14.55-4.87s-5.49-7.69-5.49-13.21a20.85,20.85,0,0,1,1.31-7.5,18,18,0,0,1,3.78-6.09,17.72,17.72,0,0,1,6.32-4.25,19.15,19.15,0,0,1,7.67-1.37,31.62,31.62,0,0,1,3.48.27,16.34,16.34,0,0,1,2.89.65c.33.11.87.32,1.64.63a5.76,5.76,0,0,0,1.79.47,2.59,2.59,0,0,0,1-.17,1.74,1.74,0,0,0,.75-.58,2.87,2.87,0,0,1,1.13-.84,3.84,3.84,0,0,1,1.44-.21,4.35,4.35,0,0,1,1.61.28,2.73,2.73,0,0,1,1.13.89,13.35,13.35,0,0,1,1.44,2.21,17.11,17.11,0,0,1,1.13,2.7,22.67,22.67,0,0,1,.83,3.54,24.08,24.08,0,0,1,.3,3.78,5.07,5.07,0,0,1-1.26,3.62,4.42,4.42,0,0,1-3.41,1.31,4.33,4.33,0,0,1-1.79-.44,7.78,7.78,0,0,1-1.85-1.33q-.33-.3-.72-.72l-1.21-1.33c-.82-.88-1.46-1.54-1.9-2a14.07,14.07,0,0,0-1.32-1.2,12.42,12.42,0,0,0-3.24-2.07,9.06,9.06,0,0,0-3.4-.73,6.55,6.55,0,0,0-5.09,1.84,7,7,0,0,0-1.88,5.12,10.4,10.4,0,0,0,3.86,8,13.54,13.54,0,0,0,9.11,3.44,12.68,12.68,0,0,0,5.17-.95,16.67,16.67,0,0,0,5-3.69,2.47,2.47,0,0,1,.8-.57,2.2,2.2,0,0,1,.92-.19,2.72,2.72,0,0,1,1.82.67,2.08,2.08,0,0,1,.75,1.62,2.76,2.76,0,0,1-.06.57C170.23,122.25,170.17,122.49,170.1,122.77Z"/><path class="cls-2" d="M182.64,134.6c-1.46,0-2.69,0-3.67-.1a24.53,24.53,0,0,1-2.54-.27,5.68,5.68,0,0,1-2.47-.84,1.86,1.86,0,0,1-.75-1.58,2.56,2.56,0,0,1,.35-1.35,3.61,3.61,0,0,1,1.31-1.13,5.68,5.68,0,0,0,.81-.55,3.9,3.9,0,0,0,.53-.56,2.46,2.46,0,0,0,.38-.76,5.63,5.63,0,0,0,.16-1c.05-.67.07-2,.11-3.94s0-3.82,0-5.6c0-3.34,0-5.76,0-7.18s0-2.46-.08-3.09a5.8,5.8,0,0,0-.16-1.1,2.44,2.44,0,0,0-.37-.74,6.17,6.17,0,0,0-.59-.66,4.35,4.35,0,0,0-.75-.57,3.54,3.54,0,0,1-1.29-1.21,3,3,0,0,1-.32-1.47,2.23,2.23,0,0,1,.86-1.8,5.82,5.82,0,0,1,2.62-1,22.34,22.34,0,0,1,2.65-.36c1-.07,2.07-.1,3.35-.11s2.61,0,3.65.1a24.26,24.26,0,0,1,2.89.36,5.31,5.31,0,0,1,2.57,1.08,2.45,2.45,0,0,1,.92,1.93,2.82,2.82,0,0,1-.25,1.25,4.71,4.71,0,0,1-1.09,1.29c-.29.24-.51.44-.67.59l-.35.34a1.22,1.22,0,0,0-.27.36,3.78,3.78,0,0,0-.21.51,2,2,0,0,0-.14.61c0,.24,0,.51,0,.82v4.82a3.22,3.22,0,0,0,.27,1.52,1,1,0,0,0,.91.47,1.87,1.87,0,0,0,.73-.15,9.23,9.23,0,0,0,1.31-.84q2.15-1.53,3.51-2.57c.91-.69,1.72-1.35,2.44-2a7.14,7.14,0,0,0,1.31-1.33,2,2,0,0,0,.35-1.13,1.12,1.12,0,0,0-.13-.53,1.3,1.3,0,0,0-.46-.44l-.4-.23a7.62,7.62,0,0,0-.89-.33,4.12,4.12,0,0,1-1.74-1.05,2.65,2.65,0,0,1-.51-1.78,2.48,2.48,0,0,1,.78-1.82,5.37,5.37,0,0,1,2.33-1.21,23.44,23.44,0,0,1,3.41-.6c1.33-.14,3-.23,4.9-.26s3.48,0,4.55.05a12.4,12.4,0,0,1,2.63.4A3.87,3.87,0,0,1,217.05,99a3,3,0,0,1,.59,1.93,3.4,3.4,0,0,1-.27,1.33,3.55,3.55,0,0,1-.75,1.12,8.37,8.37,0,0,1-1.87,1.18c-.79.36-1.49.71-2.09,1.06s-1.13.69-1.56,1q-1.66,1.2-2.73,2.1c-.72.6-1.41,1.22-2.09,1.87a5,5,0,0,0-1,1.11,1.6,1.6,0,0,0-.19.8,1.74,1.74,0,0,0,.11.65,9.57,9.57,0,0,0,.8,1.38c2.11,3.26,3.67,5.57,4.69,7s1.92,2.63,2.71,3.6c.32.41.64.78,1,1.12s.66.69,1,1a11.59,11.59,0,0,0,1,.83c.29.22.59.44.91.65a3.94,3.94,0,0,1,1.16,1,2.22,2.22,0,0,1,.4,1.26,2.54,2.54,0,0,1-.7,1.86,4.13,4.13,0,0,1-2.14,1,27.3,27.3,0,0,1-3.59.47q-2.14.15-4.77.15c-2.29,0-4,0-5.07-.07a16.14,16.14,0,0,1-2.65-.29,3.37,3.37,0,0,1-1.8-.85,2.23,2.23,0,0,1-.61-1.63,2.2,2.2,0,0,1,.11-.77,6.14,6.14,0,0,1,.85-1.32,6.21,6.21,0,0,0,.81-1.2,2.17,2.17,0,0,0,.1-.69,2.27,2.27,0,0,0-.1-.67,4.7,4.7,0,0,0-.32-.77c-.15-.28-.4-.72-.76-1.31l-.58-1q-.43-.66-1-1.47c-.4-.54-.79-1.07-1.18-1.58,0-.06-.15-.21-.35-.45l-.46-.56a2.86,2.86,0,0,0-.61-.5,1.16,1.16,0,0,0-.62-.17,2,2,0,0,0-.86.21c-.28.15-.71.41-1.28.79a3.48,3.48,0,0,0-1.18,1.15,2.89,2.89,0,0,0-.27,1.33v2.48c0,.51,0,.9,0,1.14a5.55,5.55,0,0,0,.25,1.24,3.44,3.44,0,0,0,.5.95l.33.34a1.86,1.86,0,0,0,.37.3,4.35,4.35,0,0,1,1.21,1.15,2.38,2.38,0,0,1,.29,1.19,2,2,0,0,1-.91,1.67,5.94,5.94,0,0,1-2.57.94,26.93,26.93,0,0,1-2.95.32C185.27,134.57,184,134.6,182.64,134.6Z"/><path class="cls-2" d="M259.53,134.58c-2.61,0-4.56,0-5.84-.08a24.3,24.3,0,0,1-3.16-.32,5.17,5.17,0,0,1-2.47-1,2.36,2.36,0,0,1-.75-1.89,2.55,2.55,0,0,1,.59-1.7,4.34,4.34,0,0,1,1.88-1.13A7.48,7.48,0,0,0,251,128a5.72,5.72,0,0,0,1-.56,2.48,2.48,0,0,0,.75-.8,3.51,3.51,0,0,0,.38-1.09,23.86,23.86,0,0,0,.24-3.17c0-1.61.08-3.58.08-6s0-4.32,0-6.14-.06-3-.11-3.58a3,3,0,0,0-.21-.85,2.3,2.3,0,0,0-.54-.72,1.65,1.65,0,0,0-.59-.38,3.11,3.11,0,0,0-.7-.16,2.53,2.53,0,0,0-.45,0l-.51,0a1.89,1.89,0,0,0-1.56.93,3.93,3.93,0,0,0-.4.69c-.12.27-.31.72-.56,1.32s-.44,1-.56,1.29a4.35,4.35,0,0,1-.41.75,5.48,5.48,0,0,1-1.71,2,4,4,0,0,1-2.2.66,3.68,3.68,0,0,1-2.92-1.11,4.86,4.86,0,0,1-1-3.39,19.24,19.24,0,0,1,.75-5.45,13.17,13.17,0,0,1,2.14-4.38,5.67,5.67,0,0,1,1.55-1.44,3.55,3.55,0,0,1,1.77-.57,5.56,5.56,0,0,1,1.13.07,3.24,3.24,0,0,1,1.12.45,3.23,3.23,0,0,0,1,.46,4,4,0,0,0,1,.06l1.52-.07c.49,0,1.2,0,2.12-.1l3.78-.24,3.62-.18c1.43-.07,2.7-.13,3.83-.17s2.38-.13,3.67-.16c.7,0,1.24,0,1.58,0l1-.06a2.88,2.88,0,0,0,.67-.12,4.73,4.73,0,0,0,.93-.47,7.44,7.44,0,0,1,1.56-.7,5.69,5.69,0,0,1,1.45-.25,3.36,3.36,0,0,1,1.44.23,4.25,4.25,0,0,1,1.34.85,8.52,8.52,0,0,1,2.25,3.94,20.24,20.24,0,0,1,.81,6,6.19,6.19,0,0,1-1.13,3.86,3.79,3.79,0,0,1-2.95,1.56,3.85,3.85,0,0,1-2.33-.59,6.27,6.27,0,0,1-1.9-2.37,16.32,16.32,0,0,0-2-3.46,3.07,3.07,0,0,0-.35-.28,3,3,0,0,0-.51-.27,1.56,1.56,0,0,0-.48-.11,3.72,3.72,0,0,0-.48,0,8.92,8.92,0,0,0-.92.1,3,3,0,0,0-.64.2,1,1,0,0,0-.53.54,4.11,4.11,0,0,0-.27,1,18.19,18.19,0,0,0-.14,2.34c0,1.09,0,3.83,0,8.06,0,2.68,0,4.8.05,6.38a26.43,26.43,0,0,0,.16,2.92,3.46,3.46,0,0,0,.35,1,3.63,3.63,0,0,0,.78.92,3.57,3.57,0,0,0,.69.4,14.1,14.1,0,0,0,1.45.59,4,4,0,0,1,1.9,1.15,2.74,2.74,0,0,1,.46,1.66,2.46,2.46,0,0,1-.83,1.95,5.66,5.66,0,0,1-2.66,1.07,31.65,31.65,0,0,1-3.75.44C263.44,134.52,261.64,134.57,259.53,134.58Z"/><path class="cls-2" d="M292.65,134.52c-1.46,0-2.69,0-3.67-.09a24.31,24.31,0,0,1-2.55-.3,5.48,5.48,0,0,1-2.46-.91,2.1,2.1,0,0,1-.75-1.72,2.92,2.92,0,0,1,.35-1.48,3.78,3.78,0,0,1,1.31-1.26,5.72,5.72,0,0,0,.8-.62,4.19,4.19,0,0,0,.54-.62,2.61,2.61,0,0,0,.37-.86,5.62,5.62,0,0,0,.17-1c0-.74.07-2.19.1-4.33s.06-4.18.06-6.13c0-3.65,0-6.27,0-7.81s0-2.67-.08-3.35a6.32,6.32,0,0,0-.16-1.17,2.35,2.35,0,0,0-.38-.78,4.8,4.8,0,0,0-.59-.68,3.7,3.7,0,0,0-.75-.57,3.44,3.44,0,0,1-1.28-1.23,3.28,3.28,0,0,1-.32-1.56,2.68,2.68,0,0,1,.85-2,6,6,0,0,1,2.63-1.28,23.31,23.31,0,0,1,2.65-.55c1-.13,2.07-.23,3.35-.31s2.61-.12,3.65-.11a23.27,23.27,0,0,1,2.89.22,4.92,4.92,0,0,1,2.57,1,2.56,2.56,0,0,1,.91,2,3.54,3.54,0,0,1-.29,1.47,5.24,5.24,0,0,1-1.21,1.47,3.89,3.89,0,0,0-.4.41c-.12.16-.24.31-.35.47a4.36,4.36,0,0,0-.48,1.17,10.09,10.09,0,0,0-.21,1.42,5.85,5.85,0,0,0-.06.81v2.12c0,.18,0,.48-.05.83s0,.57,0,.74v.47a1.92,1.92,0,0,0,.32,1.21,1.49,1.49,0,0,0,1.07.47c.35,0,.73,0,1.1,0s1,0,1.74-.06l1.13-.06c.89,0,1.52-.08,1.87-.12a7.89,7.89,0,0,0,1-.13,1.49,1.49,0,0,0,1-.57,1.83,1.83,0,0,0,.32-1.15v-4.47a6.41,6.41,0,0,0-.05-.86c0-.43-.09-.84-.16-1.17a3,3,0,0,0-.32-.87,3.06,3.06,0,0,0-.35-.49,3.46,3.46,0,0,0-.67-.52,4.06,4.06,0,0,1-1.42-1.43,3.88,3.88,0,0,1-.35-1.72,2.64,2.64,0,0,1,.81-2,5.49,5.49,0,0,1,2.46-1.22,19.75,19.75,0,0,1,2.57-.51c1-.13,2.25-.25,3.76-.35s2.6-.12,3.64-.11a21.43,21.43,0,0,1,2.89.21,4.54,4.54,0,0,1,2.5,1,2.71,2.71,0,0,1,.83,2.08,4.52,4.52,0,0,1-.3,1.81A3,3,0,0,1,324,98.68a2.48,2.48,0,0,0-.59.49,4.36,4.36,0,0,0-.48.65,3.92,3.92,0,0,0-.43,1.07,8.28,8.28,0,0,0-.16,1.17c-.05.67-.06,1.91-.08,3.67s0,4.41,0,7.91v7.91c0,1.59,0,2.58.05,2.94a10.69,10.69,0,0,0,.19,1.35,3.34,3.34,0,0,0,.4,1,4.59,4.59,0,0,0,.49.6,2.08,2.08,0,0,0,.59.43,2.59,2.59,0,0,1,1.15,1.12,4.3,4.3,0,0,1,.29,1.74,2.73,2.73,0,0,1-.83,2.08A4.86,4.86,0,0,1,322,134a20.7,20.7,0,0,1-2.95.39c-1.07.08-2.3.12-3.7.12s-2.68,0-3.67-.1a23.53,23.53,0,0,1-2.54-.31,5.32,5.32,0,0,1-2.47-1,2.24,2.24,0,0,1-.8-1.79,3.55,3.55,0,0,1,.35-1.65,4.35,4.35,0,0,1,1.42-1.46,2.94,2.94,0,0,0,.56-.49,3,3,0,0,0,.4-.6,4.53,4.53,0,0,0,.35-.86,5.18,5.18,0,0,0,.19-1.08c0-.28,0-.91,0-1.87s0-2.26,0-3.93a1.76,1.76,0,0,0-.29-1.08,1.29,1.29,0,0,0-.94-.4l-1.07,0c-.4,0-1,0-1.77,0l-1.13,0c-.78,0-1.38.06-1.79.1s-.78.08-1.1.12a1.51,1.51,0,0,0-1,.47,1.84,1.84,0,0,0-.32,1.19c0,1.6,0,2.82,0,3.67s0,1.42,0,1.69a5.67,5.67,0,0,0,.24,1.4,4.24,4.24,0,0,0,.51,1.07l.32.39a2.43,2.43,0,0,0,.38.33,4.4,4.4,0,0,1,1.2,1.3,2.94,2.94,0,0,1,.3,1.37,2.45,2.45,0,0,1-.91,1.94,5.4,5.4,0,0,1-2.57,1.1,22.6,22.6,0,0,1-2.95.37C295.28,134.48,294,134.52,292.65,134.52Z"/><path class="cls-2" d="M348.07,90.7c1.7,0,2.94-.06,3.69-.09s1.43-.07,2-.11l.46,0,.45,0a3.31,3.31,0,0,0,.83-.17,8.14,8.14,0,0,0,1.15-.54,7.64,7.64,0,0,1,1.32-.6,5.16,5.16,0,0,1,1-.19,4,4,0,0,1,2,.37,4.16,4.16,0,0,1,1.53,1.32,13.46,13.46,0,0,1,1.82,4.16,19.76,19.76,0,0,1,.64,5.08,6.12,6.12,0,0,1-.91,3.51,3,3,0,0,1-2.46,1.43,3.77,3.77,0,0,1-1.88-.34,5.67,5.67,0,0,1-1.66-1.41c-.11-.14-.23-.32-.37-.53l-.7-1c-.57-.86-1-1.48-1.31-1.85a5.63,5.63,0,0,0-.89-.88,4.16,4.16,0,0,0-1.74-.76,10.49,10.49,0,0,0-2.55-.08c-.89.05-1.53.1-1.93.14s-.79.09-1.17.16A2.68,2.68,0,0,0,346,99a2.21,2.21,0,0,0-.59,1.48c0,.73-.08,1.52-.11,2.37s-.06,1.71-.06,2.6a9.78,9.78,0,0,0,.27,3,1.15,1.15,0,0,0,1,.73,3.8,3.8,0,0,0,1.26,0,1.55,1.55,0,0,0,.88-.42,2.21,2.21,0,0,0,.43-.81,8,8,0,0,0,.27-1.6s0-.28.11-.71.12-.72.16-.87a3.46,3.46,0,0,1,1-1.83,2.72,2.72,0,0,1,1.77-.7,2.82,2.82,0,0,1,2.12.57,5.45,5.45,0,0,1,1.2,2.51,15.32,15.32,0,0,1,.46,2.9c.09,1.2.13,2.84.13,4.92a19.39,19.39,0,0,1-.75,6.3c-.5,1.33-1.29,2-2.36,2a3,3,0,0,1-1.9-.44,3.43,3.43,0,0,1-1.1-1.75c-.07-.27-.13-.48-.19-.64s-.09-.3-.13-.46a18.87,18.87,0,0,0-.64-2.1,1.19,1.19,0,0,0-.43-.48,2.17,2.17,0,0,0-1.5-.29,2.34,2.34,0,0,0-1.45.58,1.7,1.7,0,0,0-.37.8,10.78,10.78,0,0,0-.11,2v3.19c0,.5,0,1,.05,1.33a4.08,4.08,0,0,0,.59,2.07,2,2,0,0,0,1.5.73l1.15.06c.38,0,1.28,0,2.71,0a8.24,8.24,0,0,0,2.17-.28,5.9,5.9,0,0,0,2-1.1,7.63,7.63,0,0,0,.94-.88,29.29,29.29,0,0,0,1.84-2.63,9.17,9.17,0,0,1,2-2.35,3.33,3.33,0,0,1,1.9-.63,2.89,2.89,0,0,1,2.58,1.17,5.88,5.88,0,0,1,.91,3.52,25,25,0,0,1-.59,5.57,15.63,15.63,0,0,1-1.72,4.44,4.93,4.93,0,0,1-1.63,1.79,4.11,4.11,0,0,1-2.17.57,6.28,6.28,0,0,1-1.24-.12,10.07,10.07,0,0,1-1.55-.54,9.17,9.17,0,0,0-1.47-.47,5.57,5.57,0,0,0-1.16-.12l-3.18,0c-1.17,0-2.93.12-5.23.22s-4.26.15-5.49.19-2.39.06-3.46.06h-.11a15.79,15.79,0,0,1-6-.83,2.7,2.7,0,0,1-1.9-2.56,3.82,3.82,0,0,1,.22-1.37,3.21,3.21,0,0,1,.69-1.11,3.59,3.59,0,0,1,.27-.25l.48-.43.32-.26a1.37,1.37,0,0,0,.22-.2,4.4,4.4,0,0,0,1-1.43,5.28,5.28,0,0,0,.35-1.76c0-.82.07-2.36.11-4.61s.05-4.39.05-6.44q0-.78,0-5.76c0-3.32,0-5.22,0-5.66A7.65,7.65,0,0,0,332,100a2.42,2.42,0,0,0-.77-1.15,2.55,2.55,0,0,1-.35-.27,4.64,4.64,0,0,0-.56-.36l-.24-.16a.85.85,0,0,1-.14-.1,2.73,2.73,0,0,1-1-1.16,4.51,4.51,0,0,1-.21-1.5,3.17,3.17,0,0,1,2.06-2.9,17.92,17.92,0,0,1,6.41-1.3c1.5-.1,3-.18,4.58-.24S345.44,90.74,348.07,90.7Z"/><path class="cls-2" d="M411.87,125.33c-1.43,3.79-2.69,6.31-3.78,7.52a5.42,5.42,0,0,1-4.21,1.8,5.83,5.83,0,0,1-4.29-1.37c-.89-.92-1.87-3-2.94-6.2-.47-1.41-1.08-3.54-1.83-6.34s-1.52-5.79-2.3-8.92c-.58-2.32-1.11-4.56-1.61-6.71s-.93-4-1.28-5.52c-.18-.75-.33-1.31-.43-1.68a4.57,4.57,0,0,0-.38-1,5.84,5.84,0,0,0-.56-.84,7.45,7.45,0,0,0-.89-.87,5.88,5.88,0,0,1-1.2-1.44,3,3,0,0,1-.4-1.48,3.64,3.64,0,0,1,.69-2.3,4.53,4.53,0,0,1,2.2-1.39,21.12,21.12,0,0,1,3.59-.83q2.14-.33,4.77-.48t4.56-.09a19,19,0,0,1,3.11.3,3.47,3.47,0,0,1,1.95,1.07,3,3,0,0,1,.62,2,4.72,4.72,0,0,1-.43,2.17,4.17,4.17,0,0,1-1.45,1.45,6.57,6.57,0,0,1-.69.45,4.2,4.2,0,0,0-.92.71,2.32,2.32,0,0,0-.45.81,4.17,4.17,0,0,0-.14,1.21,17.52,17.52,0,0,0,.35,3.07c.24,1.25.76,3.52,1.58,6.88.33,1.31.7,2.66,1.13,4s.76,2.46,1,3.15c.2.54.49.81.83.8s.63-.3.88-.86.65-1.66,1.1-3,1-3.2,1.58-5.42c.54-2,.93-3.58,1.18-4.83a16,16,0,0,0,.38-3,5.78,5.78,0,0,0-.22-1.67,3.69,3.69,0,0,0-.64-1.21l-.54-.57a12.7,12.7,0,0,0-1.23-1,2.81,2.81,0,0,1-1-1.24,4.77,4.77,0,0,1-.3-1.8,3.06,3.06,0,0,1,.7-2,4.71,4.71,0,0,1,2.14-1.33,21.76,21.76,0,0,1,3.6-.8c1.42-.21,3-.36,4.71-.45s3.15-.1,4.42,0a15.45,15.45,0,0,1,3.14.38,3.7,3.7,0,0,1,1.9,1.06,3,3,0,0,1,.62,2,4.6,4.6,0,0,1-.43,2.09,4.15,4.15,0,0,1-1.39,1.49,7.84,7.84,0,0,0-1.91,1.69,3.09,3.09,0,0,0-.51,1.83,10.23,10.23,0,0,0,.08,1.31c.06.39.15.9.3,1.5.1.4.23.88.37,1.41s.63,2.12,1.45,4.84q.7,2.31,1.5,4.64c.54,1.55.94,2.69,1.23,3.36s.52.83.81.8.54-.34.75-.91c.29-.79.61-1.9,1-3.31s.83-3.15,1.31-5.18c.55-2.32.95-4.28,1.24-5.85a21.94,21.94,0,0,0,.42-3.57,3.12,3.12,0,0,0-.21-1.19,3,3,0,0,0-.7-1l-.51-.41a4.49,4.49,0,0,0-.72-.47A4.52,4.52,0,0,1,433,91.13a3.31,3.31,0,0,1-.46-1.81,3.41,3.41,0,0,1,.43-1.86,3.06,3.06,0,0,1,1.45-1.12,12.42,12.42,0,0,1,2.73-.81,26.41,26.41,0,0,1,3.8-.36,23.06,23.06,0,0,1,3.51.12,9.22,9.22,0,0,1,2.6.64,2.67,2.67,0,0,1,1.18,1,2.51,2.51,0,0,1,.43,1.44,6,6,0,0,1-.16,1.49,5,5,0,0,1-.53,1.27l-.41.59c-.16.23-.36.51-.61.84a10.94,10.94,0,0,0-1.24,2.37,45.23,45.23,0,0,0-1.39,4.58c-.11.47-.24,1-.4,1.52s-.41,1.41-.72,2.55c-.37,1.35-.64,2.4-.83,3.08s-.37,1.34-.51,1.94c-.83,3.21-1.63,6.21-2.42,9s-1.54,5.27-2.25,7.45c-.86,2.63-1.42,4.32-1.69,5a12.74,12.74,0,0,1-.83,1.8,5,5,0,0,1-1.95,2.16,6.45,6.45,0,0,1-3.08.63,5.89,5.89,0,0,1-4.4-1.47c-1-1-2.09-3.16-3.37-6.45-.33-.85-.73-2-1.21-3.48s-1-3-1.42-4.67c-.21-.74-.51-1.72-.88-2.93s-.59-1.91-.62-2.08a1.77,1.77,0,0,0-.38-.72.72.72,0,0,0-.53-.21.85.85,0,0,0-.57.25,1.8,1.8,0,0,0-.4.75c-.1.3-.3.9-.59,1.81s-.66,2.15-1.18,3.65c-.44,1.3-.87,2.49-1.23,3.52Z"/><path class="cls-2" d="M490.17,108.18c0,7.7-1.94,14.11-5.82,19A18.64,18.64,0,0,1,469,134.69a18.19,18.19,0,0,1-14.82-7.1c-3.77-4.68-5.65-10.76-5.65-18,0-7.43,2-13.33,6.05-18a19.73,19.73,0,0,1,15.17-7.11,18.1,18.1,0,0,1,14.66,6.35C488.25,95.22,490.17,101,490.17,108.18Zm-25.78,6a19.27,19.27,0,0,0,3.75,5.43,6,6,0,0,0,4,2,4.11,4.11,0,0,0,3.48-1.86,8.21,8.21,0,0,0,1.34-4.88,26.45,26.45,0,0,0-3.3-12.83c-2.19-4-4.56-6-7.1-6A4.22,4.22,0,0,0,463,97.85a7.92,7.92,0,0,0-1.42,4.61,22.64,22.64,0,0,0,.67,5.8A28.11,28.11,0,0,0,464.39,114.16Z"/><path class="cls-2" d="M535.29,129.36a4.31,4.31,0,0,1-2.6,3.91,15.54,15.54,0,0,1-7.37,1.43q-4.23,0-6.21-2.58c-1.32-1.72-2.16-4.76-2.52-9a38.8,38.8,0,0,0-.64-4.79,8.37,8.37,0,0,0-1.08-2.76,3.31,3.31,0,0,0-1.2-1.11A3.46,3.46,0,0,0,512,114h-1.18a1.08,1.08,0,0,0-1,.62,3.75,3.75,0,0,0-.35,1.77q0,2.9,0,4.38c0,1,0,1.66,0,2a3.59,3.59,0,0,0,.16,1,1.94,1.94,0,0,0,.32.58,2.18,2.18,0,0,0,.48.48,3.29,3.29,0,0,0,.54.35,5.75,5.75,0,0,1,2.33,1.61,3.62,3.62,0,0,1,.72,2.29,4.67,4.67,0,0,1-.77,2.78,4.49,4.49,0,0,1-2.34,1.55,16.84,16.84,0,0,1-3.32.69,39.52,39.52,0,0,1-4.34.21c-1.79,0-3.3-.06-4.55-.18a13.71,13.71,0,0,1-3.06-.59,4.64,4.64,0,0,1-2.09-1.33A3.25,3.25,0,0,1,493,130a5.76,5.76,0,0,1,.22-1.66,4,4,0,0,1,.69-1.3l.27-.31.49-.52c.14-.13.24-.24.32-.3a2.57,2.57,0,0,0,.21-.24,5,5,0,0,0,1-1.71,7.49,7.49,0,0,0,.35-2.11c0-1,.07-2.86.11-5.54s0-5.22,0-7.6c0-.62,0-2.86,0-6.66s0-5.92,0-6.43a9.15,9.15,0,0,0-.29-2,2.87,2.87,0,0,0-.78-1.34,4.66,4.66,0,0,1-.35-.32,3.37,3.37,0,0,0-.56-.45,2.22,2.22,0,0,1-.24-.19.87.87,0,0,1-.14-.12,3.26,3.26,0,0,1-1-1.36,5.32,5.32,0,0,1-.22-1.67,3.2,3.2,0,0,1,2.06-3,15.88,15.88,0,0,1,6.41-1c.78,0,1.58,0,2.38.1s1.86.16,3,.36c.63.11,1.1.21,1.37.23l.72,0,.65,0c.24,0,.73-.06,1.44-.14,1.49-.18,2.72-.32,3.65-.37s1.84-.07,2.73-.06q7,.1,10.64,3.19c2.44,2.06,3.67,5,3.67,8.85a13,13,0,0,1-2.06,7.25,14,14,0,0,1-5.82,4.93,1.63,1.63,0,0,0-.54.38.73.73,0,0,0-.16.46.7.7,0,0,0,.22.53,1.24,1.24,0,0,0,.7.27,8.6,8.6,0,0,1,2.57,1.07,7.34,7.34,0,0,1,2,1.84,12.85,12.85,0,0,1,1.74,3.6,30.37,30.37,0,0,1,1.15,5.49,5.33,5.33,0,0,0,.19.9c.09.29.21.64.35,1a3.63,3.63,0,0,0,.32.61,4.47,4.47,0,0,0,.65.75l.72.67a9.55,9.55,0,0,1,.83.88,3.36,3.36,0,0,1,.48,1A4.77,4.77,0,0,1,535.29,129.36Zm-25.78-27a10,10,0,0,0,.43,3.67,1.71,1.71,0,0,0,1.66.87h.54a4.85,4.85,0,0,0,4.1-1.85,8.46,8.46,0,0,0,1.47-5.32,7.83,7.83,0,0,0-1.58-5.12,5.07,5.07,0,0,0-4-2h-.43a1.81,1.81,0,0,0-1.32.43,3.09,3.09,0,0,0-.66,1.66c0,.25-.08.89-.11,1.92s-.06,1.64-.06,1.81v3.89Z"/><path class="cls-2" d="M580.42,129.71c0,1.57-.87,2.79-2.6,3.68a16.43,16.43,0,0,1-7.37,1.34c-2.82,0-4.9-.82-6.22-2.46s-2.15-4.55-2.52-8.67a34.64,34.64,0,0,0-.64-4.61,8.19,8.19,0,0,0-1.07-2.68,3.63,3.63,0,0,0-2.84-1.56H556a1.06,1.06,0,0,0-1,.59,3.53,3.53,0,0,0-.35,1.72c0,1.86,0,3.28,0,4.24s0,1.6,0,1.9a3.69,3.69,0,0,0,.16,1,2.06,2.06,0,0,0,.33.57,2.62,2.62,0,0,0,.48.46,3.6,3.6,0,0,0,.53.34,5.86,5.86,0,0,1,2.34,1.57,3.39,3.39,0,0,1,.72,2.2,4.27,4.27,0,0,1-.78,2.66,4.53,4.53,0,0,1-2.33,1.48,17.92,17.92,0,0,1-3.32.65,39.73,39.73,0,0,1-4.34.2c-1.79,0-3.31-.06-4.56-.17a13.56,13.56,0,0,1-3-.58,4.68,4.68,0,0,1-2.09-1.29,3.07,3.07,0,0,1-.7-2.09,5.38,5.38,0,0,1,.21-1.61,4.08,4.08,0,0,1,.7-1.27,3.3,3.3,0,0,1,.27-.3l.48-.5.32-.3a2.44,2.44,0,0,0,.22-.23,5,5,0,0,0,1-1.66,7.8,7.8,0,0,0,.35-2.06c0-1,.07-2.78.1-5.41s.06-5.13.06-7.47c0-.61,0-2.82,0-6.58s0-5.89,0-6.39a9.93,9.93,0,0,0-.3-2.05,3.07,3.07,0,0,0-.77-1.36,3.46,3.46,0,0,1-.35-.33,4,4,0,0,0-.57-.46,2.49,2.49,0,0,0-.24-.2l-.13-.13a3.35,3.35,0,0,1-1-1.4,5.73,5.73,0,0,1-.21-1.68,3.08,3.08,0,0,1,2.06-3,15.49,15.49,0,0,1,6.4-.74c.79,0,1.59.1,2.39.19s1.85.23,3,.48c.63.13,1.1.24,1.36.28l.73.06h.64c.25,0,.74,0,1.45-.09,1.48-.12,2.71-.21,3.64-.22s1.84,0,2.74,0c4.64.25,8.19,1.46,10.63,3.57a10.93,10.93,0,0,1,3.68,8.75,11.82,11.82,0,0,1-2.07,6.94,13.28,13.28,0,0,1-5.81,4.61,1.63,1.63,0,0,0-.54.37.62.62,0,0,0-.16.43.67.67,0,0,0,.21.52,1.38,1.38,0,0,0,.7.28,9,9,0,0,1,2.57,1.07,7.59,7.59,0,0,1,2,1.81,12.41,12.41,0,0,1,1.74,3.48,28.86,28.86,0,0,1,1.15,5.23,4.88,4.88,0,0,0,.19.86c.09.28.2.61.35,1a3.47,3.47,0,0,0,.32.58,3.58,3.58,0,0,0,.64.71c.11.09.35.3.72.65a8.25,8.25,0,0,1,.84.83,3.25,3.25,0,0,1,.48,1A4.66,4.66,0,0,1,580.42,129.71Zm-25.78-26.36a9.44,9.44,0,0,0,.43,3.6,1.73,1.73,0,0,0,1.66.89h.54a4.81,4.81,0,0,0,4.1-1.71,8,8,0,0,0,1.47-5.15,7.81,7.81,0,0,0-1.58-5.06,5.29,5.29,0,0,0-4-2.08h-.43a1.76,1.76,0,0,0-1.31.39,2.93,2.93,0,0,0-.67,1.62c0,.25-.07.88-.11,1.89s-.05,1.61-.05,1.78v3.83Z"/><path class="cls-2" d="M597.51,134.63a33.81,33.81,0,0,1-5-.29,8.64,8.64,0,0,1-2.84-.85,3.45,3.45,0,0,1-1.42-1.44,4.65,4.65,0,0,1-.46-2.13,3.71,3.71,0,0,1,.62-2.15,6,6,0,0,1,2.39-1.73,13.65,13.65,0,0,0,1.23-.62,5,5,0,0,0,.75-.58,2.86,2.86,0,0,0,.72-.9,2.75,2.75,0,0,0,.3-1,4.1,4.1,0,0,1,0-.49c0-.16,0-.42,0-.74,0-.59.06-1.06.08-1.35s0-.55,0-.79a9.45,9.45,0,0,0-.4-2.84,15.66,15.66,0,0,0-1.64-3.2c-4.36-7.19-6.9-11.51-7.64-12.8s-1.31-2.42-1.74-3.35a5,5,0,0,0-.48-.89c-.18-.26-.38-.52-.59-.78s-.22-.26-.35-.39-.48-.44-1-.93A4.38,4.38,0,0,1,579,93a3.7,3.7,0,0,1-.35-1.59,3.38,3.38,0,0,1,.75-2.29,3.93,3.93,0,0,1,2.25-1.19,22.16,22.16,0,0,1,3.73-.39,40.73,40.73,0,0,1,4.74.14c1.86.15,3.54.36,5,.61a21.28,21.28,0,0,1,3.37.79,5,5,0,0,1,2.15,1.33,3.28,3.28,0,0,1,.64,2.15,2.43,2.43,0,0,1-.64,1.68,4,4,0,0,1-1.83,1.1,6.51,6.51,0,0,0-2,.9,1.46,1.46,0,0,0-.59,1.19,2.12,2.12,0,0,0,.06.49,8.54,8.54,0,0,0,.42,1.24,14.4,14.4,0,0,0,.65,1.31c.25.46,1.05,1.79,2.41,4q.58.94,1,1.47a5.18,5.18,0,0,0,.75.86,2.35,2.35,0,0,0,.54.4,1.37,1.37,0,0,0,.54.15.89.89,0,0,0,.5-.11,2.05,2.05,0,0,0,.51-.42,11.21,11.21,0,0,0,1.37-1.7c.34-.53.72-1.2,1.15-2a32.06,32.06,0,0,0,1.45-3,5.34,5.34,0,0,0,.43-1.83,1.79,1.79,0,0,0-.24-1,1.68,1.68,0,0,0-.78-.6l-.59-.26a3.52,3.52,0,0,1-.59-.32,3.05,3.05,0,0,1-1.29-1.18,4.13,4.13,0,0,1-.37-1.94,2.86,2.86,0,0,1,.88-2.23,4.61,4.61,0,0,1,2.66-1,18.1,18.1,0,0,1,2.49-.06c.91,0,2,.13,3.19.26,1,.11,1.85.25,2.65.41s1.69.38,2.6.65a4.63,4.63,0,0,1,2.25,1.33,3.19,3.19,0,0,1,.75,2.18,3.72,3.72,0,0,1-.45,1.84,3.81,3.81,0,0,1-1.32,1.36c-.36.23-.65.44-.88.6a6.79,6.79,0,0,0-.62.52,12.38,12.38,0,0,0-1.12,1.37l-.75,1q-1.83,2.4-4,5.8c-1.44,2.28-2.81,4.58-4.1,6.88a11.62,11.62,0,0,0-1.15,2.59,8.48,8.48,0,0,0-.29,2.28c0,1,0,1.9,0,2.74s.06,1.45.11,1.79a3.57,3.57,0,0,0,.29,1.06,1.46,1.46,0,0,0,.51.58,6.54,6.54,0,0,0,.59.34c.22.11.79.33,1.72.67a3.91,3.91,0,0,1,2,1.4,4.29,4.29,0,0,1,.59,2.37,3.14,3.14,0,0,1-1.07,2.47,9,9,0,0,1-3.49,1.58,25.45,25.45,0,0,1-4.39.68Q601.22,134.63,597.51,134.63Z"/></g></g></svg>