<svg xmlns="http://www.w3.org/2000/svg" viewBox="0 0 187.14 188.72"><defs><style>.cls-1{fill:#649f3d;stroke:#f5eee5;stroke-miterlimit:10;stroke-width:10px;}</style></defs><g id="Layer_2" data-name="Layer 2"><g id="Layer_19" data-name="Layer 19"><path class="cls-1" d="M165.63,98.86l11,8.48c10.43,8,5.08,24.83-8,25.24l-13.85.44A14,14,0,0,0,141.37,149l1.84,13.85C145,175.92,129.4,184,119.84,174.92l-10.1-9.58a13.87,13.87,0,0,0-20.63,1.72l-8.41,11.1c-8,10.52-24.61,5.13-25-8.1l-.43-14a14,14,0,0,0-15.78-13.51l-13.74,1.85c-13,1.76-21-13.93-12-23.57l9.49-10.19a14.14,14.14,0,0,0-1.7-20.81l-11-8.49c-10.42-8-5.08-24.83,8-25.24l13.85-.43A14,14,0,0,0,45.77,39.77L43.94,25.92C42.19,12.79,57.75,4.73,67.31,13.8L77.4,23.37A13.87,13.87,0,0,0,98,21.66l8.41-11.11c8-10.52,24.62-5.13,25,8.11l.43,14a14,14,0,0,0,15.79,13.51l13.73-1.86c13-1.76,21,13.93,12,23.58L163.93,78A14.16,14.16,0,0,0,165.63,98.86Z"/></g></g></svg>