<svg xmlns="http://www.w3.org/2000/svg" viewBox="0 0 150.58 151.83"><defs><style>.cls-1{fill:#649f3d;stroke:#f5eee5;stroke-miterlimit:10;stroke-width:10px;}</style></defs><g id="Layer_2" data-name="Layer 2"><g id="Layer_19" data-name="Layer 19"><path class="cls-1" d="M132.47,79.49l8.74,6.73c8.28,6.38,4,19.7-6.37,20l-11,.34a11.14,11.14,0,0,0-10.63,12.64l1.46,11c1.38,10.41-11,16.81-18.55,9.62l-8-7.6a11,11,0,0,0-16.37,1.36l-6.68,8.81c-6.32,8.35-19.53,4.07-19.85-6.43l-.34-11.09a11.1,11.1,0,0,0-12.53-10.72l-10.9,1.47c-10.32,1.4-16.66-11.05-9.53-18.71l7.53-8.08a11.23,11.23,0,0,0-1.34-16.52L9.37,65.61c-8.28-6.38-4-19.71,6.37-20l11-.35A11.13,11.13,0,0,0,37.36,32.59l-1.46-11C34.52,11.19,46.86,4.79,54.45,12l8,7.6a11,11,0,0,0,16.37-1.36l6.68-8.81c6.32-8.35,19.53-4.07,19.85,6.43l.34,11.09a11.09,11.09,0,0,0,12.53,10.71l10.9-1.47c10.32-1.39,16.66,11.06,9.53,18.71L131.13,63A11.23,11.23,0,0,0,132.47,79.49Z"/></g></g></svg>