<svg xmlns="http://www.w3.org/2000/svg" viewBox="0 0 22.02 22.02"><defs><style>.cls-1{fill:#f7eee5;}.cls-2,.cls-3{fill:#f7efe6;stroke:#63a043;stroke-miterlimit:10;}.cls-2{stroke-width:1.31px;}.cls-4{fill:#63a043;}</style></defs><g id="Layer_2" data-name="Layer 2"><g id="Layer_1-2" data-name="Layer 1"><g id="soccerball"><path class="cls-1" d="M11,22a11.69,11.69,0,0,1-1.56-.11A11,11,0,0,1,11,0a11.54,11.54,0,0,1,1.55.11,11,11,0,0,1,9.36,12.44A11.06,11.06,0,0,1,11,22Z"/><circle class="cls-2" cx="11.01" cy="11.01" r="9.29"/><path class="cls-3" d="M11.53,3.19a19.3,19.3,0,0,0-1.31,2.15A18,18,0,0,0,9.08,8"/><path class="cls-3" d="M14.6,3.39a12.26,12.26,0,0,1,3.47,5.48"/><path class="cls-3" d="M16.9,10.15l-6.85.07"/><path class="cls-3" d="M6.44,8.7,3.28,5.85"/><path class="cls-3" d="M6.54,11.27,3.23,14.69"/><path class="cls-3" d="M8.9,11.86c.79,2,1.58,4,2.38,6.05"/><path class="cls-3" d="M14.09,17.91a15.27,15.27,0,0,0,2.21-2.55,16,16,0,0,0,1.52-2.75"/><path class="cls-3" d="M10.92,19.46a30.45,30.45,0,0,1-3.59-.82,29.39,29.39,0,0,1-2.81-1"/><polygon class="cls-4" points="9.78 5.93 5.14 7.28 4.99 12.11 9.53 13.74 12.5 9.93 9.78 5.93"/><polygon class="cls-4" points="17.54 7.28 15.51 10.17 17.14 13.98 20.18 13.45 20.42 9.31 17.54 7.28"/><path class="cls-4" d="M8,2.21l2.53,2,4.65.31.26-1.4a10.93,10.93,0,0,0-4.86-1.18A10.45,10.45,0,0,0,8,2.21Z"/><path class="cls-4" d="M5.56,18c-.59-1.32-1.17-2.64-1.76-4l-1.7-1.6A8.41,8.41,0,0,0,5.56,18Z"/><polygon class="cls-4" points="8.88 18.79 11.7 20.2 15.62 18.79 15.23 16.52 11.06 16.52 8.88 18.79"/></g></g></g></svg>