<svg xmlns="http://www.w3.org/2000/svg" viewBox="0 0 166.76 168.16"><defs><style>.cls-1{fill:#649f3d;stroke:#f5eee5;stroke-miterlimit:10;stroke-width:10px;}</style></defs><g id="Layer_2" data-name="Layer 2"><g id="Layer_19" data-name="Layer 19"><path class="cls-1" d="M147.15,88.06l9.75,7.51c9.22,7.11,4.49,22-7.11,22.34l-12.26.38a12.42,12.42,0,0,0-11.85,14.1l1.63,12.26c1.54,11.61-12.22,18.74-20.68,10.72l-8.94-8.47a12.28,12.28,0,0,0-18.26,1.51L72,158.24c-7,9.31-21.78,4.54-22.14-7.17l-.38-12.36a12.37,12.37,0,0,0-14-12l-12.15,1.64C11.84,130,4.76,116.06,12.72,107.53l8.4-9A12.51,12.51,0,0,0,19.61,80.1L9.87,72.59c-9.23-7.12-4.5-22,7.11-22.34l12.25-.38a12.42,12.42,0,0,0,11.85-14.1L39.46,23.51C37.92,11.9,51.68,4.76,60.14,12.79l8.93,8.47a12.27,12.27,0,0,0,18.26-1.52l7.44-9.83c7-9.31,21.78-4.53,22.14,7.17l.38,12.37a12.38,12.38,0,0,0,14,12l12.15-1.64c11.51-1.55,18.58,12.33,10.63,20.87l-8.4,9A12.52,12.52,0,0,0,147.15,88.06Z"/></g></g></svg>