<svg xmlns="http://www.w3.org/2000/svg" viewBox="0 0 128.14 129.18"><defs><style>.cls-1{fill:#649f3d;stroke:#f5eee5;stroke-miterlimit:10;stroke-width:10px;}</style></defs><g id="Layer_2" data-name="Layer 2"><g id="Layer_19" data-name="Layer 19"><path class="cls-1" d="M112.12,67.59l7.35,5.66c7,5.36,3.38,16.56-5.36,16.83l-9.24.29A9.37,9.37,0,0,0,95.94,101l1.23,9.24a9.3,9.3,0,0,1-15.59,8.08l-6.73-6.39a9.25,9.25,0,0,0-13.76,1.14l-5.61,7.41a9.28,9.28,0,0,1-16.68-5.4l-.29-9.32a9.32,9.32,0,0,0-10.53-9L18.82,98c-8.67,1.17-14-9.29-8-15.73l6.32-6.79A9.43,9.43,0,0,0,16,61.59L8.67,55.93C1.72,50.57,5.28,39.37,14,39.1l9.23-.29a9.35,9.35,0,0,0,8.93-10.62L31,19C29.8,10.2,40.18,4.82,46.55,10.87l6.73,6.38A9.24,9.24,0,0,0,67,16.11L72.65,8.7a9.29,9.29,0,0,1,16.69,5.41l.28,9.31a9.32,9.32,0,0,0,10.53,9l9.16-1.23c8.67-1.18,14,9.29,8,15.72L111,53.71A9.44,9.44,0,0,0,112.12,67.59Z"/></g></g></svg>