<svg xmlns="http://www.w3.org/2000/svg" viewBox="0 0 245.5 247.29"><defs><style>.cls-1{fill:#649f3d;stroke:#f5eee5;stroke-miterlimit:10;stroke-width:10px;}</style></defs><g id="Layer_2" data-name="Layer 2"><g id="Layer_19" data-name="Layer 19"><path class="cls-1" d="M213.41,106.81l16.28,7.08c15.42,6.71,14,29.18-2.1,33.77l-17,4.84a17.92,17.92,0,0,0-11.63,23.9L205.53,193c6.23,15.71-10.52,30.53-25.18,22.28l-15.49-8.72a17.71,17.71,0,0,0-25,8.53l-7,16.38c-6.59,15.51-28.89,14-33.51-2.26L94.48,212a17.85,17.85,0,0,0-23.75-11.82l-16.44,6.57C38.73,213,24,196.05,32.08,181.31l8.59-15.57a18.08,18.08,0,0,0-8.58-25.26L15.81,133.4c-15.41-6.72-14-29.18,2.1-33.77l17-4.84a17.92,17.92,0,0,0,11.63-23.9L40,54.3C33.74,38.59,50.49,23.77,65.16,32l15.48,8.72a17.71,17.71,0,0,0,25-8.54l7-16.37c6.6-15.51,28.89-14,33.51,2.25L151,35.26a17.86,17.86,0,0,0,23.76,11.82l16.43-6.57c15.57-6.22,30.34,10.73,22.21,25.47l-8.58,15.57A18.07,18.07,0,0,0,213.41,106.81Z"/></g></g></svg>