<svg xmlns="http://www.w3.org/2000/svg" viewBox="0 0 168.79 170.2"><defs><style>.cls-1{fill:#649f3d;stroke:#f5eee5;stroke-miterlimit:10;stroke-width:10px;}</style></defs><g id="Layer_2" data-name="Layer 2"><g id="Layer_19" data-name="Layer 19"><path class="cls-1" d="M149,89.13l9.87,7.61c9.34,7.2,4.55,22.26-7.2,22.63l-12.42.38a12.58,12.58,0,0,0-12,14.28l1.65,12.42c1.56,11.76-12.38,19-20.95,10.86l-9-8.58a12.43,12.43,0,0,0-18.49,1.53l-7.54,10c-7.14,9.43-22.07,4.6-22.43-7.26l-.38-12.53a12.53,12.53,0,0,0-14.16-12.1L23.58,130c-11.65,1.57-18.82-12.49-10.76-21.14l8.5-9.13A12.68,12.68,0,0,0,19.8,81.06l-9.87-7.6c-9.34-7.2-4.55-22.26,7.2-22.63l12.42-.39a12.57,12.57,0,0,0,12-14.27L39.9,23.75c-1.56-11.76,12.38-19,21-10.86l9.05,8.58a12.42,12.42,0,0,0,18.49-1.54L95.93,10c7.14-9.43,22.06-4.6,22.43,7.26l.38,12.53a12.54,12.54,0,0,0,14.16,12.1l12.31-1.66C156.86,38.64,164,52.7,156,61.35l-8.5,9.13A12.67,12.67,0,0,0,149,89.13Z"/></g></g></svg>