<svg xmlns="http://www.w3.org/2000/svg" viewBox="0 0 206.74 205.15"><defs><style>.cls-1,.cls-2{fill:#f6ede4;}.cls-2{stroke:#649f3d;stroke-miterlimit:10;stroke-width:11.51px;}</style></defs><g id="Layer_2" data-name="Layer 2"><g id="Layer_19" data-name="Layer 19"><g id="DROP"><path class="cls-1" d="M.58,112.94c5.61,55.61,50.41,96.8,100,91.8l22.83-2.39c1.06-.06,2.12-.13,3.19-.23h0c49.49-5,85.2-54.3,79.59-109.91-2.7-26.77-14.51-51.06-33.25-68.4C155.75,7.94,134.7-.37,113,0c-2.25,0-4.5.18-6.76.4L80.17,3C30.68,8-5,57.33.58,112.94Z"/><path class="cls-2" d="M81.71,18.3c-41.15,4.15-70.64,45.83-65.87,93.1s42,82.24,83.13,78.09v-.08L125,186.78,107.77,15.67Z"/><ellipse class="cls-2" cx="116.4" cy="101.26" rx="74.88" ry="86.03" transform="translate(-9.57 12.19) rotate(-5.76)"/><ellipse class="cls-2" cx="116.4" cy="101.26" rx="34.03" ry="39.1" transform="translate(-9.57 12.19) rotate(-5.76)"/></g></g></g></svg>