<svg xmlns="http://www.w3.org/2000/svg" viewBox="0 0 207.91 209.47"><defs><style>.cls-1,.cls-2{fill:#f6ede4;}.cls-2{stroke:#649f3d;stroke-miterlimit:10;stroke-width:11.51px;}</style></defs><g id="Layer_2" data-name="Layer 2"><g id="Layer_19" data-name="Layer 19"><g id="DROP"><path class="cls-1" d="M200.29,67.39C180.09,15.27,126-12.52,79.5,5.48L58.13,13.86c-1,.34-2,.69-3,1.07h0C8.74,32.9-12.57,89.93,7.62,142c9.73,25.09,27.57,45.37,50.25,57.1,20.76,10.74,43.26,13.15,64.09,7q3.23-.94,6.41-2.18l24.42-9.46C199.18,176.52,220.48,119.5,200.29,67.39Z"/><path class="cls-2" d="M147.25,180.2c38.56-14.94,55.91-63,38.74-107.27S123.65,4.82,85.09,19.76l0,.08L60.69,29.31l62.14,160.35Z"/><ellipse class="cls-2" cx="91.74" cy="109.45" rx="74.88" ry="86.03" transform="translate(-33.35 40.54) rotate(-21.18)"/><ellipse class="cls-2" cx="91.74" cy="109.45" rx="34.03" ry="39.1" transform="translate(-33.35 40.54) rotate(-21.18)"/></g></g></g></svg>