<svg xmlns="http://www.w3.org/2000/svg" viewBox="0 0 207.77 209.12"><defs><style>.cls-1,.cls-2{fill:#f6ede4;}.cls-2{stroke:#649f3d;stroke-miterlimit:10;stroke-width:11.51px;}</style></defs><g id="Layer_2" data-name="Layer 2"><g id="Layer_19" data-name="Layer 19"><g id="DROP"><path class="cls-1" d="M6.48,70.11C-12.16,122.8,10.8,179.16,57.77,195.77l21.67,7.58c1,.39,2,.78,3,1.14h0c46.89,16.59,100.21-12.78,118.85-65.48,9-25.36,8.65-52.37-.91-76-8.75-21.67-24.25-38.16-44.05-47.07-2.05-.92-4.15-1.76-6.28-2.52l-24.7-8.74C78.43-12,25.12,17.42,6.48,70.11Z"/><path class="cls-2" d="M120.22,19.09C81.23,5.3,36.78,30.43,20.93,75.22s2.92,92.29,41.9,106.08l0-.08L87.56,190,144.91,27.83Z"/><ellipse class="cls-2" cx="116.22" cy="108.93" rx="86.03" ry="74.88" transform="translate(-25.23 182.17) rotate(-70.52)"/><ellipse class="cls-2" cx="116.22" cy="108.93" rx="39.1" ry="34.03" transform="translate(-25.23 182.17) rotate(-70.52)"/></g></g></g></svg>