<svg xmlns="http://www.w3.org/2000/svg" viewBox="0 0 348.42 89.4"><defs><style>.cls-1{fill:#f5eee5;}.cls-2{fill:#244461;}</style></defs><g id="Layer_2" data-name="Layer 2"><g id="Layer_20_copy" data-name="Layer 20 copy"><rect class="cls-1" width="348.42" height="89.4" rx="22.7"/><path class="cls-2" d="M67,56.22a3.63,3.63,0,0,1-1.18,1,3.44,3.44,0,0,1-1.51.3,4.84,4.84,0,0,1-.9-.07,4,4,0,0,1-.9-.27,7,7,0,0,0-1.17-.3,7.75,7.75,0,0,0-1.26-.09c-.54,0-1.19,0-1.94,0l-3.61.12-4,.18c-.84,0-1.59,0-2.24,0-1.17,0-2.14,0-2.92-.09a18.13,18.13,0,0,1-2-.25,4.19,4.19,0,0,1-2-.79,1.88,1.88,0,0,1-.59-1.48,2.78,2.78,0,0,1,.27-1.26,3.14,3.14,0,0,1,1-1,4,4,0,0,0,.64-.51,4.72,4.72,0,0,0,.43-.52,2.39,2.39,0,0,0,.3-.7,7.53,7.53,0,0,0,.12-.88c0-.62.06-1.81.09-3.56s0-3.41,0-5q0-4.36,0-6.15c0-1.2,0-2.07-.06-2.61a6.11,6.11,0,0,0-.13-.91,2,2,0,0,0-.3-.62,4.22,4.22,0,0,0-.47-.56,3.2,3.2,0,0,0-.6-.47,2.94,2.94,0,0,1-1-1,2.62,2.62,0,0,1-.26-1.22A2,2,0,0,1,41.65,26a4.27,4.27,0,0,1,2.07-.87,17.57,17.57,0,0,1,2.28-.3q1.26-.09,3.18-.09c1.25,0,2.43,0,3.52.09s2,.14,2.8.26a5.66,5.66,0,0,1,2.62,1,2.11,2.11,0,0,1,1,1.75,2.43,2.43,0,0,1-.47,1.51,3.48,3.48,0,0,1-1.54,1.05,9.51,9.51,0,0,0-1.17.55,3.85,3.85,0,0,0-.75.56,2.1,2.1,0,0,0-.47.7,4,4,0,0,0-.26.92c-.06.51-.1,1.38-.13,2.59s0,2.59,0,4.16v2.52c0,2.56,0,4.2,0,4.91s0,1.18.07,1.4a2.54,2.54,0,0,0,.59,1.41,2.07,2.07,0,0,0,1.29.64h.21a.33.33,0,0,0,.15,0h.74a4.06,4.06,0,0,0,1.07-.15,5.17,5.17,0,0,0,1.11-.45,3.91,3.91,0,0,0,.83-.56,7,7,0,0,0,.84-.81,6.58,6.58,0,0,0,.55-.64c.2-.25.41-.54.64-.85l.32-.43c.16-.2.37-.47.62-.81a6.15,6.15,0,0,1,1.6-1.54,3.23,3.23,0,0,1,1.65-.47A2.72,2.72,0,0,1,68.8,45a4.41,4.41,0,0,1,.74,2.78,19,19,0,0,1-.12,2.13A13.36,13.36,0,0,1,69,52a14,14,0,0,1-.85,2.37A9.51,9.51,0,0,1,67,56.22Z"/><path class="cls-2" d="M96.06,51.05a10.82,10.82,0,0,1-4.38,4.74,13.67,13.67,0,0,1-6.77,1.54q-6.18,0-9.71-3.27a11.59,11.59,0,0,1-3.52-8.94,12,12,0,0,1,4-9.39A14.84,14.84,0,0,1,86,32.1a11.38,11.38,0,0,1,7.9,2.71,9.09,9.09,0,0,1,3,7.11,3.61,3.61,0,0,1-1.26,3,6.06,6.06,0,0,1-3.82,1H83.5a1.43,1.43,0,0,0-.83.23.75.75,0,0,0-.32.62A2.64,2.64,0,0,0,84,49.09a8.09,8.09,0,0,0,4,.9,8.23,8.23,0,0,0,2.73-.45A7.16,7.16,0,0,0,93,48.15a5,5,0,0,1,1-.68,1.65,1.65,0,0,1,.77-.22,1.85,1.85,0,0,1,1.32.52A1.61,1.61,0,0,1,96.65,49a3,3,0,0,1-.15.94A7.23,7.23,0,0,1,96.06,51.05Zm-14.77-9.9a1.6,1.6,0,0,0,.25,1,1.05,1.05,0,0,0,.86.32h3a2.64,2.64,0,0,0,1.48-.32,1.14,1.14,0,0,0,.44-1,2.33,2.33,0,0,0-.83-1.84,3.24,3.24,0,0,0-2.2-.72,3.16,3.16,0,0,0-2.15.72A2.33,2.33,0,0,0,81.29,41.15Z"/><path class="cls-2" d="M112.75,54.08A6.87,6.87,0,0,1,110,56.45a8.22,8.22,0,0,1-3.76.88,7.38,7.38,0,0,1-5.12-1.65,5.85,5.85,0,0,1-1.84-4.63,6.34,6.34,0,0,1,.83-3.28,6.54,6.54,0,0,1,2.5-2.35,12.7,12.7,0,0,1,2.28-1,40.22,40.22,0,0,1,4.3-1l.76-.15a2.88,2.88,0,0,0,.47-.15,4.2,4.2,0,0,0,1.88-1,2.56,2.56,0,0,0,.6-1.65v-.13a2.15,2.15,0,0,0-.64-1.66,2.53,2.53,0,0,0-1.79-.6,2.58,2.58,0,0,0-1.58.54,3.6,3.6,0,0,0-1.16,1.51,5.71,5.71,0,0,1-1.85,2.54,4.61,4.61,0,0,1-2.67.75,4.18,4.18,0,0,1-3-1,3.52,3.52,0,0,1-1.13-2.71q0-3.15,4-5.25a18.32,18.32,0,0,1,8.69-2.09q5.46,0,8.21,2.3t2.76,6.83v1.65c0,.55,0,1.33,0,2.33v3.24a6,6,0,0,0,.06.9,7.09,7.09,0,0,0,.28,1.06,1,1,0,0,0,.34.43,2.53,2.53,0,0,0,.68.38,2.51,2.51,0,0,1,1.09.75,2.12,2.12,0,0,1,.28,1.18,2.61,2.61,0,0,1-.43,1.49,4.3,4.3,0,0,1-1.41,1.24,8.14,8.14,0,0,1-2.18.81,11.49,11.49,0,0,1-2.64.3,10.35,10.35,0,0,1-2.14-.17,4.37,4.37,0,0,1-1.49-.73,3.24,3.24,0,0,1-.83-.92,4.36,4.36,0,0,1-.54-1.21,1.08,1.08,0,0,0-.17-.41.31.31,0,0,0-.25-.11.44.44,0,0,0-.3.11A1.48,1.48,0,0,0,112.75,54.08Zm-3.5-5.16a2.19,2.19,0,0,0,.57,1.6,2.15,2.15,0,0,0,1.56.58,1.83,1.83,0,0,0,1.18-.37,2.12,2.12,0,0,0,.66-1.13,5.5,5.5,0,0,0,.13-.68c0-.26,0-.57,0-.94v-.26a2,2,0,0,0-.28-1.28c-.18-.2-.52-.21-1,0l-.26.08-.19.07a1,1,0,0,0-.28.11.59.59,0,0,0-.23.08.21.21,0,0,1-.11,0,2.9,2.9,0,0,0-1.37.81A2.06,2.06,0,0,0,109.25,48.92Z"/><path class="cls-2" d="M145.92,32a4.71,4.71,0,0,1,3.84,1.79,7.09,7.09,0,0,1,1.45,4.61,7.37,7.37,0,0,1-1.45,4.76,5,5,0,0,1-6,1.33,5,5,0,0,1-1.68-1.6s-.24-.33-.62-.9-.75-.85-1.09-.85a.83.83,0,0,0-.75.59,5,5,0,0,0-.36,1.75c0,.69-.06,1.24-.09,1.67s0,.74,0,.94c0,.62,0,1.24,0,1.83s0,1.14.06,1.63a4.08,4.08,0,0,0,.2,1.06,2.51,2.51,0,0,0,.53.86l.38.36a8.42,8.42,0,0,0,.82.58,1.83,1.83,0,0,1,.66.81,3.12,3.12,0,0,1,.19,1.19,1.85,1.85,0,0,1-.6,1.39,3.94,3.94,0,0,1-1.75.88,15.58,15.58,0,0,1-2.22.36c-.77.07-1.91.11-3.41.11s-2.57-.06-3.5-.15a9.31,9.31,0,0,1-2.31-.5,1.86,1.86,0,0,1-1.28-1.87,2.19,2.19,0,0,1,.26-1.14,3.7,3.7,0,0,1,.93-1,6.51,6.51,0,0,0,.52-.42,1.4,1.4,0,0,0,.25-.34,2.39,2.39,0,0,0,.26-.77,9.93,9.93,0,0,0,.13-1.16c0-1.05.05-1.92.06-2.62s0-1.36,0-2c0-1.19,0-2,0-2.43a6.71,6.71,0,0,0-.11-1.11,4.36,4.36,0,0,0-.17-.81.9.9,0,0,0-.21-.39,2.06,2.06,0,0,0-.47-.42,1.79,1.79,0,0,0-.64-.26A1.73,1.73,0,0,1,126.11,38a3.12,3.12,0,0,1,.85-2,9.8,9.8,0,0,1,2.48-2.09A10.32,10.32,0,0,1,132,32.67a8.73,8.73,0,0,1,2.56-.4,6.1,6.1,0,0,1,1.43.15,3.9,3.9,0,0,1,1.05.4,3.81,3.81,0,0,1,.77.62,3.51,3.51,0,0,1,.55.79,6.09,6.09,0,0,1,.39,1.15,9.17,9.17,0,0,1,.21,1.46c0,.34.14.53.34.57s.36-.1.47-.45A10.52,10.52,0,0,1,141,34.49a6.51,6.51,0,0,1,1.56-1.58,5.12,5.12,0,0,1,1.53-.71A7.19,7.19,0,0,1,145.92,32Z"/><path class="cls-2" d="M160.18,57.16a27.53,27.53,0,0,1-3.25-.17,10.78,10.78,0,0,1-2.3-.52,2.12,2.12,0,0,1-1-.72,1.89,1.89,0,0,1-.34-1.15,2.17,2.17,0,0,1,.27-1.11,3.24,3.24,0,0,1,.92-.94c.17-.15.32-.28.45-.41a2.34,2.34,0,0,0,.32-.4,2.66,2.66,0,0,0,.26-.77c.05-.32.09-.7.12-1.16,0-1.05,0-1.92.07-2.62s0-1.36,0-2c0-1.19,0-2,0-2.43a8,8,0,0,0-.11-1.11,4.62,4.62,0,0,0-.21-.87,1.61,1.61,0,0,0-.34-.54,2.17,2.17,0,0,0-.41-.3,1.74,1.74,0,0,0-.53-.17,2.09,2.09,0,0,1-1.2-.62,1.77,1.77,0,0,1-.38-1.21,3.31,3.31,0,0,1,.89-2,10.08,10.08,0,0,1,2.44-2.07,10,10,0,0,1,2.54-1.18,9,9,0,0,1,2.62-.4,5.52,5.52,0,0,1,1.75.25,3.26,3.26,0,0,1,1.24.73,4.27,4.27,0,0,1,.73,1,5.61,5.61,0,0,1,.47,1.13,4.1,4.1,0,0,1,.12.69,6.77,6.77,0,0,1,0,.81.68.68,0,0,0,.1.4.33.33,0,0,0,.28.15.34.34,0,0,0,.19-.08,1.73,1.73,0,0,0,.28-.35,12.07,12.07,0,0,1,3.61-3.82,8,8,0,0,1,4.12-1A6.36,6.36,0,0,1,179,34c1.16,1.3,1.79,3.25,1.9,5.87.06.91.1,1.79.11,2.65s0,1.66,0,2.43,0,1.67,0,2.43,0,1.48,0,2.14a11.65,11.65,0,0,0,.11,1.58,1.86,1.86,0,0,0,.15.47,1.36,1.36,0,0,0,.23.3l.53.55a4.34,4.34,0,0,1,.86,1.07,2.39,2.39,0,0,1,.17.94,2,2,0,0,1-.36,1.15,2.56,2.56,0,0,1-1,.81,7.92,7.92,0,0,1-2.24.56,30.58,30.58,0,0,1-3.52.17,32.37,32.37,0,0,1-3.72-.15,5.72,5.72,0,0,1-2-.58,2.3,2.3,0,0,1-.87-.79,1.88,1.88,0,0,1-.32-1.09,2.61,2.61,0,0,1,.19-1,2.31,2.31,0,0,1,.66-.84,3.76,3.76,0,0,0,.45-.44,4.83,4.83,0,0,0,.32-.45,2.4,2.4,0,0,0,.25-.77,9.74,9.74,0,0,0,.13-1.15c0-.34,0-.78,0-1.33V45.76a16.68,16.68,0,0,0-.26-3.25,4.11,4.11,0,0,0-.77-1.83,2.62,2.62,0,0,0-1-.75,3.12,3.12,0,0,0-1.22-.23,3.06,3.06,0,0,0-1.36.25,1.36,1.36,0,0,0-.69.73,4,4,0,0,0-.19,1.07c0,.51-.06,2.14-.06,4.91v2.28c0,.41,0,.79,0,1.13a9.77,9.77,0,0,0,.11,1.11,2.59,2.59,0,0,0,.15.6,1.31,1.31,0,0,0,.27.47,4.63,4.63,0,0,0,.45.42,1.94,1.94,0,0,1,.58.73,2.35,2.35,0,0,1,.19,1,2,2,0,0,1-.36,1.24,2.61,2.61,0,0,1-1.18.77,14,14,0,0,1-2.49.58A23.94,23.94,0,0,1,160.18,57.16Z"/><path class="cls-2" d="M201.25,57.16c-1.2,0-2.2,0-3-.11a8.74,8.74,0,0,1-1.86-.32,2.69,2.69,0,0,1-1.3-.81,2.06,2.06,0,0,1-.41-1.32,2.29,2.29,0,0,1,.47-1.37,6.67,6.67,0,0,1,1.75-1.45,2.69,2.69,0,0,0,.43-.34,2.14,2.14,0,0,0,.55-1,4.76,4.76,0,0,0,.13-.87c0-.63.06-1.8.09-3.52s0-3.37,0-4.93V35c0-1.22,0-2,0-2.26q0-.81-.09-1.17a1.81,1.81,0,0,0-.17-.62,1.39,1.39,0,0,0-.17-.3,2.84,2.84,0,0,0-.34-.39l-.45-.4a2.72,2.72,0,0,1-.49-.53,1.69,1.69,0,0,1-.3-.58A2.78,2.78,0,0,1,196,28a2.43,2.43,0,0,1,.34-1.26,2.82,2.82,0,0,1,1-1,6.59,6.59,0,0,1,2.22-.7,21,21,0,0,1,3.46-.24c2.28,0,3.72,0,4.33.11a12.66,12.66,0,0,1,1.73.32,3.53,3.53,0,0,1,1.94,1.3,15.78,15.78,0,0,1,1.82,3.52c.28.69.58,1.43.89,2.22s.79,1.95,1.41,3.46l1,2.69c.21.54.4,1,.58,1.37a1.28,1.28,0,0,0,.23.45.32.32,0,0,0,.23.1.3.3,0,0,0,.24-.13,1.55,1.55,0,0,0,.23-.47c.32-.88.8-2.14,1.46-3.77s1.46-3.65,2.43-6c.43-1.11.72-1.82.87-2.12a5.36,5.36,0,0,1,.5-.79A5.31,5.31,0,0,1,224.05,26a4.8,4.8,0,0,1,1.49-.72,12,12,0,0,1,2.11-.39c.84-.08,1.86-.13,3.06-.13s2,0,2.77.09a17.5,17.5,0,0,1,1.79.21,2.64,2.64,0,0,1,1.5.77,2.26,2.26,0,0,1,.47,1.5,2.83,2.83,0,0,1-.26,1.19,4,4,0,0,1-.85,1.15,2.29,2.29,0,0,0-.34.41,1.88,1.88,0,0,0-.22.45,7.71,7.71,0,0,0-.21.83,8.91,8.91,0,0,0-.13,1c0,.91-.06,2.34-.08,4.29s-.05,3.45-.05,4.51v6.06c0,1.22,0,2,.05,2.26a5.94,5.94,0,0,0,.14,1,2.68,2.68,0,0,0,.33.79,3.4,3.4,0,0,0,.38.47,1.94,1.94,0,0,0,.47.34,2.16,2.16,0,0,1,.92.87,3.31,3.31,0,0,1,.23,1.35,2.1,2.1,0,0,1-.66,1.6,4,4,0,0,1-2,.87,17.32,17.32,0,0,1-2.34.3c-.86.06-1.84.09-2.95.09s-2.19,0-3-.09a18.54,18.54,0,0,1-2.05-.25,4.32,4.32,0,0,1-2-.81,1.83,1.83,0,0,1-.64-1.46,2.92,2.92,0,0,1,.25-1.26,3.94,3.94,0,0,1,1.16-1.21,2.75,2.75,0,0,0,.81-.86,2.73,2.73,0,0,0,.32-.72,5.27,5.27,0,0,0,.15-.81c0-.26,0-.82,0-1.69V40.46a9,9,0,0,0,0-1,1.49,1.49,0,0,0-.13-.53.28.28,0,0,0-.26-.15A.45.45,0,0,0,224,39a1,1,0,0,0-.23.4q-1.87,5-3.25,8.48T218,54a5.54,5.54,0,0,1-1.26,2,3.08,3.08,0,0,1-3.23.21,3.06,3.06,0,0,1-1-1.22c-.51-1.08-1-2.14-1.45-3.18s-1.07-2.51-1.84-4.42l-1.45-3.67c-.68-1.73-1.24-3.11-1.66-4.14a2,2,0,0,0-.34-.55.53.53,0,0,0-.39-.17.34.34,0,0,0-.32.21,2,2,0,0,0-.15.64c0,.28-.05.65-.06,1.09s0,1.09,0,1.94c0,1.88,0,3.34,0,4.38s0,1.7.06,2a2.3,2.3,0,0,0,.22.83,2.2,2.2,0,0,0,.47.67,3.81,3.81,0,0,0,.51.42,4.8,4.8,0,0,0,.85.47A6,6,0,0,1,209,52.8a2,2,0,0,1,.45,1.33,2.33,2.33,0,0,1-.72,1.73,4,4,0,0,1-2.1,1c-.62.11-1.3.19-2,.25S202.73,57.16,201.25,57.16Z"/><path class="cls-2" d="M266.4,44.61q0,6-3.76,9.35t-10.33,3.37q-6.15,0-9.74-3.29a11.55,11.55,0,0,1-3.58-9,12.13,12.13,0,0,1,3.9-9.44A14.54,14.54,0,0,1,253,32.1a13.63,13.63,0,0,1,9.65,3.43A11.79,11.79,0,0,1,266.4,44.61Zm-17.81-2a8.43,8.43,0,0,0,1.84,5.13c1.22,1.62,2.52,2.43,3.88,2.43a2.43,2.43,0,0,0,2-.79A3.64,3.64,0,0,0,257,47a8.5,8.5,0,0,0-1.81-5.14c-1.21-1.64-2.52-2.46-3.91-2.46a2.4,2.4,0,0,0-1.94.85A3.6,3.6,0,0,0,248.59,42.64Z"/><path class="cls-2" d="M287.4,32a4.71,4.71,0,0,1,3.84,1.79,7.09,7.09,0,0,1,1.45,4.61,7.37,7.37,0,0,1-1.45,4.76,5,5,0,0,1-6,1.33,5.06,5.06,0,0,1-1.69-1.6l-.61-.9c-.39-.57-.75-.85-1.09-.85a.83.83,0,0,0-.75.59,5,5,0,0,0-.36,1.75c0,.69-.06,1.24-.09,1.67s0,.74,0,.94c0,.62,0,1.24,0,1.83s0,1.14.06,1.63a4.08,4.08,0,0,0,.2,1.06,2.51,2.51,0,0,0,.53.86l.38.36a8.42,8.42,0,0,0,.82.58,1.83,1.83,0,0,1,.66.81,3.12,3.12,0,0,1,.19,1.19,1.85,1.85,0,0,1-.6,1.39,3.94,3.94,0,0,1-1.75.88,15.58,15.58,0,0,1-2.22.36c-.77.07-1.91.11-3.41.11s-2.57-.06-3.5-.15a9.31,9.31,0,0,1-2.31-.5,1.86,1.86,0,0,1-1.28-1.87,2.19,2.19,0,0,1,.26-1.14,3.7,3.7,0,0,1,.93-1,6.51,6.51,0,0,0,.52-.42,1.4,1.4,0,0,0,.25-.34,2.39,2.39,0,0,0,.26-.77,9.93,9.93,0,0,0,.13-1.16c0-1.05.05-1.92.06-2.62s0-1.36,0-2c0-1.19,0-2,0-2.43a6.71,6.71,0,0,0-.11-1.11,4.36,4.36,0,0,0-.17-.81.9.9,0,0,0-.21-.39,2.06,2.06,0,0,0-.47-.42,1.79,1.79,0,0,0-.64-.26A1.73,1.73,0,0,1,267.59,38a3.12,3.12,0,0,1,.85-2,9.8,9.8,0,0,1,2.48-2.09,10.32,10.32,0,0,1,2.52-1.18,8.68,8.68,0,0,1,2.56-.4,6.1,6.1,0,0,1,1.43.15,3.9,3.9,0,0,1,1.05.4,3.81,3.81,0,0,1,.77.62,3.51,3.51,0,0,1,.55.79,5.5,5.5,0,0,1,.38,1.15,8.18,8.18,0,0,1,.22,1.46c0,.34.14.53.34.57s.35-.1.47-.45a10.52,10.52,0,0,1,1.26-2.47A6.51,6.51,0,0,1,284,32.91a5.12,5.12,0,0,1,1.53-.71A7.19,7.19,0,0,1,287.4,32Z"/><path class="cls-2" d="M318,51.05a10.82,10.82,0,0,1-4.38,4.74,13.67,13.67,0,0,1-6.77,1.54q-6.18,0-9.71-3.27a11.59,11.59,0,0,1-3.52-8.94,12,12,0,0,1,4-9.39,14.84,14.84,0,0,1,10.31-3.63,11.38,11.38,0,0,1,7.9,2.71,9.09,9.09,0,0,1,3,7.11,3.61,3.61,0,0,1-1.26,3,6.06,6.06,0,0,1-3.82,1h-8.37a1.43,1.43,0,0,0-.83.23.75.75,0,0,0-.32.62,2.64,2.64,0,0,0,1.65,2.31,8.09,8.09,0,0,0,3.95.9,8.23,8.23,0,0,0,2.73-.45,7.16,7.16,0,0,0,2.35-1.39,5,5,0,0,1,1-.68,1.65,1.65,0,0,1,.77-.22,1.85,1.85,0,0,1,1.32.52,1.61,1.61,0,0,1,.55,1.23,3,3,0,0,1-.15.94A7.23,7.23,0,0,1,318,51.05Zm-14.77-9.9a1.6,1.6,0,0,0,.25,1,1.05,1.05,0,0,0,.86.32h3a2.64,2.64,0,0,0,1.48-.32,1.14,1.14,0,0,0,.44-1,2.33,2.33,0,0,0-.83-1.84,3.24,3.24,0,0,0-2.2-.72,3.16,3.16,0,0,0-2.15.72A2.33,2.33,0,0,0,303.2,41.15Z"/></g></g></svg>