<svg xmlns="http://www.w3.org/2000/svg" viewBox="0 0 556.29 98.78"><defs><style>.cls-1{fill:#f5eee5;stroke:#64a03d;stroke-miterlimit:10;stroke-width:6px;}.cls-2{fill:#649f3d;}</style></defs><g id="Layer_2" data-name="Layer 2"><g id="Layer_20_copy" data-name="Layer 20 copy"><rect class="cls-1" x="3" y="3" width="550.29" height="92.78" rx="22.7"/><path class="cls-2" d="M68.63,26.21h7.74V64.55H68.63V49H54.33V64.55H46.6V26.21h7.73V42h14.3Z"/><path class="cls-2" d="M82.38,51.58c0-8.23,6.57-13.69,14-13.69s14,5.46,14,13.69-6.56,13.64-14,13.64S82.38,59.76,82.38,51.58Zm20.53,0a6.57,6.57,0,1,0-13.13,0,6.57,6.57,0,1,0,13.13,0Z"/><path class="cls-2" d="M146,38.56h7.91l-9.18,26h-6.24l-5.34-16.86L128,64.55h-6.24l-9.46-26h7.9l4.9,15.86L130,38.56h6.12l5,15.86Z"/><path class="cls-2" d="M190.17,24.42h7.29V64.55h-7.29V61.32c-1.84,2.67-5.46,3.9-8.35,3.9-6.68,0-12.74-5.35-12.74-13.69s6.06-13.64,12.74-13.64c3,0,6.51,1.17,8.35,3.84ZM190,51.53a6.86,6.86,0,0,0-6.74-6.85,6.78,6.78,0,0,0-6.73,6.85,6.74,6.74,0,1,0,13.47,0Z"/><path class="cls-2" d="M203.19,51.58c0-8.23,6.57-13.69,14-13.69s14,5.46,14,13.69-6.57,13.64-14,13.64S203.19,59.76,203.19,51.58Zm20.53,0a6.57,6.57,0,1,0-13.13,0,6.57,6.57,0,1,0,13.13,0Z"/><path class="cls-2" d="M265.4,38.56v5.68h-5.51V64.55H252.6V44.24h-4.73V38.56h4.73V29.1h7.29v9.46Z"/><path class="cls-2" d="M295.51,50.3V64.55h-7.29V50.75c0-4.07-2.45-6-5-6s-5.85,1.45-5.85,6.12V64.55h-7.29V24.42h7.29V42.68c1.12-3.34,5.29-4.79,7.79-4.79C292,37.89,295.56,42.51,295.51,50.3Z"/><path class="cls-2" d="M328.12,53.92H308.58c.78,3.06,3.23,4.84,6.68,4.84a9.29,9.29,0,0,0,6.85-3.06L326.34,60c-2.45,3.29-7,5.24-11.52,5.24-8,0-13.86-5.63-13.86-13.64,0-8.4,6.4-13.69,13.8-13.69s13.52,5.29,13.52,13.25C328.28,51.86,328.23,52.75,328.12,53.92Zm-7.18-4.73c-.22-3.06-2.73-5-6-5a6,6,0,0,0-6.35,5Z"/><path class="cls-2" d="M350,38.56h7.85l-16,38.73h-7.79l6.18-15.19L330,38.56h8l6.12,15Z"/><path class="cls-2" d="M404.19,38.56h7.9l-9.18,26h-6.23l-5.35-16.86-5.17,16.86h-6.24l-9.46-26h7.91l4.89,15.86,5-15.86h6.12l5,15.86Z"/><path class="cls-2" d="M414.15,51.58c0-8.23,6.57-13.69,14-13.69s14,5.46,14,13.69-6.56,13.64-14,13.64S414.15,59.76,414.15,51.58Zm20.53,0a6.57,6.57,0,1,0-13.13,0,6.57,6.57,0,1,0,13.13,0Z"/><path class="cls-2" d="M466.79,38.73l-1.67,7a7.61,7.61,0,0,0-3.73-.94c-3.73,0-6.28,3.5-6.28,10.9v8.91h-7.29v-26h7.23v5.56c1.45-4.34,4.4-6.23,7.62-6.23A9.17,9.17,0,0,1,466.79,38.73Z"/><path class="cls-2" d="M496.17,64.55H487.1L478,53.31V64.55h-7.29V24.42H478v22.1l6.56-8h9.35L483.76,50Z"/><path class="cls-2" d="M503.57,51.69l-.05-1.11c-.39-4.29.67-7.07,5.28-9l2-.78a4.52,4.52,0,0,0,2.89-4.12c0-2.72-1.89-4.23-4.56-4.23a4.79,4.79,0,0,0-4.79,4.85h-6.73c0-7.63,5.06-11.8,11.63-11.8s11.41,4.12,11.41,10.79a11,11,0,0,1-7.46,10.74c-2.11.73-3.67,1.28-3.67,3.57v1Zm-1.67,8.85a4.65,4.65,0,0,1,9.3,0,4.65,4.65,0,0,1-9.3,0Z"/></g></g></svg>