<svg xmlns="http://www.w3.org/2000/svg" xmlns:xlink="http://www.w3.org/1999/xlink" viewBox="0 0 432.5 78"><defs><style>.cls-1{fill:none;}.cls-2{clip-path:url(#clip-path);}.cls-3{fill:#234460;}</style><clipPath id="clip-path" transform="translate(0 0)"><rect class="cls-1" width="432.5" height="78"/></clipPath></defs><g id="Layer_2" data-name="Layer 2"><g id="Layer_20_copy" data-name="Layer 20 copy"><g id="consolidated"><g class="cls-2"><g class="cls-2"><path class="cls-3" d="M197.38,60.93V8.71a.94.94,0,0,1,.94-1c7,0,14.08,0,21.12,0a43.65,43.65,0,0,1,13.34,1.74c8,2.58,13.19,7.86,15.44,16a35.11,35.11,0,0,1,.84,13.62,29,29,0,0,1-2.75,9.82,21.6,21.6,0,0,1-8.9,9.18,28.94,28.94,0,0,1-12.52,3.54c-2.88.17-5.76.21-8.65.23-6,0-11.91,0-17.86,0h-.06a.94.94,0,0,1-.94-1m21.2-34.75V43.06a.94.94,0,0,0,.92.94,14.22,14.22,0,0,0,1.85,0,5.15,5.15,0,0,0,4.53-3A16.37,16.37,0,0,0,226.62,30c-.89-3.6-3.75-5.15-7.19-4.78a1,1,0,0,0-.85.95" transform="translate(0 0)"/><path class="cls-3" d="M397.08,46c1.67.71,3.31,1.43,5,2.05a27.31,27.31,0,0,0,8.34,1.77,11.51,11.51,0,0,0,1.85-.08,1.31,1.31,0,0,0,1.25-1.24c0-.78-.62-1-1.2-1.07-2.22-.39-4.47-.68-6.69-1.1a18.15,18.15,0,0,1-7.3-2.77c-3.21-2.25-4.28-5.44-4.13-9.2a11.39,11.39,0,0,1,3.71-8,19.32,19.32,0,0,1,10.32-4.72,35.08,35.08,0,0,1,7.73-.43,49.36,49.36,0,0,1,11.95,1.92c.71.22,1.4.48,2.11.77a1.39,1.39,0,0,1,.78,1.79c-.45,1.15-.87,2.24-1.3,3.33l-2.64,6.75a.91.91,0,0,1-1.3.49A23.46,23.46,0,0,0,416.32,34a4.76,4.76,0,0,0-1.88.3,1.61,1.61,0,0,0-.8,1.08,1.24,1.24,0,0,0,.69,1,14.69,14.69,0,0,0,3.19.83A34.67,34.67,0,0,1,425.17,39c3,1.1,5.51,2.88,6.68,6.07a11.69,11.69,0,0,1,.6,5,12.41,12.41,0,0,1-2.63,7.12,14.35,14.35,0,0,1-6.28,4.19,28.75,28.75,0,0,1-9,1.57,49.39,49.39,0,0,1-11-.66,28.59,28.59,0,0,1-10.4-3.79,1,1,0,0,1-.4-1.22c1-3.63,2.11-7.25,3.18-10.88.15-.47.43-.63,1.11-.35" transform="translate(0 0)"/><path class="cls-3" d="M254.21,61.84a1,1,0,0,1-1-1c0-12.75,0-25.37,0-38,0-.55.15-.71.69-.71h16.71c.55,0,.71.2.7.72,0,1.16,0,2.32,0,3.48a1.47,1.47,0,0,0,.2.81l.42-.55a15.17,15.17,0,0,1,7.35-5.26c5.26-1.72,10.38.82,12.23,1.91a1,1,0,0,1,.4,1.17q-3,7.49-6,15a.93.93,0,0,1-1.33.47,7.87,7.87,0,0,0-4.94-1,8.21,8.21,0,0,0-6.63,6.7,5.28,5.28,0,0,0-.06,1c-.09,7.88-.14,13.46-.08,14.26a1,1,0,0,1-.2.79,1,1,0,0,1-.79.2c-.78-.06-7.79-.07-17.71,0" transform="translate(0 0)"/><path class="cls-3" d="M60.12,22.36H75.68a1,1,0,0,1,.95.95V60.94a1,1,0,0,1-.95,1H60.12a.94.94,0,0,1-.95-1V23.31a1,1,0,0,1,.95-.95" transform="translate(0 0)"/><path class="cls-3" d="M67.86,18.37a11.93,11.93,0,0,1-5.43-1.17,8.23,8.23,0,0,1-4.6-6.08A9,9,0,0,1,65.07.3a13.25,13.25,0,0,1,7.38.49,8.28,8.28,0,0,1,5.49,6.3,9,9,0,0,1-3.78,9.61,10.21,10.21,0,0,1-4.65,1.56c-.55,0-1.1.07-1.65.11" transform="translate(0 0)"/><path class="cls-3" d="M32.13,8.71A36.94,36.94,0,0,1,27,19.83a34.31,34.31,0,0,1-6.14,6.66V8.81a1,1,0,0,0-.95-.94H1a.94.94,0,0,0-.95,1V61a.94.94,0,0,0,1,1H20a1,1,0,0,0,.95-1q0-7.8-.08-15.59c.51,1.42,4.65,12.26,16.17,16,7.36,2.42,14,.15,16.68-.87a.94.94,0,0,0,.61-.89v-17a.94.94,0,0,0-1.46-.79,10.1,10.1,0,0,1-5.43,1.64,10.59,10.59,0,0,1-8.11-4A10.33,10.33,0,0,1,37.54,36a.94.94,0,0,1,.24-.9,66.89,66.89,0,0,0,8.64-10.7A67,67,0,0,0,53.81,9.11a1,1,0,0,0-.9-1.24l-19.6,0a1.07,1.07,0,0,0-1.18.87" transform="translate(0 0)"/><path class="cls-3" d="M99.68,23v3.65a.05.05,0,0,0,.1,0A16.37,16.37,0,0,1,112.65,21c8.62,0,18,7.07,18,21.13,0,15.45-9.94,20.89-18.48,20.89a20.32,20.32,0,0,1-11.79-3.74.06.06,0,0,0-.1,0V77.07a.92.92,0,0,1-.92.93H81.5a.93.93,0,0,1-.93-.93V23a.93.93,0,0,1,.93-.92H98.75a.92.92,0,0,1,.93.92m5.13,25.72c3.49,0,5.67-2.33,5.67-6,0-3.89-2.18-6.14-5.67-6.14S99.29,39,99.29,42.74s2.1,6,5.52,6" transform="translate(0 0)"/><path class="cls-3" d="M313.46,21C328.64,21,337,30.15,337,41.88,337,53.38,328.64,63,313.46,63S290.1,53.84,290.1,42.12c0-11.5,8.26-21.13,23.36-21.13m0,27c3.49,0,5.67-2.33,5.67-6,0-3.88-2.18-6.14-5.67-6.14s-5.52,2.41-5.52,6.14,2.1,6,5.52,6" transform="translate(0 0)"/><path class="cls-3" d="M360,23v3.65a.05.05,0,0,0,.1,0A16.37,16.37,0,0,1,373,21c8.62,0,18,7.07,18,21.13C391,57.57,381.06,63,372.51,63a20.36,20.36,0,0,1-11.79-3.74.06.06,0,0,0-.09,0V77.07a.92.92,0,0,1-.93.93H341.83a.92.92,0,0,1-.93-.93V23a.92.92,0,0,1,.93-.92h17.25A.93.93,0,0,1,360,23m5.13,25.72c3.49,0,5.67-2.33,5.67-6,0-3.89-2.18-6.14-5.67-6.14s-5.52,2.41-5.52,6.14,2.1,6,5.52,6" transform="translate(0 0)"/><path class="cls-3" d="M177.87,35.91h0a16.59,16.59,0,0,0-1.76-5.1c-.2-.37-.41-.72-.62-1.06,0,0-.31-.48-.61-.91a19.63,19.63,0,0,0-2.82-3A19.11,19.11,0,0,0,168,23.15a30.32,30.32,0,0,0-11.56-2.8,29.68,29.68,0,0,0-12.65,2,21.5,21.5,0,0,0-7,4,.93.93,0,0,0-.18,1.22l4.71,7.32a1,1,0,0,0,1.17.36A22,22,0,0,1,153.72,34a9.43,9.43,0,0,1,3.85,1.47A6.28,6.28,0,0,1,159.75,40a.06.06,0,0,1-.1.05c-2.78-2-6.4-2.8-10.93-2.8-7.06,0-16.31,2.57-16.31,13.13,0,8.16,6.06,12.58,14.76,12.58,5.29,0,9.75-1.28,12.48-4.83a.06.06,0,0,1,.1,0V61a.93.93,0,0,0,.93.93h16.48a.93.93,0,0,0,.93-.93V39.31a26.14,26.14,0,0,0-.22-3.4M155.64,52.44c-2.41,0-4.35-.47-4.35-3.11,0-1.94,1.24-3.1,4.58-3.1,2.41,0,4.12.77,4.12,2.87,0,1.79-1.25,3.34-4.35,3.34" transform="translate(0 0)"/></g></g></g></g></g></svg>