<svg xmlns="http://www.w3.org/2000/svg" xmlns:xlink="http://www.w3.org/1999/xlink" viewBox="0 0 2985 774.17"><defs><style>.cls-1,.cls-2{fill:none;}.cls-2{stroke:#9eaee1;stroke-miterlimit:10;stroke-width:3px;}.cls-3{opacity:0.36;fill:url(#New_Pattern_3);}</style><pattern id="New_Pattern_3" data-name="New Pattern 3" width="142.68" height="108.89" patternTransform="translate(-85.42 -85.87)" patternUnits="userSpaceOnUse" viewBox="0 0 142.68 108.89"><rect class="cls-1" width="142.68" height="108.89"/><polyline class="cls-2" points="142.68 108.89 178.61 135.74 212.84 165.01 250.74 189.05 285.36 217.78"/><polyline class="cls-2" points="0 108.89 35.93 135.74 70.17 165.01 108.06 189.05 142.68 217.78"/><polyline class="cls-2" points="-142.68 108.89 -106.75 135.74 -72.51 165.01 -34.62 189.05 0 217.78"/><polyline class="cls-2" points="142.68 0 178.61 26.84 212.84 56.12 250.74 80.16 285.36 108.89"/><polyline class="cls-2" points="0 0 35.93 26.84 70.17 56.12 108.06 80.16 142.68 108.89"/><polyline class="cls-2" points="-142.68 0 -106.75 26.84 -72.51 56.12 -34.62 80.16 0 108.89"/><polyline class="cls-2" points="142.68 -108.89 178.61 -82.05 212.84 -52.77 250.74 -28.73 285.36 0"/><polyline class="cls-2" points="0 -108.89 35.93 -82.05 70.17 -52.77 108.06 -28.73 142.68 0"/><polyline class="cls-2" points="-142.68 -108.89 -106.75 -82.05 -72.51 -52.77 -34.62 -28.73 0 0"/></pattern></defs><g id="Layer_2" data-name="Layer 2"><g id="Layer_21" data-name="Layer 21"><path class="cls-3" d="M206,666.24C739.79,1096,1896.3,71.16,2738,547.24c113.93,64.44,191.28,139,228,177q9.49-354.49,19-709L3,0,0,256.24C39.86,502,139.32,612.56,206,666.24Z"/></g></g></svg>