<svg xmlns="http://www.w3.org/2000/svg" viewBox="0 0 388.56 384.79"><defs><style>.cls-1{fill:none;stroke:#f5eee5;stroke-miterlimit:10;stroke-width:12.4px;}</style></defs><g id="Layer_2" data-name="Layer 2"><g id="Layer_21" data-name="Layer 21"><path class="cls-1" d="M203.75,40.91l17.86-23.14c16.92-21.92,52.26-10.69,53.13,16.88l.91,29.12a29.51,29.51,0,0,0,33.52,28.14l29.17-3.86c27.61-3.66,44.58,29,25.5,49.12L343.69,158.4a29.12,29.12,0,0,0,3.6,43.37l23.38,17.68c22.14,16.75,10.79,51.74-17.05,52.59l-29.41.91a29.4,29.4,0,0,0-28.43,33.18l3.9,28.88c3.7,27.33-29.32,44.14-49.63,25.25l-21.44-19.95a29.81,29.81,0,0,0-43.81,3.56L166.94,367c-16.91,21.92-52.26,10.68-53.12-16.89L112.91,321a29.54,29.54,0,0,0-33.53-28.15l-29.16,3.87c-27.62,3.66-44.59-29-25.5-49.13l20.15-21.23A29.12,29.12,0,0,0,41.26,183L17.88,165.33c-22.14-16.74-10.79-51.74,17.06-52.59l29.41-.9A29.41,29.41,0,0,0,92.78,78.65l-3.9-28.87C85.18,22.44,118.2,5.64,138.5,24.53l21.44,19.95A29.82,29.82,0,0,0,203.75,40.91Z"/></g></g></svg>