<svg xmlns="http://www.w3.org/2000/svg" viewBox="0 0 167.91 166.35"><defs><style>.cls-1{fill:none;stroke:#f5eee5;stroke-miterlimit:10;stroke-width:12.4px;}</style></defs><g id="Layer_2" data-name="Layer 2"><g id="Layer_21" data-name="Layer 21"><path class="cls-1" d="M87.87,20.55,95.25,11c7-9.06,21.61-4.42,22,7l.37,12a12.2,12.2,0,0,0,13.86,11.63L143.51,40c11.42-1.52,18.43,12,10.54,20.31l-8.33,8.77a12,12,0,0,0,1.49,17.93l9.67,7.31c9.15,6.92,4.46,21.39-7,21.74l-12.16.38a12.16,12.16,0,0,0-11.76,13.72l1.62,11.93c1.53,11.31-12.12,18.25-20.52,10.44l-8.86-8.25A12.32,12.32,0,0,0,80,145.8l-7.39,9.57c-7,9.06-21.6,4.42-22-7l-.38-12a12.19,12.19,0,0,0-13.86-11.63L24.4,126.31C13,127.83,6,114.31,13.85,106l8.33-8.77A12,12,0,0,0,20.69,79.3L11,72c-9.15-6.93-4.46-21.39,7-21.75l12.16-.37A12.15,12.15,0,0,0,42,36.15L40.38,24.21C38.85,12.91,52.5,6,60.9,13.78L69.76,22A12.32,12.32,0,0,0,87.87,20.55Z"/></g></g></svg>