<svg xmlns="http://www.w3.org/2000/svg" viewBox="0 0 224.08 221.96"><defs><style>.cls-1{fill:#f5eee5;stroke:#9eaee1;stroke-miterlimit:10;stroke-width:12.4px;}</style></defs><g id="Layer_2" data-name="Layer 2"><g id="Layer_21" data-name="Layer 21"><path class="cls-1" d="M117.37,25.73l10-13c9.52-12.34,29.41-6,29.9,9.5l.51,16.38A16.62,16.62,0,0,0,176.7,54.43l16.41-2.17c15.54-2.06,25.09,16.33,14.35,27.65L196.12,91.85a16.39,16.39,0,0,0,2,24.41l13.16,9.95c12.46,9.42,6.07,29.11-9.6,29.59l-16.55.51a16.55,16.55,0,0,0-16,18.68l2.2,16.25c2.08,15.38-16.51,24.84-27.93,14.2l-12.07-11.22a16.77,16.77,0,0,0-24.65,2l-10,13c-9.52,12.34-29.41,6-29.9-9.5l-.51-16.39a16.61,16.61,0,0,0-18.87-15.83L31,169.7c-15.54,2.06-25.09-16.34-14.35-27.65L28,130.11a16.39,16.39,0,0,0-2-24.41l-13.16-10C.31,86.33,6.7,66.64,22.37,66.15l16.55-.5A16.55,16.55,0,0,0,54.92,47l-2.2-16.25C50.64,15.34,69.23,5.88,80.65,16.51L92.72,27.74A16.77,16.77,0,0,0,117.37,25.73Z"/></g></g></svg>