<svg xmlns="http://www.w3.org/2000/svg" viewBox="0 0 172.56 169.14"><defs><style>.cls-1,.cls-2{fill:#f5eee5;}.cls-2{stroke:#184464;stroke-miterlimit:10;stroke-width:9.6px;}</style></defs><g id="Layer_2" data-name="Layer 2"><g id="Layer_21" data-name="Layer 21"><g id="DROP"><path class="cls-1" d="M172.56,84.47C172.48,37.85,138.64,0,97,0L77.86.09C77,.05,76.09,0,75.2,0h0C33.65.07-.08,38.05,0,84.67c0,22.45,7.85,43.59,22,59.54,13,14.59,29.76,23.23,47.84,24.71,1.87.15,3.75.23,5.65.22l21.87,0C138.91,169.07,172.64,131.1,172.56,84.47Z"/><path class="cls-2" d="M97.34,156.33c34.54,0,62.48-32.21,62.41-71.84S131.63,12.75,97.1,12.79v.07l-21.88,0,.24,143.46Z"/><ellipse class="cls-2" cx="75.34" cy="84.58" rx="62.54" ry="71.77" transform="translate(-0.3 0.27) rotate(-0.2)"/><ellipse class="cls-2" cx="75.34" cy="84.58" rx="28.42" ry="32.61" transform="translate(-0.3 0.27) rotate(-0.2)"/></g></g></g></svg>