<svg xmlns="http://www.w3.org/2000/svg" xmlns:xlink="http://www.w3.org/1999/xlink" viewBox="0 0 283.21 280.29"><defs><style>.cls-1,.cls-2{fill:none;}.cls-2{stroke:#929ecf;stroke-width:3px;}.cls-2,.cls-3{stroke-miterlimit:10;}.cls-3{fill:#f5eee5;stroke:#184464;stroke-width:8.37px;}.cls-4{fill:url(#New_Pattern_4);}.cls-5{fill:url(#New_Pattern_4-3);}.cls-6{fill:#244461;}</style><pattern id="New_Pattern_4" data-name="New Pattern 4" width="142.68" height="108.89" patternTransform="translate(-12.14 -36.55) scale(1.57)" patternUnits="userSpaceOnUse" viewBox="0 0 142.68 108.89"><rect class="cls-1" width="142.68" height="108.89"/><polyline class="cls-2" points="142.68 108.89 178.61 135.74 212.84 165.01 250.74 189.05 285.36 217.78"/><polyline class="cls-2" points="0 108.89 35.93 135.74 70.17 165.01 108.06 189.05 142.68 217.78"/><polyline class="cls-2" points="-142.68 108.89 -106.75 135.74 -72.51 165.01 -34.62 189.05 0 217.78"/><polyline class="cls-2" points="142.68 0 178.61 26.84 212.84 56.12 250.74 80.16 285.36 108.89"/><polyline class="cls-2" points="86.68 14 122.61 40.84 156.84 70.12 194.74 94.16 229.35 122.89"/><polyline class="cls-2" points="0 0 35.93 26.84 70.17 56.12 108.06 80.16 142.68 108.89"/><polyline class="cls-2" points="-56 14 -20.07 40.84 14.17 70.12 52.06 94.16 86.68 122.89"/><polyline class="cls-2" points="-142.68 0 -106.75 26.84 -72.51 56.12 -34.62 80.16 0 108.89"/><polyline class="cls-2" points="142.68 -108.89 178.61 -82.05 212.84 -52.77 250.74 -28.73 285.36 0"/><polyline class="cls-2" points="86.68 -94.89 122.61 -68.05 156.84 -38.77 194.74 -14.73 229.35 14"/><polyline class="cls-2" points="0 -108.89 35.93 -82.05 70.17 -52.77 108.06 -28.73 142.68 0"/><polyline class="cls-2" points="-56 -94.89 -20.07 -68.05 14.17 -38.77 52.06 -14.73 86.68 14"/><polyline class="cls-2" points="-142.68 -108.89 -106.75 -82.05 -72.51 -52.77 -34.62 -28.73 0 0"/></pattern><pattern id="New_Pattern_4-3" data-name="New Pattern 4" width="142.68" height="108.89" patternTransform="translate(37.51 -36.55) scale(1.57)" patternUnits="userSpaceOnUse" viewBox="0 0 142.68 108.89"><rect class="cls-1" width="142.68" height="108.89"/><polyline class="cls-2" points="142.68 108.89 178.61 135.74 212.84 165.01 250.74 189.05 285.36 217.78"/><polyline class="cls-2" points="0 108.89 35.93 135.74 70.17 165.01 108.06 189.05 142.68 217.78"/><polyline class="cls-2" points="-142.68 108.89 -106.75 135.74 -72.51 165.01 -34.62 189.05 0 217.78"/><polyline class="cls-2" points="142.68 0 178.61 26.84 212.84 56.12 250.74 80.16 285.36 108.89"/><polyline class="cls-2" points="86.68 14 122.61 40.84 156.84 70.12 194.74 94.16 229.35 122.89"/><polyline class="cls-2" points="0 0 35.93 26.84 70.17 56.12 108.06 80.16 142.68 108.89"/><polyline class="cls-2" points="-56 14 -20.07 40.84 14.17 70.12 52.06 94.16 86.68 122.89"/><polyline class="cls-2" points="-142.68 0 -106.75 26.84 -72.51 56.12 -34.62 80.16 0 108.89"/><polyline class="cls-2" points="142.68 -108.89 178.61 -82.05 212.84 -52.77 250.74 -28.73 285.36 0"/><polyline class="cls-2" points="86.68 -94.89 122.61 -68.05 156.84 -38.77 194.74 -14.73 229.35 14"/><polyline class="cls-2" points="0 -108.89 35.93 -82.05 70.17 -52.77 108.06 -28.73 142.68 0"/><polyline class="cls-2" points="-56 -94.89 -20.07 -68.05 14.17 -38.77 52.06 -14.73 86.68 14"/><polyline class="cls-2" points="-142.68 -108.89 -106.75 -82.05 -72.51 -52.77 -34.62 -28.73 0 0"/></pattern></defs><g id="Layer_2" data-name="Layer 2"><g id="Layer_21" data-name="Layer 21"><g id="EGG"><path class="cls-3" d="M279,214.5c0,30.73-30.21,61.61-139.12,61.61C35.68,276.11,4.19,245.23,4.19,214.5S60.7,164.84,139.9,164.84,279,183.77,279,214.5Z"/><path class="cls-4" d="M266.27,208.19c-1.17,22.6-66.48,45.38-125.3,37.44-48.59-6.56-98.5-34.88-95.59-52.92,2-12.29,27.55-20.71,62.22-23.38,42.1-3.24,75.56-6.48,130.61,10.8C253.1,184.8,266.85,197,266.27,208.19Z"/><path class="cls-5" d="M266.27,208.19c.32,19.57-58,38.12-104.7,39.94-6.83.26-82.26,2.56-91.75-28.07-4.06-13.1,5.7-26.58,7.56-29.14,24.77-34.22,90.8-22.09,111.18-18.35C195.52,173.85,265.93,186.78,266.27,208.19Z"/><path class="cls-3" d="M233.79,148.87A96,96,0,0,1,45.45,111.46C55.79,59.45,105-6.22,164.37,5.58,220.87,16.8,244.12,96.87,233.79,148.87Z"/><path class="cls-6" d="M121.12,29.29c-2.13-2.29-8.54,0-18.78,8.53-11.93,10-22.19,30.73-20.48,32.43s22.19-15.36,32.43-27.31C115.55,41.47,123.53,31.87,121.12,29.29Z"/><path class="cls-6" d="M221.64,153.9c-4.93,13.66-10.78,24.93-28.57,40.52-19,16.68-48,20.93-58.3,19.23,10.22-5,35.12-16.07,52.92-29A242.61,242.61,0,0,0,221.64,153.9Z"/></g></g></g></svg>