<svg xmlns="http://www.w3.org/2000/svg" viewBox="0 0 353.41 90.57"><defs><style>.cls-1{fill:#f5eee5;}.cls-2{fill:#244461;}</style></defs><g id="Layer_2" data-name="Layer 2"><g id="Layer_21" data-name="Layer 21"><rect class="cls-1" width="353.41" height="90.57" rx="22.7"/><path class="cls-2" d="M70.19,57.25a3,3,0,0,1-1,.76,3.33,3.33,0,0,1-1.33.24A3.6,3.6,0,0,1,66.36,58a2.79,2.79,0,0,1-1.06-.84,7.7,7.7,0,0,1-.93-1.54,17,17,0,0,1-.8-2.27,16.1,16.1,0,0,1-.48-2.12,16.71,16.71,0,0,1-.17-2.42,5.24,5.24,0,0,1,.67-2.86,2.11,2.11,0,0,1,1.88-1,3,3,0,0,1,1.24.28,5.16,5.16,0,0,1,1.36.93l.65.56q.34.3,1.08,1c.41.41.72.7.93.89l.63.54a11.31,11.31,0,0,0,2.82,1.8,6.9,6.9,0,0,0,2.68.54,2.31,2.31,0,0,0,1.71-.63,2.25,2.25,0,0,0,.63-1.67,2.37,2.37,0,0,0-1.06-1.9,17,17,0,0,0-4.31-1.95l-2.12-.73a14.36,14.36,0,0,1-6.35-3.76,8.38,8.38,0,0,1-1.92-5.63,9.47,9.47,0,0,1,3-7.31,11.22,11.22,0,0,1,7.9-2.76c.58,0,1.14,0,1.69.06a10.61,10.61,0,0,1,1.56.24,15.22,15.22,0,0,1,1.9.43c.7.2,1.11.32,1.26.35a4.34,4.34,0,0,0,.76.17,5.44,5.44,0,0,0,.67,0,1.4,1.4,0,0,0,.41-.06,1.18,1.18,0,0,0,.41-.24,3.81,3.81,0,0,0,.35-.28l.3-.28a2.73,2.73,0,0,1,.85-.48,3.26,3.26,0,0,1,.93-.13,3,3,0,0,1,1.9.67,5.78,5.78,0,0,1,1.47,2.06A6.78,6.78,0,0,1,89.35,29a11.42,11.42,0,0,1,.37,1.51c.09.55.16,1.08.22,1.6A13.3,13.3,0,0,1,90,33.6a4.45,4.45,0,0,1-.61,2.57,2.15,2.15,0,0,1-1.86.84,3.3,3.3,0,0,1-1.32-.28,6.47,6.47,0,0,1-1.5-.93l-.56-.45-.91-.76-1.38-1.17c-.32-.26-.63-.49-.91-.69a10.52,10.52,0,0,0-2.15-1.19,5.62,5.62,0,0,0-2-.36,2.5,2.5,0,0,0-1.77.6,2.07,2.07,0,0,0-.65,1.6,2,2,0,0,0,1,1.6,17.64,17.64,0,0,0,4,1.69l1.65.52q5.33,1.68,7.57,4.13a8.58,8.58,0,0,1,2.26,6,10,10,0,0,1-3.32,7.72,12.26,12.26,0,0,1-8.55,3,13.67,13.67,0,0,1-2.25-.18,26.23,26.23,0,0,1-3.77-1.08q-.48-.16-.78-.24a2.89,2.89,0,0,0-.56-.06,1.79,1.79,0,0,0-.78.17A3.35,3.35,0,0,0,70.19,57.25Z"/><path class="cls-2" d="M99.81,57.9a28.7,28.7,0,0,1-3.44-.17,11.13,11.13,0,0,1-2.4-.52,2.2,2.2,0,0,1-1-.73,2,2,0,0,1-.34-1.17,2.18,2.18,0,0,1,.28-1.13,3.29,3.29,0,0,1,.93-1c.17-.14.32-.28.45-.41a2.12,2.12,0,0,0,.33-.41,2.63,2.63,0,0,0,.26-.78c.05-.32.1-.7.13-1.17,0-.69,0-1.85.08-3.48s0-3.58,0-5.86c0-2.53,0-4.59,0-6.16s0-2.57-.06-3a7.6,7.6,0,0,0-.15-1.23,2.11,2.11,0,0,0-.33-.76,1.3,1.3,0,0,0-.52-.49,3.68,3.68,0,0,0-.82-.33,2.94,2.94,0,0,1-1.43-.73,1.93,1.93,0,0,1-.43-1.34,2.56,2.56,0,0,1,1-1.86,9.12,9.12,0,0,1,2.71-1.65,11.68,11.68,0,0,1,1.26-.45c.43-.13.88-.24,1.34-.33s.89-.15,1.36-.21a11.64,11.64,0,0,1,1.45-.09A4.24,4.24,0,0,1,104,23.84a7.28,7.28,0,0,1,1.08,4.48v2.57c0,.88,0,2,0,3.49v2.85a1.07,1.07,0,0,0,.06.45.21.21,0,0,0,.2.11.34.34,0,0,0,.19-.08,1.7,1.7,0,0,0,.29-.35,10.29,10.29,0,0,1,3.37-3.68,8.35,8.35,0,0,1,4.46-1.16,6.37,6.37,0,0,1,5,1.94q1.73,1.95,2,6c0,.93.09,1.8.1,2.62s0,1.62,0,2.4,0,1.7,0,2.51,0,1.54,0,2.2a14.33,14.33,0,0,0,.11,1.61,1.73,1.73,0,0,0,.15.47,1.65,1.65,0,0,0,.24.3q.19.22.54.57a3.9,3.9,0,0,1,.85,1,2.38,2.38,0,0,1,.19,1,2,2,0,0,1-.37,1.17,2.51,2.51,0,0,1-1,.82,8.36,8.36,0,0,1-2.34.56,32.58,32.58,0,0,1-3.77.17,27.25,27.25,0,0,1-3.23-.15,8.32,8.32,0,0,1-2-.5,2.39,2.39,0,0,1-1.06-.8,1.83,1.83,0,0,1-.37-1.14,2.64,2.64,0,0,1,.19-1.06,2.78,2.78,0,0,1,.67-.89,2.81,2.81,0,0,0,.46-.45,3,3,0,0,0,.32-.46,2.39,2.39,0,0,0,.26-.77,10.13,10.13,0,0,0,.13-1.17c0-.35,0-.79,0-1.34V46.36a17.07,17.07,0,0,0-.26-3.29,4.26,4.26,0,0,0-.78-1.86,2.69,2.69,0,0,0-1-.76,3,3,0,0,0-1.23-.24,3.18,3.18,0,0,0-1.34.24,1.38,1.38,0,0,0-.74.76,4,4,0,0,0-.2,1.08c0,.52-.06,2.18-.06,5v2.32c0,.42,0,.8,0,1.14s.07.75.11,1a2.73,2.73,0,0,0,.2.74,1.2,1.2,0,0,0,.28.47,4.72,4.72,0,0,0,.45.44,1.85,1.85,0,0,1,.57.69,2.41,2.41,0,0,1,.17.95,2.07,2.07,0,0,1-.43,1.34,2.9,2.9,0,0,1-1.39.82,13.34,13.34,0,0,1-2.42.54A23,23,0,0,1,99.81,57.9Z"/><path class="cls-2" d="M152,45.19q0,6.06-3.81,9.47t-10.48,3.42q-6.24,0-9.88-3.33a11.72,11.72,0,0,1-3.63-9.09,12.26,12.26,0,0,1,4-9.55,14.69,14.69,0,0,1,10.28-3.59A13.85,13.85,0,0,1,148.27,36,11.92,11.92,0,0,1,152,45.19ZM134,43.2a8.49,8.49,0,0,0,1.86,5.19c1.24,1.64,2.56,2.46,3.94,2.46a2.47,2.47,0,0,0,2-.8,3.69,3.69,0,0,0,.67-2.4,8.69,8.69,0,0,0-1.84-5.21q-1.84-2.49-4-2.49a2.43,2.43,0,0,0-2,.87A3.67,3.67,0,0,0,134,43.2Z"/><path class="cls-2" d="M161.18,68.54c-1.3,0-2.47-.05-3.49-.15a19.9,19.9,0,0,1-2.62-.41,2.53,2.53,0,0,1-1.34-.78,2.14,2.14,0,0,1-.44-1.43,1.76,1.76,0,0,1,.18-.79,6.57,6.57,0,0,1,1-1.32l.43-.48a2.3,2.3,0,0,0,.3-.48,2.93,2.93,0,0,0,.35-.8,5,5,0,0,0,.17-1.06c.12-1.29.2-2.66.26-4.1s.09-3.84.09-7.18c0-2.14,0-3.76,0-4.87a20.17,20.17,0,0,0-.18-2.49,4.76,4.76,0,0,0-.21-.88,1.63,1.63,0,0,0-.35-.54,1.84,1.84,0,0,0-.41-.31,1.8,1.8,0,0,0-.54-.17,2.06,2.06,0,0,1-1.22-.63,1.81,1.81,0,0,1-.39-1.23,3.36,3.36,0,0,1,.91-2,10.34,10.34,0,0,1,2.47-2.1,11.65,11.65,0,0,1,2.64-1.17,9.66,9.66,0,0,1,2.82-.43,5.49,5.49,0,0,1,2.27.41,3.23,3.23,0,0,1,1.41,1.23,6.27,6.27,0,0,1,.58,1.43,7.7,7.7,0,0,1,.29,1.82.63.63,0,0,0,.13.32.26.26,0,0,0,.21.11.29.29,0,0,0,.22-.09,1,1,0,0,0,.17-.26,8.05,8.05,0,0,1,2.73-3.8,7.17,7.17,0,0,1,10.28,2.07q2.19,3.42,2.19,9.39,0,6.41-2.27,9.58A7.9,7.9,0,0,1,173,58.08a7.14,7.14,0,0,1-3.2-.76,9.08,9.08,0,0,1-2.82-2.27.57.57,0,0,0-.21-.17.41.41,0,0,0-.17-.05.28.28,0,0,0-.22.11.43.43,0,0,0-.09.28v5.41a4.31,4.31,0,0,0,.13,1.1,2.59,2.59,0,0,0,.39.8l.26.26a5.53,5.53,0,0,0,.56.43,3.87,3.87,0,0,1,1.33,1.17,2.64,2.64,0,0,1,.32,1.3,2.09,2.09,0,0,1-.56,1.49A3.32,3.32,0,0,1,167,68a18.47,18.47,0,0,1-2.58.39C163.46,68.5,162.39,68.54,161.18,68.54Zm5.06-18.94a2.13,2.13,0,0,0,.61,1.62,2.26,2.26,0,0,0,1.64.59,2.64,2.64,0,0,0,2.36-1.37,7.1,7.1,0,0,0,.85-3.78,9.67,9.67,0,0,0-.91-4.59,2.79,2.79,0,0,0-2.51-1.64,2.09,2.09,0,0,0-1.56.5,2.43,2.43,0,0,0-.48,1.71v7Z"/><path class="cls-2" d="M206.77,57.43a11.6,11.6,0,0,1-2.2.37c-.9.07-2,.1-3.3.1s-2.06,0-2.72-.06a17.76,17.76,0,0,1-1.82-.2,3.46,3.46,0,0,1-1.84-.77,2.13,2.13,0,0,1-.59-1.6,2.81,2.81,0,0,1,.28-1.28,3.22,3.22,0,0,1,1.06-1.06,4.1,4.1,0,0,0,.65-.52,3.38,3.38,0,0,0,.44-.52,2.57,2.57,0,0,0,.3-.71,6.08,6.08,0,0,0,.13-.89c0-.63.06-1.84.09-3.61s0-3.45,0-5V35.28c0-1.09,0-1.78,0-2.07a4,4,0,0,0-.22-1.1,3,3,0,0,0-.52-.93l-.35-.31a8.76,8.76,0,0,0-.73-.52,4.13,4.13,0,0,1-1.17-1,1.68,1.68,0,0,1-.22-.89,2.45,2.45,0,0,1,.7-1.82,4.45,4.45,0,0,1,2.16-1,20.55,20.55,0,0,1,2.1-.29c.82-.07,1.75-.1,2.79-.1a21.56,21.56,0,0,1,3,.17,10.47,10.47,0,0,1,2.3.56,7.23,7.23,0,0,1,2.53,1.6,24.05,24.05,0,0,1,2.88,3.55c1.67,2.39,3,4.27,3.88,5.64s1.76,2.71,2.57,4a1.3,1.3,0,0,0,.37.44.79.79,0,0,0,.41.13.41.41,0,0,0,.35-.22,1.26,1.26,0,0,0,.13-.61V36.06c0-.66,0-1.25-.07-1.77a14.58,14.58,0,0,0-.24-1.69,2.28,2.28,0,0,0-.23-.62,1.74,1.74,0,0,0-.37-.46,4.92,4.92,0,0,0-.5-.37,1.89,1.89,0,0,0-.5-.23,4.76,4.76,0,0,1-1.92-1.15,2.24,2.24,0,0,1-.55-1.54,2.83,2.83,0,0,1,.52-1.83,3.13,3.13,0,0,1,1.65-.93,9.35,9.35,0,0,1,2-.31c.84-.05,1.88-.08,3.12-.08s2.48,0,3.29.11a5.87,5.87,0,0,1,1.78.36,2.69,2.69,0,0,1,1.19.89,2.39,2.39,0,0,1,.36,1.36,2.91,2.91,0,0,1-.28,1.34,3.51,3.51,0,0,1-1.19,1.21l-.41.33a1.14,1.14,0,0,0-.32.37,1.61,1.61,0,0,0-.37.71,3.71,3.71,0,0,0-.11.93v1c0,.46,0,1.29,0,2.5,0,1.65-.05,2.85-.05,3.59v4.09c0,.91,0,2.23.05,4V50c0,2.8-.41,4.82-1.22,6.08a4.42,4.42,0,0,1-4,1.88,8,8,0,0,1-3.49-.67,9.9,9.9,0,0,1-2.92-2.49c-.93-1.1-2-2.57-3.31-4.43s-3.38-5-6.26-9.45a3.49,3.49,0,0,0-.59-.78.71.71,0,0,0-.49-.22.45.45,0,0,0-.44.3,2.78,2.78,0,0,0-.13,1v2.16c0,1.93,0,3.46,0,4.58s0,1.83.07,2.12a2.1,2.1,0,0,0,.26.87,2.43,2.43,0,0,0,.65.73,3.5,3.5,0,0,0,.6.41,11.51,11.51,0,0,0,1.09.5,3.36,3.36,0,0,1,1.43,1,2.43,2.43,0,0,1,.47,1.49,2.26,2.26,0,0,1-.5,1.51A2.73,2.73,0,0,1,206.77,57.43Z"/><path class="cls-2" d="M258.05,45.19q0,6.06-3.81,9.47t-10.48,3.42q-6.24,0-9.88-3.33a11.72,11.72,0,0,1-3.63-9.09,12.26,12.26,0,0,1,4-9.55,14.69,14.69,0,0,1,10.28-3.59A13.86,13.86,0,0,1,254.28,36,11.92,11.92,0,0,1,258.05,45.19ZM240,43.2a8.49,8.49,0,0,0,1.86,5.19c1.24,1.64,2.56,2.46,3.94,2.46a2.44,2.44,0,0,0,2-.8,3.64,3.64,0,0,0,.68-2.4,8.69,8.69,0,0,0-1.84-5.21q-1.84-2.49-4-2.49a2.42,2.42,0,0,0-2,.87A3.67,3.67,0,0,0,240,43.2Z"/><path class="cls-2" d="M274.24,57.73a3.89,3.89,0,0,1-1.08.3,11.11,11.11,0,0,1-1.56.09,8.74,8.74,0,0,1-1.86-.15,3.07,3.07,0,0,1-1.13-.5,4.69,4.69,0,0,1-.89-1,26.78,26.78,0,0,1-1.45-2.74q-1-2.12-2.7-6.29c-1.11-2.79-2-5.17-2.67-7.16a4.44,4.44,0,0,0-.41-1,5.21,5.21,0,0,0-.58-.8,4.25,4.25,0,0,0-.48-.47,7.62,7.62,0,0,0-.69-.52,2.17,2.17,0,0,1-.85-.89,3,3,0,0,1-.23-1.23,1.85,1.85,0,0,1,.52-1.3,3,3,0,0,1,1.47-.82,19,19,0,0,1,2.9-.56,28.68,28.68,0,0,1,3.42-.17,27.1,27.1,0,0,1,3.38.17,12.32,12.32,0,0,1,2.42.52,2.8,2.8,0,0,1,1.35.84,2.17,2.17,0,0,1,.43,1.36,2.76,2.76,0,0,1-.2,1.13,2.45,2.45,0,0,1-.71.86,8.49,8.49,0,0,0-.76.63,2.55,2.55,0,0,0-.32.37,1.29,1.29,0,0,0-.26.45,1.43,1.43,0,0,0-.09.5,1.76,1.76,0,0,0,.07.37c0,.18.1.42.19.71.23.69.56,1.56,1,2.62s1,2.34,1.73,3.87a.93.93,0,0,0,.24.34.36.36,0,0,0,.24.09.48.48,0,0,0,.3-.11,1.22,1.22,0,0,0,.26-.45c.43-1,.83-2,1.19-3s.66-1.92.89-2.79a2.37,2.37,0,0,0,.1-.49,5.29,5.29,0,0,0,0-.63,2.55,2.55,0,0,0-.11-.74,1.83,1.83,0,0,0-.28-.56,7.94,7.94,0,0,0-.57-.58l-.52-.46a2.35,2.35,0,0,1-.67-.84,2.94,2.94,0,0,1-.19-1.15,2.19,2.19,0,0,1,.43-1.38,3,3,0,0,1,1.34-.91,9.71,9.71,0,0,1,2.26-.56,24.26,24.26,0,0,1,3.29-.17,24.6,24.6,0,0,1,3.2.17,9.72,9.72,0,0,1,2.25.52,2,2,0,0,1,1,.8,2.47,2.47,0,0,1,.35,1.36,3.11,3.11,0,0,1-.2,1.17,2,2,0,0,1-.71.86,4.87,4.87,0,0,0-.65.61,3.05,3.05,0,0,0-.43.65,1.32,1.32,0,0,0-.18.41,2.29,2.29,0,0,0,0,.5,1.84,1.84,0,0,0,0,.41c0,.13.08.28.13.45.23.66.54,1.48.93,2.44s.94,2.26,1.63,3.87a1.07,1.07,0,0,0,.24.37.3.3,0,0,0,.23.11.44.44,0,0,0,.31-.11,1.22,1.22,0,0,0,.26-.45A29.39,29.39,0,0,0,292,43.89c.37-1,.69-2,1-3a5.74,5.74,0,0,0,.13-.65,4,4,0,0,0,0-.6A2.62,2.62,0,0,0,293,39a2.26,2.26,0,0,0-.22-.52,3.6,3.6,0,0,0-.39-.47q-.23-.23-.78-.69a2.3,2.3,0,0,1-.67-.83,2.71,2.71,0,0,1-.2-1.12,2.09,2.09,0,0,1,.5-1.43,3.6,3.6,0,0,1,1.63-.91,9.39,9.39,0,0,1,1.77-.36,22.85,22.85,0,0,1,4.48,0,8.26,8.26,0,0,1,1.67.32,3.19,3.19,0,0,1,1.39.84,2,2,0,0,1,.47,1.32,2.36,2.36,0,0,1-.24,1.11,3,3,0,0,1-.84.93,3.45,3.45,0,0,0-.59.54,5.56,5.56,0,0,0-.41.58c-.11.23-.25.52-.41.87s-.32.75-.5,1.21c-1.93,5-3.16,8.14-3.68,9.36s-1,2.33-1.47,3.31A23.2,23.2,0,0,1,293,56a5.21,5.21,0,0,1-1.28,1.32,4,4,0,0,1-1.36.63,6.54,6.54,0,0,1-1.62.19,8,8,0,0,1-2-.22,3.78,3.78,0,0,1-1.47-.69,4.5,4.5,0,0,1-.95-1A17.44,17.44,0,0,1,283.08,54c-.55-1.1-1-2.06-1.39-2.9s-.68-1.56-.91-2.16a1.51,1.51,0,0,0-.24-.41.44.44,0,0,0-.32-.11.54.54,0,0,0-.35.11,1.39,1.39,0,0,0-.3.41c-.06.14-.13.3-.22.47s-.21.47-.39.87c-.26.58-.47,1.06-.65,1.45s-.36.8-.56,1.23a20.09,20.09,0,0,1-1.84,3.35A4.58,4.58,0,0,1,274.24,57.73Z"/></g></g></svg>