<svg xmlns="http://www.w3.org/2000/svg" viewBox="0 0 216.94 216.5"><defs><style>.cls-1{fill:#f5eee5;stroke:#649f3d;stroke-miterlimit:10;stroke-width:10px;}</style></defs><g id="Layer_2" data-name="Layer 2"><g id="Layer_20_copy" data-name="Layer 20 copy"><path class="cls-1" d="M101.28,26.93l7.57-13.74c7.16-13,26.72-9.85,29.4,4.74l2.82,15.41a15.79,15.79,0,0,0,20,12.3l15.08-4.39c14.29-4.15,25.87,11.89,17.42,24.1l-8.93,12.9A15.73,15.73,0,0,0,190,101l13.76,7.54c13,7.14,9.86,26.66-4.77,29.34l-15.45,2.82a15.77,15.77,0,0,0-12.33,19.92l4.38,15.05c4.15,14.24-11.93,25.81-24.16,17.39l-12.92-8.9a15.82,15.82,0,0,0-22.83,5.39l-7.57,13.74c-7.16,13-26.72,9.85-29.4-4.74l-2.82-15.41a15.79,15.79,0,0,0-20-12.3l-15.08,4.39C26.55,179.4,15,163.36,23.42,151.15l8.93-12.9A15.75,15.75,0,0,0,27,115.47L13.2,107.94C.17,100.8,3.34,81.28,18,78.6l15.45-2.82A15.78,15.78,0,0,0,45.75,55.85l-4.38-15C37.22,26.57,53.3,15,65.53,23.42l12.92,8.9A15.82,15.82,0,0,0,101.28,26.93Z"/></g></g></svg>