<svg xmlns="http://www.w3.org/2000/svg" viewBox="0 0 114.87 114.65"><defs><style>.cls-1{fill:#ffd049;stroke:#649f3d;stroke-miterlimit:10;stroke-width:10px;}</style></defs><g id="Layer_2" data-name="Layer 2"><g id="Layer_20_copy" data-name="Layer 20 copy"><path class="cls-1" d="M53.79,16.11l3.84-7a8,8,0,0,1,14.89,2.4L74,19.36a8,8,0,0,0,10.11,6.23l7.64-2.22a8,8,0,0,1,8.82,12.21L96,42.12a8,8,0,0,0,2.73,11.54l7,3.82a8,8,0,0,1-2.42,14.87l-7.83,1.43a8,8,0,0,0-6.25,10.1l2.22,7.62a8,8,0,0,1-12.24,8.81L72.65,95.8a8,8,0,0,0-11.57,2.74l-3.84,7a8,8,0,0,1-14.89-2.41l-1.43-7.81A8,8,0,0,0,30.8,89.05l-7.64,2.23a8,8,0,0,1-8.82-12.22l4.52-6.53A8,8,0,0,0,16.13,61l-7-3.82A8,8,0,0,1,11.57,42.3l7.83-1.43a8,8,0,0,0,6.25-10.1l-2.22-7.62a8,8,0,0,1,12.25-8.81l6.54,4.51A8,8,0,0,0,53.79,16.11Z"/></g></g></svg>