<svg xmlns="http://www.w3.org/2000/svg" viewBox="0 0 296.32 295.71"><defs><style>.cls-1{fill:#ffd049;stroke:#649f3d;stroke-miterlimit:10;stroke-width:10px;}</style></defs><g id="Layer_2" data-name="Layer 2"><g id="Layer_20_copy" data-name="Layer 20 copy"><path class="cls-1" d="M138.22,35.34l10.46-19c9.91-18,37-13.63,40.67,6.56l3.91,21.32a21.85,21.85,0,0,0,27.61,17l20.87-6.06c19.75-5.74,35.78,16.44,24.09,33.34l-12.35,17.84a21.79,21.79,0,0,0,7.45,31.52l19,10.43c18,9.87,13.64,36.88-6.6,40.58L252,192.78a21.84,21.84,0,0,0-17.07,27.57L241,241.16c5.75,19.71-16.5,35.72-33.42,24.06l-17.88-12.31a21.9,21.9,0,0,0-31.59,7.46l-10.47,19c-9.91,18-37,13.64-40.67-6.55l-3.9-21.33a21.86,21.86,0,0,0-27.61-17l-20.87,6.07c-19.76,5.74-35.79-16.44-24.09-33.34l12.35-17.84a21.79,21.79,0,0,0-7.45-31.52l-19-10.43c-18-9.88-13.63-36.88,6.61-40.59l21.37-3.91A21.83,21.83,0,0,0,61.39,75.36L55.32,54.55c-5.74-19.71,16.5-35.72,33.43-24.06L106.63,42.8A21.9,21.9,0,0,0,138.22,35.34Z"/></g></g></svg>