<svg xmlns="http://www.w3.org/2000/svg" viewBox="0 0 227.37 226.91"><defs><style>.cls-1{fill:#ffd049;stroke:#649f3d;stroke-miterlimit:10;stroke-width:10px;}</style></defs><g id="Layer_2" data-name="Layer 2"><g id="Layer_20_copy" data-name="Layer 20 copy"><path class="cls-1" d="M106.14,28l7.94-14.43c7.53-13.66,28.07-10.35,30.88,5l3,16.19a16.59,16.59,0,0,0,21,12.91l15.84-4.6c15-4.36,27.17,12.48,18.29,25.31l-9.38,13.55a16.53,16.53,0,0,0,5.66,23.92l14.46,7.92c13.68,7.5,10.35,28-5,30.81l-16.22,3a16.57,16.57,0,0,0-13,20.93l4.6,15.8c4.36,15-12.52,27.12-25.37,18.27l-13.57-9.35a16.63,16.63,0,0,0-24,5.66l-7.94,14.43c-7.53,13.67-28.07,10.35-30.88-5l-3-16.19a16.58,16.58,0,0,0-21-12.91l-15.84,4.6c-15,4.36-27.17-12.48-18.29-25.3L33.73,145A16.54,16.54,0,0,0,28.07,121l-14.46-7.92c-13.69-7.49-10.35-28,5-30.81l16.23-3a16.57,16.57,0,0,0,13-20.92L43.2,42.62c-4.35-15,12.53-27.12,25.38-18.27L82.15,33.7A16.63,16.63,0,0,0,106.14,28Z"/></g></g></svg>