<svg xmlns="http://www.w3.org/2000/svg" viewBox="0 0 242.87 242.37"><defs><style>.cls-1{fill:#f5eee5;stroke:#649f3d;stroke-miterlimit:10;stroke-width:10px;}</style></defs><g id="Layer_2" data-name="Layer 2"><g id="Layer_20_copy" data-name="Layer 20 copy"><path class="cls-1" d="M113.35,29.67l8.51-15.45c8.06-14.64,30.07-11.09,33.08,5.33l3.18,17.34a17.76,17.76,0,0,0,22.45,13.84l17-4.93c16.07-4.67,29.11,13.37,19.6,27.11l-10,14.51a17.72,17.72,0,0,0,6.07,25.64l15.48,8.48c14.67,8,11.09,30-5.37,33l-17.38,3.18A17.76,17.76,0,0,0,192,180.15l4.93,16.92c4.67,16-13.42,29.06-27.19,19.57l-14.54-10a17.81,17.81,0,0,0-25.69,6.07L121,228.16c-8.06,14.63-30.07,11.08-33.08-5.34l-3.18-17.34a17.78,17.78,0,0,0-22.46-13.84l-17,4.94c-16.07,4.67-29.11-13.37-19.6-27.12L35.78,155a17.71,17.71,0,0,0-6.07-25.63l-15.48-8.49c-14.67-8-11.1-30,5.37-33L37,84.64A17.75,17.75,0,0,0,50.86,62.23L45.93,45.3c-4.67-16,13.42-29,27.19-19.57l14.53,10A17.82,17.82,0,0,0,113.35,29.67Z"/></g></g></svg>