<svg xmlns="http://www.w3.org/2000/svg" viewBox="0 0 229.67 229.2"><defs><style>.cls-1{fill:#f5eee5;stroke:#649f3d;stroke-miterlimit:10;stroke-width:10px;}</style></defs><g id="Layer_2" data-name="Layer 2"><g id="Layer_20_copy" data-name="Layer 20 copy"><path class="cls-1" d="M107.21,28.28l8-14.59c7.6-13.8,28.36-10.46,31.2,5l3,16.36a16.76,16.76,0,0,0,21.18,13l16-4.66c15.16-4.4,27.45,12.62,18.48,25.58l-9.48,13.69a16.71,16.71,0,0,0,5.72,24.18l14.61,8c13.84,7.58,10.47,28.3-5.06,31.14l-16.4,3a16.74,16.74,0,0,0-13.09,21.15l4.65,16c4.4,15.13-12.66,27.41-25.65,18.46L146.7,195.2a16.8,16.8,0,0,0-24.24,5.72l-8,14.58c-7.6,13.81-28.37,10.46-31.2-5l-3-16.36a16.77,16.77,0,0,0-21.18-13.05l-16,4.65c-15.16,4.41-27.46-12.61-18.48-25.57L34,146.45a16.71,16.71,0,0,0-5.72-24.18l-14.61-8C-.13,106.69,3.24,86,18.77,83.13l16.4-3A16.75,16.75,0,0,0,48.26,59L43.61,43C39.2,27.89,56.27,15.61,69.25,24.55L83,34A16.81,16.81,0,0,0,107.21,28.28Z"/></g></g></svg>