<svg xmlns="http://www.w3.org/2000/svg" viewBox="0 0 213.06 212.63"><defs><style>.cls-1{fill:#f5eee5;stroke:#649f3d;stroke-miterlimit:10;stroke-width:10px;}</style></defs><g id="Layer_2" data-name="Layer 2"><g id="Layer_20_copy" data-name="Layer 20 copy"><path class="cls-1" d="M99.48,26.52,106.9,13c7-12.77,26.22-9.67,28.85,4.65l2.77,15.12A15.49,15.49,0,0,0,158.1,44.87l14.8-4.3c14-4.07,25.38,11.66,17.08,23.65l-8.76,12.65a15.45,15.45,0,0,0,5.29,22.35l13.5,7.4c12.79,7,9.67,26.16-4.68,28.78l-15.16,2.78a15.47,15.47,0,0,0-12.1,19.54l4.3,14.77c4.07,14-11.7,25.33-23.71,17.06L136,180.82a15.52,15.52,0,0,0-22.4,5.29l-7.42,13.48c-7,12.76-26.22,9.67-28.85-4.65l-2.77-15.13A15.5,15.5,0,0,0,55,167.75l-14.8,4.3c-14,4.07-25.38-11.66-17.08-23.64l8.76-12.66a15.45,15.45,0,0,0-5.29-22.35L13.05,106C.26,99,3.37,79.85,17.73,77.22l15.16-2.77A15.49,15.49,0,0,0,45,54.9l-4.3-14.76c-4.07-14,11.7-25.33,23.71-17.06l12.67,8.73A15.55,15.55,0,0,0,99.48,26.52Z"/></g></g></svg>