<svg xmlns="http://www.w3.org/2000/svg" viewBox="0 0 211.25 210.82"><defs><style>.cls-1{fill:#f5eee5;stroke:#649f3d;stroke-miterlimit:10;stroke-width:10px;}</style></defs><g id="Layer_2" data-name="Layer 2"><g id="Layer_20_copy" data-name="Layer 20 copy"><path class="cls-1" d="M98.64,26.32,106,13c7-12.66,26-9.59,28.59,4.61l2.75,15a15.35,15.35,0,0,0,19.4,12l14.67-4.26c13.89-4,25.15,11.55,16.93,23.43l-8.68,12.54a15.31,15.31,0,0,0,5.24,22.15l13.39,7.34c12.67,6.94,9.58,25.92-4.64,28.52l-15,2.75a15.35,15.35,0,0,0-12,19.38L170.88,171c4,13.85-11.6,25.1-23.5,16.91l-12.56-8.66a15.4,15.4,0,0,0-22.21,5.25l-7.35,13.36c-7,12.65-26,9.58-28.59-4.61l-2.75-15a15.35,15.35,0,0,0-19.4-12l-14.67,4.26C26,174.6,14.7,159,22.92,147.13l8.68-12.54a15.31,15.31,0,0,0-5.24-22.15L13,105.11c-12.67-7-9.58-25.93,4.64-28.53l15-2.75a15.33,15.33,0,0,0,12-19.37L40.37,39.83C36.34,26,52,14.72,63.87,22.91l12.56,8.66A15.4,15.4,0,0,0,98.64,26.32Z"/></g></g></svg>